<?xml version="1.0" encoding="utf-8"?>
<!-- Generator: Adobe Illustrator 24.3.0, SVG Export Plug-In . SVG Version: 6.00 Build 0)  -->
<svg version="1.1" id="Layer_1" xmlns="http://www.w3.org/2000/svg" xmlns:xlink="http://www.w3.org/1999/xlink" x="0px" y="0px"
	 viewBox="0 0 329.2 123.9" style="enable-background:new 0 0 329.2 123.9;" xml:space="preserve">
<style type="text/css">
	.st0{fill:#575756;}
</style>
<g>
	<path class="st0" d="M254.1,16.9h17V20h-17V16.9z M252.9,21.3h19.4v-5.6h-19.4V21.3z"/>
	<g>
		<path class="st0" d="M254.1,30.5h-1.2v-5.6h1.2v2.2h2.2v-2.2h1.2v5.6h-1.2v-2.3h-2.2V30.5z M260.2,30.6c-1.2,0-2.1-0.8-2.1-2.1
			c0-1.2,0.8-2.1,1.9-2.1c1.2,0,1.8,0.8,1.8,2v0.4h-2.5c0.1,0.6,0.6,0.8,1.1,0.8c0.4,0,0.7-0.1,1.1-0.3h0v0.9
			C261.2,30.5,260.8,30.6,260.2,30.6 M259.3,28h1.4c0-0.4-0.2-0.7-0.7-0.7C259.7,27.3,259.4,27.5,259.3,28 M265,28.1l-0.6,2.3h-1.1
			l-1.2-3.9v0h1.2l0.7,2.3l0.6-2.3h0.9l0.6,2.3l0.7-2.3h1.1v0l-1.2,3.9h-1.1L265,28.1z M269.9,30.6c-1,0-1.4-0.4-1.4-1.3v-4.4h1.2
			v4.3c0,0.3,0.1,0.4,0.3,0.4c0.1,0,0.2,0,0.3-0.1h0v1C270.2,30.5,270.1,30.6,269.9,30.6 M272.7,30.6c-1.2,0-2.1-0.8-2.1-2.1
			c0-1.2,0.8-2.1,1.9-2.1c1.2,0,1.8,0.8,1.8,2v0.4h-2.5c0.1,0.6,0.6,0.8,1.1,0.8c0.4,0,0.7-0.1,1.1-0.3h0v0.9
			C273.7,30.5,273.3,30.6,272.7,30.6 M271.8,28h1.4c0-0.4-0.2-0.7-0.7-0.7C272.2,27.3,271.9,27.5,271.8,28 M279.2,26.5h0.9v0.9h-0.9
			v1.6c0,0.3,0.1,0.5,0.5,0.5c0.1,0,0.2,0,0.4-0.1h0v0.9c-0.2,0.1-0.4,0.1-0.7,0.1c-1,0-1.3-0.4-1.3-1.4v-1.7h-1.5v1.6
			c0,0.3,0.1,0.5,0.5,0.5c0.1,0,0.2,0,0.4-0.1h0v0.9c-0.2,0.1-0.4,0.1-0.7,0.1c-1,0-1.3-0.4-1.3-1.4v-1.7h-0.6v-0.9h0.6v-1.1h1.2
			v1.1h1.5v-1.1h1.2V26.5z M286.2,26.8c0,1.2-0.8,1.9-2,1.9h-0.9v1.8H282v-5.6h2.1C285.4,24.9,286.2,25.6,286.2,26.8 M284,27.6
			c0.6,0,0.9-0.3,0.9-0.8c0-0.5-0.3-0.9-0.9-0.9h-0.8v1.7H284z M288.8,30.1c-0.3,0.3-0.6,0.5-1.1,0.5c-0.8,0-1.4-0.5-1.4-1.3
			c0-0.8,0.6-1.3,1.5-1.3c0.3,0,0.6,0,0.9,0.1V28c0-0.4-0.2-0.6-0.9-0.6c-0.4,0-0.8,0.1-1.1,0.3h0v-0.9c0.3-0.2,0.8-0.3,1.4-0.3
			c1.2,0,1.8,0.6,1.8,1.6v2.5h-1.1V30.1z M288.8,29.2v-0.3c-0.2-0.1-0.4-0.1-0.7-0.1c-0.4,0-0.6,0.1-0.6,0.5c0,0.3,0.2,0.5,0.6,0.5
			C288.4,29.7,288.7,29.5,288.8,29.2 M290.5,28.5c0-1.3,0.9-2.1,2.1-2.1c0.4,0,0.8,0.1,1.1,0.3v1h0c-0.3-0.2-0.6-0.3-0.9-0.3
			c-0.6,0-1,0.4-1,1.1c0,0.7,0.4,1.1,1,1.1c0.3,0,0.7-0.1,0.9-0.3h0v1c-0.3,0.2-0.7,0.3-1.1,0.3C291.4,30.6,290.5,29.8,290.5,28.5
			 M295.6,28.7v1.8h-1.2v-5.6h1.2v3.2l1.2-1.6h1.3v0l-1.4,1.8l1.4,2.1v0h-1.3L295.6,28.7z M300.8,30.1c-0.3,0.3-0.6,0.5-1.1,0.5
			c-0.8,0-1.4-0.5-1.4-1.3c0-0.8,0.6-1.3,1.5-1.3c0.3,0,0.6,0,0.9,0.1V28c0-0.4-0.2-0.6-0.9-0.6c-0.4,0-0.8,0.1-1.1,0.3h0v-0.9
			c0.3-0.2,0.8-0.3,1.4-0.3c1.2,0,1.8,0.6,1.8,1.6v2.5h-1.1V30.1z M300.8,29.2v-0.3c-0.2-0.1-0.4-0.1-0.7-0.1
			c-0.4,0-0.6,0.1-0.6,0.5c0,0.3,0.2,0.5,0.6,0.5C300.5,29.7,300.7,29.5,300.8,29.2 M304,27.1c0.2-0.4,0.5-0.7,1-0.7
			c0.2,0,0.3,0,0.4,0.1v1.1h0c-0.1-0.1-0.3-0.1-0.5-0.1c-0.4,0-0.7,0.2-0.7,0.6v2.3h-1.2v-4h1.1V27.1z M308.5,30.1
			c-0.2,0.3-0.6,0.5-1.2,0.5c-1,0-1.7-0.9-1.7-2.1c0-1.1,0.7-2.1,1.7-2.1c0.5,0,0.9,0.2,1.1,0.5v-2h1.2v5.6h-1.1V30.1z M308.4,29.1
			v-1.3c-0.2-0.3-0.5-0.4-0.7-0.4c-0.5,0-0.9,0.4-0.9,1.1c0,0.7,0.3,1,0.9,1C308,29.5,308.2,29.4,308.4,29.1 M252.9,32.3h3.4V33
			h-2.7v1.7h2.4v0.7h-2.4v1.9h2.7v0.7h-3.4V32.3z M259.2,33.9c0.9,0,1.4,0.6,1.4,1.5v2.5h-0.7v-2.5c0-0.5-0.3-0.9-0.8-0.9
			c-0.5,0-0.9,0.3-1,0.7v2.6h-0.7V34h0.7v0.6C258.2,34.2,258.6,33.9,259.2,33.9 M262.5,34h1v0.6h-1v2.1c0,0.4,0.2,0.6,0.7,0.6
			c0.1,0,0.2,0,0.3-0.1h0v0.6c-0.1,0-0.3,0.1-0.5,0.1c-0.9,0-1.3-0.4-1.3-1.2v-2.2h-0.7V34h0.7v-1h0.7V34z M265.9,38
			c-1.2,0-1.9-0.8-1.9-2c0-1.2,0.7-2.1,1.8-2.1c1.1,0,1.6,0.8,1.6,1.9v0.3h-2.7c0.1,0.8,0.6,1.2,1.3,1.2c0.4,0,0.7-0.1,1.1-0.4h0
			v0.7C266.8,37.9,266.4,38,265.9,38 M264.8,35.5h2c0-0.6-0.3-1-0.9-1C265.2,34.5,264.9,34.9,264.8,35.5 M269.1,34.6
			c0.2-0.4,0.5-0.7,1-0.7c0.2,0,0.3,0,0.4,0.1v0.7h0c-0.1-0.1-0.3-0.1-0.5-0.1c-0.4,0-0.7,0.3-0.9,0.7v2.6h-0.7V34h0.7V34.6z
			 M272.9,33.9c1.2,0,1.8,1,1.8,2c0,1.1-0.6,2-1.8,2c-0.5,0-0.9-0.2-1.1-0.5v1.9h-0.7V34h0.7v0.4C272,34.1,272.4,33.9,272.9,33.9
			 M272.8,37.3c0.7,0,1.2-0.6,1.2-1.4c0-0.8-0.4-1.4-1.2-1.4c-0.4,0-0.8,0.2-1,0.6v1.5C272,37.1,272.4,37.3,272.8,37.3 M276.3,34.6
			c0.2-0.4,0.5-0.7,1-0.7c0.2,0,0.3,0,0.4,0.1v0.7h0c-0.1-0.1-0.3-0.1-0.5-0.1c-0.4,0-0.7,0.3-0.9,0.7v2.6h-0.7V34h0.7V34.6z
			 M278.8,32.4c0.3,0,0.5,0.2,0.5,0.5c0,0.3-0.2,0.5-0.5,0.5c-0.2,0-0.5-0.2-0.5-0.5C278.3,32.6,278.5,32.4,278.8,32.4 M278.4,34
			h0.7v3.9h-0.7V34z M281.8,35.6c0.6,0.2,1.2,0.4,1.2,1.2c0,0.8-0.7,1.2-1.5,1.2c-0.5,0-1-0.1-1.3-0.4v-0.7h0
			c0.3,0.3,0.8,0.4,1.3,0.4c0.4,0,0.8-0.2,0.8-0.5c0-0.3-0.3-0.4-0.9-0.6c-0.6-0.2-1.2-0.4-1.2-1.1c0-0.8,0.6-1.2,1.4-1.2
			c0.5,0,0.9,0.1,1.2,0.3v0.7h0c-0.3-0.3-0.7-0.4-1.2-0.4c-0.5,0-0.7,0.2-0.7,0.5C280.9,35.3,281.1,35.4,281.8,35.6 M285.5,38
			c-1.2,0-1.9-0.8-1.9-2c0-1.2,0.7-2.1,1.8-2.1c1.1,0,1.6,0.8,1.6,1.9v0.3h-2.7c0.1,0.8,0.6,1.2,1.3,1.2c0.4,0,0.8-0.1,1.1-0.4h0
			v0.7C286.4,37.9,286,38,285.5,38 M284.4,35.5h2c0-0.6-0.3-1-0.9-1C284.9,34.5,284.5,34.9,284.4,35.5"/>
	</g>
</g>
<g>
	<g>
		<g>
			<path class="st0" d="M185,36.4v-0.2h0c0.1,0,0.1,0,0.1,0.1C185.2,36.4,185.2,36.4,185,36.4L185,36.4z M185.3,36.7l-0.1-0.2
				c0.1,0,0.1-0.1,0.1-0.1c0-0.1-0.1-0.1-0.2-0.1H185v0.5h0.1v-0.2h0.1L185.3,36.7L185.3,36.7z"/>
			<path class="st0" d="M185.1,36c-0.2,0-0.4,0.2-0.4,0.4c0,0.2,0.2,0.4,0.4,0.4c0.2,0,0.4-0.2,0.4-0.4
				C185.5,36.2,185.3,36,185.1,36 M185.1,36.9c-0.3,0-0.5-0.2-0.5-0.5c0-0.3,0.2-0.5,0.5-0.5c0.3,0,0.5,0.2,0.5,0.5
				C185.6,36.7,185.4,36.9,185.1,36.9"/>
		</g>
		<polygon class="st0" points="160.8,32.1 159.5,36 158,32.1 157.6,32.1 159.4,36.8 159.6,36.8 160.9,32.7 162.2,36.8 162.4,36.8 
			164.2,32.1 163.8,32.1 162.3,36 161,32.1 		"/>
		<polygon class="st0" points="165.7,32.1 165.7,36.8 168,36.8 168,36.5 166.1,36.5 166.1,32.1 		"/>
		<polygon class="st0" points="168.7,32.1 168.7,36.8 170.9,36.8 170.9,36.5 169,36.5 169,32.1 		"/>
		<rect x="171.6" y="32.1" class="st0" width="0.4" height="4.7"/>
		<rect x="164.7" y="32.1" class="st0" width="0.4" height="4.7"/>
		<path class="st0" d="M174.5,32.7l0.9,2.2h-1.8L174.5,32.7z M174.4,32.1l-1.9,4.7h0.3l0.7-1.6h2l0.7,1.6h0.3l-1.9-4.7H174.4z"/>
		<polygon class="st0" points="180.9,32.1 179.1,34.3 177.4,32.1 177,32.1 177,36.8 177.4,36.8 177.4,32.7 177.4,32.7 179.1,34.8 
			180.9,32.7 180.9,32.7 180.9,36.8 181.3,36.8 181.3,32.1 		"/>
		<g>
			<path class="st0" d="M184.3,32.9c-0.3-0.4-0.7-0.5-1-0.5c-0.6,0-1,0.4-1,0.9c0,1.2,2.2,0.6,2.2,2.3c0,0.7-0.6,1.3-1.4,1.3
				c-0.4,0-0.8-0.1-1.2-0.4V36c0.5,0.4,0.8,0.5,1.2,0.5c0.6,0,1-0.4,1-0.9c0-1.3-2.2-0.7-2.2-2.3c0-0.7,0.6-1.2,1.3-1.2
				c0.4,0,0.9,0.2,1.1,0.4V32.9z"/>
		</g>
		<polygon class="st0" points="146,32.1 146,36.8 148.4,36.8 148.4,36.2 146.6,36.2 146.6,32.1 		"/>
		<polygon class="st0" points="148.8,32.1 148.8,36.8 151.2,36.8 151.2,36.2 149.5,36.2 149.5,32.1 		"/>
		<polygon class="st0" points="151.6,32.1 151.6,36.8 154.3,36.8 154.3,36.2 152.3,36.2 152.3,34.8 154.2,34.8 154.2,34.2 
			152.3,34.2 152.3,32.8 154.3,32.8 154.3,32.1 		"/>
		<g>
			<path class="st0" d="M155.4,34.2v-1.5h0.4c0.7,0,0.9,0.3,0.9,0.7c0,0.4-0.2,0.8-0.9,0.8H155.4z M157.8,36.8l-0.9-2.2
				c0.5-0.4,0.6-0.7,0.6-1.2c0-0.8-0.6-1.3-1.5-1.3h-1.2v4.7h0.7v-2.1c0,0,0.6,0,0.8,0l0.8,2.1H157.8z"/>
		</g>
		<polygon class="st0" points="142.8,32.1 142.8,36.8 145.5,36.8 145.5,36.2 143.5,36.2 143.5,34.8 145.4,34.8 145.4,34.2 
			143.5,34.2 143.5,32.8 145.5,32.8 145.5,32.1 		"/>
		<polygon class="st0" points="141.6,32.1 141.4,32.4 139.7,34.3 139.7,32.1 139,32.1 139,36.8 139.7,36.8 139.7,35.2 140.4,34.4 
			141.4,36.8 142.1,36.8 142.1,36.8 141.8,36.2 140.9,33.9 141.9,32.7 142.5,32.1 		"/>
	</g>
	<polygon class="st0" points="139,15.7 139,29.8 141,29.8 141,26.5 142.4,25 144.4,29.8 146.4,29.8 143.8,23.5 145.6,21.4 
		149.2,29.8 150,29.8 152.7,23.3 155.5,29.8 156.2,29.8 160.3,20.3 158.3,20.3 155.8,26.1 153.4,20.3 152,20.3 149.6,26.1 
		147.1,20.3 144.5,20.3 141,23.8 141,15.7 	"/>
</g>
<g>
	<g>
		<path class="st0" d="M15.6,25.6c0.7-0.5,1.4-0.9,2.2-1.4C16.9,24.5,16.1,24.8,15.6,25.6c-1.3,1-2,2.4-2,3.9c0,1.2-0.6,1.7-1.5,2.1
			c0,0-0.1,0-0.1,0.1c-1.1,0.5-2.2,1-3.3,1.5c0,0,0,0.1,0,0.1c0.8-0.2,1.6-0.5,2.4-0.7c0.8-0.2,1.6-0.5,2.4-0.7
			c0.1,0.1,0.1,0.1,0.1,0.2c1,3.1,3.8,4.7,6.4,4.6c0.2,0,0.5,0.2,0.6,0.4c0.9,1.8,1.8,3.6,2.6,5.3c-0.5-1.8-1.1-3.8-1.7-5.8
			c0.1-0.1,0.1-0.1,0.1-0.1c0.1-0.1,0.2-0.1,0.4-0.2c2.6-1.1,4.1-2.9,4.3-5.8c0-0.9,0.4-1.3,1.1-1.6c0.1,0,0.1-0.1,0.2-0.1
			c1.4-0.6,2.8-1.3,4.2-1.9c0,0,0,0,0-0.1c-3.8,1.1-7.5,2.3-11.1,3.3c1.1,0.3,2.3,0.7,3.5,1.1c0.5-0.4,1.1-1,1.8-1.6
			c0.2,3.5-2.2,5.9-4.6,6.4c-0.5-1.7-1-3.5-1.5-5.1c-0.4,1.2-0.7,2.4-1.1,3.6c0.4,0.5,0.9,1.1,1.5,1.8c-2.7,0.4-5.9-1.8-6.4-4.5
			c1.7-0.5,3.5-1,5.1-1.5c-1.1-0.4-2.3-0.7-3.5-1.1c-0.5,0.4-1.1,1-1.9,1.6C13.6,28.6,14.3,27,15.6,25.6z M16.3,17.7
			c1.2,3.9,2.4,7.9,3.5,11.7c0.3-1.1,0.7-2.3,1.1-3.6C20.6,25.3,17.3,19.8,16.3,17.7z"/>
		<path class="st0" d="M15.5,25.6c0.6-0.7,1.4-1.1,2.2-1.3C17,24.7,16.3,25.1,15.5,25.6L15.5,25.6z"/>
	</g>
	<g>
		<path class="st0" d="M29.1,23.4c0,0.2-0.1,0.4-0.2,0.6c-0.1,0.2-0.2,0.4-0.4,0.5c-0.2,0.1-0.4,0.3-0.6,0.4
			c-0.2,0.1-0.5,0.1-0.8,0.1H27c-0.5,0-0.9-0.1-1.4-0.3l0-0.1l0.1-1.2h0h0.1h0.3c0.1,0,0.1,0,0.1,0.1c0,0.1,0,0.3,0,0.6
			c0.2,0.1,0.5,0.1,1,0.1c0.3,0,0.5-0.1,0.7-0.2c0.2-0.1,0.3-0.3,0.3-0.6c0-0.1,0-0.2-0.1-0.3C28.1,23.1,28,23,27.9,23
			c-0.1-0.1-0.2-0.1-0.4-0.1c-0.1,0-0.3-0.1-0.4-0.1c-0.1,0-0.3-0.1-0.4-0.2c-0.1-0.1-0.2-0.2-0.3-0.3c-0.1-0.1-0.2-0.2-0.2-0.4
			c0-0.2-0.1-0.4,0-0.6c0-0.2,0.1-0.4,0.2-0.5c0.1-0.2,0.2-0.3,0.4-0.5c0.2-0.1,0.3-0.2,0.6-0.3c0.2-0.1,0.5-0.1,0.7-0.1
			c0.5,0,1,0.1,1.4,0.3l-0.2,1.3h0h-0.1h-0.3c-0.1,0-0.1,0-0.1-0.1c0-0.1,0-0.3,0-0.6c-0.2-0.1-0.4-0.1-0.8-0.1c-0.1,0-0.3,0-0.4,0
			c-0.1,0-0.2,0.1-0.3,0.1c-0.1,0.1-0.1,0.1-0.2,0.2c0,0.1-0.1,0.2-0.1,0.3c0,0.1,0,0.2,0.1,0.3c0.1,0.1,0.1,0.1,0.2,0.2
			c0.1,0.1,0.2,0.1,0.4,0.2c0.1,0,0.3,0.1,0.4,0.1c0.1,0.1,0.3,0.1,0.4,0.2c0.1,0.1,0.2,0.1,0.3,0.3c0.1,0.1,0.2,0.2,0.2,0.4
			C29.2,23,29.2,23.2,29.1,23.4z"/>
		<path class="st0" d="M34.9,24.6l0,0.4h-0.2h-0.6H34h-0.1h-0.7l0-0.4c0-0.1,0.1-0.1,0.2-0.2c0,0,0.1,0,0.1-0.1l0-0.1l-0.2-0.7h-2.1
			l-0.4,0.7l0,0c0.1,0,0.1,0,0.1,0.1c0.1,0,0.1,0.1,0.1,0.2l0,0.4h-0.7h-0.1h-0.1h-0.6h-0.2l0-0.4c0-0.1,0.1-0.1,0.2-0.2
			c0,0,0.2-0.1,0.4-0.2l2.3-4.4h1l1.2,4.4c0.2,0.1,0.3,0.1,0.4,0.2C34.9,24.5,34.9,24.6,34.9,24.6z M31.6,22.9h1.6l-0.4-1.6
			c0-0.1,0-0.2-0.1-0.3c0-0.1,0-0.2-0.1-0.3c0,0.1-0.1,0.2-0.1,0.3c0,0.1-0.1,0.2-0.1,0.3L31.6,22.9z"/>
		<path class="st0" d="M40.6,19.9l-0.1,0.4c0,0.1-0.1,0.2-0.2,0.2c0,0,0,0,0,0c0,0-0.1,0-0.1,0c0,0-0.1,0-0.2,0l-0.3,2.4
			c0,0.3-0.1,0.6-0.3,0.8c-0.1,0.3-0.3,0.5-0.5,0.7c-0.2,0.2-0.4,0.3-0.7,0.4c-0.3,0.1-0.6,0.2-0.9,0.2s-0.6,0-0.9-0.2
			c-0.2-0.1-0.5-0.3-0.6-0.4c-0.2-0.2-0.3-0.4-0.3-0.7c-0.1-0.3-0.1-0.5,0-0.8l0.3-2.4c-0.1,0-0.2,0-0.2,0c0,0-0.1,0-0.1,0
			c0,0,0,0,0,0c-0.1,0-0.2-0.1-0.2-0.2l0.1-0.4h0.5h1h0.6l0,0.4c0,0.1-0.1,0.2-0.2,0.2c0,0,0,0-0.1,0c0,0-0.1,0-0.1,0
			c-0.1,0-0.1,0-0.2,0l-0.3,2.4c0,0.2,0,0.4,0,0.5c0,0.2,0.1,0.3,0.2,0.4c0.1,0.1,0.2,0.2,0.3,0.3c0.1,0.1,0.3,0.1,0.5,0.1
			c0.2,0,0.4,0,0.5-0.1c0.2-0.1,0.3-0.1,0.4-0.3c0.1-0.1,0.2-0.2,0.3-0.4c0.1-0.2,0.1-0.3,0.1-0.5l0.3-2.4c-0.1,0-0.2,0-0.2,0
			c-0.1,0-0.1,0-0.1,0c0,0,0,0,0,0c-0.1,0-0.2-0.1-0.1-0.2l0-0.4h0.6h1H40.6z"/>
		<path class="st0" d="M45.1,24.6L45,25h-0.1h-0.4H44c-0.1,0-0.1,0-0.2,0s-0.1-0.1-0.1-0.1l-0.9-1.7c0-0.1-0.1-0.1-0.1-0.1
			c0,0-0.1,0-0.2,0h-0.4L42,24.3c0.1,0,0.2,0,0.2,0c0,0,0.1,0,0.1,0s0,0,0,0c0.1,0,0.2,0.1,0.1,0.2l0,0.4h-0.5h-1h-0.5l0-0.4
			c0-0.1,0.1-0.2,0.2-0.2c0,0,0,0,0,0c0,0,0.1,0,0.1,0c0,0,0.1,0,0.2,0l0.5-3.7c-0.1,0-0.2,0-0.2,0c0,0-0.1,0-0.1,0s0,0,0,0
			c-0.1,0-0.2-0.1-0.1-0.2l0-0.4h0.5h1.5c0.3,0,0.6,0,0.9,0.1s0.4,0.2,0.6,0.3c0.1,0.1,0.2,0.3,0.3,0.5c0.1,0.2,0.1,0.4,0,0.6
			c0,0.2-0.1,0.3-0.1,0.5c-0.1,0.2-0.2,0.3-0.3,0.4c-0.1,0.1-0.2,0.2-0.4,0.3c-0.1,0.1-0.3,0.2-0.5,0.2c0.1,0.1,0.2,0.2,0.3,0.3
			l0.7,1.2c0.1,0,0.2,0,0.2,0c0.1,0,0.1,0,0.1,0s0,0,0,0C45,24.4,45.1,24.5,45.1,24.6z M43.6,22c0.1-0.1,0.2-0.2,0.2-0.3
			c0.1-0.1,0.1-0.2,0.1-0.4c0-0.3,0-0.5-0.2-0.6c-0.2-0.1-0.4-0.2-0.8-0.2h-0.6l-0.2,1.7h0.5c0.2,0,0.3,0,0.5-0.1
			C43.4,22.2,43.5,22.1,43.6,22z"/>
		<path class="st0" d="M47.7,20.5c0,0-0.1,0-0.1,0c0,0-0.1,0-0.2,0l-0.5,3.7c0.1,0,0.2,0,0.2,0c0,0,0.1,0,0.1,0c0,0,0,0,0,0
			c0.1,0,0.2,0.1,0.1,0.2L47.4,25h-0.5h-1h-0.5l0-0.4c0-0.1,0.1-0.2,0.2-0.2c0,0,0,0,0,0c0,0,0.1,0,0.1,0c0,0,0.1,0,0.2,0l0.5-3.7
			c-0.1,0-0.2,0-0.2,0c0,0-0.1,0-0.1,0c0,0,0,0,0,0c-0.1,0-0.2-0.1-0.1-0.2l0-0.4h0.5h1H48l0,0.4C48,20.4,47.9,20.5,47.7,20.5
			C47.8,20.5,47.7,20.5,47.7,20.5z"/>
		<path class="st0" d="M52.6,19.9l-0.1,1.2h0h-0.1h-0.3c-0.1,0-0.1,0-0.1-0.1v-0.3h-1.1l-0.4,3.7c0.1,0,0.2,0,0.2,0c0,0,0.1,0,0.1,0
			c0,0,0,0,0,0c0.1,0,0.2,0.1,0.1,0.2l0,0.4h-0.5h-1h-0.5l0-0.4c0-0.1,0.1-0.2,0.2-0.2c0,0,0,0,0,0c0,0,0.1,0,0.1,0c0,0,0.1,0,0.2,0
			l0.4-3.7h-1.1c0,0.2-0.1,0.3-0.1,0.3c0,0.1-0.1,0.1-0.2,0.1h-0.3h-0.1h0l0.1-1.2h0.1h0h4.1H52.6z"/>
		<path class="st0" d="M59.1,24.6L59,25h-0.1h-0.4h-0.4c-0.1,0-0.1,0-0.2,0c-0.1,0-0.1-0.1-0.1-0.1l-0.9-1.7c0-0.1-0.1-0.1-0.1-0.1
			c0,0-0.1,0-0.2,0h-0.4L56,24.3c0.1,0,0.2,0,0.2,0c0,0,0.1,0,0.1,0c0,0,0,0,0,0c0.1,0,0.2,0.1,0.1,0.2l0,0.4h-0.5h-1h-0.5l0-0.4
			c0-0.1,0.1-0.2,0.2-0.2c0,0,0,0,0,0c0,0,0.1,0,0.1,0c0,0,0.1,0,0.2,0l0.5-3.7c-0.1,0-0.2,0-0.2,0c0,0-0.1,0-0.1,0s0,0,0,0
			c-0.1,0-0.2-0.1-0.1-0.2l0-0.4h0.5h1.5c0.3,0,0.6,0,0.9,0.1s0.4,0.2,0.6,0.3c0.1,0.1,0.2,0.3,0.3,0.5c0.1,0.2,0.1,0.4,0,0.6
			c0,0.2-0.1,0.3-0.1,0.5s-0.2,0.3-0.3,0.4c-0.1,0.1-0.2,0.2-0.4,0.3c-0.1,0.1-0.3,0.2-0.5,0.2c0.1,0.1,0.2,0.2,0.3,0.3l0.7,1.2
			c0.1,0,0.2,0,0.2,0c0.1,0,0.1,0,0.1,0c0,0,0,0,0,0C59,24.4,59.1,24.5,59.1,24.6z M57.6,22c0.1-0.1,0.2-0.2,0.2-0.3
			c0.1-0.1,0.1-0.2,0.1-0.4c0-0.3,0-0.5-0.2-0.6c-0.2-0.1-0.4-0.2-0.8-0.2h-0.6l-0.2,1.7h0.5c0.2,0,0.3,0,0.5-0.1
			C57.4,22.2,57.5,22.1,57.6,22z"/>
		<path class="st0" d="M64.3,23.5c-0.2,0.3-0.4,0.6-0.6,0.8c-0.3,0.2-0.6,0.4-0.9,0.5c-0.3,0.1-0.7,0.2-1.1,0.2s-0.7-0.1-1-0.2
			c-0.3-0.1-0.6-0.3-0.8-0.5c-0.2-0.2-0.3-0.5-0.4-0.8c-0.1-0.3-0.1-0.7-0.1-1.1c0-0.4,0.2-0.7,0.3-1c0.2-0.3,0.4-0.6,0.6-0.8
			c0.3-0.2,0.6-0.4,0.9-0.5c0.3-0.1,0.7-0.2,1.1-0.2c0.4,0,0.7,0.1,1,0.2c0.3,0.1,0.6,0.3,0.8,0.5c0.2,0.2,0.3,0.5,0.4,0.8
			c0.1,0.3,0.1,0.7,0.1,1C64.6,22.8,64.5,23.2,64.3,23.5z M63.7,21.7c0-0.2-0.1-0.4-0.3-0.6c-0.1-0.2-0.3-0.3-0.5-0.4
			c-0.2-0.1-0.4-0.1-0.7-0.1c-0.2,0-0.5,0-0.7,0.1c-0.2,0.1-0.4,0.2-0.6,0.4c-0.2,0.2-0.3,0.3-0.4,0.6s-0.2,0.5-0.2,0.8
			c0,0.3,0,0.5,0,0.8c0.1,0.2,0.1,0.4,0.3,0.6c0.1,0.2,0.3,0.3,0.5,0.4c0.2,0.1,0.4,0.1,0.7,0.1c0.2,0,0.5,0,0.7-0.1
			c0.2-0.1,0.4-0.2,0.5-0.4s0.3-0.3,0.4-0.6c0.1-0.2,0.2-0.5,0.2-0.8C63.7,22.1,63.7,21.9,63.7,21.7z"/>
		<path class="st0" d="M71.9,20.5c0,0-0.1,0-0.1,0c0,0-0.1,0-0.2,0l-0.5,3.7c0.1,0,0.2,0,0.2,0c0,0,0.1,0,0.1,0c0,0,0,0,0,0
			c0.1,0,0.2,0.1,0.1,0.2L71.5,25H71h-0.8h-0.6l0-0.4c0-0.1,0.1-0.2,0.2-0.2c0,0,0.2,0,0.5-0.1l0.3-2.6c0-0.1,0-0.1,0-0.2
			c0-0.1,0-0.1,0-0.2l-1.9,2.9c0,0.1-0.1,0.1-0.2,0.2c-0.1,0-0.1,0.1-0.2,0.1h-0.1c-0.1,0-0.1,0-0.2-0.1s-0.1-0.1-0.1-0.2l-1.2-2.9
			c0,0.1,0,0.1,0,0.2c0,0.1,0,0.1,0,0.2l-0.3,2.6c0.3,0,0.4,0.1,0.5,0.1c0.1,0,0.2,0.1,0.2,0.2L66.9,25h-0.6h-0.8h-0.5l0-0.4
			c0-0.1,0.1-0.2,0.2-0.2c0,0,0,0,0,0c0,0,0.1,0,0.1,0c0,0,0.1,0,0.2,0l0.5-3.7c-0.1,0-0.2,0-0.2,0c0,0-0.1,0-0.1,0c0,0,0,0,0,0
			c-0.1,0-0.2-0.1-0.1-0.2l0-0.4h0.5h0.7c0,0,0.1,0,0.1,0c0,0,0.1,0,0.1,0c0,0,0,0,0.1,0c0,0,0,0,0,0.1l1.2,2.9
			c0,0.1,0.1,0.2,0.1,0.2c0,0.1,0.1,0.2,0.1,0.2c0-0.1,0.1-0.2,0.1-0.3c0-0.1,0.1-0.2,0.1-0.2l1.9-2.8c0,0,0-0.1,0.1-0.1
			c0,0,0,0,0.1,0c0,0,0.1,0,0.1,0c0,0,0.1,0,0.1,0h0.7h0.5l0,0.4C72.1,20.4,72,20.5,71.9,20.5C71.9,20.5,71.9,20.5,71.9,20.5z"/>
		<path class="st0" d="M77.8,24.6l0,0.4h-0.2h-0.6h-0.1h-0.1H76l0-0.4c0-0.1,0.1-0.1,0.2-0.2c0,0,0.1,0,0.1-0.1l0-0.1l-0.2-0.7h-2.1
			l-0.4,0.7l0,0c0.1,0,0.1,0,0.1,0.1c0.1,0,0.1,0.1,0.1,0.2l0,0.4h-0.7h-0.1H73h-0.6h-0.2l0-0.4c0-0.1,0.1-0.1,0.2-0.2
			c0,0,0.2-0.1,0.4-0.2l2.3-4.4h1l1.2,4.4c0.2,0.1,0.3,0.1,0.4,0.2C77.7,24.5,77.8,24.6,77.8,24.6z M74.4,22.9H76l-0.4-1.6
			c0-0.1,0-0.2-0.1-0.3c0-0.1,0-0.2-0.1-0.3c0,0.1-0.1,0.2-0.1,0.3c0,0.1-0.1,0.2-0.1,0.3L74.4,22.9z"/>
		<path class="st0" d="M84.1,19.9l0,0.4c0,0.1-0.1,0.2-0.2,0.2c0,0,0,0,0,0s-0.1,0-0.1,0c0,0-0.1,0-0.2,0L83,25h-0.5
			c-0.1,0-0.1,0-0.2,0c-0.1,0-0.1-0.1-0.1-0.1l-2.3-3.4c0,0.1,0,0.1,0,0.2c0,0.1,0,0.1,0,0.2l-0.3,2.5c0.3,0,0.4,0.1,0.5,0.1
			c0.1,0,0.2,0.1,0.2,0.2L80.1,25h-0.6h-0.8h-0.5l0-0.4c0-0.1,0.1-0.2,0.2-0.2c0,0,0,0,0,0c0,0,0.1,0,0.1,0c0,0,0.1,0,0.2,0l0.5-3.7
			c-0.1,0-0.2,0-0.2,0c0,0-0.1,0-0.1,0s0,0,0,0c-0.1,0-0.2-0.1-0.1-0.2l0-0.4h0.5h0.5c0,0,0.1,0,0.1,0c0,0,0,0,0.1,0c0,0,0,0,0.1,0
			c0,0,0,0,0.1,0.1l2.3,3.4c0-0.1,0-0.2,0-0.2c0-0.1,0-0.2,0-0.2l0.3-2.4c-0.3,0-0.4-0.1-0.5-0.1c-0.1,0-0.2-0.1-0.1-0.2l0-0.4h0.6
			h0.8H84.1z"/>
	</g>
	<g>
		<path class="st0" d="M47.8,31.4l0,0.3h-0.2h-0.5h-0.1h-0.1H46l0-0.3c0-0.1,0.1-0.1,0.2-0.2c0,0,0.1,0,0.1-0.1l0-0.1l-0.2-0.7h-2
			l-0.3,0.7l0,0c0.1,0,0.1,0,0.1,0.1c0.1,0,0.1,0.1,0.1,0.2l0,0.3h-0.7h-0.1h-0.1h-0.5h-0.2l0-0.3c0-0.1,0.1-0.1,0.2-0.2
			c0,0,0.2-0.1,0.4-0.2l2.2-4.3h0.9l1.1,4.3c0.2,0.1,0.3,0.1,0.4,0.2C47.7,31.2,47.8,31.3,47.8,31.4z M44.6,29.7h1.5l-0.4-1.5
			c0-0.1,0-0.2-0.1-0.3c0-0.1,0-0.2-0.1-0.3c0,0.1-0.1,0.2-0.1,0.3c0,0.1-0.1,0.2-0.1,0.3L44.6,29.7z"/>
		<path class="st0" d="M52.1,30.2c0,0.2-0.1,0.4-0.2,0.6c-0.1,0.2-0.2,0.4-0.4,0.5c-0.2,0.1-0.4,0.3-0.6,0.3
			c-0.2,0.1-0.5,0.1-0.7,0.1h-0.1c-0.4,0-0.9-0.1-1.4-0.3l0-0.1l0.1-1.1h0h0.1h0.3c0.1,0,0.1,0,0.1,0.1c0,0.1,0,0.3,0,0.6
			c0.2,0.1,0.5,0.1,0.9,0.1c0.3,0,0.5-0.1,0.6-0.2c0.2-0.1,0.3-0.3,0.3-0.5c0-0.1,0-0.2-0.1-0.3c-0.1-0.1-0.1-0.2-0.2-0.2
			c-0.1-0.1-0.2-0.1-0.3-0.1c-0.1,0-0.3-0.1-0.4-0.1c-0.1,0-0.3-0.1-0.4-0.2c-0.1-0.1-0.2-0.2-0.3-0.3c-0.1-0.1-0.2-0.2-0.2-0.4
			c0-0.2-0.1-0.3,0-0.6c0-0.2,0.1-0.4,0.2-0.5c0.1-0.2,0.2-0.3,0.4-0.5c0.2-0.1,0.3-0.2,0.5-0.3c0.2-0.1,0.4-0.1,0.7-0.1
			c0.5,0,1,0.1,1.4,0.3l-0.2,1.3h0h-0.1h-0.3c-0.1,0-0.1,0-0.1-0.1c0-0.1,0-0.2,0-0.6c-0.2-0.1-0.4-0.1-0.8-0.1c-0.1,0-0.2,0-0.3,0
			c-0.1,0-0.2,0.1-0.3,0.1c-0.1,0.1-0.1,0.1-0.2,0.2c0,0.1-0.1,0.2-0.1,0.3c0,0.1,0,0.2,0.1,0.3c0.1,0.1,0.1,0.1,0.2,0.2
			c0.1,0.1,0.2,0.1,0.3,0.2c0.1,0,0.3,0.1,0.4,0.1c0.1,0,0.3,0.1,0.4,0.2c0.1,0.1,0.2,0.1,0.3,0.2c0.1,0.1,0.2,0.2,0.2,0.4
			C52.1,29.8,52.1,30,52.1,30.2z"/>
		<path class="st0" d="M57.5,26.8l-0.1,0.5l0,0.3l-0.1,0.6h0h-0.1h-0.3c-0.1,0-0.1,0-0.1-0.1c0-0.1,0-0.2,0-0.4h-1.6L55,28.9h1.7
			l-0.1,0.7h-1.7L54.8,31h1.6c0.1-0.2,0.1-0.4,0.1-0.4c0-0.1,0.1-0.1,0.2-0.1h0.3H57h0L57,31l0,0.3l-0.1,0.5h-3.1h-0.5l0-0.4
			c0-0.1,0.1-0.2,0.2-0.2c0,0,0,0,0,0c0,0,0.1,0,0.1,0c0,0,0.1,0,0.2,0l0.4-3.6c-0.1,0-0.2,0-0.2,0c0,0-0.1,0-0.1,0c0,0,0,0,0,0
			c-0.1,0-0.2-0.1-0.1-0.2l0-0.4h0.5H57.5z"/>
		<path class="st0" d="M61.8,30.2c0,0.2-0.1,0.4-0.2,0.6c-0.1,0.2-0.2,0.4-0.4,0.5c-0.2,0.1-0.4,0.3-0.6,0.3
			c-0.2,0.1-0.5,0.1-0.7,0.1h-0.1c-0.4,0-0.9-0.1-1.4-0.3l0-0.1l0.1-1.1h0h0.1h0.3c0.1,0,0.1,0,0.1,0.1c0,0.1,0,0.3,0,0.6
			C59.2,31,59.6,31,60,31c0.3,0,0.5-0.1,0.6-0.2c0.2-0.1,0.3-0.3,0.3-0.5c0-0.1,0-0.2-0.1-0.3c-0.1-0.1-0.1-0.2-0.2-0.2
			c-0.1-0.1-0.2-0.1-0.3-0.1c-0.1,0-0.3-0.1-0.4-0.1c-0.1,0-0.3-0.1-0.4-0.2c-0.1-0.1-0.2-0.2-0.3-0.3C59,29,59,28.9,58.9,28.7
			c0-0.2-0.1-0.3,0-0.6c0-0.2,0.1-0.4,0.2-0.5c0.1-0.2,0.2-0.3,0.4-0.5c0.2-0.1,0.3-0.2,0.5-0.3c0.2-0.1,0.4-0.1,0.7-0.1
			c0.5,0,1,0.1,1.4,0.3l-0.2,1.3h0h-0.1h-0.3c-0.1,0-0.1,0-0.1-0.1c0-0.1,0-0.2,0-0.6c-0.2-0.1-0.4-0.1-0.8-0.1c-0.1,0-0.2,0-0.3,0
			c-0.1,0-0.2,0.1-0.3,0.1c-0.1,0.1-0.1,0.1-0.2,0.2c0,0.1-0.1,0.2-0.1,0.3c0,0.1,0,0.2,0.1,0.3c0.1,0.1,0.1,0.1,0.2,0.2
			c0.1,0.1,0.2,0.1,0.3,0.2c0.1,0,0.3,0.1,0.4,0.1c0.1,0,0.3,0.1,0.4,0.2c0.1,0.1,0.2,0.1,0.3,0.2c0.1,0.1,0.2,0.2,0.2,0.4
			C61.8,29.8,61.8,30,61.8,30.2z"/>
		<path class="st0" d="M67.7,30.3c-0.2,0.3-0.4,0.6-0.6,0.8c-0.2,0.2-0.5,0.4-0.9,0.5c-0.3,0.1-0.7,0.2-1,0.2c-0.4,0-0.7-0.1-1-0.2
			c-0.3-0.1-0.5-0.3-0.7-0.5c-0.2-0.2-0.3-0.5-0.4-0.8c-0.1-0.3-0.1-0.6-0.1-1c0-0.4,0.2-0.7,0.3-1c0.2-0.3,0.4-0.6,0.6-0.8
			c0.2-0.2,0.5-0.4,0.9-0.5c0.3-0.1,0.7-0.2,1-0.2s0.7,0.1,1,0.2c0.3,0.1,0.5,0.3,0.7,0.5c0.2,0.2,0.3,0.5,0.4,0.8
			c0.1,0.3,0.1,0.6,0.1,1C67.9,29.6,67.8,29.9,67.7,30.3z M67,28.5c0-0.2-0.1-0.4-0.2-0.6c-0.1-0.2-0.3-0.3-0.4-0.3
			c-0.2-0.1-0.4-0.1-0.6-0.1c-0.2,0-0.5,0-0.7,0.1c-0.2,0.1-0.4,0.2-0.5,0.3c-0.2,0.2-0.3,0.3-0.4,0.6c-0.1,0.2-0.2,0.5-0.2,0.7
			c0,0.3,0,0.5,0,0.7c0,0.2,0.1,0.4,0.2,0.5c0.1,0.2,0.3,0.3,0.5,0.3C64.8,31,65,31,65.3,31c0.2,0,0.5,0,0.7-0.1
			c0.2-0.1,0.4-0.2,0.5-0.3c0.2-0.2,0.3-0.3,0.4-0.5c0.1-0.2,0.2-0.5,0.2-0.7C67.1,29,67.1,28.7,67,28.5z"/>
		<path class="st0" d="M73.3,31.3l0,0.4h-0.1h-0.4h-0.4c-0.1,0-0.1,0-0.2,0c-0.1,0-0.1-0.1-0.1-0.1l-0.8-1.6c0-0.1-0.1-0.1-0.1-0.1
			c0,0-0.1,0-0.2,0h-0.3L70.4,31c0.1,0,0.2,0,0.2,0c0,0,0.1,0,0.1,0c0,0,0,0,0,0c0.1,0,0.2,0.1,0.1,0.2l0,0.4h-0.5h-0.9h-0.5l0-0.4
			c0-0.1,0.1-0.2,0.2-0.2c0,0,0,0,0,0c0,0,0.1,0,0.1,0c0,0,0.1,0,0.2,0l0.4-3.6c-0.1,0-0.2,0-0.2,0c0,0-0.1,0-0.1,0c0,0,0,0,0,0
			c-0.1,0-0.2-0.1-0.1-0.2l0-0.4H70h1.5c0.3,0,0.6,0,0.9,0.1c0.2,0.1,0.4,0.2,0.6,0.3c0.1,0.1,0.2,0.3,0.3,0.5c0,0.2,0.1,0.4,0,0.6
			c0,0.2-0.1,0.3-0.1,0.5c-0.1,0.2-0.2,0.3-0.3,0.4c-0.1,0.1-0.2,0.2-0.4,0.3c-0.1,0.1-0.3,0.2-0.5,0.2c0.1,0.1,0.2,0.2,0.3,0.3
			l0.6,1.1c0.1,0,0.2,0,0.2,0c0.1,0,0.1,0,0.1,0s0,0,0,0C73.3,31.1,73.3,31.2,73.3,31.3z M71.9,28.9c0.1-0.1,0.2-0.2,0.2-0.3
			c0.1-0.1,0.1-0.2,0.1-0.3c0-0.3,0-0.4-0.2-0.6c-0.2-0.1-0.4-0.2-0.7-0.2h-0.5l-0.2,1.6h0.5c0.2,0,0.3,0,0.5-0.1
			C71.7,29,71.8,29,71.9,28.9z"/>
		<path class="st0" d="M78.5,26.8l-0.1,0.5l0,0.3l-0.1,0.6h0h-0.1h-0.3c-0.1,0-0.1,0-0.1-0.1c0-0.1,0-0.2,0-0.4h-1.6L76,28.9h1.7
			l-0.1,0.7h-1.7L75.7,31h1.6c0.1-0.2,0.1-0.4,0.1-0.4c0-0.1,0.1-0.1,0.2-0.1h0.3H78h0L77.9,31l0,0.3l-0.1,0.5h-3.1h-0.5l0-0.4
			c0-0.1,0.1-0.2,0.2-0.2c0,0,0,0,0,0c0,0,0.1,0,0.1,0c0,0,0.1,0,0.2,0l0.4-3.6c-0.1,0-0.2,0-0.2,0c0,0-0.1,0-0.1,0s0,0,0,0
			c-0.1,0-0.2-0.1-0.1-0.2l0-0.4h0.5H78.5z"/>
		<path class="st0" d="M82.7,30.2c0,0.2-0.1,0.4-0.2,0.6c-0.1,0.2-0.2,0.4-0.4,0.5c-0.2,0.1-0.4,0.3-0.6,0.3
			c-0.2,0.1-0.5,0.1-0.7,0.1h-0.1c-0.4,0-0.9-0.1-1.4-0.3l0-0.1l0.1-1.1h0h0.1h0.3c0.1,0,0.1,0,0.1,0.1c0,0.1,0,0.3,0,0.6
			c0.2,0.1,0.5,0.1,0.9,0.1c0.3,0,0.5-0.1,0.6-0.2c0.2-0.1,0.3-0.3,0.3-0.5c0-0.1,0-0.2-0.1-0.3c-0.1-0.1-0.1-0.2-0.2-0.2
			c-0.1-0.1-0.2-0.1-0.3-0.1c-0.1,0-0.3-0.1-0.4-0.1c-0.1,0-0.3-0.1-0.4-0.2c-0.1-0.1-0.2-0.2-0.3-0.3c-0.1-0.1-0.2-0.2-0.2-0.4
			c0-0.2-0.1-0.3,0-0.6c0-0.2,0.1-0.4,0.2-0.5c0.1-0.2,0.2-0.3,0.4-0.5c0.2-0.1,0.3-0.2,0.5-0.3c0.2-0.1,0.4-0.1,0.7-0.1
			c0.5,0,1,0.1,1.4,0.3l-0.2,1.3h0h-0.1h-0.3c-0.1,0-0.1,0-0.1-0.1c0-0.1,0-0.2,0-0.6c-0.2-0.1-0.4-0.1-0.8-0.1c-0.1,0-0.2,0-0.3,0
			c-0.1,0-0.2,0.1-0.3,0.1c-0.1,0.1-0.1,0.1-0.2,0.2c0,0.1-0.1,0.2-0.1,0.3c0,0.1,0,0.2,0.1,0.3c0.1,0.1,0.1,0.1,0.2,0.2
			c0.1,0.1,0.2,0.1,0.3,0.2c0.1,0,0.3,0.1,0.4,0.1c0.1,0,0.3,0.1,0.4,0.2c0.1,0.1,0.2,0.1,0.3,0.2c0.1,0.1,0.2,0.2,0.2,0.4
			C82.8,29.8,82.8,30,82.7,30.2z"/>
	</g>
	<g>
		<path class="st0" d="M27.3,37.4V35h0.9c0.2,0,0.4,0.1,0.5,0.2c0.1,0.1,0.2,0.2,0.2,0.4c0,0.3-0.1,0.4-0.4,0.5
			c0.2,0,0.3,0.1,0.4,0.2c0.1,0.1,0.1,0.2,0.1,0.4c0,0.2-0.1,0.3-0.2,0.5c-0.1,0.1-0.3,0.2-0.6,0.2H27.3z M27.6,36h0.5
			c0.2,0,0.3,0,0.4-0.1c0.1-0.1,0.1-0.2,0.1-0.3c0-0.1,0-0.2-0.1-0.3c-0.1-0.1-0.2-0.1-0.3-0.1h-0.6V36z M27.6,37.1h0.6
			c0.2,0,0.3,0,0.4-0.1c0.1-0.1,0.1-0.2,0.1-0.3c0-0.1,0-0.2-0.1-0.2c0-0.1-0.1-0.1-0.2-0.2c-0.1,0-0.2-0.1-0.3-0.1h-0.6V37.1z"/>
		<path class="st0" d="M32.5,37.4h-0.3l-0.4-1h-0.7v1h-0.3V35h0.9c0.2,0,0.4,0.1,0.6,0.2c0.1,0.1,0.2,0.3,0.2,0.5
			c0,0.1,0,0.2-0.1,0.4c-0.1,0.1-0.2,0.2-0.3,0.2L32.5,37.4z M31.1,36.1h0.6c0.2,0,0.3,0,0.4-0.1c0.1-0.1,0.1-0.2,0.1-0.3
			c0-0.1,0-0.2-0.1-0.3c-0.1-0.1-0.2-0.1-0.3-0.1h-0.6V36.1z"/>
		<path class="st0" d="M35.2,37.4c-0.3,0-0.5-0.1-0.7-0.4c-0.2-0.2-0.2-0.5-0.2-0.9c0-0.4,0.1-0.7,0.3-0.9c0.2-0.2,0.4-0.3,0.7-0.3
			c0.3,0,0.5,0.1,0.7,0.3c0.2,0.2,0.3,0.5,0.3,0.9c0,0.3-0.1,0.6-0.3,0.9C35.7,37.3,35.5,37.4,35.2,37.4z M35.2,37.2
			c0.2,0,0.4-0.1,0.5-0.3c0.1-0.2,0.2-0.4,0.2-0.7c0-0.3-0.1-0.5-0.2-0.7c-0.1-0.2-0.3-0.3-0.5-0.3c-0.2,0-0.4,0.1-0.5,0.3
			c-0.1,0.2-0.2,0.4-0.2,0.7c0,0.3,0.1,0.5,0.2,0.7C34.9,37.1,35,37.2,35.2,37.2z"/>
		<path class="st0" d="M39.9,37.4h-0.3l-0.7-1.3l-0.5,0.7v0.6h-0.3V35h0.3v1.4l1-1.4h0.3l-0.6,0.8L39.9,37.4z"/>
		<path class="st0" d="M43.2,37.1v0.3h-1.5V35h1.5v0.3H42V36H43v0.2H42v0.8H43.2z"/>
		<path class="st0" d="M46.8,37.4h-0.3l-0.4-1h-0.7v1h-0.3V35H46c0.2,0,0.4,0.1,0.6,0.2c0.1,0.1,0.2,0.3,0.2,0.5
			c0,0.1,0,0.2-0.1,0.4c-0.1,0.1-0.2,0.2-0.3,0.2L46.8,37.4z M45.4,36.1H46c0.2,0,0.3,0,0.4-0.1c0.1-0.1,0.1-0.2,0.1-0.3
			c0-0.1,0-0.2-0.1-0.3c-0.1-0.1-0.2-0.1-0.3-0.1h-0.6V36.1z"/>
		<path class="st0" d="M51.1,37.4V35h0.8c0.3,0,0.6,0.1,0.8,0.3c0.2,0.2,0.3,0.5,0.3,0.8c0,0.3-0.1,0.6-0.3,0.8
			c-0.2,0.2-0.4,0.3-0.7,0.3H51.1z M51.4,37.1h0.5c0.2,0,0.4-0.1,0.6-0.3c0.1-0.2,0.2-0.4,0.2-0.7c0-0.2-0.1-0.4-0.2-0.6
			c-0.1-0.2-0.3-0.3-0.6-0.3h-0.5V37.1z"/>
		<path class="st0" d="M56.3,37.1v0.3h-1.5V35h1.5v0.3h-1.2V36H56v0.2h-0.9v0.8H56.3z"/>
		<path class="st0" d="M60.3,36.7l0.3-0.1c0.1,0.3,0.3,0.5,0.7,0.5c0.2,0,0.3,0,0.4-0.1c0.1-0.1,0.1-0.2,0.1-0.3
			c0-0.1,0-0.2-0.1-0.2c-0.1-0.1-0.2-0.1-0.2-0.1L61,36.3c-0.1,0-0.2-0.1-0.3-0.1c-0.1,0-0.1-0.1-0.2-0.2c-0.1-0.1-0.1-0.2-0.1-0.3
			c0-0.2,0.1-0.4,0.2-0.5c0.1-0.1,0.3-0.2,0.6-0.2c0.4,0,0.7,0.2,0.8,0.6l-0.3,0.1c0-0.1-0.1-0.2-0.2-0.3c-0.1-0.1-0.2-0.1-0.4-0.1
			c-0.1,0-0.2,0-0.3,0.1c-0.1,0.1-0.1,0.2-0.1,0.3c0,0.2,0.1,0.3,0.4,0.4l0.4,0.1c0.4,0.1,0.6,0.3,0.6,0.6c0,0.2-0.1,0.4-0.2,0.5
			c-0.1,0.1-0.4,0.2-0.6,0.2C60.7,37.4,60.4,37.2,60.3,36.7z"/>
		<path class="st0" d="M65.5,37.1v0.3H64V35h1.5v0.3h-1.2V36h0.9v0.2h-0.9v0.8H65.5z"/>
		<path class="st0" d="M69.1,36.2v1.2h-0.2l-0.1-0.3c-0.1,0.2-0.4,0.3-0.6,0.3c-0.3,0-0.5-0.1-0.7-0.3c-0.2-0.2-0.3-0.5-0.3-0.8
			c0-0.4,0.1-0.7,0.3-0.9c0.2-0.2,0.4-0.4,0.7-0.4c0.4,0,0.7,0.2,0.8,0.7l-0.3,0.1c0-0.2-0.1-0.3-0.2-0.4c-0.1-0.1-0.2-0.1-0.4-0.1
			c-0.2,0-0.4,0.1-0.5,0.3c-0.1,0.2-0.2,0.4-0.2,0.7c0,0.3,0.1,0.5,0.2,0.7c0.1,0.2,0.3,0.3,0.5,0.3c0.2,0,0.3-0.1,0.4-0.2
			c0.1-0.1,0.2-0.3,0.2-0.5c0,0,0-0.1,0-0.1h-0.6v-0.2H69.1z"/>
		<path class="st0" d="M72.4,35h0.2v1.5c0,0.3-0.1,0.5-0.2,0.7c-0.1,0.1-0.3,0.2-0.6,0.2c-0.3,0-0.5-0.1-0.6-0.2
			c-0.1-0.1-0.2-0.4-0.2-0.7V35h0.3v1.5c0,0.2,0,0.3,0.1,0.4c0,0.1,0.1,0.1,0.2,0.2c0.1,0,0.2,0.1,0.3,0.1c0.2,0,0.3,0,0.4-0.1
			c0.1-0.1,0.1-0.2,0.1-0.5V35z"/>
		<path class="st0" d="M76.3,37.4H76l-0.4-1h-0.7v1h-0.3V35h0.9c0.2,0,0.4,0.1,0.6,0.2c0.1,0.1,0.2,0.3,0.2,0.5c0,0.1,0,0.2-0.1,0.4
			c-0.1,0.1-0.2,0.2-0.3,0.2L76.3,37.4z M74.9,36.1h0.6c0.2,0,0.3,0,0.4-0.1c0.1-0.1,0.1-0.2,0.1-0.3c0-0.1,0-0.2-0.1-0.3
			c-0.1-0.1-0.2-0.1-0.3-0.1h-0.6V36.1z"/>
		<path class="st0" d="M79,37.4c-0.3,0-0.5-0.1-0.7-0.4c-0.2-0.2-0.2-0.5-0.2-0.9c0-0.4,0.1-0.7,0.3-0.9c0.2-0.2,0.4-0.3,0.7-0.3
			c0.3,0,0.5,0.1,0.7,0.3c0.2,0.2,0.3,0.5,0.3,0.9c0,0.3-0.1,0.6-0.3,0.9C79.6,37.3,79.3,37.4,79,37.4z M79,37.2
			c0.2,0,0.4-0.1,0.5-0.3c0.1-0.2,0.2-0.4,0.2-0.7c0-0.3-0.1-0.5-0.2-0.7c-0.1-0.2-0.3-0.3-0.5-0.3c-0.2,0-0.4,0.1-0.5,0.3
			c-0.1,0.2-0.2,0.4-0.2,0.7c0,0.3,0.1,0.5,0.2,0.7C78.7,37.1,78.8,37.2,79,37.2z"/>
		<path class="st0" d="M81.6,36.7l0.3-0.1c0.1,0.3,0.3,0.5,0.7,0.5c0.2,0,0.3,0,0.4-0.1c0.1-0.1,0.1-0.2,0.1-0.3
			c0-0.1,0-0.2-0.1-0.2c-0.1-0.1-0.2-0.1-0.2-0.1l-0.5-0.1c-0.1,0-0.2-0.1-0.3-0.1c-0.1,0-0.1-0.1-0.2-0.2c-0.1-0.1-0.1-0.2-0.1-0.3
			c0-0.2,0.1-0.4,0.2-0.5c0.1-0.1,0.3-0.2,0.6-0.2c0.4,0,0.7,0.2,0.8,0.6l-0.3,0.1c0-0.1-0.1-0.2-0.2-0.3c-0.1-0.1-0.2-0.1-0.4-0.1
			c-0.1,0-0.2,0-0.3,0.1c-0.1,0.1-0.1,0.2-0.1,0.3c0,0.2,0.1,0.3,0.4,0.4l0.4,0.1c0.4,0.1,0.6,0.3,0.6,0.6c0,0.2-0.1,0.4-0.2,0.5
			c-0.1,0.1-0.4,0.2-0.6,0.2C82.1,37.4,81.8,37.2,81.6,36.7z"/>
	</g>
	<line class="st0" x1="27" y1="33.4" x2="83.8" y2="33.4"/>
</g>
<g>
	<path class="st0" d="M27.7,94.6h-5.3v2.9h-1.1v-3.9c0-1.1,0.2-1.8,0.7-2.2c0.3-0.3,1.1-0.5,2.3-0.5h1.7c1.1,0,1.8,0.2,2.3,0.5
		c0.5,0.3,0.7,1.1,0.7,2.2v3.9h-1.1C27.7,97.5,27.7,94.6,27.7,94.6 M22.2,93.6h5.3c0-0.7-0.2-1.2-0.5-1.4c-0.2-0.2-0.8-0.3-1.5-0.3
		h-1.3c-0.8,0-1.3,0.1-1.5,0.3C22.4,92.4,22.3,92.9,22.2,93.6"/>
	<path class="st0" d="M37.3,97.6h-1.1v-1.2c0-0.5-0.1-0.8-0.3-1c-0.2-0.2-0.5-0.3-1-0.3h-3.8v2.5h-1.1v-6.5h4.8
		c0.8,0,1.4,0.2,1.7,0.5c0.3,0.3,0.6,0.9,0.6,1.7c0,0.7-0.2,1.1-0.6,1.4c0.6,0.2,0.8,0.6,0.8,1.4V97.6z M35.1,92h-3.9v1.8h3.9
		c0.7,0,1.1-0.3,1.1-0.9C36.1,92.3,35.7,92,35.1,92"/>
	<path class="st0" d="M43.5,95.1h-3.2v2.4h-1.1V91h4.4c0.9,0,1.5,0.2,1.8,0.5c0.3,0.3,0.5,0.9,0.5,1.8c0,0.8-0.2,1.3-0.7,1.6
		C44.9,95,44.4,95.1,43.5,95.1 M43.7,92h-3.3v1.9h3.4c0.3,0,0.7-0.1,0.8-0.2c0.2-0.2,0.3-0.3,0.3-0.8c0-0.5-0.1-0.7-0.3-0.8
		C44.4,92,44.1,92,43.7,92"/>
	<rect x="47.1" y="91" class="st0" width="1.1" height="6.5"/>
	<polygon class="st0" points="54.8,97.6 49.3,97.6 49.3,91 50.4,91 50.4,96.6 54.8,96.6 	"/>
	<path class="st0" d="M61.8,94.6h-5.3v2.9h-1.1v-3.9c0-1.1,0.2-1.8,0.7-2.2c0.3-0.3,1.1-0.5,2.3-0.5h1.7c1.1,0,1.8,0.2,2.3,0.5
		c0.5,0.3,0.7,1.1,0.7,2.2v3.9H62v-2.9L61.8,94.6L61.8,94.6z M56.4,93.6h5.3c0-0.7-0.2-1.2-0.5-1.4c-0.2-0.2-0.8-0.3-1.5-0.3h-1.3
		c-0.8,0-1.3,0.1-1.5,0.3C56.6,92.4,56.5,92.9,56.4,93.6"/>
	<path class="st0" d="M71.6,97.6h-1.1v-1.2c0-0.5-0.1-0.8-0.3-1c-0.2-0.2-0.5-0.3-1-0.3h-3.8v2.5h-1.1v-6.5h4.8
		c0.8,0,1.4,0.2,1.7,0.5c0.3,0.3,0.6,0.9,0.6,1.7c0,0.7-0.2,1.1-0.6,1.4c0.6,0.2,0.8,0.6,0.8,1.4V97.6z M69.2,92h-3.9v1.8h3.9
		c0.7,0,1.1-0.3,1.1-0.9C70.3,92.3,69.9,92,69.2,92"/>
	<path class="st0" d="M23,101.3c-0.2,0.1-0.3,0.1-0.6,0.1c-0.5,0-0.8-0.3-0.8-0.8c0-0.5,0.2-0.8,0.7-0.8c0.6,0,0.7,0.3,0.7,0.9h-1
		c0,0.3,0.2,0.3,0.5,0.3c0.2,0,0.3-0.1,0.5-0.2C23,100.9,23,101.3,23,101.3 M22.7,100.5c0-0.2-0.1-0.3-0.3-0.3
		c-0.2,0-0.3,0.2-0.3,0.3H22.7z"/>
	<rect x="24.6" y="99.2" class="st0" width="0.3" height="2.3"/>
	<path class="st0" d="M28.7,100c0.2-0.1,0.3-0.1,0.6-0.1c0.5,0,0.7,0.2,0.7,0.7v0.2v0.3v0.3h-0.3v-0.2c-0.1,0.2-0.3,0.3-0.5,0.3
		c-0.3,0-0.6-0.2-0.6-0.5c0-0.2,0.1-0.3,0.3-0.5c0.2-0.1,0.3-0.1,0.5-0.1h0.2c0-0.3-0.1-0.3-0.3-0.3c-0.2,0-0.3,0.1-0.5,0.2
		C28.7,100.2,28.7,100,28.7,100 M29.1,101.2c0.1,0,0.2-0.1,0.3-0.2c0.1-0.1,0.1-0.2,0.1-0.3h-0.2c-0.2,0-0.5,0.1-0.5,0.3
		C28.9,101.1,28.9,101.2,29.1,101.2"/>
	<path class="st0" d="M31.4,99.8h0.3v0.3c0-0.2,0.2-0.3,0.5-0.3h0.1v0.3c-0.1,0-0.1-0.1-0.2-0.1c-0.3,0-0.3,0.3-0.3,0.6v0.6h-0.3
		L31.4,99.8z"/>
	<path class="st0" d="M33.9,100.2h-0.3v-0.3h0.3v-0.3l0.3-0.1v0.5h0.3v0.3h-0.3v0.7c0,0.1,0.1,0.3,0.2,0.3c0.1,0,0.2,0,0.2-0.1v0.3
		c-0.1,0-0.2,0.1-0.3,0.1c-0.3,0-0.5-0.2-0.5-0.5v-0.8L33.9,100.2z"/>
	<path class="st0" d="M37.3,101.3c-0.2,0.1-0.3,0.1-0.6,0.1c-0.5,0-0.8-0.3-0.8-0.8c0-0.5,0.2-0.8,0.7-0.8c0.6,0,0.7,0.3,0.7,0.9
		h-1.1c0,0.3,0.2,0.3,0.5,0.3c0.2,0,0.3-0.1,0.5-0.2V101.3z M37.1,100.5c0-0.2-0.1-0.3-0.3-0.3c-0.2,0-0.3,0.2-0.3,0.3H37.1z"/>
	<path class="st0" d="M41.9,101.2L41.9,101.2c-0.1,0.2-0.3,0.2-0.5,0.2c-0.5,0-0.7-0.3-0.7-0.8c0-0.5,0.2-0.8,0.7-0.8
		c0.2,0,0.3,0.1,0.5,0.2v-0.9h0.3v2.3h-0.3L41.9,101.2z M41.6,101.1c0.3,0,0.3-0.3,0.3-0.5c0-0.2-0.1-0.5-0.3-0.5
		c-0.3,0-0.3,0.3-0.3,0.5C41.3,100.8,41.4,101.1,41.6,101.1"/>
	<path class="st0" d="M45.2,101.3c-0.2,0.1-0.3,0.1-0.6,0.1c-0.5,0-0.8-0.3-0.8-0.8c0-0.5,0.2-0.8,0.7-0.8c0.6,0,0.7,0.3,0.7,0.9h-1
		c0,0.3,0.2,0.3,0.5,0.3c0.2,0,0.3-0.1,0.5-0.2L45.2,101.3z M44.9,100.5c0-0.2-0.1-0.3-0.3-0.3c-0.2,0-0.3,0.2-0.3,0.3H44.9z"/>
	<path class="st0" d="M49.5,99.8c0.5,0,0.8,0.3,0.8,0.8c0,0.5-0.3,0.8-0.8,0.8c-0.5,0-0.8-0.3-0.8-0.8C48.7,100.1,49,99.8,49.5,99.8
		 M49.5,101.1c0.3,0,0.3-0.3,0.3-0.6c0-0.2-0.1-0.5-0.3-0.5c-0.3,0-0.3,0.2-0.3,0.5C49.2,100.8,49.2,101.1,49.5,101.1"/>
	<path class="st0" d="M51.9,99.8h0.3v0.3c0-0.2,0.2-0.3,0.5-0.3h0.1v0.3c-0.1,0-0.1-0.1-0.2-0.1c-0.3,0-0.3,0.3-0.3,0.6v0.6h-0.3
		L51.9,99.8z"/>
	<path class="st0" d="M55.5,99.8v1.4c0,0.5-0.2,0.8-0.8,0.8c-0.2,0-0.3,0-0.6-0.1l0.1-0.3c0.1,0.1,0.3,0.1,0.5,0.1
		c0.5,0,0.5-0.3,0.5-0.6c-0.1,0.1-0.3,0.2-0.5,0.2c-0.5,0-0.6-0.3-0.6-0.8c0-0.3,0.2-0.8,0.7-0.8c0.2,0,0.3,0.1,0.5,0.2v-0.2h0.3
		V99.8z M55.2,100.6c0-0.3-0.1-0.5-0.3-0.5c-0.3,0-0.3,0.3-0.3,0.5c0,0.2,0.1,0.5,0.3,0.5C55.1,101.1,55.2,100.9,55.2,100.6"/>
	<path class="st0" d="M57.2,100c0.2-0.1,0.3-0.1,0.6-0.1c0.5,0,0.7,0.2,0.7,0.7v0.2v0.3v0.3h-0.3v-0.2c-0.1,0.2-0.3,0.3-0.5,0.3
		c-0.2,0-0.6-0.2-0.6-0.5c0-0.2,0.1-0.3,0.3-0.5c0.2-0.1,0.3-0.1,0.5-0.1h0.2c0-0.3-0.1-0.3-0.3-0.3c-0.2,0-0.3,0.1-0.5,0.2
		C57.2,100.2,57.2,100,57.2,100 M57.7,101.2c0.1,0,0.2-0.1,0.3-0.2c0.1-0.1,0.1-0.2,0.1-0.3h-0.2c-0.2,0-0.5,0.1-0.5,0.3
		C57.4,101.1,57.5,101.2,57.7,101.2"/>
	<path class="st0" d="M60,99.8h0.3v0.2c0.1-0.2,0.3-0.2,0.5-0.2c0.3,0,0.6,0.3,0.6,0.6v1h-0.3v-0.8c0-0.2,0-0.5-0.3-0.5
		c-0.3,0-0.3,0.3-0.3,0.5v0.8h-0.5L60,99.8z"/>
	<path class="st0" d="M63,99.2h0.3v0.3H63V99.2z M63,99.8h0.3v1.5H63V99.8z"/>
	<polygon class="st0" points="64.9,99.8 66.1,99.8 66.1,100.1 65.3,100.9 66.1,100.9 66.1,101.2 64.8,101.2 64.8,100.9 65.6,100.1 
		64.8,100.1 	"/>
	<path class="st0" d="M67.7,100c0.2-0.1,0.3-0.1,0.6-0.1c0.5,0,0.7,0.2,0.7,0.7v0.2v0.3v0.3h-0.3v-0.2c-0.1,0.2-0.3,0.3-0.5,0.3
		c-0.2,0-0.6-0.2-0.6-0.5c0-0.2,0.1-0.3,0.3-0.5c0.2-0.1,0.3-0.1,0.5-0.1h0.2c0-0.3-0.1-0.3-0.3-0.3c-0.2,0-0.3,0.1-0.5,0.2V100
		H67.7z M68.2,101.2c0.1,0,0.2-0.1,0.3-0.2c0.1-0.1,0.1-0.2,0.1-0.3h-0.2c-0.2,0-0.5,0.1-0.5,0.3C68,101.1,68,101.2,68.2,101.2"/>
	<path class="st0" d="M70.6,99.8h0.3v0.3c0-0.2,0.2-0.3,0.5-0.3h0.1v0.3c-0.1,0-0.1-0.1-0.2-0.1c-0.3,0-0.3,0.3-0.3,0.6v0.6h-0.3
		L70.6,99.8z"/>
	<path class="st0" d="M46.9,73.8v3.4c-1.2,0-2.2,0.7-2.8,1.7c-1.3,2.1,0,4.9,2.8,5.2v3.4c-3.6-0.2-7.2-2.8-6.9-7.5
		C40.3,76.8,43,73.9,46.9,73.8"/>
	<path class="st0" d="M46.8,78.5c1.1,0,2,0.9,2,2c0,1.1-0.9,2-2,2c-1.1,0-2-0.9-2-2C44.7,79.4,45.6,78.5,46.8,78.5"/>
</g>
<g>
	<g>
		<path class="st0" d="M169.3,90.3h-0.2v-1.4h1v0.1h-0.7v0.5h0.7v0.1h-0.7V90.3L169.3,90.3z"/>
		<path class="st0" d="M172.1,88.9v0.9c0,0.2-0.1,0.3-0.2,0.4c-0.1,0.1-0.3,0.1-0.5,0.1s-0.4,0-0.5-0.1c-0.1-0.1-0.2-0.2-0.2-0.4
			v-0.9h0.2v0.9c0,0.1,0,0.2,0.1,0.3c0.1,0.1,0.2,0.1,0.3,0.1c0.1,0,0.3,0,0.3-0.1c0.1-0.1,0.1-0.2,0.1-0.3v-0.9H172.1z"/>
		<path class="st0" d="M173.7,90.3l-0.6-1.2l0,0c0,0.1,0,0.2,0,0.3v0.9H173v-1.4h0.3l0.5,1.1l0,0l0.5-1.1h0.3v1.4h-0.2v-0.9
			c0-0.1,0-0.2,0-0.3l0,0l-0.6,1.2H173.7z"/>
		<path class="st0" d="M175.6,90.3v-1.4h0.2v1.4H175.6z"/>
		<path class="st0" d="M177.5,89.6h0.6v0.7c-0.1,0-0.2,0-0.3,0c-0.1,0-0.2,0-0.3,0c-0.3,0-0.5-0.1-0.6-0.2c-0.1-0.1-0.2-0.3-0.2-0.5
			c0-0.1,0-0.3,0.1-0.4c0.1-0.1,0.2-0.2,0.3-0.3c0.1-0.1,0.3-0.1,0.5-0.1c0.2,0,0.3,0,0.5,0.1l-0.1,0.1c-0.2,0-0.3-0.1-0.4-0.1
			c-0.2,0-0.4,0-0.5,0.2c-0.1,0.1-0.2,0.3-0.2,0.4c0,0.2,0,0.3,0.2,0.4c0.1,0.1,0.3,0.1,0.5,0.1c0.1,0,0.2,0,0.3,0v-0.4h-0.4
			L177.5,89.6L177.5,89.6L177.5,89.6z"/>
		<path class="st0" d="M180,90.3l-0.2-0.4h-0.7l-0.2,0.4h-0.2l0.7-1.4h0.2l0.7,1.4H180z M179.7,89.7l-0.2-0.4c0,0,0-0.1-0.1-0.2
			c0,0.1,0,0.1-0.1,0.2l-0.2,0.4H179.7z"/>
		<path class="st0" d="M181.6,89.1c-0.2,0-0.3,0-0.4,0.2c-0.1,0.1-0.2,0.3-0.2,0.4c0,0.2,0,0.3,0.2,0.4c0.1,0.1,0.3,0.2,0.5,0.2
			c0.1,0,0.3,0,0.4,0v0.1c-0.1,0-0.3,0-0.4,0c-0.3,0-0.4-0.1-0.6-0.2s-0.2-0.3-0.2-0.5c0-0.1,0-0.3,0.1-0.4c0.1-0.1,0.2-0.2,0.3-0.3
			c0.1-0.1,0.3-0.1,0.4-0.1c0.2,0,0.3,0,0.5,0.1l-0.1,0.1C181.9,89.1,181.8,89.1,181.6,89.1z"/>
		<path class="st0" d="M182.9,90.3v-1.4h0.2v1.4H182.9z"/>
		<path class="st0" d="M185.5,89.6c0,0.2-0.1,0.4-0.2,0.5s-0.3,0.2-0.6,0.2c-0.3,0-0.4-0.1-0.6-0.2s-0.2-0.3-0.2-0.5
			s0.1-0.4,0.2-0.5s0.3-0.2,0.6-0.2c0.3,0,0.4,0.1,0.6,0.2C185.4,89.2,185.5,89.4,185.5,89.6z M184.2,89.6c0,0.2,0,0.3,0.1,0.4
			c0.1,0.1,0.3,0.1,0.4,0.1c0.2,0,0.3,0,0.4-0.1c0.1-0.1,0.1-0.2,0.1-0.4c0-0.2,0-0.3-0.1-0.4c-0.1-0.1-0.2-0.1-0.4-0.1
			c-0.2,0-0.3,0-0.4,0.1C184.2,89.3,184.2,89.4,184.2,89.6z"/>
		<path class="st0" d="M187.7,90.3h-0.2l-0.9-1.2l0,0c0,0.1,0,0.3,0,0.4v0.8h-0.2v-1.4h0.2l0.9,1.2l0,0c0,0,0-0.1,0-0.2
			c0-0.1,0-0.2,0-0.2v-0.8h0.2L187.7,90.3L187.7,90.3z"/>
		<path class="st0" d="M189.6,90.3h-1v-1.4h1v0.1h-0.7v0.5h0.7v0.1h-0.7v0.5h0.7V90.3z"/>
		<path class="st0" d="M191.4,89.9c0,0.1,0,0.2-0.2,0.3c-0.1,0.1-0.3,0.1-0.4,0.1c-0.2,0-0.4,0-0.5-0.1v-0.2c0.1,0,0.1,0,0.2,0
			c0.1,0,0.2,0,0.3,0c0.1,0,0.2,0,0.3-0.1c0.1,0,0.1-0.1,0.1-0.2c0,0,0-0.1,0-0.1c0,0-0.1-0.1-0.1-0.1s-0.1,0-0.3-0.1
			c-0.2,0-0.3-0.1-0.3-0.2c-0.1-0.1-0.1-0.1-0.1-0.3s0-0.2,0.1-0.3c0.1-0.1,0.2-0.1,0.4-0.1s0.3,0,0.5,0.1l-0.1,0.1
			c-0.1,0-0.3-0.1-0.4-0.1c-0.1,0-0.2,0-0.3,0c-0.1,0-0.1,0.1-0.1,0.2c0,0,0,0.1,0,0.1c0,0,0.1,0.1,0.1,0.1c0,0,0.1,0,0.2,0.1
			c0.2,0,0.3,0.1,0.4,0.2C191.3,89.8,191.4,89.9,191.4,89.9z"/>
	</g>
	<g>
		<path class="st0" d="M148.8,94.9c0,0.7-0.3,1.3-0.8,1.8c-0.5,0.4-1.3,0.7-2.3,0.7c-0.9,0-1.7-0.2-2.4-0.5v-1.6
			c0.6,0.3,1,0.4,1.4,0.5c0.4,0.1,0.7,0.2,1.1,0.2c0.4,0,0.7-0.1,0.9-0.2c0.2-0.2,0.3-0.4,0.3-0.7c0-0.2,0-0.3-0.1-0.4
			c-0.1-0.1-0.2-0.3-0.4-0.4c-0.2-0.1-0.5-0.3-1.1-0.6c-0.5-0.3-0.9-0.5-1.1-0.7c-0.3-0.2-0.5-0.5-0.6-0.8c-0.2-0.3-0.2-0.6-0.2-1
			c0-0.7,0.3-1.3,0.7-1.7c0.5-0.4,1.2-0.6,2.1-0.6c0.4,0,0.8,0,1.2,0.2c0.4,0.1,0.8,0.3,1.2,0.4l-0.6,1.4c-0.5-0.2-0.8-0.3-1.1-0.4
			c-0.3-0.1-0.6-0.1-0.9-0.1c-0.3,0-0.6,0.1-0.8,0.2c-0.2,0.2-0.3,0.4-0.3,0.6c0,0.2,0,0.3,0.1,0.4s0.2,0.2,0.3,0.3s0.5,0.3,1.1,0.6
			c0.8,0.4,1.3,0.7,1.6,1.1C148.7,93.9,148.8,94.3,148.8,94.9z"/>
		<path class="st0" d="M153.6,97.2l-0.3-0.9h0c-0.3,0.4-0.6,0.6-0.9,0.8c-0.3,0.1-0.7,0.2-1.2,0.2c-0.6,0-1.1-0.2-1.5-0.5
			c-0.3-0.3-0.5-0.8-0.5-1.5c0-0.7,0.2-1.2,0.7-1.5c0.5-0.3,1.2-0.5,2.1-0.5l1.1,0v-0.3c0-0.6-0.3-1-1-1c-0.5,0-1.1,0.2-1.8,0.5
			l-0.6-1.2c0.7-0.4,1.5-0.6,2.4-0.6c0.9,0,1.5,0.2,2,0.6c0.5,0.4,0.7,0.9,0.7,1.7v4.3L153.6,97.2L153.6,97.2z M153.1,94.2l-0.7,0
			c-0.5,0-0.9,0.1-1.1,0.3c-0.3,0.2-0.4,0.4-0.4,0.8c0,0.5,0.3,0.7,0.8,0.7c0.4,0,0.7-0.1,1-0.3c0.3-0.2,0.4-0.5,0.4-0.9L153.1,94.2
			L153.1,94.2z"/>
		<path class="st0" d="M161.9,97.2h-1.7v-3.7c0-0.5-0.1-0.8-0.3-1s-0.4-0.3-0.8-0.3c-0.5,0-0.8,0.2-1,0.5c-0.2,0.3-0.3,0.9-0.3,1.6
			v3h-1.7v-6.4h1.3l0.2,0.8h0.1c0.2-0.3,0.5-0.5,0.8-0.7c0.3-0.2,0.7-0.2,1.2-0.2c0.7,0,1.3,0.2,1.7,0.6c0.4,0.4,0.6,1,0.6,1.7
			L161.9,97.2L161.9,97.2z"/>
		<path class="st0" d="M164.8,99.6c-0.4,0-0.7,0-1-0.1V98c0.3,0.1,0.6,0.1,0.8,0.1c0.4,0,0.7-0.1,0.8-0.4c0.2-0.3,0.3-0.6,0.3-1.1
			v-7.8h1.8v7.8c0,1-0.2,1.7-0.7,2.2C166.4,99.4,165.7,99.6,164.8,99.6z"/>
		<path class="st0" d="M174.6,94c0,1-0.3,1.8-0.8,2.4c-0.5,0.6-1.3,0.9-2.3,0.9c-0.6,0-1.2-0.1-1.6-0.4c-0.5-0.3-0.8-0.7-1.1-1.2
			s-0.4-1.1-0.4-1.7c0-1,0.3-1.8,0.8-2.4c0.5-0.6,1.3-0.9,2.3-0.9c0.6,0,1.2,0.1,1.6,0.4c0.5,0.3,0.8,0.6,1.1,1.1
			C174.5,92.7,174.6,93.3,174.6,94z M170.3,94c0,0.6,0.1,1.1,0.3,1.4s0.5,0.5,1,0.5c0.5,0,0.8-0.2,1-0.5c0.2-0.3,0.3-0.8,0.3-1.4
			c0-0.6-0.1-1.1-0.3-1.4c-0.2-0.3-0.5-0.5-1-0.5s-0.8,0.2-1,0.5C170.3,92.9,170.3,93.4,170.3,94z"/>
		<path class="st0" d="M179.1,90.7c0.2,0,0.4,0,0.6,0l-0.1,1.6c-0.1,0-0.3-0.1-0.5-0.1c-0.5,0-1,0.1-1.3,0.4
			c-0.3,0.3-0.5,0.7-0.5,1.2v3.3h-1.7v-6.4h1.3l0.3,1.1h0.1c0.2-0.4,0.5-0.6,0.8-0.9C178.3,90.8,178.7,90.7,179.1,90.7z"/>
		<path class="st0" d="M185.8,90.8v0.9l-1,0.3c0.2,0.3,0.3,0.6,0.3,1c0,0.7-0.2,1.2-0.7,1.6c-0.5,0.4-1.1,0.6-2,0.6l-0.3,0l-0.3,0
			c-0.2,0.1-0.3,0.3-0.3,0.5c0,0.3,0.3,0.4,1,0.4h1.1c0.7,0,1.2,0.2,1.6,0.5s0.5,0.7,0.5,1.3c0,0.7-0.3,1.3-0.9,1.7
			c-0.6,0.4-1.5,0.6-2.7,0.6c-0.9,0-1.6-0.2-2-0.5c-0.5-0.3-0.7-0.7-0.7-1.3c0-0.4,0.1-0.7,0.4-1c0.3-0.3,0.6-0.4,1-0.5
			c-0.2-0.1-0.3-0.2-0.5-0.4c-0.1-0.2-0.2-0.4-0.2-0.5c0-0.3,0.1-0.5,0.2-0.6c0.1-0.2,0.3-0.3,0.6-0.5c-0.3-0.1-0.6-0.4-0.8-0.7
			c-0.2-0.3-0.3-0.7-0.3-1.1c0-0.7,0.2-1.2,0.7-1.6c0.5-0.4,1.1-0.6,1.9-0.6c0.2,0,0.4,0,0.6,0c0.3,0,0.4,0,0.5,0.1L185.8,90.8
			L185.8,90.8z M180.9,98.1c0,0.3,0.1,0.4,0.3,0.6s0.5,0.2,1,0.2c0.6,0,1.1-0.1,1.5-0.3c0.4-0.2,0.5-0.4,0.5-0.7
			c0-0.3-0.1-0.4-0.3-0.5c-0.2-0.1-0.5-0.1-1-0.1h-0.9c-0.3,0-0.6,0.1-0.8,0.2C180.9,97.6,180.9,97.8,180.9,98.1z M181.5,92.9
			c0,0.3,0.1,0.6,0.2,0.8c0.2,0.2,0.4,0.3,0.7,0.3c0.3,0,0.6-0.1,0.7-0.3c0.2-0.2,0.2-0.5,0.2-0.8c0-0.8-0.3-1.2-1-1.2
			C181.8,91.7,181.5,92.1,181.5,92.9z"/>
		<path class="st0" d="M189.1,97.3c-1,0-1.8-0.3-2.4-0.8c-0.6-0.6-0.9-1.4-0.9-2.4c0-1.1,0.3-1.9,0.8-2.5c0.5-0.6,1.3-0.9,2.2-0.9
			c0.9,0,1.6,0.3,2.1,0.8s0.7,1.2,0.7,2.1v0.8h-4.1c0,0.5,0.2,0.9,0.4,1.2c0.3,0.3,0.7,0.4,1.2,0.4c0.4,0,0.7,0,1.1-0.1
			c0.3-0.1,0.7-0.2,1.1-0.4v1.3c-0.3,0.2-0.6,0.3-1,0.3C190,97.3,189.6,97.3,189.1,97.3z M188.9,91.9c-0.4,0-0.7,0.1-0.9,0.3
			s-0.3,0.6-0.4,1h2.4c0-0.4-0.1-0.7-0.3-1C189.5,92,189.2,91.9,188.9,91.9z"/>
	</g>
	<path class="st0" d="M139.9,89.5C139.9,89.5,139.9,89.4,139.9,89.5l0-0.7c0,0,0-0.1-0.1-0.1s0,0,0,0l-0.1,0.1
		c-0.1,0.1-0.2,0.1-0.3,0.1h-0.5c-0.1,0-0.2,0-0.3-0.1h-0.2l0,0c0,0,0-0.1,0-0.1V87c0,0,0-0.1,0-0.1l0.1-0.1c0,0,0-0.1,0-0.1v-0.1
		c0-0.1,0-0.1-0.1-0.2c0,0-0.1,0-0.1,0h-0.5c0,0-0.1,0-0.1,0c0,0-0.1,0.1-0.1,0.2v0.1c0,0,0,0.1,0,0.1l0.1,0.1c0,0,0,0.1,0,0.1v1.7
		c0,0,0,0.1,0,0.1l0,0h-0.2c-0.1,0.1-0.2,0.1-0.3,0.1h-0.5c-0.1,0-0.2,0-0.3-0.1l-0.1-0.1c0,0,0,0,0,0c0,0-0.1,0-0.1,0.1v0.6
		c0,0,0,0.1,0,0.1l0.1,0.1h0c0,0,0,0,0,0c0,0,0,0,0-0.1l0,0c0.1-0.1,0.2-0.1,0.3-0.1h0.7c0,0,0.1,0,0.1,0l0,0c0,0,0,0.1,0,0.1v0h0.2
		v9.2v0l0.3,0.5c0,0,0,0,0,0s0,0,0,0l0.3-0.5v0v-9.3h0.2v0c0,0,0-0.1,0-0.1l0,0c0,0,0.1,0,0.1,0h0.7c0.1,0,0.2,0,0.3,0.1l0,0
		c0,0,0,0,0,0.1s0,0,0,0h0L139.9,89.5z"/>
	<g>
		<path class="st0" d="M137.4,93.1v-1.3c0,0.1,0,0.2-0.1,0.3C137.2,92.4,137.2,92.7,137.4,93.1z"/>
		<path class="st0" d="M132.9,90.7c2,1.1,1.9,1.8,1.5,2.2c1.1,0,2.1,0.7,1.7,1.4c0.5-0.3,0.9-0.4,1.2-0.3v-0.8
			c-0.3-0.3-0.5-0.7-0.6-1.4c0-0.3,0.1-1,0.6-1.7v-0.2h-0.2v-0.2h-0.7c0,0-0.1,0-0.1,0l0,0c0,0.1-0.1,0.2-0.3,0.2c0,0-0.1,0-0.1,0
			l-0.2-0.1c-0.1-0.1-0.1-0.2-0.1-0.3v-0.6c0-0.2,0.1-0.3,0.3-0.3c0.1,0,0.2,0,0.2,0.1l0.1,0.1c0,0,0.1,0.1,0.2,0.1h0.5
			c0.1,0,0.1,0,0.2-0.1l0,0h0.2v-1c-1.8-0.1-3.5,0.3-4,0.2C134.9,89.3,134.1,89.9,132.9,90.7z"/>
		<path class="st0" d="M140.6,88.7c-0.6-0.5-1.4-0.8-2.2-1v0.8h0.2l0,0c0,0,0.1,0.1,0.2,0.1h0.5c0.1,0,0.1,0,0.2-0.1l0.1-0.1
			c0.1-0.1,0.1-0.1,0.2-0.1c0.2,0,0.3,0.1,0.3,0.3C140.3,88.7,140.4,88.7,140.6,88.7z"/>
		<path class="st0" d="M137.4,97.8c-0.8,0.1-1.8-0.2-2.7-0.8c-0.4-0.3-0.4-0.9,0-1.3c0.4-0.4,0.5-0.8,0.3-1.3
			c-0.3-0.9-1.1-1.7-2-2.2c0.8,0.6,1.7,1.5,1.8,2.5c0,0.6-0.5,0.8-0.7,1.3c-0.3,0.5,0,1.2,0.4,1.6c0.8,0.7,1.8,1,2.8,1V97.8z"/>
		<path class="st0" d="M142.2,92.7C142.2,92.7,142.2,92.7,142.2,92.7C142.2,92.7,142.2,92.7,142.2,92.7c0.2-0.1,0.4-0.2,0.5-0.1
			c0,0,0.3-0.2,0.3-0.2c0.1,0-0.2-0.3-0.2-0.3c-0.3-0.3-0.7-0.5-1-0.9c-0.2-0.3-0.5-0.3-0.7-0.6c-0.1-0.2-0.2-0.4-0.4-0.5
			c-0.1-0.1-0.3-0.3-0.3-0.4c-0.3,0.2,0.4,0.6,0.2,0.8c0-0.2-0.7-0.7-0.5-0.9c-0.3,0.2,0.1,0.6,0.1,0.9c-0.1,0.3-0.8,0-1,0
			c-0.2,0-0.4,0-0.6,0.1V92c0.2-0.2,0.4-0.3,0.7-0.3c0.5,0,0.7,0.2,1.1,0.5c0.3,0.3,0.7,0.6,0.9,1c0.3,0.4,0.6,0.3,0.7-0.1
			c0,0.1-0.2,0.1-0.3,0.2c0.1-0.1,0.1-0.1,0.1-0.2c0,0.1-0.1,0.1-0.2,0.2c0,0,0.1-0.1,0.1-0.2c0,0.1-0.1,0.1-0.2,0.1
			c0,0,0-0.1,0.1-0.2c0,0-0.1,0.1-0.1,0.1c-0.1-0.2-0.3-0.4-0.4-0.6c0.3-0.1,0.6,0.3,0.8,0.4c0.3,0.2,0.4,0.4,0.7,0.5
			c0,0-0.5-0.3-0.4-0.3c0.1,0,0.4,0.1,0.5,0.1c-0.3-0.1-0.5-0.2-0.8-0.3c-0.2-0.1-0.4-0.4-0.7-0.4c-0.2,0-0.5-0.2-0.2-0.4
			c0.2-0.1,0.6,0.1,0.8,0.2c0,0-0.1,0.1-0.1,0.1c0.1,0,0.1-0.1,0.2-0.1c0,0-0.1,0.1-0.1,0.1c0.1,0,0.2-0.1,0.2-0.1
			c0,0.1-0.1,0.1-0.2,0.2c0,0,0.2-0.1,0.3-0.1c0,0.1-0.1,0.2-0.2,0.3c0.1,0,0.2-0.1,0.3-0.2C142.3,92.5,142.2,92.6,142.2,92.7z
			 M141.6,91.6L141.6,91.6c-0.5-0.2-1-0.2-0.9-0.5C140.8,90.8,141.7,91.5,141.6,91.6z"/>
		<path class="st0" d="M141.7,93.9c0.2,0,0.2,0.1,0.4,0.1c0-0.1-0.1-0.2-0.2-0.2c-0.1-0.1-0.3-0.2-0.4-0.1c0,0-0.1,0.1-0.1,0.1
			c0-0.1,0-0.1,0.2-0.2c0.2-0.1,0.2,0,0.4,0c-0.1-0.1-0.2-0.1-0.3-0.1c-0.1,0-0.4,0-0.4,0.1c0,0.1,0,0.2-0.1,0.3c0,0-0.1,0-0.2,0
			c0,0,0,0.5-0.7,1.1c0,0-0.1,0-0.2,0c0-0.1-0.1-0.3-0.2-0.4c-0.3-0.5-1-0.9-1.4-1.4v1.4c0.2,0.2,0.5,0.4,0.5,0.7
			c0.1,0.4,0.1,0.9-0.1,1.3c-0.1,0.3-0.3,0.5-0.4,0.6v0.9c0.6-0.3,1.1-0.6,1.4-1.2c0.2-0.4,0.4-0.9,0.4-1.4c0.4,0.1,0.8,0.2,0.9,0.3
			c0.1,0.1,0.1,0.2,0.1,0.3c0,0.1,0.2,0,0.3,0c0.1,0,0.2-0.1,0.3-0.2c-0.2,0-0.2,0.1-0.4,0c-0.1,0-0.1-0.1-0.1-0.2
			c0.1,0,0.2-0.1,0.4-0.1c0.2,0.1,0.2,0.1,0.3,0.2c0-0.1,0-0.2-0.1-0.3c0-0.1-0.2-0.3-0.3-0.2c0,0-0.1,0.1-0.2,0.1
			c0-0.1,0.1-0.1,0.2-0.2c0.2,0,0.2,0,0.4,0c-0.1-0.1-0.2-0.1-0.2-0.2c-0.1,0-0.4-0.1-0.4,0c0,0.1-0.1,0.2-0.2,0.3
			c0,0-0.5,0-1.1-0.3c0,0,0-0.1,0-0.1c0.2,0,0.4,0,0.5-0.1c0-0.3,0.3-0.7,0.5-1c0.1,0,0.2,0.1,0.2,0.2c0,0.1,0.3,0,0.3-0.1
			s0.1-0.1,0.2-0.2c-0.2,0-0.1,0.1-0.3,0.1c-0.1,0-0.2,0-0.2-0.1C141.5,93.9,141.6,93.9,141.7,93.9z"/>
	</g>
</g>
<g>
	<path class="st0" d="M307.4,93c0.3,0,0.7,0,1,0.1c0.3,0.1,0.6,0.3,0.8,0.6c1.1,1,2.3,1,3.6,0.6c0.4-0.1,0.8-0.4,1.2-0.5
		c0.5-0.2,1-0.6,1.3-1.1c0.4-0.6,0.9-0.9,1.6-0.9c0.4,0,0.7,0.3,0.7,0.7c0,0.2,0,0.3,0,0.5c0.2,0.9,0.8,1.3,1.7,1.4
		c0.5,0,1,0,1.5-0.3c0.1,0,0.2,0,0.3,0c0,0.1,0,0.3-0.1,0.4c-0.2,0.1-0.4,0.2-0.6,0.2c-0.7,0.1-1.4,0.2-2.1-0.1
		c-0.5-0.2-0.8-0.5-1-1c-0.1-0.3-0.2-0.3-0.5-0.1c-0.4,0.3-0.8,0.7-1.1,1c-0.1,0.1-0.4,0.2-0.5,0.2c-0.4,0.1-0.6-0.1-0.7-0.5
		c0-0.1-0.1-0.3-0.1-0.5c-0.5,0.5-1.1,0.7-1.6,0.9c-0.9,0.3-1.8,0.4-2.6,0.2c-0.5-0.1-0.9-0.5-1.3-0.8c-0.8-0.7-1.1-0.8-2.1-0.4
		c-0.5,0.2-0.9,0.4-1.4,0.7c-0.5,0.3-1.1,0.2-1.4-0.2c-0.4-0.5-0.8-0.5-1.3-0.1c-0.2,0.2-0.4,0.4-0.7,0.5c-0.4,0.3-0.6,0.2-0.7-0.2
		c-0.1-0.4-0.4-0.5-0.8-0.6c-0.7-0.1-1.3,0.1-2,0.3c-0.9,0.4-1.9,0.7-2.9,1c-1.1,0.3-2.2-0.1-2.8-1.1c-0.2-0.2-0.3-0.2-0.5,0
		c-0.7,0.5-1.4,0.7-2.3,0.8c-0.8,0.1-1.6,0-2.4-0.4c-0.2-0.1-0.4-0.4-0.6-0.6c-0.3-0.3-0.4-0.3-0.6,0c-0.4,0.5-0.8,0.9-1.4,1.1
		c-0.5,0.1-0.7,0-0.7-0.5c0-0.3-0.2-0.4-0.5-0.2c-0.8,0.3-1.6,0.6-2.4,0.9c-0.8,0.3-1.7,0.3-2.6,0.2c-1.3-0.2-2.1-1.6-1.8-2.7
		c0.4-1.4,1.3-2.2,2.6-2.6c0.8-0.2,1.4,0.1,1.5,0.7c0.2,0.7-0.2,1.5-0.7,1.8c-0.1,0.1-0.3,0.2-0.4,0.3c-0.1,0-0.3-0.1-0.4-0.1
		c0.1-0.1,0.1-0.3,0.2-0.4c0.4-0.2,0.7-0.5,0.9-1c0.2-0.6-0.2-1-0.8-1c-0.7,0.1-1.3,0.5-1.7,1.1c-0.2,0.2-0.3,0.5-0.5,0.7
		c0,0-0.3,0.5-0.3,1.1c0.1,0.9,1.1,1.6,1.9,1.6c1.1,0,2.1-0.3,3.1-0.7c0.6-0.3,1.2-0.5,1.8-0.8c0.1-0.1,0.2-0.2,0.3-0.3
		c0.2-0.3,0.4-0.5,0.7-0.8c0.5-0.5,1.3-0.6,1.8-0.2c0.1,0.1,0.3,0.3,0.2,0.5c-0.2,1.3,0.8,1.7,1.7,1.9c1.2,0.2,2.3-0.2,3.2-0.9
		c0.1-0.1,0.3-0.3,0.3-0.5c0-1.1,0.4-2.1,0.9-3c0.2-0.4,0.5-0.7,0.8-1.2c0.1-0.2,0.3-0.2,0.3-0.2c0.2,0,0.3,0.1,0.3,0.3
		c0.1,0.2,0.2,0.4,0.2,0.6c-0.2,1.3-0.7,2.5-1.5,3.5c-0.5,0.6-0.5,0.8,0.1,1.3c0.4,0.4,1,0.5,1.5,0.5c0.7-0.1,1.4-0.3,2-0.5
		c0.7-0.2,1.3-0.5,2-0.8c0.4-0.1,0.9-0.1,1.3-0.1c0.5,0,0.8,0.2,1.1,0.6c0.2,0.2,0.3,0.2,0.5,0c0.4-0.4,0.9-0.7,1.5-0.6
		c0.3,0,0.6,0.1,0.8,0.4c0.2,0.4,0.4,0.4,0.8,0.2c0.4-0.2,0.9-0.4,1.3-0.6C306.5,93.3,307.1,93.1,307.4,93z M316.8,92.2
		c-0.2,0-0.3,0-0.4,0.1c-0.5,0.4-1,0.9-1.2,1.5c0,0.1,0,0.3,0,0.4c0.1,0,0.3,0,0.4-0.1c0.5-0.5,0.9-1,1.4-1.5
		c0.1-0.1,0.2-0.3,0.1-0.3C317.1,92.3,316.9,92.3,316.8,92.2z M284.7,93.8c0,0.4,0.2,0.5,0.4,0.3c0.5-0.5,1-1,1.5-1.5
		c0.1-0.1,0.1-0.2,0-0.3c0-0.1-0.2-0.1-0.3-0.1c-0.2,0.1-0.4,0.1-0.6,0.2c-0.4,0.4-0.7,0.8-1,1.2C284.7,93.7,284.7,93.8,284.7,93.8z
		 M293,92c0,0.1,0.1,0.2,0.1,0.2c0.1,0,0.2-0.1,0.2-0.1c0.1-0.2,0.3-0.4,0.4-0.6c0.3-0.6,0.5-1.3,0.7-1.9c0-0.1,0-0.2,0-0.3
		c-0.1,0-0.2,0.1-0.3,0.1c-0.2,0.3-0.4,0.6-0.6,1C293.4,91,293.2,91.5,293,92z"/>
	<path class="st0" d="M246,92.2c-0.2,0.2-0.4,0.4-0.5,0.6c-0.7,0.9-1.5,1.6-2.5,2c-0.3,0.1-0.7,0.2-1.1,0.1c-0.4,0-0.6-0.4-0.6-0.8
		c-0.1-0.8,0.3-1.4,0.7-2c0.5-0.7,1.1-1.4,2-1.8c0.7-0.3,1.3-0.4,2-0.1c0.5,0.2,0.6,0.6,0.5,1c-0.1,0.6-0.2,1.3,0.3,1.8
		c0.3,0.3,0.6,0.5,0.9,0.8c0.5,0.3,1.2,0.3,1.8,0.2c0.7-0.1,1.5-0.4,2.2-0.6c0.2-0.1,0.4-0.3,0.5-0.5c0.4-0.7,0.8-1.4,1.7-1.6
		c0.4-0.1,0.7-0.1,1,0.1c0.3,0.2,0.2,0.6,0.2,0.9c0,0.2,0,0.3,0,0.5c0.1,0,0.3-0.1,0.4-0.1c0.6-0.1,1.3-0.2,1.9-0.2
		c0.4,0,0.8,0.2,1.3,0.3c0.3,0.1,0.4,0,0.5-0.3c0.1-0.2,0.1-0.4,0.4-0.3c0.2,0.1,0.1,0.3,0.1,0.5c-0.1,0.4-0.2,0.9-0.3,1.3
		c0,0.1,0.1,0.3,0.2,0.4c0.1,0.1,0.3,0,0.4-0.1c0.6-0.3,0.9-0.8,1-1.4c0-0.2,0.1-0.4,0.2-0.6c0-0.1,0.2-0.1,0.3-0.2
		c0.1,0.1,0.2,0.2,0.1,0.3c0,0.3-0.1,0.5-0.1,0.8c-0.1,0.5,0.1,0.9,0.6,0.9c1.1,0.1,2.1-0.1,3-0.5c0.4-0.2,0.9-0.4,1.2-0.7
		c0.3-0.2,0.5-0.5,0.7-0.7c0.4-0.5,0.9-0.9,1.5-1c0.6-0.1,1,0.2,1,0.8c-0.1,1,0.3,1.5,1.2,1.9c0.9,0.3,1.9,0.3,2.8,0.1
		c0.7-0.1,1.4-0.3,2.1-0.4c0.2,0,0.3-0.1,0.5-0.2c0.1,0,0.3,0,0.4,0.1c-0.1,0.1-0.1,0.3-0.2,0.4c-0.2,0.1-0.4,0.2-0.6,0.2
		c-1.2,0.3-2.5,0.5-3.8,0.4c-0.7-0.1-1.5-0.1-2.1-0.6c-0.3-0.2-0.5-0.5-0.7-0.8c-0.2-0.3-0.3-0.3-0.5-0.1c-0.4,0.5-0.8,1-1.5,1.1
		c-0.5,0.1-0.6,0-0.7-0.5c-0.1-0.3-0.2-0.2-0.4-0.1c-1,0.6-2.1,0.9-3.3,1c-0.6,0-1.1,0-1.6-0.4c-0.1-0.1-0.3,0-0.4,0.1
		c-0.3,0.3-0.6,0.6-1.1,0.6c-0.5,0-0.7-0.1-0.8-0.6c0,0,0-0.1,0-0.1c0-0.8-0.3-1.1-1.2-1.2c-0.7,0-1.3,0-2,0.1
		c-0.4,0.1-0.6,0.4-0.6,0.8c-0.1,1.2-0.1,2.4-0.2,3.5c-0.1,0.8-0.3,1.7-1,2.3c-0.4,0.4-1.1,0.3-1.3-0.3c-0.3-0.8,0-1.6,0.3-2.4
		c0.4-1.1,1-2.2,1.5-3.4c0-0.1,0.1-0.2,0.1-0.3c0-0.1-0.1-0.2-0.2-0.3c0,0-0.2,0.1-0.2,0.1c-0.3,0.4-0.7,0.8-1.2,0.9
		c-0.3,0.1-0.6,0.1-0.9-0.2c0-0.1-0.3-0.1-0.4-0.1c-1.3,0.5-2.6,0.7-3.9,0.4c-0.9-0.2-1.5-0.7-1.6-1.6C246,92.6,246.1,92.4,246,92.2
		C246.1,92.2,246.1,92.2,246,92.2z M242.4,94.5c0.1,0,0.2,0,0.3-0.1c1.4-0.7,2.4-1.8,3.2-3.1c0.1-0.2,0-0.4-0.2-0.5
		c-0.4-0.2-0.9-0.2-1.3,0c-1.1,0.5-1.8,1.3-2.4,2.3c-0.2,0.3-0.3,0.6-0.3,0.9C241.7,94.3,241.9,94.5,242.4,94.5z M254.6,95.9
		c0-0.1,0-0.2,0-0.3c0-0.1-0.1-0.3-0.2-0.4c-0.1,0.1-0.2,0.2-0.3,0.3c-0.4,0.9-0.7,1.7-1,2.6c-0.1,0.4-0.1,0.9-0.1,1.4
		c0,0.1,0.1,0.3,0.2,0.4c0.1,0,0.3-0.1,0.3-0.2c0.1-0.1,0.2-0.3,0.3-0.4C254.4,98.1,254.5,97,254.6,95.9z M266.9,93.7
		c0,0,0.1,0.2,0.1,0.2c0.1,0,0.3,0,0.4-0.1c0.5-0.5,0.9-0.9,1.3-1.4c0.1-0.1,0.1-0.3,0.1-0.5c-0.2,0-0.4-0.1-0.5,0
		c-0.7,0.3-1.1,0.9-1.4,1.5C266.9,93.5,266.9,93.6,266.9,93.7z M252.5,93.5c0,0.4,0.2,0.5,0.4,0.3c0.5-0.4,1-1,1.4-1.5
		c0.1-0.1,0.1-0.3,0.1-0.4c-0.2,0-0.4-0.1-0.5,0c-0.4,0.3-0.8,0.7-1.2,1.1C252.6,93.2,252.6,93.4,252.5,93.5z"/>
</g>
</svg>
