<?xml version="1.0" encoding="utf-8"?>
<!-- Generator: Adobe Illustrator 24.3.0, SVG Export Plug-In . SVG Version: 6.00 Build 0)  -->
<svg version="1.1" id="Layer_1" xmlns="http://www.w3.org/2000/svg" xmlns:xlink="http://www.w3.org/1999/xlink" x="0px" y="0px"
	 viewBox="0 0 329.2 123.9" style="enable-background:new 0 0 329.2 123.9;" xml:space="preserve">
<style type="text/css">
	.st0{fill-rule:evenodd;clip-rule:evenodd;fill:#595A59;}
	.st1{fill:#575756;}
	.st2{clip-path:url(#SVGID_2_);fill:#575756;}
	.st3{clip-path:url(#SVGID_4_);fill:#575756;}
	.st4{clip-path:url(#SVGID_6_);fill:#575756;}
	.st5{clip-path:url(#SVGID_8_);fill:#575756;}
	.st6{clip-path:url(#SVGID_10_);fill:#575756;}
	.st7{clip-path:url(#SVGID_12_);fill:#575756;}
</style>
<g>
	<path class="st0" d="M55,25.7c1.9,0,3.5,1.5,3.5,3.5c0,1.9-1.5,3.5-3.5,3.5c-1.9,0-3.5-1.5-3.5-3.5C51.5,27.3,53.1,25.7,55,25.7
		L55,25.7z M55,22.4c3.8,0,6.8,3.1,6.8,6.8S58.7,36,55,36c-3.8,0-6.8-3.1-6.8-6.8S51.2,22.4,55,22.4L55,22.4z"/>
	<path class="st0" d="M24.9,22.6c0.8,0,1.6,0.1,2.2,0.5c1.2,1,1.1,2.2,0.8,3.4l-2.7,0c0.1-0.5,0.2-0.9,0.2-1.4
		c0-0.3-0.1-0.7-0.6-0.7c-0.5,0-0.7,0.3-0.8,0.9l-0.4,2.4h1.6l-0.3,1.6h-1.6l-1.2,6.8c-0.2,1.3-0.4,2.3-3.5,2l1.6-8.7l0,0H19
		l0.3-1.6h1.4l0,0l0.3-2C21.3,23.6,22.3,22.6,24.9,22.6L24.9,22.6z M38.5,25c-2-0.4-3,0-3.2,1.2L35,27.7h-1.1l-0.3,1.6h1.1l-0.6,3.3
		c-0.3,2,0,2.9,1.7,2.8c0.7,0,1.3-0.1,1.9-0.3l0.3-1.6c-1.3,0.3-0.9-0.7-0.8-1.1l0.5-3.2h1.4l0.3-1.6h-1.4L38.5,25L38.5,25z
		 M30.8,27.7h2.3l-0.9,5.1c-0.1,0.9,0.1,1,0.7,0.9c-0.1,0.5-0.2,1-0.3,1.5c-0.7,0.2-1.4,0.3-2,0.3c-0.6-0.1-1.3-0.4-1.5-1h-0.1
		c-0.6,0.7-1.3,1.1-2.1,1c-2.2-0.1-2.5-1.8-2.2-3.9c0.2-1.5,0.8-2.9,1.7-3.6c0.7-0.5,1.7-0.7,2.5-0.4c0.4,0.2,0.8,0.5,1.2,0.9
		L30.8,27.7L30.8,27.7z M29.2,29.5L29.2,29.5c0.3,0.1,0.6,0.4,0.5,0.7l-0.5,2.9c-0.1,0.3-0.4,0.6-0.7,0.5l0,0
		c-0.3-0.1-0.6-0.4-0.5-0.7l0.5-2.9C28.5,29.6,28.9,29.4,29.2,29.5L29.2,29.5z M43.1,29.2L43.1,29.2c0.4,0,0.6,0.4,0.5,0.7l-0.1,1
		h-1.3l0.2-1.2C42.4,29.4,42.7,29.1,43.1,29.2L43.1,29.2z M45.9,32.2h-4c-0.1,1.2,0.3,1.6,1.5,1.5c0.6,0,1.3-0.1,1.9-0.2L45,35.2
		c-0.7,0.2-1.5,0.3-2.2,0.4c-1.4,0-2.4-0.4-3.2-1c-1-0.8-0.9-2.4-0.6-3.6c0.4-1.9,1.4-3.5,4.2-3.4c1.3,0.1,2.2,0.4,2.6,1.1
		C46.3,29.5,46.2,30.7,45.9,32.2L45.9,32.2z"/>
</g>
<g>
	<g>
		<path class="st1" d="M142.7,34.9h0.3v2.7h-0.3V34.9z"/>
		<path class="st1" d="M145.1,34.9h0.3l1.7,2.2v-2.2h0.3v2.7h-0.2l-1.8-2.2v2.2h-0.3V34.9z"/>
		<path class="st1" d="M149.5,34.9h0.3l1.7,2.2v-2.2h0.3v2.7h-0.2l-1.8-2.2v2.2h-0.3V34.9z"/>
		<path class="st1" d="M153.8,36.3L153.8,36.3c0-0.8,0.6-1.4,1.4-1.4c0.8,0,1.4,0.7,1.4,1.4c0,0,0,0,0,0c0,0.8-0.6,1.4-1.4,1.4
			C154.4,37.7,153.8,37.1,153.8,36.3z M156.3,36.3L156.3,36.3c0-0.6-0.5-1.1-1.1-1.1c-0.6,0-1.1,0.5-1.1,1.1v0
			c0,0.6,0.5,1.1,1.1,1.1C155.8,37.4,156.3,36.9,156.3,36.3z"/>
		<path class="st1" d="M158.2,34.9h0.3l1,2.3l1-2.3h0.3l-1.2,2.7h-0.3L158.2,34.9z"/>
		<path class="st1" d="M163.3,34.9h0.3l1.2,2.7h-0.3l-0.3-0.7h-1.5l-0.3,0.7h-0.3L163.3,34.9z M164.1,36.7l-0.6-1.4l-0.6,1.4H164.1z
			"/>
		<path class="st1" d="M167.1,35.2h-0.9v-0.3h2.1v0.3h-0.9v2.4h-0.3V35.2z"/>
		<path class="st1" d="M170.2,34.9h0.3v2.7h-0.3V34.9z"/>
		<path class="st1" d="M172.5,36.3L172.5,36.3c0-0.8,0.6-1.4,1.4-1.4c0.8,0,1.4,0.7,1.4,1.4c0,0,0,0,0,0c0,0.8-0.6,1.4-1.4,1.4
			C173.1,37.7,172.5,37.1,172.5,36.3z M175,36.3L175,36.3c0-0.6-0.5-1.1-1.1-1.1s-1.1,0.5-1.1,1.1v0c0,0.6,0.5,1.1,1.1,1.1
			S175,36.9,175,36.3z"/>
		<path class="st1" d="M177.3,34.9h0.3l1.7,2.2v-2.2h0.3v2.7h-0.2l-1.8-2.2v2.2h-0.3V34.9z"/>
		<path class="st1" d="M184.2,34.9h0.3v1.2h1.6v-1.2h0.3v2.7h-0.3v-1.2h-1.6v1.2h-0.3V34.9z"/>
		<path class="st1" d="M188.5,36.5v-1.6h0.3v1.6c0,0.6,0.3,0.9,0.8,0.9c0.5,0,0.8-0.3,0.8-0.9v-1.6h0.3v1.6c0,0.8-0.5,1.2-1.1,1.2
			C188.9,37.7,188.5,37.3,188.5,36.5z"/>
		<path class="st1" d="M192.8,34.9h1.2c0.3,0,0.6,0.1,0.7,0.2c0.1,0.1,0.2,0.3,0.2,0.4v0c0,0.4-0.2,0.5-0.4,0.6
			c0.3,0.1,0.6,0.3,0.6,0.7v0c0,0.5-0.4,0.7-1,0.7h-1.2V34.9z M193.9,36.2c0.4,0,0.6-0.2,0.6-0.5v0c0-0.3-0.2-0.4-0.6-0.4h-0.8v0.9
			H193.9z M194,37.4c0.4,0,0.7-0.2,0.7-0.5v0c0-0.3-0.2-0.5-0.7-0.5h-0.9v1H194z"/>
	</g>
	<g>
		<path class="st1" d="M142.5,24.8h-2c-0.1,0-0.2-0.1-0.2-0.2v-0.7c0-0.1,0.1-0.2,0.2-0.2h5.2c0.1,0,0.2,0.1,0.2,0.2v0.7
			c0,0.1-0.1,0.2-0.2,0.2h-2v7c0,0.1-0.1,0.2-0.2,0.2h-0.8c-0.1,0-0.2-0.1-0.2-0.2V24.8z"/>
		<path class="st1" d="M148.4,23.9c0-0.1,0.1-0.2,0.2-0.2h3.3c1.4,0,2.6,1.1,2.6,2.6c0,1.1-0.7,2-1.8,2.4l1.6,3
			c0.1,0.2,0,0.3-0.2,0.3h-0.9c-0.1,0-0.2-0.1-0.2-0.1l-1.6-3.2h-1.8v3.1c0,0.1-0.1,0.2-0.2,0.2h-0.8c-0.1,0-0.2-0.1-0.2-0.2V23.9z
			 M151.8,27.7c0.8,0,1.5-0.7,1.5-1.5c0-0.8-0.7-1.4-1.5-1.4h-2.1v2.9H151.8z"/>
		<path class="st1" d="M157.6,23.9c0-0.1,0.1-0.2,0.2-0.2h0.8c0.1,0,0.2,0.1,0.2,0.2v7.9c0,0.1-0.1,0.2-0.2,0.2h-0.8
			c-0.1,0-0.2-0.1-0.2-0.2V23.9z"/>
		<path class="st1" d="M169.1,31.8c0.1,0.2,0,0.3-0.2,0.3H168c-0.1,0-0.2-0.1-0.2-0.1l-2.6-5.9h-0.1l-2.6,5.9c0,0.1-0.1,0.1-0.2,0.1
			h-0.9c-0.2,0-0.3-0.2-0.2-0.3l3.7-8.1c0-0.1,0.1-0.1,0.2-0.1h0.1c0.1,0,0.2,0.1,0.2,0.1L169.1,31.8z"/>
		<path class="st1" d="M171.5,23.9c0-0.1,0.1-0.2,0.2-0.2h3.3c1.4,0,2.6,1.1,2.6,2.6c0,1.1-0.7,2-1.8,2.4l1.6,3
			c0.1,0.2,0,0.3-0.2,0.3h-0.9c-0.1,0-0.2-0.1-0.2-0.1l-1.6-3.2h-1.8v3.1c0,0.1-0.1,0.2-0.2,0.2h-0.8c-0.1,0-0.2-0.1-0.2-0.2V23.9z
			 M174.9,27.7c0.8,0,1.5-0.7,1.5-1.5c0-0.8-0.7-1.4-1.5-1.4h-2.1v2.9H174.9z"/>
		<path class="st1" d="M180.1,30.8c0.1-0.2,0.2-0.3,0.3-0.5c0.1-0.2,0.3-0.2,0.4-0.1c0.1,0.1,1,0.8,1.9,0.8c0.8,0,1.4-0.5,1.4-1.1
			c0-0.7-0.6-1.2-1.8-1.7c-1.2-0.5-2.2-1.1-2.2-2.5c0-0.9,0.7-2.2,2.6-2.2c1.2,0,2.1,0.6,2.2,0.7c0.1,0.1,0.2,0.2,0.1,0.4
			c-0.1,0.1-0.2,0.3-0.3,0.5c-0.1,0.2-0.3,0.2-0.4,0.1c-0.1,0-0.9-0.6-1.6-0.6c-1,0-1.4,0.6-1.4,1.1c0,0.7,0.5,1.1,1.5,1.5
			c1.4,0.6,2.6,1.2,2.6,2.7c0,1.2-1.1,2.3-2.7,2.3c-1.5,0-2.4-0.8-2.6-0.9C180.1,31.1,180,31,180.1,30.8z"/>
		<path class="st1" d="M195,31.8c0.1,0.2,0,0.3-0.2,0.3H194c-0.1,0-0.2-0.1-0.2-0.1l-2.6-5.9h-0.1l-2.6,5.9c0,0.1-0.1,0.1-0.2,0.1
			h-0.9c-0.2,0-0.3-0.2-0.2-0.3l3.7-8.1c0-0.1,0.1-0.1,0.2-0.1h0.1c0.1,0,0.2,0.1,0.2,0.1L195,31.8z"/>
	</g>
	<g>
		<path class="st1" d="M136.2,28.4C136.2,28.4,136.2,28.4,136.2,28.4l0-2.1l0-1.9c0,0,0,0,0,0c0-1.5-1.2-2.8-2.6-2.9c0,0,0,0,0,0
			c0,0,0,0,0,0l1.4-0.9c0,0,0,0,0,0c0,0,0,0,0,0c1.4,0.6,2.4,1.9,2.5,3.5c0,0,0,0,0,0l0.1,4.3c0,0,0,0,0,0c0,0,0,0,0,0H136.2z"/>
		<path class="st1" d="M134.9,20.5c1.4,0.6,2.3,1.9,2.5,3.4c0,0,0,0,0,0l0,0.5l0.1,3.9h-1.2l0-1.1l0-1l0-1.6l0-0.4l0,0
			c0-1.5-1.2-2.8-2.7-2.9L134.9,20.5 M134.9,20.5C134.9,20.5,134.9,20.5,134.9,20.5l-1.4,0.9c0,0,0,0,0,0.1c0,0,0,0,0.1,0
			c1.4,0.1,2.6,1.3,2.6,2.8c0,0,0,0,0,0l0,0.3l0,1.6l0,1l0,1.1c0,0,0,0.1,0.1,0.1h1.2c0,0,0,0,0,0s0,0,0,0l-0.1-3.9l0-0.5
			c0,0,0,0,0,0l0,0C137.3,22.4,136.4,21,134.9,20.5C134.9,20.5,134.9,20.5,134.9,20.5L134.9,20.5z"/>
	</g>
	<g>
		<path class="st1" d="M130.9,25.9C130.9,25.9,130.9,25.9,130.9,25.9l-1.5-0.8c0,0,0,0,0,0c0-0.1,0-0.2,0-0.2c0-0.1,0-0.2,0-0.4
			c-0.1-1.3,0.6-2.6,1.8-3.4c0,0,0,0,0,0l3-2c0,0,0,0,0,0c0,0,0,0,0,0l0.7,1c0,0,0,0,0,0c0,0,0,0,0,0l-1.7,1.1l-1.3,0.9l0,0
			c-0.8,0.5-1.3,1.4-1.3,2.4C130.6,25,130.6,25.4,130.9,25.9C130.9,25.9,130.9,25.9,130.9,25.9C130.9,25.9,130.9,25.9,130.9,25.9z"
			/>
		<path class="st1" d="M134.2,19l0.7,1l-0.7,0.4l-1,0.7l-1.3,0.9c0,0,0,0,0,0c-0.8,0.5-1.3,1.4-1.3,2.4c0,0.6,0,1,0.3,1.5l-1.5-0.8
			c0-0.3,0-0.3-0.1-0.6c-0.1-1.4,0.7-2.7,1.8-3.4l0,0L134.2,19 M134.2,18.9C134.2,18.9,134.2,18.9,134.2,18.9l-3.1,2c0,0,0,0,0,0
			c-1.2,0.8-1.9,2.1-1.8,3.5c0,0.2,0,0.3,0,0.4c0,0.1,0,0.1,0,0.2c0,0,0,0,0,0l1.5,0.8c0,0,0,0,0,0c0,0,0,0,0,0c0,0,0-0.1,0-0.1
			c-0.3-0.4-0.3-0.9-0.3-1.4c0-1,0.5-1.8,1.3-2.4l0,0l0,0l1.3-0.9l1-0.7L135,20c0,0,0,0,0,0c0,0,0,0,0,0L134.2,18.9
			C134.3,18.9,134.2,18.9,134.2,18.9L134.2,18.9z"/>
	</g>
	<g>
		<path class="st1" d="M133.1,28.6c-0.7,0-1.4-0.2-2.1-0.6c0,0,0,0,0,0l-2.5-1.5c0,0,0,0,0,0l0.6-1.1c0,0,0,0,0,0c0,0,0,0,0,0
			c0,0,0,0,0,0l0.1,0.1c0.4,0.3,1.7,1.1,2.5,1.5c0.4,0.2,0.9,0.3,1.3,0.3c0.4,0,0.8-0.1,1.2-0.3c0.6-0.3,1.1-0.7,1.4-1.2
			c0,0,0,0,0,0c0,0,0,0,0,0c0,0,0,0,0,0l0,1.7c0,0,0,0,0,0c-0.3,0.3-0.6,0.4-0.9,0.6C134.3,28.4,133.7,28.6,133.1,28.6
			C133.1,28.6,133.1,28.6,133.1,28.6z"/>
		<path class="st1" d="M129.1,25.4L129.1,25.4l0.1,0.1c0.4,0.3,1.7,1.1,2.5,1.5c0.4,0.2,0.9,0.3,1.4,0.3c0.4,0,0.8-0.1,1.3-0.3
			c0.5-0.3,1.1-0.7,1.4-1.2l0,1.7c-0.3,0.2-0.5,0.4-0.9,0.6c-0.6,0.3-1.2,0.4-1.8,0.4c-0.7,0-1.4-0.2-2.1-0.6l0,0l-2.5-1.5
			L129.1,25.4 M129.1,25.4C129.1,25.4,129.1,25.4,129.1,25.4C129.1,25.4,129.1,25.4,129.1,25.4l-0.7,1.1c0,0,0,0.1,0,0.1L131,28
			c0,0,0,0,0,0c0.6,0.4,1.3,0.6,2.1,0.6c0.6,0,1.3-0.1,1.8-0.4c0.3-0.2,0.6-0.3,0.9-0.6c0,0,0,0,0,0l0-1.7c0,0,0-0.1,0-0.1
			c0,0,0,0,0,0c0,0,0,0-0.1,0c-0.3,0.4-0.8,0.9-1.3,1.1c-0.4,0.2-0.8,0.3-1.2,0.3c-0.5,0-0.9-0.1-1.3-0.3c-0.8-0.4-2.1-1.2-2.5-1.5
			L129.1,25.4L129.1,25.4C129.2,25.4,129.2,25.4,129.1,25.4L129.1,25.4z"/>
	</g>
</g>
<g>
	<g>
		<g>
			<defs>
				<rect id="SVGID_1_" x="257.1" y="23.5" width="8.9" height="2.7"/>
			</defs>
			<use xlink:href="#SVGID_1_"  style="overflow:visible;fill:#575756;"/>
			<clipPath id="SVGID_2_">
				<use xlink:href="#SVGID_1_"  style="overflow:visible;"/>
			</clipPath>
			
				<rect x="257.4" y="20.7" transform="matrix(0.7145 -0.6996 0.6996 0.7145 57.3143 190.0865)" class="st2" width="8.3" height="8.2"/>
		</g>
		<g>
			<defs>
				<rect id="SVGID_3_" x="257.1" y="26.4" width="5.9" height="2.7"/>
			</defs>
			<use xlink:href="#SVGID_3_"  style="overflow:visible;fill:#575756;"/>
			<clipPath id="SVGID_4_">
				<use xlink:href="#SVGID_3_"  style="overflow:visible;"/>
			</clipPath>
			
				<rect x="257" y="24.7" transform="matrix(0.7145 -0.6996 0.6996 0.7145 54.8089 189.8952)" class="st3" width="6.1" height="6.1"/>
		</g>
		<g>
			<defs>
				<rect id="SVGID_5_" x="257.1" y="29.4" width="3" height="2.7"/>
			</defs>
			<use xlink:href="#SVGID_5_"  style="overflow:visible;fill:#575756;"/>
			<clipPath id="SVGID_6_">
				<use xlink:href="#SVGID_5_"  style="overflow:visible;"/>
			</clipPath>
			<rect x="256.6" y="28.8" transform="matrix(0.7145 -0.6996 0.6996 0.7145 52.3035 189.7039)" class="st4" width="4" height="4"/>
		</g>
		<g>
			<defs>
				<rect id="SVGID_7_" x="260.4" y="32.4" width="8.9" height="2.7"/>
			</defs>
			<use xlink:href="#SVGID_7_"  style="overflow:visible;fill:#575756;"/>
			<clipPath id="SVGID_8_">
				<use xlink:href="#SVGID_7_"  style="overflow:visible;"/>
			</clipPath>
			
				<rect x="260.7" y="29.7" transform="matrix(0.7236 -0.6902 0.6902 0.7236 49.9065 192.104)" class="st5" width="8.3" height="8.1"/>
		</g>
		<g>
			<defs>
				<rect id="SVGID_9_" x="263.3" y="29.4" width="5.9" height="2.7"/>
			</defs>
			<use xlink:href="#SVGID_9_"  style="overflow:visible;fill:#575756;"/>
			<clipPath id="SVGID_10_">
				<use xlink:href="#SVGID_9_"  style="overflow:visible;"/>
			</clipPath>
			
				<rect x="263.2" y="27.7" transform="matrix(0.7236 -0.6902 0.6902 0.7236 52.3704 192.3084)" class="st6" width="6.2" height="6.1"/>
		</g>
		<g>
			<defs>
				<rect id="SVGID_11_" x="266.3" y="26.4" width="3" height="2.7"/>
			</defs>
			<use xlink:href="#SVGID_11_"  style="overflow:visible;fill:#575756;"/>
			<clipPath id="SVGID_12_">
				<use xlink:href="#SVGID_11_"  style="overflow:visible;"/>
			</clipPath>
			<rect x="265.8" y="25.8" transform="matrix(0.7236 -0.6902 0.6902 0.7236 54.8342 192.5128)" class="st7" width="4" height="4"/>
		</g>
	</g>
	<g>
		<path class="st1" d="M276.6,23.5c0.1,0,0.3,0.1,0.4,0.2c0.1,0.1,0.2,0.3,0.2,0.4c0,0.2-0.1,0.3-0.2,0.5c-0.1,0.1-0.3,0.2-0.4,0.2
			c-0.9,0-1.6,0.3-2.2,0.9c-0.6,0.6-0.9,1.3-0.9,2.2v0h2.4c0.2,0,0.3,0.1,0.4,0.2c0.1,0.1,0.2,0.3,0.2,0.4c0,0.2-0.1,0.3-0.2,0.4
			c-0.1,0.1-0.3,0.2-0.4,0.2h-2.4v5.4c0,0.2-0.1,0.3-0.2,0.4c-0.1,0.1-0.3,0.2-0.4,0.2c-0.2,0-0.3,0-0.4-0.2
			c-0.1-0.1-0.2-0.3-0.2-0.4v-6.8c0-0.6,0.1-1.1,0.4-1.6c0.2-0.5,0.5-0.9,1-1.4C274.4,23.9,275.5,23.5,276.6,23.5L276.6,23.5z"/>
		<path class="st1" d="M284.8,27.9c0.8,0.8,1.2,1.8,1.2,2.9c0,1.1-0.4,2.1-1.2,2.9c-0.8,0.8-1.8,1.2-2.9,1.2c-1.1,0-2.1-0.4-2.9-1.2
			c-0.8-0.8-1.2-1.8-1.2-2.9c0-1.1,0.4-2.1,1.2-2.9c0.8-0.8,1.8-1.2,2.9-1.2C283,26.7,283.9,27.1,284.8,27.9 M283.9,32.9
			c0.6-0.6,0.9-1.3,0.9-2.1c0-0.8-0.3-1.5-0.9-2.1c-0.6-0.6-1.3-0.9-2.1-0.9c-0.8,0-1.5,0.3-2.1,0.9c-0.6,0.6-0.9,1.3-0.9,2.1
			c0,0.8,0.3,1.5,0.9,2.1c0.6,0.6,1.3,0.9,2.1,0.9v0C282.7,33.8,283.3,33.5,283.9,32.9"/>
		<path class="st1" d="M293.8,33.3L293.8,33.3L293.8,33.3c0,0.1,0.1,0.1,0.1,0.2c0,0.1,0,0.1,0,0.2c0,0.2-0.1,0.3-0.2,0.4l0,0
			c-0.7,0.6-1.6,0.9-2.6,0.9c-1.1,0-2.1-0.4-2.9-1.2c-0.8-0.8-1.2-1.8-1.2-2.9c0-1.1,0.4-2.1,1.2-2.9c0.8-0.8,1.8-1.2,2.9-1.2
			c0.5,0,0.9,0.1,1.4,0.2c0.4,0.2,0.8,0.4,1.2,0.7c0.1,0.1,0.1,0.1,0.2,0.2c0,0.1,0.1,0.2,0.1,0.3c0,0.1,0,0.1,0,0.2
			c0,0.1-0.1,0.1-0.1,0.2c0,0.1-0.1,0.1-0.2,0.1c-0.1,0-0.1,0.1-0.2,0.1h-0.1c-0.1,0-0.2,0-0.4-0.1c-0.3-0.2-0.6-0.4-0.9-0.5
			c-0.3-0.1-0.6-0.2-1-0.2c-0.8,0-1.5,0.3-2.1,0.9c-0.6,0.6-0.9,1.3-0.9,2.1c0,0.8,0.3,1.5,0.9,2.1c0.6,0.6,1.3,0.9,2.1,0.9
			c0.7,0,1.3-0.2,1.9-0.7c0.1-0.1,0.2-0.1,0.3-0.1h0.1C293.6,33,293.7,33.1,293.8,33.3L293.8,33.3z"/>
		<path class="st1" d="M301.4,26.7c0.2,0,0.3,0.1,0.4,0.2c0.1,0.1,0.2,0.3,0.2,0.4v4.3c0,1-0.4,1.7-1,2.4c-0.7,0.7-1.5,1-2.4,1
			c-0.9,0-1.8-0.3-2.4-1c-0.3-0.3-0.6-0.7-0.8-1.1c-0.2-0.4-0.3-0.8-0.3-1.3v-4.4c0-0.2,0.1-0.3,0.2-0.4c0.1-0.1,0.3-0.2,0.4-0.2
			c0.2,0,0.3,0.1,0.4,0.2c0,0,0,0,0,0c0,0.1,0.1,0.1,0.1,0.2c0,0.1,0,0.1,0,0.2v4.3c0,0.6,0.2,1.1,0.7,1.5c0.4,0.4,1,0.7,1.6,0.7
			c0.3,0,0.6-0.1,0.9-0.2c0.3-0.1,0.5-0.3,0.7-0.5c0.4-0.4,0.7-0.9,0.7-1.5v-4.3c0-0.2,0.1-0.3,0.2-0.4
			C301.1,26.8,301.3,26.7,301.4,26.7L301.4,26.7z"/>
		<path class="st1" d="M306.3,35c-1.1,0-2.1-0.3-2.8-0.9c-0.2-0.2-0.3-0.5-0.1-0.8c0.1-0.1,0.3-0.2,0.4-0.2c0.1,0,0.2,0,0.3,0.1
			c0.6,0.5,1.4,0.7,2.2,0.7c1.1,0,1.9-0.5,1.9-1.3c0-0.8-0.9-1.1-2-1.4c-1.3-0.3-2.9-0.7-2.9-2.3c0-1.3,1.2-2.3,2.9-2.3
			c1,0,1.9,0.3,2.6,0.8c0.2,0.2,0.3,0.5,0.1,0.7c-0.1,0.1-0.3,0.2-0.4,0.2c-0.1,0-0.2,0-0.3-0.1c-0.5-0.4-1.2-0.6-2-0.6
			c-1.1,0-1.7,0.5-1.7,1.2c0,0.7,0.8,1,1.9,1.2c1.3,0.3,3,0.7,3,2.5C309.4,34,308.2,35,306.3,35"/>
	</g>
</g>
<g>
	<path class="st1" d="M57.5,98.1c-2.8,0-5.5,0-8.3,0c-0.3,0-1,0-1.1,0c0.4-0.1,0.3,0,1.4-0.2c1-0.1,1.3-0.5,1.2-1.5
		c-0.1-0.7-0.3-1.3-0.5-2c-0.5-1.4-1-2.7-1.6-4.2c0.8,0,1.5,0,2.2,0c1.3,0,1.3,0,1.8,1.2c0.6,1.4,1.1,2.7,1.8,4
		C55.1,96.7,56,97.8,57.5,98.1z"/>
	<path class="st1" d="M43.1,75.6c-0.8,2.1-1.6,4.2-2.4,6.2c-0.1,0-0.1,0-0.2,0c0.1-0.2,0.2-0.4,0.2-0.6c1.2-3.1,2.5-6.3,3.7-9.4
		c0.1-0.2,0.1-0.5,0.4-0.5c0.2,0,0.3,0.3,0.4,0.5c1.2,3.2,3.6,9.4,3.8,10c-1.2,0-1.8,0-2.8,0c-0.6,0-0.7-0.3-0.9-0.7
		c-0.7-1.7-1.3-3.3-1.9-5C43.2,76,43.2,75.8,43.1,75.6z"/>
	<path class="st1" d="M38.8,98.1c-2.7,0-5.9,0-8.7,0c0.5-0.1,0.7-0.2,0.8-0.2c2.1-0.5,3.5-1.8,4.5-3.7c0.6-1.1,1.1-2.3,1.6-3.5
		c0-0.1,0.2-0.5,0.2-0.5c0,0,0.1,0,0.2,0c0,0-0.1,0.2-0.1,0.2c-0.1,0.2-0.1,0.3-0.2,0.5c-0.5,1.4-0.7,2.9-0.5,4.3
		C36.8,96.6,37.2,97.7,38.8,98.1z"/>
	<g>
		<path class="st1" d="M40.8,85.4c0,0.1-0.1,0.1-0.2,0.1c0,0,0,0,0,0c0-0.1,0-0.1,0-0.1c0,0,0.1-0.1,0.1-0.1
			c0.1-0.1,0.2-0.2,0.2-0.2c0,0,0,0,0.1,0c0,0,0.1,0,0.1,0.1c0,0,0,0.1-0.1,0.1C41,85.3,40.9,85.3,40.8,85.4z"/>
		<g>
			<path class="st1" d="M45.3,85.5C45.3,85.5,45.4,85.5,45.3,85.5c0.1-0.1,0.1-0.1,0.1-0.1c0,0,0-0.1,0-0.1c0,0-0.1,0-0.1,0
				c-0.1,0-0.1,0.1-0.1,0.1C45.2,85.5,45.2,85.5,45.3,85.5z"/>
			<path class="st1" d="M50.8,86.1C50.7,86.1,50.7,86.1,50.8,86.1c-0.3,0.1-0.5,0.2-0.7,0.2c-0.2,0.1-0.5,0-0.7,0c0-0.1,0-0.2,0-0.2
				c0,0,0-0.1,0.1-0.1c0,0,0-0.1,0-0.2c0,0,0-0.1,0-0.1c0,0,0,0-0.1,0c-0.1,0-0.1,0.1-0.1,0.1C49,85.8,49,85.9,48.9,86
				c0,0-0.1,0.1-0.1,0.1c0,0-0.1,0.1-0.1,0.1c-0.1,0-0.1,0.1-0.1,0.1c0,0-0.1,0.1-0.1,0.1c-0.2,0.1-0.4,0.3-0.5,0.4
				c-0.1,0.1-0.3,0.2-0.6,0.4c-0.1,0.1-0.2,0.2-0.4,0.2c-0.1,0.1-0.3,0.1-0.5,0c-0.1,0-0.1-0.1-0.2-0.2c0-0.1-0.1-0.2-0.1-0.3
				c0-0.1,0-0.3,0.1-0.4s0.1-0.3,0.2-0.4c0.1-0.1,0.2-0.2,0.3-0.3c0.1-0.1,0.2-0.2,0.2-0.3c0.1-0.1,0.1-0.1,0.2-0.2
				c0.1-0.1,0.1-0.1,0.3-0.1c0,0.1,0,0.1-0.1,0.2c0,0.1-0.1,0.1-0.1,0.2c0,0,0,0-0.1,0.1c0,0,0,0.1,0,0.1c0,0,0,0.1,0,0.1
				c0,0,0,0.1,0.1,0.1c0.1,0,0.1,0,0.1-0.1c0-0.1,0-0.1,0-0.1c0,0,0-0.1,0.1-0.1c0,0,0.1-0.1,0.1-0.1c0-0.1,0.1-0.2,0.1-0.3
				c0-0.1,0-0.2-0.1-0.2c0,0,0,0-0.1,0c0,0-0.1,0-0.1,0c0,0,0,0,0,0c0,0,0,0,0,0c-0.2,0.1-0.4,0.2-0.5,0.3c-0.1,0.1-0.3,0.3-0.4,0.4
				c0,0.1-0.1,0.1-0.1,0.2c0,0,0,0,0,0c-0.1,0-0.1,0.1-0.1,0.1c-0.2,0.1-0.4,0.2-0.6,0.4c-0.2,0.1-0.4,0.3-0.6,0.4
				c-0.1,0.1-0.2,0.1-0.3,0.2s-0.2,0.1-0.3,0.1c0,0,0-0.1,0-0.1c0-0.1,0-0.1,0-0.2c0-0.1,0-0.1,0.1-0.2c0-0.1,0-0.1,0.1-0.1
				c0-0.1,0.1-0.1,0.1-0.2c0-0.1,0.1-0.1,0.1-0.2c0,0,0.1-0.1,0.1-0.1c0,0,0.1-0.1,0.1-0.2c0,0,0,0,0-0.1c0,0-0.1,0-0.1,0
				c0,0-0.1,0-0.1,0.1c0,0,0,0,0,0c0,0,0,0-0.1,0c-0.1,0-0.1,0.1-0.2,0.1c-0.1,0.1-0.1,0.1-0.1,0.1c-0.2,0.1-0.4,0.3-0.6,0.5
				c-0.2,0.2-0.4,0.3-0.6,0.5c-0.1,0.1-0.1,0.1-0.2,0.1c-0.1,0-0.2,0.1-0.3,0.1c0-0.1,0-0.3,0-0.4c0-0.1,0.1-0.2,0.2-0.3
				c0.1-0.1,0.1-0.2,0.2-0.3c0-0.1,0.1-0.2,0.1-0.4c0-0.1-0.1-0.1-0.2-0.1s-0.2,0-0.2,0c0,0,0.1-0.1,0.1-0.1c0,0,0.1-0.1,0.1-0.2
				c0-0.1,0-0.1,0.1-0.2c0-0.1,0-0.1,0-0.2c-0.1-0.1-0.1-0.1-0.2-0.1c-0.1,0-0.1,0-0.2,0.1c-0.1,0.1-0.2,0.2-0.3,0.3
				c-0.1,0.1-0.1,0.3-0.1,0.4c0,0.1,0.1,0.1,0.1,0.1c0,0,0,0-0.1,0c-0.1,0.1-0.3,0.2-0.4,0.3c-0.1,0.1-0.3,0.2-0.4,0.3
				c-0.1,0.1-0.2,0.1-0.3,0.2c-0.1,0.1-0.2,0.1-0.3,0.2c-0.1,0.1-0.2,0.1-0.3,0.2c-0.1,0-0.3,0.1-0.4,0.1c-0.1,0-0.2-0.1-0.2-0.2
				c0-0.2,0-0.3,0.1-0.4c0-0.1,0.1-0.2,0.2-0.3c0.2-0.1,0.3-0.1,0.4-0.2c0.1-0.1,0.2-0.2,0.2-0.4l0-0.1c0,0,0,0,0,0c0,0,0,0-0.1,0
				c-0.1,0-0.2,0.1-0.2,0.1c-0.1,0-0.1,0.1-0.2,0.2C40.1,86,40.1,86,40,86.1c0,0,0,0,0,0c0,0-0.1,0.1-0.1,0.1
				c-0.2,0.2-0.4,0.4-0.6,0.5c-0.2,0.1-0.3,0.3-0.5,0.4c-0.1,0-0.1,0.1-0.2,0.1c-0.1,0-0.1,0.1-0.2,0.1c-0.1-0.1-0.1-0.2-0.1-0.3
				c0-0.1,0-0.2,0-0.4c0-0.1,0-0.1,0-0.2c0-0.1,0-0.1,0-0.2c0-0.1,0-0.1,0-0.2c0,0-0.1-0.1-0.1-0.1c-0.1,0-0.1,0-0.2,0.1
				c0,0-0.1,0.1-0.1,0.1c0,0.1-0.1,0.1-0.1,0.2c0,0.1-0.1,0.1-0.1,0.2c0,0.1-0.1,0.1-0.1,0.2c0,0.1-0.1,0.1-0.1,0.2
				c0,0.1-0.1,0.1-0.1,0.2c0,0.1-0.1,0.1-0.1,0.1c0-0.3,0.1-0.6,0.1-0.8c0.1-0.3,0.1-0.5,0.2-0.8c0-0.1,0-0.2,0.1-0.3
				c0-0.1,0-0.2-0.1-0.3c0,0,0,0-0.1,0c0,0-0.1,0-0.1,0c-0.1,0.1-0.2,0.2-0.3,0.3c-0.1,0.1-0.2,0.2-0.3,0.3
				c-0.1,0.1-0.2,0.2-0.2,0.4c-0.1,0.1-0.2,0.2-0.3,0.3c0-0.1,0-0.2,0.1-0.3c0.1-0.1,0.1-0.2,0.1-0.3c0-0.1-0.1-0.1-0.1-0.1
				c0,0-0.1,0-0.1,0.1c0,0,0,0.1-0.1,0.2c0,0.1,0,0.1-0.1,0.1c-0.1,0.2-0.2,0.4-0.2,0.5c-0.1,0.1-0.1,0.3-0.2,0.4
				c0,0.1-0.1,0.2-0.1,0.3c0,0.1,0,0.2-0.1,0.3c0,0,0,0.1,0,0.1c0,0,0,0,0.1,0c0.1,0,0.1,0,0.1-0.1s0.1-0.1,0.1-0.2
				c0.2-0.4,0.5-0.7,0.7-1.1c0.2-0.4,0.5-0.7,0.8-1c0,0.2-0.1,0.4-0.1,0.6c-0.1,0.2-0.1,0.5-0.2,0.7c0,0.2-0.1,0.4-0.1,0.6
				c0,0.2,0,0.2,0.1,0.3c0.1,0,0.1,0,0.2-0.1c0.1-0.1,0.1-0.1,0.1-0.2c0.1-0.2,0.2-0.3,0.4-0.5c0.1-0.2,0.2-0.3,0.4-0.5
				c0,0.1,0,0.2,0,0.4c0,0.2,0,0.3,0,0.4c0,0.1,0,0.2,0.1,0.3c0.1,0.1,0.2,0.1,0.3,0c0.2-0.1,0.4-0.2,0.6-0.4
				c0.2-0.2,0.4-0.3,0.6-0.5c0,0,0,0,0,0c0,0.1-0.1,0.1-0.1,0.2c0,0.1-0.1,0.2-0.1,0.3c0,0.1,0,0.2,0,0.3c0,0.1,0.1,0.2,0.1,0.2
				c0.1,0.1,0.2,0.1,0.4,0.1s0.3-0.1,0.4-0.1c0.1-0.1,0.3-0.2,0.4-0.2c0.1-0.1,0.3-0.2,0.4-0.3c0.2-0.1,0.3-0.2,0.4-0.3
				c0.1-0.1,0.3-0.2,0.4-0.3c0,0,0.1-0.1,0.2-0.1c0,0,0,0,0,0c0,0,0,0,0.1,0c0.1,0,0.1,0,0.2,0c0.1,0,0.1,0,0.2,0
				c0,0.1-0.1,0.2-0.1,0.3c-0.1,0.1-0.1,0.3-0.2,0.4c-0.1,0.1-0.1,0.3-0.1,0.4c0,0.1,0,0.2,0.1,0.3c0.1,0,0.1,0.1,0.2,0
				c0.2-0.1,0.3-0.2,0.5-0.3c0.2-0.1,0.3-0.3,0.5-0.4c0.2-0.1,0.3-0.3,0.5-0.4c0.1-0.1,0.2-0.2,0.3-0.2c0,0,0,0,0,0
				c0,0,0,0.1-0.1,0.1c0,0.1-0.1,0.2-0.1,0.3c0,0.1-0.1,0.2-0.1,0.3c0,0.1,0,0.2,0,0.3c0,0.1,0.1,0.1,0.2,0.2c0.1,0,0.2,0,0.3-0.1
				c0.1-0.1,0.2-0.1,0.3-0.2c0.2-0.1,0.4-0.3,0.6-0.4c0.2-0.1,0.4-0.3,0.6-0.4c0,0,0,0.1-0.1,0.1c-0.1,0.2-0.2,0.4-0.1,0.6
				c0,0.3,0.1,0.4,0.3,0.6c0.2,0.1,0.3,0.1,0.5,0c0.2-0.1,0.3-0.1,0.5-0.3c0.2-0.1,0.4-0.3,0.6-0.5c0.2-0.1,0.4-0.3,0.6-0.4
				c0,0.1-0.1,0.1-0.1,0.2c-0.1,0.1-0.1,0.2-0.1,0.4c0,0.1,0.1,0.1,0.1,0.1l0.1,0c0.1,0,0.2,0,0.3-0.1s0.1-0.1,0.2-0.2
				c0.1-0.1,0.1-0.2,0.1-0.2c0-0.1,0.1-0.2,0.1-0.3c0.2,0.1,0.4,0.1,0.7,0c0.2,0,0.4-0.1,0.6-0.2c0,0,0.1,0,0.1,0
				C50.8,86.2,50.8,86.2,50.8,86.1C50.8,86.1,50.8,86.1,50.8,86.1z M40.3,86c0.1-0.1,0.1-0.1,0.2-0.2C40.5,85.9,40.5,86,40.3,86
				c0,0.1-0.1,0.2-0.1,0.2C40.2,86.1,40.3,86.1,40.3,86z M42.6,86c-0.1,0-0.1,0-0.1,0c0-0.1,0.1-0.2,0.1-0.3
				c0.1-0.1,0.2-0.1,0.2-0.2h0c0,0.1,0,0.2-0.1,0.3C42.7,85.8,42.6,85.9,42.6,86z M49,86.7c-0.1,0.1-0.2,0.2-0.3,0.3
				c0-0.1,0-0.3,0.1-0.4c0.1-0.1,0.1-0.2,0.2-0.3c0,0.1,0,0.1,0.1,0.1c0,0,0,0,0.1,0c0,0,0,0,0,0C49.1,86.4,49.1,86.6,49,86.7z"/>
		</g>
		<path class="st1" d="M37.6,84.4C37.5,84.4,37.5,84.4,37.6,84.4c-0.1-0.1-0.1-0.1-0.2-0.1c-0.1,0-0.2,0-0.2,0c-0.1,0-0.1,0-0.2,0
			c-0.2,0-0.5,0.1-0.7,0.1c-0.2,0-0.4,0.1-0.6,0.1c0.1-0.3,0.2-0.6,0.4-0.9c0.1-0.3,0.3-0.6,0.4-1c0,0,0-0.1,0-0.2
			c0-0.1,0-0.1,0-0.2l0,0c0,0-0.1-0.1-0.1,0c-0.1,0-0.1,0.1-0.2,0.1c-0.1,0-0.1,0.1-0.2,0.1c-0.2,0.1-0.3,0.3-0.5,0.5
			c-0.2,0.2-0.3,0.3-0.4,0.5c-0.2,0.2-0.4,0.4-0.6,0.7c-0.2,0.2-0.4,0.4-0.6,0.7c-0.2,0-0.4,0.1-0.7,0.1c-0.2,0-0.5,0.1-0.7,0.1
			c-0.2,0-0.4,0.1-0.6,0.1c-0.2,0-0.3,0-0.3,0c0,0,0,0,0,0c0,0,0,0-0.1,0c0,0-0.1,0-0.1,0.1c0,0,0,0.1,0,0.2l0,0l0,0
			c0.1,0,0.1,0,0.1,0c0,0,0,0,0,0c0.1,0,0.2,0,0.3,0c0.1,0,0.2,0,0.4-0.1c0.2,0,0.4-0.1,0.6-0.1c0.2,0,0.5-0.1,0.9-0.2
			c-0.3,0.4-0.6,0.7-0.8,1.1c-0.3,0.4-0.5,0.7-0.7,1c-0.2,0.3-0.4,0.5-0.5,0.8c-0.1,0.2-0.2,0.3-0.3,0.4c0,0-0.1,0-0.1,0
			c0,0-0.1,0.1-0.1,0.1c0,0.1,0,0.1,0.1,0.1c0,0,0.1,0,0.1,0c0,0,0.1,0,0.1,0c0,0,0,0,0.1,0l0,0c0,0,0,0,0-0.1c0,0,0,0,0,0
			c0.2-0.3,0.4-0.6,0.6-0.8c0.2-0.3,0.4-0.6,0.6-0.9c0.2-0.3,0.4-0.6,0.6-0.8c0.2-0.3,0.4-0.5,0.6-0.8c0.2,0,0.5-0.1,0.7-0.1
			c0.2,0,0.5-0.1,0.7-0.1c-0.1,0.4-0.3,0.8-0.4,1.2c-0.2,0.4-0.3,0.9-0.4,1.4c0,0.1,0,0.3-0.1,0.4c0,0.1,0,0.3,0,0.4
			c0,0,0,0.1,0,0.1c0,0.1,0,0.1,0.1,0.1c0,0,0.1,0,0.1,0c0,0,0.1,0,0.1-0.1c0,0,0-0.1,0-0.1c0,0,0-0.1,0-0.1c0,0,0,0-0.1,0
			c0,0,0,0,0,0c0-0.2,0-0.3,0-0.5c0-0.2,0-0.3,0.1-0.5c0-0.2,0.1-0.4,0.1-0.7c0.1-0.2,0.1-0.4,0.2-0.6c0.1-0.2,0.1-0.4,0.2-0.6
			c0.1-0.2,0.1-0.4,0.2-0.6c0.2,0,0.4-0.1,0.7-0.1c0.2,0,0.5,0,0.7-0.1c0.1,0,0.1,0,0.2,0c0.1,0,0.1,0,0.2,0c0,0,0,0,0,0
			c0,0,0,0,0,0.1l0,0c0.1,0,0.1,0,0.1,0C37.5,84.5,37.5,84.5,37.6,84.4L37.6,84.4L37.6,84.4z M35.7,83.9c0,0,0,0.1-0.1,0.1
			c0,0.1-0.1,0.1-0.1,0.2c0,0.1-0.1,0.2-0.1,0.3c-0.2,0-0.5,0.1-0.7,0.1c-0.2,0-0.4,0.1-0.7,0.1c0,0,0,0,0,0c0,0,0,0,0,0
			c0,0,0,0,0,0l0,0l0,0c0,0,0.1-0.1,0.2-0.2c0.1-0.1,0.2-0.3,0.3-0.4c0.1-0.2,0.3-0.3,0.4-0.5c0.2-0.2,0.3-0.3,0.5-0.5
			c0.2-0.2,0.3-0.3,0.4-0.4c0.1-0.1,0.2-0.2,0.3-0.2c0,0,0,0,0,0c0,0.1,0,0.2-0.1,0.2c0,0.1-0.1,0.2-0.1,0.2
			c-0.1,0.2-0.2,0.4-0.2,0.5c0,0.1-0.1,0.2-0.1,0.3C35.8,83.8,35.7,83.9,35.7,83.9z"/>
	</g>
</g>
<g>
	<g>
		<path class="st1" d="M266.7,86.4c0.6,0.3,1,0.7,1.3,1.3s0.5,1.2,0.5,2c0,0.8-0.2,1.4-0.5,2c-0.3,0.6-0.8,1-1.3,1.4
			c-0.6,0.3-1.2,0.5-1.9,0.5c-0.7,0-1.4-0.1-1.9-0.4c-0.6-0.3-1-0.7-1.3-1.3c-0.3-0.6-0.5-1.2-0.5-2c0-0.8,0.2-1.4,0.5-2
			c0.3-0.6,0.7-1,1.3-1.4c0.6-0.3,1.2-0.5,1.9-0.5C265.5,86,266.1,86.1,266.7,86.4z M263.4,86.7c-0.4,0.3-0.7,0.7-0.9,1.3
			c-0.2,0.5-0.3,1.2-0.3,1.9c0,0.7,0.1,1.3,0.3,1.9c0.2,0.5,0.5,1,0.9,1.3c0.4,0.3,0.8,0.4,1.3,0.4c0.5,0,0.9-0.2,1.3-0.5
			c0.4-0.3,0.7-0.7,0.9-1.3c0.2-0.5,0.3-1.2,0.3-1.9c0-0.7-0.1-1.3-0.3-1.9s-0.5-1-0.9-1.3c-0.4-0.3-0.8-0.4-1.3-0.4
			C264.2,86.2,263.8,86.4,263.4,86.7z"/>
		<path class="st1" d="M272,86.5c-0.1,0.1-0.2,0.1-0.3,0.3c0,0.1-0.1,0.4-0.1,0.7v4.7c0,0.3,0,0.5,0.1,0.7c0,0.1,0.1,0.2,0.3,0.3
			c0.1,0,0.3,0.1,0.6,0.1h0.8c0.6,0,1-0.2,1.3-0.5c0.3-0.3,0.5-0.9,0.6-1.6h0.3c0,0.2,0,0.6,0,1c0,0.4,0,0.9,0.1,1.4
			c-0.5,0-1.4,0-2.6,0c-1.5,0-2.6,0-3.4,0v-0.2c0.3,0,0.5,0,0.6-0.1c0.1-0.1,0.2-0.1,0.3-0.3c0-0.1,0.1-0.4,0.1-0.7v-4.7
			c0-0.3,0-0.5-0.1-0.7c0-0.1-0.1-0.2-0.3-0.3c-0.1-0.1-0.3-0.1-0.6-0.1v-0.2c0.3,0,0.8,0,1.5,0c0.6,0,1.2,0,1.5,0v0.2
			C272.3,86.4,272.1,86.4,272,86.5z"/>
		<path class="st1" d="M278.9,86.5c-0.1,0.1-0.2,0.1-0.3,0.3c0,0.1-0.1,0.4-0.1,0.7v4.7c0,0.3,0,0.5,0.1,0.7c0,0.1,0.1,0.2,0.3,0.3
			c0.1,0.1,0.3,0.1,0.6,0.1v0.2c-0.4,0-0.9,0-1.5,0c-0.7,0-1.2,0-1.5,0v-0.2c0.3,0,0.5,0,0.6-0.1c0.1-0.1,0.2-0.1,0.3-0.3
			c0-0.1,0.1-0.4,0.1-0.7v-4.7c0-0.3,0-0.5-0.1-0.7c0-0.1-0.1-0.2-0.3-0.3c-0.1-0.1-0.3-0.1-0.6-0.1v-0.2c0.3,0,0.8,0,1.5,0
			c0.6,0,1.2,0,1.5,0v0.2C279.2,86.4,279,86.4,278.9,86.5z"/>
		<path class="st1" d="M289.1,86.5c-0.1,0.1-0.2,0.1-0.3,0.3c0,0.1-0.1,0.4-0.1,0.7v4.7c0,0.3,0,0.5,0.1,0.7c0,0.1,0.1,0.2,0.3,0.3
			c0.1,0.1,0.3,0.1,0.6,0.1v0.2c-0.4,0-0.9,0-1.5,0c-0.7,0-1.2,0-1.5,0v-0.2c0.3,0,0.5,0,0.6-0.1c0.1-0.1,0.2-0.1,0.3-0.3
			c0-0.1,0.1-0.4,0.1-0.7v-5.3l-2.9,6.6h-0.2l-2.8-6.6V92c0,0.3,0,0.5,0.1,0.7c0.1,0.2,0.2,0.3,0.3,0.3c0.1,0.1,0.4,0.1,0.7,0.1v0.2
			c-0.3,0-0.7,0-1.2,0c-0.5,0-0.8,0-1.1,0v-0.2c0.3,0,0.5-0.1,0.6-0.1c0.1-0.1,0.2-0.2,0.3-0.3c0.1-0.2,0.1-0.4,0.1-0.7v-4.6
			c0-0.3,0-0.5-0.1-0.7c0-0.1-0.1-0.2-0.3-0.3c-0.1-0.1-0.3-0.1-0.6-0.1v-0.2c0.3,0,0.6,0,1.1,0c0.4,0,0.7,0,1,0L285,92l2.6-5.8h0.6
			c0.6,0,1.1,0,1.5,0v0.2C289.4,86.4,289.2,86.4,289.1,86.5z"/>
		<path class="st1" d="M292.8,92.2c0,0.3,0,0.5,0.1,0.7c0,0.1,0.1,0.2,0.3,0.3c0.1,0.1,0.3,0.1,0.6,0.1v0.2c-0.4,0-0.9,0-1.5,0
			c-0.7,0-1.2,0-1.5,0v-0.2c0.3,0,0.5,0,0.6-0.1c0.1-0.1,0.2-0.1,0.3-0.3c0-0.1,0.1-0.4,0.1-0.7v-4.7c0-0.3,0-0.5-0.1-0.7
			c0-0.1-0.1-0.2-0.3-0.3c-0.1-0.1-0.3-0.1-0.6-0.1v-0.2c0.3,0,0.8,0,1.5,0c0.1,0,0.6,0,1.3,0l0.5,0c0.6,0,1.1,0.1,1.5,0.3
			c0.4,0.2,0.7,0.4,0.9,0.7c0.2,0.3,0.3,0.6,0.3,1c0,0.4-0.1,0.7-0.3,1.1c-0.2,0.4-0.5,0.6-1,0.9c-0.5,0.2-1,0.3-1.8,0.3h-0.8V92.2z
			 M293.1,86.5c-0.1,0.1-0.2,0.2-0.3,0.3c0,0.1-0.1,0.4-0.1,0.6v2.8h0.7c0.7,0,1.3-0.2,1.5-0.5c0.3-0.3,0.4-0.8,0.4-1.4
			c0-0.6-0.1-1.1-0.4-1.4c-0.3-0.3-0.7-0.5-1.3-0.5C293.4,86.4,293.2,86.4,293.1,86.5z"/>
		<path class="st1" d="M299.9,86.5c-0.1,0.1-0.2,0.1-0.3,0.3c0,0.1-0.1,0.4-0.1,0.7v4.7c0,0.3,0,0.5,0.1,0.7c0,0.1,0.1,0.2,0.3,0.3
			c0.1,0.1,0.3,0.1,0.6,0.1v0.2c-0.4,0-0.9,0-1.5,0c-0.7,0-1.2,0-1.5,0v-0.2c0.3,0,0.5,0,0.6-0.1c0.1-0.1,0.2-0.1,0.3-0.3
			c0-0.1,0.1-0.4,0.1-0.7v-4.7c0-0.3,0-0.5-0.1-0.7c0-0.1-0.1-0.2-0.3-0.3c-0.1-0.1-0.3-0.1-0.6-0.1v-0.2c0.3,0,0.8,0,1.5,0
			c0.6,0,1.2,0,1.5,0v0.2C300.2,86.4,300,86.4,299.9,86.5z"/>
		<path class="st1" d="M308.5,93.2v0.2c-0.3,0-0.8,0-1.3,0c-0.7,0-1.2,0-1.5,0v-0.2c0.3,0,0.5,0,0.7-0.1c0.1-0.1,0.2-0.2,0.2-0.3
			c0-0.1-0.1-0.3-0.2-0.6l-0.6-1.4h-2.9l-0.4,0.9c-0.1,0.3-0.2,0.6-0.2,0.8c0,0.4,0.3,0.7,0.9,0.7v0.2c-0.2,0-0.6,0-1.1,0
			c-0.5,0-0.8,0-1,0v-0.2c0.2-0.1,0.4-0.2,0.5-0.4c0.2-0.2,0.3-0.4,0.4-0.7l2.6-6h0.2l2.8,6.3C307.8,92.9,308.1,93.2,308.5,93.2z
			 M304.3,87.5l-1.4,3h2.7L304.3,87.5z"/>
	</g>
	<g>
		<path class="st1" d="M266.7,96.8C266.7,96.9,266.7,96.9,266.7,96.8C266.7,96.9,266.7,96.9,266.7,96.8c-0.1,0-0.1,0-0.1,0
			c0,0-0.1,0-0.1-0.1c0,0-0.1,0-0.1-0.1c-0.1,0-0.1,0-0.2,0c-0.1,0-0.1,0-0.2,0c-0.1,0-0.1,0-0.1,0.1c0,0-0.1,0.1-0.1,0.1
			c0,0,0,0.1,0,0.1c0,0.1,0,0.1,0,0.2c0,0,0.1,0.1,0.1,0.1c0.1,0,0.1,0.1,0.2,0.1c0.1,0,0.1,0,0.2,0.1c0.1,0,0.1,0.1,0.2,0.1
			c0.1,0,0.1,0.1,0.2,0.1c0.1,0,0.1,0.1,0.1,0.2c0,0.1,0,0.2,0,0.2c0,0.1,0,0.2-0.1,0.3c0,0.1-0.1,0.2-0.2,0.2
			c-0.1,0.1-0.2,0.1-0.3,0.2c-0.1,0-0.2,0.1-0.3,0.1c-0.2,0-0.3,0-0.4-0.1c-0.1-0.1-0.2-0.1-0.3-0.2l0.1-0.2c0,0,0,0,0,0s0,0,0,0
			c0,0,0,0,0,0c0,0,0,0,0.1,0s0,0,0.1,0.1c0,0,0.1,0,0.1,0.1c0,0,0.1,0,0.1,0s0.1,0,0.2,0c0.1,0,0.1,0,0.2,0c0.1,0,0.1-0.1,0.2-0.1
			c0,0,0.1-0.1,0.1-0.1c0-0.1,0-0.1,0-0.2c0-0.1,0-0.1,0-0.2c0,0-0.1-0.1-0.1-0.1c-0.1,0-0.1-0.1-0.2-0.1c-0.1,0-0.1,0-0.2-0.1
			c-0.1,0-0.1,0-0.2-0.1c-0.1,0-0.1-0.1-0.2-0.1c-0.1,0-0.1-0.1-0.1-0.2s0-0.2,0-0.3c0-0.1,0-0.2,0-0.2s0.1-0.1,0.1-0.2
			c0.1-0.1,0.1-0.1,0.2-0.1c0.1,0,0.2-0.1,0.3-0.1c0.1,0,0.3,0,0.4,0.1c0.1,0,0.2,0.1,0.3,0.2L266.7,96.8z"/>
		<path class="st1" d="M270.3,96.7h-0.8v2.1h-0.3v-2.1h-0.8v-0.3h1.9V96.7z"/>
		<path class="st1" d="M274.3,97.7c0,0.2,0,0.3-0.1,0.5c-0.1,0.1-0.1,0.3-0.2,0.4c-0.1,0.1-0.2,0.2-0.4,0.3
			c-0.1,0.1-0.3,0.1-0.5,0.1s-0.3,0-0.5-0.1c-0.1-0.1-0.3-0.1-0.4-0.3c-0.1-0.1-0.2-0.2-0.2-0.4s-0.1-0.3-0.1-0.5
			c0-0.2,0-0.3,0.1-0.5c0.1-0.1,0.1-0.3,0.2-0.4s0.2-0.2,0.4-0.3c0.1-0.1,0.3-0.1,0.5-0.1s0.3,0,0.5,0.1s0.3,0.1,0.4,0.3
			s0.2,0.2,0.2,0.4C274.2,97.3,274.3,97.5,274.3,97.7z M273.9,97.7c0-0.1,0-0.3-0.1-0.4c0-0.1-0.1-0.2-0.2-0.3
			c-0.1-0.1-0.2-0.1-0.3-0.2c-0.1,0-0.2-0.1-0.3-0.1c-0.1,0-0.2,0-0.3,0.1c-0.1,0-0.2,0.1-0.3,0.2c-0.1,0.1-0.1,0.2-0.2,0.3
			c0,0.1-0.1,0.2-0.1,0.4c0,0.1,0,0.3,0.1,0.4c0,0.1,0.1,0.2,0.2,0.3c0.1,0.1,0.2,0.1,0.3,0.2c0.1,0,0.2,0.1,0.3,0.1
			c0.1,0,0.2,0,0.3-0.1c0.1,0,0.2-0.1,0.3-0.2c0.1-0.1,0.1-0.2,0.2-0.3C273.9,97.9,273.9,97.8,273.9,97.7z"/>
		<path class="st1" d="M277.9,98.9h-0.3c-0.1,0-0.1,0-0.1-0.1l-0.6-0.9c0,0,0,0-0.1-0.1c0,0-0.1,0-0.1,0h-0.2v1h-0.3v-2.4h0.7
			c0.2,0,0.3,0,0.4,0c0.1,0,0.2,0.1,0.3,0.1c0.1,0.1,0.1,0.1,0.2,0.2c0,0.1,0.1,0.2,0.1,0.3c0,0.1,0,0.2,0,0.2s-0.1,0.1-0.1,0.2
			c-0.1,0.1-0.1,0.1-0.2,0.1c-0.1,0-0.2,0.1-0.2,0.1c0,0,0.1,0.1,0.1,0.1L277.9,98.9z M276.8,97.6c0.1,0,0.2,0,0.2,0
			s0.1-0.1,0.2-0.1c0,0,0.1-0.1,0.1-0.1c0-0.1,0-0.1,0-0.2c0-0.1,0-0.2-0.1-0.3c-0.1-0.1-0.2-0.1-0.4-0.1h-0.4v0.9H276.8z"/>
		<path class="st1" d="M281.1,98.6l0,0.3h-1.5v-2.4h1.5v0.3h-1.1v0.8h0.9v0.3h-0.9v0.8H281.1z"/>
		<path class="st1" d="M287.2,98.9h-0.3c0,0-0.1,0-0.1,0c0,0,0,0-0.1,0l-0.2-0.2c-0.1,0.1-0.2,0.2-0.4,0.2c-0.1,0.1-0.3,0.1-0.4,0.1
			c-0.1,0-0.2,0-0.3,0c-0.1,0-0.2-0.1-0.2-0.1c-0.1-0.1-0.1-0.1-0.2-0.2s-0.1-0.2-0.1-0.3c0-0.1,0-0.2,0-0.2c0-0.1,0.1-0.1,0.1-0.2
			c0-0.1,0.1-0.1,0.2-0.2c0.1,0,0.1-0.1,0.2-0.1c-0.1-0.1-0.1-0.2-0.1-0.3c0-0.1,0-0.2,0-0.3c0-0.1,0-0.2,0-0.2
			c0-0.1,0.1-0.1,0.1-0.2c0.1-0.1,0.1-0.1,0.2-0.1c0.1,0,0.2,0,0.3,0c0.1,0,0.2,0,0.2,0c0.1,0,0.1,0.1,0.2,0.1
			c0.1,0,0.1,0.1,0.1,0.2c0,0.1,0,0.1,0.1,0.2l-0.2,0c0,0-0.1,0-0.1-0.1c0,0,0-0.1,0-0.1s0-0.1-0.1-0.1c0,0-0.1,0-0.1-0.1
			c0,0-0.1,0-0.1,0c-0.1,0-0.1,0-0.2,0c0,0-0.1,0-0.1,0.1c0,0-0.1,0.1-0.1,0.1c0,0,0,0.1,0,0.1c0,0,0,0.1,0,0.1c0,0,0,0.1,0,0.1
			c0,0,0,0.1,0.1,0.1c0,0,0.1,0.1,0.1,0.1l0.7,0.7c0-0.1,0.1-0.2,0.1-0.2c0-0.1,0-0.2,0-0.2c0,0,0,0,0,0c0,0,0,0,0,0h0.2
			c0,0.1,0,0.3-0.1,0.4c0,0.1-0.1,0.2-0.2,0.3L287.2,98.9z M285.7,97.7c-0.1,0.1-0.2,0.1-0.3,0.2c-0.1,0.1-0.1,0.2-0.1,0.3
			c0,0.1,0,0.1,0,0.2c0,0.1,0.1,0.1,0.1,0.1c0,0,0.1,0.1,0.1,0.1c0.1,0,0.1,0,0.2,0c0.1,0,0.2,0,0.3-0.1c0.1,0,0.2-0.1,0.3-0.2
			L285.7,97.7z"/>
		<path class="st1" d="M293.2,97.7c0,0.2,0,0.3-0.1,0.5c-0.1,0.1-0.1,0.3-0.2,0.4c-0.1,0.1-0.2,0.2-0.4,0.2
			c-0.1,0.1-0.3,0.1-0.5,0.1h-0.9v-2.4h0.9c0.2,0,0.3,0,0.5,0.1c0.1,0.1,0.3,0.1,0.4,0.2c0.1,0.1,0.2,0.2,0.2,0.4
			C293.2,97.3,293.2,97.5,293.2,97.7z M292.9,97.7c0-0.1,0-0.3-0.1-0.4c0-0.1-0.1-0.2-0.2-0.3c-0.1-0.1-0.2-0.1-0.3-0.2
			c-0.1,0-0.2-0.1-0.3-0.1h-0.6v1.9h0.6c0.1,0,0.2,0,0.3-0.1c0.1,0,0.2-0.1,0.3-0.2c0.1-0.1,0.1-0.2,0.2-0.3
			C292.9,97.9,292.9,97.8,292.9,97.7z"/>
		<path class="st1" d="M296.6,98.6l0,0.3h-1.5v-2.4h1.5v0.3h-1.1v0.8h0.9v0.3h-0.9v0.8H296.6z"/>
		<path class="st1" d="M300.1,98.4C300.1,98.4,300.1,98.4,300.1,98.4l0.2,0.2c-0.1,0.1-0.2,0.2-0.4,0.3c-0.1,0.1-0.3,0.1-0.5,0.1
			c-0.2,0-0.3,0-0.5-0.1c-0.1-0.1-0.3-0.1-0.4-0.2c-0.1-0.1-0.2-0.2-0.2-0.4c-0.1-0.1-0.1-0.3-0.1-0.5c0-0.2,0-0.3,0.1-0.5
			c0.1-0.1,0.1-0.3,0.2-0.4c0.1-0.1,0.2-0.2,0.4-0.3s0.3-0.1,0.5-0.1c0.2,0,0.3,0,0.4,0.1c0.1,0.1,0.2,0.1,0.3,0.2l-0.1,0.1
			c0,0,0,0,0,0c0,0,0,0,0,0c0,0,0,0-0.1,0c0,0-0.1,0-0.1-0.1c0,0-0.1-0.1-0.2-0.1c-0.1,0-0.2,0-0.3,0c-0.1,0-0.2,0-0.3,0.1
			s-0.2,0.1-0.3,0.2c-0.1,0.1-0.1,0.2-0.2,0.3c0,0.1-0.1,0.2-0.1,0.4c0,0.1,0,0.3,0.1,0.4c0,0.1,0.1,0.2,0.2,0.3
			c0.1,0.1,0.2,0.1,0.3,0.2c0.1,0,0.2,0.1,0.3,0.1c0.1,0,0.1,0,0.2,0s0.1,0,0.2,0c0,0,0.1,0,0.1-0.1C299.9,98.5,300,98.4,300.1,98.4
			C300,98.4,300.1,98.4,300.1,98.4z"/>
		<path class="st1" d="M304.2,97.7c0,0.2,0,0.3-0.1,0.5c-0.1,0.1-0.1,0.3-0.2,0.4c-0.1,0.1-0.2,0.2-0.4,0.3
			c-0.1,0.1-0.3,0.1-0.5,0.1s-0.3,0-0.5-0.1c-0.1-0.1-0.3-0.1-0.4-0.3c-0.1-0.1-0.2-0.2-0.2-0.4c-0.1-0.1-0.1-0.3-0.1-0.5
			c0-0.2,0-0.3,0.1-0.5c0.1-0.1,0.1-0.3,0.2-0.4s0.2-0.2,0.4-0.3c0.1-0.1,0.3-0.1,0.5-0.1s0.3,0,0.5,0.1c0.1,0.1,0.3,0.1,0.4,0.3
			s0.2,0.2,0.2,0.4C304.2,97.3,304.2,97.5,304.2,97.7z M303.9,97.7c0-0.1,0-0.3-0.1-0.4c0-0.1-0.1-0.2-0.2-0.3
			c-0.1-0.1-0.2-0.1-0.3-0.2c-0.1,0-0.2-0.1-0.3-0.1c-0.1,0-0.2,0-0.3,0.1c-0.1,0-0.2,0.1-0.3,0.2c-0.1,0.1-0.1,0.2-0.2,0.3
			c0,0.1-0.1,0.2-0.1,0.4c0,0.1,0,0.3,0.1,0.4c0,0.1,0.1,0.2,0.2,0.3c0.1,0.1,0.2,0.1,0.3,0.2c0.1,0,0.2,0.1,0.3,0.1
			c0.1,0,0.2,0,0.3-0.1c0.1,0,0.2-0.1,0.3-0.2c0.1-0.1,0.1-0.2,0.2-0.3C303.9,97.9,303.9,97.8,303.9,97.7z"/>
	</g>
	<g>
		<path class="st1" d="M286.1,77.2c0,0,0.1-0.1,0.1-0.1c0,0,0-0.1,0-0.1c0,0,0-0.2,0.1-0.1c0.1,0.1,0.1,0.2,0.2,0.2
			c0.1,0,0.2,0.1,0.2,0.2c0,0.1-0.1,0-0.1,0c-0.1,0-0.2,0.3-0.2,0.3s-0.4,0.6-0.5,0.8c-0.1,0.2-0.5,1-0.6,1.3s-0.2,0.7-0.3,0.8
			c0,0.1-0.1,0.1-0.2,0.1c-0.1,0-0.2-0.1-0.1-0.2s0.5-1.2,0.7-1.6S285.7,77.8,286.1,77.2z"/>
		<path class="st1" d="M282.2,74.8c0,0,0.3-0.1,0.5-0.2s0.2,0,0.1,0.1c0,0.1,0,0.2,0,0.4c0.1,0.1,0.5,1,0.7,1.7
			c0.3,0.8,0.8,2.6,0.9,3.4c0.1,0.8,0.3,2.5,0.2,3.3c0,0,0,0.1-0.1,0.1c-0.1,0-0.2,0-0.2-0.1c0-0.1,0-1.5-0.1-2.3
			c-0.1-0.8-0.5-2.9-0.9-3.9c-0.4-1-0.5-1.4-0.8-2c-0.1-0.2-0.2-0.3-0.3-0.3C282.2,75,282,74.9,282.2,74.8z"/>
		<path class="st1" d="M285.6,72.3c0,0,0.1,0.1,0.3,0.1c0.1,0,0.3,0.1,0.3,0.1s-0.1,0.1-0.1,0.1c0,0-0.1,0.1-0.1,0.2
			c0,0.1-0.2,0.9-0.3,1c0,0.1-0.2,0.7-0.2,0.9c0,0.2-0.2,0.8-0.2,1c0,0.1-0.1,0.5-0.1,0.7c0,0.2-0.1,0.7-0.1,0.9
			c0,0.2-0.1,0.8-0.1,0.9s-0.1,0.8-0.1,0.9s0,0.1-0.1,0.1s-0.2,0-0.2-0.1c0-0.1,0.1-1.1,0.1-1.2c0-0.1,0.2-1.5,0.2-1.6
			c0-0.1,0.4-2,0.5-2.2c0.1-0.2,0.3-1.1,0.3-1.2c0-0.1,0.1-0.2,0-0.3C285.5,72.4,285.5,72.3,285.6,72.3z"/>
		<path class="st1" d="M286.7,78c0.1,0,0.2,0.1,0.2,0.2c0,0.1,0.1,0.2,0.1,0.2c0,0,0.1,0.1,0.1,0.2c0,0,0,0.1-0.1,0.3
			s-0.1,0.2-0.1,0.2s0,0.1,0.1,0.1c0,0,0.1,0.1,0.1,0.2c0,0,0,0.1,0,0.1s0.1,0,0.1,0.2s0.1,0.1,0.1,0.1c0,0,0.1,0.1,0.1,0.3
			c0,0.2-0.1,0.3-0.4,0.4c-0.3,0.1-0.4,0.2-0.4,0.2s0.3,0,0.3,0.3c0,0.2-0.1,0.2,0,0.2c0.1,0,0.4,0.1,0.4,0.4s-0.4,0.4-0.6,0.4
			c-0.2,0-0.3,0-0.3,0.1c0,0.1,0.1,0.2,0.1,0.3s-0.1,0.3-0.4,0.3c-0.3,0-0.3,0-0.4,0.1c-0.1,0.1-0.1,0.1-0.2,0.2
			c-0.2,0.1-0.2,0.4-0.3,0.4c-0.1,0-0.7-1.6,0.7-2.6c0.7-0.7,0.6-0.9,0.5-1.5c-0.2-0.6-0.2-0.9,0.1-1.4
			C286.5,77.9,286.6,77.8,286.7,78C286.6,78,286.7,78,286.7,78z"/>
		<path class="st1" d="M279.5,75.2C279.5,75.2,279.4,75.1,279.5,75.2c-0.1-0.2,0-0.1,0.1-0.1c0.2,0,0.4,0.1,0.6,0.2
			c0.2,0.1,0.5,0.3,0.6,0.5c0.1,0.2,0.4,0.4,0.5,0.7c0.1,0.2,0.2,0.6,0.3,0.7s0.1,0.1,0.1,0.2c0,0.1,0.2,0.4,0.3,0.5
			c0.1,0.1,0.1,0.3,0.2,0.4s0.4,0.5,0.6,0.6c0.2,0.2,1,1.1,1.1,2.4c0.1,1.4-0.7,2.2-0.8,2.2s0-0.2,0-0.3c0-0.1,0-0.3,0-0.4
			c-0.1-0.1-0.2-0.3-0.2-0.4s0-0.3-0.3-0.3c-0.2-0.2-0.5-0.4-0.5-0.6c0-0.2,0.2-0.2,0.2-0.4s-0.9-0.4-0.9-0.9c0-0.4,0.5-0.3,0.5-0.4
			c0-0.1-0.1-0.2-0.1-0.3s-0.1-0.4,0.2-0.4c-0.1-0.2-0.1-0.2-0.7-0.4c-0.7-0.1-0.3-0.7-0.3-0.8c0-0.1-0.1-0.2-0.1-0.2
			c0-0.1,0-0.2,0-0.2c0-0.1-0.1-0.3-0.1-0.4c0-0.1-0.4-0.3-0.7-0.4c-0.3-0.1-0.3-0.2-0.3-0.4c-0.1-0.1-0.3-0.3-0.3-0.4
			S279.6,75.3,279.5,75.2z"/>
		<path class="st1" d="M283.8,74.7c-0.1,0,0-0.1,0-0.2c0.1-0.1,0.2-0.2,0.2-0.3c0-0.1,0-0.2,0-0.3c0-0.1,0.1-0.2,0-0.3
			c-0.1-0.1-0.2-0.4-0.3-0.5c0-0.1-0.1-0.2,0.1-0.3s0.2-0.1,0.1-0.2c-0.1-0.1-0.4-0.4-0.4-0.6s0.1-0.3,0.4-0.3c0.1,0,0-0.2,0.1-0.3
			c0-0.1,0-0.2,0.2-0.2c0-0.1,0-0.1-0.1-0.2c-0.1-0.1-0.6-0.1-0.6-0.5c0-0.1,0.1-0.2,0.1-0.3c0-0.1,0-0.1,0-0.1s0.1-0.2,0-0.3
			c-0.1-0.2,0-0.2-0.2-0.3c-0.2-0.1-0.4-0.1-0.4-0.2c-0.1-0.2-0.1-0.2-0.2-0.2c-0.1-0.1-0.2-0.2-0.2-0.3c0,0,0-0.1-0.1-0.1
			s-0.1-0.1,0.1-0.1c0.2,0,0.9,0.2,1.2,0.7c0.3,0.5,0.3,1.1,0.7,1.5c0.3,0.5,0.8,1.2,0.7,2.2c0,0-0.1,1.1-1.2,1.6
			C283.9,74.7,283.8,74.8,283.8,74.7z"/>
		<path class="st1" d="M280.7,70.7c0,0,0-0.2,0.1-0.2c0.1,0,0.4,0.1,0.5,0.2c0.1,0,0.4,0.1,0.4,0.2c0,0.1-0.1,0.3-0.1,0.4
			c0,0.1,0,0.1-0.1,0.1c-0.1,0-0.6-0.1-0.7-0.1C280.6,71.3,280.6,70.9,280.7,70.7z"/>
		<path class="st1" d="M281.8,70.9c0,0,0.1-0.2,0.1-0.2c0,0,0.1,0,0.4,0.2c0.2,0.2,0.3,0.3,0.2,0.4c-0.1,0-0.3,0.1-0.4,0.1
			c-0.2,0-0.4,0-0.4-0.1C281.7,71.2,281.8,70.9,281.8,70.9z"/>
		<path class="st1" d="M279.6,71.3c0,0,0-0.1,0.2-0.1c0.2,0,0.4,0.1,0.5,0.1c0.1,0,0.1,0.1,0.1,0.1c0,0.1-0.1,0.6-0.1,0.7
			c0,0.1-0.1,0.1-0.2,0.1s-0.4-0.1-0.5-0.1c0,0-0.1-0.1-0.1-0.1S279.6,71.3,279.6,71.3z"/>
		<path class="st1" d="M280.5,71.5c0,0,0-0.1,0.1-0.1s0.3,0,0.4,0.1c0.1,0,0.4,0,0.4,0.1c0,0.1-0.1,0.5-0.1,0.6c0,0.1,0,0.2-0.1,0.2
			s-0.8,0-0.8-0.1c-0.1,0-0.1,0-0.1-0.1C280.4,72,280.5,71.5,280.5,71.5z"/>
		<path class="st1" d="M281.6,71.5c0,0,0-0.1,0.1-0.1s0.4,0,0.6,0c0.1,0,0.2,0,0.2,0s0.1,0,0.1,0.1c0,0.1-0.1,0.3-0.1,0.5
			c0,0.2,0,0.3-0.1,0.3c-0.1,0-0.7,0.1-0.8,0.1s-0.1,0-0.1-0.1C281.5,72.1,281.6,71.5,281.6,71.5z"/>
		<path class="st1" d="M282.8,71.6c0,0,0-0.2,0.1-0.2s0.1,0.1,0.2,0.3c0.1,0.2,0.1,0.4,0.1,0.4c-0.1,0-0.3,0.1-0.4,0
			S282.7,71.7,282.8,71.6z"/>
		<path class="st1" d="M279.3,72.4c0,0-0.1-0.2,0.2-0.2c0.2,0,0.4,0.1,0.5,0.1s0.2,0,0.2,0.2c0,0.1,0,0.7,0,0.8c0,0.1-0.2,0.1-0.3,0
			c-0.1,0-0.2,0-0.3-0.1C279.5,73.1,279.3,72.8,279.3,72.4z"/>
		<path class="st1" d="M280.3,72.5c0,0,0-0.1,0.2-0.1c0.2,0,0.7,0.1,0.7,0.1s0.1,0,0.1,0.1c0,0.1,0,0.7,0,0.8c0,0,0,0.1-0.2,0.1
			s-0.8,0-0.8-0.1S280.3,72.5,280.3,72.5z"/>
		<path class="st1" d="M281.5,72.6c0,0,0-0.2,0.2-0.2c0.2,0,0.4,0,0.6,0s0.3,0,0.3,0.1c0,0.1,0,0.8,0,0.8s0,0.1-0.1,0.1
			c-0.1,0-0.7,0.1-0.8,0.1c-0.1,0-0.2,0-0.2-0.1S281.5,72.6,281.5,72.6z"/>
		<path class="st1" d="M282.6,72.5c0,0,0,0.6,0,0.7s0.3,0,0.4,0c0.1,0,0.2-0.2,0.2-0.3s0-0.4,0-0.5c0-0.1-0.3,0-0.4,0
			C282.8,72.3,282.6,72.4,282.6,72.5C282.6,72.5,282.6,72.5,282.6,72.5z"/>
		<path class="st1" d="M279.5,73.4c0,0,0.5,0.1,0.6,0.1c0.1,0,0.1,0,0.1,0.1s0,0.4,0,0.4s0,0.1-0.1,0C280,74,279.6,73.7,279.5,73.4
			C279.5,73.4,279.5,73.4,279.5,73.4z"/>
		<path class="st1" d="M280.3,73.6c0,0,0-0.1,0.1-0.1c0.2,0,0.4,0,0.6,0s0.3,0,0.3,0.1c0,0.1,0.1,0.8,0.1,0.8s0,0.1-0.1,0.1
			s-0.9-0.1-1-0.3C280.3,74.1,280.3,73.6,280.3,73.6z"/>
		<path class="st1" d="M281.5,73.7c0,0,0-0.2,0.1-0.2c0.2,0,0.3,0,0.5,0c0.2,0,0.4-0.1,0.4,0s0.1,0.5,0,0.6s-0.3,0.3-0.5,0.3
			c-0.2,0.1-0.5,0.2-0.5,0C281.5,74.3,281.5,73.7,281.5,73.7z"/>
		<path class="st1" d="M282.7,73.5c0,0,0-0.1,0.1-0.1c0.1,0,0.3-0.1,0.3-0.1c0,0.1-0.2,0.3-0.2,0.4c-0.1,0.1,0,0.1-0.2,0.1
			C282.6,73.8,282.7,73.6,282.7,73.5z"/>
		<path class="st1" d="M289.9,74.9c0,0,0.2,0,0.2,0.1s-0.2,0.4-0.2,0.5c0,0.1-0.1,0.4-0.2,0.4c-0.1,0-0.3-0.1-0.4-0.1
			s-0.1,0-0.1-0.1c0-0.1,0.1-0.6,0.1-0.7C289.4,74.8,289.7,74.9,289.9,74.9z"/>
		<path class="st1" d="M289.6,76c0,0,0.2,0.1,0.2,0.1s0,0.1-0.2,0.4c-0.2,0.2-0.4,0.3-0.4,0.2c0-0.1,0-0.3,0-0.4
			c0-0.2,0-0.4,0.1-0.4C289.4,75.9,289.6,76,289.6,76z"/>
		<path class="st1" d="M289.4,73.8c0,0,0.1,0,0.1,0.2c0,0.2-0.1,0.4-0.2,0.5c0,0.1-0.1,0.1-0.2,0.1s-0.6-0.2-0.7-0.2s0-0.1,0-0.2
			c0-0.1,0.1-0.4,0.1-0.5c0,0,0.1-0.1,0.1,0C288.8,73.7,289.4,73.8,289.4,73.8z"/>
		<path class="st1" d="M289.2,74.7c0,0,0.1,0,0.1,0.2c0,0.2-0.1,0.3-0.1,0.4s0,0.4-0.1,0.4c-0.1,0-0.5-0.1-0.6-0.1
			c-0.1,0-0.2,0-0.2-0.1c0-0.1,0.1-0.7,0.1-0.8c0-0.1,0-0.1,0.1-0.1S289.2,74.7,289.2,74.7z"/>
		<path class="st1" d="M289,75.8c0,0,0.1,0,0.1,0.1c0,0.1,0,0.4,0,0.6c0,0.1,0,0.1,0,0.2c0,0,0,0.1-0.1,0.1s-0.3-0.1-0.4-0.1
			c-0.1,0-0.3,0-0.3-0.1c0-0.1,0-0.7,0-0.8c0-0.1,0.1-0.1,0.1-0.1S289,75.8,289,75.8z"/>
		<path class="st1" d="M288.9,76.9c0,0,0.2,0,0.2,0.1s-0.1,0.1-0.3,0.1c-0.2,0-0.4,0.1-0.4,0c0-0.1-0.1-0.3,0-0.4
			C288.4,76.8,288.8,76.9,288.9,76.9z"/>
		<path class="st1" d="M288.4,73.4c0,0,0.2,0,0.1,0.2c-0.1,0.2-0.1,0.4-0.1,0.5c0,0.1-0.1,0.2-0.2,0.2c-0.1,0-0.7-0.1-0.8-0.1
			c-0.1,0,0-0.2,0-0.3c0-0.1,0.1-0.2,0.2-0.3C287.7,73.6,288,73.5,288.4,73.4z"/>
		<path class="st1" d="M288.2,74.4c0,0,0.1,0,0.1,0.2s-0.1,0.7-0.1,0.7c0,0.1,0,0.1-0.1,0.1c-0.1,0-0.7-0.1-0.8-0.1
			c0,0-0.1,0-0.1-0.2s0.1-0.8,0.2-0.8S288.2,74.4,288.2,74.4z"/>
		<path class="st1" d="M288,75.6c0,0,0.2,0,0.1,0.2c0,0.2,0,0.4,0,0.6c0,0.1,0,0.3-0.1,0.3c-0.1,0-0.8-0.1-0.8-0.1s-0.1,0-0.1-0.1
			c0-0.1,0-0.7,0-0.8s0.1-0.2,0.1-0.2S288,75.6,288,75.6z"/>
		<path class="st1" d="M288,76.7c0,0-0.5,0-0.7-0.1c-0.1,0-0.1,0.3,0,0.4c0,0.1,0.2,0.2,0.3,0.2s0.4,0,0.5,0s0.1-0.3,0-0.4
			C288.2,76.9,288.1,76.7,288,76.7C288,76.7,288,76.7,288,76.7z"/>
		<path class="st1" d="M287.4,73.6c0,0-0.1,0.5-0.1,0.6c0,0.1,0,0.1-0.1,0.1c-0.1,0-0.4,0-0.4,0c0,0-0.1,0,0-0.1
			C286.7,74,287,73.6,287.4,73.6C287.3,73.5,287.4,73.5,287.4,73.6z"/>
		<path class="st1" d="M287.1,74.4c0,0,0.1,0,0.1,0.1c0,0.2-0.1,0.4-0.1,0.6s0,0.3-0.1,0.3c-0.1,0-0.7,0-0.8,0
			c-0.1,0-0.1-0.1-0.1-0.1c0,0,0.1-0.9,0.4-0.9C286.6,74.3,287.1,74.4,287.1,74.4z"/>
		<path class="st1" d="M286.9,75.5c0,0,0.2,0,0.2,0.1c0,0.2,0,0.3,0,0.5s0,0.4,0,0.4s-0.5,0-0.5,0c-0.1-0.1-0.2-0.3-0.3-0.5
			c0-0.2-0.1-0.5,0-0.5C286.3,75.5,286.9,75.5,286.9,75.5z"/>
		<path class="st1" d="M287,76.7C287,76.7,287.1,76.7,287,76.7c0.1,0.2,0.2,0.4,0.1,0.4s-0.3-0.2-0.4-0.2c-0.1-0.1-0.1-0.1-0.1-0.2
			C286.7,76.6,287,76.7,287,76.7z"/>
		<path class="st1" d="M285.2,69.3l0.3,0.5c0,0,0,0.1,0,0.1l-0.3,0.4c0,0-0.1,0-0.1,0c-0.1-0.2-0.2-0.6,0-1
			C285.1,69.2,285.2,69.2,285.2,69.3z"/>
		<path class="st1" d="M285.3,69.2c0,0,0.1-0.3,0.3-0.5c0.2-0.3,0.4-0.5,0.4-0.4c0.1,0.1,0.4,0.7,0.4,0.8c0,0,0,0.1-0.1,0.1
			c-0.1,0.1-0.6,0.5-0.7,0.5c-0.1,0.1-0.1,0-0.2-0.1C285.5,69.5,285.3,69.3,285.3,69.2z"/>
		<path class="st1" d="M286.3,68.3c0,0,0.3-0.2,0.4-0.3c0.1-0.1,0.4-0.3,0.4-0.2c0.1,0.1,0.3,0.6,0.4,0.6c0,0.1,0,0.1-0.1,0.2
			c-0.1,0.1-0.6,0.3-0.7,0.4c0,0,0,0-0.1,0C286.6,68.8,286.3,68.4,286.3,68.3C286.3,68.3,286.3,68.3,286.3,68.3z"/>
		<path class="st1" d="M287.8,68.5"/>
		<path class="st1" d="M288.5,68.1l-0.7,0.4c0,0,0,0.1,0,0.1l0.6,0.8c0,0,0.1,0,0.1,0l0.5-0.2c0,0,0-0.1,0-0.1L288.5,68.1
			C288.6,68.1,288.5,68.1,288.5,68.1z"/>
		<path class="st1" d="M288.6,69.4l0.4-0.2c0.1,0,0.2,0,0.2,0.1c0,0.2,0.1,0.4,0,0.7c0,0.1-0.1,0.1-0.2,0.1
			c-0.1-0.1-0.4-0.4-0.6-0.5C288.6,69.5,288.6,69.5,288.6,69.4z"/>
		<path class="st1" d="M288.6,70.9l0.6-0.4c0,0,0.1,0,0.1,0.1c-0.1,0.2-0.2,0.5-0.3,0.6c0,0.1-0.1,0.1-0.2,0c-0.1,0-0.2-0.1-0.2-0.2
			C288.5,71,288.5,71,288.6,70.9z"/>
		<path class="st1" d="M287.2,72.2l0.3-0.3c0,0,0,0,0.1,0l0.3,0.2c0,0,0,0.1,0,0.1C287.7,72.2,287.5,72.3,287.2,72.2
			C287.2,72.3,287.2,72.2,287.2,72.2z"/>
		<path class="st1" d="M287.7,71.7l0.7-0.6c0,0,0.1,0,0.1,0l0.4,0.3c0,0,0,0.1,0,0.1c-0.1,0.1-0.4,0.4-0.7,0.6c0,0,0,0-0.1,0
			c-0.1,0-0.3-0.2-0.4-0.3C287.6,71.8,287.6,71.7,287.7,71.7z"/>
		<path class="st1" d="M285.8,71.7l0.6-0.7c0,0,0.1,0,0.1,0c0.1,0.1,0.5,0.5,0.8,0.7c0,0,0,0.1,0,0.1l-0.4,0.4c0,0,0,0-0.1,0
			c-0.1,0-0.6-0.1-1-0.5C285.8,71.8,285.8,71.7,285.8,71.7z"/>
		<path class="st1" d="M285.6,70l-0.5,0.5c-0.1,0.1-0.1,0.2-0.1,0.3c0.1,0.2,0.3,0.6,0.5,0.9c0,0,0.1,0,0.1,0l0.7-0.7
			c0,0,0-0.1,0-0.1c-0.1-0.1-0.4-0.5-0.6-0.8C285.7,70,285.6,70,285.6,70z"/>
		<path class="st1" d="M285.8,69.8l0.7-0.6c0,0,0.1,0,0.1,0c0.1,0.2,0.4,0.5,0.6,0.8c0,0,0,0.1,0,0.1l-0.7,0.6c0,0-0.1,0-0.1,0
			c-0.1-0.1-0.4-0.5-0.6-0.8C285.8,69.9,285.8,69.8,285.8,69.8z"/>
		<path class="st1" d="M286.8,69l0.8-0.4c0,0,0.1,0,0.1,0c0.1,0.2,0.4,0.6,0.6,0.8c0,0,0,0.1,0,0.1l-0.8,0.5c0,0-0.1,0-0.1,0
			C287.2,69.8,286.9,69.4,286.8,69C286.8,69.1,286.8,69.1,286.8,69z"/>
		<path class="st1" d="M287.6,70c0.2-0.1,0.6-0.4,0.7-0.5c0,0,0.1,0,0.1,0c0.1,0.1,0.5,0.6,0.7,0.7c0,0,0,0.1,0,0.1l-0.7,0.5
			c0,0-0.1,0-0.1,0c-0.2-0.1-0.6-0.5-0.7-0.7C287.6,70.1,287.6,70.1,287.6,70z"/>
		<path class="st1" d="M286.6,70.8l0.7-0.6c0,0,0.1,0,0.1,0l0.7,0.7c0,0,0,0.1,0,0.1l-0.7,0.6c0,0-0.1,0-0.1,0l-0.8-0.7
			C286.6,70.9,286.6,70.9,286.6,70.8z"/>
		<path class="st1" d="M277,70.8c0-0.2,0.3-0.2,0.6-0.1c0.3,0.1,0.8,0.3,1,0.4c0.2,0.1,0.8,0.5,0.8,0.6c0,0.1-0.2,0-0.3,0
			c-0.1,0-0.8-0.4-1.1-0.4C277.8,71.2,277,71.1,277,70.8z"/>
		<path class="st1" d="M277.2,70.3c0.1-0.1,0.3-0.1,0.6,0c0.2,0.1,1.1,0.7,1.3,0.8c0.2,0.1,0.4,0.3,0.4,0.4c0,0.1-0.1,0-0.2,0
			c-0.1,0-0.8-0.4-1-0.5C278.1,70.9,277.1,70.5,277.2,70.3z"/>
		<path class="st1" d="M277.6,69.7c0.1-0.2,0.4-0.1,0.6,0.1c0.2,0.1,1.1,1,1.2,1.1s0.1,0.2,0.1,0.2c0,0.1-0.1,0.1-0.2,0
			c-0.1-0.1-0.8-0.6-1-0.7C278.1,70.3,277.4,70,277.6,69.7z"/>
		<path class="st1" d="M278,69.1c0.1-0.1,0.3-0.1,0.5,0.2c0.3,0.3,1.2,1.4,1.3,1.5c0.1,0.1,0.1,0.1,0,0.2c-0.1,0-0.2,0-0.3-0.1
			c-0.1-0.1-0.8-0.7-1-0.9C278.3,69.8,277.8,69.4,278,69.1z"/>
		<path class="st1" d="M278.5,68.7c0.1-0.1,0.3,0,0.5,0.2c0.2,0.3,0.6,0.9,0.7,1.1c0.1,0.2,0.5,0.8,0.6,0.9s0,0.1-0.1,0.1
			c0,0-0.2-0.1-0.3-0.3c-0.2-0.2-0.6-0.8-0.7-0.9C278.9,69.7,278.2,69,278.5,68.7z"/>
		<path class="st1" d="M279.1,68.3c0.1-0.1,0.3,0,0.4,0.3s0.5,1.4,0.6,1.7s0.4,0.7,0.2,0.8s-0.2-0.2-0.3-0.3
			c-0.1-0.2-0.7-1.3-0.8-1.5S278.9,68.5,279.1,68.3z"/>
		<path class="st1" d="M279.8,68.2c0.1-0.1,0.2,0,0.3,0.3c0.1,0.3,0.3,1.3,0.3,1.5s0.2,0.6,0,0.7c-0.1,0-0.2-0.3-0.2-0.4
			c-0.1-0.2-0.4-1.1-0.5-1.3C279.7,68.8,279.6,68.3,279.8,68.2z"/>
		<path class="st1" d="M280.4,68.1c0.1,0,0.2,0,0.3,0.4c0,0.3,0,0.6,0,1c0,0.4,0.1,0.9,0,0.9c-0.1,0-0.2-0.1-0.2-0.3
			c0-0.2-0.2-0.9-0.2-1.1C280.3,68.7,280.2,68.1,280.4,68.1z"/>
		<path class="st1" d="M281,68.1c0,0,0.2-0.1,0.2,0.3c0,0.4-0.1,0.9-0.1,1.2c0,0.3,0.1,0.9-0.1,0.8s-0.1-0.2-0.2-0.6
			c0-0.4-0.1-0.9-0.1-1.2C280.8,68.4,280.8,68.1,281,68.1z"/>
		<path class="st1" d="M290.2,71.4c0.2,0,0.1,0.3,0,0.6c-0.1,0.3-0.4,0.7-0.6,0.9s-0.6,0.8-0.7,0.7c-0.1-0.1,0-0.2,0.1-0.3
			c0-0.1,0.5-0.8,0.5-1C289.7,72.1,290,71.3,290.2,71.4z"/>
		<path class="st1" d="M290.7,71.7c0.1,0.1,0.1,0.3-0.1,0.5c-0.1,0.2-0.8,1-0.9,1.2s-0.3,0.4-0.4,0.3c-0.1-0.1,0-0.1,0-0.2
			c0-0.1,0.5-0.7,0.6-0.9C290,72.4,290.4,71.5,290.7,71.7z"/>
		<path class="st1" d="M291.2,72c0.1,0.1,0,0.4-0.1,0.6c-0.2,0.2-1.1,1-1.2,1.1c-0.1,0.1-0.2,0.1-0.2,0.1s-0.1-0.1,0-0.2
			c0.1-0.1,0.7-0.8,0.8-0.9C290.5,72.5,290.9,71.9,291.2,72z"/>
		<path class="st1" d="M291.7,72.5c0.1,0.1,0,0.3-0.3,0.5s-1.5,1.1-1.6,1.2s-0.1,0-0.1,0c0-0.1,0.1-0.2,0.2-0.3
			c0.1-0.1,0.8-0.7,1-0.9C291,72.8,291.5,72.3,291.7,72.5z"/>
		<path class="st1" d="M292.1,73.1c0,0.1,0,0.3-0.3,0.4c-0.3,0.1-1,0.4-1.2,0.5c-0.2,0.1-0.9,0.4-1,0.4c-0.1,0-0.1,0-0.1-0.1
			c0,0,0.1-0.2,0.3-0.3c0.2-0.1,0.8-0.5,1-0.6S291.9,72.8,292.1,73.1z"/>
		<path class="st1" d="M292.4,73.7c0.1,0.1-0.1,0.3-0.3,0.3c-0.3,0.1-1.4,0.4-1.7,0.4c-0.3,0.1-0.7,0.3-0.8,0.2
			c0-0.1,0.2-0.2,0.4-0.3c0.2-0.1,1.4-0.6,1.5-0.6C291.7,73.7,292.2,73.4,292.4,73.7z"/>
		<path class="st1" d="M292.4,74.4c0.1,0.1,0,0.2-0.4,0.3c-0.3,0-1.3,0.1-1.5,0.2c-0.2,0-0.6,0.1-0.7,0c0-0.1,0.3-0.2,0.5-0.2
			c0.2,0,1.1-0.3,1.3-0.3S292.3,74.1,292.4,74.4z"/>
		<path class="st1" d="M292.5,75c0,0.1-0.1,0.2-0.4,0.2c-0.3,0-0.6-0.1-1-0.1s-0.9,0.1-0.9-0.1s0.1-0.2,0.3-0.2s0.9-0.1,1.1-0.1
			S292.5,74.7,292.5,75z"/>
		<path class="st1" d="M292.4,75.6c0,0,0,0.2-0.4,0.1c-0.4,0-0.9-0.2-1.2-0.2c-0.3,0-0.9,0-0.8-0.2c0-0.1,0.2-0.1,0.6-0.1
			c0.4,0,0.9,0,1.2,0C292.1,75.3,292.5,75.3,292.4,75.6z"/>
		<path class="st1" d="M285.5,65.2c0.1-0.1,0.4,0.1,0.5,0.4s0.3,1,0.4,1.3s0.2,0.9,0.1,1c-0.1,0.1-0.1-0.1-0.2-0.2
			c0-0.1-0.3-1-0.4-1.2c-0.1-0.2-0.4-0.7-0.4-0.9S285.4,65.2,285.5,65.2z"/>
		<path class="st1" d="M286.1,65c0.2-0.1,0.3,0.1,0.4,0.5c0.1,0.4,0.3,1.4,0.3,1.7c0,0.3,0.1,0.5,0,0.5c-0.1,0.1-0.1,0-0.2-0.1
			c0-0.1-0.3-1.1-0.4-1.3S285.8,65.1,286.1,65z"/>
		<path class="st1" d="M286.8,64.8c0,0,0.2-0.1,0.3,0.4c0.1,0.5,0.1,0.8,0.1,1.2c0,0.3,0,0.8,0,0.9s-0.1,0.1-0.1,0.2s-0.2,0-0.2-0.2
			c0-0.2-0.1-0.8-0.1-1C286.8,66,286.4,64.9,286.8,64.8z"/>
		<path class="st1" d="M287.6,64.8c0.1,0,0.3,0.1,0.2,0.3c0,0.2,0,0.6-0.1,1c-0.1,0.4-0.2,1.4-0.2,1.5c0,0.1-0.1,0.2-0.1,0.1
			s-0.1-0.2-0.1-0.3c0-0.2,0-0.7,0-0.9c0-0.2,0-1,0-1.1C287.3,65.3,287.3,64.8,287.6,64.8z"/>
		<path class="st1" d="M288.4,64.9c0,0,0.2,0,0.1,0.4s-0.3,0.9-0.3,1.1c-0.1,0.2-0.3,0.8-0.3,1c-0.1,0.2-0.2,0.6-0.2,0.5
			c-0.1-0.1-0.1-0.1,0-0.4s0.2-1.3,0.3-1.5C287.9,65.9,287.9,64.9,288.4,64.9z"/>
		<path class="st1" d="M289.1,65.1c0.1,0,0.2,0.2,0.1,0.4c-0.1,0.2-0.3,0.6-0.5,0.9c-0.2,0.3-0.4,0.7-0.5,1
			c-0.2,0.3-0.3,0.8-0.5,0.7s0.1-0.4,0.1-0.6c0.1-0.2,0.3-0.9,0.4-1.2s0.3-0.8,0.4-1C288.8,65.2,289,65.1,289.1,65.1z"/>
		<path class="st1" d="M289.8,65.6c0.1,0,0.1,0.3-0.1,0.5c-0.2,0.2-0.5,0.6-0.7,0.9c-0.2,0.3-0.4,0.6-0.6,0.8s-0.4,0.3-0.4,0.2
			s0.1-0.3,0.2-0.6c0.1-0.3,0.6-1.1,0.7-1.3S289.5,65.5,289.8,65.6z"/>
		<path class="st1" d="M290.3,66c0.1,0,0.1,0.2-0.1,0.5c-0.3,0.3-0.5,0.5-0.8,0.7s-0.5,0.6-0.6,0.7c-0.1,0.1-0.1,0.1-0.2,0
			c-0.1-0.1,0-0.2,0.2-0.4c0.1-0.2,0.6-0.8,0.7-1C289.7,66.4,290,65.9,290.3,66z"/>
		<path class="st1" d="M290.7,66.5c0.1,0.1,0.1,0.2-0.2,0.4c-0.3,0.2-0.6,0.5-0.9,0.7c-0.3,0.2-0.5,0.5-0.7,0.6s-0.2,0-0.2,0
			c0,0,0-0.1,0.1-0.2c0.1-0.1,0.4-0.4,0.5-0.6c0.2-0.2,0.6-0.6,0.7-0.7C290.2,66.6,290.6,66.4,290.7,66.5z"/>
	</g>
</g>
<g>
	<path class="st1" d="M139.5,92.2c0,0.8,0,1.6,0,2.3c0,0.4,0.2,0.6,0.6,0.7c0.1,0,0.2,0,0.3,0.1c0,0.2,0,0.5,0,0.7
		c-1.4,0-2.8,0-4.2,0c0-0.2,0-0.4,0-0.7c0,0,0,0,0,0c0.8-0.2,0.8-0.2,0.8-1.1c0-2.6,0-5.2,0-7.8c0-0.4,0-0.8-0.6-0.9
		c-0.1,0-0.1-0.1-0.2-0.2c0-0.2,0-0.3,0-0.6c1.1-0.1,2.1-0.2,3.2-0.3c0,0.3,0,0.5,0,0.8c0.1,0,0.2,0,0.2-0.1
		c1.6-1.2,3.8-0.7,4.6,1.1c0.7,1.6,0.7,3.2,0,4.8c-0.8,1.8-2.8,2.4-4.5,1.4C139.8,92.3,139.7,92.3,139.5,92.2z M139.5,88.6
		c0,0.8,0,1.7,0,2.5c0,0.1,0.1,0.3,0.2,0.4c0.8,0.3,1.7,0.3,2.1-0.6c0.2-0.5,0.4-1.2,0.4-1.7c0.1-1,0.1-1.9-0.4-2.8
		c-0.4-0.8-1.3-1.1-2-0.6c-0.1,0.1-0.2,0.3-0.3,0.4C139.5,87,139.5,87.8,139.5,88.6z"/>
	<path class="st1" d="M166.8,91.9c0,0.2,0,0.4,0,0.7c-1.3,0-2.6,0-3.9,0c0-0.3-0.2-0.7,0.4-0.9c0.1,0,0.2-0.3,0.2-0.5
		c0-1.5,0-3,0-4.5c0-0.6-0.5-0.9-1.1-0.8c-0.2,0-0.3,0.1-0.5,0.1c-0.8,0.3-0.8,0.4-0.8,1.2c0,1.1,0,2.3,0,3.4c0,1.1-0.1,1,0.9,1.3
		c0,0.2,0,0.4,0,0.7c-1.4,0-2.8,0-4.2,0c-0.1-0.6-0.1-0.6,0.4-0.8c0.2-0.1,0.3-0.3,0.4-0.5c0.1-0.1,0-0.3,0-0.4c0-2.6,0-5.2,0-7.8
		c0-0.5,0-0.9-0.6-1c-0.1,0-0.1-0.4-0.2-0.8c1.1-0.1,2.2-0.2,3.3-0.4c0,1.6,0,3.2,0,4.8c0.2-0.2,0.3-0.3,0.4-0.4
		c0.7-0.7,1.4-1.1,2.4-1.1c1,0,1.8,0.6,2,1.7c0,0.3,0.1,0.6,0.1,0.9c0,1.3,0,2.6,0,3.9C165.9,91.7,165.9,91.7,166.8,91.9z"/>
	<path class="st1" d="M183.3,92.6c0-0.2,0-0.5,0-0.7c0.9-0.3,0.9-0.3,0.9-1.3c0-1.5,0-2.9,0-4.4c0-0.4-0.1-0.7-0.6-0.8
		c-0.4-0.1-0.1-0.5-0.2-0.8c1.1-0.1,2.1-0.2,3.2-0.3c0,0.5,0,0.9,0,1.5c0.2-0.2,0.4-0.3,0.5-0.4c0.8-0.8,1.8-1.2,2.9-0.9
		c0.9,0.2,1.4,1,1.4,2.2c0,1.4,0,2.7,0,4.1c0,1.1,0,0.9,0.9,1.2c0,0.2,0,0.4,0,0.7c-1.3,0-2.6,0-3.9,0c0-0.3-0.2-0.7,0.3-0.9
		c0.1,0,0.2-0.3,0.2-0.5c0-1.5,0-3.1,0-4.6c0-0.6-0.4-0.9-1-0.8c-0.2,0-0.3,0.1-0.5,0.1c-0.8,0.3-0.9,0.4-0.9,1.2c0,1.1,0,2.3,0,3.4
		c0,1-0.1,1,0.9,1.3c0,0.2,0,0.4,0,0.7C186.1,92.6,184.7,92.6,183.3,92.6z"/>
	<path class="st1" d="M175.5,92.5c-1.1,0.1-2.2,0.2-3.3,0.3c0-0.5,0-0.9,0-1.4c0,0-0.1,0-0.1,0c-0.1,0.1-0.2,0.2-0.3,0.3
		c-0.5,0.6-1.1,1-1.9,1c-1.5,0.1-2.3-0.7-2.4-2.2c0-1.4,0-2.7,0-4.1c0-0.9,0-0.9-0.9-1.2c0-0.2,0-0.5,0-0.8c1.1-0.1,2.2-0.2,3.3-0.3
		c0,0.2,0,0.4,0,0.5c0,1.8,0,3.6,0,5.4c0,1,0.6,1.3,1.5,1c0.5-0.2,0.8-0.5,0.8-1.2c-0.1-1.2,0-2.5,0-3.7c0-0.3-0.1-0.7-0.4-0.7
		c-0.6-0.1-0.5-0.4-0.4-0.9c1.1-0.1,2.1-0.2,3.3-0.3c0,0.2,0,0.4,0,0.5c0,2,0,3.9,0,5.9c0,0.9,0,0.9,0.9,1.1
		C175.5,92,175.5,92.2,175.5,92.5z"/>
	<path class="st1" d="M152.8,91.9c0,0.2,0,0.5,0,0.7c-0.9,0.1-1.8,0.2-2.7,0.1c-0.4-0.1-0.6-0.3-0.6-0.8c-0.2,0.1-0.3,0.2-0.4,0.3
		c-0.5,0.4-1.1,0.6-1.8,0.6c-0.8,0-1.5-0.3-1.7-1c-0.3-0.8-0.2-1.5,0.4-2.1c0.4-0.4,1-0.7,1.5-0.9c0.5-0.3,1.1-0.4,1.7-0.6
		c0.2-0.1,0.4-0.2,0.3-0.5c0-0.4,0-0.7,0-1.1c0-0.8-0.5-1.3-1.3-1.4c-0.4,0-0.7,0-1.1,0c0,0,0,0.1,0,0.1c0.1,0.1,0.2,0.1,0.2,0.2
		c0.4,0.3,0.5,0.9,0.2,1.3c-0.3,0.4-0.9,0.6-1.3,0.4c-0.4-0.2-0.7-0.7-0.5-1.2c0.1-0.3,0.3-0.6,0.6-0.8c1.3-1,2.7-1.2,4.2-0.6
		c0.9,0.3,1.3,1.1,1.3,2c0,1.2,0,2.4,0,3.6c0,0.2,0,0.5,0,0.7c0,0.7,0,0.7,0.7,0.9C152.7,91.9,152.8,91.9,152.8,91.9z M149.5,88.7
		c-0.3,0.1-0.5,0.2-0.7,0.3c-0.7,0.3-1.1,1.1-0.9,1.9c0.1,0.6,1,1,1.5,0.6c0.1,0,0.1-0.1,0.1-0.2C149.5,90.4,149.5,89.5,149.5,88.7z
		"/>
	<path class="st1" d="M182.7,88c-1.5,0-3,0-4.6,0c0.1,0.8,0.2,1.6,0.6,2.3c0.8,1.1,2.6,1.1,3.5,0.1c0.1-0.1,0.3-0.2,0.5-0.3
		c0,0,0.1,0.1,0.1,0.1c-0.1,0.2-0.1,0.5-0.2,0.7c-1.2,2.7-4.6,2.3-5.9,0.8c-1.4-1.6-1.4-4.7,0.1-6.2c1.2-1.2,2.7-1.4,4.3-0.9
		c1.1,0.4,1.7,1.4,1.6,2.6C182.8,87.4,182.8,87.7,182.7,88z M178.2,87.2c0.6,0,1.1-0.1,1.7-0.1c0.7,0,0.8-0.1,0.8-0.8
		c0-0.1,0-0.1,0-0.2c0-0.4-0.2-0.8-0.6-1c-0.5-0.2-0.9,0-1.2,0.3C178.4,86,178.2,86.5,178.2,87.2z"/>
	<path class="st1" d="M157.4,91.9c0,0.2,0,0.4,0,0.7c-0.7,0-1.4,0-2.1,0c-0.7,0-1.4,0-2.1,0c-0.1-0.6-0.1-0.6,0.4-0.9
		c0.2-0.1,0.3-0.3,0.4-0.5c0.1-0.2,0-0.4,0-0.6c0-1.4,0-2.9,0-4.3c0-0.4,0-0.9-0.6-1c-0.1,0-0.1-0.1-0.2-0.2c0-0.2,0-0.3,0-0.6
		c1.1-0.1,2.1-0.2,3.2-0.4c0,0.2,0,0.4,0,0.6c0,1.9,0,3.9,0,5.8C156.5,91.6,156.5,91.6,157.4,91.9z"/>
	<path class="st1" d="M153.9,82.4c0-0.8,0.6-1.4,1.3-1.4c0.8,0,1.3,0.6,1.3,1.4c0,0.8-0.6,1.4-1.3,1.4
		C154.5,83.7,153.9,83.1,153.9,82.4z"/>
</g>
</svg>
