<?xml version="1.0" encoding="utf-8"?>
<!-- Generator: Adobe Illustrator 24.3.0, SVG Export Plug-In . SVG Version: 6.00 Build 0)  -->
<svg version="1.1" id="Layer_1" xmlns="http://www.w3.org/2000/svg" xmlns:xlink="http://www.w3.org/1999/xlink" x="0px" y="0px"
	 viewBox="0 0 329.2 123.9" style="enable-background:new 0 0 329.2 123.9;" xml:space="preserve">
<style type="text/css">
	.st0{fill:#575756;}
	.st1{fill:#FFFFFF;}
	.st2{fill:#575756;stroke:#DBDBDB;stroke-width:0.6295;stroke-miterlimit:10;}
	.st3{fill:#CFCFCF;}
	.st4{fill:#575756;stroke:#575756;stroke-width:0.4899;}
</style>
<g>
	<path class="st0" d="M180.9,30.9c0,8.9-7.2,16-16,16c-8.9,0-16-7.2-16-16c0-8.9,7.2-16,16-16C173.7,14.8,180.9,22,180.9,30.9"/>
	<path class="st1" d="M153.6,36.5l-0.1-0.1c-0.2-0.1-0.3-0.2-0.3-0.4c0-0.2,0.2-0.3,0.3-0.3c0.1,0,0.3,0.1,0.3,0.2l0.2-0.2
		c-0.1-0.2-0.3-0.2-0.5-0.2c-0.3,0-0.6,0.3-0.6,0.6c0,0.4,0.2,0.5,0.5,0.7l0.1,0.1c0.2,0.1,0.3,0.2,0.3,0.4c0,0.2-0.1,0.4-0.3,0.4
		c-0.2,0-0.3-0.1-0.4-0.3l-0.2,0.2c0.1,0.2,0.3,0.3,0.6,0.3c0.4,0,0.6-0.3,0.6-0.7C154.1,36.8,153.9,36.6,153.6,36.5"/>
	<path class="st1" d="M156.7,35.3c-0.6,0-0.8,0.6-0.8,1.3c0,0.6,0.3,1.3,0.8,1.3c0.6,0,0.8-0.6,0.8-1.3
		C157.5,36,157.2,35.3,156.7,35.3 M156.7,37.6c-0.4,0-0.6-0.6-0.6-1c0-0.4,0.2-1,0.6-1c0.4,0,0.6,0.6,0.6,1
		C157.2,37,157.1,37.6,156.7,37.6"/>
	<polygon class="st1" points="159.5,37.8 159.8,37.8 159.8,36.7 160.4,36.7 160.4,36.4 159.8,36.4 159.8,35.7 160.4,35.7 
		160.4,35.4 159.5,35.4 	"/>
	<polygon class="st1" points="162.2,35.7 162.7,35.7 162.7,37.8 163,37.8 163,35.7 163.5,35.7 163.5,35.4 162.2,35.4 	"/>
	<polygon class="st1" points="166.9,37.2 166.5,35.4 166.2,35.4 165.8,37.2 165.3,35.3 165.1,35.4 165.7,37.8 165.9,37.8 
		166.4,36.1 166.8,37.8 167,37.8 167.6,35.4 167.4,35.3 	"/>
	<path class="st1" d="M169.8,35.4l-0.8,2.4l0.3,0.1l0.2-0.6h0.9l0.2,0.6l0.3-0.1l-0.8-2.4H169.8z M169.6,37l0.3-1.1l0.3,1.1H169.6z"
		/>
	<path class="st1" d="M173.9,36.1c0-0.4-0.3-0.8-0.7-0.8h-0.5v2.4h0.3v-0.9h0.2l0.7,1l0.2-0.2l-0.6-0.8
		C173.7,36.8,173.9,36.5,173.9,36.1 M172.9,36.6v-0.9h0.2c0.2,0,0.5,0.2,0.5,0.5c0,0.3-0.2,0.5-0.5,0.5H172.9z"/>
	<polygon class="st1" points="176.2,36.7 176.8,36.7 176.8,36.4 176.2,36.4 176.2,35.7 177,35.7 177,35.4 176,35.4 176,37.8 
		177,37.8 177,37.5 176.2,37.5 	"/>
	<path class="st1" d="M176,29c0-0.6,1.2-1,1.2-2.2c0-1.7-2.7-2-3.7-2.1h-4.6c0.2-0.3-0.4-0.6-0.8-0.6h-6.8c-0.5,0-0.9,0.2-1,0.5
		c-0.2-0.1-1.2-0.2-1.8-0.2h-6.8l1.3,1.4l0,6.7c0,0.7,0.3,1,0.7,1h5.2c1.9,0,3.7-0.7,3.7-2.3c0-1.2-1.4-1.6-1.4-2.4
		c0-0.5,1.1-1,1.1-2.2c0-0.3-0.2-0.7-0.5-1c0.9,0.3,1.2,1.2,1.2,1.2v5.6c0,0.5,0.5,0.9,1,0.9h1.2c0.5,0,0.9-0.4,0.9-0.9v-5.7
		c0-0.5,0.8-0.9,0.8-0.9l0.6,0.5v6.9c0,0.5,0.3,0.7,0.8,0.7h5.5c1.9,0,3.7-0.9,3.7-2.3C177.5,30,176,29.8,176,29 M157.5,25.7
		c0.6,0,1.9,0.5,1.9,1.2c0,0.7-1.1,1.2-2,1.2c-0.9,0-1.4-0.4-1.4-1.2C156,26,156.9,25.7,157.5,25.7 M157.5,32.1
		c-1.2,0-1.7-0.5-1.7-1.4c0-1.1,1.1-1.3,1.5-1.3c0.4,0,2.3,0.3,2.3,1.3C159.7,31.7,158.8,32.1,157.5,32.1 M172.1,26.1
		c0.6,0,1.9,0.5,1.9,1.2c0,0.7-1.1,1.2-2,1.2c-0.9,0-1.4-0.4-1.4-1.2C170.6,26.4,171.5,26.1,172.1,26.1 M172.2,32.4
		c-1.2,0-1.7-0.5-1.7-1.4c0-1.1,1.1-1.3,1.5-1.3c0.4,0,2.3,0.3,2.3,1.3C174.4,31.9,173.4,32.4,172.2,32.4"/>
</g>
<g>
	<g>
		<path class="st0" d="M275.2,38.6L275.2,38.6l-0.3,0.3l0.3,0.5l0.4-0.2l0.1,0.1l-0.9,0.5l-0.1-0.1l0.4-0.2l-0.3-0.5l-0.4,0.2
			l-0.1-0.1L275.2,38.6z"/>
		<path class="st0" d="M276.2,40L276.2,40l-0.5,1l-0.1-0.1l0.1-0.3l-0.3-0.4l-0.3,0.1l-0.1-0.1L276.2,40z M275.8,40.6l0.3-0.5
			l-0.5,0.1L275.8,40.6z"/>
		<path class="st0" d="M276.3,41.9c0-0.1-0.1-0.1-0.1-0.2c0-0.1,0-0.1,0-0.2c0-0.1,0-0.1,0.1-0.2c0-0.1,0.1-0.1,0.1-0.2l0,0
			c0.1,0,0.1-0.1,0.2-0.1c0.1,0,0.1,0,0.2,0c0.1,0,0.1,0,0.2,0c0.1,0,0.1,0.1,0.2,0.1c0,0,0.1,0.1,0.1,0.1c0,0,0,0.1,0,0.1
			c0,0,0,0.1,0,0.1c0,0,0,0.1,0,0.1l-0.1,0c0-0.1,0-0.1,0-0.2c0-0.1,0-0.1-0.1-0.2c0,0-0.1-0.1-0.1-0.1c0,0-0.1,0-0.1,0
			c-0.1,0-0.1,0-0.2,0c-0.1,0-0.1,0-0.1,0.1l0,0c0,0-0.1,0.1-0.1,0.1c0,0,0,0.1,0,0.1c0,0.1,0,0.1,0,0.2
			C276.3,41.7,276.3,41.8,276.3,41.9c0.1,0,0.2,0,0.2,0c0.1,0,0.1,0,0.2,0l0,0.1c0,0-0.1,0-0.1,0c0,0-0.1,0-0.1,0
			C276.4,42,276.4,42,276.3,41.9C276.4,41.9,276.3,41.9,276.3,41.9z"/>
		<path class="st0" d="M277.7,41.8L277.7,41.8l-0.6,0.8l-0.1-0.1L277.7,41.8z"/>
		<path class="st0" d="M278.4,42.5L278.4,42.5l-0.2,1.1l-0.1-0.1l0.1-0.3l-0.4-0.4l-0.3,0.1l-0.1-0.1L278.4,42.5z M278.2,43.2
			l0.2-0.5l-0.5,0.2L278.2,43.2z"/>
		<path class="st0" d="M279.6,44.7c-0.1,0-0.1-0.1-0.1-0.1c0,0-0.1-0.1-0.1-0.1c0-0.1,0-0.1,0-0.2c0-0.1,0-0.1,0.1-0.2l0.3-0.5
			l0.1,0.1l-0.3,0.5c-0.1,0.1-0.1,0.2-0.1,0.3C279.5,44.5,279.5,44.5,279.6,44.7c0.1,0,0.2,0,0.3,0c0.1,0,0.1-0.1,0.2-0.2l0.3-0.5
			l0.1,0.1l-0.3,0.5c0,0.1-0.1,0.1-0.1,0.1c0,0-0.1,0.1-0.1,0.1c-0.1,0-0.1,0-0.2,0C279.7,44.7,279.6,44.7,279.6,44.7z"/>
		<path class="st0" d="M280.9,44.3L280.9,44.3l0.3,1.1l0.4-0.7l0.1,0.1l-0.5,0.9l-0.1,0l-0.2-1l-0.4,0.7l-0.1-0.1L280.9,44.3z"/>
		<path class="st0" d="M282.8,45.2l0.1,0l0.2,0.6l0.5-0.4l0.1,0l-0.3,0.9l-0.1,0l0.3-0.8L283,46l0,0l-0.2-0.6l-0.3,0.8l-0.1,0
			L282.8,45.2z"/>
		<path class="st0" d="M284.4,46.7c-0.1,0-0.1,0-0.2-0.1c0,0-0.1-0.1-0.1-0.1c0,0,0-0.1-0.1-0.2c0-0.1,0-0.1,0-0.2l0.1-0.6l0.1,0
			l-0.1,0.6c0,0.1,0,0.2,0,0.3c0,0.1,0.1,0.1,0.2,0.1c0.1,0,0.2,0,0.2,0c0.1,0,0.1-0.1,0.1-0.2l0.1-0.6l0.1,0l-0.1,0.6
			c0,0.1,0,0.1-0.1,0.2c0,0-0.1,0.1-0.1,0.1c0,0-0.1,0-0.1,0.1C284.5,46.7,284.4,46.7,284.4,46.7z"/>
		<path class="st0" d="M285.5,45.9l0.1,0l0.5,0.9l0.1-0.8l0.1,0l-0.1,1l-0.1,0l-0.5-0.9l-0.1,0.8l-0.1,0L285.5,45.9z"/>
		<path class="st0" d="M286.9,46l0.3,0c0.1,0,0.1,0,0.2,0c0.1,0,0.1,0.1,0.2,0.1c0,0,0.1,0.1,0.1,0.2c0,0.1,0,0.1,0,0.2l0,0
			c0,0.1,0,0.1,0,0.2c0,0.1-0.1,0.1-0.1,0.2c0,0-0.1,0.1-0.2,0.1c-0.1,0-0.1,0-0.2,0l-0.3,0L286.9,46z M287.2,46.9
			c0.1,0,0.1,0,0.2,0c0.1,0,0.1,0,0.1-0.1c0,0,0.1-0.1,0.1-0.1c0,0,0-0.1,0-0.2v0c0-0.1,0-0.1,0-0.2c0,0,0-0.1-0.1-0.1
			c0,0-0.1-0.1-0.1-0.1c-0.1,0-0.1,0-0.2,0l-0.2,0l0,0.8L287.2,46.9z"/>
		<path class="st0" d="M288.8,47c-0.1,0-0.1,0-0.2,0c-0.1,0-0.1-0.1-0.2-0.1c0,0-0.1-0.1-0.1-0.2c0-0.1,0-0.1,0-0.2v0
			c0-0.1,0-0.1,0-0.2c0-0.1,0.1-0.1,0.1-0.2c0-0.1,0.1-0.1,0.2-0.1c0.1,0,0.1-0.1,0.2-0.1c0.1,0,0.1,0,0.2,0c0.1,0,0.1,0.1,0.2,0.1
			c0,0,0.1,0.1,0.1,0.2c0,0.1,0,0.1,0,0.2c0,0,0,0,0,0c0,0.1,0,0.1,0,0.2c0,0.1-0.1,0.1-0.1,0.2c0,0.1-0.1,0.1-0.2,0.1
			C288.9,47,288.9,47,288.8,47z M288.8,46.9c0.1,0,0.1,0,0.2,0c0,0,0.1-0.1,0.1-0.1c0,0,0.1-0.1,0.1-0.1c0-0.1,0-0.1,0-0.2l0,0
			c0-0.1,0-0.1,0-0.2c0,0-0.1-0.1-0.1-0.1c0,0-0.1-0.1-0.1-0.1c0,0-0.1,0-0.2,0c-0.1,0-0.1,0-0.2,0c0,0-0.1,0.1-0.1,0.1
			c0,0-0.1,0.1-0.1,0.1c0,0.1,0,0.1,0,0.2l0,0c0,0.1,0,0.1,0,0.2c0,0,0.1,0.1,0.1,0.1c0,0,0.1,0.1,0.1,0.1
			C288.7,46.9,288.7,46.9,288.8,46.9z"/>
		<path class="st0" d="M291,46.7c-0.1,0-0.2,0-0.2,0c-0.1,0-0.1,0-0.2-0.1l0.1-0.1c0.1,0,0.1,0.1,0.2,0.1c0.1,0,0.1,0,0.2,0
			c0.1,0,0.1,0,0.1-0.1c0,0,0-0.1,0-0.1l0,0c0,0,0,0,0-0.1c0,0,0,0-0.1,0c0,0-0.1,0-0.1,0c0,0-0.1,0-0.1,0c-0.1,0-0.1,0-0.2,0
			c0,0-0.1,0-0.1,0c0,0-0.1,0-0.1-0.1c0,0,0-0.1,0-0.1l0,0c0,0,0-0.1,0-0.1c0,0,0-0.1,0-0.1c0,0,0.1-0.1,0.1-0.1c0,0,0.1,0,0.1,0
			c0.1,0,0.1,0,0.2,0c0.1,0,0.1,0,0.2,0.1l0,0.1c-0.1,0-0.1,0-0.2-0.1c0,0-0.1,0-0.2,0c-0.1,0-0.1,0-0.1,0.1c0,0,0,0.1,0,0.1l0,0
			c0,0,0,0,0,0.1c0,0,0,0,0.1,0c0,0,0.1,0,0.1,0c0,0,0.1,0,0.1,0c0.1,0,0.2,0,0.3,0.1c0.1,0,0.1,0.1,0.1,0.2l0,0c0,0,0,0.1,0,0.1
			c0,0,0,0.1-0.1,0.1c0,0-0.1,0.1-0.1,0.1C291.1,46.7,291,46.7,291,46.7z"/>
		<path class="st0" d="M292.2,46.4c-0.1,0-0.1,0-0.2,0c-0.1,0-0.1,0-0.2,0c0,0-0.1-0.1-0.1-0.1c0,0-0.1-0.1-0.1-0.2l-0.2-0.6l0.1,0
			l0.2,0.6c0,0.1,0.1,0.2,0.1,0.2c0.1,0,0.1,0,0.2,0c0.1,0,0.2-0.1,0.2-0.1c0-0.1,0-0.2,0-0.3l-0.2-0.6l0.1,0l0.2,0.5
			c0,0.1,0,0.1,0,0.2c0,0.1,0,0.1,0,0.2c0,0-0.1,0.1-0.1,0.1C292.4,46.4,292.3,46.4,292.2,46.4z"/>
		<path class="st0" d="M293.5,46c-0.1,0-0.1,0-0.2,0c-0.1,0-0.1,0-0.2,0l0-0.1c0.1,0,0.1,0,0.2,0C293.4,45.9,293.4,45.9,293.5,46
			c0-0.1,0.1-0.2,0.1-0.2c0,0,0-0.1,0-0.1l0,0c0,0,0,0,0-0.1c0,0,0,0-0.1,0c0,0-0.1,0-0.1,0c0,0-0.1,0-0.1,0c-0.1,0-0.1,0-0.2,0
			c0,0-0.1,0-0.1,0c0,0-0.1,0-0.1-0.1c0,0,0-0.1-0.1-0.1l0,0c0,0,0-0.1,0-0.1c0,0,0-0.1,0-0.1c0,0,0-0.1,0.1-0.1
			c0,0,0.1-0.1,0.1-0.1c0.1,0,0.1,0,0.2,0c0.1,0,0.1,0,0.2,0l0,0.1c-0.1,0-0.1,0-0.2,0c-0.1,0-0.1,0-0.1,0c-0.1,0-0.1,0.1-0.1,0.1
			c0,0,0,0.1,0,0.1l0,0c0,0,0,0,0,0.1c0,0,0,0,0.1,0c0,0,0.1,0,0.1,0c0,0,0.1,0,0.1,0c0.1,0,0.2,0,0.3,0c0.1,0,0.1,0.1,0.1,0.1l0,0
			c0,0,0,0.1,0,0.1c0,0,0,0.1,0,0.1c0,0,0,0.1-0.1,0.1C293.6,45.9,293.6,45.9,293.5,46z"/>
		<path class="st0" d="M294.2,44.7l-0.3,0.1l0-0.1l0.7-0.4l0,0.1l-0.3,0.2l0.4,0.8l-0.1,0.1L294.2,44.7z"/>
		<path class="st0" d="M295,44.1l0.6-0.4l0.1,0.1l-0.5,0.3l0.2,0.3l0.5-0.3l0.1,0.1l-0.5,0.3l0.2,0.3l0.5-0.3l0.1,0.1l-0.6,0.4
			L295,44.1z"/>
		<path class="st0" d="M296,43.5L296,43.5l1.1,0.2l-0.5-0.6l0.1-0.1l0.6,0.8l-0.1,0.1l-1-0.3l0.5,0.7l-0.1,0.1L296,43.5z"/>
		<path class="st0" d="M297.4,42.6l-0.3,0.2l-0.1-0.1l0.6-0.5l0.1,0.1L297.4,42.6l0.7,0.6l-0.1,0.1L297.4,42.6z"/>
		<path class="st0" d="M298.2,41.6L298.2,41.6l1.1,0.3l-0.1,0.1l-0.3-0.1l-0.4,0.4l0.1,0.3l-0.1,0.1L298.2,41.6z M298.9,41.8
			l-0.5-0.2l0.2,0.5L298.9,41.8z"/>
		<path class="st0" d="M298.9,40.8l0.3-0.3c0,0,0.1-0.1,0.1-0.1c0,0,0.1,0,0.1,0c0.1,0,0.1,0,0.2,0l0,0c0,0,0,0,0.1,0.1
			c0,0,0,0,0,0.1c0,0,0,0,0,0.1c0,0,0,0,0,0.1c0,0,0.1,0,0.1,0c0,0,0.1,0,0.1,0c0,0,0.1,0,0.1,0c0,0,0.1,0,0.1,0l0,0
			c0,0,0.1,0.1,0.1,0.1c0,0,0,0.1,0,0.1c0,0,0,0.1,0,0.1c0,0,0,0.1-0.1,0.1l-0.3,0.3L298.9,40.8z M299.5,40.8c0-0.1,0.1-0.1,0.1-0.2
			c0-0.1,0-0.1-0.1-0.1l0,0c0,0-0.1,0-0.1,0c0,0-0.1,0-0.1,0.1l-0.2,0.2l0.3,0.2L299.5,40.8z M299.9,41c0-0.1,0.1-0.1,0.1-0.2
			c0-0.1,0-0.1-0.1-0.1l0,0c0,0-0.1,0-0.1,0c-0.1,0-0.1,0.1-0.2,0.1l-0.2,0.2l0.3,0.2L299.9,41z"/>
		<path class="st0" d="M299.7,39.8L299.7,39.8l0.8,0.4l0.3-0.5l0.1,0.1l-0.4,0.6L299.7,39.8z"/>
		<path class="st0" d="M300.3,38.8l0.3-0.6l0.1,0l-0.3,0.5l0.3,0.2l0.3-0.5l0.1,0l-0.3,0.5l0.3,0.2l0.3-0.5l0.1,0l-0.3,0.6
			L300.3,38.8z"/>
	</g>
	<path class="st0" d="M293.6,40.8c0-0.1,0-0.3,0-0.4c0,0,0,0-0.1-0.1C293.5,40.4,293.5,40.6,293.6,40.8c-0.2,0-0.3,0-0.4,0
		c-0.1,0-0.1,0-0.1,0c0,0-0.1,0-0.1,0v0c0,0,0.1,0,0.1,0c0,0,0.1,0,0.1,0C293.3,40.7,293.4,40.7,293.6,40.8
		c-0.1-0.2-0.1-0.2-0.1-0.3c0,0,0-0.1,0-0.1c0,0,0-0.1,0-0.1c0,0,0,0-0.1,0c0,0,0-0.1,0-0.2c0,0.1,0,0.3,0,0.4c0,0,0,0,0,0V40
		c0.1,0,0,0,0,0v-0.2h-0.3c0,0,0,0,0,0h-1.5c-0.1,0-0.6,0-0.7,0c-0.4,0,0.2,0,0.6,0c-0.1,0,0.2,0,0.2,0c0,0,0-0.1-0.5-0.1
		c-0.1,0,0,0,0-0.1c-0.5,0-1,0-1.5,0c-0.6,0-1.1,0-1.7,0c0,0,0,0,0,0c-0.3,0-0.6,0-0.9,0c-0.3,0-0.7,0-1,0c-0.7,0-1.3,0-1.9,0
		c-0.4,0-1,0-1.2,0h0.4c-0.1,0-0.3,0-0.4,0c-0.2,0-0.4,0-0.6,0c0,0.1,0,0.3,0,0.4c0,0,0,0,0,0c0,0,0,0,0,0.1c0-0.1,0-0.3,0-0.5
		c0.1,0,0.2,0,0.3,0c0.1,0,0.1,0,0.1,0c0,0,0.1,0,0.1,0v0c0,0-0.1,0-0.1,0c0,0-0.1,0-0.1,0c-0.1,0-0.2,0-0.3,0c0,0.1,0,0.2,0,0.2
		c0,0,0,0.1,0,0.1c0,0,0,0.1,0,0.1c0,0,0,0,0.1,0c0,0,0,0.1,0,0.2c0-0.1,0-0.3,0-0.4c0,0,0,0,0,0v0.5c-0.1,0,0,0,0,0v0.2h0.3
		c0,0,0,0,0,0h1.6c0.1,0,0.6,0,0.7,0c0.4,0-0.2,0-0.6,0c0.1,0-0.2,0-0.2,0c0,0,0,0.1,0.5,0.1c0.1,0,0,0,0,0.1c0.6,0,1.1,0,1.7,0
		c0.7,0,1.3,0,2,0c0,0,0,0,0,0c0.2,0,0.3,0,0.5,0c0.3,0,0.7,0,1,0c0.7,0,1.3,0,1.9,0c0.4,0,1,0,1.2,0h-0.4c0.1,0,0.3,0,0.4,0
		C293.2,40.8,293.4,40.8,293.6,40.8z"/>
	<g>
		<g>
			<path class="st0" d="M270.3,30.4L270.3,30.4c0-3.3,2.5-5.9,5.9-5.9c1.7,0,2.9,0.4,3.9,1.1c0.2,0.2,0.5,0.5,0.5,1
				c0,0.7-0.6,1.2-1.2,1.2c-0.4,0-0.6-0.1-0.8-0.3c-0.7-0.5-1.4-0.8-2.5-0.8c-1.8,0-3.3,1.6-3.3,3.5v0c0,2.1,1.4,3.6,3.4,3.6
				c0.9,0,1.7-0.2,2.3-0.7v-1.6H277c-0.6,0-1.1-0.5-1.1-1.1c0-0.6,0.5-1.1,1.1-1.1h2.9c0.7,0,1.2,0.6,1.2,1.2v2.8
				c0,0.7-0.3,1.2-0.9,1.6c-0.9,0.6-2.3,1.1-4,1.1C272.7,36.3,270.3,33.8,270.3,30.4z"/>
			<path class="st0" d="M283.7,34.8V26c0-0.7,0.6-1.2,1.2-1.2h6.3c0.6,0,1.1,0.5,1.1,1.1c0,0.6-0.5,1.1-1.1,1.1h-5.1v2.3h4.3
				c0.6,0,1.1,0.5,1.1,1.1c0,0.6-0.5,1.1-1.1,1.1h-4.3v2.4h5.1c0.6,0,1.1,0.5,1.1,1.1c0,0.6-0.5,1.1-1.1,1.1H285
				C284.3,36.1,283.7,35.5,283.7,34.8z"/>
			<path class="st0" d="M294.5,34.5l4-8.9c0.3-0.6,0.8-1,1.5-1h0.1c0.7,0,1.2,0.4,1.4,1l4,8.9c0.1,0.2,0.1,0.3,0.1,0.5
				c0,0.7-0.5,1.2-1.2,1.2c-0.6,0-1-0.3-1.2-0.9l-0.8-1.8h-5l-0.8,1.9c-0.2,0.5-0.6,0.8-1.2,0.8c-0.6,0-1.2-0.5-1.2-1.2
				C294.4,34.8,294.5,34.6,294.5,34.5z M301.6,31.3l-1.6-3.7l-1.6,3.7H301.6z"/>
		</g>
	</g>
	<g>
		<path class="st2" d="M276.1,21.1c-0.1,0.1-0.1,0.1-0.2,0.2c-0.1,0.1-0.1,0.1-0.2,0.2c-0.1,0.1-0.1,0.2-0.2,0.3
			c-0.1,0.2-0.3,0.3-0.3,0.4c0,0,0.2-0.5,0.3-0.6c0.1-0.2,0.3-0.3,0.4-0.5c0.1-0.1,0.2-0.3,0.3-0.4c0.1-0.1,0.2-0.2,0.4-0.4
			c0.1-0.1,0.3-0.3,0.5-0.5c0.1-0.1,0.2-0.3,0.4-0.5c0,0-0.1,0.1-0.1,0.1c0.1-0.2,0.3-0.3,0.5-0.5c0.2-0.2,0.4-0.4,0.6-0.5
			c-0.1,0.1-0.1,0.1-0.1,0.1c0.2-0.1,0.4-0.3,0.7-0.5c0.3-0.2,0.5-0.4,0.8-0.6c0.1-0.1,0.2-0.1,0.3-0.1c0.2-0.2,0.5-0.3,0.7-0.4
			c0.2-0.1,0.5-0.3,0.8-0.5c0.5-0.3,1.2-0.6,1.9-0.8c1.2-0.4,2.6-0.6,3.7-0.7c0.2,0,0.5-0.1,0.9,0c0.4-0.1,0.9-0.1,1.4,0
			c0.3,0,0.6,0.1,0.8,0.1c0.1,0,0.3,0,0.4,0.1c0.1,0,0.3,0.1,0.4,0.1c0.4,0.1,0.6,0.2,0.7,0.3c0.9,0.2,1.9,0.5,2.8,0.9
			c0.3,0.1,0.6,0.3,0.9,0.4c0.1,0.1,0.3,0.2,0.4,0.3c0.1,0.1,0.3,0.2,0.4,0.3c0.1,0.1,0.3,0.2,0.4,0.3c0.1,0.1,0.3,0.2,0.4,0.3
			c0.1,0.1,0.1,0.1,0.2,0.2c0.1,0.1,0.1,0.1,0.2,0.2c0.1,0.1,0.3,0.2,0.4,0.4c0.1,0.1,0.4,0.4,0.6,0.5c0.1,0.1,0.1,0.1,0.2,0.2
			c0.3,0.3,0.6,0.6,0.8,0.9c0.2,0.3,0.5,0.6,0.7,0.9c0.3,0.4,0.4,0.7,0.4,0.8c0,0.2,0,0.3,0,0.3c-0.2-0.2-0.3-0.4-0.5-0.6
			c-0.2-0.2-0.4-0.4-0.6-0.6c-0.2-0.2-0.4-0.4-0.6-0.7c-0.1-0.1-0.2-0.2-0.3-0.4c-0.1-0.1-0.2-0.3-0.4-0.4c-0.1-0.2-0.3-0.3-0.6-0.5
			c-0.2-0.2-0.5-0.4-0.7-0.5c-0.2-0.1-0.4-0.3-0.6-0.4c-0.2-0.1-0.4-0.3-0.6-0.3c-0.2-0.2-0.6-0.5-1.1-0.8c-0.2-0.1-0.5-0.3-0.7-0.4
			c-0.3-0.1-0.5-0.2-0.7-0.3c-0.1,0,0,0-0.1-0.1c-0.7-0.2-1.4-0.4-2.1-0.6c-0.7-0.2-1.5-0.3-2.3-0.3c-0.8,0-1.7,0-2.7,0.2
			c0,0-0.2,0-0.3,0c-0.1,0-0.3,0-0.4,0.1c-0.1,0-0.2,0.1-0.3,0.1c-0.7,0.1-1.4,0.4-1.9,0.6c-0.3,0.1-0.5,0.2-0.8,0.3
			c-0.2,0.1-0.5,0.2-0.7,0.3c-0.2,0.1-0.4,0.2-0.6,0.3c-0.2,0.1-0.4,0.3-0.6,0.4c-0.2,0.1-0.4,0.3-0.6,0.4c-0.2,0.1-0.4,0.2-0.5,0.3
			c-0.1,0-0.3,0.2-0.4,0.3c-0.1,0-0.1,0.1-0.2,0.1c-0.1,0.1-0.2,0.2-0.3,0.4c-0.4,0.4-0.9,0.9-1.2,1.3c-0.4,0.4-0.7,0.8-0.9,1
			C276,21.3,276.2,21,276.1,21.1z"/>
		<path class="st2" d="M275.5,21.7c0.1-0.1,0-0.1,0.2-0.3c0,0-0.1,0.1-0.1,0.2C275.6,21.7,275.5,21.7,275.5,21.7L275.5,21.7z"/>
		<path class="st2" d="M280.8,16.7c-0.2,0.1-0.3,0.1-0.6,0.3C280.5,16.9,280.8,16.8,280.8,16.7z"/>
		<path class="st2" d="M283.8,15.6C283.8,15.7,283.9,15.6,283.8,15.6c-0.1,0.1,0,0-0.2,0.1L283.8,15.6z"/>
		<path class="st2" d="M284.1,15.6l0.1,0C284.2,15.6,284.1,15.6,284.1,15.6z"/>
		<path class="st2" d="M276.6,20.1L276.6,20.1C276.6,20,276.6,20,276.6,20.1C276.6,20,276.6,20,276.6,20.1z"/>
		<path class="st2" d="M277,19.7c0,0-0.1,0.1-0.1,0.1c-0.1,0.1-0.1,0.1-0.1,0.1c0,0,0,0,0,0.1C276.8,19.8,276.8,19.9,277,19.7z"/>
		<path class="st2" d="M276.7,20L276.7,20c-0.1,0.1-0.2,0.2-0.3,0.3c-0.1,0.1-0.2,0.2-0.3,0.4c0.1-0.1,0.2-0.2,0.3-0.4
			C276.5,20.3,276.6,20.1,276.7,20z"/>
		<path class="st2" d="M276.5,20.3C276.5,20.3,276.4,20.4,276.5,20.3c0,0.1-0.1,0.1-0.1,0.1c-0.1,0.1-0.1,0.1-0.1,0.1l-0.1,0.2
			c0,0,0.1-0.1,0.2-0.2c0.1-0.1,0.3-0.3,0.3-0.4L276.5,20.3z"/>
		<polygon class="st2" points="275.5,22.2 275.5,22.2 275.5,22.2 		"/>
		<path class="st2" d="M275.9,21.7L275.9,21.7c-0.2,0.2-0.2,0.2-0.4,0.5l0,0C275.6,22.2,275.7,21.9,275.9,21.7z"/>
		<path class="st2" d="M277.3,19.4c-0.2,0.2-0.3,0.4-0.4,0.5c0,0,0.1-0.1,0.2-0.2C277.2,19.6,277.3,19.5,277.3,19.4
			C277.1,19.7,277.3,19.5,277.3,19.4z"/>
		<path class="st2" d="M277.7,19.2l-0.2,0.2l0.1-0.1C277.6,19.3,277.6,19.3,277.7,19.2z"/>
		<path class="st2" d="M277.6,19.3C277.6,19.3,277.6,19.3,277.6,19.3L277.6,19.3z"/>
		<path class="st2" d="M277.3,19.7c0.1-0.1,0.1-0.1,0.3-0.3C277.5,19.4,277.3,19.6,277.3,19.7z"/>
		<polygon class="st2" points="278.1,18.9 278.2,18.9 278.2,18.8 		"/>
		<path class="st2" d="M279.7,17.4c-0.2,0.2,0.2-0.1,0.2-0.1L279.7,17.4z"/>
		<path class="st2" d="M278.4,18.8L278.4,18.8l-0.1,0.1c-0.1,0-0.1,0.1-0.2,0.2C278.1,19.1,278.3,18.8,278.4,18.8z"/>
		<line class="st2" x1="279.2" y1="18" x2="279.4" y2="17.8"/>
		<path class="st2" d="M278,19.3C278,19.3,278.3,19.1,278,19.3c0.1,0,0.3-0.2,0.2-0.1c0.2-0.2,0,0,0.1-0.2
			C278.2,19.2,278.1,19.2,278,19.3z"/>
		<path class="st2" d="M278.5,18.9c0.1-0.1,0.2-0.2,0.3-0.2C278.7,18.7,278.6,18.7,278.5,18.9z"/>
		<polygon class="st2" points="278.7,18.8 278.5,18.9 278.6,18.9 		"/>
		<line class="st2" x1="280.8" y1="17" x2="280.8" y2="17"/>
		<path class="st2" d="M279.3,18.3C279.3,18.3,279.3,18.3,279.3,18.3c-0.1,0.1-0.1,0.1-0.2,0.2c-0.1,0.1-0.2,0.2-0.2,0.2
			s0.1-0.1,0.2-0.1C279.2,18.4,279.3,18.4,279.3,18.3C279.5,18.2,279.4,18.3,279.3,18.3C279.3,18.3,279.3,18.3,279.3,18.3z"/>
		<path class="st2" d="M278.9,18.6l-0.1,0.1c0,0,0.2-0.1,0.3-0.2C279,18.5,278.9,18.6,278.9,18.6z"/>
		<path class="st2" d="M279.1,18.5c0,0,0.1-0.1,0.1-0.1C279.2,18.4,279.1,18.4,279.1,18.5z"/>
		<path class="st2" d="M281.9,16.4l-0.4,0.2C281.6,16.5,281.7,16.5,281.9,16.4z"/>
		<path class="st2" d="M279.6,18.1L279.6,18.1L279.6,18.1C279.6,18.2,279.6,18.1,279.6,18.1z"/>
		<path class="st2" d="M280.1,17.9c0.1,0,0.1-0.1,0.2-0.1c0.1-0.1,0.2-0.1,0.2-0.1c-0.1,0-0.1,0.1-0.2,0.1
			C280.3,17.8,280.2,17.8,280.1,17.9C280.3,17.8,280.1,17.9,280.1,17.9z"/>
		<path class="st2" d="M280.7,17.6c0,0-0.1,0.1-0.2,0.1c-0.1,0.1-0.2,0.1-0.2,0.1C280.4,17.8,280.5,17.7,280.7,17.6z"/>
		<path class="st2" d="M281.2,17.2C281.3,17.2,281.2,17.2,281.2,17.2c0,0-0.1,0-0.2,0.1L281.2,17.2z"/>
		<path class="st2" d="M278.1,19c0.1-0.1,0.2-0.2,0.3-0.2c-0.1,0.1-0.3,0.2-0.4,0.3C278,19.1,278.1,19.1,278.1,19z"/>
		<path class="st2" d="M299.3,20c-0.2-0.2-0.5-0.5-0.8-0.8c-0.3-0.3-0.6-0.6-0.8-0.7c-0.2-0.2-0.4-0.3-0.6-0.5
			c-0.2-0.2-0.4-0.3-0.7-0.5c-0.2-0.1-0.5-0.3-0.7-0.4c-0.2-0.1-0.5-0.3-0.7-0.4l0,0c-0.7-0.4-1.8-0.9-2.7-1.1l0,0
			c0.2,0,0.3,0.1,0.2,0.1c-0.2-0.1-0.5-0.2-0.5-0.2l-0.2,0c-0.1-0.1,0-0.1-0.4-0.2c-0.1,0-0.3-0.1-0.5-0.1c-0.2,0-0.3-0.1-0.3,0
			c-0.1-0.1-0.5-0.1-0.7-0.1l0.1,0.1c-0.4-0.1-0.7-0.2-0.9-0.2c-0.2,0-0.5,0-0.8,0c-0.3,0-0.6,0-0.8,0c-0.1-0.1,0.5,0,0.2-0.1
			c-0.5,0-1.1,0.1-1.7,0.1c-0.6,0.1-1.2,0.1-1.8,0.3c0,0,0.1,0,0.1,0c-0.1,0-0.2,0-0.4,0.1c-0.1,0-0.3,0.1-0.5,0.1
			c0.1,0,0.5-0.1,0.7-0.2c-0.1,0.1-0.1,0-0.6,0.2c0,0,0.1,0,0.1,0c-0.5,0.2-0.2,0-0.5,0.1c0,0,0,0,0.1,0c0,0,0.1,0,0.1,0
			c-0.3,0.1-0.1,0-0.5,0.2c0-0.1-0.2,0-0.3,0c0,0-0.4,0.2-0.3,0.2c-0.5,0.1-0.6,0.3-1,0.4c-0.2,0.1,0.2,0,0.2,0
			c-0.4,0.2-0.2,0-0.3,0.1c-0.1,0.1-0.7,0.4-0.9,0.5l0,0c-0.2,0.1-0.4,0.2-0.6,0.4c-0.2,0.1-0.4,0.2-0.5,0.3
			c-0.1,0.1,0.1-0.1,0.4-0.2c0.1,0-0.2,0.2-0.3,0.2c0.1,0,0.1,0,0.1-0.1c0,0-0.1,0.1-0.2,0.2c-0.4,0.3,0.1-0.1,0,0
			c-0.1,0.1-0.5,0.4-0.3,0.3c-0.3,0.3-0.1,0.1-0.3,0.2c0.3-0.2,0.3-0.3,0.5-0.4c0.1-0.1,0-0.1-0.1,0c-0.1,0.1-0.1,0.1-0.2,0.2
			c-0.1,0.1-0.2,0.1-0.2,0.2c-0.2,0.1-0.3,0.2-0.3,0.2l-0.1,0.1l-0.1,0.1l-0.1,0c0.1-0.1,0.4-0.3,0.5-0.3c0,0-0.1,0.1-0.2,0.2
			l-0.1,0c-0.2,0.2-0.1,0.2-0.4,0.5c0.1-0.2-0.4,0.2-0.6,0.4c-0.1,0.3,0.1,0-0.1,0.3c-0.2,0.2-0.5,0.6-0.7,0.8
			c0.5-0.7-0.3,0.3,0.1-0.3c-0.1,0.1-0.2,0.2-0.2,0.3c-0.1,0,0.1-0.2-0.1-0.1l0,0.1c-0.1,0.1-0.3,0.2-0.5,0.5c0,0.1-0.1,0.2-0.2,0.4
			c-0.1,0-0.1,0-0.3,0.4c-0.3,0.7,0.5-0.6,0.6-0.6c0.1-0.2,0.3-0.4,0.4-0.5c0.1-0.1,0.2-0.2,0.3-0.3c0.2-0.2,0.5-0.4,0.9-0.8
			c0.1-0.2,0.1-0.1,0.3-0.4c0.1-0.2-0.4,0.3-0.6,0.5c0.1-0.1,0.1-0.2,0.2-0.3l-0.1,0.1c0.4-0.4,0.3-0.2,0.6-0.6l-0.1,0.1
			c0,0,0-0.1,0.1-0.1c0.1-0.1,0.1-0.1,0.1-0.1l-0.1,0c0.1-0.1,0.2-0.2,0.4-0.4l-0.2,0.2c0.1-0.1,0.2-0.1,0.3-0.3
			c-0.1,0.1-0.1,0.1-0.2,0.2c0.3-0.2,0.5-0.4,0.7-0.6c0.8-0.6,1.6-1.1,2.4-1.5c0,0-0.1,0-0.1,0c0.1-0.1,0.2-0.1,0.3-0.1
			c0.2-0.1,0.3-0.1,0.5-0.2c0.2-0.1,0.3-0.1,0.5-0.2c0.2-0.1,0.3-0.1,0.6-0.2c0,0,0,0-0.1,0.1c0.2-0.1,0.2-0.1,0.1-0.1
			c0.3-0.1,0.4-0.1,0.6-0.2l-0.4,0.2c0.2,0,0.2-0.1,0.4-0.2c0.4-0.1-0.2,0-0.1,0l0.2,0l-0.2,0c0.4-0.1,0.6-0.1,0.7-0.1l-0.3,0
			c-0.1,0.1,0.4-0.1,0.6-0.1l0,0c0.4-0.1-0.1,0,0.2-0.1l0.5,0l-0.1,0c0.1,0,0.4-0.1,0.6-0.1c0.2,0,0.5,0,0.7,0c0.3,0,0.6-0.1,1-0.1
			c-0.1,0-0.2,0-0.2,0c0.2,0,0.7,0,0.5,0l0.3,0c0.1,0,0.2,0,0.3,0l-0.1,0l0.4,0c0,0,0.1,0-0.1,0c0.2,0,0.4,0,0.7,0.1
			c0.3,0,0.5,0,0.8,0.1l-0.2,0c0.4,0,0.4,0.1,0.8,0.2l-0.1,0c0.3,0,0.8,0.2,0.7,0.2c0.1-0.1,0.2,0.1,0.3,0l0.1,0.1
			c0.2,0,0.4,0.1,0.3,0c0.3,0.1,0.5,0.2,0.7,0.2c0,0,0,0,0,0l0,0l0,0c0.1,0,0.3,0.1,0.2,0.1c0.3,0.1,0.4,0.2,0.5,0.2
			c0.1,0,0.1,0.1,0.4,0.2l0,0c0.2,0.1,0.4,0.2,0.6,0.3c0.1,0,0.2,0.1,0.3,0.1c0.1,0,0.2,0.1,0.3,0.1l0,0.1c0.2,0.1,0-0.1,0.3,0.1
			c0,0,0.1,0.1,0.1,0.1c0.2,0.1,0.3,0.2,0.5,0.4c0.2,0.2,0.4,0.3,0.6,0.5c0,0-0.1,0-0.1-0.1c0.1,0.1,0.2,0.2,0.4,0.3
			c0.1,0.1,0.3,0.2,0.4,0.3c0.5,0.5,1.1,1.2,1.6,1.9c0.5,0.5,0.8,0.8,1,0.8c0,0,0-0.1-0.1-0.2c0-0.1-0.1-0.2-0.2-0.4
			C299.8,20.7,299.6,20.4,299.3,20z"/>
	</g>
</g>
<g>
	<path class="st0" d="M58,30.9c0-9.4-7.6-17-17-17c-9.4,0-17,7.6-17,17c0,9.4,7.6,17,17,17C50.4,47.9,58,40.3,58,30.9z"/>
	<path class="st3" d="M55.7,30.9c0-8.1-6.6-14.7-14.7-14.7c-8.1,0-14.7,6.6-14.7,14.7c0,8.1,6.6,14.7,14.7,14.7
		C49.1,45.6,55.7,39,55.7,30.9z"/>
	<g>
		<path class="st4" d="M34.7,27.3h0.2v1.4c0,0.4-0.1,0.7-0.3,0.9c-0.2,0.2-0.5,0.3-0.8,0.3c-0.3,0-0.6-0.1-0.8-0.3
			c-0.2-0.2-0.3-0.5-0.3-0.8v-1.4h0.2v1.4c0,0.3,0.1,0.5,0.2,0.7c0.2,0.2,0.4,0.3,0.6,0.3c0.3,0,0.5-0.1,0.6-0.3
			c0.2-0.2,0.2-0.4,0.2-0.7V27.3z"/>
		<path class="st4" d="M36.6,27.3h0.7c0.3,0,0.5,0.1,0.6,0.2c0.1,0.1,0.2,0.3,0.2,0.5c0,0.3-0.2,0.5-0.5,0.6c0.1,0,0.2,0.2,0.3,0.4
			l0.6,0.9h-0.2l-0.5-0.7c-0.2-0.2-0.3-0.4-0.4-0.4c-0.1-0.1-0.2-0.1-0.4-0.1h-0.4v1.2h-0.2V27.3z M36.8,27.5v1h0.4
			c0.2,0,0.4,0,0.5-0.1c0.1-0.1,0.2-0.2,0.2-0.4c0-0.2-0.1-0.3-0.2-0.4c-0.1-0.1-0.3-0.1-0.5-0.1H36.8z"/>
		<path class="st4" d="M39.9,27.3h0.5c0.3,0,0.5,0.1,0.7,0.2c0.1,0.1,0.2,0.3,0.2,0.5c0,0.2-0.1,0.4-0.4,0.6
			c0.4,0.1,0.6,0.3,0.6,0.7c0,0.2-0.1,0.4-0.2,0.5c-0.2,0.1-0.4,0.2-0.6,0.2h-0.8V27.3z M40.1,27.5v1h0.3c0.5,0,0.7-0.2,0.7-0.5
			c0-0.3-0.2-0.5-0.7-0.5H40.1z M40.1,28.7v1h0.5c0.2,0,0.4,0,0.5-0.1c0.1-0.1,0.2-0.2,0.2-0.4c0-0.4-0.3-0.5-0.8-0.5H40.1z"/>
		<path class="st4" d="M44.2,27.3l1.2,2.6h-0.2L44.8,29h-1.3l-0.4,0.9h-0.2l1.2-2.6H44.2z M44.7,28.9l-0.6-1.2l-0.6,1.2H44.7z"/>
		<path class="st4" d="M49.2,27.3v2.6h-0.2l-2-2.2v2.2h-0.2v-2.6h0.2l2,2.2v-2.2H49.2z"/>
	</g>
	<g>
		<path class="st4" d="M45.5,34.2c0.2,0,0.3,0.1,0.4,0.2c0.1,0.1,0.2,0.2,0.2,0.4c0,0.1-0.1,0.3-0.2,0.4c-0.1,0.1-0.2,0.2-0.4,0.2
			c-0.2,0-0.3,0-0.4-0.2C45,35,45,34.9,45,34.7c0-0.1,0.1-0.3,0.2-0.4C45.2,34.3,45.4,34.2,45.5,34.2z M45.5,35.2
			c0.1,0,0.2,0,0.3-0.1c0.1-0.1,0.1-0.2,0.1-0.3c0-0.1,0-0.2-0.1-0.3c-0.1-0.1-0.2-0.1-0.3-0.1c-0.1,0-0.2,0-0.3,0.1
			c-0.1,0.1-0.1,0.2-0.1,0.3c0,0.1,0,0.2,0.1,0.3C45.3,35.1,45.4,35.2,45.5,35.2z"/>
		<path class="st4" d="M47.2,34.2c0.2,0,0.3,0.1,0.4,0.2c0.1,0.1,0.2,0.2,0.2,0.4c0,0.1-0.1,0.3-0.2,0.4c-0.1,0.1-0.2,0.2-0.4,0.2
			c-0.2,0-0.3,0-0.4-0.2c-0.1-0.1-0.2-0.2-0.2-0.4c0-0.1,0.1-0.3,0.2-0.4C46.9,34.3,47,34.2,47.2,34.2z M47.2,35.2
			c0.1,0,0.2,0,0.3-0.1c0.1-0.1,0.1-0.2,0.1-0.3c0-0.1,0-0.2-0.1-0.3c-0.1-0.1-0.2-0.1-0.3-0.1c-0.1,0-0.2,0-0.3,0.1
			c-0.1,0.1-0.1,0.2-0.1,0.3c0,0.1,0,0.2,0.1,0.3C46.9,35.1,47.1,35.2,47.2,35.2z"/>
		<path class="st4" d="M31.5,32.3v0.2c-0.2-0.1-0.4-0.2-0.6-0.2c-0.2,0-0.3,0-0.4,0.1c-0.1,0.1-0.2,0.2-0.2,0.4c0,0.1,0,0.2,0.1,0.3
			c0.1,0.1,0.2,0.2,0.4,0.2c0.2,0.1,0.4,0.1,0.4,0.2c0.1,0,0.2,0.1,0.2,0.2c0.1,0.1,0.1,0.2,0.1,0.4c0,0.2-0.1,0.4-0.2,0.5
			c-0.2,0.1-0.3,0.2-0.6,0.2c-0.2,0-0.4-0.1-0.7-0.2v-0.2c0.3,0.2,0.5,0.3,0.7,0.3c0.2,0,0.3-0.1,0.4-0.2c0.1-0.1,0.2-0.2,0.2-0.4
			c0-0.1,0-0.2-0.1-0.3c-0.1-0.1-0.2-0.2-0.4-0.3c-0.2-0.1-0.4-0.1-0.4-0.2c-0.1,0-0.2-0.1-0.2-0.2c-0.1-0.1-0.1-0.2-0.1-0.3
			c0-0.2,0.1-0.4,0.2-0.5c0.2-0.1,0.3-0.2,0.5-0.2C31,32.2,31.3,32.2,31.5,32.3z"/>
		<path class="st4" d="M35.1,32.2v0.2h-1v2.5h-0.2v-2.5h-1v-0.2H35.1z"/>
		<path class="st4" d="M37.3,32.2l1.2,2.6h-0.2l-0.4-0.9h-1.3l-0.4,0.9h-0.2l1.2-2.6H37.3z M37.8,33.8l-0.6-1.2l-0.6,1.2H37.8z"/>
		<path class="st4" d="M41.6,32.2v0.2h-1v2.5h-0.2v-2.5h-1v-0.2H41.6z"/>
		<path class="st4" d="M43.3,32.2v2.6H43v-2.6H43.3z"/>
		<path class="st4" d="M46.3,31.3c0.4,0,0.7,0.1,1,0.4c0.3,0.3,0.4,0.6,0.4,1c0,0.4-0.1,0.7-0.4,1c-0.3,0.3-0.6,0.4-1,0.4
			c-0.4,0-0.7-0.1-1-0.4c-0.3-0.3-0.4-0.6-0.4-1c0-0.4,0.1-0.7,0.4-1C45.6,31.5,45.9,31.3,46.3,31.3z M46.3,33.8
			c0.3,0,0.6-0.1,0.8-0.3c0.2-0.2,0.3-0.5,0.3-0.8c0-0.3-0.1-0.6-0.3-0.8c-0.2-0.2-0.5-0.3-0.8-0.3c-0.3,0-0.6,0.1-0.8,0.3
			c-0.2,0.2-0.3,0.5-0.3,0.8c0,0.3,0.1,0.6,0.3,0.8C45.7,33.7,46,33.8,46.3,33.8z"/>
		<path class="st4" d="M51.8,32.2v2.6h-0.2l-2-2.3v2.3h-0.2v-2.6h0.2l2,2.3v-2.3H51.8z"/>
	</g>
</g>
<g>
	<path class="st0" d="M39.2,84.1h2.2c1.3,0,1.5,0.6,1.5,1.6v4c0,1.1-0.3,1.6-1.6,1.6h-0.6v1.8h-1.6V84.1z M40.8,89.9h0.3
		c0.2,0,0.3-0.1,0.3-0.3v-3.7c0-0.2-0.1-0.3-0.3-0.3h-0.3V89.9z"/>
	<path class="st0" d="M49.1,91.6c0,0.2,0.1,0.3,0.3,0.3c0.2,0,0.3-0.2,0.3-0.4v-0.8c0-2.4-2.1-1.4-2.1-4.4v-0.7c0-1,0.4-1.7,1.8-1.7
		c1.4,0,1.8,0.7,1.8,1.7v1.4h-1.5v-1.4c0-0.2-0.1-0.3-0.3-0.3c-0.2,0-0.3,0.1-0.3,0.3v0.7c0,1.9,2.1,1.3,2.1,4.4v0.9
		c0,1-0.4,1.7-1.8,1.7c-1.4,0-1.8-0.7-1.8-1.7v-1.5h1.5V91.6z"/>
	<path class="st0" d="M32.7,84c-1.4,0-1.8,0.7-1.8,1.7v7.5h1.5v-1.8H33v1.8h1.5v-7.5C34.5,84.7,34,84,32.7,84 M32.3,90v-4.3
		c0-0.2,0.1-0.3,0.3-0.3c0.2,0,0.3,0.1,0.3,0.3V90H32.3z"/>
	<path class="st0" d="M45.3,84c-1.4,0-1.8,0.7-1.8,1.7v7.5H45v-1.8h0.7v1.8h1.5v-7.5C47.1,84.7,46.7,84,45.3,84 M45,90v-4.3
		c0-0.2,0.1-0.3,0.3-0.3c0.2,0,0.3,0.1,0.3,0.3V90H45z"/>
	<path class="st0" d="M36.8,84c-1.4,0-1.8,0.7-1.8,1.7v7.5h1.5v-1.8h0.7v1.8h1.5v-7.5C38.7,84.7,38.2,84,36.8,84 M36.5,90v-4.3
		c0-0.2,0.1-0.3,0.3-0.3c0.2,0,0.3,0.1,0.3,0.3V90H36.5z"/>
	<path class="st0" d="M41,72.3c-8.4,0-15.4,6.4-16.3,14.5l0,0.1c0,0.2,0.1,0.3,0.3,0.3h0h2.7h0c0.2,0,0.3-0.1,0.3-0.3l0,0
		C29,80.6,34.4,75.7,41,75.7c6.6,0,12,4.9,12.9,11.2l0,0c0,0.2,0.1,0.3,0.3,0.3h0H57h0c0.2,0,0.3-0.1,0.3-0.3l0-0.1
		C56.4,78.7,49.4,72.3,41,72.3"/>
	<path class="st0" d="M57.3,90.5L57.3,90.5c0-0.3-0.1-0.4-0.3-0.4h0h-2.7h0c-0.2,0-0.3,0.1-0.3,0.3l0,0c-0.9,6.4-6.3,11.2-12.9,11.2
		c-6.6,0-12-4.9-12.9-11.2l0,0c0-0.2-0.1-0.3-0.3-0.3h0H25h0c-0.2,0-0.3,0.1-0.3,0.3l0,0.1C25.6,98.6,32.6,105,41,105
		C49.4,105,56.4,98.6,57.3,90.5"/>
</g>
<path id="XMLID_582_" class="st0" d="M132.8,84.1c-0.1,0-0.2,0-0.2,0.1c-1.3,2.2-2,4.8-2,7.6c0,2.8,0.7,5.3,2,7.6
	c0,0.1,0.1,0.1,0.2,0.1c0,0,0,0,0,0c5.6-0.1,10.5-3.1,13.1-7.6c0-0.1,0-0.2,0-0.2C143.2,87.2,138.4,84.1,132.8,84.1z M132.9,99
	c-1.2-2.1-1.9-4.6-1.9-7.2c0-2.6,0.7-5.1,1.9-7.2c5.3,0.1,10,3,12.5,7.2C142.9,96,138.2,98.9,132.9,99z M133.6,85.4
	c-0.1,0-0.2,0.1-0.3,0.2c-1,1.8-1.6,4-1.6,6.2c0,2.3,0.6,4.4,1.6,6.2c0.1,0.1,0.2,0.2,0.3,0.2h0c4.6,0,8.6-2.5,10.8-6.2
	c0.1-0.1,0.1-0.2,0-0.3C142.2,87.9,138.2,85.4,133.6,85.4z M133.7,97.6c-0.9-1.7-1.5-3.7-1.5-5.8c0-2.1,0.5-4.1,1.5-5.8
	c4.3,0.1,8,2.4,10,5.8C141.7,95.2,138,97.5,133.7,97.6z M132,82.9c-0.1,0-0.1,0-0.1,0.1c-1.5,2.6-2.3,5.6-2.3,8.8
	c0,3.2,0.8,6.2,2.3,8.8c0,0.1,0.1,0.1,0.1,0.1h0c6.5-0.1,12.2-3.6,15.3-8.8c0-0.1,0-0.1,0-0.2C144.2,86.5,138.5,82.9,132,82.9z
	 M132.1,100.3c-1.4-2.5-2.2-5.5-2.2-8.6c0-3.1,0.8-6,2.2-8.6c6.3,0.1,11.8,3.5,14.9,8.6C143.9,96.8,138.4,100.2,132.1,100.3z
	 M134.3,86.8C134.3,86.8,134.3,86.8,134.3,86.8c-0.1,0-0.1,0-0.2,0.1c-0.8,1.4-1.3,3.1-1.3,4.9c0,1.8,0.5,3.4,1.3,4.9
	c0,0.1,0.1,0.1,0.1,0.1h0c3.6,0,6.8-2,8.4-4.9c0-0.1,0-0.1,0-0.2C141.1,88.8,137.9,86.8,134.3,86.8z M133.8,92.7l-0.1,0.1
	c-0.2-1.7,0.1-3.5,1-5c0,0,0,0,0,0c0,0,0.1-0.1,0.1-0.1c0.1,0,0.5,0,0.6,0.1C134.4,89.2,133.7,90.9,133.8,92.7z M134.8,95.9
	L134.8,95.9c-0.1,0-0.1,0-0.1-0.1c-0.1-0.1-0.2-0.5-0.3-0.6c1.8,0.2,3.7-0.1,5.1-1l0.1,0C138.3,95.3,136.6,95.9,134.8,95.9z
	 M141.9,91.7c0,0,0,0.1,0,0.1c-0.1,0.1-0.3,0.4-0.4,0.5c-0.8-1.7-1.9-3.1-3.4-4l-0.1-0.1C139.6,89,140.9,90.1,141.9,91.7
	C141.9,91.7,141.9,91.7,141.9,91.7z M175,96.4l-1.1,3h0.6l0.2-0.6h1l0.2,0.6h0.6l-1.1-3H175z M174.9,98.3l0.3-1.1h0l0.4,1.1H174.9z
	 M178,86.6c-1.6,0-2.7,0.6-2.7,2.5v2.9c0,1.7,1.3,2.3,2.7,2.3c1.7,0,2.7-0.9,2.6-2.7h-2c0,0.6,0,1.3-0.7,1.3c-0.4,0-0.6-0.4-0.6-0.8
	v-1.3h3.4v-2.1C180.7,87.2,179.4,86.6,178,86.6z M178.6,89.4h-1.4V89c0-0.5,0.1-1,0.7-1c0.5,0,0.7,0.5,0.7,0.7V89.4z M193.4,86.6
	c-1.6,0-2.7,0.6-2.7,2.5v2.9c0,1.7,1.3,2.3,2.7,2.3c1.7,0,2.7-0.9,2.6-2.7h-2c0,0.6,0,1.3-0.7,1.3c-0.4,0-0.6-0.4-0.6-0.8v-1.3h3.4
	v-2.1C196.1,87.2,194.8,86.6,193.4,86.6z M194.1,89.4h-1.4V89c0-0.5,0.1-1,0.7-1c0.5,0,0.7,0.5,0.7,0.7V89.4z M184.6,86.6
	c-0.6,0-1.2,0.6-1.4,1.1h0v-0.9h-1.9v7.2h2v-5.2c0-0.4,0.2-0.6,0.5-0.6c0.4,0,0.5,0.3,0.5,0.6v5.2h2v-5.9
	C186.4,87.2,185.5,86.6,184.6,86.6z M198.5,96.4c-0.9,0-1.4,0.7-1.4,1.5c0,0.9,0.6,1.5,1.4,1.5c0.9,0,1.4-0.7,1.4-1.5
	C200,97,199.4,96.4,198.5,96.4z M198.5,98.9c-0.6,0-0.9-0.6-0.9-1c0-0.5,0.3-0.9,0.9-0.9c0.5,0,0.9,0.5,0.9,0.9
	C199.4,98.3,199.2,98.9,198.5,98.9z M158.1,84.4h-2v1.7h2V84.4z M184.2,97.3c0-0.6-0.4-0.9-1-0.9h-0.8v2.9h0.6v-1.2h0l0.7,1.2h0.7
	l-0.8-1.2C184,98.1,184.2,97.7,184.2,97.3z M183.1,97.8L183.1,97.8l-0.1-0.9h0.1c0.3,0,0.5,0.1,0.5,0.4
	C183.7,97.7,183.5,97.8,183.1,97.8z M198.6,87.9L198.6,87.9l0-1.1h-1.9v7.2h2v-4.5c0-0.6,0.3-0.7,0.8-0.7c0.2,0,0.4,0,0.6,0.1v-2.3
	C199.3,86.6,198.8,87.2,198.6,87.9z M167.7,86.8h-2l-0.7,4.7h0l-0.7-4.7h-3.1v-2.4h-2v2.4h-0.8v1.5h0.8v4.2c0,1.1,0.6,1.7,1.7,1.7
	c0.4,0,0.9-0.1,1.3-0.1v-1.5c-0.2,0-0.3,0-0.5,0c-0.3,0-0.4-0.1-0.4-0.5v-3.8h1.4l1.1,5.1c0.1,0.3,0.2,0.9,0.2,1.2
	c0,0.3-0.4,0.4-0.6,0.4c-0.1,0-0.3,0-0.4-0.1v1.5c0.2,0,0.4,0.1,0.8,0.1c2.2,0,2.2-1.5,2.7-3.5L167.7,86.8z M174.6,91.5v-1.2h-2.2
	v0.9c0,0.6-0.1,1.4-0.8,1.4c-0.6,0-0.8-0.3-0.8-0.9l0-4.8c0-0.6,0.2-1,0.9-1c0.4,0,0.7,0.4,0.7,1.3v0.6h2.2V87c0-2-1.1-2.8-3-2.8
	c-2,0-3,1-3,3.1v4c0,2,0.8,3.1,2.8,3.1C173.7,94.3,174.6,93.1,174.6,91.5z M151.3,97.3c0-0.6-0.4-0.9-1-0.9h-0.8v2.9h0.6v-1.2h0
	l0.7,1.2h0.7l-0.8-1.2C151.1,98.1,151.3,97.7,151.3,97.3z M150.2,97.8L150.2,97.8l-0.1-0.9h0.1c0.3,0,0.5,0.1,0.5,0.4
	C150.7,97.7,150.5,97.8,150.2,97.8z M153.2,91.2c0,0.6-0.1,1.4-0.8,1.4c-0.6,0-0.8-0.3-0.8-0.9l0-4.8c0-0.6,0.2-1,0.9-1
	c0.4,0,0.7,0.4,0.7,1.3v0.6h2.2V87c0-2-1.1-2.8-3-2.8c-2,0-3,1-3,3.1v4c0,2,0.8,3.1,2.8,3.1c2.3,0,3.2-1.2,3.2-2.8v-1.2h-2.2V91.2z
	 M189.4,92.1v-3.8h1v-1.5h-1v-2.5h-2v2.5h-0.8v1.5h0.8v4.2c0,1.1,0.6,1.7,1.7,1.7c0.4,0,0.9-0.1,1.3-0.1l0-1.5c-0.2,0-0.3,0-0.5,0
	C189.6,92.7,189.4,92.6,189.4,92.1z M158.1,86.8h-2v7.2h2V86.8z M166.9,97.2c0-0.2,0.2-0.3,0.4-0.3c0.2,0,0.3,0.1,0.4,0.2l0.3-0.4
	c-0.2-0.2-0.5-0.3-0.8-0.3c-0.5,0-0.8,0.4-0.8,0.9c0,0.5,0.3,0.6,0.6,0.8c0.2,0.1,0.5,0.2,0.5,0.5c0,0.2-0.1,0.4-0.4,0.4
	c-0.2,0-0.4-0.2-0.5-0.4l-0.4,0.4c0.2,0.3,0.5,0.6,0.9,0.6c0.6,0,1-0.4,1-1C168,97.5,166.9,97.7,166.9,97.2z M158.8,96.4
	c-0.9,0-1.4,0.7-1.4,1.5c0,0.9,0.6,1.5,1.4,1.5c0.9,0,1.4-0.7,1.4-1.5C160.2,97,159.6,96.4,158.8,96.4z M158.8,98.9
	c-0.6,0-0.9-0.6-0.9-1c0-0.5,0.3-0.9,0.9-0.9c0.5,0,0.9,0.5,0.9,0.9C159.6,98.3,159.4,98.9,158.8,98.9z M190.5,99.4h0.6v-2.9h-0.6
	V99.4z"/>
<g>
	<path class="st0" d="M279.9,77.9c0.5,1.1,0,2.4-1.1,2.9c-1.1,0.5-2.4,0-2.9-1.1c-0.5-1.1,0-2.4,1.1-2.9
		C278.1,76.3,279.4,76.8,279.9,77.9"/>
	<path class="st0" d="M280.4,84.3c0.4,1,0,2.2-1,2.6c-1,0.4-2.2,0-2.6-1c-0.4-1,0-2.2,1-2.6C278.8,82.9,280,83.3,280.4,84.3"/>
	<path class="st0" d="M284.5,89.2c0.4,0.9,0,1.9-0.9,2.3c-0.9,0.4-1.9,0-2.3-0.9c-0.4-0.9,0-1.9,0.9-2.3
		C283,87.9,284.1,88.3,284.5,89.2"/>
	<path class="st0" d="M290.6,90.5c0.4,0.8,0,1.7-0.8,2.1c-0.8,0.4-1.7,0-2.1-0.8c-0.4-0.8,0-1.7,0.8-2.1
		C289.3,89.4,290.3,89.8,290.6,90.5"/>
	<path class="st0" d="M283.7,72.1c0.6,1.3,0,2.9-1.3,3.5c-1.3,0.6-2.9,0-3.5-1.3c-0.6-1.3,0-2.9,1.3-3.5
		C281.5,70.2,283.1,70.8,283.7,72.1"/>
	<path class="st0" d="M296,82.8c-0.5-1.1,0-2.4,1.1-2.9c1.1-0.5,2.4,0,2.9,1.1c0.5,1.1,0,2.4-1.1,2.9
		C297.8,84.4,296.5,83.9,296,82.8"/>
	<path class="st0" d="M295.5,76.5c-0.4-1,0-2.2,1-2.6c1-0.4,2.2,0,2.6,1c0.4,1,0,2.2-1,2.6C297.1,77.9,295.9,77.4,295.5,76.5"/>
	<path class="st0" d="M291.4,71.6c-0.4-0.9,0-1.9,0.9-2.3c0.9-0.4,1.9,0,2.3,0.9c0.4,0.9,0,1.9-0.9,2.3
		C292.9,72.9,291.8,72.5,291.4,71.6"/>
	<path class="st0" d="M285.3,70.2c-0.4-0.8,0-1.7,0.8-2.1c0.8-0.4,1.7,0,2.1,0.8c0.4,0.8,0,1.7-0.8,2.1
		C286.6,71.4,285.6,71,285.3,70.2"/>
	<path class="st0" d="M292.2,88.6c-0.6-1.3,0-2.9,1.3-3.5c1.3-0.6,2.9,0,3.5,1.3c0.6,1.3,0,2.9-1.3,3.5
		C294.4,90.6,292.8,90,292.2,88.6"/>
	<path class="st0" d="M289,77.3c-0.5,0.2-1,0-1.2-0.5c-0.2-0.5,0-1,0.5-1.2c0.5-0.2,1,0,1.2,0.5C289.6,76.5,289.4,77.1,289,77.3"/>
	<path class="st0" d="M286.3,77.5c-0.4,0.2-0.9,0-1.1-0.4c-0.2-0.4,0-0.9,0.4-1.1c0.4-0.2,0.9,0,1.1,0.4
		C286.9,76.8,286.7,77.3,286.3,77.5"/>
	<path class="st0" d="M284.3,79.2c-0.4,0.2-0.8,0-1-0.4c-0.2-0.4,0-0.8,0.4-1c0.4-0.2,0.8,0,1,0.4C284.8,78.6,284.6,79,284.3,79.2"
		/>
	<path class="st0" d="M283.7,81.7c-0.3,0.1-0.7,0-0.9-0.3c-0.1-0.3,0-0.7,0.3-0.9c0.3-0.1,0.7,0,0.9,0.3
		C284.2,81.2,284,81.6,283.7,81.7"/>
	<path class="st0" d="M291.4,78.8c-0.6,0.3-1.2,0-1.5-0.6c-0.3-0.6,0-1.2,0.6-1.5c0.6-0.3,1.2,0,1.5,0.6
		C292.2,77.9,292,78.6,291.4,78.8"/>
	<path class="st0" d="M286.9,84c0.5-0.2,1,0,1.2,0.5c0.2,0.5,0,1-0.5,1.2c-0.5,0.2-1,0-1.2-0.5C286.3,84.7,286.5,84.2,286.9,84"/>
	<path class="st0" d="M289.6,83.8c0.4-0.2,0.9,0,1.1,0.4c0.2,0.4,0,0.9-0.4,1.1c-0.4,0.2-0.9,0-1.1-0.4
		C289,84.5,289.2,84,289.6,83.8"/>
	<path class="st0" d="M291.6,82.1c0.4-0.2,0.8,0,1,0.4c0.2,0.4,0,0.8-0.4,1c-0.4,0.2-0.8,0-1-0.4C291.1,82.7,291.3,82.3,291.6,82.1"
		/>
	<path class="st0" d="M292.2,79.5c0.3-0.1,0.7,0,0.9,0.3c0.1,0.3,0,0.7-0.3,0.9c-0.3,0.1-0.7,0-0.9-0.3
		C291.7,80.1,291.9,79.7,292.2,79.5"/>
	<path class="st0" d="M284.5,82.4c0.6-0.3,1.2,0,1.5,0.6c0.3,0.6,0,1.2-0.6,1.5c-0.6,0.3-1.2,0-1.5-0.6
		C283.7,83.3,283.9,82.7,284.5,82.4"/>
	<path class="st0" d="M272.6,99.7c0,0.2,0,0.4-0.1,0.6c-0.1,0.2-0.2,0.3-0.4,0.5c-0.1,0.1-0.3,0.2-0.5,0.3c-0.2,0.1-0.4,0.1-0.6,0.1
		h-2.7v-5.6h2.8c0.2,0,0.4,0,0.5,0.1c0.2,0.1,0.3,0.2,0.4,0.3c0.1,0.1,0.2,0.3,0.3,0.5c0.1,0.2,0.1,0.3,0.1,0.5
		c0,0.3-0.1,0.5-0.2,0.8c-0.1,0.2-0.3,0.4-0.6,0.5c0.3,0.1,0.6,0.3,0.8,0.5C272.5,99,272.6,99.3,272.6,99.7 M269,96.2V98h1.8
		c0.1,0,0.2,0,0.3-0.1c0.1,0,0.2-0.1,0.3-0.2c0.1-0.1,0.1-0.2,0.2-0.3c0-0.1,0.1-0.2,0.1-0.4c0-0.1,0-0.3-0.1-0.4
		c0-0.1-0.1-0.2-0.2-0.3c-0.1-0.1-0.2-0.1-0.3-0.2s-0.2-0.1-0.3-0.1H269z M271.9,99.6c0-0.1,0-0.2-0.1-0.4c0-0.1-0.1-0.2-0.2-0.3
		c-0.1-0.1-0.2-0.2-0.3-0.2c-0.1-0.1-0.2-0.1-0.3-0.1h-2v1.9h1.9c0.1,0,0.3,0,0.4-0.1c0.1-0.1,0.2-0.1,0.3-0.2
		c0.1-0.1,0.1-0.2,0.2-0.3C271.9,99.8,271.9,99.7,271.9,99.6"/>
	<path class="st0" d="M277.6,100.4c-0.5,0.5-1.1,0.8-1.7,0.8c-0.4,0-0.7-0.1-1-0.2c-0.3-0.2-0.6-0.4-0.8-0.6
		c-0.2-0.3-0.4-0.6-0.5-0.9c-0.1-0.3-0.2-0.7-0.2-1.1c0-0.4,0.1-0.7,0.2-1.1c0.1-0.3,0.3-0.6,0.5-0.9c0.2-0.3,0.5-0.5,0.8-0.6
		c0.3-0.2,0.7-0.2,1-0.2c0.5,0,1,0.1,1.3,0.3c0.3,0.2,0.6,0.5,0.8,0.9l-0.5,0.4c-0.2-0.3-0.4-0.6-0.7-0.7c-0.3-0.2-0.6-0.2-0.9-0.2
		c-0.3,0-0.5,0.1-0.8,0.2c-0.2,0.1-0.4,0.3-0.6,0.5c-0.2,0.2-0.3,0.4-0.4,0.7c-0.1,0.3-0.1,0.5-0.1,0.8c0,0.3,0,0.6,0.1,0.8
		c0.1,0.3,0.2,0.5,0.4,0.7c0.2,0.2,0.4,0.4,0.6,0.5c0.2,0.1,0.5,0.2,0.8,0.2c0.6,0,1.2-0.3,1.6-0.9v-0.8h-1.2v-0.5h1.8v2.8h-0.6
		V100.4z"/>
	<path class="st0" d="M282.5,96.7c-0.1-0.1-0.1-0.1-0.3-0.2c-0.1-0.1-0.2-0.1-0.4-0.2c-0.1-0.1-0.3-0.1-0.4-0.1
		c-0.2,0-0.3-0.1-0.5-0.1c-0.4,0-0.8,0.1-1,0.2c-0.2,0.2-0.3,0.4-0.3,0.7c0,0.2,0,0.3,0.1,0.4c0.1,0.1,0.1,0.2,0.3,0.3
		c0.1,0.1,0.3,0.1,0.5,0.2c0.2,0.1,0.4,0.1,0.7,0.2c0.3,0.1,0.6,0.1,0.8,0.2c0.2,0.1,0.4,0.2,0.6,0.3c0.2,0.1,0.3,0.3,0.4,0.4
		s0.1,0.4,0.1,0.6c0,0.3-0.1,0.5-0.2,0.7c-0.1,0.2-0.2,0.4-0.4,0.5c-0.2,0.1-0.4,0.2-0.6,0.3c-0.2,0.1-0.5,0.1-0.8,0.1
		c-0.4,0-0.8-0.1-1.2-0.2c-0.4-0.1-0.7-0.3-1.1-0.6l0.3-0.6c0.1,0.1,0.2,0.2,0.3,0.3c0.1,0.1,0.3,0.2,0.5,0.2
		c0.2,0.1,0.4,0.1,0.6,0.2c0.2,0,0.4,0.1,0.6,0.1c0.4,0,0.7-0.1,0.9-0.2c0.2-0.1,0.3-0.4,0.3-0.6c0-0.2,0-0.3-0.1-0.4
		c-0.1-0.1-0.2-0.2-0.3-0.3c-0.1-0.1-0.3-0.1-0.5-0.2c-0.2-0.1-0.4-0.1-0.7-0.2c-0.3-0.1-0.5-0.1-0.7-0.2c-0.2-0.1-0.4-0.2-0.5-0.3
		c-0.1-0.1-0.3-0.2-0.3-0.4c-0.1-0.2-0.1-0.3-0.1-0.6c0-0.3,0-0.5,0.1-0.7c0.1-0.2,0.2-0.4,0.4-0.5c0.2-0.1,0.4-0.2,0.6-0.3
		c0.2-0.1,0.5-0.1,0.8-0.1c0.4,0,0.7,0.1,1,0.2c0.3,0.1,0.6,0.3,0.8,0.5L282.5,96.7z"/>
	<polygon class="st0" points="286.1,101.1 286.1,95.5 286.6,95.5 286.6,100.8 289.9,100.8 289.9,101.1 	"/>
	<path class="st0" d="M291.6,101.2c-0.2,0-0.4,0-0.5-0.1c-0.2-0.1-0.3-0.2-0.4-0.3c-0.1-0.1-0.2-0.2-0.3-0.4
		c-0.1-0.2-0.1-0.3-0.1-0.5c0-0.2,0-0.3,0.1-0.5c0.1-0.1,0.2-0.3,0.4-0.4c0.1-0.1,0.3-0.2,0.5-0.3c0.2-0.1,0.4-0.1,0.7-0.1
		c0.2,0,0.4,0,0.7,0.1c0.2,0,0.4,0.1,0.6,0.2v-0.4c0-0.4-0.1-0.7-0.3-0.9c-0.2-0.2-0.5-0.3-0.9-0.3c-0.2,0-0.4,0-0.6,0.1
		c-0.2,0.1-0.5,0.2-0.7,0.4l-0.1-0.3c0.5-0.4,1-0.5,1.5-0.5c0.5,0,0.9,0.1,1.2,0.4c0.3,0.3,0.4,0.7,0.4,1.2v2c0,0.1,0.1,0.2,0.2,0.2
		v0.4c0,0-0.1,0-0.1,0c0,0-0.1,0-0.1,0c-0.1,0-0.2,0-0.3-0.1c-0.1-0.1-0.1-0.2-0.1-0.3v-0.3c-0.2,0.2-0.4,0.4-0.7,0.6
		C292.3,101.2,292,101.2,291.6,101.2 M291.7,100.9c0.3,0,0.6-0.1,0.8-0.2c0.3-0.1,0.5-0.3,0.6-0.5c0.1-0.1,0.1-0.2,0.1-0.3v-0.7
		c-0.2-0.1-0.4-0.1-0.6-0.2S292.2,99,292,99c-0.2,0-0.4,0-0.6,0.1c-0.2,0-0.3,0.1-0.4,0.2c-0.1,0.1-0.2,0.2-0.3,0.3
		c-0.1,0.1-0.1,0.2-0.1,0.4c0,0.1,0,0.3,0.1,0.4c0.1,0.1,0.1,0.2,0.2,0.3c0.1,0.1,0.2,0.2,0.3,0.2S291.5,100.9,291.7,100.9"/>
	<path class="st0" d="M296.6,100.9c0,0-0.1,0-0.1,0.1c0,0-0.1,0.1-0.2,0.1c-0.1,0-0.2,0-0.3,0.1c-0.1,0-0.2,0-0.3,0
		c-0.1,0-0.2,0-0.3,0c-0.1,0-0.2-0.1-0.3-0.1c-0.1-0.1-0.1-0.1-0.2-0.2c0-0.1-0.1-0.2-0.1-0.3v-3.1h-0.6V97h0.6v-1.4h0.4V97h1v0.3
		h-1v3c0,0.2,0.1,0.3,0.2,0.3c0.1,0.1,0.2,0.1,0.4,0.1c0.2,0,0.3,0,0.4-0.1c0.1-0.1,0.2-0.1,0.2-0.1L296.6,100.9z"/>
	<path class="st0" d="M298.3,101.2c-0.2,0-0.4,0-0.5-0.1c-0.2-0.1-0.3-0.2-0.4-0.3c-0.1-0.1-0.2-0.2-0.3-0.4
		c-0.1-0.2-0.1-0.3-0.1-0.5c0-0.2,0-0.3,0.1-0.5c0.1-0.1,0.2-0.3,0.4-0.4c0.1-0.1,0.3-0.2,0.5-0.3c0.2-0.1,0.4-0.1,0.7-0.1
		c0.2,0,0.4,0,0.7,0.1c0.2,0,0.4,0.1,0.6,0.2v-0.4c0-0.4-0.1-0.7-0.3-0.9c-0.2-0.2-0.5-0.3-0.9-0.3c-0.2,0-0.4,0-0.6,0.1
		c-0.2,0.1-0.5,0.2-0.7,0.4l-0.1-0.3c0.5-0.4,1-0.5,1.5-0.5c0.5,0,0.9,0.1,1.2,0.4c0.3,0.3,0.4,0.7,0.4,1.2v2c0,0.1,0.1,0.2,0.2,0.2
		v0.4c0,0-0.1,0-0.1,0c0,0-0.1,0-0.1,0c-0.1,0-0.2,0-0.3-0.1c-0.1-0.1-0.1-0.2-0.1-0.3v-0.3c-0.2,0.2-0.4,0.4-0.7,0.6
		C299,101.2,298.7,101.2,298.3,101.2 M298.4,100.9c0.3,0,0.6-0.1,0.8-0.2c0.3-0.1,0.5-0.3,0.6-0.5c0.1-0.1,0.1-0.2,0.1-0.3v-0.7
		c-0.2-0.1-0.4-0.1-0.6-0.2c-0.2,0-0.4-0.1-0.6-0.1c-0.2,0-0.4,0-0.6,0.1c-0.2,0-0.3,0.1-0.4,0.2c-0.1,0.1-0.2,0.2-0.3,0.3
		c-0.1,0.1-0.1,0.2-0.1,0.4c0,0.1,0,0.3,0.1,0.4c0.1,0.1,0.1,0.2,0.2,0.3c0.1,0.1,0.2,0.2,0.3,0.2S298.3,100.9,298.4,100.9"/>
	<path class="st0" d="M307.6,101.1h-0.4v-2.3c0-0.5-0.1-0.9-0.2-1.2c-0.2-0.2-0.4-0.4-0.7-0.4c-0.2,0-0.3,0-0.5,0.1
		c-0.2,0.1-0.3,0.2-0.4,0.3c-0.1,0.1-0.2,0.2-0.3,0.4c-0.1,0.2-0.2,0.3-0.2,0.5v2.5h-0.4v-2.3c0-0.5-0.1-0.9-0.2-1.2
		c-0.2-0.2-0.4-0.4-0.7-0.4c-0.2,0-0.3,0-0.5,0.1c-0.1,0.1-0.3,0.1-0.4,0.3c-0.1,0.1-0.2,0.2-0.3,0.4c-0.1,0.2-0.2,0.3-0.2,0.5v2.5
		h-0.4V97h0.4v1c0.2-0.3,0.4-0.6,0.7-0.8c0.3-0.2,0.6-0.3,0.9-0.3c0.3,0,0.6,0.1,0.8,0.3c0.2,0.2,0.3,0.5,0.4,0.8
		c0.4-0.7,0.9-1.1,1.6-1.1c0.4,0,0.8,0.2,1,0.5c0.2,0.3,0.3,0.8,0.3,1.3V101.1z"/>
</g>
</svg>
