<?xml version="1.0" encoding="utf-8"?>
<!-- Generator: Adobe Illustrator 24.3.0, SVG Export Plug-In . SVG Version: 6.00 Build 0)  -->
<svg version="1.1" id="Layer_1" xmlns="http://www.w3.org/2000/svg" xmlns:xlink="http://www.w3.org/1999/xlink" x="0px" y="0px"
	 viewBox="0 0 329.2 123.9" style="enable-background:new 0 0 329.2 123.9;" xml:space="preserve">
<style type="text/css">
	.st0{fill:#575756;}
	.st1{fill-rule:evenodd;clip-rule:evenodd;fill:#575756;}
</style>
<path id="XMLID_1077_" class="st0" d="M162.4,29.3l-0.2,1.7c-0.3-0.1-0.6-0.2-0.9-0.2c-0.7,0-1.3,0.3-1.7,0.9v5l-1.8,0v-7.3h1.2
	l0.4,0.8c0.5-0.5,1.1-1,2-1C161.8,29.1,162.1,29.2,162.4,29.3z M189.1,30.1l-0.4-0.8h-1.2v7.3l1.8,0v-5c0.4-0.5,1-0.9,1.7-0.9
	c0.3,0,0.6,0,0.9,0.2l0.2-1.7c-0.3-0.1-0.6-0.1-0.9-0.1C190.2,29.1,189.6,29.6,189.1,30.1z M153.7,29.1c-0.8,0-1.6,0.3-2.2,0.9v-4.7
	l-1.8,0.4v10.9h1.8v-4.9c0.4-0.5,1.1-1,1.7-1c1.1,0,1.7,0.7,1.7,2.3c0,1.4,0,3.6,0,3.6h1.7V33C156.7,30.8,155.8,29.1,153.7,29.1z
	 M146,35.1c-1.1,0-2.1-0.9-2.1-2.2c0-1.3,0.9-2.1,2-2.1c0.6,0,1.3,0.3,1.7,0.9l1.3-1.1c-0.7-0.9-1.7-1.5-3-1.5
	c-2.2,0-3.8,1.7-3.8,3.8c0,2.3,1.7,3.8,3.8,3.8c1.2,0,2.4-0.6,3.1-1.4l-1.3-1.1C147.3,34.9,146.8,35.1,146,35.1z M138.5,30.3
	c-0.2,0-0.6-0.2-0.9-0.2c-1.1-0.2-1.7-0.6-1.7-1.3c0-0.7,0.7-1.3,1.7-1.3c0.9,0,1.6,0.5,2.2,1.3l1.3-1.2c-0.7-0.9-1.7-1.8-3.5-1.8
	c-2,0-3.6,1.4-3.6,3.2c0,1.4,0.9,2.4,2.8,2.9c0.3,0.1,0.7,0.2,1,0.2c1.2,0.3,1.7,0.8,1.7,1.5c0,0.9-0.8,1.4-1.7,1.4
	c-0.8,0-1.8-0.3-2.4-1.5l-1.5,0.9c0.5,1.2,1.9,2.4,3.9,2.4c2.2,0,3.8-1.5,3.8-3.2C141.4,31.9,140.4,30.8,138.5,30.3z M195.7,32.2
	c-1-0.2-1.6-0.5-1.6-0.9c0-0.4,0.5-0.7,1.1-0.7c0.6,0,1.3,0.4,1.6,0.9l1.1-1c-0.4-0.7-1.4-1.3-2.7-1.3c-1.4,0-2.8,0.9-2.8,2.2
	c0,1.3,1,1.9,2.8,2.3c0.7,0.2,1.2,0.4,1.2,0.9c0,0.4-0.4,0.8-1.1,0.8c-0.8,0-1.5-0.3-2-1l-1.1,1c0.6,1,1.9,1.5,3.2,1.5
	c1.5,0,2.7-1,2.7-2.3C198,33.2,196.9,32.5,195.7,32.2z M162.3,33c0,2,1.5,3.7,3.6,3.8v-1.6c-1.1-0.2-1.8-1.1-1.8-2.2
	c0-1.2,0.8-2,1.8-2.2v-1.6C163.9,29.3,162.3,31,162.3,33z M166.7,29.1v1.6c1,0.2,1.8,1,1.8,2.2c0,1.1-0.7,2-1.8,2.2v1.6
	c2.1-0.2,3.6-1.8,3.6-3.8C170.2,31,168.7,29.3,166.7,29.1z M178.4,34.8l0.4,1.9h-1.6l-0.4-0.7c-0.6,0.5-1.3,0.9-2.3,0.9
	c-2.1,0-3.6-1.7-3.6-3.8c0-2.2,1.7-3.8,3.7-3.8c0.7,0,1.4,0.3,1.9,0.7v-4.1l1.8-0.4V34.8z M176.7,31.4c-0.4-0.4-1-0.7-1.8-0.7
	c-1.2,0-2.1,1-2.1,2.2c0,1.4,1,2.3,2.1,2.3c0.7,0,1.3-0.3,1.8-0.8V31.4z M186.6,33c0,0.2,0,0.5,0,0.5h-5.5c0.1,1.1,1,1.8,2.1,1.8
	c0.8,0,1.4-0.3,1.9-0.9l1.2,1c-0.7,0.9-1.8,1.4-3.1,1.4c-2.1,0-3.8-1.6-3.8-3.9c0-2.1,1.6-3.8,3.7-3.8
	C185.1,29.1,186.6,30.8,186.6,33z M184.8,32.2c-0.1-0.7-0.8-1.5-1.8-1.5c-0.9,0-1.6,0.6-1.8,1.5H184.8z"/>
<g>
	<path class="st0" d="M31.3,18c0,0.1,0.1,0.2,0.2,0.2c0.1,0.1,0.2,0.1,0.3,0.1c0.1,0,0.2,0,0.3,0c0.1,0,0.2,0,0.3,0
		c0.1,0,0.2,0,0.3-0.1c0.1,0,0.1-0.1,0.2-0.2c0.1-0.1,0.1-0.2,0.1-0.3c0-0.1,0-0.2-0.1-0.3c-0.1-0.1-0.2-0.1-0.3-0.2
		c-0.1,0-0.2-0.1-0.4-0.1c-0.1,0-0.3-0.1-0.4-0.1c-0.2,0-0.3-0.1-0.4-0.1C31.2,17,31,17,30.9,16.9c-0.1-0.1-0.2-0.2-0.3-0.3
		c-0.1-0.1-0.1-0.3-0.1-0.5c0-0.2,0-0.4,0.1-0.5c0.1-0.2,0.2-0.3,0.4-0.4c0.1-0.1,0.3-0.2,0.5-0.2c0.2,0,0.4-0.1,0.6-0.1
		c0.2,0,0.4,0,0.6,0.1c0.2,0,0.4,0.1,0.5,0.2c0.2,0.1,0.3,0.2,0.4,0.4c0.1,0.2,0.1,0.4,0.1,0.6h-0.9c0-0.1,0-0.2-0.1-0.3
		c0-0.1-0.1-0.1-0.2-0.2c-0.1,0-0.2-0.1-0.2-0.1c-0.1,0-0.2,0-0.3,0c-0.1,0-0.1,0-0.2,0c-0.1,0-0.1,0-0.2,0.1
		c-0.1,0-0.1,0.1-0.1,0.1c0,0.1-0.1,0.1-0.1,0.2c0,0.1,0,0.1,0,0.2c0,0,0.1,0.1,0.2,0.1c0.1,0,0.2,0.1,0.4,0.1
		c0.2,0,0.4,0.1,0.6,0.2c0.1,0,0.2,0,0.3,0.1c0.1,0,0.3,0.1,0.4,0.2c0.1,0.1,0.2,0.2,0.3,0.4c0.1,0.1,0.1,0.3,0.1,0.6
		c0,0.2,0,0.4-0.1,0.5c-0.1,0.2-0.2,0.3-0.3,0.4c-0.1,0.1-0.3,0.2-0.5,0.3c-0.2,0.1-0.5,0.1-0.7,0.1c-0.2,0-0.4,0-0.7-0.1
		c-0.2-0.1-0.4-0.1-0.6-0.3c-0.2-0.1-0.3-0.3-0.4-0.5c-0.1-0.2-0.1-0.4-0.1-0.7h0.9C31.3,17.8,31.3,17.9,31.3,18"/>
	<path class="st0" d="M34.3,14.9h0.8v0.7h-0.8V14.9z M35.1,19h-0.8v-3h0.8V19z"/>
	<path class="st0" d="M36.5,18.3c0,0.1,0.1,0.1,0.1,0.2c0.1,0,0.1,0.1,0.2,0.1c0.1,0,0.2,0,0.2,0c0.1,0,0.1,0,0.2,0
		c0.1,0,0.1,0,0.2-0.1c0.1,0,0.1-0.1,0.1-0.1c0,0,0.1-0.1,0.1-0.2c0-0.1-0.1-0.2-0.2-0.3c-0.2-0.1-0.4-0.1-0.7-0.2
		c-0.1,0-0.2-0.1-0.3-0.1c-0.1,0-0.2-0.1-0.3-0.1c-0.1-0.1-0.2-0.1-0.2-0.2c-0.1-0.1-0.1-0.2-0.1-0.3c0-0.2,0-0.3,0.1-0.5
		c0.1-0.1,0.2-0.2,0.3-0.3c0.1-0.1,0.3-0.1,0.4-0.1c0.2,0,0.3,0,0.5,0s0.3,0,0.5,0c0.2,0,0.3,0.1,0.4,0.2c0.1,0.1,0.2,0.2,0.3,0.3
		c0.1,0.1,0.1,0.3,0.1,0.5h-0.8c0-0.2-0.1-0.3-0.2-0.3c-0.1-0.1-0.2-0.1-0.4-0.1c0,0-0.1,0-0.1,0c-0.1,0-0.1,0-0.1,0
		c0,0-0.1,0-0.1,0.1c0,0,0,0.1,0,0.1c0,0.1,0,0.1,0.1,0.2c0.1,0,0.1,0.1,0.2,0.1c0.1,0,0.2,0.1,0.3,0.1c0.1,0,0.2,0,0.3,0.1
		c0.1,0,0.2,0.1,0.3,0.1c0.1,0,0.2,0.1,0.3,0.2c0.1,0.1,0.2,0.1,0.2,0.2c0.1,0.1,0.1,0.2,0.1,0.3c0,0.2,0,0.4-0.1,0.5
		c-0.1,0.1-0.2,0.2-0.3,0.3c-0.1,0.1-0.3,0.1-0.4,0.2c-0.2,0-0.3,0-0.5,0c-0.2,0-0.3,0-0.5-0.1c-0.2,0-0.3-0.1-0.4-0.2
		c-0.1-0.1-0.2-0.2-0.3-0.3c-0.1-0.1-0.1-0.3-0.1-0.5h0.8C36.4,18.2,36.4,18.2,36.5,18.3"/>
	<path class="st0" d="M40.5,16.1v0.5h-0.6v1.5c0,0.1,0,0.2,0.1,0.3c0,0,0.1,0.1,0.3,0.1c0,0,0.1,0,0.1,0c0,0,0.1,0,0.1,0V19
		c-0.1,0-0.1,0-0.2,0c-0.1,0-0.2,0-0.2,0c-0.1,0-0.2,0-0.4,0c-0.1,0-0.2-0.1-0.3-0.1c-0.1,0-0.2-0.1-0.2-0.2c0-0.1-0.1-0.2-0.1-0.4
		v-1.7h-0.5v-0.5h0.5v-0.9h0.8v0.9H40.5z"/>
	<path class="st0" d="M41.7,18.3c0.1,0.1,0.3,0.2,0.5,0.2c0.2,0,0.3,0,0.4-0.1c0.1-0.1,0.2-0.2,0.2-0.3h0.7
		c-0.1,0.4-0.3,0.6-0.5,0.8c-0.2,0.2-0.5,0.2-0.9,0.2c-0.2,0-0.4,0-0.6-0.1c-0.2-0.1-0.3-0.2-0.5-0.3c-0.1-0.1-0.2-0.3-0.3-0.5
		c-0.1-0.2-0.1-0.4-0.1-0.6c0-0.2,0-0.4,0.1-0.6c0.1-0.2,0.2-0.4,0.3-0.5c0.1-0.1,0.3-0.3,0.5-0.3C41.8,16,42,16,42.2,16
		c0.3,0,0.5,0,0.7,0.1c0.2,0.1,0.3,0.2,0.5,0.4c0.1,0.2,0.2,0.4,0.3,0.6c0.1,0.2,0.1,0.4,0.1,0.7h-2.1C41.6,18,41.6,18.2,41.7,18.3
		 M42.7,16.8c-0.1-0.1-0.2-0.2-0.4-0.2c-0.1,0-0.2,0-0.3,0.1c-0.1,0-0.2,0.1-0.2,0.2c-0.1,0.1-0.1,0.1-0.1,0.2c0,0.1,0,0.1,0,0.2
		h1.3C42.8,17,42.8,16.9,42.7,16.8"/>
	<path class="st0" d="M44.8,16.1v0.4h0c0.1-0.2,0.2-0.3,0.4-0.4c0.2-0.1,0.3-0.1,0.5-0.1c0.2,0,0.4,0,0.5,0.1
		c0.2,0.1,0.3,0.2,0.4,0.4c0.1-0.1,0.2-0.2,0.4-0.3c0.2-0.1,0.3-0.1,0.5-0.1c0.2,0,0.3,0,0.4,0.1c0.1,0,0.2,0.1,0.3,0.2
		c0.1,0.1,0.2,0.2,0.2,0.3c0.1,0.1,0.1,0.3,0.1,0.5v2h-0.8v-1.7c0-0.1,0-0.2,0-0.3c0-0.1,0-0.2-0.1-0.2c0-0.1-0.1-0.1-0.2-0.2
		c-0.1,0-0.2-0.1-0.3-0.1c-0.1,0-0.2,0-0.3,0.1c-0.1,0-0.1,0.1-0.2,0.2c0,0.1-0.1,0.2-0.1,0.2c0,0.1,0,0.2,0,0.3V19h-0.8v-1.7
		c0-0.1,0-0.2,0-0.3c0-0.1,0-0.2,0-0.2c0-0.1-0.1-0.1-0.1-0.2c-0.1,0-0.2-0.1-0.3-0.1c0,0-0.1,0-0.2,0c-0.1,0-0.1,0-0.2,0.1
		C45,16.8,45,16.9,45,17c0,0.1-0.1,0.2-0.1,0.4V19h-0.8v-3H44.8z"/>
	<path class="st0" d="M49.4,16.5c0.1-0.1,0.2-0.2,0.3-0.3c0.1-0.1,0.3-0.1,0.4-0.2c0.2,0,0.3,0,0.5,0c0.1,0,0.3,0,0.5,0
		c0.2,0,0.3,0.1,0.4,0.1c0.1,0.1,0.2,0.1,0.3,0.3c0.1,0.1,0.1,0.3,0.1,0.4v1.5c0,0.1,0,0.3,0,0.4c0,0.1,0,0.2,0.1,0.3h-0.8
		c0,0,0-0.1,0-0.1c0,0,0-0.1,0-0.1C51,18.9,50.9,19,50.7,19c-0.2,0.1-0.4,0.1-0.5,0.1c-0.1,0-0.3,0-0.4-0.1c-0.1,0-0.2-0.1-0.3-0.2
		c-0.1-0.1-0.2-0.2-0.2-0.3c-0.1-0.1-0.1-0.2-0.1-0.4c0-0.2,0-0.3,0.1-0.4c0.1-0.1,0.1-0.2,0.2-0.3c0.1-0.1,0.2-0.1,0.3-0.1
		c0.1,0,0.2-0.1,0.4-0.1c0.1,0,0.2,0,0.4,0c0.1,0,0.2,0,0.3-0.1c0.1,0,0.2-0.1,0.2-0.1c0.1,0,0.1-0.1,0.1-0.2c0-0.1,0-0.2,0-0.2
		c0-0.1-0.1-0.1-0.1-0.1c0,0-0.1,0-0.2-0.1c-0.1,0-0.1,0-0.2,0c-0.2,0-0.3,0-0.4,0.1C50.1,16.7,50,16.8,50,17h-0.8
		C49.2,16.8,49.3,16.6,49.4,16.5 M51,17.6c-0.1,0-0.1,0-0.2,0c-0.1,0-0.1,0-0.2,0c-0.1,0-0.1,0-0.2,0c-0.1,0-0.1,0-0.2,0
		c-0.1,0-0.1,0-0.2,0.1c0,0-0.1,0.1-0.1,0.1c0,0,0,0.1,0,0.2c0,0.1,0,0.1,0,0.2c0,0,0.1,0.1,0.1,0.1c0,0,0.1,0,0.2,0.1
		c0.1,0,0.1,0,0.2,0c0.2,0,0.3,0,0.4-0.1c0.1-0.1,0.2-0.1,0.2-0.2c0-0.1,0.1-0.2,0.1-0.2c0-0.1,0-0.1,0-0.2v-0.3
		C51.1,17.6,51,17.6,51,17.6"/>
	<rect x="29.6" y="45.5" class="st0" width="22.9" height="1.4"/>
	<path class="st0" d="M36.2,25.7H41c1.2,0,2.7,0,3.5,0.5c0.9,0.5,1.5,1.4,1.5,2.7c0,1.4-0.7,2.4-1.9,2.9v0c1.6,0.3,2.5,1.5,2.5,3.1
		c0,1.9-1.4,3.7-4,3.7h-6.3V25.7z M38,31.3h3.5c2,0,2.8-0.7,2.8-2.1c0-1.8-1.3-2.1-2.8-2.1H38V31.3z M38,37.3h4.3
		c1.5,0,2.4-0.9,2.4-2.3c0-1.7-1.4-2.2-2.8-2.2h-4V37.3z"/>
	<path class="st0" d="M50.9,32.2c0,5.5-4.4,9.9-9.9,9.9c-5.5,0-9.9-4.4-9.9-9.9c0-5.5,4.4-9.9,9.9-9.9
		C46.5,22.3,50.9,26.7,50.9,32.2 M41,20.8c-6.3,0-11.4,5.1-11.4,11.4c0,6.3,5.1,11.4,11.4,11.4c6.3,0,11.4-5.1,11.4-11.4
		C52.4,25.9,47.3,20.8,41,20.8"/>
	<path class="st0" d="M52.4,40.6c0-0.1,0.1-0.1,0.1-0.2c0.1,0,0.1-0.1,0.2-0.1c0.1,0,0.1,0,0.2,0c0.1,0,0.1,0,0.2,0
		c0.1,0,0.1,0.1,0.2,0.1c0.1,0,0.1,0.1,0.1,0.2c0,0.1,0,0.1,0,0.2c0,0.1,0,0.2,0,0.2c0,0.1-0.1,0.1-0.1,0.2c0,0.1-0.1,0.1-0.2,0.1
		c-0.1,0-0.1,0-0.2,0c-0.1,0-0.1,0-0.2,0c-0.1,0-0.1-0.1-0.2-0.1c0,0-0.1-0.1-0.1-0.2c0-0.1,0-0.1,0-0.2
		C52.4,40.7,52.4,40.7,52.4,40.6 M52.5,41c0,0.1,0.1,0.1,0.1,0.2c0,0,0.1,0.1,0.1,0.1c0.1,0,0.1,0,0.2,0c0.1,0,0.1,0,0.2,0
		c0.1,0,0.1-0.1,0.1-0.1c0,0,0.1-0.1,0.1-0.2c0-0.1,0-0.1,0-0.2c0-0.1,0-0.1,0-0.2c0-0.1-0.1-0.1-0.1-0.1c0,0-0.1-0.1-0.1-0.1
		c-0.1,0-0.1,0-0.2,0c-0.1,0-0.1,0-0.2,0c-0.1,0-0.1,0.1-0.1,0.1c0,0-0.1,0.1-0.1,0.1c0,0.1,0,0.1,0,0.2C52.5,40.9,52.5,41,52.5,41
		 M53,40.5c0.1,0,0.1,0,0.2,0c0,0,0.1,0.1,0.1,0.1c0,0.1,0,0.1,0,0.1c0,0-0.1,0-0.1,0l0.2,0.3h-0.1L53,40.9h-0.1v0.3h-0.1v-0.6H53z
		 M52.9,40.8C53,40.8,53,40.8,52.9,40.8c0.1,0,0.1,0,0.1,0c0,0,0,0,0,0c0,0,0,0,0-0.1c0,0,0,0,0-0.1c0,0,0,0,0,0c0,0,0,0,0,0
		c0,0,0,0-0.1,0h-0.1v0.2H52.9z"/>
</g>
<g>
	<g>
		<path class="st0" d="M281.2,18.7c-0.2-0.2-0.4-0.4-0.8-0.5C280,18,279.6,18,279,18c-0.5,0-0.8,0-1.1,0.1c-0.2,0.1-0.4,0.2-0.6,0.3
			c-0.2-0.1-0.4-0.2-0.6-0.3c-0.3-0.1-0.7-0.1-1.1-0.1c-0.6,0-1,0.1-1.4,0.2c-0.3,0.1-0.6,0.3-0.8,0.5c-0.2,0.2-0.3,0.4-0.4,0.7
			c0,0.2-0.1,0.4-0.1,0.5v8.5h1.7v-8.3c0-0.1,0-0.1,0-0.2c0,0,0-0.1,0.1-0.2c0.1-0.1,0.1-0.1,0.2-0.1c0.1,0,0.3-0.1,0.5-0.1
			c0.2,0,0.4,0,0.5,0.1c0.1,0,0.2,0.1,0.3,0.2c0,0,0.1,0.1,0.1,0.1c0,0.1,0,0.1,0,0.2v8.3h1.7v-8.3c0-0.1,0-0.1,0-0.2
			c0-0.1,0-0.1,0.1-0.1c0-0.1,0.1-0.1,0.2-0.1c0.1,0,0.3-0.1,0.5-0.1c0.2,0,0.4,0,0.5,0.1c0.1,0,0.2,0.1,0.3,0.1
			c0,0,0.1,0.1,0.1,0.1c0,0.1,0,0.1,0,0.2v8.3h1.7v-8.5c0-0.1,0-0.3-0.1-0.5C281.5,19.2,281.3,18.9,281.2,18.7z"/>
		<path class="st0" d="M283.3,18.2c-0.2,0.1-0.4,0.3-0.6,0.4c-0.1,0.2-0.3,0.4-0.3,0.6c-0.1,0.2-0.1,0.4-0.1,0.6v6.7
			c0,0.2,0,0.4,0.1,0.6c0.1,0.2,0.2,0.4,0.3,0.6c0.1,0.2,0.3,0.3,0.6,0.4c0.2,0.1,0.5,0.2,0.8,0.2h2.9v-1.5h-2.5
			c-0.2,0-0.3,0-0.3-0.1c-0.1-0.1-0.1-0.2-0.1-0.4V24h2.4v-1.6H284v-2.3c0-0.2,0-0.3,0.1-0.4c0.1-0.1,0.2-0.1,0.3-0.1h2.5v-1.5h-2.9
			C283.8,18.1,283.6,18.1,283.3,18.2z"/>
		<polygon class="st0" points="287.6,19.6 289.3,19.6 289.3,28.4 291,28.4 291,19.6 292.7,19.6 292.7,18.1 287.6,18.1 		"/>
		<path class="st0" d="M298,23.1c0.2-0.3,0.3-0.6,0.3-1v-2.2c0-0.1,0-0.3-0.1-0.5c0-0.2-0.2-0.5-0.3-0.7c-0.2-0.2-0.4-0.4-0.8-0.5
			c-0.3-0.1-0.8-0.2-1.4-0.2c-0.6,0-1,0.1-1.4,0.2c-0.3,0.1-0.6,0.3-0.8,0.5c-0.2,0.2-0.3,0.4-0.3,0.7c0,0.2-0.1,0.4-0.1,0.5v8.5
			h1.7v-3.5c0-0.1,0-0.1,0.1-0.2c0-0.1,0.1-0.1,0.1-0.1c0.1,0,0.2-0.1,0.3-0.1l0.2-0.1c0.1,0,0.2,0,0.2-0.1l1.4,4.1h1.8l-1.6-4.7
			C297.6,23.5,297.8,23.3,298,23.1z M295.6,19.5c0.2,0,0.4,0,0.5,0.1c0.1,0,0.2,0.1,0.3,0.2c0,0,0.1,0.1,0.1,0.1c0,0.1,0,0.1,0,0.2
			v1.9c0,0,0,0.2-0.1,0.3c0,0.1-0.1,0.1-0.3,0.2c0,0-0.1,0-0.1,0l-0.2,0.1c-0.1,0-0.2,0.1-0.4,0.1c-0.1,0-0.3,0.1-0.4,0.1
			c-0.1,0-0.2,0.1-0.3,0.1v-2.8c0-0.1,0-0.1,0-0.2c0,0,0-0.1,0.1-0.2c0.1-0.1,0.1-0.1,0.2-0.1C295.3,19.6,295.4,19.5,295.6,19.5z"/>
		<path class="st0" d="M304.2,19.4c0-0.2-0.2-0.5-0.3-0.7c-0.2-0.2-0.4-0.4-0.8-0.5c-0.3-0.1-0.8-0.2-1.4-0.2c-0.6,0-1,0.1-1.4,0.2
			c-0.3,0.1-0.6,0.3-0.8,0.5c-0.2,0.2-0.3,0.4-0.3,0.7c0,0.2-0.1,0.4-0.1,0.5v6.7c0,0.1,0,0.3,0.1,0.5c0,0.2,0.2,0.5,0.3,0.7
			c0.2,0.2,0.4,0.4,0.8,0.5c0.3,0.1,0.8,0.2,1.4,0.2c0.6,0,1-0.1,1.4-0.2c0.3-0.1,0.6-0.3,0.8-0.5c0.2-0.2,0.3-0.4,0.3-0.7
			c0-0.2,0.1-0.4,0.1-0.5v-6.7C304.3,19.7,304.2,19.6,304.2,19.4z M301.7,19.5c0.2,0,0.4,0,0.5,0.1c0.1,0.1,0.2,0.1,0.3,0.1
			c0,0,0.1,0.1,0.1,0.2c0,0.1,0,0.1,0,0.2c0,1.5,0,5.9,0,5.9l0,0.4c0,0,0,0.1,0,0.2c0,0-0.1,0.1-0.1,0.2c0,0-0.1,0.1-0.3,0.1
			c-0.1,0-0.3,0.1-0.5,0.1c-0.2,0-0.4,0-0.5-0.1c-0.1,0-0.2-0.1-0.2-0.1c0,0-0.1-0.1-0.1-0.1c0-0.1,0-0.1,0-0.2v-6.3
			c0-0.1,0-0.1,0-0.2c0,0,0-0.1,0.1-0.2c0.1-0.1,0.1-0.1,0.2-0.1C301.3,19.5,301.5,19.5,301.7,19.5z"/>
	</g>
	<g>
		<path class="st0" d="M273.6,32.2v1h-0.6v-2.8h1.2c0.3,0,0.5,0.1,0.7,0.2c0.1,0.2,0.2,0.4,0.2,0.7c0,0.3-0.1,0.5-0.2,0.7
			c-0.1,0.2-0.4,0.2-0.6,0.2H273.6z M273.6,31.7h0.5c0.1,0,0.3,0,0.3-0.1c0.1-0.1,0.1-0.2,0.1-0.3c0-0.1,0-0.2-0.1-0.3
			c-0.1-0.1-0.2-0.1-0.3-0.1h-0.6V31.7z"/>
		<path class="st0" d="M278.5,30.4h0.7l1,2.8h-0.6l-0.2-0.6h-1.1l-0.2,0.6h-0.6L278.5,30.4z M278.8,31l-0.4,1.2h0.8L278.8,31z"/>
		<path class="st0" d="M282.9,33.2v-2.8h0.6v2.2h1.3v0.5H282.9z"/>
		<path class="st0" d="M287.6,33.2v-2.8h0.6v2.2h1.3v0.5H287.6z"/>
		<path class="st0" d="M292.3,33.2v-2.8h2v0.5h-1.4v0.6h1.3V32h-1.3v0.7h1.5v0.5H292.3z"/>
		<path class="st0" d="M297.8,33.2v-2.3H297v-0.5h2.2v0.5h-0.8v2.3H297.8z"/>
		<path class="st0" d="M301.8,32.3h0.6c0,0.2,0.1,0.3,0.2,0.3c0.1,0.1,0.2,0.1,0.4,0.1c0.2,0,0.3,0,0.4-0.1c0.1-0.1,0.1-0.1,0.1-0.3
			c0-0.2-0.2-0.3-0.7-0.4l0,0c0,0,0,0-0.1,0c-0.3-0.1-0.4-0.1-0.5-0.2c-0.1-0.1-0.2-0.1-0.2-0.3c-0.1-0.1-0.1-0.2-0.1-0.4
			c0-0.3,0.1-0.5,0.3-0.6c0.2-0.1,0.4-0.2,0.8-0.2c0.3,0,0.6,0.1,0.8,0.2c0.2,0.2,0.3,0.4,0.3,0.6h-0.5c0-0.1-0.1-0.2-0.2-0.3
			c-0.1-0.1-0.2-0.1-0.4-0.1c-0.1,0-0.3,0-0.3,0.1c-0.1,0.1-0.1,0.1-0.1,0.2c0,0.1,0.2,0.3,0.5,0.3c0.1,0,0.2,0,0.2,0
			c0.2,0.1,0.3,0.1,0.4,0.1c0.1,0,0.2,0.1,0.2,0.1c0.1,0.1,0.2,0.1,0.3,0.2c0.1,0.1,0.1,0.2,0.1,0.4c0,0.3-0.1,0.5-0.3,0.7
			c-0.2,0.2-0.5,0.2-0.8,0.2c-0.3,0-0.6-0.1-0.8-0.2C301.9,32.8,301.8,32.6,301.8,32.3z"/>
	</g>
	<g>
		<path class="st0" d="M273.1,35.8h0.3c0,0.1,0,0.1,0.1,0.2c0,0,0.1,0.1,0.2,0.1c0.1,0,0.1,0,0.2,0c0,0,0.1-0.1,0.1-0.1
			c0,0,0,0,0-0.1c0,0,0,0,0,0c0,0-0.1,0-0.2-0.1c-0.1,0-0.2-0.1-0.3-0.1c-0.1,0-0.2-0.1-0.2-0.2c-0.1-0.1-0.1-0.1-0.1-0.2
			c0-0.1,0-0.2,0.1-0.3c0.1-0.1,0.2-0.1,0.4-0.1c0.2,0,0.3,0,0.4,0.1c0.1,0.1,0.1,0.2,0.1,0.3h-0.3c0-0.1,0-0.1-0.1-0.1
			c0,0-0.1,0-0.2,0c-0.1,0-0.1,0-0.1,0c0,0-0.1,0.1-0.1,0.1c0,0.1,0.1,0.1,0.3,0.2c0,0,0.1,0,0.1,0l0,0c0.2,0.1,0.3,0.1,0.3,0.1
			c0,0,0.1,0.1,0.1,0.1c0,0,0,0.1,0,0.2c0,0.1-0.1,0.2-0.2,0.3c-0.1,0.1-0.3,0.1-0.4,0.1c-0.2,0-0.3,0-0.4-0.1
			C273.1,36.1,273.1,36,273.1,35.8z"/>
		<path class="st0" d="M275.8,34.9h0.3v0.9c0,0.1,0,0.2,0.1,0.2c0,0,0.1,0.1,0.2,0.1c0.1,0,0.1,0,0.2-0.1c0,0,0.1-0.1,0.1-0.2v-0.9
			h0.3v0.8c0,0.1,0,0.2,0,0.3c0,0.1-0.1,0.1-0.1,0.2c-0.1,0-0.1,0.1-0.2,0.1c-0.1,0-0.2,0-0.2,0c-0.1,0-0.2,0-0.2,0
			c-0.1,0-0.1-0.1-0.2-0.1c-0.1,0-0.1-0.1-0.1-0.2c0-0.1,0-0.2,0-0.3V34.9z"/>
		<path class="st0" d="M278.6,35.8h0.3c0,0.1,0,0.1,0.1,0.2c0,0,0.1,0.1,0.2,0.1c0.1,0,0.1,0,0.2,0c0,0,0.1-0.1,0.1-0.1
			c0,0,0,0,0-0.1c0,0,0,0,0,0c0,0-0.1,0-0.2-0.1c-0.1,0-0.2-0.1-0.3-0.1c-0.1,0-0.2-0.1-0.2-0.2c-0.1-0.1-0.1-0.1-0.1-0.2
			c0-0.1,0-0.2,0.1-0.3c0.1-0.1,0.2-0.1,0.4-0.1c0.2,0,0.3,0,0.4,0.1c0.1,0.1,0.1,0.2,0.1,0.3h-0.3c0-0.1,0-0.1-0.1-0.1
			c0,0-0.1,0-0.2,0c-0.1,0-0.1,0-0.1,0c0,0-0.1,0.1-0.1,0.1c0,0.1,0.1,0.1,0.3,0.2c0,0,0.1,0,0.1,0l0,0c0.2,0.1,0.3,0.1,0.3,0.1
			c0,0,0.1,0.1,0.1,0.1c0,0,0,0.1,0,0.2c0,0.1-0.1,0.2-0.2,0.3c-0.1,0.1-0.3,0.1-0.4,0.1c-0.2,0-0.3,0-0.4-0.1
			C278.7,36.1,278.6,36,278.6,35.8z"/>
		<path class="st0" d="M281.7,36.3v-1.1h-0.4v-0.3h1.1v0.3H282v1.1H281.7z"/>
		<path class="st0" d="M284,36.3v-1.4h1v0.3h-0.7v0.2h0.6v0.3h-0.6V36h0.7v0.3H284z"/>
		<path class="st0" d="M286.7,36.3v-1.4h0.4l0.3,0.4c0,0.1,0.1,0.1,0.1,0.2c0,0.1,0.1,0.1,0.1,0.2c0-0.1,0-0.2,0-0.3
			c0-0.1,0-0.2,0-0.2v-0.3h0.3v1.4h-0.4l-0.3-0.5c0-0.1-0.1-0.1-0.1-0.2c0-0.1-0.1-0.1-0.1-0.2c0,0.1,0,0.2,0,0.2c0,0.1,0,0.1,0,0.2
			v0.4H286.7z"/>
		<path class="st0" d="M289.8,36.3v-1.1h-0.4v-0.3h1.1v0.3h-0.4v1.1H289.8z"/>
		<path class="st0" d="M292.4,34.9h0.4l0.5,1.4h-0.4l-0.1-0.3h-0.5l-0.1,0.3h-0.4L292.4,34.9z M292.5,35.8h0.3l-0.2-0.5L292.5,35.8z
			"/>
		<path class="st0" d="M294.9,36.3v-1.4h0.7c0.2,0,0.3,0,0.4,0.1c0.1,0.1,0.1,0.1,0.1,0.3c0,0.1,0,0.1-0.1,0.2c0,0-0.1,0.1-0.2,0.1
			c0.1,0,0.1,0.1,0.2,0.1c0,0.1,0.1,0.1,0.1,0.2c0,0.1,0,0.1-0.1,0.2c0,0.1-0.1,0.1-0.1,0.1c0,0-0.1,0-0.2,0c-0.1,0-0.2,0-0.3,0
			H294.9z M295.2,35.5h0.3c0.1,0,0.1,0,0.1,0c0,0,0-0.1,0-0.1c0,0,0-0.1,0-0.1c0,0-0.1,0-0.1,0h-0.3V35.5z M295.2,36h0.3
			c0.1,0,0.1,0,0.2,0c0,0,0.1-0.1,0.1-0.1c0,0,0-0.1,0-0.1c0,0-0.1,0-0.1,0h-0.3V36z"/>
		<path class="st0" d="M297.7,36.3v-1.4h0.4V36h0.7v0.3H297.7z"/>
		<path class="st0" d="M300.3,36.3v-1.4h1v0.3h-0.7v0.2h0.6v0.3h-0.6V36h0.7v0.3H300.3z"/>
		<path class="st0" d="M302.9,35.8h0.3c0,0.1,0,0.1,0.1,0.2c0,0,0.1,0.1,0.2,0.1c0.1,0,0.1,0,0.2,0c0,0,0.1-0.1,0.1-0.1
			c0,0,0,0,0-0.1c0,0,0,0,0,0c0,0-0.1,0-0.2-0.1c-0.1,0-0.2-0.1-0.3-0.1c-0.1,0-0.2-0.1-0.2-0.2c-0.1-0.1-0.1-0.1-0.1-0.2
			c0-0.1,0-0.2,0.1-0.3c0.1-0.1,0.2-0.1,0.4-0.1c0.2,0,0.3,0,0.4,0.1c0.1,0.1,0.1,0.2,0.1,0.3h-0.3c0-0.1,0-0.1-0.1-0.1
			c0,0-0.1,0-0.2,0c-0.1,0-0.1,0-0.1,0c0,0-0.1,0.1-0.1,0.1c0,0.1,0.1,0.1,0.3,0.2c0,0,0.1,0,0.1,0l0,0c0.2,0.1,0.3,0.1,0.3,0.1
			c0,0,0.1,0.1,0.1,0.1c0,0,0,0.1,0,0.2c0,0.1-0.1,0.2-0.2,0.3c-0.1,0.1-0.3,0.1-0.4,0.1c-0.2,0-0.3,0-0.4-0.1
			C303,36.1,302.9,36,302.9,35.8z"/>
	</g>
	<rect x="273" y="40.7" class="st0" width="3.4" height="3.5"/>
	<rect x="300.8" y="40.7" class="st0" width="3.4" height="3.5"/>
	<rect x="286.9" y="40.7" class="st0" width="3.4" height="3.5"/>
	<rect x="273" y="38.3" class="st0" width="31.2" height="1.6"/>
</g>
<g id="XMLID_1052_">
	<g id="XMLID_1076_">
		<path id="XMLID_1103_" class="st0" d="M154.8,82.4c-0.3,0-0.5,0-0.7-0.1s-0.4-0.2-0.6-0.4c-0.2-0.2-0.3-0.4-0.4-0.6
			c-0.1-0.2-0.1-0.5-0.1-0.7c0-0.3,0-0.5,0.1-0.7c0.1-0.2,0.2-0.4,0.4-0.6c0.2-0.2,0.4-0.3,0.6-0.4c0.2-0.1,0.5-0.1,0.7-0.1
			c0.4,0,0.7,0.1,0.9,0.2c0.3,0.1,0.5,0.3,0.6,0.6c0,0,0,0.1,0,0.1c0,0,0,0.1-0.1,0.1l-0.6,0.4c0,0-0.1,0-0.1,0c0,0-0.1,0-0.1,0
			c-0.1-0.1-0.2-0.2-0.3-0.3c-0.1-0.1-0.3-0.1-0.4-0.1c-0.1,0-0.2,0-0.3,0.1c-0.1,0.1-0.2,0.1-0.3,0.2c-0.1,0.1-0.1,0.2-0.2,0.3
			c0,0.1-0.1,0.2-0.1,0.3c0,0.1,0,0.2,0.1,0.4c0,0.1,0.1,0.2,0.2,0.3c0.1,0.1,0.2,0.2,0.3,0.2c0.1,0.1,0.2,0.1,0.3,0.1
			c0.1,0,0.2,0,0.4-0.1c0.1,0,0.2-0.1,0.3-0.2c0,0,0,0,0-0.1c0,0,0,0-0.1,0h-0.6c0,0-0.1,0-0.1,0c0,0,0-0.1,0-0.1v-0.6
			c0,0,0-0.1,0-0.1c0,0,0.1,0,0.1,0h1.7c0,0,0.1,0,0.1,0c0,0,0,0,0,0.1c0,0.1,0,0.1,0,0.2s0,0.2,0,0.2c0,0.2-0.1,0.4-0.2,0.6
			c-0.1,0.2-0.2,0.4-0.4,0.5c-0.2,0.1-0.4,0.3-0.6,0.3C155.2,82.4,155,82.4,154.8,82.4z"/>
		<path id="XMLID_1100_" class="st0" d="M159.9,82.3h-0.7c0,0-0.1,0-0.1,0c0,0,0-0.1,0-0.1v-3.3c0,0,0-0.1,0-0.1c0,0,0.1,0,0.1,0
			h1.5c0.2,0,0.4,0,0.5,0.1s0.3,0.2,0.4,0.3c0.1,0.1,0.2,0.2,0.3,0.4c0.1,0.2,0.1,0.3,0.1,0.5c0,0.1,0,0.2,0,0.3s-0.1,0.2-0.1,0.3
			c0,0.1-0.1,0.2-0.2,0.2c-0.1,0.1-0.1,0.1-0.2,0.2c0,0,0,0-0.1,0.1c0,0,0,0.1,0,0.1c0.1,0.2,0.3,0.3,0.4,0.5
			c0.1,0.2,0.3,0.3,0.4,0.5c0,0,0,0.1,0,0.1c0,0,0,0-0.1,0h-0.9c0,0-0.1,0-0.1,0c0,0-0.1,0-0.1-0.1c-0.1-0.1-0.2-0.3-0.3-0.4
			c-0.1-0.1-0.2-0.3-0.3-0.4c0,0,0,0-0.1-0.1c0,0-0.1,0-0.1,0h-0.1c0,0-0.1,0-0.1,0c0,0,0,0.1,0,0.1v0.8
			C160,82.2,160,82.3,159.9,82.3C159.9,82.3,159.9,82.3,159.9,82.3z M160.1,80.4h0.5c0,0,0.1,0,0.1,0c0,0,0.1,0,0.1-0.1
			c0,0,0.1-0.1,0.1-0.1c0,0,0-0.1,0-0.2c0,0,0-0.1,0-0.1c0,0,0-0.1-0.1-0.1c0,0-0.1-0.1-0.1-0.1c0,0-0.1,0-0.2,0h-0.5
			c0,0-0.1,0-0.1,0c0,0,0,0.1,0,0.1v0.5C160,80.3,160,80.3,160.1,80.4C160,80.4,160.1,80.4,160.1,80.4z"/>
		<path id="XMLID_1098_" class="st0" d="M164.5,78.9C164.5,78.8,164.5,78.8,164.5,78.9c0.1-0.1,0.1-0.1,0.1-0.1h0.7c0,0,0.1,0,0.1,0
			c0,0,0,0.1,0,0.1v2c0,0.1,0,0.2,0.1,0.3c0,0.1,0.1,0.1,0.2,0.2c0.1,0,0.1,0.1,0.2,0.1c0.1,0,0.1,0,0.2,0c0.1,0,0.1,0,0.2,0
			s0.1-0.1,0.2-0.1c0.1,0,0.1-0.1,0.1-0.2c0-0.1,0.1-0.2,0.1-0.3v-2c0,0,0-0.1,0-0.1c0,0,0.1,0,0.1,0h0.7c0,0,0.1,0,0.1,0
			c0,0,0,0.1,0,0.1v2c0,0.2,0,0.4-0.1,0.6c-0.1,0.2-0.2,0.4-0.3,0.5c-0.1,0.1-0.3,0.2-0.5,0.3c-0.2,0.1-0.4,0.1-0.6,0.1
			s-0.4,0-0.6-0.1c-0.2-0.1-0.4-0.2-0.5-0.3c-0.1-0.1-0.2-0.3-0.3-0.5c-0.1-0.2-0.1-0.4-0.1-0.6V78.9z"/>
		<path id="XMLID_1095_" class="st0" d="M171.8,81.4h-0.4c0,0-0.1,0-0.1,0c0,0,0,0.1,0,0.1v0.7c0,0,0,0.1,0,0.1c0,0-0.1,0-0.1,0
			h-0.7c0,0-0.1,0-0.1,0c0,0,0-0.1,0-0.1v-3.3c0,0,0-0.1,0-0.1c0,0,0.1,0,0.1,0h1.5c0.2,0,0.4,0,0.5,0.1c0.2,0.1,0.3,0.2,0.4,0.3
			c0.1,0.1,0.2,0.3,0.3,0.4c0.1,0.2,0.1,0.3,0.1,0.5c0,0.2,0,0.4-0.1,0.5c-0.1,0.2-0.1,0.3-0.3,0.4c-0.1,0.1-0.3,0.2-0.4,0.3
			C172.3,81.3,172,81.4,171.8,81.4z M171.8,79.6h-0.5c0,0-0.1,0-0.1,0c0,0,0,0.1,0,0.1v0.6c0,0,0,0.1,0,0.1c0,0,0.1,0,0.1,0h0.5
			c0.1,0,0.2,0,0.3-0.1c0.1-0.1,0.1-0.2,0.1-0.3c0-0.1,0-0.1,0-0.2c0-0.1,0-0.1-0.1-0.1c0,0-0.1-0.1-0.1-0.1S171.9,79.6,171.8,79.6z
			"/>
		<path id="XMLID_1092_" class="st0" d="M175.4,80.5c0-0.3,0-0.5,0.1-0.7c0.1-0.2,0.2-0.4,0.4-0.6c0.2-0.2,0.4-0.3,0.6-0.4
			c0.2-0.1,0.5-0.1,0.7-0.1c0.3,0,0.5,0,0.7,0.1c0.2,0.1,0.4,0.2,0.6,0.4c0.2,0.2,0.3,0.4,0.4,0.6c0.1,0.2,0.1,0.5,0.1,0.7
			c0,0.3,0,0.5-0.1,0.7c-0.1,0.2-0.2,0.4-0.4,0.6c-0.2,0.2-0.4,0.3-0.6,0.4c-0.2,0.1-0.5,0.1-0.7,0.1c-0.3,0-0.5,0-0.7-0.1
			c-0.2-0.1-0.4-0.2-0.6-0.4c-0.2-0.2-0.3-0.4-0.4-0.6C175.5,81,175.4,80.8,175.4,80.5z M176.4,80.5c0,0.1,0,0.2,0.1,0.4
			c0,0.1,0.1,0.2,0.2,0.3c0.1,0.1,0.2,0.2,0.3,0.2c0.1,0.1,0.2,0.1,0.3,0.1c0.1,0,0.2,0,0.3-0.1c0.1-0.1,0.2-0.1,0.3-0.2
			c0.1-0.1,0.1-0.2,0.2-0.3c0-0.1,0.1-0.2,0.1-0.4c0-0.1,0-0.2-0.1-0.3c0-0.1-0.1-0.2-0.2-0.3c-0.1-0.1-0.2-0.1-0.3-0.2
			c-0.1-0.1-0.2-0.1-0.3-0.1c-0.1,0-0.2,0-0.3,0.1c-0.1,0.1-0.2,0.1-0.3,0.2c-0.1,0.1-0.1,0.2-0.2,0.3
			C176.4,80.3,176.4,80.4,176.4,80.5z"/>
	</g>
	<path id="XMLID_1073_" class="st0" d="M181.8,101.4H150c-0.2,0-0.3-0.1-0.3-0.3V69.4c0-0.2,0.1-0.3,0.3-0.3h31.8
		c0.2,0,0.3,0.1,0.3,0.3v31.7C182.1,101.3,182,101.4,181.8,101.4z M150.2,100.8h31.3V69.7h-31.3V100.8z"/>
	<g id="XMLID_1053_">
		<g id="XMLID_1057_">
			<path id="XMLID_1070_" class="st0" d="M161.6,93.4H153c-0.1,0-0.2-0.1-0.2-0.2c0-0.1,0-0.2,0.1-0.3l8.5-7.6
				c0.1-0.1,0.2-0.1,0.3,0c0.1,0,0.1,0.1,0.1,0.2v7.6C161.8,93.3,161.7,93.4,161.6,93.4z M153.7,92.9h7.6v-6.8L153.7,92.9z"/>
			<path id="XMLID_1067_" class="st0" d="M166.9,93.6c-1.3,0-2.4-0.5-3.2-1.3c0,0-0.1-0.1-0.1-0.2c0-0.1,0-0.1,0.1-0.2l6.1-5.4
				c0.1-0.1,0.3-0.1,0.4,0c0.7,0.8,1.2,1.8,1.2,2.9v0C171.3,91.7,169.3,93.6,166.9,93.6z M164.2,92.1c0.7,0.6,1.6,1,2.7,1
				c2.2,0,3.9-1.6,3.9-3.7v0c0-0.9-0.3-1.7-0.8-2.3L164.2,92.1z"/>
			<path id="XMLID_1064_" class="st0" d="M163.8,92.3c-0.1,0-0.1,0-0.2-0.1c-0.7-0.8-1.2-1.8-1.2-2.9v0c0-2.4,1.9-4.2,4.4-4.2
				c1.3,0,2.4,0.5,3.2,1.3c0,0,0.1,0.1,0.1,0.2c0,0.1,0,0.1-0.1,0.2l-6.1,5.4C164,92.3,163.9,92.3,163.8,92.3z M166.9,85.7
				c-2.2,0-3.9,1.6-3.9,3.7v0c0,0.9,0.3,1.7,0.8,2.3l5.7-5.1C168.9,86,167.9,85.7,166.9,85.7z"/>
			<path id="XMLID_1061_" class="st0" d="M172.2,93.4c0,0-0.1,0-0.1,0c-0.1,0-0.1-0.1-0.1-0.2v-7.6c0-0.1,0.1-0.3,0.3-0.3h2.9
				c1.9,0,3.3,0.6,4.1,1.7c0.1,0.1,0.1,0.3,0,0.3l-6.8,6C172.3,93.4,172.3,93.4,172.2,93.4z M172.5,85.9v6.7l6.2-5.5
				c-0.7-0.8-1.9-1.3-3.5-1.3H172.5z"/>
			<path id="XMLID_1058_" class="st0" d="M175,93.4h-2.8c-0.1,0-0.3-0.1-0.3-0.3c0-0.1,0-0.1,0.1-0.2l6.8-6c0.1,0,0.1-0.1,0.2-0.1
				c0.1,0,0.1,0,0.2,0.1c0.5,0.6,0.7,1.4,0.7,2.3v0c0,1.2-0.4,2.2-1.2,2.9C177.8,93,176.5,93.4,175,93.4z M172.9,92.9h2.1
				c2.7,0,4.3-1.3,4.3-3.6v0c0-0.7-0.1-1.3-0.4-1.8L172.9,92.9z"/>
		</g>
		<path id="XMLID_1054_" class="st0" d="M161.6,93.4C161.6,93.4,161.6,93.4,161.6,93.4H153c-0.1,0-0.3-0.1-0.3-0.3v-7.6
			c0-0.1,0.1-0.2,0.1-0.2c0.1,0,0.2,0,0.3,0l8.5,7.6c0.1,0,0.1,0.1,0.1,0.2C161.8,93.3,161.7,93.4,161.6,93.4z M153.3,92.9h7.6
			l-7.6-6.8V92.9z"/>
	</g>
</g>
<g>
	<path class="st0" d="M305.5,91.4c0.8-1.1,1.5-2.3,2.3-3.4c0.2-0.3,0.5-0.6,0.6-1c0.2-0.5,0.6-0.6,1.1-0.5c0,2.6,0,5.2,0,7.8
		c-0.3,0-0.6,0-0.9,0c0-2,0-3.9,0-6c-0.1,0.2-0.2,0.3-0.3,0.4c-0.8,1.2-1.6,2.3-2.4,3.5c-0.3,0.4-0.7,0.4-1,0
		c-0.8-1.3-1.7-2.5-2.6-3.8c0,2,0,3.9,0,5.9c-0.3,0-0.6,0-0.9,0c0-2.6,0-5.2,0-7.8c0.5-0.1,0.8,0,1.1,0.4c0.8,1.3,1.8,2.6,2.6,4
		C305.4,91.1,305.4,91.2,305.5,91.4z"/>
	<path class="st0" d="M266.7,91.3c0,1.1,0,2.1,0,3.1c-0.3,0-0.6,0-0.9,0c0-2.6,0-5.2,0-7.8c0,0,0,0,0.1,0c1.2,0,2.5-0.1,3.7,0.1
		c1.9,0.2,2.8,2,1.9,3.5c-0.4,0.6-1,0.9-1.8,1.1c0.9,1.1,1.7,2.1,2.6,3.1c-0.7,0.1-1.2,0.1-1.6-0.5c-0.6-0.8-1.3-1.6-1.9-2.3
		c-0.1-0.1-0.3-0.2-0.5-0.2C267.8,91.3,267.2,91.3,266.7,91.3z M266.7,90.3c1,0,2,0.1,2.9,0c0.8-0.1,1.2-0.7,1.2-1.4
		c0-0.7-0.4-1.3-1.2-1.4c-0.9-0.1-1.9,0-2.9,0C266.7,88.4,266.7,89.4,266.7,90.3z"/>
	<path class="st0" d="M293,86.4c2.4,0,4.1,1.7,4.1,4c0,2.4-1.7,4.1-4.1,4.1c-2.4,0-4.1-1.7-4.1-4.1C288.9,88.1,290.6,86.4,293,86.4z
		 M293,87.3c-1.9,0-3.1,1.3-3.2,3.1c0,1.9,1.3,3.2,3.1,3.2c1.9,0,3.2-1.3,3.2-3.2C296.2,88.6,294.9,87.3,293,87.3z"/>
	<path class="st0" d="M263.1,90.2c0.3,0,0.6,0,0.9,0c0,0.1,0,0.2,0,0.3c0,1.1,0,2.1,0,3.2c0,0.1-0.1,0.3-0.2,0.4
		c-1.4,0.6-2.8,0.6-4.2,0.1c-1.5-0.6-2.2-1.7-2.3-3.3c-0.3-3.4,2.6-5,5.5-4.3c0.1,0,0.2,0,0.2,0.1c0.9,0.3,0.8,0.2,0.8,1.2
		c-0.8-0.4-1.7-0.6-2.6-0.5c-2.5,0.2-3.8,2.8-2.5,5c0.5,0.7,1.2,1.2,2,1.3c0.6,0.1,1.3,0,2-0.1c0.3,0,0.4-0.2,0.4-0.5
		C263.1,92.1,263.1,91.2,263.1,90.2z"/>
	<path class="st0" d="M282,86.5c1.5,0.1,2.9-0.2,4.3,0.2c1.1,0.3,1.7,1.1,1.7,2.3c0,1.2-0.6,2-1.7,2.3c-0.5,0.1-1.1,0.2-1.7,0.2
		c-0.5,0-1.1,0-1.7,0c0,0.9,0,1.8,0,2.8c-0.3,0-0.6,0-0.9,0C282,91.8,282,89.2,282,86.5z M283,90.7c0.7,0,1.3,0,1.9,0
		c0.4,0,0.8-0.1,1.2-0.2c0.7-0.2,1.1-0.7,1-1.5c0-0.7-0.4-1.3-1.1-1.4c-1-0.1-2-0.2-3-0.2C283,88.5,283,89.6,283,90.7z"/>
	<path class="st0" d="M273.5,86.5c0.3,0,0.6,0,0.9,0c0,0.1,0,0.3,0,0.4c0,1.5,0,2.9,0,4.4c0,1.5,0.6,2.1,2.1,2.2
		c0.4,0,0.7,0,1.1-0.1c1-0.2,1.5-0.9,1.5-2.1c0-1.5,0-3,0-4.4c0-0.1,0-0.3,0-0.5c0.3,0,0.6,0,0.9,0c0,0,0,0.1,0,0.1
		c0,1.8,0,3.5,0,5.3c0,1.2-0.8,2.2-2,2.4c-0.7,0.1-1.5,0.2-2.2,0.1c-1.4-0.2-2.2-1.1-2.3-2.6C273.4,90.1,273.5,88.4,273.5,86.5
		C273.5,86.6,273.5,86.6,273.5,86.5z"/>
	<path class="st0" d="M314.7,86.5c0.3,0,0.6,0,0.9,0c0,2.3,0,4.6,0,6.9c1.5,0,2.9,0,4.3,0c0,0.3,0,0.6,0,0.9c-1.7,0-3.5,0-5.2,0
		C314.7,91.8,314.7,89.2,314.7,86.5z"/>
	<path class="st0" d="M311.7,86.5c0.3,0,0.6,0,0.9,0c0,2.6,0,5.2,0,7.8c-0.3,0-0.6,0-0.9,0C311.7,91.8,311.7,89.2,311.7,86.5z"/>
</g>
<g>
	<path class="st1" d="M12.4,83.2v1.5c0,0.2,0.1,0.3,0.4,0.4l4.4,1.5l0.2-0.1l0,0l0,0l0,0l0,0l0,0l0,0l0,0l0,0l0,0l0,0l0,0l0,0l0,0
		l0,0l0,0l0,0l0,0l0,0l0,0l0,0l0,0l0,0l0,0l0,0l0,0l0,0l0,0l0,0l0,0l0,0l0,0l0,0l0,0l0,0l0,0l0,0l0,0l0,0l0,0l0,0l0,0l0,0l0,0l0,0
		l0,0l0,0l0,0l0,0l0,0l0,0l0,0l0,0l0,0l0,0l0,0l0,0l0,0l0,0l0,0l0,0l0,0l0,0l0,0l0,0l0,0l0,0l0,0l0,0l0,0l0,0l0,0l0,0l0,0l0,0l0,0
		l0,0l0,0l0,0l0,0l0,0l0,0l0,0l0,0l0,0l0,0l0,0l0,0l0,0l0,0l0,0l0,0l0,0l0,0l0,0l0,0l0,0l0,0l0,0l0,0l0,0l0,0l0,0l0,0l0,0l0,0l0,0
		l0,0l0,0l0,0l0,0l0,0l0,0l0,0l0,0l0,0l0,0l0,0l0,0l0,0l0,0l0,0l0,0l0,0l0,0l0,0c0.2-0.1,0.3-0.2,0.4-0.4L12.4,83.2z"/>
	<path class="st1" d="M10.3,84.9c3.9,1.4,5.8,2,5.8,2c-1.6,0.6-2.4,0.9-2.4,0.9c-1.9-0.7-2.9-1-2.9-1c-0.4-0.1-0.5-0.3-0.5-0.5V84.9
		z"/>
	<path class="st1" d="M10.3,88.7c0-0.6,0-0.9,0-0.9c0-0.2,0.1-0.2,0.3-0.1l1.8,0.6l-2,0.7C10.3,89.1,10.3,88.9,10.3,88.7z"/>
	<path class="st1" d="M18.4,87.8c-1.6,0.6-2.4,0.9-2.4,0.9c0.9,0.3,1.4,0.5,1.4,0.5c1.1-0.4,1.6-0.6,1.6-0.6
		c0.2-0.1,0.4-0.2,0.4-0.5C18.9,88,18.4,87.8,18.4,87.8z"/>
	<path class="st1" d="M19,85.9L19,85.9L19,85.9L19,85.9L19,85.9L19,85.9L19,85.9L19,85.9L19,85.9L19,85.9L19,85.9L19,85.9L19,85.9
		L19,85.9L19,85.9L19,85.9L19,85.9L19,85.9L19,85.9l-0.1,0l0,0l0,0l0,0l0,0l0,0l0,0l0,0l0,0l0,0l0,0l0,0l0,0l0,0l0,0l0,0l0,0l0,0
		l0,0l0,0l0,0l0,0l0,0l0,0l0,0l0,0l0,0l0,0l0,0l0,0l0,0l0,0l0,0l0,0l0,0l0,0l0,0l0,0l0,0l0,0l0,0l0,0l0,0l0,0l0,0l0,0l0,0l0,0l0,0
		l0,0l0,0l0,0l0,0l0,0l0,0l0,0l0,0l0,0l0,0l0,0l0,0l0,0l0,0l0,0l0,0l0,0l0,0l0,0l0,0l0,0l0,0l0,0l0,0l0,0l0,0l0,0l0,0l0,0l0,0l0,0
		l0,0l0,0l0,0l0,0l0,0l0,0l0,0l0,0l0,0l0,0l0,0l0,0l0,0l0,0l0,0l0,0l0,0l0,0l0,0l0,0l0,0l0,0l0,0l0,0l0,0l0,0l0,0
		c-3.4,1.2-4.9,1.8-4.9,1.8v0L10.5,89c-0.2,0.1-0.2-0.1-0.2-0.3l0,0c0,0.4,0,0.5,0.2,0.5c0,0,0.6,0.2,1.7,0.6c0.4,0.1,0.3,0.1,0.7,0
		l6.3-2.3c0.2-0.1,0.3-0.2,0.3-0.4v-1.7C19.4,85.7,19.2,85.9,19,85.9L19,85.9z M13.6,95.6l-1.2,0.4v1.7c0.7-0.2,1-0.4,1-0.4
		c0.4-0.1,0.5-0.3,0.5-0.5v-0.8C14,95.7,14,95.5,13.6,95.6L13.6,95.6z M15.7,92.3l-3.2,1.1v1.7c1.9-0.7,3.1-1.1,3.1-1.1
		c0.4-0.1,0.5-0.3,0.5-0.5v-0.8C16,92.4,16,92.2,15.7,92.3L15.7,92.3z M19,88.6c0.2-0.1,0.4-0.2,0.4-0.5v1.7c0,0.2-0.1,0.3-0.3,0.4
		c0,0-2.2,0.8-6.6,2.4c0,0,0-0.6,0-1.7c0,0,1.5-0.6,4.9-1.8l0,0l0,0l0,0l0,0l0,0l0,0l0,0l0,0l0,0l0,0l0,0l0,0l0,0l0,0l0,0l0,0l0,0
		l0,0l0,0l0,0l0,0l0,0l0,0l0,0l0,0l0,0l0,0l0,0l0,0l0,0l0,0l0,0l0,0l0,0l0,0l0,0l0,0l0,0l0,0l0,0l0,0l0,0l0,0l0,0l0,0l0,0l0,0l0,0
		l0,0l0,0l0,0l0,0l0,0l0,0l0,0l0,0l0,0l0,0l0,0l0,0l0,0l0,0l0,0l0,0l0,0l0,0l0,0l0,0l0,0l0,0l0,0l0,0l0,0l0,0l0,0l0,0l0,0l0,0l0,0
		l0,0l0,0l0,0l0,0l0,0l0,0l0,0l0,0l0,0l0,0l0,0l0,0l0,0l0,0l0,0l0,0l0,0l0,0l0,0l0,0l0,0l0,0l0,0l0,0l0,0l0,0l0,0L19,88.6L19,88.6
		L19,88.6L19,88.6L19,88.6L19,88.6L19,88.6L19,88.6L19,88.6L19,88.6L19,88.6L19,88.6L19,88.6L19,88.6L19,88.6L19,88.6L19,88.6
		L19,88.6L19,88.6z"/>
	<path class="st1" d="M23.8,86.9h2.1v5.6h4.9l-0.9,1.8h-4v0h-2.1V86.9L23.8,86.9z M67.9,86.9h0.8H70h0.1c0.4,0,0.8,0.3,0.9,0.7
		l1.9,6.7h-2.1L69.2,89l-1.4,3.8h-0.8h-1.3h-0.1c-0.4,0-0.8-0.3-0.9-0.7L63.6,89l-1.5,5.3H60l2.1-7.4h0.8h1.3h0.3
		c0.3,0,0.6,0.2,0.7,0.5l1.3,3.6L67.9,86.9L67.9,86.9z M53.1,91.2h2.5l-1.2-2.6L53.1,91.2L53.1,91.2z M56.5,92.9h-4.2l-0.6,1.3h-2.1
		l3.6-7.4h0.4h1.6h0.1l0,0c0.3,0,0.6,0.3,0.7,0.5l3.3,6.8h-2.1L56.5,92.9L56.5,92.9z M49.9,88.3v-1.4h-3.4h-0.8h-0.5h-0.7h-3.5v1.4
		l3.5,0.3v5.7h2.1v-5.7L49.9,88.3L49.9,88.3z M35.1,91.2h2.5l-1.2-2.6L35.1,91.2L35.1,91.2z M38.4,92.9h-4.2l-0.6,1.3h-2.1l3.6-7.4
		h0.4h1.6h0.1l0,0c0.3,0,0.6,0.3,0.7,0.5l3.3,6.8h-2.1L38.4,92.9z"/>
</g>
</svg>
