<?xml version="1.0" encoding="utf-8"?>
<!-- Generator: Adobe Illustrator 24.3.0, SVG Export Plug-In . SVG Version: 6.00 Build 0)  -->
<svg version="1.1" id="Layer_1" xmlns="http://www.w3.org/2000/svg" xmlns:xlink="http://www.w3.org/1999/xlink" x="0px" y="0px"
	 viewBox="0 0 329.2 123.9" style="enable-background:new 0 0 329.2 123.9;" xml:space="preserve">
<style type="text/css">
	.st0{fill:#B7B7B7;}
	.st1{fill:#969696;}
	.st2{fill:#59595C;}
	.st3{fill:#787878;}
	.st4{fill:#575756;}
	.st5{fill-rule:evenodd;clip-rule:evenodd;fill:#575756;}
</style>
<g>
	<g>
		<polygon class="st0" points="150.8,31.4 150.8,22.9 158.9,14.7 169.9,25.7 169.9,31.4 		"/>
		<polygon class="st1" points="176.8,31.4 176.8,22.9 168.7,14.7 157.7,25.7 157.7,31.4 		"/>
		<g>
			<path class="st2" d="M144.8,41.5c-0.1,0.1-0.2,0.1-0.3,0.2c-0.1,0.1-0.3,0.1-0.5,0.2c-0.2,0.1-0.4,0.1-0.5,0.1
				c-0.2,0-0.4,0.1-0.5,0.1c-0.4,0-0.8-0.1-1.2-0.2c-0.3-0.1-0.6-0.3-0.9-0.5c-0.2-0.2-0.4-0.5-0.6-0.8c-0.1-0.3-0.2-0.7-0.2-1
				c0-0.5,0.1-0.9,0.2-1.3c0.1-0.4,0.3-0.7,0.6-0.9c0.3-0.2,0.5-0.4,0.9-0.5c0.3-0.1,0.7-0.2,1-0.2c0.3,0,0.7,0,0.9,0.1
				c0.3,0.1,0.5,0.2,0.7,0.3l-0.3,1c-0.1,0-0.2-0.1-0.3-0.1c-0.1,0-0.3-0.1-0.4-0.1c-0.1,0-0.3,0-0.4,0c-0.3,0-0.5,0-0.8,0.1
				c-0.2,0.1-0.4,0.2-0.6,0.3c-0.2,0.1-0.3,0.3-0.3,0.5c-0.1,0.2-0.1,0.5-0.1,0.7c0,0.2,0,0.5,0.1,0.7c0.1,0.2,0.2,0.4,0.4,0.5
				c0.2,0.1,0.3,0.2,0.6,0.3c0.2,0.1,0.5,0.1,0.7,0.1c0.1,0,0.3,0,0.4,0c0.1,0,0.2-0.1,0.3-0.1v-0.6h-0.9v-1h2V41.5z"/>
			<path class="st2" d="M150.1,42l-1.2-1.9c0.2-0.1,0.3-0.2,0.4-0.3c0.1-0.2,0.3-0.4,0.3-0.6c0.1-0.2,0.1-0.4,0.1-0.6
				c0-0.3,0-0.5-0.1-0.7c-0.1-0.2-0.2-0.4-0.4-0.6c-0.2-0.2-0.4-0.3-0.7-0.4c-0.3-0.1-0.6-0.1-0.9-0.1H146V42h1v-1.7h0.7l1.1,1.7
				H150.1z M147.1,37.7h0.7c0.2,0,0.3,0,0.4,0.1c0.1,0.1,0.2,0.1,0.2,0.2c0.1,0.1,0.1,0.2,0.1,0.3c0,0.1,0,0.2,0,0.2
				c0,0.1,0,0.2,0,0.2c0,0.1-0.1,0.2-0.1,0.3c-0.1,0.1-0.1,0.1-0.2,0.2c-0.1,0.1-0.2,0.1-0.4,0.1h-0.7V37.7z"/>
			<path class="st2" d="M151.9,40c0,0.2,0.1,0.3,0.2,0.5c0.1,0.2,0.2,0.3,0.4,0.4c0.2,0.1,0.3,0.1,0.5,0.1c0.2,0,0.4,0,0.6-0.1
				c0.2-0.1,0.3-0.2,0.4-0.4c0.1-0.2,0.1-0.3,0.1-0.5v-3.3h1v3.4c0,0.4-0.1,0.7-0.3,1c-0.2,0.3-0.5,0.5-0.8,0.7
				c-0.3,0.2-0.7,0.3-1.1,0.3c-0.4,0-0.8-0.1-1.1-0.3s-0.6-0.4-0.8-0.7c-0.2-0.3-0.3-0.6-0.3-1v-3.4h1V40z"/>
			<path class="st2" d="M158,36.7c0.4,0,0.8,0.1,1.1,0.2c0.3,0.1,0.5,0.4,0.7,0.6c0.2,0.3,0.2,0.6,0.2,0.9c0,0.2,0,0.4-0.1,0.7
				c-0.1,0.2-0.2,0.4-0.3,0.6c-0.1,0.2-0.3,0.3-0.6,0.4c-0.2,0.1-0.5,0.2-0.9,0.2h-0.7V42h-1v-5.3H158z M158.2,39.3
				c0.2,0,0.3,0,0.4-0.1c0.1-0.1,0.2-0.1,0.2-0.2c0.1-0.1,0.1-0.2,0.1-0.3c0-0.1,0-0.2,0-0.2c0-0.1,0-0.1,0-0.2
				c0-0.1-0.1-0.2-0.1-0.3c-0.1-0.1-0.1-0.2-0.2-0.2c-0.1-0.1-0.3-0.1-0.4-0.1h-0.7v1.6H158.2z"/>
			<path class="st2" d="M160.7,39.4c0-0.4,0.1-0.7,0.2-1c0.1-0.3,0.3-0.6,0.6-0.9c0.2-0.3,0.5-0.5,0.9-0.6c0.3-0.1,0.7-0.2,1.1-0.2
				c0.4,0,0.7,0.1,1,0.2c0.3,0.1,0.6,0.3,0.9,0.6c0.3,0.3,0.4,0.5,0.6,0.9c0.1,0.3,0.2,0.7,0.2,1c0,0.4-0.1,0.7-0.2,1.1
				c-0.1,0.3-0.3,0.6-0.6,0.9c-0.3,0.2-0.5,0.4-0.9,0.6c-0.3,0.1-0.7,0.2-1,0.2c-0.4,0-0.7-0.1-1.1-0.2c-0.3-0.1-0.6-0.3-0.9-0.6
				c-0.2-0.2-0.4-0.5-0.6-0.9C160.7,40.1,160.7,39.7,160.7,39.4z M161.7,39.4c0,0.2,0,0.5,0.1,0.7c0.1,0.2,0.2,0.4,0.4,0.5
				c0.2,0.2,0.3,0.3,0.5,0.4c0.2,0.1,0.4,0.1,0.7,0.1c0.2,0,0.4,0,0.6-0.1c0.2-0.1,0.4-0.2,0.5-0.4c0.1-0.2,0.3-0.3,0.3-0.5
				c0.1-0.2,0.1-0.4,0.1-0.7c0-0.2,0-0.5-0.1-0.7c-0.1-0.2-0.2-0.4-0.3-0.5c-0.1-0.2-0.3-0.3-0.5-0.4c-0.2-0.1-0.4-0.1-0.6-0.1
				c-0.2,0-0.4,0-0.6,0.1c-0.2,0.1-0.4,0.2-0.5,0.4c-0.1,0.2-0.3,0.3-0.3,0.5C161.8,38.9,161.7,39.1,161.7,39.4z"/>
			<path class="st2" d="M169.5,42v-5.3h1.6c0.5,0,1,0.1,1.4,0.2c0.4,0.2,0.7,0.4,0.9,0.6c0.2,0.3,0.4,0.6,0.5,0.9
				c0.1,0.3,0.2,0.7,0.2,1c0,0.4-0.1,0.7-0.2,1.1c-0.1,0.3-0.3,0.6-0.6,0.8c-0.2,0.2-0.5,0.4-0.9,0.5c-0.3,0.1-0.7,0.2-1,0.2H169.5z
				 M170.5,41h0.6c0.3,0,0.5,0,0.7-0.1c0.2-0.1,0.4-0.2,0.6-0.3c0.2-0.1,0.3-0.3,0.4-0.5c0.1-0.2,0.1-0.4,0.1-0.7
				c0-0.3-0.1-0.6-0.2-0.8s-0.3-0.4-0.4-0.5c-0.2-0.1-0.3-0.2-0.5-0.2c-0.2,0-0.3-0.1-0.4-0.1h-0.9V41z"/>
			<path class="st2" d="M177.9,42h1.2l-2.4-5.5h-0.1l-2.4,5.5h1l0.4-1h1.8L177.9,42z M176.1,40.1l0.5-1.3l0.5,1.3H176.1z"/>
			<path class="st2" d="M182.7,38c-0.2-0.1-0.4-0.2-0.6-0.3c-0.2-0.1-0.4-0.1-0.6-0.1c-0.2,0-0.4,0-0.5,0.1
				c-0.1,0.1-0.2,0.2-0.2,0.4c0,0.1,0,0.2,0.1,0.3c0.1,0.1,0.2,0.2,0.4,0.3c0.2,0.1,0.3,0.1,0.5,0.2c0.2,0.1,0.3,0.1,0.5,0.2
				c0.2,0.1,0.3,0.2,0.4,0.3c0.1,0.1,0.2,0.3,0.3,0.4c0.1,0.2,0.1,0.4,0.1,0.6c0,0.3-0.1,0.5-0.2,0.7c-0.1,0.2-0.3,0.4-0.6,0.6
				c-0.3,0.1-0.6,0.2-1,0.2c-0.2,0-0.4,0-0.6-0.1c-0.2,0-0.4-0.1-0.6-0.2c-0.2-0.1-0.4-0.2-0.6-0.3l0.5-0.8c0.1,0.1,0.3,0.2,0.4,0.2
				c0.1,0.1,0.3,0.1,0.4,0.2c0.1,0,0.3,0.1,0.4,0.1c0.1,0,0.3,0,0.4-0.1c0.1,0,0.2-0.1,0.3-0.2c0.1-0.1,0.1-0.2,0.1-0.4
				c0-0.1,0-0.2-0.1-0.3c-0.1-0.1-0.2-0.2-0.3-0.2c-0.1-0.1-0.2-0.1-0.4-0.2c-0.2-0.1-0.3-0.1-0.5-0.2c-0.2-0.1-0.3-0.2-0.5-0.3
				s-0.3-0.3-0.4-0.4c-0.1-0.2-0.1-0.4-0.1-0.6c0-0.3,0.1-0.6,0.2-0.8c0.1-0.2,0.3-0.4,0.6-0.5c0.2-0.1,0.5-0.2,0.9-0.2
				c0.4,0,0.8,0.1,1,0.2c0.3,0.1,0.5,0.2,0.7,0.4L182.7,38z"/>
			<path class="st2" d="M187.1,42h1.2l-2.4-5.5h-0.1l-2.4,5.5h1l0.4-1h1.8L187.1,42z M185.3,40.1l0.5-1.3l0.5,1.3H185.3z"/>
		</g>
		<polygon class="st3" points="170,31.4 170,25.7 163.8,19.6 157.7,25.7 157.7,31.4 		"/>
	</g>
</g>
<g>
	<path class="st4" d="M284.3,25.9c0,0,0,0.1,0.1,0.1c1,1.4,2,2.7,3,4.1c0,0.1,0.1,0.1,0,0.2c-1,1.4-2,2.7-2.9,4.1c0,0,0,0.1-0.1,0.1
		c0,0,0.1,0,0.1,0c0.7,0,1.5,0,2.2,0c0.1,0,0.1,0,0.2-0.1c1-1.4,2-2.7,2.9-4.1c0-0.1,0.1-0.1,0-0.2c-1-1.4-2-2.8-3-4.1
		c0-0.1-0.1-0.1-0.2-0.1c-0.8,0-1.5,0-2.3,0C284.4,25.9,284.4,25.9,284.3,25.9z M281,29.9c0,1.3,0,2.5,0,3.8c0,0,0,0.1,0,0.1
		c0,0.3,0.2,0.5,0.5,0.6c0.3,0.1,0.6,0,0.9-0.1c0.1,0,0.1-0.1,0.1-0.2c0-2.5,0-5.1,0-7.6c0-0.1,0-0.2,0-0.3c0-0.3-0.2-0.5-0.5-0.5
		c-0.3-0.1-0.6,0-0.9,0.1c-0.1,0-0.1,0.1-0.1,0.1C281,27.3,281,28.6,281,29.9z M291.8,34.4c0.4,0,0.8,0,1.2,0c0,0,0.1,0,0.1,0
		c0,0,0-0.1,0-0.1c0,0,0,0,0,0c-0.8-1.1-1.6-2.3-2.5-3.4c-0.1-0.1-0.1-0.1-0.1,0c-0.4,0.5-0.8,1-1.1,1.5c0,0.1,0,0.1,0,0.2
		c0.4,0.6,0.9,1.2,1.3,1.8c0,0.1,0.1,0.1,0.2,0.1C291,34.4,291.4,34.4,291.8,34.4z M290.4,29.5c0.9-1.2,1.7-2.4,2.6-3.6c0,0,0,0,0,0
		c0,0-0.1,0-0.1,0c-0.8,0-1.5,0-2.3,0c-0.1,0-0.1,0-0.1,0.1c-0.4,0.6-0.9,1.2-1.3,1.8c0,0.1,0,0.1,0,0.2
		C289.6,28.4,289.9,28.9,290.4,29.5C290.3,29.4,290.4,29.5,290.4,29.5z M281.7,24.1c0.1,0,0.1,0,0.2,0c0.3-0.1,0.6-0.3,0.7-0.6
		c0.1-0.3,0.1-0.7-0.2-0.9c-0.2-0.2-0.5-0.3-0.8-0.3c-0.5,0-1,0.4-0.9,1.1C280.8,23.9,281.2,24.1,281.7,24.1z"/>
	<path class="st4" d="M264,29.6c0-0.2,0-0.3,0.1-0.5c0.2-1.3,0.8-2.4,2-3c0.5-0.3,1.1-0.4,1.6-0.5c0.7-0.1,1.3,0,1.9,0.2
		c1.2,0.5,1.9,1.4,2.2,2.6c0.1,0.3,0.1,0.6,0.1,1c0,0.4-0.2,0.6-0.6,0.7c-0.6,0.1-1.2,0.2-1.9,0.3c-0.5,0.1-1,0.1-1.6,0.2
		c-0.5,0.1-1,0.1-1.6,0.2c-0.2,0-0.5,0.1-0.7,0.1c0.2,1.2,0.9,2,2,2.3c1.3,0.3,2.5,0.2,3.6-0.6c0,0,0.1,0,0.1,0
		c0.4,0.2,0.5,0.7,0.3,1c-0.1,0.1-0.2,0.3-0.4,0.4c-0.4,0.3-0.8,0.4-1.2,0.5c-0.2,0-0.4,0.1-0.6,0.1c0,0,0,0-0.1,0
		c-0.4,0-0.7,0-1.1,0c0,0-0.1,0-0.1,0c-0.3,0-0.6-0.1-0.8-0.1c-0.7-0.2-1.4-0.5-1.9-1c-0.7-0.7-1.1-1.6-1.2-2.6c0-0.1,0-0.2,0-0.3
		C264,30.3,264,30,264,29.6z M270.5,29.2c0-0.2-0.1-0.4-0.1-0.6c-0.2-0.6-0.5-1.1-1.1-1.4c-0.5-0.3-1.1-0.3-1.6-0.3
		c-0.8,0.1-1.4,0.5-1.8,1.2c-0.3,0.4-0.4,0.9-0.4,1.4c0,0.1,0,0.2,0,0.3C267.1,29.6,268.8,29.4,270.5,29.2z"/>
	<path class="st4" d="M297.6,34.6c-0.1,0-0.3,0-0.4-0.1c-1.1-0.2-2-0.6-2.7-1.4c-0.4-0.5-0.7-1.1-0.8-1.8c-0.1-0.5-0.1-1-0.1-1.5
		c0-0.9,0.2-1.8,0.7-2.6c0.6-0.9,1.4-1.4,2.4-1.6c0.9-0.2,1.7-0.2,2.6,0.2c1.2,0.5,1.9,1.4,2.2,2.7c0.1,0.3,0.1,0.6,0.1,0.8
		c0,0.4-0.2,0.7-0.7,0.7c-0.5,0.1-1,0.1-1.4,0.2c-0.5,0.1-1,0.1-1.6,0.2c-0.5,0.1-0.9,0.1-1.4,0.2c-0.4,0.1-0.8,0.1-1.3,0.2
		c0,0,0,0,0,0c0.1,0.2,0.1,0.4,0.2,0.6c0.4,1,1.1,1.6,2.1,1.8c0.5,0.1,1,0.1,1.5,0c0.6-0.1,1.2-0.4,1.7-0.7c0.1,0,0.1,0,0.1,0
		c0.3,0.2,0.4,0.5,0.3,0.8c-0.1,0.2-0.2,0.4-0.4,0.5c-0.4,0.3-0.8,0.4-1.2,0.5c-0.2,0.1-0.5,0.1-0.7,0.1c0,0,0,0-0.1,0
		C298.4,34.6,298,34.6,297.6,34.6z M295,29.9C295,29.9,295.1,29.9,295,29.9c0.6-0.1,1.1-0.1,1.7-0.2c0.5-0.1,1.1-0.1,1.6-0.2
		c0.6-0.1,1.2-0.2,1.7-0.2c0.1,0,0.1,0,0.1-0.1c0-0.2-0.1-0.4-0.1-0.6c-0.2-0.6-0.6-1.1-1.2-1.4c-0.4-0.2-0.8-0.2-1.3-0.2
		c-0.6,0-1.1,0.3-1.6,0.7C295.2,28.2,295,29,295,29.9z"/>
	<path class="st4" d="M311,34.4c-0.3,0.1-0.6,0.2-0.9,0.1c-0.4-0.1-0.5-0.3-0.5-0.7c0-1.6,0-3.2,0-4.8c0-0.1,0-0.2,0-0.4
		c0-0.5-0.2-0.9-0.5-1.3c-0.3-0.3-0.6-0.4-1-0.5c-1-0.2-1.9,0-2.8,0.5c-0.1,0-0.1,0.1-0.1,0.1c0,2.2,0,4.4,0,6.7
		c0,0.1,0,0.1-0.1,0.2c-0.3,0.1-0.6,0.1-0.9,0.1c-0.3-0.1-0.5-0.3-0.5-0.6c0,0,0-0.1,0-0.1c0-2.1,0-4.1,0-6.2c0-0.5,0.2-0.8,0.6-1.1
		c0.4-0.3,0.9-0.5,1.4-0.6c0.5-0.2,1.1-0.2,1.6-0.3c0.6,0,1.1,0,1.7,0.2c0.4,0.1,0.9,0.3,1.2,0.6c0.5,0.4,0.7,0.9,0.8,1.4
		c0,0.1,0.1,0.3,0.1,0.4C311,30.3,311,32.3,311,34.4z"/>
	<path class="st4" d="M276.4,34.6c-0.2,0-0.3,0-0.5-0.1c-0.5-0.1-1-0.3-1.3-0.6c-0.3-0.3-0.5-0.7-0.6-1.1c0-0.2,0-0.5,0-0.7
		c0-2.8,0-5.7,0-8.5c0-0.2,0-0.1,0.1-0.2c0.3-0.1,0.6-0.1,0.8-0.1c0.3,0.1,0.5,0.3,0.5,0.6c0,0.7,0,1.3,0,2c0,0,0,0.1,0,0.1
		c0,0,0.1,0,0.1,0c0.9,0,1.9,0,2.8,0c0.1,0,0.1,0,0.1,0.1c0.1,0.2,0.1,0.5,0.1,0.7c-0.1,0.3-0.2,0.4-0.5,0.4c-0.8,0-1.7,0-2.5,0
		c0,0-0.1,0-0.1,0c0,0,0,0.1,0,0.1c0,1.6,0,3.1,0,4.7c0,0.3,0,0.5,0.2,0.7c0.2,0.3,0.5,0.5,0.8,0.5c0.7,0.1,1.3,0,1.9-0.3
		c0.1,0,0.1,0,0.1,0c0.2,0.2,0.3,0.5,0.2,0.8c0,0.2-0.2,0.3-0.3,0.4c-0.3,0.2-0.6,0.3-0.9,0.3c0,0-0.1,0-0.1,0
		C277.1,34.6,276.8,34.6,276.4,34.6z"/>
	<path class="st4" d="M284.3,25.9c0.1,0,0.1,0,0.1,0c0.8,0,1.5,0,2.3,0c0.1,0,0.1,0,0.2,0.1c1,1.4,2,2.8,3,4.1c0.1,0.1,0,0.1,0,0.2
		c-1,1.4-2,2.7-2.9,4.1c0,0.1-0.1,0.1-0.2,0.1c-0.7,0-1.5,0-2.2,0c0,0-0.1,0-0.1,0c0,0,0-0.1,0.1-0.1c1-1.4,2-2.7,2.9-4.1
		c0.1-0.1,0-0.1,0-0.2c-1-1.4-2-2.7-3-4.1C284.4,25.9,284.4,25.9,284.3,25.9z"/>
	<path class="st4" d="M281,29.9c0-1.3,0-2.6,0-3.9c0-0.1,0-0.1,0.1-0.1c0.3-0.1,0.6-0.1,0.9-0.1c0.3,0.1,0.5,0.2,0.5,0.5
		c0,0.1,0,0.2,0,0.3c0,2.5,0,5.1,0,7.6c0,0.1,0,0.1-0.1,0.2c-0.3,0.1-0.6,0.1-0.9,0.1c-0.3-0.1-0.5-0.3-0.5-0.6c0,0,0-0.1,0-0.1
		C281,32.5,281,31.2,281,29.9z"/>
	<path class="st4" d="M291.8,34.4c-0.4,0-0.7,0-1.1,0c-0.1,0-0.1,0-0.2-0.1c-0.4-0.6-0.9-1.2-1.3-1.8c0-0.1,0-0.1,0-0.2
		c0.4-0.5,0.8-1,1.1-1.5c0.1-0.1,0.1-0.1,0.1,0c0.8,1.1,1.6,2.3,2.5,3.4c0,0,0,0,0,0c0,0,0,0.1,0,0.1c0,0-0.1,0-0.1,0
		C292.5,34.4,292.1,34.4,291.8,34.4z"/>
	<path class="st4" d="M290.4,29.5C290.4,29.5,290.3,29.4,290.4,29.5c-0.5-0.6-0.8-1.1-1.2-1.6c0-0.1,0-0.1,0-0.2
		c0.4-0.6,0.9-1.2,1.3-1.8c0-0.1,0.1-0.1,0.1-0.1c0.8,0,1.5,0,2.3,0c0,0,0.1,0,0.1,0c0,0,0,0,0,0C292.1,27.1,291.3,28.3,290.4,29.5z
		"/>
	<path class="st4" d="M281.7,24.1c-0.5,0-0.9-0.3-0.9-0.7c-0.1-0.7,0.4-1.1,0.9-1.1c0.3,0,0.6,0.1,0.8,0.3c0.2,0.3,0.3,0.6,0.2,0.9
		c-0.1,0.3-0.3,0.5-0.7,0.6C281.8,24.1,281.8,24.1,281.7,24.1z"/>
</g>
<path class="st5" d="M28.9,40c0.3-0.2,0.7-0.1,1-0.1c0.2,0,0.3,0.1,0.4,0.3l1.6,4h-1.2c-0.1-0.3-0.2-0.6-0.3-0.9c-0.5,0-1.1,0-1.6,0
	l-0.3,0.9h-1.2C27.8,42.7,28.3,41.3,28.9,40L28.9,40z M29.1,42.4c0.3,0,0.6,0,0.9,0c-0.1-0.5-0.3-1-0.5-1.5
	C29.4,41.4,29.1,41.9,29.1,42.4z M51.6,40.3c0-0.3,0.3-0.5,0.5-0.4l5.6,0c0.4,0.1,0.6,0.5,0.7,0.9l-1.9,0l0,3.3h-1.1l0-3.4
	c-0.9,0-1.8,0-2.8,0c-0.2,0.1-0.2,0.9,0.2,0.9l1.1,0v0.7c-0.3,0-0.6,0-1,0c-0.2,0-0.3,0.2-0.3,0.3l0,1.4h-1.1
	C51.6,42.9,51.6,41.6,51.6,40.3z M47.6,39.9c0.6,0,1.1,0,1.7,0c0.3,0,0.6-0.1,0.9,0.1c0.4,0.3,0.6,0.8,0.6,1.3c0,0.6,0,1.1,0,1.7
	c0,0.6-0.5,1.1-1.1,1.2c-0.7,0-1.5,0-2.2,0c-0.6,0-0.9-0.7-0.9-1.3c0-0.6,0-1.3,0-1.9C46.6,40.4,47.1,39.9,47.6,39.9L47.6,39.9z
	 M48.1,40.7c-0.2,0.1-0.4,0.3-0.4,0.5c0,0.5,0,1,0,1.4c0,0.3,0.2,0.6,0.6,0.6c0.3,0,0.7,0,1,0c0.2,0,0.5-0.2,0.5-0.4
	c0-0.5,0-1,0-1.5c0-0.3-0.2-0.6-0.5-0.5C48.8,40.7,48.4,40.7,48.1,40.7L48.1,40.7z M43.2,39.9c0.4-0.1,0.7,0,1.1,0c0,1,0,2,0,3
	c0,0.2,0.2,0.4,0.4,0.4c0.4,0,0.8,0,1.3,0c0.1,0.3,0.2,0.5,0.5,0.9h-3c-0.2,0-0.3-0.3-0.3-0.5C43.2,42.4,43.2,41.1,43.2,39.9z
	 M38.7,40.5c0-0.3,0.2-0.6,0.5-0.6l3.1,0l0,0.9c-0.8,0-1.6-0.1-2.4,0c-0.2,0.3-0.2,0.9,0.2,0.9l2,0v0.8h-2c-0.5,0-0.5,0.6-0.2,0.8
	l2.4,0c0,0.3,0,0.6,0,1l-3.2,0c-0.2,0-0.5-0.2-0.5-0.4C38.7,42.6,38.7,41.5,38.7,40.5z M32.4,40.4c0-0.7,1.1-0.7,1.3-0.4
	c0.4,0.7,0.9,1.4,1.4,2.1c0.1,0.1,0.2,0,0.2-0.1c0.4-0.7,0.8-1.3,1.2-2c0.1-0.2,1.4-0.5,1.4,0.4l0,3.7h-1.1l0-2.8l-1.6,2.8l-1.6-2.7
	l0,2.7h-1.1C32.4,42.9,32.4,41.6,32.4,40.4L32.4,40.4z M24,39.9c0.9,0,1.9,0,2.8,0c0,0.3,0,0.6,0,0.9c-0.6,0-2.6-0.2-2.7,0.3
	c-0.1,0.3-0.1,1.6,0.1,1.8c0.2,0.3,1.6,0.5,1.6,0c0-0.4,0.1-0.7-0.2-1c0.4,0,0.9,0,1.3,0c0.1,0.5,0,1,0,1.6c0,0.3-0.2,0.7-0.5,0.7
	h-2.2c-0.3,0-0.7-0.2-0.9-0.4c-0.3-0.4-0.4-0.8-0.4-1.3c0-0.5,0-1,0-1.5C22.9,40.3,23.4,39.9,24,39.9L24,39.9z M37.6,19.4
	c3.2,0,6.3,0,9.5,0.1c0.9,0.1,1.9,0.2,2.8,0.5c0.9,0.4,1.8,1,2.3,1.9c0.5,0.8,0.8,1.7,0.9,2.7c0.2,1,0.1,1.9,0.1,2.9
	c0,1.4,0,2.7,0,4.1c0,1.6-0.3,3.3-1.3,4.6c-0.5,0.6-1.1,1.1-1.8,1.4c-0.3,0.2-0.7-0.1-0.9-0.3c0-0.1,0.1-0.2,0.2-0.3
	c0.8-0.7,1.4-1.8,1.6-2.8c0.2-1,0.2-2.1,0.2-3.2c0-1.4-0.1-2.8-0.3-4.3c-0.1-0.7-0.3-1.5-0.8-2.1c-0.4-0.6-1-1-1.7-1.2
	c-0.5-0.1-1-0.1-1.5-0.1c-3.7-0.1-7.3-0.2-11-0.1c-1.1,0.1-2.3-0.1-3.4,0.2c-1,0.2-1.6,1.3-1.7,2.2c-0.1,1.4-0.1,2.9-0.1,4.3
	c0,1,0.1,2,0.8,2.7c0.4,0.5,1,0.8,1.7,0.8c3.5,0.2,7.1,0.1,10.6,0.2c0.5,0,1,0.1,1.5-0.1c0.5-0.2,0.8-0.8,0.8-1.4
	c0-0.5,0-1.1-0.1-1.6c-0.1-0.3-0.4-0.5-0.7-0.4c-3.6,0.1-7.2,0.1-10.8,0.2c-0.6,0-1.3,0.2-1.6,0.8c-0.4-0.1-0.9-0.1-1.3-0.2
	c-0.1-1.2-0.1-2.5-0.1-3.7c0.1-1.1,1-2,2.1-2c4.2-0.1,8.4-0.2,12.6,0c1.1,0.1,2.3,0.3,3.1,1.2c0.6,0.6,0.9,1.5,1,2.3
	c0.1,1.3,0.1,2.5,0.1,3.8c0,0.9,0,1.7-0.4,2.5c-0.5,1.4-1.8,2.4-3.3,2.7c-0.7,0.1-1.4,0.1-2,0.1c-4.9,0.1-9.8,0.1-14.7-0.2
	c-1,0-1.8-0.7-2.3-1.5c-0.6-1-0.7-2.3-0.7-3.4c0-2.7-0.1-5.4-0.1-8.1c0-1,0.2-2,0.7-2.8c0.6-0.9,1.6-1.5,2.7-1.7
	C32.9,19.5,35.2,19.5,37.6,19.4L37.6,19.4z"/>
<g>
	<path class="st4" d="M137.6,86.1c0-1.4,0.4-2.8,1.3-4c0.1-0.1,0.3-0.2,0.4,0l2,2c0.1,0.1,0,0.2-0.1,0.2l-0.7,0
		c-0.4,0-0.7,0.3-0.7,0.7c0,0.4,0.3,0.7,0.7,0.7h2.8c0.3,0,0.6-0.2,0.6-0.6l0-2.8c0-0.4-0.3-0.7-0.7-0.7s-0.7,0.3-0.7,0.7v0.7
		c0,0.1-0.1,0.2-0.2,0.1l-2-2l0,0c-0.1-0.1-0.1-0.3,0-0.4c1.2-0.9,2.6-1.3,4-1.3v-1.8c-2.2,0-4.3,0.8-6,2.5c-1.7,1.7-2.5,3.9-2.5,6
		H137.6z"/>
	<path class="st4" d="M151,86.1c0-1.4-0.4-2.8-1.3-4c-0.1-0.1-0.3-0.2-0.4,0l-2,2c-0.1,0.1,0,0.2,0.1,0.2l0.7,0
		c0.4,0,0.7,0.3,0.7,0.7c0,0.4-0.3,0.7-0.7,0.7h-2.8c-0.3,0-0.6-0.2-0.6-0.6l0-2.8c0-0.4,0.3-0.7,0.7-0.7c0.4,0,0.7,0.3,0.7,0.7v0.7
		c0,0.1,0.1,0.2,0.2,0.1l2-2l0,0c0.1-0.1,0.1-0.3,0-0.4c-1.2-0.9-2.6-1.3-4-1.3v-1.8c2.2,0,4.3,0.8,6,2.5c1.7,1.7,2.5,3.9,2.5,6H151
		z"/>
	<path class="st4" d="M137.6,86.1c0,1.4,0.4,2.8,1.3,4c0.1,0.1,0.3,0.2,0.4,0l2-2c0.1-0.1,0-0.2-0.1-0.2l-0.7,0
		c-0.4,0-0.7-0.3-0.7-0.7c0-0.4,0.3-0.7,0.7-0.7h2.8c0.3,0,0.6,0.2,0.6,0.6l0,2.8c0,0.4-0.3,0.7-0.7,0.7s-0.7-0.3-0.7-0.7v-0.7
		c0-0.1-0.1-0.2-0.2-0.1l-2,2l0,0c-0.1,0.1-0.1,0.3,0,0.4c1.2,0.9,2.6,1.3,4,1.3v1.8c-2.2,0-4.3-0.8-6-2.5c-1.7-1.7-2.5-3.9-2.5-6
		H137.6z"/>
	<path class="st4" d="M151,86.1c0,1.4-0.4,2.8-1.3,4c-0.1,0.1-0.3,0.2-0.4,0l-2-2c-0.1-0.1,0-0.2,0.1-0.2l0.7,0
		c0.4,0,0.7-0.3,0.7-0.7c0-0.4-0.3-0.7-0.7-0.7h-2.8c-0.3,0-0.6,0.2-0.6,0.6l0,2.8c0,0.4,0.3,0.7,0.7,0.7c0.4,0,0.7-0.3,0.7-0.7
		v-0.7c0-0.1,0.1-0.2,0.2-0.1l2,2l0,0c0.1,0.1,0.1,0.3,0,0.4c-1.2,0.9-2.6,1.3-4,1.3v1.8c2.2,0,4.3-0.8,6-2.5c1.7-1.7,2.5-3.9,2.5-6
		H151z"/>
	<path class="st4" d="M162.2,91.2c-0.9,0-1.7-0.2-2.4-0.5c-0.7-0.3-1.4-0.8-1.9-1.3c-0.5-0.6-0.9-1.2-1.2-1.9
		c-0.3-0.7-0.4-1.5-0.4-2.2c0-0.8,0.1-1.5,0.4-2.2c0.3-0.7,0.7-1.3,1.2-1.9c0.5-0.5,1.2-1,1.9-1.3c0.7-0.3,1.5-0.5,2.4-0.5
		c0.9,0,1.7,0.2,2.4,0.5c0.7,0.3,1.4,0.8,1.9,1.4c0.5,0.6,0.9,1.2,1.2,1.9c0.3,0.7,0.4,1.5,0.4,2.2c0,0.8-0.1,1.5-0.4,2.2
		c-0.3,0.7-0.7,1.3-1.2,1.9c-0.5,0.5-1.2,1-1.9,1.3C163.8,91,163,91.2,162.2,91.2 M159.5,85.2c0,0.4,0.1,0.8,0.2,1.2
		c0.1,0.4,0.3,0.7,0.5,1c0.2,0.3,0.5,0.5,0.8,0.7c0.3,0.2,0.7,0.3,1.2,0.3c0.5,0,0.9-0.1,1.2-0.3c0.3-0.2,0.6-0.4,0.8-0.7
		c0.2-0.3,0.4-0.6,0.5-1c0.1-0.4,0.2-0.8,0.2-1.1c0-0.4-0.1-0.8-0.2-1.2c-0.1-0.4-0.3-0.7-0.5-1c-0.2-0.3-0.5-0.5-0.8-0.7
		c-0.3-0.2-0.7-0.3-1.2-0.3c-0.5,0-0.9,0.1-1.2,0.3c-0.3,0.2-0.6,0.4-0.8,0.7c-0.2,0.3-0.4,0.6-0.5,1
		C159.6,84.5,159.5,84.9,159.5,85.2"/>
	<path class="st4" d="M178,91.1h-3.1v-4.9c0-0.4-0.1-0.7-0.3-0.9c-0.2-0.2-0.4-0.3-0.7-0.3c-0.3,0-0.5,0.1-0.8,0.3
		c-0.3,0.2-0.5,0.5-0.7,0.9v4.9h-3.1v-8.7h2.8v1.3c0.3-0.5,0.7-0.8,1.3-1.1c0.6-0.2,1.2-0.4,2-0.4c0.6,0,1.1,0.1,1.4,0.3
		c0.3,0.2,0.6,0.5,0.8,0.8c0.2,0.3,0.3,0.7,0.4,1c0.1,0.4,0.1,0.7,0.1,1V91.1z"/>
	<rect x="179.5" y="82.4" class="st4" width="3.1" height="8.7"/>
	<polygon class="st4" points="186.6,82.4 188,84.9 189.4,82.4 192.6,82.4 189.7,86.7 192.7,91.1 189.5,91.1 188,88.6 186.5,91.1 
		183.4,91.1 186.3,86.7 183.4,82.4 	"/>
</g>
<g>
	<path class="st4" d="M57.1,77.7c0,0,0.1,0.1,0.1,0.1c0.4-0.1,0.8-0.2,1.2-0.4c0.1,0,0.2-0.2,0.3-0.3c-0.2-0.1-0.4-0.4-0.5-0.3
		C57.8,77.1,57.5,77.4,57.1,77.7"/>
	<path class="st4" d="M52.7,93.3c0-0.3,0-0.6,0-1c0-0.7,0-1.3,0-2c0-0.5,0-1-0.7-1.1h1.9c-0.6,0.2-0.5,0.8-0.5,1.3
		c0,1.4,0,2.8-0.1,4.1c0,0.2-0.1,0.4-0.1,0.5c-0.2-0.1-0.4-0.1-0.5-0.2c-1-1-2.1-2.1-3.1-3.2c-0.2-0.2-0.4-0.4-0.6-0.7
		c-0.1,0-0.1,0.1-0.2,0.1c0,0.2,0,0.4,0,0.5c0,0.8,0,1.6,0,2.3c0,0.5,0.1,0.8,0.6,1.1c-0.1,0-0.2,0.1-0.3,0.1c-1,0-2,0-3.1,0
		c-0.3,0-0.4-0.1-0.5-0.4c-0.1-0.5-0.3-0.9-0.5-1.4c0-0.1-0.2-0.3-0.3-0.3c-0.4,0-0.9,0-1.3,0c-0.1,0-0.2,0-0.2,0.1
		c-0.3,0.3-0.5,1.5-0.3,1.9h-1.6c1.1-0.9,1.2-2.2,1.7-3.3c0.4-0.8,0.6-1.6,1-2.4c0.1-0.1,0.2-0.3,0.3-0.4c0.1,0.1,0.3,0.2,0.3,0.4
		c0.6,1.5,1.2,3,1.8,4.6c0.1,0.3,0.4,0.6,0.6,0.9c0.4,0.3,0.8,0.2,0.9-0.3c0.1-0.2,0-0.4,0-0.6c0-1.4,0-2.8,0-4.2
		c0-0.2,0.1-0.3,0.1-0.5c0.2,0.1,0.4,0.1,0.5,0.3c1.1,1.1,2.2,2.3,3.3,3.4c0.1,0.2,0.3,0.3,0.5,0.4C52.6,93.4,52.7,93.4,52.7,93.3
		 M44.3,91.1c0,0-0.1,0-0.1,0c-0.1,0.3-0.2,0.6-0.3,0.8c-0.4,0.9-0.1,0.8,0.6,0.8c0.1,0,0.2,0,0.2,0c0.1-0.1,0.2-0.2,0.2-0.2
		C44.6,92,44.5,91.5,44.3,91.1"/>
	<path class="st4" d="M45.4,84.1H44c0.9-0.8,1.1-2,1.5-2.9c0.3-0.8,0.6-1.5,0.9-2.3c0.1-0.2,0.2-0.3,0.4-0.5
		c0.1,0.2,0.3,0.3,0.3,0.5c0.6,1.4,1.1,2.8,1.7,4.3c0.1,0.2,0.1,0.4,0.2,0.4c0.2,0.1,0.5,0.3,0.7,0.3c0.1,0,0.3-0.4,0.3-0.6
		c0-1.4,0-2.8,0.1-4.2c0-0.2,0.1-0.4,0.2-0.6c0.2,0.1,0.4,0.2,0.5,0.3c1.1,1.1,2.1,2.2,3.2,3.3c0.1,0.1,0.2,0.2,0.4,0.3
		c-0.1-1.3,0.3-2.6-0.3-3.8h1.2c-0.1,0.3-0.2,0.7-0.2,1c0,1.3,0,2.7-0.1,4c0,0.2-0.1,0.3-0.2,0.5c-0.2-0.1-0.3-0.1-0.5-0.2
		c-1.1-1.1-2.2-2.2-3.3-3.3c-0.1-0.1-0.2-0.2-0.4-0.3c0.1,1.2-0.3,2.5,0.3,3.8h-3c-0.2-0.5-0.3-1-0.5-1.5c-0.1-0.1-0.2-0.3-0.4-0.3
		c-0.4,0-0.8,0-1.1,0c-0.1,0-0.3,0.1-0.3,0.1c-0.2,0.4-0.3,0.9-0.5,1.3C45.2,83.8,45.3,83.9,45.4,84.1 M46.6,80.2
		c-0.1,0-0.1,0-0.2,0c-0.2,0.5-0.4,1-0.6,1.5h1.3C47,81.2,46.8,80.7,46.6,80.2"/>
	<path class="st4" d="M33.1,84.1h-1.6c0.1-0.4,0.2-0.8,0.2-1.2c0-1.2,0-2.3,0-3.5c0-0.3-0.2-0.6-0.3-0.9c0,0,0.2,0,0.4,0
		c0.6,0,1.2,0,1.8,0c0.6,0,1.1,0.2,1.4,0.8c0.3,0.6,0.2,1.1-0.2,1.6c-0.5,0.8-0.5,0.8,0.1,1.5c0.4,0.4,0.7,0.9,1.1,1.3
		c0.2,0.2,0.5,0.2,0.7,0.2c0.1,0,0.2-0.4,0.2-0.6c0-1.3,0-2.6,0-3.8c0-0.3-0.1-0.5-0.2-0.9h1.5c-0.1,0.4-0.2,0.7-0.2,1.1
		c0,1.2,0,2.4,0,3.6c0,0.3,0,0.7,0.6,0.7c0,0-0.1,0.1-0.1,0.1c-0.1,0-0.3,0.1-0.4,0.1c-0.8,0-1.6,0.1-2.4,0c-0.3,0-0.7-0.3-1-0.6
		c-0.4-0.4-0.7-1-1.1-1.4c-0.1-0.2-0.4-0.2-0.7-0.3c-0.1,0-0.3,0.2-0.3,0.3c0,0.4,0,0.9,0.1,1.3C32.8,83.7,33,83.8,33.1,84.1
		 M34.2,80.2c0-0.8-0.5-1.4-1.2-1.3c-0.1,0-0.3,0.2-0.3,0.3c0,0.6,0,1.1,0,1.7c0,0.1,0.2,0.4,0.4,0.4C33.8,81.5,34.2,81,34.2,80.2"
		/>
	<path class="st4" d="M19.6,93.6c0.3-0.6,0.6-1.1,0.8-1.6c0.4-0.8,0.7-1.6,1.1-2.4c0.1-0.1,0.2-0.3,0.4-0.4c0.1,0.2,0.2,0.3,0.2,0.5
		c0.2,1.5,0.4,3,0.7,4.5c0.1,0.4,0.3,0.7,0.5,1.1c-0.4,0-0.9,0-1.3,0c-0.1,0-0.2-0.2-0.2-0.4c-0.1-1-0.2-2-0.4-3
		c0-0.1-0.1-0.1-0.1-0.3c-0.2,0.4-0.4,0.8-0.6,1.2c-0.3,0.7-0.7,1.4-1,2.1c-0.1,0.1-0.2,0.2-0.3,0.4C19.2,95,19,94.9,19,94.8
		c-0.4-0.9-0.9-1.8-1.3-2.6c-0.1-0.2-0.2-0.3-0.3-0.6c-0.1,0.6-0.2,1.1-0.3,1.6c0,0.3,0,0.7-0.1,1c-0.1,0.4-0.1,0.8,0.5,1.1H16
		c0.1-0.6,0.3-1.1,0.4-1.7c0.2-1.3,0.4-2.6,0.6-3.9c0-0.2,0.1-0.3,0.2-0.5C18.1,90.5,18.7,92,19.6,93.6"/>
	<path class="st4" d="M60,84.1h-3.3c0.1-0.3,0.2-0.7,0.2-1c0-1.3,0-2.5,0-3.8c0-0.2-0.1-0.5-0.2-0.8h1.5c-0.1,0.3-0.2,0.6-0.2,0.9
		c0,1.2,0,2.5,0,3.7c0,0.3-0.1,0.7,0.4,0.7c0.4,0.1,0.7-0.2,0.8-0.5c0.5-1.2,1-2.4,1.5-3.6c0.1-0.3,0.3-0.7,0.4-1
		c0.1-0.1,0.2-0.3,0.4-0.5c0.3,0.8,0.6,1.5,0.9,2.2c0.4,0.9,0.7,1.9,1.1,2.8c0.1,0.3,0.4,0.6,0.7,0.9c-0.5,0-1,0-1.5,0
		c-0.1,0-0.1-0.1-0.2-0.2c-0.1-0.4-0.3-0.8-0.4-1.2c-0.1-0.3-0.3-0.4-0.6-0.4c-0.1,0-0.2,0-0.4,0c-0.9,0-1.3,0.4-1.4,1.3
		C59.8,83.7,59.9,83.9,60,84.1 M60.4,81.7h1.3c-0.2-0.6-0.4-1.1-0.6-1.6c0,0-0.1,0-0.1,0C60.9,80.6,60.7,81.1,60.4,81.7"/>
	<path class="st4" d="M34.8,89.3h1.9c-0.8,0.5-0.5,1.3-0.6,1.9C36,92.4,36,93.5,36,94.7c0,0.2,0,0.4-0.1,0.6
		c-1.5-1.3-2.9-2.7-4.2-4.1c0,0-0.1,0-0.1,0c0,0.5,0,1,0,1.6c0,0.4,0.1,0.9,0.1,1.3c0,0.4,0.1,0.8,0.5,1.1h-1.8
		c0.5-0.3,0.5-0.8,0.5-1.2c0-1.4,0.1-2.9,0.1-4.3c0-0.2,0.1-0.3,0.1-0.5c0,0,0.1-0.1,0.1-0.1c1.4,1.4,2.8,2.8,4.2,4.3
		c0.1,0,0.1,0,0.2-0.1c0-0.3,0-0.5,0-0.8c0-0.8-0.1-1.5-0.1-2.3c0-0.4-0.1-0.8-0.6-0.8C34.7,89.4,34.8,89.3,34.8,89.3"/>
	<path class="st4" d="M19.5,86.6h41.1c0,0.1,0,0.1,0,0.2c-0.2,0-0.4,0-0.5,0c-2.7,0-5.4,0-8,0.1c-2,0-4,0-6,0.1
		c-3.4,0-6.8,0.1-10.3,0.1c-5.4,0-10.8-0.1-16.2-0.2c-0.1,0-0.1,0-0.2,0C19.5,86.7,19.5,86.6,19.5,86.6"/>
	<path class="st4" d="M65.4,95.2c-0.8,0.1-1.6,0-2.2-0.8c-0.3-0.4-0.6-0.9-1-1.3c-0.2-0.2-0.5-0.2-0.8-0.3c0,0-0.2,0.3-0.2,0.5
		c0,0.4,0,0.7,0.1,1.1c0.1,0.3,0.3,0.5,0.4,0.7H60c0.1-0.5,0.2-1,0.3-1.6c0-1.1,0-2.2,0-3.3c0-0.7-0.1-0.8-0.6-1c0,0,0-0.1,0-0.1
		c1,0,2-0.1,3,0c1.2,0.2,1.6,1.4,0.8,2.5c-0.6,0.8-0.6,0.8,0.1,1.5C64.2,94,64.8,94.6,65.4,95.2 M61.3,91c0,0.3,0,0.5,0,0.8
		c0,0.4,0.2,0.6,0.6,0.6c0.6,0,0.9-0.4,1-1c0.1-0.8-0.3-1.5-0.9-1.6c-0.6-0.1-0.7,0-0.7,0.6C61.3,90.5,61.3,90.8,61.3,91"/>
	<path class="st4" d="M28,89.3h1.8c-0.5,0.2-0.5,0.6-0.5,1c0,0.8,0,1.7,0,2.5c0,2.6-2.3,2.9-3.8,2.2c-0.6-0.3-0.9-0.9-1-1.6
		c-0.1-1.1-0.1-2.1-0.1-3.2c0-0.4,0-0.9-0.7-0.8c0,0,0.1-0.1,0.1-0.1h2c-0.1,0.3-0.3,0.6-0.3,0.9c0,1.1,0,2.2,0,3.3
		c0,0.9,0.7,1.4,1.5,1.4c0.8,0,1.3-0.5,1.4-1.4c0-1.1,0-2.3,0-3.4C28.5,89.8,28.2,89.5,28,89.3"/>
	<path class="st4" d="M39.8,84.1c0.1-0.4,0.2-0.7,0.2-1c0-1.2,0-2.5,0-3.7c0-0.3-0.2-0.5-0.3-0.8c0.1,0,0.3,0,0.6-0.1
		c0.5,0,0.9,0,1.4,0c0.6,0,1,0.2,1.3,0.7c0.2,0.5,0.1,1-0.3,1.4c-0.1,0.1-0.1,0.2-0.2,0.3c0.3,0.2,0.5,0.3,0.7,0.6
		c0.9,0.9,0.5,2.4-0.7,2.6C41.5,84.2,40.6,84.1,39.8,84.1 M41,82.3c0,0.2,0,0.4,0,0.7c0,0.3,0,0.6,0.5,0.7c0.4,0,0.9,0,1.1-0.4
		c0.3-0.7-0.2-1.7-0.9-2c-0.4-0.1-0.6,0-0.6,0.4C41,81.9,41,82.1,41,82.3 M41,79.9c0,0.1,0,0.2,0,0.3c0.1,0.2,0.1,0.5,0.3,0.6
		c0.3,0.1,0.6-0.1,0.7-0.4c0.2-0.4,0-1.1-0.3-1.4c-0.1-0.1-0.4-0.1-0.5-0.1c-0.1,0-0.2,0.3-0.2,0.4C41,79.5,41,79.7,41,79.9"/>
	<path class="st4" d="M58.5,94.2c0.3,0.7,0.1,1.1-0.6,1.1c-0.9,0-1.9,0-2.7,0c0.1-0.5,0.3-0.9,0.3-1.3c0-1.2,0-2.5,0-3.7
		c0-0.7,0-0.7-0.6-1c0.2,0,0.4-0.1,0.6-0.1c0.8,0,1.6,0,2.4,0c0.7,0,0.7,0.1,0.6,0.7c0,0.1-0.1,0.2-0.1,0.4
		c-0.3-0.7-0.9-0.6-1.4-0.6c-0.1,0-0.3,0.2-0.3,0.4c0,0.4,0,0.9,0,1.3c0,0.3,0.1,0.4,0.4,0.4c0.4,0,0.9-0.1,1.4-0.1v0.9
		c-0.5-0.1-0.9-0.2-1.4-0.3c-0.3-0.1-0.4,0.1-0.4,0.4c0,0.5,0,1,0,1.6c0,0.2,0.2,0.4,0.3,0.4C57.5,94.9,58.1,94.7,58.5,94.2"/>
	<path class="st4" d="M30.3,79.9c-0.1-0.1-0.2-0.1-0.3-0.2c-0.4-1-1.3-1-2.1-0.9c-0.9,0.1-1.3,0.7-1.5,1.5c-0.2,0.9-0.1,1.8,0.5,2.5
		c0.9,1.2,2.4,1.2,3.4,0.1c0.2,0.5,0,1.2-0.6,1.3c-1.4,0.3-2.8,0.2-3.8-1c-0.9-0.9-0.9-2.1-0.4-3.2c0.5-1.1,1.5-1.6,2.7-1.7
		c0.6,0,1.3,0.1,1.9,0.2c0.1,0,0.3,0.3,0.4,0.4C30.3,79.2,30.3,79.5,30.3,79.9"/>
	<path class="st4" d="M37.1,90.3c-0.2-0.9,0.1-1.1,0.8-1.1c1.2,0,2.5,0,3.7,0c0.9,0,1,0.1,0.6,1c-0.4-0.5-0.9-0.5-1.5-0.5
		c-0.3,0-0.5,0.1-0.5,0.4c0,1.5,0,2.9,0.1,4.4c0,0.2,0.3,0.4,0.4,0.7H39c0.1-0.5,0.2-1,0.2-1.5c0-1.1,0-2.2,0-3.4
		c0-0.4-0.1-0.5-0.5-0.5C38.1,89.8,37.5,89.7,37.1,90.3"/>
	<path class="st4" d="M17.3,84.1c0.1-0.3,0.2-0.6,0.2-0.8c0-1.3,0-2.6,0-3.9c0-0.2-0.2-0.5-0.3-0.8c0.1,0,0.2-0.1,0.4-0.1
		c0.7,0,1.4,0,2.2,0c0.6,0,0.6,0,0.6,0.6c0,0.1,0,0.2-0.1,0.5c-0.3-0.8-0.8-0.7-1.3-0.7c-0.3,0-0.5,0.1-0.4,0.5c0,0.2,0,0.4,0,0.6
		c0,1,0.1,1.1,1.1,0.9c0.2,0,0.5,0,0.7,0c0,0.3,0,0.6-0.1,0.8c-0.3-0.1-0.5-0.3-0.7-0.3c-0.9-0.1-1-0.1-1,0.8c0,0.1,0,0.2,0,0.3
		c0,1.2,0.2,1.2,1.3,1.1c0.2,0,0.4-0.3,0.6-0.4c0.3,0.6,0.1,1-0.6,1c-0.8,0-1.6,0-2.4-0.1C17.4,84.1,17.3,84.1,17.3,84.1"/>
	<path class="st4" d="M24.3,79.5c-0.4-0.7-0.9-0.9-1.4-0.7c-0.5,0.2-0.7,0.8-0.3,1.2c0.3,0.3,0.7,0.6,1.1,1c0.5,0.4,0.9,0.9,0.9,1.7
		c0,0.7-0.4,1.3-1.1,1.5c-0.4,0.1-0.7,0.1-1.1,0.1c-0.9,0-1.2-0.6-0.8-1.5c0.1,0.2,0.2,0.3,0.3,0.5c0.2,0.4,0.5,0.6,0.9,0.6
		c0.3,0,0.8-0.3,0.9-0.5c0.1-0.3,0-0.8-0.2-1.1c-0.4-0.5-0.9-0.8-1.3-1.2c-0.6-0.6-0.7-1.5-0.2-2.1c0.5-0.6,1.8-0.8,2.4-0.4
		C24.7,78.8,24.4,79.1,24.3,79.5"/>
	<path class="st4" d="M57.1,77.7c0.4-0.3,0.8-0.6,1.2-0.9c0.1,0,0.3,0.2,0.5,0.3c-0.1,0.1-0.2,0.3-0.3,0.3c-0.4,0.1-0.8,0.2-1.2,0.4
		C57.1,77.8,57.1,77.7,57.1,77.7"/>
</g>
<g>
	<path class="st4" d="M273.8,86.2c-0.1-0.2-0.3-0.3-0.6-0.3h-0.4c-0.2,0-0.5,0.2-0.6,0.4l-3.5,7.2c-0.1,0.2,0,0.3,0.2,0.3h0.8
		c0.3,0,0.5-0.1,0.5-0.3c0.1-0.2,0.3-0.6,0.3-0.6c0-0.1,0.2-0.2,0.4-0.2l3.7,0c0.2,0,0.4,0,0.4,0.2c0,0.1,0.2,0.4,0.3,0.6
		c0.1,0.2,0.3,0.3,0.6,0.3h1.2c0.2,0,0.3-0.2,0.2-0.3C277.4,93.3,273.8,86.2,273.8,86.2 M271.6,91.5c-0.2,0-0.3-0.2-0.2-0.4l1.4-2.9
		c0.1-0.2,0.2-0.2,0.3,0l1.3,2.9c0.1,0.2,0,0.4-0.2,0.4L271.6,91.5z M300.5,86.2v7.2c0,0.2,0.2,0.3,0.4,0.3h0.9
		c0.2,0,0.4-0.1,0.4-0.4v-7.2c0-0.2-0.1-0.4-0.4-0.4h-1C300.7,85.8,300.5,85.9,300.5,86.2 M284.7,90.7c-0.1-0.2-0.1-0.4,0.1-0.4
		c0,0,0.8-0.2,1.2-0.6c0.4-0.4,0.6-0.9,0.6-1.5c0-0.4-0.1-0.8-0.2-1.1c-0.2-0.3-0.4-0.5-0.6-0.7c-0.3-0.2-0.6-0.3-1-0.4
		c-0.4-0.1-0.9-0.1-0.9-0.1c-0.2,0-0.6,0-0.8,0h-3.9c-0.2,0-0.4,0.2-0.4,0.4v7.2c0,0.2,0.2,0.4,0.4,0.4h0.9c0.2,0,0.4-0.1,0.4-0.4
		c0,0,0-2.9,0-2.9c0,0,0,0,0,0l1.8,0c0.2,0,0.5,0.1,0.6,0.3l1.8,2.6c0.2,0.2,0.3,0.3,0.5,0.3h1.2c0.2,0,0.2-0.2,0.2-0.3
		C286.5,93.3,284.7,90.7,284.7,90.7 M283.9,89.3c-0.2,0.1-0.5,0.1-0.5,0.1c-0.2,0-0.6,0-0.8,0h-1.8c-0.2,0-0.4-0.2-0.4-0.4v-1.5
		c0-0.2,0.2-0.4,0.4-0.4h1.8c0.2,0,0.6,0,0.8,0c0,0,0.3,0,0.5,0.1c0.2,0.1,0.4,0.1,0.6,0.2c0.1,0.1,0.2,0.2,0.3,0.4
		c0.1,0.1,0.1,0.3,0.1,0.4c0,0.2,0,0.3-0.1,0.4c-0.1,0.1-0.2,0.3-0.3,0.4C284.3,89.1,284.2,89.2,283.9,89.3 M312.1,85.8
		c-0.2,0-0.4,0.1-0.4,0.3c0,0.1,0,4.6,0,4.6c0,0.2-0.1,0.3-0.3,0.1l-4.6-4.8c-0.1-0.2-0.4-0.3-0.7-0.3h-0.9c-0.3,0-0.4,0.1-0.4,0.3
		v7.3c0,0.1,0.1,0.3,0.4,0.3h0.9c0.2,0,0.4-0.1,0.4-0.3c0-0.1,0-4.8,0-4.8c0-0.2,0.1-0.3,0.3-0.1l4.8,5c0.2,0.2,0.3,0.3,0.7,0.3h0.6
		c0.2,0,0.4-0.2,0.4-0.4v-7.1c0-0.2-0.2-0.4-0.4-0.4H312.1z M293.4,90.3c-0.1,0.2-0.3,0.2-0.4,0l-2.2-4.1c-0.1-0.2-0.3-0.3-0.6-0.3
		H289c-0.2,0-0.4,0.2-0.4,0.4v7.2c0,0.2,0.1,0.4,0.4,0.4h0.8c0.2,0,0.4-0.1,0.4-0.3c0-0.1,0-5.2,0-5.2c0,0,2.8,5.2,2.8,5.2
		c0.1,0.2,0.3,0.2,0.5,0c0,0,2.8-5.2,2.8-5.2c0,0,0,5,0,5.2c0,0.2,0.2,0.3,0.4,0.3h0.9c0.2,0,0.4-0.1,0.4-0.4v-7.1
		c0-0.2-0.2-0.4-0.4-0.4h-1.2c-0.3,0-0.5,0.2-0.6,0.3L293.4,90.3z"/>
	<path class="st4" d="M258.8,89.8c0,3.9,4,4.1,4.7,4.1c2.6,0,3.7-0.7,3.8-0.7c0.2-0.1,0.4-0.3,0.4-0.6v-2.7c0-0.2-0.2-0.4-0.4-0.4
		h-3.3c-0.2,0-0.4,0.2-0.4,0.4v0.3c0,0.2,0.2,0.4,0.4,0.4h1.9c0.2,0,0.3,0.1,0.3,0.3c0,0,0,1.2,0,1.2c-0.4,0.2-2.1,0.7-3.5,0.3
		c-2-0.5-2.2-2.1-2.2-2.6c0-0.4,0.1-2.5,2.6-2.7c2-0.2,3.3,0.6,3.3,0.6c0.2,0.1,0.5,0,0.6-0.2c0,0,0.2-0.5,0.2-0.5
		c0.1-0.2,0.1-0.4-0.2-0.6c0,0-1.4-0.8-3.6-0.8C258.9,85.7,258.8,89.3,258.8,89.8"/>
	<path class="st5" d="M311.7,83.8h-5.2c-0.2,0-0.4-0.1-0.4-0.3c-0.1-0.2-0.1-0.4,0-0.5l2.6-4.5c0.1-0.2,0.3-0.3,0.4-0.3
		c0.2,0,0.4,0.1,0.4,0.3l2.6,4.5c0.1,0.2,0.1,0.4,0,0.5C312,83.7,311.9,83.8,311.7,83.8"/>
	<path class="st4" d="M315.2,92.1c0.5,0,0.9,0.4,0.9,0.9c0,0.5-0.4,0.9-0.9,0.9c-0.5,0-0.9-0.4-0.9-0.9
		C314.3,92.5,314.8,92.1,315.2,92.1 M315.3,93.7c0.4,0,0.7-0.3,0.7-0.8c0-0.4-0.3-0.8-0.7-0.8c-0.4,0-0.7,0.3-0.7,0.8
		C314.5,93.4,314.8,93.7,315.3,93.7 M314.9,92.4h0.4c0.2,0,0.4,0.1,0.4,0.3c0,0.2-0.1,0.3-0.3,0.3l0.3,0.5h-0.2l-0.3-0.5h-0.1v0.5
		h-0.2V92.4z M315.1,92.9h0.2c0.1,0,0.2,0,0.2-0.2c0-0.1-0.1-0.2-0.2-0.2h-0.2V92.9z"/>
</g>
</svg>
