<?xml version="1.0" encoding="utf-8"?>
<!-- Generator: Adobe Illustrator 24.3.0, SVG Export Plug-In . SVG Version: 6.00 Build 0)  -->
<svg version="1.1" id="Layer_1" xmlns="http://www.w3.org/2000/svg" xmlns:xlink="http://www.w3.org/1999/xlink" x="0px" y="0px"
	 viewBox="0 0 329.2 123.9" style="enable-background:new 0 0 329.2 123.9;" xml:space="preserve">
<style type="text/css">
	.st0{fill:#575756;}
	.st1{fill:#595A59;}
	.st2{fill:#595958;}
	.st3{fill-rule:evenodd;clip-rule:evenodd;fill:#575756;}
	.st4{fill:#FFFFFF;}
</style>
<g>
	<g>
		<path class="st0" d="M234.6,25.6l13.1-1.3v0.4l-5.8,0.6c-0.5-0.1-1-0.1-1.5,0c-0.2,0.1-0.3,0.1-0.6,0.2l-5.3,0.6L234.6,25.6
			L234.6,25.6z"/>
		<path class="st0" d="M234.6,26.5l4.6-0.4c-0.2,0.2-0.3,0.3-0.4,0.5l-4.1,0.4L234.6,26.5 M243,25.7l4.8-0.4v0.4l-4.2,0.4
			C243.4,25.9,243.2,25.8,243,25.7"/>
		<path class="st0" d="M234.6,27.4l3.9-0.3c-0.1,0.2-0.2,0.3-0.2,0.5l-3.6,0.3L234.6,27.4 M244,26.5l3.8-0.3v0.4l-3.4,0.3
			C244.2,26.8,244.2,26.7,244,26.5"/>
		<path class="st0" d="M234.6,28.3l3.4-0.3c-0.1,0.2-0.1,0.3-0.1,0.5l-3.4,0.3L234.6,28.3 M244.6,27.3l3.3-0.3v0.4l-3.1,0.3
			C244.7,27.6,244.6,27.5,244.6,27.3"/>
		<path class="st0" d="M234.6,29.2l3.4-0.3c0,0.2,0,0.3,0.1,0.4l-3.4,0.3V29.2 M244.8,28.2l3-0.3v0.4l-2.9,0.3
			C244.8,28.5,244.8,28.4,244.8,28.2"/>
		<path class="st0" d="M239,31l-0.9,0.1v-0.6l0.5-0.1C238.6,30.7,238.8,30.9,239,31L239,31z"/>
		<path class="st0" d="M238,31.4l1.3-0.1c0.3,0.2,0.6,0.3,0.9,0.5l-2.2,0.2L238,31.4L238,31.4z"/>
		<path class="st0" d="M238,38.7l3-0.3c0-0.1,0.1-0.1,0.1-0.1l3.3-0.3c-0.1,0.2-0.1,0.3-0.2,0.6l-6,0.6v-0.5H238L238,38.7z"/>
		<path class="st0" d="M238,37.8l3.4-0.3c0-0.1,0-0.1,0.1-0.1l3.1-0.3c-0.1,0.2-0.1,0.3-0.1,0.6l-6.4,0.7V37.8L238,37.8z"/>
		<path class="st0" d="M238,36.9l3.5-0.3c0-0.1,0-0.1,0-0.1l3-0.3c0,0.2,0,0.3,0,0.6l-2.5,0.2l-0.6,0.1l-3.4,0.3V36.9L238,36.9z"/>
		<path class="st0" d="M238,36.1l3.4-0.3c0-0.1,0-0.1-0.1-0.1l3-0.3c0.1,0.2,0.1,0.3,0.1,0.6l-1.8,0.2l-1.2,0.1l-3.5,0.3V36.1
			L238,36.1L238,36.1z"/>
		<path class="st0" d="M238,35.1l3-0.3c0-0.1-0.1-0.1-0.1-0.1l3.3-0.3c0.1,0.2,0.2,0.3,0.2,0.6h-0.2l-2.9,0.3l-3.3,0.3L238,35.1
			L238,35.1z"/>
		<path class="st0" d="M238,34.2l2.2-0.2c-0.1-0.1-0.1-0.1-0.1-0.1l0,0l3.5-0.3c0.2,0.2,0.3,0.3,0.3,0.6l-6,0.6L238,34.2L238,34.2z"
			/>
		<path class="st0" d="M238,33.4l1.3-0.1c-0.1-0.1-0.1-0.1-0.1-0.1l3.4-0.3c0.2,0.1,0.3,0.2,0.4,0.2c0.1,0.1,0.2,0.2,0.3,0.3
			l-5.3,0.6v-0.5H238L238,33.4z"/>
		<path class="st0" d="M238,32.5l0.3-0.1c-0.1-0.1-0.1-0.1-0.1-0.1l2.5-0.3c0.3,0.2,0.8,0.3,1.1,0.4l-4,0.3L238,32.5L238,32.5z"/>
		<path class="st0" d="M238,29.8h0.1c0.1,0.2,0.1,0.3,0.2,0.4l-0.3,0.1V29.8L238,29.8z"/>
	</g>
	<g>
		<path class="st0" d="M250,29.6c0.1-0.2,0.1-0.3,0.1-0.3h0.3c0,0.1,0.1,0.1,0.1,0.1c0.1,0.1,0.1,0.2,0.2,0.3c0.1,0,0.2,0,0.6,0
			c0.2,0,0.3,0,0.6,0h0.1h0.5h0.9h1.3l0.2-0.1c0.1,0,0.1-0.1,0.1-0.2c0,0,0-0.1,0.1-0.1h0.2c0,0,0.1,0,0.1,0c0,0.2,0,0.5,0,0.9v0.3
			v0.2c0,0.1,0,0.1,0,0.2c-0.1,0.1-0.2,0.1-0.3,0.1c-0.1-0.1-0.2-0.3-0.2-0.5c-0.1-0.2-0.1-0.3-0.2-0.3c-0.1-0.1-0.1-0.1-0.1-0.1
			c-0.1,0-0.3,0-0.9,0c-0.1,0-0.2,0-0.3,0c0,0.1,0,0.2,0,0.3v0.6v1.3v1.3V34c0,0.2,0,0.3,0.1,0.4c0.1,0,0.1,0.1,0.2,0.1
			c0,0,0.1,0,0.3,0.1c0.1,0,0.2,0.1,0.2,0.1c0,0.1,0,0.2,0,0.2s0,0.1,0,0.1c-0.1,0-0.1,0-0.2,0c-0.3,0-0.5,0-0.7-0.1
			c-0.2,0-0.6-0.1-1-0.1c-0.1,0-0.3,0-0.7,0.1c-0.2,0-0.3,0-0.3,0c0-0.1,0-0.1,0-0.1v-0.1v-0.1c0.1-0.1,0.2-0.2,0.3-0.2
			c0.3-0.1,0.5-0.1,0.6-0.2c0-0.1,0.1-0.1,0.1-0.2c0-0.3,0.1-0.9,0.1-1.5v-1.6c0-0.4,0-0.7,0-0.8c0,0,0-0.1-0.1-0.1H252
			c-0.1,0-0.3,0-0.8,0c-0.3,0-0.4,0-0.5,0.1c-0.1,0.1-0.3,0.3-0.5,0.6c-0.1,0.1-0.1,0.1-0.2,0.1c-0.1-0.1-0.2-0.1-0.2-0.2
			C249.7,30.5,249.8,30.2,250,29.6L250,29.6z"/>
		<path class="st0" d="M255.3,29.6c0.2,0,0.3,0,0.3,0.1c0.2,0.1,0.4,0.1,0.7,0.1c0.1,0,0.3,0,0.8,0c0.6,0,1.1-0.1,1.6-0.1h0.7
			c0.2,0,0.3,0,0.7,0.1c0.1,0.1,0.1,0.1,0.1,0.2v0.9V31V31h-0.2c0,0-0.1,0-0.1,0c0-0.1-0.1-0.2-0.1-0.3l-0.2-0.3
			c-0.1-0.1-0.2-0.3-0.3-0.3c-0.1,0-0.2-0.1-0.3-0.1c0,0-0.1,0-0.2,0c-0.3,0-0.5-0.1-0.8-0.1c-0.3,0-0.6,0-0.9,0c0,0.1,0,0.3,0,0.8
			v0.7v0.6c0.1,0,0.1,0,0.2,0c0.5,0,0.8,0,1-0.1c0.2,0,0.3-0.1,0.3-0.1c0.1-0.1,0.1-0.1,0.1-0.2s0.1-0.3,0.2-0.6h0.1h0.2
			c0,0.3,0,0.4,0,0.6c0,0.3,0,0.5,0,0.6c0,0.1,0,0.2,0,0.2s0,0.2,0,0.3c0,0.1,0,0.3,0,0.3v0.1H259c0-0.1-0.1-0.2-0.1-0.3
			c-0.1-0.3-0.1-0.4-0.2-0.5c-0.1-0.1-0.1-0.1-0.2-0.1c-0.1,0-0.3-0.1-0.6-0.1c-0.3,0-0.7,0-0.9,0.1c0,0.1,0,0.1,0,0.2
			c0,0.3,0,0.6,0,0.8v0.9c0,0.1,0.1,0.2,0.1,0.2c0.1,0.1,0.4,0.1,0.9,0.1c0.3,0,0.7-0.1,0.9-0.1c0.2-0.1,0.3-0.1,0.5-0.3
			c0.2-0.2,0.3-0.4,0.4-0.8c0.1,0,0.2,0,0.2,0c0.1,0,0.1,0,0.1,0c0,0.1,0,0.1,0,0.2v0.1l-0.2,0.8l-0.1,0.5c-0.2,0-0.3,0-0.4,0
			c-0.1,0-0.6,0-1.2-0.1c-0.4,0-0.9-0.1-1.6-0.1c-0.3,0-0.7,0-1.2,0.1l0,0h-0.5v-0.3c0.1,0,0.2-0.1,0.3-0.1c0.3-0.1,0.5-0.1,0.6-0.1
			c0.1-0.1,0.1-0.2,0.1-0.3c0-0.1,0-0.1,0-0.2V34v-1.5v-0.5v-0.7v-0.5l-0.1-0.6c0,0,0-0.1,0-0.1c-0.1-0.1-0.1-0.1-0.1-0.1
			c-0.1,0-0.1,0-0.1,0c-0.2-0.1-0.3-0.1-0.4-0.1c-0.1,0-0.1,0-0.2,0V29.6z"/>
		<path class="st0" d="M265.9,29.6c0.1,0.1,0.1,0.3,0.2,0.7c0.1,0.2,0.1,0.3,0.1,0.6h-0.3c-0.3-0.3-0.6-0.7-0.8-0.8
			c-0.3-0.2-0.6-0.3-0.9-0.3c-0.4,0-0.8,0.2-0.9,0.5c-0.3,0.4-0.5,1.1-0.5,1.9c0,0.5,0.1,0.8,0.1,1c0.1,0.3,0.2,0.6,0.3,0.8
			c0.1,0.2,0.3,0.3,0.4,0.3c0.2,0.1,0.5,0.2,0.8,0.2c0.3,0,0.6-0.1,0.9-0.3c0.3-0.2,0.6-0.5,0.8-0.9c0.1,0,0.2-0.1,0.3-0.1
			c0,0.1-0.1,0.2-0.1,0.3c0,0.1-0.1,0.2-0.1,0.6l-0.1,0.1l-0.1,0.2c-0.2,0.1-0.3,0.2-0.7,0.3c-0.3,0.1-0.7,0.1-1.1,0.1
			c-0.3,0-0.7-0.1-0.9-0.1c-0.3-0.1-0.6-0.2-0.8-0.3c-0.3-0.2-0.6-0.4-0.7-0.7c-0.2-0.2-0.3-0.5-0.3-0.8c-0.1-0.3-0.1-0.6-0.1-0.9
			c0-0.8,0.3-1.5,0.8-2.1c0.6-0.6,1.2-0.8,2-0.8c0.3,0,0.7,0,0.9,0.1C265.3,29.5,265.6,29.6,265.9,29.6z"/>
		<path class="st0" d="M267,30c-0.1-0.1-0.3-0.1-0.6-0.1v-0.2h0.3h0.1c0.2,0,0.3,0,0.3,0s0.1,0,0.3,0c0.1,0,0.1,0,0.1,0
			c0,0,0.1,0,0.3,0c0.2,0,0.2,0,0.2,0c0.1,0,0.1,0,0.1,0c0.4,0.3,0.8,0.7,0.9,1c0.3,0.3,1.2,1.3,2.8,2.9v-0.2V33
			c0-0.3,0-0.5-0.1-0.7c0-0.2,0-0.3,0-0.6c0-0.2,0-0.4-0.1-0.6c-0.1-0.3-0.1-0.6-0.1-0.7c0-0.2,0-0.3-0.1-0.3
			c-0.1-0.1-0.2-0.1-0.3-0.2c-0.2,0-0.3-0.1-0.3-0.1v-0.3h0.1h0.8h0.9c0.1,0,0.1,0,0.2,0v0.3c-0.1,0.1-0.1,0.1-0.2,0.1
			c-0.2,0.1-0.3,0.1-0.3,0.1c-0.1,0.1-0.2,0.1-0.2,0.2c0,0.1-0.1,0.1-0.1,0.2c0,0,0,0.1,0,0.2c0,0.1,0,0.2,0,0.3
			c0,0.3,0,0.7,0.1,0.9c0,0.1,0,0.2,0,0.3l0.1,1.5c0,0.1,0,0.2,0,0.2v0.5v0.2v0.2c0,0.1,0,0.2,0,0.2v0.2H272l-0.5-0.5l-0.9-1L270,33
			l-0.5-0.5c-0.3-0.3-0.6-0.7-0.9-0.9l-0.7-0.6l0.1,1.6c0,0.1,0,0.2,0,0.3V33v0.6c0,0.2,0,0.5,0.1,0.8c0,0.1,0,0.1,0,0.2
			c0,0.1,0,0.1,0.1,0.1c0.1,0.1,0.3,0.1,0.7,0.1c0,0,0.1,0,0.1,0.1v0.3h-0.2c-0.1,0-0.3,0-0.8-0.1c-0.4,0-0.7,0-0.9,0
			c-0.2,0-0.2,0-0.2,0c-0.1,0-0.1,0-0.1,0c0-0.1,0-0.1,0-0.2c0-0.1,0-0.1,0-0.2c0.1,0,0.1,0,0.2,0c0,0,0.1,0,0.2,0
			c0.2,0,0.3,0,0.3-0.1c0.1-0.1,0.1-0.1,0.1-0.3c0-0.4,0-0.7,0-0.8v-0.2V32v-0.9c0-0.3,0-0.6-0.1-0.7c0-0.1-0.1-0.1-0.1-0.2
			C267.2,30.1,267.2,30.1,267,30L267,30z"/>
		<path class="st0" d="M273.8,33c-0.1-0.2-0.1-0.5-0.1-0.8c0-0.3,0.1-0.7,0.2-1c0.1-0.3,0.2-0.5,0.3-0.7c0.2-0.2,0.3-0.3,0.7-0.6
			c0.3-0.2,0.5-0.3,0.8-0.3c0.3-0.1,0.6-0.1,0.9-0.1c0.6,0,1,0.1,1.4,0.3c0.4,0.2,0.7,0.5,0.9,0.9c0.3,0.5,0.4,0.9,0.4,1.5
			c0,0.8-0.3,1.5-0.8,2c-0.5,0.5-1.2,0.9-2.2,0.9c-0.2,0-0.4,0-0.7-0.1c-0.2,0-0.3-0.1-0.3-0.1c-0.2-0.1-0.3-0.1-0.3-0.1
			c-0.3-0.2-0.6-0.3-0.7-0.6c-0.2-0.2-0.3-0.3-0.4-0.6C273.9,33.6,273.8,33.3,273.8,33L273.8,33z M276.4,29.9
			c-0.2,0-0.4,0.1-0.6,0.2c-0.2,0.1-0.3,0.2-0.3,0.3c-0.2,0.2-0.3,0.5-0.3,0.8c-0.1,0.3-0.1,0.6-0.1,0.9c0,0.2,0,0.4,0.1,0.5
			c0,0.1,0,0.1,0,0.2c0,0.2,0.1,0.3,0.1,0.4c0.1,0.3,0.2,0.6,0.2,0.7c0.1,0.2,0.2,0.3,0.3,0.4c0.1,0.1,0.2,0.2,0.3,0.2
			c0.2,0.1,0.3,0.1,0.4,0.1c0.3,0,0.6-0.1,0.8-0.2c0.3-0.2,0.4-0.3,0.6-0.7c0.2-0.3,0.2-0.8,0.2-1.3c0-0.2,0-0.6-0.1-0.9v-0.1
			c0,0,0-0.1-0.1-0.2c-0.1-0.4-0.3-0.8-0.5-1C277.2,30,276.8,29.9,276.4,29.9z"/>
		<path class="st0" d="M282.5,29.5c0.2,0.1,0.3,0.1,0.6,0.2c0,0.1,0.1,0.2,0.1,0.4c0.1,0.3,0.1,0.5,0.1,0.7c0,0.1,0,0.1,0,0.2h-0.1
			h-0.3h-0.1c-0.1-0.3-0.2-0.6-0.3-0.8c-0.2-0.2-0.4-0.3-0.7-0.3s-0.5,0.1-0.6,0.2c-0.2,0.2-0.2,0.3-0.2,0.6c0,0.2,0.1,0.3,0.2,0.5
			c0.2,0.2,0.5,0.3,0.9,0.5c0.2,0.1,0.3,0.1,0.6,0.2c0.2,0.1,0.3,0.2,0.6,0.3c0.2,0.2,0.3,0.3,0.3,0.5c0.1,0.2,0.1,0.3,0.1,0.6
			c0,0.3-0.1,0.6-0.2,0.8c-0.1,0.1-0.1,0.3-0.2,0.3c-0.1,0.1-0.2,0.2-0.3,0.3c-0.2,0.1-0.3,0.2-0.6,0.3c-0.2,0.1-0.4,0.1-0.7,0.1
			c-0.2,0-0.3-0.1-0.7-0.1l-0.5-0.2c-0.1-0.1-0.2-0.1-0.3-0.1c0,0,0-0.1-0.1-0.1v-0.1c0-0.1,0-0.2,0-0.6c0-0.2,0-0.3,0-0.3v-0.2h0.3
			c0.1,0.3,0.2,0.5,0.3,0.6c0.1,0.2,0.2,0.3,0.3,0.3c0.1,0.1,0.2,0.2,0.3,0.2c0.2,0.1,0.3,0.1,0.4,0.1c0.2,0,0.3-0.1,0.5-0.1
			c0.2-0.1,0.3-0.2,0.4-0.3c0.1-0.2,0.2-0.3,0.2-0.5c0-0.2-0.1-0.3-0.3-0.6c-0.1-0.1-0.4-0.3-0.9-0.4c-0.5-0.2-0.8-0.3-1-0.5
			c-0.2-0.2-0.3-0.3-0.4-0.6c-0.1-0.2-0.2-0.5-0.2-0.7c0-0.4,0.2-0.8,0.4-1.1c0.3-0.3,0.8-0.5,1.4-0.5
			C282.1,29.4,282.2,29.5,282.5,29.5L282.5,29.5z"/>
		<path class="st0" d="M284.3,33c-0.1-0.2-0.1-0.5-0.1-0.8c0-0.3,0.1-0.7,0.2-1c0.1-0.3,0.2-0.5,0.3-0.7c0.2-0.2,0.3-0.3,0.7-0.6
			c0.3-0.2,0.5-0.3,0.8-0.3c0.3-0.1,0.6-0.1,0.9-0.1c0.6,0,1,0.1,1.4,0.3c0.4,0.2,0.7,0.5,0.9,0.9c0.3,0.5,0.4,0.9,0.4,1.5
			c0,0.8-0.3,1.5-0.8,2c-0.5,0.5-1.2,0.9-2.2,0.9c-0.2,0-0.4,0-0.7-0.1c-0.2,0-0.3-0.1-0.3-0.1c-0.2-0.1-0.3-0.1-0.3-0.1
			c-0.3-0.2-0.6-0.3-0.7-0.6c-0.2-0.2-0.3-0.3-0.4-0.6C284.5,33.6,284.5,33.3,284.3,33L284.3,33z M287,29.9c-0.2,0-0.4,0.1-0.6,0.2
			c-0.2,0.1-0.3,0.2-0.3,0.3c-0.2,0.2-0.3,0.5-0.3,0.8c-0.1,0.3-0.1,0.6-0.1,0.9c0,0.2,0,0.4,0.1,0.5c0,0.1,0,0.1,0,0.2
			c0,0.2,0.1,0.3,0.1,0.4c0.1,0.3,0.2,0.6,0.2,0.7c0.1,0.2,0.2,0.3,0.3,0.4c0.1,0.1,0.2,0.2,0.3,0.2c0.2,0.1,0.3,0.1,0.4,0.1
			c0.3,0,0.6-0.1,0.8-0.2c0.3-0.2,0.4-0.3,0.6-0.7c0.2-0.3,0.2-0.8,0.2-1.3c0-0.2,0-0.6-0.1-0.9v-0.1c0,0,0-0.1-0.1-0.2
			c-0.1-0.4-0.3-0.8-0.6-1C287.7,30,287.3,29.9,287,29.9z"/>
		<path class="st0" d="M290.9,35c-0.2,0-0.3,0-0.3,0v-0.3c0.1,0,0.2-0.1,0.3-0.1c0.1-0.1,0.3-0.1,0.3-0.1l0.1-0.1
			c0-0.1,0.1-0.2,0.1-0.3l0,0v-0.9v-0.4v-0.6v-0.7l-0.1-1.4c-0.1-0.1-0.2-0.1-0.3-0.1c-0.1,0-0.1-0.1-0.2-0.1h-0.1v-0.3h0.6
			c0.3,0.1,0.8,0.1,1.4,0.1c0.3,0,0.7,0,0.9,0h0.1h0.2h0.1h0.2h0.7c0.1,0,0.1,0,0.1,0c0.1,0,0.1,0,0.2,0c0,0.1,0.1,0.2,0.1,0.3
			l0.1,0.8c0,0.1,0,0.2,0,0.2c-0.1,0-0.2,0-0.2,0s-0.1,0-0.1-0.1c0,0-0.1-0.1-0.1-0.2c-0.1-0.3-0.2-0.4-0.3-0.5
			c-0.1-0.1-0.3-0.1-0.7-0.1h-0.6c-0.2,0-0.4,0-0.6,0.1c-0.1,0-0.1,0-0.1,0.1c-0.1,0.1-0.1,0.2-0.1,0.3V31v0.6c0,0.3,0,0.5,0.1,0.6
			c0,0,0.1,0,0.1,0.1h0.3h0.5c0.1,0,0.3,0,0.5-0.1c0.2,0,0.2-0.1,0.3-0.1c0.1-0.1,0.1-0.1,0.2-0.2c0.1-0.1,0.1-0.2,0.1-0.5
			c0,0,0.1,0,0.1,0c0.1,0,0.1,0,0.1,0c0.1,0,0.1,0,0.2,0V32c0,0.2,0,0.3,0,0.3v0.1c0,0.1,0,0.2,0,0.6c0,0,0,0.1,0,0.1
			c-0.1,0-0.1,0-0.1,0s-0.1,0-0.2,0c0-0.1-0.1-0.1-0.1-0.2c-0.1-0.2-0.1-0.3-0.2-0.3c-0.1-0.1-0.6-0.1-1.2-0.1c-0.1,0-0.2,0-0.3,0.1
			c0,0.1-0.1,0.3-0.1,0.3v1.3c0,0.2,0,0.3,0.1,0.4c0.1,0.1,0.1,0.1,0.3,0.1h0.1c0.1,0,0.2,0,0.3,0.1h0.1c0,0.1,0,0.1,0,0.2
			c0,0.1,0,0.1,0,0.2h-0.1h-0.1l-0.6-0.1c-0.1,0-0.3,0-0.9,0c-0.2,0-0.3,0-0.4,0C291,35,290.9,35,290.9,35L290.9,35z"/>
		<path class="st0" d="M295.6,29.6c0.1-0.2,0.1-0.3,0.1-0.3h0.3c0,0.1,0.1,0.1,0.1,0.1c0.1,0.1,0.1,0.2,0.2,0.3c0.1,0,0.2,0,0.6,0
			c0.2,0,0.3,0,0.6,0h0.1h0.5h0.9h1.3l0.2-0.1c0.1,0,0.1-0.1,0.1-0.2c0,0,0-0.1,0.1-0.1h0.2c0.1,0,0.1,0,0.1,0c0,0.2,0,0.5,0,0.9
			v0.3v0.2c0,0.1,0,0.1,0,0.2c-0.1,0.1-0.2,0.1-0.3,0.1c-0.1-0.1-0.2-0.3-0.2-0.5c-0.1-0.2-0.1-0.3-0.2-0.3
			c-0.1-0.1-0.1-0.1-0.1-0.1s-0.3,0-0.9,0c-0.1,0-0.2,0-0.3,0c0,0.1,0,0.2,0,0.3v0.6v1.3v1.3V34c0,0.2,0,0.3,0.1,0.4
			c0.1,0,0.1,0.1,0.2,0.1c0,0,0.1,0,0.3,0.1c0.1,0,0.2,0.1,0.2,0.1c0,0.1,0,0.2,0,0.2s0,0.1,0,0.1c-0.1,0-0.1,0-0.2,0
			c-0.3,0-0.5,0-0.7-0.1c-0.2,0-0.6-0.1-1-0.1c-0.1,0-0.3,0-0.7,0.1c-0.2,0-0.3,0-0.3,0c0-0.1,0-0.1,0-0.1v-0.1v-0.1
			c0.1-0.1,0.2-0.2,0.3-0.2c0.3-0.1,0.5-0.1,0.6-0.2c0-0.1,0.1-0.1,0.1-0.2c0-0.3,0-0.9,0-1.5v-1.6c0-0.4,0-0.7,0-0.8V30h-0.1
			c-0.1,0-0.3,0-0.8,0c-0.3,0-0.4,0-0.5,0.1c-0.1,0.1-0.3,0.3-0.5,0.6c-0.1,0.1-0.1,0.1-0.2,0.1c-0.1-0.1-0.2-0.1-0.2-0.2
			C295.4,30.5,295.5,30.2,295.6,29.6L295.6,29.6z"/>
		<path class="st0" d="M301,29.9c0,0-0.1,0-0.1-0.1v-0.3c0.1,0,0.1,0,0.1,0c0.2,0,0.4,0,0.7,0.1c0.1,0,0.2,0,0.2,0
			c0.1,0,0.2,0,0.3,0h0.6c0,0,0.1,0,0.1,0.1l-0.1,0.2c-0.1,0.1-0.1,0.1-0.2,0.1c-0.1,0.1-0.2,0.1-0.2,0.2c0,0.1,0,0.1,0.1,0.2
			c0,0.1,0.1,0.1,0.1,0.2c0.1,0.1,0.2,0.5,0.3,0.9l1,2.5c0.1-0.3,0.3-0.7,0.7-1.4l-0.6-1.5c-0.1-0.3-0.2-0.5-0.3-0.7
			c0-0.1-0.1-0.1-0.1-0.2c0-0.1-0.1-0.1-0.1-0.1c-0.1-0.1-0.1-0.1-0.1-0.1c-0.1-0.1-0.2-0.1-0.3-0.1v-0.2c0.1,0,0.2,0,0.3,0
			c0.2,0,0.3,0,0.4,0h0.6l0.7-0.1h0.1v0.2v0.1v0.1c-0.1,0-0.1,0-0.2,0.1c-0.1,0-0.1,0-0.2,0.1c-0.1,0-0.1,0.1-0.1,0.1
			c0,0.1,0.1,0.2,0.1,0.3c0,0.1,0.1,0.1,0.1,0.2c0.1,0.3,0.2,0.6,0.3,0.8l0.3-0.6c0.1-0.3,0.2-0.5,0.3-0.6v-0.1l0,0
			c-0.1-0.1-0.1-0.1-0.1-0.1c-0.1-0.1-0.2-0.1-0.3-0.1c0-0.1,0-0.1,0-0.1c0-0.1,0-0.1,0-0.2c0.1,0,0.3,0,0.8,0c0.2,0,0.3,0,0.4,0
			c0.1,0,0.1,0,0.2,0c0.1,0,0.1,0,0.1,0v0.1V30l0,0c-0.3,0.1-0.4,0.2-0.5,0.2c-0.1,0.1-0.1,0.1-0.2,0.2c-0.1,0.3-0.3,0.8-0.8,1.5V32
			l0.3,0.6l0.4,1c0.1,0.1,0.1,0.2,0.1,0.2l0.5-1.4l0.7-1.9l0.1-0.3v-0.1v-0.1c-0.1-0.1-0.2-0.1-0.2-0.1c-0.1,0-0.1-0.1-0.2-0.1
			c0-0.1,0-0.2,0-0.2s0-0.1,0.1-0.1h0.1h0.6h0.3h0.1c0,0.1,0,0.1,0,0.1c0,0.1,0,0.1-0.1,0.1l-0.1,0.1c-0.1,0.1-0.2,0.1-0.2,0.2
			c-0.1,0.1-0.1,0.1-0.1,0.3c-0.2,0.7-0.5,1.3-0.7,1.9c-0.3,0.6-0.6,1.5-1.1,2.8h-0.3c0-0.1-0.1-0.2-0.1-0.3
			c-0.1-0.2-0.1-0.3-0.1-0.3l-0.4-1.1c-0.1-0.2-0.1-0.3-0.2-0.3c0,0,0-0.1-0.1-0.1c0,0-0.2,0.3-0.4,0.8c-0.3,0.6-0.5,0.9-0.6,1.3
			h-0.3c-0.1-0.3-0.3-0.8-0.6-1.4l-1.3-3.2c-0.1-0.3-0.2-0.5-0.3-0.6C301.1,30,301.1,29.9,301,29.9L301,29.9z"/>
		<path class="st0" d="M308,35v-0.3c0.1,0,0.2-0.1,0.3-0.1c0.2-0.1,0.3-0.1,0.3-0.1c0.1-0.1,0.1-0.1,0.2-0.2l0.8-2.2l0.9-2.6
			c0.1,0,0.2,0,0.3,0h0.2l0.1,0.1l0.7,1.7c0.2,0.3,0.3,0.7,0.4,1.1c0.1,0.3,0.2,0.7,0.3,0.8c0.1,0.1,0.1,0.3,0.2,0.6
			c0.1,0.2,0.1,0.3,0.2,0.6c0.1,0.1,0.1,0.2,0.1,0.2c0.1,0.1,0.1,0.1,0.2,0.1c0.1,0,0.2,0.1,0.3,0.1c0,0.1,0,0.2,0,0.2
			c0,0,0,0.1,0,0.1c-0.2,0-0.4,0-0.7-0.1c-0.2,0-0.4-0.1-0.7-0.1c-0.2,0-0.3,0-0.4,0l-0.7,0.1H311c0-0.1,0-0.2,0-0.3l0.4-0.1
			c0.1-0.1,0.2-0.1,0.2-0.1c0-0.1,0.1-0.1,0.1-0.1s0-0.1,0-0.1l-0.2-0.4l-0.3-0.8h-1.5c-0.1,0.1-0.2,0.4-0.3,0.9
			c-0.1,0.2-0.1,0.3-0.1,0.3s0,0.1,0.1,0.2c0.1,0.1,0.2,0.1,0.3,0.1c0,0,0.1,0,0.3,0.1c0,0.1,0,0.2,0,0.2c0,0.1,0,0.1,0,0.1
			c-0.2,0-0.6,0-1.2-0.1l-0.2,0.1C308.4,35,308.3,35,308,35L308,35L308,35L308,35z M309.9,32.6c0.6,0,0.9,0,1.1,0h0.1
			c-0.1-0.3-0.2-0.6-0.3-0.9c-0.1-0.3-0.2-0.6-0.3-0.8L309.9,32.6z"/>
		<path class="st0" d="M313.7,34.9c0-0.1,0-0.1,0-0.1c0.1-0.1,0.2-0.1,0.3-0.1c0.2,0,0.3-0.1,0.3-0.1c0-0.1,0-0.1,0-0.1
			c0-0.1,0-0.2,0-0.3v-0.9v-0.5v-0.3v-0.2c0-0.3,0-0.6,0-0.9c0-0.6,0-0.9,0-1l-0.2-0.1c-0.2,0-0.3-0.1-0.4-0.1v-0.3v-0.1
			c0.1,0,0.3-0.1,0.3-0.1c0.1,0,0.2,0,0.3,0c0.2,0,0.3,0,0.3,0h0.2h0.5c0.3-0.1,0.7-0.1,0.9-0.1c0.6,0,0.9,0.2,1.3,0.4
			c0.3,0.3,0.5,0.7,0.5,0.9s-0.1,0.6-0.3,0.8c-0.2,0.2-0.4,0.3-0.8,0.6c0.1,0.1,0.1,0.1,0.1,0.2c0.1,0.2,0.2,0.3,0.3,0.4l0.7,1.1
			c0.2,0.3,0.3,0.4,0.3,0.5c0.1,0.1,0.2,0.1,0.3,0.2c0.1,0.1,0.2,0.1,0.3,0.2c0,0.1,0,0.1,0,0.1s0,0.1,0,0.1H319h-0.1l-0.2-0.1h-0.2
			c-0.1,0-0.2,0-0.3,0h-0.3c-0.1,0-0.1,0-0.3,0.1c-0.1,0-0.1,0-0.2,0l-0.1-0.3c-0.1-0.2-0.2-0.3-0.2-0.5c-0.1-0.3-0.3-0.7-0.6-1.3
			c-0.1-0.3-0.2-0.4-0.3-0.5c-0.1-0.1-0.1-0.1-0.4-0.1c-0.1,0-0.2,0-0.3,0c0,0.1,0,0.2,0,0.3v0.9v0.8c0.1,0.1,0.2,0.1,0.3,0.1
			c0.2,0.1,0.3,0.1,0.6,0.2c0,0.1,0,0.2,0,0.3c-0.1,0-0.1,0-0.1,0h-0.2c-0.6-0.1-0.9-0.1-1-0.1s-0.1,0-0.2,0l-0.6,0.1
			c-0.2,0-0.3,0.1-0.4,0.1h-0.2C313.7,34.9,313.7,34.9,313.7,34.9L313.7,34.9z M315.6,32c0.1,0,0.2,0,0.3,0c0.4,0,0.8-0.1,0.9-0.3
			c0.2-0.2,0.3-0.3,0.3-0.7c0-0.2,0-0.3-0.1-0.5c-0.1-0.2-0.1-0.3-0.2-0.3c-0.1-0.1-0.2-0.2-0.3-0.3c-0.1-0.1-0.3-0.1-0.6-0.1
			c-0.1,0-0.2,0-0.3,0v0.1v0.6v0.3v0.4c0,0.1,0,0.3,0,0.5L315.6,32L315.6,32z"/>
		<path class="st0" d="M319.3,29.6c0.2,0,0.3,0,0.3,0.1c0.2,0.1,0.4,0.1,0.7,0.1c0.1,0,0.3,0,0.8,0c0.6,0,1.1-0.1,1.6-0.1h0.7
			c0.2,0,0.3,0,0.7,0.1c0.1,0.1,0.1,0.1,0.1,0.2v0.9V31V31H324c0,0-0.1,0-0.1,0c0-0.1-0.1-0.2-0.1-0.3l-0.2-0.3
			c-0.1-0.1-0.2-0.3-0.3-0.3c-0.1,0-0.2-0.1-0.3-0.1c0,0-0.1,0-0.2,0c-0.3,0-0.5-0.1-0.8-0.1c-0.3,0-0.6,0-0.9,0c0,0.1,0,0.3,0,0.8
			v0.7v0.6c0.1,0,0.1,0,0.2,0c0.5,0,0.8,0,1-0.1c0.2,0,0.3-0.1,0.3-0.1c0.1-0.1,0.1-0.1,0.1-0.2s0.1-0.3,0.2-0.6h0.1h0.2
			c0,0.3,0,0.4,0,0.6c0,0.3,0,0.5,0,0.6c0,0.1,0,0.2,0,0.2s0,0.2,0,0.3c0,0.1,0,0.3,0,0.3v0.1h-0.3c0-0.1-0.1-0.2-0.1-0.3
			c-0.1-0.3-0.1-0.4-0.2-0.5c-0.1-0.1-0.1-0.1-0.2-0.1c-0.1,0-0.3-0.1-0.6-0.1c-0.3,0-0.7,0-0.9,0.1c0,0.1,0,0.1,0,0.2
			c0,0.3,0,0.6,0,0.8v0.9c0,0.1,0.1,0.2,0.1,0.2c0.1,0.1,0.4,0.1,0.9,0.1c0.3,0,0.7-0.1,0.9-0.1c0.2-0.1,0.3-0.1,0.5-0.3
			c0.2-0.2,0.3-0.4,0.4-0.8c0.1,0,0.2,0,0.2,0c0.1,0,0.1,0,0.1,0c0,0.1,0,0.1,0,0.2v0.1l-0.2,0.8l-0.1,0.5c-0.2,0-0.3,0-0.4,0
			c-0.2,0-0.6,0-1.2-0.1c-0.4,0-0.9-0.1-1.6-0.1c-0.3,0-0.7,0-1.2,0.1h-0.2h-0.3v-0.3c0.1,0,0.2-0.1,0.3-0.1
			c0.3-0.1,0.5-0.1,0.6-0.1c0.1-0.1,0.1-0.2,0.1-0.3c0-0.1,0-0.1,0-0.2V34v-1.5v-0.5v-0.7v-0.5l-0.1-0.6c0,0,0-0.1,0-0.1
			S320,30,320,30s-0.1,0-0.1,0c-0.2-0.1-0.3-0.1-0.4-0.1c-0.1,0-0.1,0-0.2,0V29.6z"/>
	</g>
</g>
<g>
	<g>
		<g>
			<path class="st1" d="M133.1,34.9c-0.9,0-1.7-0.7-1.9-1.5l-2.1,0.4c0.4,1.9,2,3.2,3.9,3.2c1.1,0,2.1-0.5,2.8-1.2l-1.7-1.3
				C134,34.8,133.6,34.9,133.1,34.9 M133.1,31.1c0.4,0,0.8,0.1,1.2,0.4l1.7-1.3c-0.7-0.7-1.7-1.2-2.8-1.2c-2,0-3.6,1.4-3.9,3.2
				l2.1,0.4C131.4,31.8,132.2,31.1,133.1,31.1 M161.7,35.2c-1.1,0-1.8-0.8-1.9-1.9v-0.6c0.1-1.1,0.9-1.9,1.9-1.9c1.2,0,2,0.9,2,2.2
				C163.8,34.3,162.9,35.2,161.7,35.2 M162.3,29c-1.1,0-2,0.5-2.6,1.2v-1.1h-2.2v10.2h2.2v-3.6c0.6,0.8,1.5,1.3,2.6,1.3
				c2,0,3.5-1.7,3.5-4C165.9,30.7,164.4,29,162.3,29 M170.9,35.2c-1.2,0-2.1-1-2.1-2.2c0-1.2,1-2.2,2.1-2.2c1.1,0,2.1,1,2.1,2.2
				C173,34.2,172.1,35.2,170.9,35.2 M170.9,29c-2.3,0-4.2,1.8-4.2,4c0,2.2,1.9,4,4.2,4c2.3,0,4.2-1.8,4.2-4
				C175.1,30.8,173.2,29,170.9,29 M176.1,36.9h2.2V26.5h-2.2V36.9z M186.5,32.1c-1-0.3-1.3-0.4-1.3-0.8c0-0.3,0.4-0.5,0.9-0.5
				c0.7,0,1.5,0.3,2.2,0.7l0.9-1.5c-0.8-0.6-1.9-0.9-3-0.9c-1.8,0-3,1-3,2.5c0,1.5,1.2,1.9,2.8,2.3c0.8,0.2,1.3,0.4,1.3,0.8
				c0,0.3-0.4,0.6-1,0.6c-1,0-1.9-0.4-2.6-0.9l-0.9,1.5c0.9,0.7,2.2,1.2,3.5,1.2c1.9,0,3.1-1,3.1-2.5
				C189.3,32.9,187.8,32.4,186.5,32.1 M179.7,36.9h2.2v-7.7h-2.2V36.9z M180.8,25.8c-0.7,0-1.2,0.5-1.2,1.2c0,0.7,0.5,1.2,1.2,1.2
				c0.6,0,1.2-0.5,1.2-1.2C182,26.4,181.4,25.8,180.8,25.8 M154.6,26.5h-2.2l-0.8,1.6h2.2L154.6,26.5z M151.1,32.2
				c0.3-0.8,1-1.2,1.8-1.2c0.9,0,1.4,0.5,1.6,1.2H151.1z M152.8,29c-2.2,0-3.9,1.7-3.9,4c0,2.4,1.8,4,4.1,4c1.1,0,2.4-0.5,3.1-1.2
				l-1.4-1.4c-0.4,0.4-1.2,0.7-1.8,0.7c-0.9,0-1.6-0.6-1.8-1.4h5.5C156.6,30.8,155.2,29,152.8,29 M145,29c-1,0-1.9,0.4-2.3,1.1v-1
				h-2.2v7.7h2.2v-4.5c0-0.8,0.7-1.5,1.6-1.5c0.9,0,1.5,0.7,1.5,1.6v4.4h2.1V32C147.9,30.3,146.7,29,145,29 M138,25.8
				c-0.7,0-1.2,0.5-1.2,1.2c0,0.7,0.5,1.2,1.2,1.2c0.6,0,1.2-0.5,1.2-1.2C139.1,26.4,138.6,25.8,138,25.8 M136.9,36.9h2.2v-7.7h-2.2
				V36.9z"/>
		</g>
	</g>
	<g>
		<path class="st1" d="M190.2,36.6c0,0.3-0.2,0.5-0.5,0.5c-0.3,0-0.5-0.2-0.5-0.5c0-0.3,0.2-0.5,0.5-0.5
			C190,36.2,190.2,36.4,190.2,36.6z M189.4,36.6c0,0.2,0.1,0.4,0.4,0.4c0.2,0,0.4-0.2,0.4-0.4c0-0.2-0.1-0.4-0.4-0.4
			C189.5,36.2,189.4,36.4,189.4,36.6z M189.6,36.9h-0.1v-0.5c0,0,0.1,0,0.2,0c0.1,0,0.1,0,0.2,0c0,0,0,0.1,0,0.1s0,0.1-0.1,0.1v0
			c0,0,0.1,0,0.1,0.1c0,0.1,0,0.1,0,0.1h-0.1c0,0,0-0.1,0-0.1c0,0,0-0.1-0.1-0.1h0V36.9L189.6,36.9z M189.6,36.6L189.6,36.6
			c0.1,0,0.2,0,0.2-0.1c0,0,0-0.1-0.1-0.1c0,0,0,0-0.1,0L189.6,36.6L189.6,36.6z"/>
	</g>
</g>
<g>
	<path class="st2" d="M12.1,29c-0.1-0.3-0.2-0.6-0.5-0.7c-0.1-0.1-0.4-0.1-0.6-0.1c-0.4,0-0.7,0.1-1,0.5C9.8,29,9.6,29.5,9.6,30
		c0,0.6,0.1,1,0.4,1.3c0.2,0.3,0.6,0.4,0.9,0.4c0.3,0,0.6-0.1,0.9-0.3c0.2-0.2,0.4-0.5,0.4-0.8H11v-0.9h2v2.7h-0.7l-0.1-0.6
		c-0.2,0.2-0.4,0.4-0.6,0.5c-0.2,0.1-0.6,0.2-1,0.2c-0.6,0-1.2-0.2-1.7-0.7c-0.5-0.5-0.6-1.1-0.6-1.9c0-0.8,0.2-1.4,0.6-2
		c0.5-0.5,1-0.7,1.7-0.7c0.6,0,1.2,0.1,1.5,0.5c0.4,0.3,0.6,0.7,0.6,1.2L12.1,29L12.1,29z"/>
	<path class="st2" d="M15.5,27.5h1.2l1.7,4.9h-1.1l-0.3-1h-1.8l-0.3,1h-1.1L15.5,27.5z M15.5,30.6h1.2l-0.6-2L15.5,30.6z"/>
	<polygon class="st2" points="19.2,27.5 20.2,27.5 20.2,31.6 22.7,31.6 22.7,32.4 19.2,32.4 	"/>
	<polygon class="st2" points="25.7,27.5 26.8,27.5 25.1,32.4 24.1,32.4 22.4,27.5 23.5,27.5 24.6,31.2 	"/>
	<polygon class="st2" points="31.2,28.4 28.5,28.4 28.5,29.4 30.9,29.4 30.9,30.3 28.5,30.3 28.5,31.5 31.2,31.5 31.2,32.4 
		27.5,32.4 27.5,27.5 31.2,27.5 	"/>
	<polygon class="st2" points="31.7,31.6 34.2,28.4 31.7,28.4 31.7,27.5 35.6,27.5 35.6,28.4 33,31.7 35.6,31.7 35.6,32.6 31.7,32.6 
			"/>
	<path class="st2" d="M39.4,27.5h1.2l1.7,4.9h-1.1l-0.3-1h-1.8l-0.4,1.1h-1.1L39.4,27.5z M39.3,30.6h1.2l-0.6-2L39.3,30.6z"/>
	<path class="st2" d="M42.9,27.5h1v3.1c0,0.3,0.1,0.6,0.1,0.8c0.1,0.3,0.4,0.4,0.8,0.4c0.4,0,0.7-0.1,0.8-0.4
		c0.1-0.1,0.1-0.4,0.1-0.8v-3.1h1v3.1c0,0.6-0.1,0.9-0.2,1.2c-0.3,0.6-0.9,0.8-1.7,0.8c-0.9,0-1.4-0.2-1.7-0.8
		c-0.1-0.3-0.2-0.7-0.2-1.2L42.9,27.5L42.9,27.5z"/>
	<polygon class="st2" points="51.5,27.5 51.5,28.4 50,28.4 50,32.4 49,32.4 49,28.4 47.5,28.4 47.5,27.5 	"/>
	<path class="st2" d="M52.1,27.5h1v3.1c0,0.3,0.1,0.6,0.1,0.8c0.1,0.3,0.4,0.4,0.8,0.4c0.4,0,0.7-0.1,0.8-0.4
		c0.1-0.1,0.1-0.4,0.1-0.8v-3.1h1v3.1c0,0.6-0.1,0.9-0.2,1.2c-0.3,0.6-0.9,0.8-1.7,0.8c-0.9,0-1.4-0.2-1.7-0.8
		c-0.1-0.3-0.2-0.7-0.2-1.2L52.1,27.5L52.1,27.5z"/>
	<polygon class="st2" points="57,27.5 58.1,27.5 60.1,30.9 60.1,27.5 61,27.5 61,32.4 60,32.4 58,28.9 58,32.4 57.1,32.4 57.1,27.5 
			"/>
	<polygon class="st2" points="62.1,27.5 63.2,27.5 65.1,30.9 65.1,27.5 66.1,27.5 66.1,32.4 65,32.4 63,28.9 63,32.4 62.1,32.4 
		62.1,27.5 	"/>
	<path class="st2" d="M70.8,32c-0.4,0.4-0.9,0.5-1.7,0.5c-0.7,0-1.2-0.1-1.7-0.5c-0.5-0.5-0.8-1.2-0.8-2c0-0.9,0.2-1.6,0.8-2
		c0.4-0.4,0.9-0.6,1.7-0.6c0.7,0,1.2,0.1,1.7,0.6c0.5,0.5,0.8,1.2,0.8,2S71.4,31.5,70.8,32 M70.2,31.2c0.2-0.3,0.4-0.7,0.4-1.3
		c0-0.6-0.1-1-0.4-1.2c-0.2-0.3-0.6-0.5-0.9-0.5c-0.4,0-0.7,0.1-1,0.5c-0.2,0.3-0.4,0.7-0.4,1.3c0,0.6,0.1,1,0.4,1.3
		c0.2,0.3,0.6,0.5,1,0.5C69.7,31.7,70,31.5,70.2,31.2"/>
	<path class="st2" d="M16.2,39.2l2-4.9h0.6l1.9,4.9h-0.5l-0.6-1.6h-2.2l-0.6,1.6H16.2z M17.4,37.2h2l-0.9-2.6L17.4,37.2z"/>
	<path class="st2" d="M21.7,36.9v2.3h-0.5v-4.9h2c0.6,0,0.9,0.1,1.2,0.3c0.3,0.2,0.5,0.6,0.5,1c0,0.3-0.1,0.5-0.1,0.8
		c-0.1,0.1-0.3,0.3-0.6,0.5c0.1,0.1,0.2,0.1,0.3,0.2c0.1,0.1,0.1,0.2,0.1,0.3c0,0.1,0.1,0.2,0.1,0.4v0.4v0.5c0,0.1,0,0.2,0.1,0.3
		c0,0.1,0,0.1,0.1,0.1c0,0.1,0.1,0.1,0.1,0.1v0.1h-0.6c-0.1-0.1-0.1-0.2-0.1-0.3c0-0.1,0-0.3-0.1-0.5v-0.5v-0.4
		c0-0.1-0.1-0.2-0.1-0.3c0-0.1-0.1-0.1-0.2-0.1c-0.1-0.1-0.1-0.1-0.3-0.1h-0.3h-1.5L21.7,36.9L21.7,36.9z M23.2,36.6
		c0.1,0,0.3,0,0.5-0.1c0.1,0,0.3-0.1,0.4-0.1c0.1-0.1,0.2-0.1,0.2-0.3c0.1-0.1,0.1-0.2,0.1-0.5c0-0.1,0-0.3-0.1-0.5
		c-0.1-0.1-0.1-0.2-0.2-0.3c-0.1-0.1-0.2-0.1-0.4-0.1c-0.2,0-0.3-0.1-0.5-0.1h-1.5v1.9h1.5V36.6z"/>
	<path class="st2" d="M30.2,39.2L30,39.5L29.3,39c-0.1,0.1-0.4,0.1-0.6,0.2c-0.2,0.1-0.5,0.1-0.7,0.1c-0.4,0-0.7-0.1-1-0.2
		c-0.3-0.1-0.5-0.3-0.7-0.6c-0.1-0.2-0.3-0.6-0.5-0.9c-0.1-0.3-0.1-0.6-0.1-1c0-0.3,0.1-0.7,0.1-1c0.1-0.3,0.2-0.6,0.4-0.9
		c0.1-0.2,0.4-0.5,0.7-0.6c0.3-0.1,0.6-0.2,1-0.2c0.3,0,0.7,0.1,0.9,0.1c0.2,0.1,0.6,0.3,0.7,0.5c0.2,0.2,0.4,0.5,0.5,0.8
		c0.1,0.3,0.1,0.7,0.1,1.1c0,0.4-0.1,0.8-0.1,1.1c-0.1,0.3-0.3,0.6-0.6,0.9L30.2,39.2z M29.2,38.4c0.2-0.2,0.4-0.5,0.5-0.8
		c0.1-0.3,0.1-0.6,0.1-0.9c0-0.4-0.1-0.7-0.1-0.9c-0.1-0.3-0.2-0.5-0.4-0.7c-0.1-0.1-0.4-0.3-0.6-0.4c-0.2-0.1-0.5-0.1-0.7-0.1
		c-0.3,0-0.6,0.1-0.9,0.1c-0.2,0.1-0.4,0.3-0.6,0.5c-0.1,0.2-0.2,0.5-0.3,0.7c-0.1,0.2-0.1,0.6-0.1,0.9c0,0.3,0,0.6,0.1,0.9
		c0.1,0.2,0.1,0.5,0.3,0.7c0.1,0.2,0.3,0.4,0.6,0.5c0.2,0.1,0.5,0.1,0.9,0.1c0.1,0,0.3,0,0.5-0.1c0.1,0,0.2-0.1,0.4-0.1l-0.6-0.5
		l0.2-0.3L29.2,38.4z"/>
	<path class="st2" d="M31.2,34.2h0.5v3c0,0.6,0.1,1.1,0.3,1.3c0.2,0.2,0.6,0.4,1.1,0.4c0.2,0,0.5,0,0.7-0.1c0.1-0.1,0.3-0.1,0.5-0.3
		c0.1-0.1,0.2-0.3,0.2-0.6c0.1-0.2,0.1-0.5,0.1-0.8v-3H35v3.1c0,0.6-0.1,1.2-0.5,1.5c-0.3,0.3-0.8,0.6-1.4,0.6
		c-0.6,0-1.1-0.1-1.5-0.6c-0.3-0.3-0.5-0.9-0.5-1.5V34.2z"/>
	<rect x="36.4" y="34.3" class="st2" width="0.5" height="4.9"/>
	<polygon class="st2" points="37.7,34.2 41.3,34.2 41.3,34.6 39.7,34.6 39.7,39.2 39.3,39.2 39.3,34.6 37.7,34.6 	"/>
	<polygon class="st2" points="41.9,39.2 41.9,34.3 45.2,34.3 45.2,34.7 42.4,34.7 42.4,36.5 45,36.5 45,36.9 42.4,36.9 42.4,38.9 
		45.3,38.9 45.3,39.3 41.9,39.3 	"/>
	<path class="st2" d="M49.7,35.7c-0.1-0.4-0.3-0.7-0.6-0.9c-0.2-0.1-0.6-0.2-1-0.2c-0.3,0-0.6,0.1-0.8,0.1c-0.2,0.1-0.4,0.3-0.6,0.5
		c-0.1,0.2-0.2,0.5-0.3,0.7c-0.1,0.2-0.1,0.6-0.1,0.9c0,0.3,0,0.6,0.1,0.8c0.1,0.2,0.1,0.5,0.3,0.7c0.2,0.2,0.3,0.4,0.6,0.5
		c0.2,0.1,0.5,0.1,0.9,0.1c0.2,0,0.4,0,0.6-0.1c0.1-0.1,0.3-0.1,0.5-0.3c0.1-0.1,0.2-0.2,0.3-0.5c0.1-0.1,0.1-0.3,0.2-0.6h0.5
		c-0.1,0.2-0.1,0.5-0.2,0.7c-0.1,0.2-0.2,0.4-0.4,0.6c-0.1,0.1-0.4,0.3-0.6,0.4c-0.2,0.1-0.5,0.1-0.9,0.1c-0.4,0-0.7-0.1-1-0.2
		c-0.2-0.1-0.5-0.3-0.6-0.6c-0.1-0.2-0.3-0.5-0.4-0.9c-0.1-0.3-0.1-0.6-0.1-1c0-0.5,0.1-0.9,0.1-1.2c0.1-0.3,0.3-0.6,0.5-0.8
		c0.1-0.1,0.5-0.4,0.7-0.5c0.3-0.1,0.5-0.1,0.9-0.1c0.2,0,0.5,0,0.7,0.1c0.2,0.1,0.4,0.1,0.6,0.3c0.1,0.1,0.3,0.3,0.4,0.5
		c0.1,0.1,0.1,0.4,0.2,0.7h-0.5v0.2H49.7z"/>
	<polygon class="st2" points="50.7,34.2 54.3,34.2 54.3,34.6 52.7,34.6 52.7,39.2 52.3,39.2 52.3,34.6 50.7,34.6 	"/>
	<path class="st2" d="M54.8,36.7c0-0.4,0.1-0.7,0.1-1c0.1-0.3,0.2-0.6,0.5-0.9c0.1-0.2,0.5-0.4,0.7-0.6c0.3-0.1,0.6-0.2,1-0.2
		c0.4,0,0.7,0.1,1,0.2c0.3,0.1,0.6,0.3,0.7,0.6c0.1,0.2,0.3,0.6,0.5,0.9c0.1,0.3,0.1,0.6,0.1,1c0,0.4-0.1,0.7-0.1,1
		c-0.1,0.3-0.2,0.6-0.5,0.9c-0.2,0.2-0.5,0.4-0.7,0.6c-0.3,0.1-0.6,0.2-1,0.2c-0.4,0-0.7-0.1-1-0.2c-0.3-0.1-0.5-0.3-0.7-0.6
		c-0.1-0.2-0.3-0.6-0.5-0.9C54.8,37.4,54.8,37.1,54.8,36.7 M57.1,38.9c0.3,0,0.6-0.1,0.9-0.1c0.2-0.1,0.4-0.3,0.6-0.5
		c0.1-0.2,0.2-0.5,0.3-0.7c0.1-0.2,0.1-0.6,0.1-0.9c0-0.3-0.1-0.6-0.1-0.9c-0.1-0.2-0.2-0.5-0.4-0.7c-0.1-0.1-0.4-0.3-0.6-0.5
		c-0.2-0.1-0.5-0.1-0.8-0.1c-0.3,0-0.6,0.1-0.9,0.1c-0.2,0.1-0.4,0.3-0.6,0.5c-0.1,0.2-0.2,0.5-0.3,0.7c-0.1,0.2-0.1,0.6-0.1,0.9
		c0,0.3,0,0.6,0.1,0.9c0.1,0.2,0.1,0.5,0.3,0.7c0.1,0.2,0.3,0.4,0.6,0.5C56.5,38.9,56.8,38.9,57.1,38.9"/>
	<path class="st2" d="M60.6,37.7c0,0.2,0.1,0.4,0.1,0.6c0.1,0.1,0.1,0.3,0.3,0.4c0.1,0.1,0.2,0.1,0.5,0.2c0.1,0.1,0.3,0.1,0.6,0.1
		c0.2,0,0.4,0,0.5-0.1c0.1-0.1,0.3-0.1,0.4-0.2c0.1-0.1,0.1-0.2,0.2-0.3c0.1-0.1,0.1-0.2,0.1-0.4c0-0.1-0.1-0.3-0.1-0.5
		c-0.1-0.1-0.2-0.2-0.3-0.3c-0.1-0.1-0.3-0.1-0.5-0.1c-0.1-0.1-0.4-0.1-0.6-0.1c-0.1,0-0.4-0.1-0.5-0.1c-0.1-0.1-0.3-0.1-0.5-0.2
		c-0.1-0.1-0.2-0.2-0.3-0.4c-0.1-0.1-0.1-0.4-0.1-0.6c0-0.1,0-0.3,0.1-0.5c0.1-0.1,0.1-0.3,0.3-0.4c0.1-0.1,0.3-0.2,0.6-0.3
		c0.2-0.1,0.5-0.1,0.7-0.1c0.3,0,0.5,0,0.7,0.1c0.2,0.1,0.4,0.1,0.6,0.3c0.1,0.1,0.2,0.3,0.3,0.5c0.1,0.1,0.1,0.4,0.1,0.5h-0.5
		c0-0.1,0-0.3-0.1-0.5c-0.1-0.1-0.1-0.2-0.2-0.3c-0.1-0.1-0.2-0.1-0.4-0.1c-0.1-0.1-0.3-0.1-0.5-0.1c-0.2,0-0.5,0-0.6,0.1
		c-0.1,0.1-0.3,0.1-0.4,0.2c-0.1,0.1-0.1,0.2-0.2,0.3c0,0.1-0.1,0.2,0,0.4c0,0.1,0.1,0.3,0.1,0.4c0.1,0.1,0.2,0.1,0.4,0.2
		c0.1,0.1,0.3,0.1,0.5,0.1c0.1,0.1,0.4,0.1,0.6,0.1c0.1,0.1,0.4,0.1,0.6,0.1c0.1,0,0.3,0.1,0.5,0.2c0.1,0.1,0.2,0.2,0.3,0.4
		c0.1,0.1,0.1,0.4,0.1,0.6c0,0.5-0.1,0.8-0.5,1.1c-0.3,0.2-0.8,0.4-1.3,0.4c-0.2,0-0.5,0-0.7-0.1c-0.2-0.1-0.4-0.1-0.6-0.3
		c-0.1-0.1-0.3-0.3-0.4-0.5c-0.1-0.2-0.1-0.5-0.1-0.7h0.4L60.6,37.7L60.6,37.7z"/>
</g>
<g>
	<path class="st3" d="M67.1,92.2c0.1,0,0.1,0.1,0.2,0.1c0.1,0.2,0.1,0.3,0.1,0.4c0,0.1,0,0.2-0.1,0.3c0,0.1-0.1,0.2-0.2,0.2
		c0.1,0,0.1,0.1,0.2,0.2c0,0.1,0.1,0.2,0.1,0.3c0,0.2,0,0.4,0,0.5l-0.4,0l0-0.3l0-0.2c0-0.1,0-0.2-0.1-0.3c0,0-0.1-0.1-0.2-0.1h-0.4
		v0.8h-0.4v-1.9h0.9C66.9,92.1,67,92.1,67.1,92.2 M66.3,92.4V93h0.4c0.1,0,0.2,0,0.2,0c0.1,0,0.1-0.1,0.1-0.2c0-0.1,0-0.2-0.1-0.2
		c0,0-0.1,0-0.2,0H66.3z M65,92.1h0.6v1.9h-0.4v-1.3l0-0.3l-0.3,1.6h-0.4l-0.3-1.6l0,0.3v1.3h-0.4v-1.9h0.6l0.3,1.5L65,92.1z"/>
	<path class="st3" d="M14.1,83.8c1.5-2.8,4.1-5.9,7.2-7c0.6-0.2,1.5-0.3,2.1,0.1c0.5,0.4,0.6,1,0.5,1.6c-0.1,0.7-0.6,1.5-1.4,1.7
		c-0.1,0-0.3,0-0.4-0.1c-0.2-0.2-0.2-0.5-0.1-0.7c0.1-0.5,0.6-1.1,1.2-1.2c0.1-0.1,0.1-0.2,0-0.3c-0.1-0.1-0.2-0.2-0.3-0.2
		c-0.6-0.1-1.1,0.3-1.6,0.7c-1.8,1.5-3.1,3.4-4.2,5.2c-0.9,1.7-1.7,3.4-1.9,5.4c-0.1,1.4,0.4,2.8,1.6,3.5c1.4,0.7,3.2,0.2,4.5-0.2
		l1.3-0.4l2.4-0.7c2.3-0.7,5.2-0.9,7.4,0c1.4,0.6,2.8,1.3,3.7,2.7c0,0,0,0.1,0,0.1c-1.9-0.5-4.4-1-6.4-0.1l-0.1,0
		c-0.6-0.9-1.6-1.4-2.6-1.6c-3.2-0.3-5.9,1.3-8.9,1.7c-1.5,0.2-3.2,0.1-4.3-1.1C12.2,91,12.4,88,13.2,86
		C13.4,85.2,13.7,84.5,14.1,83.8"/>
	<path class="st3" d="M18.6,84.8c0.8-1.5,2-3.3,3.7-3.8c0.5-0.1,0.9-0.1,1.3,0.2c0.7,0.7,0.5,2,0.2,2.8c0,0,0,0.1,0.1,0.1
		c0.7,0,1.2-0.3,1.6-0.8c1-1.1,2.1-2.6,3.7-2.5c0.3,0,0.6,0.2,0.8,0.5c0.4,0.8,0,1.7-0.5,2.4c-0.2,0.2-0.5,0.4-0.8,0.3
		c-0.1,0-0.2-0.2-0.3-0.3c-0.1-0.6,0.2-1.1,0.7-1.4c0.1-0.1,0.5,0,0.4-0.3c-0.1-0.1-0.2-0.1-0.3-0.1c-0.8,0.3-1.3,1.2-1.8,1.9
		c-0.6,0.9-1,1.9-1.4,2.9c-0.1,0.4-0.2,0.9,0,1.2c0.2,0.2,0.4,0.3,0.7,0.2c0.8-0.3,1.5-1,2.1-1.6c1.4-1.7,2.1-3.7,4-5.1
		c0.6-0.4,1.4-0.7,2.1-0.3c0.1,0,0.2,0.2,0.3,0.1c0.1-0.1,0.2-0.4,0.4-0.3c0.5,0,1.1,0,1.6,0l0,0l-0.1,0.4l-2.8,5.9
		c0,0.1,0,0.1,0,0.2c0,0.1,0.2,0.1,0.2,0c0.4-0.2,0.7-0.7,1-1.1c0.3-0.4,0.5-0.7,0.7-1.1c0.1-0.1,0.2-0.3,0.3-0.2
		c0.2,0,0.4,0,0.5,0.1c-0.2,0.5-0.5,0.9-0.7,1.4c-0.8,1.2-1.8,2.6-3.2,3c-0.2,0-0.5,0-0.7-0.1c-0.3-0.2-0.3-0.5-0.4-0.8
		c0,0-0.1,0-0.1,0c-0.6,0.6-1.2,1.1-2.1,1c-0.3-0.1-0.5-0.3-0.6-0.5c-0.2-0.4-0.1-1-0.1-1.5c0-0.1-0.1,0-0.1,0
		c-0.9,0.9-1.9,1.8-3.2,2c-0.6,0.1-1.1-0.1-1.5-0.5c-0.9-1.2-0.2-2.8,0.3-4c0-0.1,0-0.1-0.1-0.1c-0.3,0-0.7,0.1-1,0.1l-0.1,0.1
		c-0.7,1.4-1.6,2.9-2.9,3.9c-0.6,0.4-1.4,0.7-2.1,0.3c-0.7-0.5-0.8-1.3-0.7-2.1C17.9,86.4,18.2,85.6,18.6,84.8 M20.7,84.7
		c-0.4,0.8-0.8,1.6-0.8,2.6c0,0.2,0.1,0.4,0.3,0.4c0.2,0.1,0.4-0.1,0.5-0.2c0.8-0.7,1.3-1.5,1.7-2.4c0-0.1,0.1-0.2,0-0.3
		c-0.5-0.2-0.9-0.5-1.3-0.9l-0.1,0c-0.1,0-0.1,0.1-0.1,0.1L20.7,84.7z M21.9,83.1c0,0.4,0.4,0.8,0.8,0.9c0.1,0,0.2,0.1,0.3,0
		c0.1-0.3,0.2-0.6,0.3-0.9c0.1-0.4,0.1-0.9-0.2-1.2c-0.1-0.1-0.3-0.1-0.4,0C22.2,82.2,21.9,82.6,21.9,83.1 M31.4,86.3
		c-0.1,0.4-0.3,0.7-0.2,1.1c0,0.1,0.1,0.1,0.2,0.2c0.3,0,0.5-0.3,0.7-0.5c0.9-1.3,1.6-2.7,2.2-4.1c0.1-0.3,0.3-0.6,0.3-0.9
		c0-0.1-0.1-0.1-0.1-0.2c-0.1-0.1-0.3,0-0.4,0.1c-1.2,1-1.9,2.3-2.5,3.7L31.4,86.3z"/>
	<path class="st3" d="M37.4,82.7c0.3-0.5,0.5-1.1,0.8-1.6c0.1-0.2,0.4-0.1,0.5-0.2l1.4,0l0.1,0.1c-0.2,0.6-0.5,1.1-0.8,1.6
		c-0.1,0.1-0.2,0.3-0.4,0.3c-0.6,0-1.2,0.1-1.7,0C37.4,82.8,37.4,82.8,37.4,82.7"/>
	<path class="st3" d="M38.8,85.5c0.9-2,2.1-3.9,3.7-5.6c1.6-1.6,3.3-2.9,5.4-3.3c0.6-0.1,1.2,0,1.6,0.3c0.1,0.1,0.2,0.1,0.3,0.1
		c1.5-0.6,3.6-0.8,5.1-0.1c0.9,0.4,1.7,1,2.5,1.5c0.1,0.1,0.1,0.2,0,0.2c-0.5,0.5-0.9,1.1-1.3,1.6c0,0-0.1,0-0.2,0l-2.2-1.5
		c-1-0.7-2.2-1.2-3.6-0.9c-0.1,0.1-0.1,0.3-0.1,0.4c0,1.4-0.4,2.6-1.1,3.7c-0.5,0.8-1.1,1.6-2,1.8c-0.4,0.1-0.8,0-1-0.3
		c-0.7-1-0.1-2.2,0.4-3.1c0.5-1,1.4-1.9,2.3-2.6c0,0,0.1-0.1,0-0.1c-0.1-0.1-0.2,0-0.4,0c-1.5,0.5-2.7,1.8-3.8,3.1
		c-2,2.4-3.4,5.1-4.3,8c-0.3,1.1-0.6,2.8,0.5,3.5c1,0.5,1.9-0.2,2.6-0.8c1.1-1.1,1.8-2.5,2.1-3.9c0-0.4,0.2-1-0.2-1.3
		c-0.4-0.2-0.7,0.1-0.9,0.4c-0.6,0.7-0.8,1.5-0.9,2.4c-0.3,0.2-0.6,0.3-0.8,0.6c-0.5,0.4-1,0.8-1.4,1.3c0,0-0.1,0-0.1-0.1
		c-0.1-1.6,0.5-3,1.4-4.3c0.7-0.8,1.6-1.5,2.7-1.3c0.5,0.1,0.8,0.6,0.9,1.1c0.2,1.5-0.4,2.9-1.1,4.1c-1.1,1.8-2.9,3.5-5.1,3.3
		c-0.9,0-1.7-0.6-2-1.4c-0.9-1.7-0.3-3.8,0.3-5.5L38.8,85.5z M46.4,82.5c0,0.2,0.1,0.4,0.3,0.5c0.4,0.1,0.7-0.2,1-0.4
		c1-1.1,1.6-2.3,1.8-3.7c0-0.2,0.1-0.5-0.1-0.7c-0.1,0-0.2,0-0.2,0.1c-0.7,0.5-1.3,1.1-1.8,1.8C46.9,80.8,46.4,81.6,46.4,82.5"/>
	<path class="st3" d="M47.9,87.3c0.8-1.1,1.9-2.3,3.2-2.3c0.3,0,0.6,0.1,0.9,0.4c0.6,0.9,0.1,2-0.1,2.8c0,0.1,0,0.1,0.1,0.2
		c0.3,0,0.6,0,0.8-0.1l0.1-0.1c1-2.8,2.4-5.4,4.1-7.9c1.1-1.4,2.4-2.9,4-3.6c0.4-0.1,0.9-0.3,1.3,0c0.4,0.3,0.3,0.9,0.2,1.3
		c0,0.4-0.5,0.4-0.8,0.5c0,0,0,0,0,0c0-0.3,0.1-0.5,0.2-0.7c0-0.1,0-0.2,0-0.4c-0.1-0.1-0.2-0.1-0.3,0c-0.5,0.3-1,0.8-1.4,1.2
		c-1.5,1.8-2.7,3.8-3.7,5.8c-0.3,0.7-0.7,1.4-1,2.1c0,0,0,0.1,0,0.1c0.2,0,0.4-0.3,0.6-0.4c1.4-1.2,2.5-2.7,3.5-4.1
		c0.2-0.1,0.5-0.1,0.7-0.1l0,0c0,0.2-0.2,0.4-0.3,0.5c-1.1,1.7-2.4,3.2-4,4.7L55,88.1c-0.2,0.2-0.2,0.5-0.4,0.8
		c-0.2,0.7-0.4,1.5-0.5,2.3c0,0.1,0.1,0.3,0.2,0.3c0.3,0.1,0.5-0.2,0.7-0.4c1.5-1.8,2.2-4,4.1-5.6c0.6-0.5,1.4-0.9,2.2-0.6
		c0.1,0,0.2,0.2,0.4,0.1c0.1-0.1,0.1-0.3,0.3-0.3c0.6,0,1.1,0,1.7,0c0,0,0,0.1,0,0.2l-0.4,0.8l-2.3,4.8c-0.1,0.2-0.2,0.5-0.2,0.7
		c0,0.1,0.1,0.1,0.2,0.1c0.4-0.2,0.8-0.7,1.1-1.1c0.3-0.4,0.5-0.8,0.8-1.3c0.1-0.1,0.4,0,0.5,0c0.1,0.1,0,0.2,0,0.3
		c-0.7,1.4-1.6,3-3.1,3.8c-0.4,0.2-0.8,0.3-1.2,0.1c-0.3-0.2-0.3-0.6-0.4-0.9c0,0-0.1,0-0.1,0c-0.6,0.6-1.3,1.2-2.2,1
		c-0.5-0.3-0.6-0.9-0.7-1.4c0,0,0-0.1,0-0.1l-0.1,0c-0.6,0.7-1.4,1.7-2.4,1.6c-0.4,0-0.7-0.4-0.9-0.8c-0.4-1.1,0-2.4,0.3-3.5
		c0-0.1-0.1-0.1-0.1-0.1l-0.9,0l-0.1,0.2c-0.6,1.3-1.3,2.5-2.4,3.5c-0.6,0.5-1.3,0.9-2.1,0.7c-0.7-0.3-0.8-1-0.8-1.7
		C46.2,90.1,46.9,88.7,47.9,87.3 M48.1,91.1c0,0.2,0.1,0.5,0.4,0.6c0.2,0.1,0.3,0,0.5-0.1c0.8-0.6,1.3-1.5,1.7-2.4
		c0-0.1,0.1-0.2,0-0.3c-0.4-0.2-0.8-0.5-1.2-0.9c0,0-0.1,0-0.2,0c-0.3,0.4-0.5,0.9-0.7,1.3C48.4,89.9,48.1,90.4,48.1,91.1
		 M50.1,87.2c0,0.4,0.4,0.8,0.8,1c0.1,0,0.2,0.1,0.3,0c0.2-0.5,0.5-1.2,0.3-1.8c0-0.1-0.2-0.3-0.3-0.3c-0.2,0-0.3,0-0.4,0.1
		C50.3,86.3,50.1,86.7,50.1,87.2 M57.9,90.9c0,0.2-0.1,0.5,0.1,0.6c0.1,0.1,0.2,0.1,0.3,0.1c0.4-0.2,0.7-0.7,0.9-1
		c0.8-1.3,1.5-2.7,2-4.2c0-0.1,0.1-0.3-0.1-0.4c-0.3-0.2-0.6,0.2-0.9,0.4c-1.1,1.1-1.7,2.5-2.3,3.8L57.9,90.9z"/>
	<path class="st3" d="M59.4,80.4l0.7-1l0.1-0.1c2.2-0.1,3.8-1.4,5.4-2.9c0,0.2-0.1,0.4-0.2,0.6c-1,2.4-3.4,4.4-6,4.5l-0.6,0
		c-0.1,0,0-0.1,0-0.2L59.4,80.4z"/>
	<path class="st3" d="M67.1,92.2c0.1,0,0.1,0.1,0.2,0.1c0.1,0.2,0.1,0.3,0.1,0.4c0,0.1,0,0.2-0.1,0.3c0,0.1-0.1,0.2-0.2,0.2
		c0.1,0,0.1,0.1,0.2,0.2c0,0.1,0.1,0.2,0.1,0.3c0,0.2,0,0.4,0,0.5l-0.4,0l0-0.3l0-0.2c0-0.1,0-0.2-0.1-0.3c0,0-0.1-0.1-0.2-0.1h-0.4
		v0.8h-0.4v-1.9h0.9C66.9,92.1,67,92.1,67.1,92.2 M66.3,92.4V93h0.4c0.1,0,0.2,0,0.2,0c0.1,0,0.1-0.1,0.1-0.2c0-0.1,0-0.2-0.1-0.2
		c0,0-0.1,0-0.2,0H66.3z M65,92.1h0.6v1.9h-0.4v-1.3l0-0.3l-0.3,1.6h-0.4l-0.3-1.6l0,0.3v1.3h-0.4v-1.9h0.6l0.3,1.5L65,92.1z"/>
	<path class="st3" d="M14.1,83.8c1.5-2.8,4.1-5.9,7.2-7c0.6-0.2,1.5-0.3,2.1,0.1c0.5,0.4,0.6,1,0.5,1.6c-0.1,0.7-0.6,1.5-1.4,1.7
		c-0.1,0-0.3,0-0.4-0.1c-0.2-0.2-0.2-0.5-0.1-0.7c0.1-0.5,0.6-1.1,1.2-1.2c0.1-0.1,0.1-0.2,0-0.3c-0.1-0.1-0.2-0.2-0.3-0.2
		c-0.6-0.1-1.1,0.3-1.6,0.7c-1.8,1.5-3.1,3.4-4.2,5.2c-0.9,1.7-1.7,3.4-1.9,5.4c-0.1,1.4,0.4,2.8,1.6,3.5c1.4,0.7,3.2,0.2,4.5-0.2
		l1.3-0.4l2.4-0.7c2.3-0.7,5.2-0.9,7.4,0c1.4,0.6,2.8,1.3,3.7,2.7c0,0,0,0.1,0,0.1c-1.9-0.5-4.4-1-6.4-0.1l-0.1,0
		c-0.6-0.9-1.6-1.4-2.6-1.6c-3.2-0.3-5.9,1.3-8.9,1.7c-1.5,0.2-3.2,0.1-4.3-1.1C12.2,91,12.4,88,13.2,86
		C13.4,85.2,13.7,84.5,14.1,83.8"/>
	<path class="st3" d="M18.6,84.8c0.8-1.5,2-3.3,3.7-3.8c0.5-0.1,0.9-0.1,1.3,0.2c0.7,0.7,0.5,2,0.2,2.8c0,0,0,0.1,0.1,0.1
		c0.7,0,1.2-0.3,1.6-0.8c1-1.1,2.1-2.6,3.7-2.5c0.3,0,0.6,0.2,0.8,0.5c0.4,0.8,0,1.7-0.5,2.4c-0.2,0.2-0.5,0.4-0.8,0.3
		c-0.1,0-0.2-0.2-0.3-0.3c-0.1-0.6,0.2-1.1,0.7-1.4c0.1-0.1,0.5,0,0.4-0.3c-0.1-0.1-0.2-0.1-0.3-0.1c-0.8,0.3-1.3,1.2-1.8,1.9
		c-0.6,0.9-1,1.9-1.4,2.9c-0.1,0.4-0.2,0.9,0,1.2c0.2,0.2,0.4,0.3,0.7,0.2c0.8-0.3,1.5-1,2.1-1.6c1.4-1.7,2.1-3.7,4-5.1
		c0.6-0.4,1.4-0.7,2.1-0.3c0.1,0,0.2,0.2,0.3,0.1c0.1-0.1,0.2-0.4,0.4-0.3c0.5,0,1.1,0,1.6,0l0,0l-0.1,0.4l-2.8,5.9
		c0,0.1,0,0.1,0,0.2c0,0.1,0.2,0.1,0.2,0c0.4-0.2,0.7-0.7,1-1.1c0.3-0.4,0.5-0.7,0.7-1.1c0.1-0.1,0.2-0.3,0.3-0.2
		c0.2,0,0.4,0,0.5,0.1c-0.2,0.5-0.5,0.9-0.7,1.4c-0.8,1.2-1.8,2.6-3.2,3c-0.2,0-0.5,0-0.7-0.1c-0.3-0.2-0.3-0.5-0.4-0.8
		c0,0-0.1,0-0.1,0c-0.6,0.6-1.2,1.1-2.1,1c-0.3-0.1-0.5-0.3-0.6-0.5c-0.2-0.4-0.1-1-0.1-1.5c0-0.1-0.1,0-0.1,0
		c-0.9,0.9-1.9,1.8-3.2,2c-0.6,0.1-1.1-0.1-1.5-0.5c-0.9-1.2-0.2-2.8,0.3-4c0-0.1,0-0.1-0.1-0.1c-0.3,0-0.7,0.1-1,0.1l-0.1,0.1
		c-0.7,1.4-1.6,2.9-2.9,3.9c-0.6,0.4-1.4,0.7-2.1,0.3c-0.7-0.5-0.8-1.3-0.7-2.1C17.9,86.4,18.2,85.6,18.6,84.8 M20.7,84.7
		c-0.4,0.8-0.8,1.6-0.8,2.6c0,0.2,0.1,0.4,0.3,0.4c0.2,0.1,0.4-0.1,0.5-0.2c0.8-0.7,1.3-1.5,1.7-2.4c0-0.1,0.1-0.2,0-0.3
		c-0.5-0.2-0.9-0.5-1.3-0.9l-0.1,0c-0.1,0-0.1,0.1-0.1,0.1L20.7,84.7z M21.9,83.1c0,0.4,0.4,0.8,0.8,0.9c0.1,0,0.2,0.1,0.3,0
		c0.1-0.3,0.2-0.6,0.3-0.9c0.1-0.4,0.1-0.9-0.2-1.2c-0.1-0.1-0.3-0.1-0.4,0C22.2,82.2,21.9,82.6,21.9,83.1 M31.4,86.3
		c-0.1,0.4-0.3,0.7-0.2,1.1c0,0.1,0.1,0.1,0.2,0.2c0.3,0,0.5-0.3,0.7-0.5c0.9-1.3,1.6-2.7,2.2-4.1c0.1-0.3,0.3-0.6,0.3-0.9
		c0-0.1-0.1-0.1-0.1-0.2c-0.1-0.1-0.3,0-0.4,0.1c-1.2,1-1.9,2.3-2.5,3.7L31.4,86.3z"/>
	<path class="st3" d="M37.4,82.7c0.3-0.5,0.5-1.1,0.8-1.6c0.1-0.2,0.4-0.1,0.5-0.2l1.4,0l0.1,0.1c-0.2,0.6-0.5,1.1-0.8,1.6
		c-0.1,0.1-0.2,0.3-0.4,0.3c-0.6,0-1.2,0.1-1.7,0C37.4,82.8,37.4,82.8,37.4,82.7"/>
	<path class="st3" d="M38.8,85.5c0.9-2,2.1-3.9,3.7-5.6c1.6-1.6,3.3-2.9,5.4-3.3c0.6-0.1,1.2,0,1.6,0.3c0.1,0.1,0.2,0.1,0.3,0.1
		c1.5-0.6,3.6-0.8,5.1-0.1c0.9,0.4,1.7,1,2.5,1.5c0.1,0.1,0.1,0.2,0,0.2c-0.5,0.5-0.9,1.1-1.3,1.6c0,0-0.1,0-0.2,0l-2.2-1.5
		c-1-0.7-2.2-1.2-3.6-0.9c-0.1,0.1-0.1,0.3-0.1,0.4c0,1.4-0.4,2.6-1.1,3.7c-0.5,0.8-1.1,1.6-2,1.8c-0.4,0.1-0.8,0-1-0.3
		c-0.7-1-0.1-2.2,0.4-3.1c0.5-1,1.4-1.9,2.3-2.6c0,0,0.1-0.1,0-0.1c-0.1-0.1-0.2,0-0.4,0c-1.5,0.5-2.7,1.8-3.8,3.1
		c-2,2.4-3.4,5.1-4.3,8c-0.3,1.1-0.6,2.8,0.5,3.5c1,0.5,1.9-0.2,2.6-0.8c1.1-1.1,1.8-2.5,2.1-3.9c0-0.4,0.2-1-0.2-1.3
		c-0.4-0.2-0.7,0.1-0.9,0.4c-0.6,0.7-0.8,1.5-0.9,2.4c-0.3,0.2-0.6,0.3-0.8,0.6c-0.5,0.4-1,0.8-1.4,1.3c0,0-0.1,0-0.1-0.1
		c-0.1-1.6,0.5-3,1.4-4.3c0.7-0.8,1.6-1.5,2.7-1.3c0.5,0.1,0.8,0.6,0.9,1.1c0.2,1.5-0.4,2.9-1.1,4.1c-1.1,1.8-2.9,3.5-5.1,3.3
		c-0.9,0-1.7-0.6-2-1.4c-0.9-1.7-0.3-3.8,0.3-5.5L38.8,85.5z M46.4,82.5c0,0.2,0.1,0.4,0.3,0.5c0.4,0.1,0.7-0.2,1-0.4
		c1-1.1,1.6-2.3,1.8-3.7c0-0.2,0.1-0.5-0.1-0.7c-0.1,0-0.2,0-0.2,0.1c-0.7,0.5-1.3,1.1-1.8,1.8C46.9,80.8,46.4,81.6,46.4,82.5"/>
	<path class="st3" d="M47.9,87.3c0.8-1.1,1.9-2.3,3.2-2.3c0.3,0,0.6,0.1,0.9,0.4c0.6,0.9,0.1,2-0.1,2.8c0,0.1,0,0.1,0.1,0.2
		c0.3,0,0.6,0,0.8-0.1l0.1-0.1c1-2.8,2.4-5.4,4.1-7.9c1.1-1.4,2.4-2.9,4-3.6c0.4-0.1,0.9-0.3,1.3,0c0.4,0.3,0.3,0.9,0.2,1.3
		c0,0.4-0.5,0.4-0.8,0.5c0,0,0,0,0,0c0-0.3,0.1-0.5,0.2-0.7c0-0.1,0-0.2,0-0.4c-0.1-0.1-0.2-0.1-0.3,0c-0.5,0.3-1,0.8-1.4,1.2
		c-1.5,1.8-2.7,3.8-3.7,5.8c-0.3,0.7-0.7,1.4-1,2.1c0,0,0,0.1,0,0.1c0.2,0,0.4-0.3,0.6-0.4c1.4-1.2,2.5-2.7,3.5-4.1
		c0.2-0.1,0.5-0.1,0.7-0.1l0,0c0,0.2-0.2,0.4-0.3,0.5c-1.1,1.7-2.4,3.2-4,4.7L55,88.1c-0.2,0.2-0.2,0.5-0.4,0.8
		c-0.2,0.7-0.4,1.5-0.5,2.3c0,0.1,0.1,0.3,0.2,0.3c0.3,0.1,0.5-0.2,0.7-0.4c1.5-1.8,2.2-4,4.1-5.6c0.6-0.5,1.4-0.9,2.2-0.6
		c0.1,0,0.2,0.2,0.4,0.1c0.1-0.1,0.1-0.3,0.3-0.3c0.6,0,1.1,0,1.7,0c0,0,0,0.1,0,0.2l-0.4,0.8l-2.3,4.8c-0.1,0.2-0.2,0.5-0.2,0.7
		c0,0.1,0.1,0.1,0.2,0.1c0.4-0.2,0.8-0.7,1.1-1.1c0.3-0.4,0.5-0.8,0.8-1.3c0.1-0.1,0.4,0,0.5,0c0.1,0.1,0,0.2,0,0.3
		c-0.7,1.4-1.6,3-3.1,3.8c-0.4,0.2-0.8,0.3-1.2,0.1c-0.3-0.2-0.3-0.6-0.4-0.9c0,0-0.1,0-0.1,0c-0.6,0.6-1.3,1.2-2.2,1
		c-0.5-0.3-0.6-0.9-0.7-1.4c0,0,0-0.1,0-0.1l-0.1,0c-0.6,0.7-1.4,1.7-2.4,1.6c-0.4,0-0.7-0.4-0.9-0.8c-0.4-1.1,0-2.4,0.3-3.5
		c0-0.1-0.1-0.1-0.1-0.1l-0.9,0l-0.1,0.2c-0.6,1.3-1.3,2.5-2.4,3.5c-0.6,0.5-1.3,0.9-2.1,0.7c-0.7-0.3-0.8-1-0.8-1.7
		C46.2,90.1,46.9,88.7,47.9,87.3 M48.1,91.1c0,0.2,0.1,0.5,0.4,0.6c0.2,0.1,0.3,0,0.5-0.1c0.8-0.6,1.3-1.5,1.7-2.4
		c0-0.1,0.1-0.2,0-0.3c-0.4-0.2-0.8-0.5-1.2-0.9c0,0-0.1,0-0.2,0c-0.3,0.4-0.5,0.9-0.7,1.3C48.4,89.9,48.1,90.4,48.1,91.1
		 M50.1,87.2c0,0.4,0.4,0.8,0.8,1c0.1,0,0.2,0.1,0.3,0c0.2-0.5,0.5-1.2,0.3-1.8c0-0.1-0.2-0.3-0.3-0.3c-0.2,0-0.3,0-0.4,0.1
		C50.3,86.3,50.1,86.7,50.1,87.2 M57.9,90.9c0,0.2-0.1,0.5,0.1,0.6c0.1,0.1,0.2,0.1,0.3,0.1c0.4-0.2,0.7-0.7,0.9-1
		c0.8-1.3,1.5-2.7,2-4.2c0-0.1,0.1-0.3-0.1-0.4c-0.3-0.2-0.6,0.2-0.9,0.4c-1.1,1.1-1.7,2.5-2.3,3.8L57.9,90.9z"/>
	<path class="st3" d="M59.4,80.4l0.7-1l0.1-0.1c2.2-0.1,3.8-1.4,5.4-2.9c0,0.2-0.1,0.4-0.2,0.6c-1,2.4-3.4,4.4-6,4.5l-0.6,0
		c-0.1,0,0-0.1,0-0.2L59.4,80.4z"/>
	<path class="st3" d="M67.1,92.2c0.1,0,0.1,0.1,0.2,0.1c0.1,0.2,0.1,0.3,0.1,0.4c0,0.1,0,0.2-0.1,0.3c0,0.1-0.1,0.2-0.2,0.2
		c0.1,0,0.1,0.1,0.2,0.2c0,0.1,0.1,0.2,0.1,0.3c0,0.2,0,0.4,0,0.5l-0.4,0l0-0.3l0-0.2c0-0.1,0-0.2-0.1-0.3c0,0-0.1-0.1-0.2-0.1h-0.4
		v0.8h-0.4v-1.9h0.9C66.9,92.1,67,92.1,67.1,92.2 M66.3,92.4V93h0.4c0.1,0,0.2,0,0.2,0c0.1,0,0.1-0.1,0.1-0.2c0-0.1,0-0.2-0.1-0.2
		c0,0-0.1,0-0.2,0H66.3z M65,92.1h0.6v1.9h-0.4v-1.3l0-0.3l-0.3,1.6h-0.4l-0.3-1.6l0,0.3v1.3h-0.4v-1.9h0.6l0.3,1.5L65,92.1z"/>
	<path class="st3" d="M14.1,83.8c1.5-2.8,4.1-5.9,7.2-7c0.6-0.2,1.5-0.3,2.1,0.1c0.5,0.4,0.6,1,0.5,1.6c-0.1,0.7-0.6,1.5-1.4,1.7
		c-0.1,0-0.3,0-0.4-0.1c-0.2-0.2-0.2-0.5-0.1-0.7c0.1-0.5,0.6-1.1,1.2-1.2c0.1-0.1,0.1-0.2,0-0.3c-0.1-0.1-0.2-0.2-0.3-0.2
		c-0.6-0.1-1.1,0.3-1.6,0.7c-1.8,1.5-3.1,3.4-4.2,5.2c-0.9,1.7-1.7,3.4-1.9,5.4c-0.1,1.4,0.4,2.8,1.6,3.5c1.4,0.7,3.2,0.2,4.5-0.2
		l1.3-0.4l2.4-0.7c2.3-0.7,5.2-0.9,7.4,0c1.4,0.6,2.8,1.3,3.7,2.7c0,0,0,0.1,0,0.1c-1.9-0.5-4.4-1-6.4-0.1l-0.1,0
		c-0.6-0.9-1.6-1.4-2.6-1.6c-3.2-0.3-5.9,1.3-8.9,1.7c-1.5,0.2-3.2,0.1-4.3-1.1C12.2,91,12.4,88,13.2,86
		C13.4,85.2,13.7,84.5,14.1,83.8"/>
	<path class="st3" d="M18.6,84.8c0.8-1.5,2-3.3,3.7-3.8c0.5-0.1,0.9-0.1,1.3,0.2c0.7,0.7,0.5,2,0.2,2.8c0,0,0,0.1,0.1,0.1
		c0.7,0,1.2-0.3,1.6-0.8c1-1.1,2.1-2.6,3.7-2.5c0.3,0,0.6,0.2,0.8,0.5c0.4,0.8,0,1.7-0.5,2.4c-0.2,0.2-0.5,0.4-0.8,0.3
		c-0.1,0-0.2-0.2-0.3-0.3c-0.1-0.6,0.2-1.1,0.7-1.4c0.1-0.1,0.5,0,0.4-0.3c-0.1-0.1-0.2-0.1-0.3-0.1c-0.8,0.3-1.3,1.2-1.8,1.9
		c-0.6,0.9-1,1.9-1.4,2.9c-0.1,0.4-0.2,0.9,0,1.2c0.2,0.2,0.4,0.3,0.7,0.2c0.8-0.3,1.5-1,2.1-1.6c1.4-1.7,2.1-3.7,4-5.1
		c0.6-0.4,1.4-0.7,2.1-0.3c0.1,0,0.2,0.2,0.3,0.1c0.1-0.1,0.2-0.4,0.4-0.3c0.5,0,1.1,0,1.6,0l0,0l-0.1,0.4l-2.8,5.9
		c0,0.1,0,0.1,0,0.2c0,0.1,0.2,0.1,0.2,0c0.4-0.2,0.7-0.7,1-1.1c0.3-0.4,0.5-0.7,0.7-1.1c0.1-0.1,0.2-0.3,0.3-0.2
		c0.2,0,0.4,0,0.5,0.1c-0.2,0.5-0.5,0.9-0.7,1.4c-0.8,1.2-1.8,2.6-3.2,3c-0.2,0-0.5,0-0.7-0.1c-0.3-0.2-0.3-0.5-0.4-0.8
		c0,0-0.1,0-0.1,0c-0.6,0.6-1.2,1.1-2.1,1c-0.3-0.1-0.5-0.3-0.6-0.5c-0.2-0.4-0.1-1-0.1-1.5c0-0.1-0.1,0-0.1,0
		c-0.9,0.9-1.9,1.8-3.2,2c-0.6,0.1-1.1-0.1-1.5-0.5c-0.9-1.2-0.2-2.8,0.3-4c0-0.1,0-0.1-0.1-0.1c-0.3,0-0.7,0.1-1,0.1l-0.1,0.1
		c-0.7,1.4-1.6,2.9-2.9,3.9c-0.6,0.4-1.4,0.7-2.1,0.3c-0.7-0.5-0.8-1.3-0.7-2.1C17.9,86.4,18.2,85.6,18.6,84.8 M20.7,84.7
		c-0.4,0.8-0.8,1.6-0.8,2.6c0,0.2,0.1,0.4,0.3,0.4c0.2,0.1,0.4-0.1,0.5-0.2c0.8-0.7,1.3-1.5,1.7-2.4c0-0.1,0.1-0.2,0-0.3
		c-0.5-0.2-0.9-0.5-1.3-0.9l-0.1,0c-0.1,0-0.1,0.1-0.1,0.1L20.7,84.7z M21.9,83.1c0,0.4,0.4,0.8,0.8,0.9c0.1,0,0.2,0.1,0.3,0
		c0.1-0.3,0.2-0.6,0.3-0.9c0.1-0.4,0.1-0.9-0.2-1.2c-0.1-0.1-0.3-0.1-0.4,0C22.2,82.2,21.9,82.6,21.9,83.1 M31.4,86.3
		c-0.1,0.4-0.3,0.7-0.2,1.1c0,0.1,0.1,0.1,0.2,0.2c0.3,0,0.5-0.3,0.7-0.5c0.9-1.3,1.6-2.7,2.2-4.1c0.1-0.3,0.3-0.6,0.3-0.9
		c0-0.1-0.1-0.1-0.1-0.2c-0.1-0.1-0.3,0-0.4,0.1c-1.2,1-1.9,2.3-2.5,3.7L31.4,86.3z"/>
	<path class="st3" d="M37.4,82.7c0.3-0.5,0.5-1.1,0.8-1.6c0.1-0.2,0.4-0.1,0.5-0.2l1.4,0l0.1,0.1c-0.2,0.6-0.5,1.1-0.8,1.6
		c-0.1,0.1-0.2,0.3-0.4,0.3c-0.6,0-1.2,0.1-1.7,0C37.4,82.8,37.4,82.8,37.4,82.7"/>
	<path class="st3" d="M38.8,85.5c0.9-2,2.1-3.9,3.7-5.6c1.6-1.6,3.3-2.9,5.4-3.3c0.6-0.1,1.2,0,1.6,0.3c0.1,0.1,0.2,0.1,0.3,0.1
		c1.5-0.6,3.6-0.8,5.1-0.1c0.9,0.4,1.7,1,2.5,1.5c0.1,0.1,0.1,0.2,0,0.2c-0.5,0.5-0.9,1.1-1.3,1.6c0,0-0.1,0-0.2,0l-2.2-1.5
		c-1-0.7-2.2-1.2-3.6-0.9c-0.1,0.1-0.1,0.3-0.1,0.4c0,1.4-0.4,2.6-1.1,3.7c-0.5,0.8-1.1,1.6-2,1.8c-0.4,0.1-0.8,0-1-0.3
		c-0.7-1-0.1-2.2,0.4-3.1c0.5-1,1.4-1.9,2.3-2.6c0,0,0.1-0.1,0-0.1c-0.1-0.1-0.2,0-0.4,0c-1.5,0.5-2.7,1.8-3.8,3.1
		c-2,2.4-3.4,5.1-4.3,8c-0.3,1.1-0.6,2.8,0.5,3.5c1,0.5,1.9-0.2,2.6-0.8c1.1-1.1,1.8-2.5,2.1-3.9c0-0.4,0.2-1-0.2-1.3
		c-0.4-0.2-0.7,0.1-0.9,0.4c-0.6,0.7-0.8,1.5-0.9,2.4c-0.3,0.2-0.6,0.3-0.8,0.6c-0.5,0.4-1,0.8-1.4,1.3c0,0-0.1,0-0.1-0.1
		c-0.1-1.6,0.5-3,1.4-4.3c0.7-0.8,1.6-1.5,2.7-1.3c0.5,0.1,0.8,0.6,0.9,1.1c0.2,1.5-0.4,2.9-1.1,4.1c-1.1,1.8-2.9,3.5-5.1,3.3
		c-0.9,0-1.7-0.6-2-1.4c-0.9-1.7-0.3-3.8,0.3-5.5L38.8,85.5z M46.4,82.5c0,0.2,0.1,0.4,0.3,0.5c0.4,0.1,0.7-0.2,1-0.4
		c1-1.1,1.6-2.3,1.8-3.7c0-0.2,0.1-0.5-0.1-0.7c-0.1,0-0.2,0-0.2,0.1c-0.7,0.5-1.3,1.1-1.8,1.8C46.9,80.8,46.4,81.6,46.4,82.5"/>
	<path class="st3" d="M47.9,87.3c0.8-1.1,1.9-2.3,3.2-2.3c0.3,0,0.6,0.1,0.9,0.4c0.6,0.9,0.1,2-0.1,2.8c0,0.1,0,0.1,0.1,0.2
		c0.3,0,0.6,0,0.8-0.1l0.1-0.1c1-2.8,2.4-5.4,4.1-7.9c1.1-1.4,2.4-2.9,4-3.6c0.4-0.1,0.9-0.3,1.3,0c0.4,0.3,0.3,0.9,0.2,1.3
		c0,0.4-0.5,0.4-0.8,0.5c0,0,0,0,0,0c0-0.3,0.1-0.5,0.2-0.7c0-0.1,0-0.2,0-0.4c-0.1-0.1-0.2-0.1-0.3,0c-0.5,0.3-1,0.8-1.4,1.2
		c-1.5,1.8-2.7,3.8-3.7,5.8c-0.3,0.7-0.7,1.4-1,2.1c0,0,0,0.1,0,0.1c0.2,0,0.4-0.3,0.6-0.4c1.4-1.2,2.5-2.7,3.5-4.1
		c0.2-0.1,0.5-0.1,0.7-0.1l0,0c0,0.2-0.2,0.4-0.3,0.5c-1.1,1.7-2.4,3.2-4,4.7L55,88.1c-0.2,0.2-0.2,0.5-0.4,0.8
		c-0.2,0.7-0.4,1.5-0.5,2.3c0,0.1,0.1,0.3,0.2,0.3c0.3,0.1,0.5-0.2,0.7-0.4c1.5-1.8,2.2-4,4.1-5.6c0.6-0.5,1.4-0.9,2.2-0.6
		c0.1,0,0.2,0.2,0.4,0.1c0.1-0.1,0.1-0.3,0.3-0.3c0.6,0,1.1,0,1.7,0c0,0,0,0.1,0,0.2l-0.4,0.8l-2.3,4.8c-0.1,0.2-0.2,0.5-0.2,0.7
		c0,0.1,0.1,0.1,0.2,0.1c0.4-0.2,0.8-0.7,1.1-1.1c0.3-0.4,0.5-0.8,0.8-1.3c0.1-0.1,0.4,0,0.5,0c0.1,0.1,0,0.2,0,0.3
		c-0.7,1.4-1.6,3-3.1,3.8c-0.4,0.2-0.8,0.3-1.2,0.1c-0.3-0.2-0.3-0.6-0.4-0.9c0,0-0.1,0-0.1,0c-0.6,0.6-1.3,1.2-2.2,1
		c-0.5-0.3-0.6-0.9-0.7-1.4c0,0,0-0.1,0-0.1l-0.1,0c-0.6,0.7-1.4,1.7-2.4,1.6c-0.4,0-0.7-0.4-0.9-0.8c-0.4-1.1,0-2.4,0.3-3.5
		c0-0.1-0.1-0.1-0.1-0.1l-0.9,0l-0.1,0.2c-0.6,1.3-1.3,2.5-2.4,3.5c-0.6,0.5-1.3,0.9-2.1,0.7c-0.7-0.3-0.8-1-0.8-1.7
		C46.2,90.1,46.9,88.7,47.9,87.3 M48.1,91.1c0,0.2,0.1,0.5,0.4,0.6c0.2,0.1,0.3,0,0.5-0.1c0.8-0.6,1.3-1.5,1.7-2.4
		c0-0.1,0.1-0.2,0-0.3c-0.4-0.2-0.8-0.5-1.2-0.9c0,0-0.1,0-0.2,0c-0.3,0.4-0.5,0.9-0.7,1.3C48.4,89.9,48.1,90.4,48.1,91.1
		 M50.1,87.2c0,0.4,0.4,0.8,0.8,1c0.1,0,0.2,0.1,0.3,0c0.2-0.5,0.5-1.2,0.3-1.8c0-0.1-0.2-0.3-0.3-0.3c-0.2,0-0.3,0-0.4,0.1
		C50.3,86.3,50.1,86.7,50.1,87.2 M57.9,90.9c0,0.2-0.1,0.5,0.1,0.6c0.1,0.1,0.2,0.1,0.3,0.1c0.4-0.2,0.7-0.7,0.9-1
		c0.8-1.3,1.5-2.7,2-4.2c0-0.1,0.1-0.3-0.1-0.4c-0.3-0.2-0.6,0.2-0.9,0.4c-1.1,1.1-1.7,2.5-2.3,3.8L57.9,90.9z"/>
	<path class="st3" d="M59.4,80.4l0.7-1l0.1-0.1c2.2-0.1,3.8-1.4,5.4-2.9c0,0.2-0.1,0.4-0.2,0.6c-1,2.4-3.4,4.4-6,4.5l-0.6,0
		c-0.1,0,0-0.1,0-0.2L59.4,80.4z"/>
	<path class="st3" d="M67.1,92.2c0.1,0,0.1,0.1,0.2,0.1c0.1,0.2,0.1,0.3,0.1,0.4c0,0.1,0,0.2-0.1,0.3c0,0.1-0.1,0.2-0.2,0.2
		c0.1,0,0.1,0.1,0.2,0.2c0,0.1,0.1,0.2,0.1,0.3c0,0.2,0,0.4,0,0.5l-0.4,0l0-0.3l0-0.2c0-0.1,0-0.2-0.1-0.3c0,0-0.1-0.1-0.2-0.1h-0.4
		v0.8h-0.4v-1.9h0.9C66.9,92.1,67,92.1,67.1,92.2 M66.3,92.4V93h0.4c0.1,0,0.2,0,0.2,0c0.1,0,0.1-0.1,0.1-0.2c0-0.1,0-0.2-0.1-0.2
		c0,0-0.1,0-0.2,0H66.3z M65,92.1h0.6v1.9h-0.4v-1.3l0-0.3l-0.3,1.6h-0.4l-0.3-1.6l0,0.3v1.3h-0.4v-1.9h0.6l0.3,1.5L65,92.1z"/>
	<path class="st3" d="M14.1,83.8c1.5-2.8,4.1-5.9,7.2-7c0.6-0.2,1.5-0.3,2.1,0.1c0.5,0.4,0.6,1,0.5,1.6c-0.1,0.7-0.6,1.5-1.4,1.7
		c-0.1,0-0.3,0-0.4-0.1c-0.2-0.2-0.2-0.5-0.1-0.7c0.1-0.5,0.6-1.1,1.2-1.2c0.1-0.1,0.1-0.2,0-0.3c-0.1-0.1-0.2-0.2-0.3-0.2
		c-0.6-0.1-1.1,0.3-1.6,0.7c-1.8,1.5-3.1,3.4-4.2,5.2c-0.9,1.7-1.7,3.4-1.9,5.4c-0.1,1.4,0.4,2.8,1.6,3.5c1.4,0.7,3.2,0.2,4.5-0.2
		l1.3-0.4l2.4-0.7c2.3-0.7,5.2-0.9,7.4,0c1.4,0.6,2.8,1.3,3.7,2.7c0,0,0,0.1,0,0.1c-1.9-0.5-4.4-1-6.4-0.1l-0.1,0
		c-0.6-0.9-1.6-1.4-2.6-1.6c-3.2-0.3-5.9,1.3-8.9,1.7c-1.5,0.2-3.2,0.1-4.3-1.1C12.2,91,12.4,88,13.2,86
		C13.4,85.2,13.7,84.5,14.1,83.8"/>
	<path class="st3" d="M18.6,84.8c0.8-1.5,2-3.3,3.7-3.8c0.5-0.1,0.9-0.1,1.3,0.2c0.7,0.7,0.5,2,0.2,2.8c0,0,0,0.1,0.1,0.1
		c0.7,0,1.2-0.3,1.6-0.8c1-1.1,2.1-2.6,3.7-2.5c0.3,0,0.6,0.2,0.8,0.5c0.4,0.8,0,1.7-0.5,2.4c-0.2,0.2-0.5,0.4-0.8,0.3
		c-0.1,0-0.2-0.2-0.3-0.3c-0.1-0.6,0.2-1.1,0.7-1.4c0.1-0.1,0.5,0,0.4-0.3c-0.1-0.1-0.2-0.1-0.3-0.1c-0.8,0.3-1.3,1.2-1.8,1.9
		c-0.6,0.9-1,1.9-1.4,2.9c-0.1,0.4-0.2,0.9,0,1.2c0.2,0.2,0.4,0.3,0.7,0.2c0.8-0.3,1.5-1,2.1-1.6c1.4-1.7,2.1-3.7,4-5.1
		c0.6-0.4,1.4-0.7,2.1-0.3c0.1,0,0.2,0.2,0.3,0.1c0.1-0.1,0.2-0.4,0.4-0.3c0.5,0,1.1,0,1.6,0l0,0l-0.1,0.4l-2.8,5.9
		c0,0.1,0,0.1,0,0.2c0,0.1,0.2,0.1,0.2,0c0.4-0.2,0.7-0.7,1-1.1c0.3-0.4,0.5-0.7,0.7-1.1c0.1-0.1,0.2-0.3,0.3-0.2
		c0.2,0,0.4,0,0.5,0.1c-0.2,0.5-0.5,0.9-0.7,1.4c-0.8,1.2-1.8,2.6-3.2,3c-0.2,0-0.5,0-0.7-0.1c-0.3-0.2-0.3-0.5-0.4-0.8
		c0,0-0.1,0-0.1,0c-0.6,0.6-1.2,1.1-2.1,1c-0.3-0.1-0.5-0.3-0.6-0.5c-0.2-0.4-0.1-1-0.1-1.5c0-0.1-0.1,0-0.1,0
		c-0.9,0.9-1.9,1.8-3.2,2c-0.6,0.1-1.1-0.1-1.5-0.5c-0.9-1.2-0.2-2.8,0.3-4c0-0.1,0-0.1-0.1-0.1c-0.3,0-0.7,0.1-1,0.1l-0.1,0.1
		c-0.7,1.4-1.6,2.9-2.9,3.9c-0.6,0.4-1.4,0.7-2.1,0.3c-0.7-0.5-0.8-1.3-0.7-2.1C17.9,86.4,18.2,85.6,18.6,84.8 M20.7,84.7
		c-0.4,0.8-0.8,1.6-0.8,2.6c0,0.2,0.1,0.4,0.3,0.4c0.2,0.1,0.4-0.1,0.5-0.2c0.8-0.7,1.3-1.5,1.7-2.4c0-0.1,0.1-0.2,0-0.3
		c-0.5-0.2-0.9-0.5-1.3-0.9l-0.1,0c-0.1,0-0.1,0.1-0.1,0.1L20.7,84.7z M21.9,83.1c0,0.4,0.4,0.8,0.8,0.9c0.1,0,0.2,0.1,0.3,0
		c0.1-0.3,0.2-0.6,0.3-0.9c0.1-0.4,0.1-0.9-0.2-1.2c-0.1-0.1-0.3-0.1-0.4,0C22.2,82.2,21.9,82.6,21.9,83.1 M31.4,86.3
		c-0.1,0.4-0.3,0.7-0.2,1.1c0,0.1,0.1,0.1,0.2,0.2c0.3,0,0.5-0.3,0.7-0.5c0.9-1.3,1.6-2.7,2.2-4.1c0.1-0.3,0.3-0.6,0.3-0.9
		c0-0.1-0.1-0.1-0.1-0.2c-0.1-0.1-0.3,0-0.4,0.1c-1.2,1-1.9,2.3-2.5,3.7L31.4,86.3z"/>
	<path class="st3" d="M37.4,82.7c0.3-0.5,0.5-1.1,0.8-1.6c0.1-0.2,0.4-0.1,0.5-0.2l1.4,0l0.1,0.1c-0.2,0.6-0.5,1.1-0.8,1.6
		c-0.1,0.1-0.2,0.3-0.4,0.3c-0.6,0-1.2,0.1-1.7,0C37.4,82.8,37.4,82.8,37.4,82.7"/>
	<path class="st3" d="M38.8,85.5c0.9-2,2.1-3.9,3.7-5.6c1.6-1.6,3.3-2.9,5.4-3.3c0.6-0.1,1.2,0,1.6,0.3c0.1,0.1,0.2,0.1,0.3,0.1
		c1.5-0.6,3.6-0.8,5.1-0.1c0.9,0.4,1.7,1,2.5,1.5c0.1,0.1,0.1,0.2,0,0.2c-0.5,0.5-0.9,1.1-1.3,1.6c0,0-0.1,0-0.2,0l-2.2-1.5
		c-1-0.7-2.2-1.2-3.6-0.9c-0.1,0.1-0.1,0.3-0.1,0.4c0,1.4-0.4,2.6-1.1,3.7c-0.5,0.8-1.1,1.6-2,1.8c-0.4,0.1-0.8,0-1-0.3
		c-0.7-1-0.1-2.2,0.4-3.1c0.5-1,1.4-1.9,2.3-2.6c0,0,0.1-0.1,0-0.1c-0.1-0.1-0.2,0-0.4,0c-1.5,0.5-2.7,1.8-3.8,3.1
		c-2,2.4-3.4,5.1-4.3,8c-0.3,1.1-0.6,2.8,0.5,3.5c1,0.5,1.9-0.2,2.6-0.8c1.1-1.1,1.8-2.5,2.1-3.9c0-0.4,0.2-1-0.2-1.3
		c-0.4-0.2-0.7,0.1-0.9,0.4c-0.6,0.7-0.8,1.5-0.9,2.4c-0.3,0.2-0.6,0.3-0.8,0.6c-0.5,0.4-1,0.8-1.4,1.3c0,0-0.1,0-0.1-0.1
		c-0.1-1.6,0.5-3,1.4-4.3c0.7-0.8,1.6-1.5,2.7-1.3c0.5,0.1,0.8,0.6,0.9,1.1c0.2,1.5-0.4,2.9-1.1,4.1c-1.1,1.8-2.9,3.5-5.1,3.3
		c-0.9,0-1.7-0.6-2-1.4c-0.9-1.7-0.3-3.8,0.3-5.5L38.8,85.5z M46.4,82.5c0,0.2,0.1,0.4,0.3,0.5c0.4,0.1,0.7-0.2,1-0.4
		c1-1.1,1.6-2.3,1.8-3.7c0-0.2,0.1-0.5-0.1-0.7c-0.1,0-0.2,0-0.2,0.1c-0.7,0.5-1.3,1.1-1.8,1.8C46.9,80.8,46.4,81.6,46.4,82.5"/>
	<path class="st3" d="M47.9,87.3c0.8-1.1,1.9-2.3,3.2-2.3c0.3,0,0.6,0.1,0.9,0.4c0.6,0.9,0.1,2-0.1,2.8c0,0.1,0,0.1,0.1,0.2
		c0.3,0,0.6,0,0.8-0.1l0.1-0.1c1-2.8,2.4-5.4,4.1-7.9c1.1-1.4,2.4-2.9,4-3.6c0.4-0.1,0.9-0.3,1.3,0c0.4,0.3,0.3,0.9,0.2,1.3
		c0,0.4-0.5,0.4-0.8,0.5c0,0,0,0,0,0c0-0.3,0.1-0.5,0.2-0.7c0-0.1,0-0.2,0-0.4c-0.1-0.1-0.2-0.1-0.3,0c-0.5,0.3-1,0.8-1.4,1.2
		c-1.5,1.8-2.7,3.8-3.7,5.8c-0.3,0.7-0.7,1.4-1,2.1c0,0,0,0.1,0,0.1c0.2,0,0.4-0.3,0.6-0.4c1.4-1.2,2.5-2.7,3.5-4.1
		c0.2-0.1,0.5-0.1,0.7-0.1l0,0c0,0.2-0.2,0.4-0.3,0.5c-1.1,1.7-2.4,3.2-4,4.7L55,88.1c-0.2,0.2-0.2,0.5-0.4,0.8
		c-0.2,0.7-0.4,1.5-0.5,2.3c0,0.1,0.1,0.3,0.2,0.3c0.3,0.1,0.5-0.2,0.7-0.4c1.5-1.8,2.2-4,4.1-5.6c0.6-0.5,1.4-0.9,2.2-0.6
		c0.1,0,0.2,0.2,0.4,0.1c0.1-0.1,0.1-0.3,0.3-0.3c0.6,0,1.1,0,1.7,0c0,0,0,0.1,0,0.2l-0.4,0.8l-2.3,4.8c-0.1,0.2-0.2,0.5-0.2,0.7
		c0,0.1,0.1,0.1,0.2,0.1c0.4-0.2,0.8-0.7,1.1-1.1c0.3-0.4,0.5-0.8,0.8-1.3c0.1-0.1,0.4,0,0.5,0c0.1,0.1,0,0.2,0,0.3
		c-0.7,1.4-1.6,3-3.1,3.8c-0.4,0.2-0.8,0.3-1.2,0.1c-0.3-0.2-0.3-0.6-0.4-0.9c0,0-0.1,0-0.1,0c-0.6,0.6-1.3,1.2-2.2,1
		c-0.5-0.3-0.6-0.9-0.7-1.4c0,0,0-0.1,0-0.1l-0.1,0c-0.6,0.7-1.4,1.7-2.4,1.6c-0.4,0-0.7-0.4-0.9-0.8c-0.4-1.1,0-2.4,0.3-3.5
		c0-0.1-0.1-0.1-0.1-0.1l-0.9,0l-0.1,0.2c-0.6,1.3-1.3,2.5-2.4,3.5c-0.6,0.5-1.3,0.9-2.1,0.7c-0.7-0.3-0.8-1-0.8-1.7
		C46.2,90.1,46.9,88.7,47.9,87.3 M48.1,91.1c0,0.2,0.1,0.5,0.4,0.6c0.2,0.1,0.3,0,0.5-0.1c0.8-0.6,1.3-1.5,1.7-2.4
		c0-0.1,0.1-0.2,0-0.3c-0.4-0.2-0.8-0.5-1.2-0.9c0,0-0.1,0-0.2,0c-0.3,0.4-0.5,0.9-0.7,1.3C48.4,89.9,48.1,90.4,48.1,91.1
		 M50.1,87.2c0,0.4,0.4,0.8,0.8,1c0.1,0,0.2,0.1,0.3,0c0.2-0.5,0.5-1.2,0.3-1.8c0-0.1-0.2-0.3-0.3-0.3c-0.2,0-0.3,0-0.4,0.1
		C50.3,86.3,50.1,86.7,50.1,87.2 M57.9,90.9c0,0.2-0.1,0.5,0.1,0.6c0.1,0.1,0.2,0.1,0.3,0.1c0.4-0.2,0.7-0.7,0.9-1
		c0.8-1.3,1.5-2.7,2-4.2c0-0.1,0.1-0.3-0.1-0.4c-0.3-0.2-0.6,0.2-0.9,0.4c-1.1,1.1-1.7,2.5-2.3,3.8L57.9,90.9z"/>
	<path class="st3" d="M59.4,80.4l0.7-1l0.1-0.1c2.2-0.1,3.8-1.4,5.4-2.9c0,0.2-0.1,0.4-0.2,0.6c-1,2.4-3.4,4.4-6,4.5l-0.6,0
		c-0.1,0,0-0.1,0-0.2L59.4,80.4z"/>
</g>
<g>
	<g>
		<path class="st0" d="M132.8,85.8h1.3v5.8h-1.3V91c-0.6,0.5-1.1,0.8-1.8,0.8c-0.8,0-1.5-0.3-2-0.9c-0.5-0.6-0.8-1.3-0.8-2.2
			c0-0.9,0.3-1.6,0.8-2.2c0.5-0.6,1.2-0.9,2-0.9c0.7,0,1.3,0.3,1.8,0.8V85.8z M129.6,88.7c0,0.6,0.1,1,0.4,1.4
			c0.3,0.4,0.7,0.5,1.2,0.5c0.5,0,0.9-0.2,1.2-0.5c0.3-0.4,0.5-0.8,0.5-1.3c0-0.5-0.2-1-0.5-1.3c-0.3-0.3-0.7-0.5-1.2-0.5
			c-0.5,0-0.8,0.2-1.2,0.5C129.8,87.7,129.6,88.1,129.6,88.7z"/>
		<path class="st0" d="M151.9,88.6c0-0.8,0.3-1.6,0.9-2.1c0.6-0.6,1.3-0.9,2.2-0.9c0.9,0,1.6,0.3,2.2,0.9c0.6,0.6,0.9,1.3,0.9,2.2
			c0,0.9-0.3,1.6-0.9,2.2c-0.6,0.6-1.3,0.9-2.2,0.9c-0.9,0-1.6-0.3-2.2-0.9C152.2,90.3,151.9,89.5,151.9,88.6z M153.3,88.7
			c0,0.6,0.2,1,0.5,1.4c0.3,0.3,0.7,0.5,1.3,0.5c0.5,0,0.9-0.2,1.3-0.5c0.3-0.3,0.5-0.8,0.5-1.4c0-0.6-0.2-1-0.5-1.4
			c-0.3-0.3-0.7-0.5-1.3-0.5c-0.5,0-0.9,0.2-1.2,0.5C153.4,87.7,153.3,88.1,153.3,88.7z"/>
		<path class="st0" d="M161.7,85.8h1.3v0.5c0.3-0.3,0.5-0.5,0.7-0.5c0.2-0.1,0.4-0.1,0.7-0.1c0.7,0,1.2,0.3,1.6,0.9
			c0.4-0.6,1-0.9,1.7-0.9c1.3,0,2,0.8,2,2.4v3.6h-1.3v-3.2c0-0.6-0.1-0.9-0.2-1.2c-0.1-0.2-0.4-0.4-0.7-0.4c-0.4,0-0.6,0.1-0.8,0.4
			c-0.2,0.3-0.3,0.7-0.3,1.3v3H165v-3.2c0-1-0.3-1.5-0.9-1.5c-0.4,0-0.7,0.1-0.8,0.4c-0.2,0.3-0.3,0.7-0.3,1.3v3h-1.3V85.8z"/>
		<path class="st0" d="M146.5,89.5c-0.1,0.2-0.2,0.4-0.3,0.5c-0.3,0.3-0.7,0.5-1.3,0.5c-0.5,0-0.9-0.2-1.3-0.5
			c-0.3-0.3-0.5-0.8-0.5-1.4c0-0.5,0.2-1,0.5-1.3c0.3-0.3,0.7-0.5,1.2-0.5c0.5,0,0.9,0.2,1.3,0.5c0.1,0.2,0.3,0.3,0.3,0.6h1.4
			c-0.1-0.5-0.4-1-0.8-1.4c-0.6-0.6-1.3-0.9-2.2-0.9c-0.9,0-1.6,0.3-2.2,0.9c-0.6,0.6-0.9,1.3-0.9,2.1c0,0.9,0.3,1.6,0.9,2.2
			c0.6,0.6,1.3,0.9,2.2,0.9c0.9,0,1.6-0.3,2.2-0.9c0.4-0.4,0.7-0.8,0.8-1.3H146.5z"/>
		<path class="st0" d="M123,82.5v9.1h-1.3v-9.1H123z"/>
		<path class="st0" d="M132.8,85.8h1.3v5.8h-1.3V91c-0.6,0.5-1.1,0.8-1.8,0.8c-0.8,0-1.5-0.3-2-0.9c-0.5-0.6-0.8-1.3-0.8-2.2
			c0-0.9,0.3-1.6,0.8-2.2c0.5-0.6,1.2-0.9,2-0.9c0.7,0,1.3,0.3,1.8,0.8V85.8z M129.6,88.7c0,0.6,0.1,1,0.4,1.4
			c0.3,0.4,0.7,0.5,1.2,0.5c0.5,0,0.9-0.2,1.2-0.5c0.3-0.4,0.5-0.8,0.5-1.3c0-0.5-0.2-1-0.5-1.3c-0.3-0.3-0.7-0.5-1.2-0.5
			c-0.5,0-0.8,0.2-1.2,0.5C129.8,87.7,129.6,88.1,129.6,88.7z"/>
	</g>
	<g>
		<path class="st0" d="M176.1,85.8h1.3v0.5c0.5-0.5,1-0.7,1.6-0.7c0.7,0,1.2,0.2,1.6,0.6c0.3,0.4,0.5,0.9,0.5,1.8v3.6h-1.3v-3.2
			c0-0.6-0.1-1-0.2-1.2c-0.2-0.2-0.4-0.3-0.8-0.3c-0.4,0-0.8,0.1-0.9,0.4c-0.2,0.3-0.3,0.8-0.3,1.5v2.8h-1.3V85.8z"/>
		<path class="st0" d="M181,83.4c0-0.2,0.1-0.4,0.3-0.6c0.2-0.2,0.4-0.3,0.6-0.3c0.2,0,0.4,0.1,0.6,0.3c0.2,0.2,0.3,0.4,0.3,0.6
			c0,0.2-0.1,0.4-0.3,0.6c-0.2,0.2-0.4,0.3-0.6,0.3c-0.2,0-0.4-0.1-0.6-0.3C181.1,83.8,181,83.6,181,83.4z M182.5,85.8v5.8h-1.3
			v-5.8H182.5z"/>
		<path class="st0" d="M172.4,85.8v3.3c0,1,0.4,1.4,1.1,1.4c0.8,0,1.1-0.5,1.1-1.4v-3.3h1.3v3.3c0,0.5-0.1,0.9-0.2,1.2
			c-0.1,0.3-0.3,0.6-0.6,0.8c-0.5,0.4-1,0.6-1.7,0.6c-0.7,0-1.3-0.2-1.7-0.6c-0.3-0.2-0.5-0.5-0.6-0.8c-0.1-0.3-0.2-0.7-0.2-1.2
			v-3.3H172.4z"/>
		<path class="st0" d="M187.2,82.5h1.3v9.1h-1.3V91c-0.6,0.5-1.1,0.8-1.8,0.8c-0.8,0-1.5-0.3-2-0.9c-0.5-0.6-0.8-1.3-0.8-2.2
			c0-0.9,0.3-1.6,0.8-2.2c0.5-0.6,1.2-0.9,2-0.9c0.7,0,1.3,0.3,1.8,0.8V82.5z M183.8,88.7c0,0.6,0.1,1,0.4,1.4
			c0.3,0.4,0.7,0.5,1.2,0.5c0.5,0,0.9-0.2,1.2-0.5c0.3-0.4,0.5-0.8,0.5-1.3c0-0.5-0.2-1-0.5-1.3c-0.3-0.3-0.7-0.5-1.2-0.5
			c-0.5,0-0.8,0.2-1.2,0.5C184,87.7,183.8,88.1,183.8,88.7z"/>
		<path class="st0" d="M198.9,82.5h1.3v9.1h-1.3V91c-0.6,0.5-1.1,0.8-1.8,0.8c-0.8,0-1.5-0.3-2-0.9c-0.5-0.6-0.8-1.3-0.8-2.2
			c0-0.9,0.3-1.6,0.8-2.2c0.5-0.6,1.2-0.9,2-0.9c0.7,0,1.3,0.3,1.8,0.8V82.5z M195.6,88.7c0,0.6,0.1,1,0.4,1.4
			c0.3,0.4,0.7,0.5,1.2,0.5c0.5,0,0.9-0.2,1.2-0.5c0.3-0.4,0.5-0.8,0.5-1.3c0-0.5-0.2-1-0.5-1.3c-0.3-0.3-0.7-0.5-1.2-0.5
			c-0.5,0-0.8,0.2-1.2,0.5C195.7,87.7,195.6,88.1,195.6,88.7z"/>
		<path class="st0" d="M193,85.8h1.3v5.8H193V91c-0.6,0.5-1.1,0.8-1.8,0.8c-0.8,0-1.5-0.3-2-0.9c-0.5-0.6-0.8-1.3-0.8-2.2
			c0-0.9,0.3-1.6,0.8-2.2c0.5-0.6,1.2-0.9,2-0.9c0.7,0,1.3,0.3,1.8,0.8V85.8z M189.7,88.7c0,0.6,0.1,1,0.4,1.4
			c0.3,0.4,0.7,0.5,1.2,0.5c0.5,0,0.9-0.2,1.2-0.5c0.3-0.4,0.5-0.8,0.5-1.3c0-0.5-0.2-1-0.5-1.3c-0.3-0.3-0.7-0.5-1.2-0.5
			c-0.5,0-0.8,0.2-1.2,0.5C189.9,87.7,189.7,88.1,189.7,88.7z"/>
	</g>
</g>
<g>
	<path class="st2" d="M308.2,86c-2.4-2.4-5.3-3.6-8.7-3.6V90c1.3,0,2.4,0.5,3.4,1.4c0.9,0.9,1.4,2.1,1.4,3.4h7.6
		C311.9,91.4,310.6,88.5,308.2,86z M303.6,91.2c-0.1,0.1-0.2,0.1-0.3,0.1c-0.1,0-0.2,0-0.3-0.1c-0.1-0.1-0.1-0.2-0.1-0.3
		c0-0.1,0-0.2,0.1-0.3c0.1-0.1,0.2-0.1,0.3-0.1c0.1,0,0.2,0,0.3,0.1c0.1,0.1,0.1,0.2,0.1,0.3C303.7,91,303.7,91.1,303.6,91.2z
		 M303.7,88.3c-0.1,0.1-0.2,0.1-0.4,0.1c-0.1,0-0.3-0.1-0.4-0.2c-0.1-0.1-0.1-0.2-0.1-0.4c0-0.1,0.1-0.3,0.2-0.4
		c0.1-0.1,0.2-0.1,0.4-0.1c0.1,0,0.3,0.1,0.4,0.2c0.1,0.1,0.1,0.2,0.1,0.4C303.9,88.1,303.8,88.2,303.7,88.3z M304.2,85.1
		c-0.1,0.1-0.3,0.2-0.5,0.2c-0.2,0-0.3-0.1-0.5-0.2c-0.1-0.1-0.2-0.3-0.2-0.5c0-0.2,0.1-0.3,0.2-0.5c0.1-0.1,0.3-0.2,0.5-0.2
		c0.2,0,0.3,0.1,0.5,0.2c0.1,0.1,0.2,0.3,0.2,0.5C304.4,84.8,304.4,85,304.2,85.1z M305.2,89.9c-0.1,0.1-0.2,0.1-0.4,0.1
		c-0.1,0-0.3-0.1-0.4-0.2c-0.1-0.1-0.1-0.2-0.1-0.4c0-0.1,0.1-0.3,0.2-0.4c0.1-0.1,0.2-0.1,0.4-0.1c0.1,0,0.3,0.1,0.4,0.2
		c0.1,0.1,0.1,0.2,0.1,0.4C305.4,89.7,305.3,89.8,305.2,89.9z M305.2,86.9c-0.2,0-0.3-0.1-0.5-0.2c-0.1-0.1-0.2-0.3-0.2-0.5
		c0-0.2,0.1-0.3,0.2-0.5c0.1-0.1,0.3-0.2,0.5-0.2c0.2,0,0.3,0.1,0.5,0.2c0.1,0.1,0.2,0.3,0.2,0.5c0,0.2-0.1,0.3-0.2,0.5
		C305.5,86.8,305.4,86.9,305.2,86.9z M306.6,91.4c-0.1,0.1-0.2,0.1-0.4,0.1c-0.1,0-0.3-0.1-0.4-0.2c-0.1-0.1-0.1-0.2-0.1-0.4
		c0-0.1,0.1-0.3,0.2-0.4c0.1-0.1,0.2-0.1,0.4-0.1c0.1,0,0.3,0.1,0.4,0.2c0.1,0.1,0.1,0.2,0.1,0.4C306.8,91.1,306.7,91.3,306.6,91.4z
		 M307.2,88.3c-0.1,0.1-0.3,0.2-0.5,0.2c-0.2,0-0.3-0.1-0.5-0.2c-0.1-0.1-0.2-0.3-0.2-0.5c0-0.2,0.1-0.3,0.2-0.5
		c0.1-0.1,0.3-0.2,0.5-0.2c0.2,0,0.3,0.1,0.5,0.2c0.1,0.1,0.2,0.3,0.2,0.5C307.4,88,307.3,88.1,307.2,88.3z M308.6,89.8
		c-0.1,0.1-0.3,0.2-0.5,0.2c-0.2,0-0.3-0.1-0.5-0.2c-0.1-0.1-0.2-0.3-0.2-0.5c0-0.2,0.1-0.3,0.2-0.5c0.1-0.1,0.3-0.2,0.5-0.2
		c0.2,0,0.3,0.1,0.5,0.2c0.1,0.1,0.2,0.3,0.2,0.5C308.8,89.5,308.7,89.6,308.6,89.8z M309.6,91.5c-0.2,0-0.3-0.1-0.5-0.2
		c-0.1-0.1-0.2-0.3-0.2-0.5c0-0.2,0.1-0.3,0.2-0.5c0.1-0.1,0.3-0.2,0.5-0.2c0.2,0,0.3,0.1,0.5,0.2c0.1,0.1,0.2,0.3,0.2,0.5
		c0,0.2-0.1,0.3-0.2,0.5C309.9,91.5,309.8,91.5,309.6,91.5z"/>
	<path class="st2" d="M254.8,83.3h2v1.7h-1.8l-0.1,0c-0.1,0-0.1,0-0.1,0c0,0-0.1,0-0.1,0l-0.2,0.1l-0.1,0c0,0,0,0-0.1,0
		c0,0-0.1,0-0.1,0l-0.4,0.3l0,0c-0.5,0.6-0.5,1.3-0.2,2.1c0.4,0.7,1,1,1.9,0.9h1.3l0,0v1.6h-1.6c-0.9,0-1.7-0.3-2.4-1.1
		c-0.6-0.8-0.9-1.7-0.9-2.8c0.2-1.4,0.8-2.4,2.1-2.9l0.3-0.1l0.1,0h0l0.1,0c0,0,0.1,0,0.2,0C254.7,83.3,254.8,83.3,254.8,83.3z"/>
	<path class="st2" d="M264.4,90.2v-5.4H263v-1.6h4.3v1.6h-1.4v5.4H264.4z"/>
	<path class="st2" d="M276.8,90.2l-0.8,0c-0.6,0-1-0.1-1.4-0.2c-0.4-0.1-0.6-0.3-0.9-0.6c-0.2-0.2-0.4-0.6-0.4-0.9
		c-0.1-0.4-0.1-1-0.1-1.8v-3.4h1.5v3.4c0,0.6,0,1,0.1,1.2c0,0.2,0.2,0.5,0.4,0.6c0.2,0.2,0.5,0.3,0.9,0.3l0.7,0V90.2z"/>
	<polygon class="st4" points="259.7,87.5 261.2,87.5 260.4,85.4 	"/>
	<path class="st2" d="M261.7,88.9l-0.1-0.2C261.6,88.8,261.7,88.8,261.7,88.9z"/>
	<path class="st2" d="M261.5,84L261.5,84c-0.1-0.3-0.2-0.5-0.4-0.6c-0.2-0.1-0.4-0.2-0.6-0.2c-0.2,0-0.4,0.1-0.6,0.2
		c-0.2,0.1-0.3,0.3-0.4,0.5l-2.3,6.2h1.6l0.6-1.5h2.4l0,0l0.1,0.2c0.1,0.2,0.2,0.4,0.3,0.5c0.2,0.2,0.5,0.4,0.9,0.6
		c0.2,0.1,0.5,0.2,0.8,0.2L261.5,84z M259.7,87.5l0.8-2.1l0.7,2.1H259.7z"/>
	<path class="st2" d="M270.9,84L270.9,84c-0.1-0.3-0.2-0.5-0.4-0.6c-0.2-0.1-0.4-0.2-0.6-0.2c-0.2,0-0.4,0.1-0.6,0.2
		c-0.2,0.1-0.3,0.3-0.4,0.5l-2.3,6.2h1.6l0.6-1.5h2.4l0,0l0.1,0.2c0.1,0.2,0.2,0.4,0.3,0.5c0.2,0.2,0.5,0.4,0.9,0.6
		c0.2,0.1,0.5,0.2,0.8,0.2L270.9,84z M269.1,87.5l0.8-2.1l0.7,2.1H269.1z"/>
	<path class="st2" d="M289.9,84L289.9,84c-0.1-0.3-0.2-0.5-0.4-0.6c-0.2-0.1-0.4-0.2-0.6-0.2c-0.2,0-0.4,0.1-0.6,0.2
		c-0.2,0.1-0.3,0.3-0.4,0.5l-2.3,6.2h1.6l0.6-1.5h2.4l0,0l0.1,0.2c0.1,0.2,0.2,0.4,0.3,0.5c0.2,0.2,0.5,0.4,0.9,0.6
		c0.2,0.1,0.5,0.2,0.8,0.2L289.9,84z M288.1,87.5l0.8-2.1l0.7,2.1H288.1z"/>
	<path class="st2" d="M277.2,90.2v-7h1.6v7H277.2z"/>
	<path class="st2" d="M280.8,85.8C280.8,85.8,280.8,85.7,280.8,85.8v-0.1V85.8z"/>
	<path class="st2" d="M283.7,83.3v4.6l-2-3.3l-0.8-1.3c-0.1,0-0.1,0-0.1,0.1c-0.4,0.1-0.6,0.4-0.9,0.6c-0.2,0.3-0.4,0.6-0.4,0.9
		c-0.1,0.4-0.1,1-0.1,1.9v3.4v0h1.5v0v-3.5c0-0.4,0-0.7,0-0.9v-0.1l0,0l2.8,4.5h1.6v-6.9H283.7z"/>
	<path class="st2" d="M294.6,83.3h0.3c0,0,0.1,0,0.1,0h2.3c0,0,0,0.1,0,0.1v1.4l0,0l-2.6,0c-0.1,0-0.2,0-0.2,0l-0.1,0l-0.1,0
		c0,0,0,0,0,0c-0.1,0-0.2,0.1-0.3,0.2c0,0.1,0,0.2,0,0.3c0,0,0.1,0,0.1,0.1l0.1,0l0,0l0.1,0l0,0l0.4,0.1l0,0l0,0l0.1,0c0,0,0,0,0,0
		c0,0,0,0,0,0c0,0,0.1,0,0.1,0l0,0l0,0l0.1,0c0,0,0.1,0,0.1,0l0,0l0.1,0l0,0c0.1,0,0.1,0,0.1,0l0,0c0,0,0,0,0,0l0.1,0l0.1,0l0.3,0.1
		l0,0l0.2,0.1c0,0,0.1,0.1,0.2,0.1l0,0l0.1,0l0.1,0l0.1,0.1l0,0c0,0,0.1,0.1,0.1,0.1l0,0l0,0l0.1,0.1c0,0,0,0.1,0.1,0.1
		c0,0,0,0,0,0.1c0,0,0,0.1,0.1,0.1l0,0c0,0,0,0.1,0.1,0.1l0,0l0,0.1c0,0,0,0.1,0,0.1l0.1,0.1v0c0.2,0.7,0.1,1.3-0.4,1.9l-0.3,0.3
		l0,0l0,0l-0.2,0.1c0,0-0.1,0-0.1,0.1c0,0,0,0-0.1,0l-0.4,0.1l-0.1,0c0,0,0,0,0,0l-0.1,0l0,0l0,0h0l0,0l0,0l-0.1,0l0,0l-0.1,0l0,0
		c0,0-0.1,0-0.1,0h-0.1l0,0l-2.5,0l-0.1,0v-1.6h2.8c0.3-0.1,0.4-0.2,0.5-0.5c0-0.2,0-0.3-0.2-0.4c0,0-0.1,0-0.1-0.1l0,0l-0.1,0l0,0
		h0l0,0h0c0,0,0,0-0.1,0c0,0-0.1,0-0.1,0l0,0l-0.1,0h0l-0.2,0c0,0,0,0-0.1,0c0,0-0.1,0-0.1,0l-0.1,0c0,0-0.1,0-0.1,0c0,0,0,0,0,0
		c0,0-0.1,0-0.1,0l-0.1,0h0c0,0,0,0-0.1,0l0,0l0,0l0,0l-0.1,0l0,0l-0.1,0l-0.1,0c0,0-0.1,0-0.1,0l-0.1,0l-0.2-0.1c0,0-0.1,0-0.1-0.1
		l0,0l-0.1,0l-0.1,0l0,0l0,0l0,0l0,0c0,0-0.1,0-0.1-0.1l-0.2-0.2l0,0l0,0c0,0-0.1-0.1-0.1-0.1l0,0l0,0l0-0.1
		c-0.2-0.6-0.2-1.2,0.1-1.8C293,83.7,293.7,83.3,294.6,83.3z"/>
	<g>
		<path class="st2" d="M288.9,91.2v2.3l-1-1.7l-0.4-0.7c0,0-0.1,0-0.1,0c-0.2,0.1-0.3,0.2-0.4,0.3c-0.1,0.1-0.2,0.3-0.2,0.5
			c0,0.2-0.1,0.5-0.1,1v1.8v0h0.7v0v-1.8c0-0.2,0-0.3,0-0.5v-0.1l0,0l1.4,2.3h0.8v-3.5H288.9z"/>
		<path class="st2" d="M282.8,91.2h1V92h-0.9l-0.1,0c0,0-0.1,0-0.1,0c0,0,0,0-0.1,0l-0.1,0l0,0c0,0,0,0,0,0c0,0,0,0,0,0l-0.2,0.2
			l0,0c-0.2,0.3-0.3,0.7-0.1,1.1c0.2,0.4,0.5,0.5,0.9,0.5h0.6l0,0v0.8H283c-0.5,0-0.9-0.2-1.2-0.5c-0.3-0.4-0.5-0.9-0.4-1.4
			c0.1-0.7,0.4-1.2,1-1.5l0.1,0l0,0h0l0.1,0C282.7,91.2,282.7,91.2,282.8,91.2C282.8,91.2,282.8,91.2,282.8,91.2z"/>
		<path class="st2" d="M286.3,94.7H285c-0.6,0-0.8-0.2-0.8-0.6v-2.3c0-0.4,0.3-0.6,0.8-0.6h1.3v0.6h-1.4v0.9h1.1v0.6h-1.1v0.9h1.4
			V94.7z"/>
		<path class="st2" d="M290.7,94.7V92H290v-0.8h2.2V92h-0.7v2.7H290.7z"/>
		<path class="st2" d="M294.6,94.7h-1.3c-0.6,0-0.8-0.2-0.8-0.6v-2.3c0-0.4,0.3-0.6,0.8-0.6h1.3v0.6h-1.4v0.9h1.1v0.6h-1.1v0.9h1.4
			V94.7z"/>
		<path class="st2" d="M295,91.2h1.7c0,0,0.1,0,0.1,0l0,0l0.1,0l0.1,0l0,0l0.1,0.1l0,0c0.2,0.2,0.3,0.5,0.3,0.8
			c0,0.4-0.1,0.6-0.4,0.8c0,0,0,0-0.1,0.1l0,0c0,0.1,0,0.1,0,0.2l0,0.1l0.7,1.2l-0.9,0l-0.7-1.2l0-0.1l0,0l0-0.2l0-0.1
			c0,0,0-0.1,0.1-0.1l0,0l0.6-0.7l0,0c0,0,0-0.1,0-0.1c0-0.1-0.1-0.1-0.1-0.2h-0.8l0,2.7H295l0-0.2V91.2z"/>
	</g>
</g>
</svg>
