<?xml version="1.0" encoding="utf-8"?>
<!-- Generator: Adobe Illustrator 24.3.0, SVG Export Plug-In . SVG Version: 6.00 Build 0)  -->
<svg version="1.1" id="Layer_1" xmlns="http://www.w3.org/2000/svg" xmlns:xlink="http://www.w3.org/1999/xlink" x="0px" y="0px"
	 viewBox="0 0 329.2 123.9" style="enable-background:new 0 0 329.2 123.9;" xml:space="preserve">
<style type="text/css">
	.st0{fill:#8D8D8D;}
	.st1{fill:#A0A0A0;}
	.st2{fill:#AAAAAA;}
	.st3{fill:#767676;}
	.st4{fill:#C8C8C8;}
	.st5{fill:#1D1D1D;}
	.st6{fill-rule:evenodd;clip-rule:evenodd;fill:#898989;}
	.st7{fill-rule:evenodd;clip-rule:evenodd;fill:#AAAAAA;}
	.st8{fill-rule:evenodd;clip-rule:evenodd;fill:#575756;}
	.st9{fill-rule:evenodd;clip-rule:evenodd;fill:#244132;}
	.st10{opacity:0.5;fill:url(#XMLID_2_);}
	.st11{fill:none;stroke:#B1B1B1;stroke-width:0.4683;stroke-miterlimit:10;}
	.st12{fill:#595A59;}
	.st13{fill:#575756;}
	.st14{fill:#FFFFFF;}
</style>
<g>
	<polygon class="st0" points="49.4,39 50.8,37.5 55,40.8 53.1,43.7 	"/>
	<polygon class="st0" points="32.2,38.3 33.3,40 29.4,42.6 28.1,41.2 	"/>
	<polygon class="st1" points="51,36.7 51.9,34.8 56.3,36 55.4,38.7 	"/>
	<polygon class="st2" points="48.8,40.2 47,41.2 49.2,45.1 51.4,43.8 	"/>
	<polygon class="st2" points="39.5,41.9 37.5,41.2 34.8,45.4 38.7,45.4 	"/>
	<polygon class="st0" points="40.4,41.9 42.5,41.9 43.5,47.1 39.9,47.5 	"/>
	<polygon class="st3" points="48.8,40.2 47,41.2 49.2,45.1 51.4,43.8 	"/>
	<polygon class="st2" points="33.5,21 35.3,20.1 32.2,16.1 30.6,17.8 	"/>
	<polygon class="st4" points="31,24.1 30,25.9 26.6,24.8 27.7,22.3 	"/>
	<polygon class="st1" points="34.6,40.1 36.1,41.5 34.3,44.6 32.1,42.9 	"/>
	<polygon class="st0" points="32.9,21.7 31.5,23.2 27.7,21.1 29.9,18.2 	"/>
	<polygon class="st0" points="53.3,31.1 53.3,29 58.7,28.6 59.3,31.9 	"/>
	<polygon class="st4" points="53.4,28.6 52.7,26.6 56.8,24.5 58,27 	"/>
	<polygon class="st2" points="53.6,32 52.9,33.9 57.1,35.2 57.9,32.8 	"/>
	<polygon class="st3" points="29.4,29.1 30.1,27.1 25.1,26.4 25.2,28.7 	"/>
	<polygon class="st4" points="29.5,32.8 30,34.8 26.2,36 24.8,34 	"/>
	<polygon class="st0" points="29.4,30 29.4,32.1 24.2,33.1 23.8,29.5 	"/>
	<polygon class="st0" points="41.9,18.4 39.9,18.9 38.9,14.7 41.8,14.2 	"/>
	<polygon class="st1" points="38.4,19 36.4,19.7 34.3,16.5 36.8,14.5 	"/>
	<polygon class="st2" points="43.2,18.3 45.1,19 46.7,14.8 44.4,13.7 	"/>
	<polygon class="st2" points="31.8,37.3 30.7,35.6 26.8,37.9 28,40.2 	"/>
	<polygon class="st2" points="39.5,41.9 37.5,41.2 34.8,45.4 38.7,45.4 	"/>
	<polygon class="st4" points="43.2,41.8 45.2,41.3 47,44.6 44.2,45.9 	"/>
	<polygon class="st0" points="40.4,41.9 42.5,41.9 43.5,47.1 39.9,47.5 	"/>
	<polygon class="st3" points="46.5,19 48.2,20.2 50.7,17.3 48.5,15.9 	"/>
	<polygon class="st4" points="50.5,22.6 49.1,21.1 51.2,17.8 54.1,19.4 	"/>
	<polygon class="st0" points="51.8,25.7 50.9,23.9 54,21.2 56.1,24.2 	"/>
	<path class="st5" d="M34.7,26.2C34.7,26.2,34.7,26.2,34.7,26.2C34.8,26.1,34.8,26.1,34.7,26.2C34.8,26.1,34.8,26.1,34.7,26.2
		c0.1-0.1,0.1-0.1,0.1-0.1h0.6c0,0,0.1,0,0.1,0c0,0,0,0,0,0l0.1,0.1l1.3,3.3c0,0,0,0.1,0,0.1c0,0,0,0-0.1,0h-0.7c0,0-0.1,0-0.1,0
		c0,0,0,0,0-0.1c0-0.1-0.1-0.2-0.1-0.2c0-0.1-0.1-0.2-0.1-0.2h-1.3c0,0.1-0.1,0.2-0.1,0.2c0,0.1-0.1,0.2-0.1,0.2
		c0,0.1-0.1,0.1-0.1,0.1h-0.7c0,0-0.1,0-0.1,0c0,0,0,0,0-0.1L34.7,26.2z M35.2,27.2c0,0.1-0.1,0.2-0.1,0.3c0,0.1-0.1,0.2-0.1,0.3
		c0,0.1-0.1,0.2-0.1,0.3c0,0.1-0.1,0.2-0.1,0.3h0.7L35.2,27.2z"/>
	<path class="st5" d="M37.3,25.6c0-0.1,0-0.1,0-0.1c0,0,0.1,0,0.1,0H38c0.1,0,0.1,0,0.1,0c0,0,0.1,0.1,0.1,0.1V26c0,0,0,0,0,0.1
		c0,0,0,0,0,0.1c0,0,0,0-0.1,0.1c0,0,0,0-0.1,0h-0.6c-0.1,0-0.2-0.1-0.2-0.2V25.6z M37.3,26.8c0-0.1,0-0.1,0-0.1
		c0,0,0.1-0.1,0.1-0.1H38c0,0,0,0,0.1,0c0,0,0,0,0.1,0c0,0,0,0,0,0.1c0,0,0,0,0,0.1v2.7c0,0.1,0,0.1-0.1,0.1c0,0-0.1,0-0.1,0h-0.6
		c-0.1,0-0.2-0.1-0.2-0.2V26.8z"/>
	<path class="st5" d="M38.8,26.6C38.8,26.6,38.8,26.6,38.8,26.6c0.1,0,0.1,0,0.1,0h0.4c0,0,0.1,0,0.1,0c0,0,0,0,0.1,0c0,0,0,0,0,0.1
		c0,0,0,0,0,0.1l0.1,0.3c0,0,0.1-0.1,0.1-0.2c0-0.1,0.1-0.1,0.2-0.2c0.1-0.1,0.2-0.1,0.3-0.1c0.1,0,0.2-0.1,0.3-0.1
		c0.2,0,0.4,0,0.5,0.1c0.2,0.1,0.3,0.2,0.4,0.3c0.1,0.1,0.2,0.3,0.2,0.4c0.1,0.2,0.1,0.3,0.1,0.5v1.6c0,0.1,0,0.1,0,0.1
		c0,0-0.1,0-0.1,0h-0.6c-0.1,0-0.1,0-0.1,0c0,0,0-0.1,0-0.1v-1.6c0-0.1,0-0.1,0-0.2c0-0.1-0.1-0.1-0.1-0.2c-0.1,0-0.1-0.1-0.2-0.1
		c-0.1,0-0.1,0-0.2,0c-0.1,0-0.1,0-0.2,0c-0.1,0-0.1,0.1-0.2,0.1c-0.1,0-0.1,0.1-0.1,0.2c0,0.1-0.1,0.1-0.1,0.2v1.6c0,0,0,0.1,0,0.1
		c0,0,0,0,0,0.1c0,0,0,0-0.1,0c0,0,0,0-0.1,0h-0.5c-0.1,0-0.1,0-0.1-0.1c0,0,0-0.1,0-0.1v-2.7C38.7,26.8,38.7,26.7,38.8,26.6
		C38.7,26.7,38.8,26.7,38.8,26.6L38.8,26.6z"/>
	<path class="st5" d="M45.3,29.5C45.3,29.5,45.3,29.5,45.3,29.5c0,0.1,0,0.1-0.1,0.1c0,0,0,0-0.1,0c0,0,0,0-0.1,0h-0.5
		c0,0-0.1,0-0.1,0c0,0,0,0-0.1,0s0,0,0-0.1c0,0,0,0,0-0.1l-0.1-0.2c0,0-0.1,0.1-0.1,0.1c-0.1,0-0.1,0.1-0.2,0.1
		c-0.1,0-0.1,0.1-0.2,0.1c-0.1,0-0.1,0-0.2,0c-0.1,0-0.3,0-0.4-0.1c-0.1,0-0.3-0.1-0.4-0.2c-0.1-0.1-0.2-0.2-0.3-0.2
		c-0.1-0.1-0.2-0.2-0.2-0.3c-0.1-0.1-0.1-0.2-0.2-0.4c0-0.1-0.1-0.3-0.1-0.4c0-0.2,0-0.4,0.1-0.6c0.1-0.2,0.2-0.4,0.3-0.5
		c0.1-0.1,0.3-0.3,0.5-0.3c0.2-0.1,0.4-0.1,0.6-0.1c0.1,0,0.2,0,0.3,0c0.1,0,0.2,0.1,0.2,0.1c0.1,0,0.1,0.1,0.2,0.2
		c0.1,0.1,0.1,0.1,0.1,0.2l0.1-0.3c0,0,0-0.1,0-0.1c0,0,0,0,0-0.1c0,0,0,0,0,0c0,0,0,0,0.1,0h0.4c0,0,0,0,0.1,0c0,0,0,0,0.1,0
		c0,0,0,0,0,0.1c0,0,0,0,0,0.1V29.5z M42.9,28.1c0,0.1,0,0.2,0,0.3c0,0.1,0.1,0.2,0.1,0.2c0.1,0.1,0.1,0.1,0.2,0.2
		c0.1,0,0.2,0.1,0.3,0.1c0.1,0,0.2,0,0.3-0.1c0.1,0,0.2-0.1,0.2-0.2c0.1-0.1,0.1-0.1,0.2-0.2c0-0.1,0.1-0.2,0.1-0.3
		c0-0.1,0-0.2-0.1-0.3c0-0.1-0.1-0.2-0.2-0.2c-0.1-0.1-0.1-0.1-0.2-0.2c-0.1,0-0.2-0.1-0.3-0.1c-0.1,0-0.2,0-0.3,0.1
		c-0.1,0-0.2,0.1-0.2,0.2c-0.1,0.1-0.1,0.2-0.1,0.2C42.9,27.9,42.9,28,42.9,28.1"/>
	<path class="st5" d="M33.7,30.3C33.7,30.3,33.7,30.3,33.7,30.3c0-0.1,0.1-0.1,0.1-0.1h2.3c0,0,0.1,0,0.1,0c0,0,0,0,0,0.1v0.6
		c0,0,0,0.1,0,0.1c0,0,0,0-0.1,0h-1.5v0.8h1.1c0,0,0.1,0,0.1,0c0,0,0,0,0,0.1v0.6c0,0,0,0.1,0,0.1c0,0,0,0-0.1,0h-1.1v1.1
		c0,0.1,0,0.1-0.1,0.1h-0.7c-0.1,0-0.1,0-0.1-0.1V30.3z"/>
	<path class="st5" d="M36.4,32.3c0-0.1,0-0.3,0.1-0.4c0-0.1,0.1-0.3,0.2-0.4c0.1-0.1,0.2-0.2,0.2-0.3c0.1-0.1,0.2-0.2,0.3-0.2
		c0.1-0.1,0.2-0.1,0.4-0.2c0.1,0,0.3-0.1,0.4-0.1c0.2,0,0.4,0,0.6,0.1c0.2,0.1,0.4,0.2,0.5,0.3c0.1,0.1,0.3,0.3,0.3,0.5
		c0.1,0.2,0.1,0.4,0.1,0.6c0,0.1,0,0.3-0.1,0.4c0,0.1-0.1,0.3-0.2,0.4c-0.1,0.1-0.2,0.2-0.2,0.3c-0.1,0.1-0.2,0.2-0.3,0.2
		c-0.1,0.1-0.2,0.1-0.4,0.2c-0.1,0-0.3,0.1-0.4,0.1c-0.1,0-0.3,0-0.4-0.1c-0.1,0-0.3-0.1-0.4-0.2c-0.1-0.1-0.2-0.2-0.3-0.2
		c-0.1-0.1-0.2-0.2-0.2-0.3c-0.1-0.1-0.1-0.2-0.2-0.4C36.5,32.6,36.4,32.4,36.4,32.3 M37.3,32.3c0,0.1,0,0.2,0,0.3
		c0,0.1,0.1,0.2,0.1,0.2c0.1,0.1,0.1,0.1,0.2,0.2c0.1,0,0.2,0.1,0.3,0.1c0.1,0,0.2,0,0.3-0.1c0.1,0,0.2-0.1,0.2-0.2
		c0.1-0.1,0.1-0.1,0.1-0.2c0-0.1,0-0.2,0-0.3c0-0.1,0-0.2,0-0.3c0-0.1-0.1-0.2-0.1-0.2c-0.1-0.1-0.1-0.1-0.2-0.2
		c-0.1,0-0.2-0.1-0.3-0.1c-0.1,0-0.2,0-0.3,0.1c-0.1,0-0.2,0.1-0.2,0.2c-0.1,0.1-0.1,0.2-0.1,0.2C37.3,32.1,37.3,32.2,37.3,32.3"/>
	<path class="st5" d="M40,32.3c0-0.1,0-0.3,0.1-0.4c0-0.1,0.1-0.3,0.2-0.4c0.1-0.1,0.2-0.2,0.2-0.3c0.1-0.1,0.2-0.2,0.3-0.2
		c0.1-0.1,0.2-0.1,0.4-0.2c0.1,0,0.3-0.1,0.4-0.1c0.2,0,0.4,0,0.6,0.1c0.2,0.1,0.4,0.2,0.5,0.3c0.1,0.1,0.3,0.3,0.3,0.5
		c0.1,0.2,0.1,0.4,0.1,0.6c0,0.1,0,0.3-0.1,0.4c0,0.1-0.1,0.3-0.2,0.4c-0.1,0.1-0.2,0.2-0.2,0.3c-0.1,0.1-0.2,0.2-0.3,0.2
		c-0.1,0.1-0.2,0.1-0.4,0.2c-0.1,0-0.3,0.1-0.4,0.1c-0.1,0-0.3,0-0.4-0.1c-0.1,0-0.3-0.1-0.4-0.2c-0.1-0.1-0.2-0.2-0.3-0.2
		c-0.1-0.1-0.2-0.2-0.2-0.3c-0.1-0.1-0.1-0.2-0.2-0.4C40,32.6,40,32.4,40,32.3 M40.8,32.3c0,0.1,0,0.2,0,0.3c0,0.1,0.1,0.2,0.1,0.2
		c0.1,0.1,0.1,0.1,0.2,0.2c0.1,0,0.2,0.1,0.3,0.1c0.1,0,0.2,0,0.3-0.1c0.1,0,0.2-0.1,0.2-0.2c0.1-0.1,0.1-0.1,0.1-0.2
		c0-0.1,0-0.2,0-0.3c0-0.1,0-0.2,0-0.3c0-0.1-0.1-0.2-0.1-0.2c-0.1-0.1-0.1-0.1-0.2-0.2c-0.1,0-0.2-0.1-0.3-0.1
		c-0.1,0-0.2,0-0.3,0.1c-0.1,0-0.2,0.1-0.2,0.2c-0.1,0.1-0.1,0.2-0.1,0.2C40.9,32.1,40.8,32.2,40.8,32.3"/>
	<path class="st5" d="M45.7,33.4c0,0-0.1,0.1-0.1,0.1c-0.1,0-0.1,0.1-0.2,0.1c-0.1,0-0.1,0.1-0.2,0.1c-0.1,0-0.2,0-0.2,0
		c-0.2,0-0.4,0-0.6-0.1c-0.2-0.1-0.3-0.2-0.5-0.3c-0.1-0.1-0.2-0.3-0.3-0.5c-0.1-0.2-0.1-0.4-0.1-0.6c0-0.2,0-0.4,0.1-0.6
		c0.1-0.2,0.2-0.4,0.3-0.5c0.1-0.1,0.3-0.3,0.5-0.3c0.2-0.1,0.4-0.1,0.6-0.1c0.1,0,0.2,0,0.2,0c0.1,0,0.1,0.1,0.2,0.1
		c0.1,0,0.1,0.1,0.2,0.1c0.1,0.1,0.1,0.1,0.1,0.1V30c0-0.1,0-0.1,0-0.1c0,0,0.1-0.1,0.1-0.1h0.5c0,0,0,0,0.1,0c0,0,0,0,0.1,0
		c0,0,0,0,0,0.1c0,0,0,0,0,0.1v3.6c0,0.1-0.1,0.2-0.2,0.2H46c0,0-0.1,0-0.1,0c0,0,0,0,0,0c0,0,0,0,0-0.1c0,0,0-0.1,0-0.1L45.7,33.4z
		 M44.3,32.3c0,0.1,0,0.2,0,0.3c0,0.1,0.1,0.2,0.1,0.2c0.1,0.1,0.1,0.1,0.2,0.2c0.1,0,0.2,0.1,0.3,0.1c0.1,0,0.2,0,0.3-0.1
		c0.1,0,0.2-0.1,0.2-0.2c0.1-0.1,0.1-0.1,0.2-0.2c0-0.1,0.1-0.2,0.1-0.3v0c0-0.1,0-0.2-0.1-0.3c0-0.1-0.1-0.2-0.2-0.2
		c-0.1-0.1-0.1-0.1-0.2-0.2c-0.1,0-0.2-0.1-0.3-0.1c-0.1,0-0.2,0-0.3,0.1c-0.1,0-0.2,0.1-0.2,0.2c-0.1,0.1-0.1,0.2-0.1,0.2
		C44.4,32.1,44.3,32.2,44.3,32.3"/>
	<path class="st5" d="M47.7,32.9c0,0,0.1,0.1,0.1,0.1C47.9,33,48,33,48,33c0,0,0.1,0,0.1,0c0,0,0.1,0,0.1,0c0,0,0.1,0,0.1,0
		c0,0,0.1,0,0.1,0c0,0,0.1,0,0.1-0.1c0,0,0-0.1,0-0.1c0,0,0-0.1,0-0.1c0,0,0,0-0.1-0.1c0,0-0.1,0-0.1,0c0,0-0.1,0-0.2-0.1
		c-0.2-0.1-0.4-0.1-0.5-0.2c-0.1-0.1-0.2-0.2-0.3-0.2c-0.1-0.1-0.1-0.2-0.2-0.3c0-0.1,0-0.2,0-0.3c0-0.1,0-0.3,0.1-0.4
		c0.1-0.1,0.1-0.2,0.2-0.3c0.1-0.1,0.2-0.1,0.4-0.2c0.1,0,0.3-0.1,0.5-0.1c0.1,0,0.2,0,0.3,0c0.1,0,0.2,0,0.3,0.1
		c0.1,0,0.2,0.1,0.2,0.1c0.1,0.1,0.2,0.1,0.2,0.2c0,0,0,0.1,0,0.1c0,0,0,0.1-0.1,0.1c-0.1,0.1-0.1,0.1-0.2,0.2
		c-0.1,0-0.1,0.1-0.2,0.2c0,0,0,0-0.1,0c0,0,0,0-0.1,0c0,0,0,0-0.1,0c0,0,0,0,0,0c-0.1-0.1-0.1-0.1-0.2-0.1c-0.1,0-0.1,0-0.2,0
		c-0.1,0-0.1,0-0.2,0c0,0-0.1,0.1-0.1,0.1c0,0,0,0.1,0,0.1c0,0,0.1,0,0.1,0.1c0,0,0.1,0,0.1,0c0,0,0.1,0,0.1,0
		c0.1,0,0.3,0.1,0.4,0.2c0.1,0.1,0.2,0.1,0.3,0.2c0.1,0.1,0.2,0.2,0.2,0.3c0,0.1,0.1,0.2,0.1,0.4c0,0.2,0,0.3-0.1,0.4
		c-0.1,0.1-0.2,0.2-0.3,0.3c-0.1,0.1-0.2,0.2-0.4,0.2c-0.2,0-0.3,0.1-0.5,0.1c-0.1,0-0.2,0-0.3,0c-0.1,0-0.2,0-0.3-0.1
		c-0.1,0-0.2-0.1-0.3-0.2c-0.1-0.1-0.2-0.1-0.2-0.2c0,0,0,0,0-0.1c0,0,0,0,0-0.1c0,0,0,0,0-0.1c0,0,0,0,0-0.1l0.3-0.3
		c0,0,0.1,0,0.1,0C47.6,32.8,47.7,32.8,47.7,32.9"/>
</g>
<g id="XMLID_109_">
	<g id="XMLID_1140_">
		<path id="XMLID_1164_" class="st6" d="M279.4,24.7c0,0.4,0.3,0,0.4-0.1c0.1,0,0-0.8,0-1.5c-0.1-0.5-0.1-1.1-0.1-1.6
			c0-0.3-0.1-0.7-0.1-1.1c0.1-0.6,0.8-0.4,0.9-0.1c0.2,0.4,0.2,0.8,0.2,1.2c0,0.4,0.1,0.6,0.1,1c0.1,0.7,0.1,1.4,0,2.2
			c0.2,0.1,0.3-0.3,0.4-0.5c0.1-0.3,0.2-0.7,0.2-1c0.1-0.4,0.1-0.8,0.1-1.2c0-0.3,0-0.7,0.1-1c0.1-0.6,0.9-0.5,0.9,0.2l-0.1,1
			c-0.1,0.5,0,0.9-0.1,1.3c0,0.4-0.1,0.9-0.2,1.3c0,0.4,0,1.1,0,1.2c0.1,0.3,0.1,0.7,0.3,0.9c0.2-0.1,0.3-0.2,0.4-0.6
			c0.3-0.8,0.9-1.3,1.8-1.4c0.4,0,0.4,0.4,0.3,0.5c-0.2,0.1-0.4,0.3-0.5,0.4c-0.5,0.8-0.8,1.9-1,2.5c-0.2,0.7-1,1.5-1.2,1.9
			c-0.4,0.6-0.4,1.2-0.4,1.2s0,5.6,0,6.1h-3.3v-6l-0.4-1c-0.5-1-0.6-1.9-0.7-2.8c-0.1-0.3-0.3-1-0.3-1.1c-0.1-0.2-0.6-0.7-0.7-1
			c-0.3-0.6-0.8-1.2-0.9-1.7c-0.2-0.4,0.2-0.8,0.6-0.4c0.2,0.2,0.8,1.1,1.2,1.6c0.2,0.2,0.3,0.4,0.5,0.6c0.3,0.2,0.6-0.2,0.5-0.5
			c-0.1-0.4-0.3-1-0.3-1.3c-0.1-0.5-0.2-1-0.3-1.6c-0.1-0.3-0.2-0.6-0.2-0.9c-0.1-0.7,0.7-0.8,0.9-0.2c0.1,0.3,0.2,0.7,0.3,1.1
			c0,0.5,0.3,1,0.4,1.6C279.4,24.1,279.4,24.4,279.4,24.7z"/>
		<path id="XMLID_1163_" class="st7" d="M289,18.8c0,0.4,0.3,0,0.4-0.1c0.1,0,0-0.8,0-1.5c-0.1-0.5-0.1-1.1-0.1-1.6
			c0-0.3-0.1-0.7-0.1-1.1c0.1-0.6,0.8-0.4,0.9-0.1c0.2,0.4,0.2,0.8,0.2,1.2c0,0.4,0.1,0.6,0.1,1c0.1,0.7,0.1,1.4,0,2.2
			c0.2,0.1,0.3-0.3,0.4-0.5c0.1-0.3,0.2-0.7,0.2-1c0.1-0.4,0.1-0.8,0.1-1.2c0-0.3,0-0.7,0.1-1c0.1-0.6,0.9-0.5,0.9,0.2l-0.1,1
			c-0.1,0.5,0,0.9-0.1,1.3c0,0.4-0.1,0.9-0.2,1.3c0,0.4,0,1.1,0,1.2c0.1,0.3,0.1,0.7,0.3,0.9c0.2-0.1,0.3-0.2,0.4-0.6
			c0.3-0.8,0.9-1.3,1.8-1.4c0.4,0,0.4,0.4,0.3,0.5c-0.2,0.1-0.4,0.3-0.5,0.4c-0.5,0.8-0.8,1.9-1,2.5c-0.2,0.7-1,1.5-1.2,1.9
			c-0.4,0.6-0.4,1.2-0.4,1.2s0,11.5,0,12h-3.3V25.6l-0.4-1c-0.5-1-0.6-1.9-0.7-2.8c-0.1-0.3-0.3-1-0.3-1.1c-0.1-0.2-0.6-0.7-0.7-1
			c-0.3-0.6-0.8-1.2-0.9-1.7c-0.2-0.4,0.2-0.8,0.6-0.4c0.2,0.2,0.8,1.1,1.2,1.6c0.2,0.2,0.3,0.4,0.5,0.6c0.3,0.2,0.6-0.2,0.5-0.5
			c-0.1-0.4-0.3-1-0.3-1.3c-0.1-0.5-0.2-1-0.3-1.6c-0.1-0.3-0.2-0.6-0.2-0.9c-0.1-0.7,0.7-0.8,0.9-0.2c0.1,0.3,0.2,0.7,0.3,1.1
			c0,0.5,0.3,1,0.4,1.6C289,18.2,289,18.5,289,18.8z"/>
		<path id="XMLID_1162_" class="st8" d="M284.7,26.5c0,0.4,0.3,0,0.4-0.1c0.1,0,0-0.8,0-1.5c-0.1-0.5-0.1-1.1-0.1-1.6
			c0-0.3-0.1-0.7-0.1-1.1c0.1-0.6,0.8-0.4,0.9-0.1c0.2,0.4,0.2,0.8,0.2,1.2c0,0.4,0.1,0.6,0.1,1c0.1,0.7,0.1,1.4,0,2.2
			c0.2,0.1,0.3-0.3,0.4-0.5c0.1-0.3,0.2-0.7,0.2-1c0.1-0.4,0.1-0.8,0.1-1.2c0-0.3,0-0.7,0.1-1c0.1-0.6,0.9-0.5,0.9,0.2l-0.1,1
			c-0.1,0.5,0,0.9-0.1,1.3c0,0.4-0.1,0.9-0.2,1.3c0,0.4,0,1.1,0,1.2c0.1,0.3,0.1,0.7,0.3,0.9c0.2-0.1,0.3-0.2,0.4-0.6
			c0.3-0.8,0.9-1.3,1.8-1.4c0.4,0,0.4,0.4,0.3,0.5c-0.2,0.1-0.4,0.3-0.5,0.4c-0.5,0.8-0.8,1.9-1,2.5c-0.2,0.7-1,1.5-1.2,1.9
			c-0.4,0.6-0.4,1.2-0.4,1.2s0,3.8,0,4.3h-3.3v-4.2l-0.4-1c-0.5-1-0.6-1.9-0.7-2.8c-0.1-0.3-0.3-1-0.3-1.1c-0.1-0.2-0.6-0.7-0.7-1
			c-0.3-0.6-0.8-1.2-0.9-1.7c-0.2-0.4,0.2-0.8,0.6-0.4c0.2,0.2,0.8,1.1,1.2,1.6c0.2,0.2,0.3,0.4,0.5,0.6c0.3,0.2,0.6-0.2,0.5-0.5
			c-0.1-0.4-0.3-1-0.3-1.3c-0.1-0.5-0.2-1-0.3-1.6c-0.1-0.3-0.2-0.6-0.2-0.9c-0.1-0.7,0.7-0.8,0.9-0.2c0.1,0.3,0.2,0.7,0.3,1.1
			c0,0.5,0.3,1,0.4,1.6C284.6,25.9,284.6,26.2,284.7,26.5z"/>
		<path id="XMLID_1161_" class="st7" d="M275.1,20.4c0,0.4,0.3,0,0.4-0.1c0.1,0,0-0.8,0-1.5c-0.1-0.5-0.1-1.1-0.1-1.6
			c0-0.3-0.1-0.7-0.1-1.1c0.1-0.6,0.8-0.4,0.9-0.1c0.2,0.4,0.2,0.8,0.2,1.2c0,0.4,0.1,0.6,0.1,1c0.1,0.7,0.1,1.4,0,2.2
			c0.2,0.1,0.3-0.3,0.4-0.5c0.1-0.3,0.2-0.7,0.2-1c0.1-0.4,0.1-0.8,0.1-1.2c0-0.3,0-0.7,0.1-1c0.1-0.6,0.9-0.5,0.9,0.2l-0.1,1
			c-0.1,0.5,0,0.9-0.1,1.3c0,0.4-0.1,0.9-0.2,1.3c0,0.4,0,1.1,0,1.2c0.1,0.3,0.1,0.7,0.3,0.9c0.2-0.1,0.3-0.2,0.4-0.6
			c0.3-0.8,0.9-1.3,1.8-1.4c0.4,0,0.4,0.4,0.3,0.5c-0.2,0.1-0.4,0.3-0.5,0.4c-0.5,0.8-0.8,1.9-1,2.5c-0.2,0.7-1,1.5-1.2,1.9
			c-0.4,0.6-0.4,1.2-0.4,1.2s0,9.9,0,10.4h-3.3V27.2l-0.4-1c-0.5-1-0.6-1.9-0.7-2.8c-0.1-0.3-0.3-1-0.3-1.1c-0.1-0.2-0.6-0.7-0.7-1
			c-0.3-0.6-0.8-1.2-0.9-1.7c-0.2-0.4,0.2-0.8,0.6-0.4c0.2,0.2,0.8,1.1,1.2,1.6c0.2,0.2,0.3,0.4,0.5,0.6c0.3,0.2,0.6-0.2,0.5-0.5
			c-0.1-0.4-0.3-1-0.3-1.3c-0.1-0.5-0.2-1-0.3-1.6c-0.1-0.3-0.2-0.6-0.2-0.9c-0.1-0.7,0.7-0.8,0.9-0.2c0.1,0.3,0.2,0.7,0.3,1.1
			c0,0.5,0.3,1,0.4,1.6C275,19.8,275,20.1,275.1,20.4z"/>
		<path id="XMLID_1160_" class="st8" d="M270.7,28.8c0,0.4,0.3,0,0.4-0.1c0.1,0,0-0.8,0-1.5c-0.1-0.5-0.1-1.1-0.1-1.6
			c0-0.3-0.1-0.7-0.1-1.1c0.1-0.6,0.8-0.4,0.9-0.1c0.2,0.4,0.2,0.8,0.2,1.2c0,0.4,0.1,0.6,0.1,1c0.1,0.7,0.1,1.4,0,2.2
			c0.2,0.1,0.3-0.3,0.4-0.5c0.1-0.3,0.2-0.7,0.2-1c0.1-0.4,0.1-0.8,0.1-1.2c0-0.3,0-0.7,0.1-1c0.1-0.6,0.9-0.5,0.9,0.2l-0.1,1
			c-0.1,0.5,0,0.9-0.1,1.3c0,0.4-0.1,0.9-0.2,1.3c0,0.4,0,1.1,0,1.2c0.1,0.3,0.1,0.7,0.3,0.9c0.2-0.1,0.3-0.2,0.4-0.6
			c0.3-0.8,0.9-1.3,1.8-1.4c0.4,0,0.4,0.4,0.3,0.5c-0.2,0.1-0.4,0.3-0.5,0.4c-0.5,0.8-0.8,1.9-1,2.5c-0.2,0.7-1,1.5-1.2,1.9
			c-0.4,0.6-0.4,1.2-0.4,1.2s0,1.5,0,2h-3.3v-1.9l-0.4-1c-0.5-1-0.6-1.9-0.7-2.8c-0.1-0.3-0.3-1-0.3-1.1c-0.1-0.2-0.6-0.7-0.7-1
			c-0.3-0.6-0.8-1.2-0.9-1.7c-0.2-0.4,0.2-0.8,0.6-0.4c0.2,0.2,0.8,1.1,1.2,1.6c0.2,0.2,0.3,0.4,0.5,0.6c0.3,0.2,0.6-0.2,0.5-0.5
			c-0.1-0.4-0.3-1-0.3-1.3c-0.1-0.5-0.2-1-0.3-1.6c-0.1-0.3-0.2-0.6-0.2-0.9c-0.1-0.7,0.7-0.8,0.9-0.2c0.1,0.3,0.2,0.7,0.3,1.1
			c0,0.5,0.3,1,0.4,1.6C270.6,28.2,270.6,28.5,270.7,28.8z"/>
		<path id="XMLID_1159_" class="st8" d="M293.4,28.4c0,0.4,0.3,0,0.4-0.1c0.1,0,0-0.8,0-1.5c-0.1-0.5-0.1-1.1-0.1-1.6
			c0-0.3-0.1-0.7-0.1-1.1c0.1-0.6,0.8-0.4,0.9-0.1c0.2,0.4,0.2,0.8,0.2,1.2c0,0.4,0.1,0.6,0.1,1c0.1,0.7,0.1,1.4,0,2.2
			c0.2,0.1,0.3-0.3,0.4-0.5c0.1-0.3,0.2-0.7,0.2-1c0.1-0.4,0.1-0.8,0.1-1.2c0-0.3,0-0.7,0.1-1c0.1-0.6,0.9-0.5,0.9,0.2l-0.1,1
			c-0.1,0.5,0,0.9-0.1,1.3c0,0.4-0.1,0.9-0.2,1.3c0,0.4,0,1.1,0,1.2c0.1,0.3,0.1,0.7,0.3,0.9c0.2-0.1,0.3-0.2,0.4-0.6
			c0.3-0.8,0.9-1.3,1.8-1.4c0.4,0,0.4,0.4,0.3,0.5c-0.2,0.1-0.4,0.3-0.5,0.4c-0.5,0.8-0.8,1.9-1,2.5c-0.2,0.7-1,1.5-1.2,1.9
			c-0.4,0.6-0.4,1.2-0.4,1.2s0,1.9,0,2.4h-3.3v-2.2l-0.4-1c-0.5-1-0.6-1.9-0.7-2.8c-0.1-0.3-0.3-1-0.3-1.1c-0.1-0.2-0.6-0.7-0.7-1
			c-0.3-0.6-0.8-1.2-0.9-1.7c-0.2-0.4,0.2-0.8,0.6-0.4c0.2,0.2,0.8,1.1,1.2,1.6c0.2,0.2,0.3,0.4,0.5,0.6c0.3,0.2,0.6-0.2,0.5-0.5
			c-0.1-0.4-0.3-1-0.3-1.3c-0.1-0.5-0.2-1-0.3-1.6c-0.1-0.3-0.2-0.6-0.2-0.9c-0.1-0.7,0.7-0.8,0.9-0.2c0.1,0.3,0.2,0.7,0.3,1.1
			c0,0.5,0.3,1,0.4,1.6C293.4,27.9,293.4,28.2,293.4,28.4z"/>
		<path id="XMLID_1158_" class="st7" d="M299.1,24.8c0,0.4,0.3,0,0.4-0.1c0.1,0,0-0.8,0-1.5c-0.1-0.5-0.1-1.1-0.1-1.6
			c0-0.3-0.1-0.7-0.1-1.1c0.1-0.6,0.8-0.4,0.9-0.1c0.2,0.4,0.2,0.8,0.2,1.2c0,0.4,0.1,0.6,0.1,1c0.1,0.7,0.1,1.4,0,2.2
			c0.2,0.1,0.3-0.3,0.4-0.5c0.1-0.3,0.2-0.7,0.2-1c0.1-0.4,0.1-0.8,0.1-1.2c0-0.3,0-0.7,0.1-1c0.1-0.6,0.9-0.5,0.9,0.2l-0.1,1
			c-0.1,0.5,0,0.9-0.1,1.3c0,0.4-0.1,0.9-0.2,1.3c0,0.4,0,1.1,0,1.2c0.1,0.3,0.1,0.7,0.3,0.9c0.2-0.1,0.3-0.2,0.4-0.6
			c0.3-0.8,0.9-1.3,1.8-1.4c0.4,0,0.4,0.4,0.3,0.5c-0.2,0.1-0.4,0.3-0.5,0.4c-0.5,0.8-0.8,1.9-1,2.5c-0.2,0.7-1,1.5-1.2,1.9
			c-0.4,0.6-0.4,1.2-0.4,1.2s0,5.5,0,6h-3.3v-5.9l-0.4-1c-0.5-1-0.6-1.9-0.7-2.8c-0.1-0.3-0.3-1-0.3-1.1c-0.1-0.2-0.6-0.7-0.7-1
			c-0.3-0.6-0.8-1.2-0.9-1.7c-0.2-0.4,0.2-0.8,0.6-0.4c0.2,0.2,0.8,1.1,1.2,1.6c0.2,0.2,0.3,0.4,0.5,0.6c0.3,0.2,0.6-0.2,0.5-0.5
			c-0.1-0.4-0.3-1-0.3-1.3c-0.1-0.5-0.2-1-0.3-1.6c-0.1-0.3-0.2-0.6-0.2-0.9c-0.1-0.7,0.7-0.8,0.9-0.2c0.1,0.3,0.2,0.7,0.3,1.1
			c0,0.5,0.3,1,0.4,1.6C299.1,24.2,299.1,24.5,299.1,24.8z"/>
		<g id="XMLID_1155_">
			<path id="XMLID_1157_" class="st8" d="M299.3,29.1c0.2-0.1,0.1-0.5-0.3-0.5c-0.5,0.1-1,0.3-1.3,0.6c0.1,0.4,0.2,0.9,0.5,1.4
				l0,0.1c0.2-0.4,0.4-0.8,0.6-1.2C298.9,29.4,299.1,29.2,299.3,29.1z"/>
			<path id="XMLID_1156_" class="st8" d="M296.7,26C296.7,26,296.7,25.9,296.7,26l0.1-1.1c0-0.7-0.8-0.8-0.9-0.2c0,0,0,0,0,0
				c0.2,0.3,0.5,0.7,0.6,1C296.5,25.8,296.6,25.9,296.7,26z"/>
		</g>
		<g id="XMLID_1152_">
			<path id="XMLID_1154_" class="st8" d="M287.9,24l0.1-1c0-0.4-0.3-0.6-0.5-0.6c0.1,0.6,0.2,1.2,0.4,1.8
				C287.9,24.1,287.9,24.1,287.9,24z"/>
			<path id="XMLID_1153_" class="st8" d="M290,27.6c0.1-0.1,0.4-0.3,0.5-0.4c0.2-0.1,0.1-0.5-0.3-0.5c-0.9,0.1-1.4,0.6-1.8,1.3v3
				c0.2-0.3,0.4-0.6,0.5-0.9C289.2,29.5,289.5,28.4,290,27.6z"/>
		</g>
		<path id="XMLID_1151_" class="st9" d="M289.8,27.7c0,0.1,0,0.1,0.1,0.2c0-0.1,0.1-0.2,0.1-0.3c0.1-0.1,0.3-0.2,0.4-0.3
			c0,0,0,0,0,0C290,26.9,289.6,27.3,289.8,27.7z"/>
		<g id="XMLID_1147_">
			<path id="XMLID_1150_" class="st6" d="M278.2,25.8C278.2,25.8,278.2,25.8,278.2,25.8C278.2,25.7,278.1,25.7,278.2,25.8
				c-0.2-0.3-0.4-0.5-0.6-0.7c-0.4-0.5-1-1.4-1.2-1.6c-0.4-0.4-0.7,0-0.6,0.4c0.1,0.6,0.6,1.1,0.9,1.7c0.1,0.2,0.6,0.7,0.7,1
				c0.1,0,0.2,0.7,0.3,1.1c0,0,0,0.1,0,0.1c0-0.5,0-0.7,0-0.7S277.8,26.4,278.2,25.8z"/>
			<path id="XMLID_1149_" class="st6" d="M277.8,21.4c0,0.3,0.1,0.6,0.2,0.9c0.1,0.5,0.2,1,0.3,1.6c0,0.3,0.2,0.9,0.3,1.3
				c0.3-0.4,0.6-0.8,0.8-1.2c0-0.1,0-0.1,0-0.2c-0.1-0.5-0.4-1.1-0.4-1.6c0-0.1-0.1-0.2-0.1-0.4c-0.1,0.3-0.2,0.5-0.4,0.6
				c-0.2-0.1-0.3-0.5-0.3-0.9c0-0.1,0-0.4-0.1-0.8C277.9,20.9,277.8,21.1,277.8,21.4z"/>
			<path id="XMLID_1148_" class="st6" d="M279.8,21.5c0,0.4,0,0.8,0,1.2c0.2-0.4,0.4-0.9,0.6-1.2c0.1-0.1,0.2-0.2,0.4-0.3
				c0-0.2-0.1-0.4-0.1-0.6c0,0,0,0,0,0c-0.4,0-0.7,0.1-0.9,0.3C279.7,21.1,279.7,21.3,279.8,21.5z"/>
		</g>
		<g id="XMLID_1144_">
			<path id="XMLID_1146_" class="st8" d="M273.6,24.6c0.1,0.4,0.2,0.8,0.4,1.2l0-0.7C274,24.9,273.8,24.7,273.6,24.6z"/>
			<path id="XMLID_1145_" class="st8" d="M276,29.8c0.1-0.1,0.4-0.3,0.5-0.4c0.2-0.1,0.1-0.5-0.3-0.5c-0.9,0.1-1.4,0.6-1.8,1.3v3
				c0.2-0.3,0.4-0.6,0.5-0.9C275.2,31.7,275.6,30.6,276,29.8z"/>
		</g>
		<g id="XMLID_1141_">
			<path id="XMLID_1143_" class="st6" d="M285.1,24.9c0,0.2,0,0.4,0,0.6c0.1-0.1,0.2-0.1,0.2-0.2C285.4,25.2,285.4,24.9,285.1,24.9
				C285.1,24.9,285.1,24.9,285.1,24.9z"/>
			<path id="XMLID_1142_" class="st8" d="M284.6,26.1c0-0.1-0.1-0.3-0.1-0.4c0-0.2-0.1-0.4-0.2-0.6c-0.4,0.2-0.6,0.4-0.9,0.7
				c0,0,0,0,0,0c0,0.3,0.2,0.9,0.3,1.3c0.1,0.3-0.3,0.7-0.5,0.5c-0.1-0.2-0.3-0.4-0.5-0.6c-0.4-0.5-1-1.4-1.2-1.6
				c-0.4-0.4-0.7,0-0.6,0.4c0.1,0.6,0.6,1.1,0.9,1.7c0.1,0.2,0.6,0.7,0.7,1c0.1,0,0.2,0.7,0.3,1c0.3-0.4,0.6-0.8,0.8-1.2
				C283.9,27.7,284.2,26.8,284.6,26.1z"/>
		</g>
	</g>
	<g id="XMLID_136_">
		<path id="XMLID_1137_" d="M268.9,42.5c0-1,0.7-1.7,1.7-1.7c1,0,1.7,0.7,1.7,1.7c0,1-0.7,1.7-1.7,1.7
			C269.6,44.3,268.9,43.6,268.9,42.5z M271.5,42.5c0-0.6-0.4-1.1-1-1.1c-0.6,0-0.9,0.4-0.9,1c0,0.6,0.4,1,1,1
			C271.1,43.6,271.5,43.2,271.5,42.5z"/>
		<path id="XMLID_1134_" d="M275.6,43.9c0,0-0.1,0.3-0.4,0.3c-0.2,0-0.3-0.1-0.5-0.3L274,43h-0.3v0.8c0,0.2-0.1,0.3-0.3,0.3h-0.1
			c-0.2,0-0.3-0.1-0.3-0.4v-2.5c0-0.3,0.1-0.4,0.4-0.4h1c0.9,0,1.3,0.4,1.3,1c0,0.5-0.3,0.9-0.9,1L275.6,43.9z M274.3,42.5
			c0.4,0,0.6-0.2,0.6-0.5c0-0.3-0.2-0.5-0.6-0.5h-0.6v1H274.3z"/>
		<path id="XMLID_1132_" d="M276.4,43.9v-2.7c0-0.2,0.1-0.3,0.3-0.3h0.1c0.2,0,0.3,0.1,0.3,0.3v2.7c0,0.2-0.1,0.3-0.3,0.3h-0.1
			C276.5,44.2,276.4,44.1,276.4,43.9z"/>
		<path id="XMLID_1130_" d="M279.5,44.2c-1,0-1.6-0.7-1.6-1.7c0-1,0.7-1.7,1.7-1.7c0.8,0,1.3,0.4,1.3,0.7c0,0.3-0.4,0.4-0.4,0.4
			c-0.2-0.3-0.5-0.4-0.8-0.4c-0.6,0-1,0.4-1,1.1c0,0.7,0.4,1.1,1,1.1c0.5,0,0.8-0.3,0.8-0.6V43h-0.6c-0.2,0-0.4-0.1-0.4-0.3v0
			c0-0.2,0.1-0.3,0.4-0.3h0.9c0.2,0,0.3,0.1,0.3,0.4v1.4c0,0-0.1,0.1-0.2,0.1c-0.2,0-0.4-0.1-0.4-0.4
			C280.3,44.1,280,44.2,279.5,44.2z"/>
		<path id="XMLID_1128_" d="M282,43.9v-2.7c0-0.2,0.1-0.3,0.3-0.3h0.1c0.2,0,0.3,0.1,0.3,0.3v2.7c0,0.2-0.1,0.3-0.3,0.3h-0.1
			C282.1,44.2,282,44.1,282,43.9z"/>
		<path id="XMLID_1126_" d="M283.6,43.9v-2.6c0-0.2,0.1-0.4,0.3-0.4h0.1c0.2,0,0.3,0.1,0.4,0.2l1.4,2v-1.8c0-0.2,0.1-0.3,0.3-0.3
			h0.1c0.2,0,0.3,0.1,0.3,0.3v2.6c0,0.2-0.1,0.4-0.3,0.4h-0.1c-0.2,0-0.3-0.1-0.4-0.2l-1.5-2v1.9c0,0.2-0.1,0.3-0.3,0.3h-0.1
			C283.7,44.2,283.6,44.1,283.6,43.9z"/>
		<path id="XMLID_1123_" d="M288.2,43.3l-0.2,0.5c-0.1,0.3-0.3,0.3-0.4,0.3c-0.2,0-0.4-0.2-0.4-0.2l1.1-2.9c0-0.1,0.1-0.2,0.5-0.2
			s0.4,0.1,0.5,0.2l1.1,2.9c0,0.1-0.2,0.2-0.4,0.2c-0.2,0-0.3-0.1-0.4-0.4l-0.2-0.5H288.2z M289.2,42.8c0,0-0.4-1.2-0.4-1.2
			l-0.5,1.2H289.2z"/>
		<path id="XMLID_144_" d="M293.7,43.9c0,0-0.1,0.3-0.4,0.3c-0.2,0-0.3-0.1-0.5-0.3L292,43h-0.3v0.8c0,0.2-0.1,0.3-0.3,0.3h-0.1
			c-0.2,0-0.3-0.1-0.3-0.4v-2.5c0-0.3,0.1-0.4,0.4-0.4h1c0.9,0,1.3,0.4,1.3,1c0,0.5-0.3,0.9-0.9,1L293.7,43.9z M292.3,42.5
			c0.4,0,0.6-0.2,0.6-0.5c0-0.3-0.2-0.5-0.6-0.5h-0.6v1H292.3z"/>
		<path id="XMLID_142_" d="M294.4,43.9v-2.7c0-0.2,0.1-0.3,0.3-0.3h0.1c0.2,0,0.3,0.1,0.3,0.3v2.7c0,0.2-0.1,0.3-0.3,0.3h-0.1
			C294.5,44.2,294.4,44.1,294.4,43.9z"/>
		<path id="XMLID_139_" d="M296,42.5c0-1,0.7-1.7,1.7-1.7c1,0,1.7,0.7,1.7,1.7c0,1-0.7,1.7-1.7,1.7S296,43.6,296,42.5z M298.6,42.5
			c0-0.6-0.4-1.1-1-1.1s-0.9,0.4-0.9,1c0,0.6,0.4,1,1,1C298.2,43.6,298.6,43.2,298.6,42.5z"/>
		<path id="XMLID_137_" d="M299.9,43.6c0-0.2,0.3-0.4,0.3-0.4c0.2,0.2,0.6,0.5,1,0.5c0.4,0,0.6-0.1,0.6-0.4c0-0.3-0.3-0.3-0.7-0.4
			c-0.5-0.1-1.1-0.3-1.1-1c0-0.6,0.5-1,1.3-1c0.8,0,1.2,0.3,1.2,0.6c0,0.2-0.3,0.4-0.3,0.4c-0.2-0.2-0.5-0.4-0.9-0.4
			c-0.4,0-0.6,0.2-0.6,0.4c0,0.3,0.3,0.3,0.7,0.4c0.6,0.1,1.1,0.4,1.1,1c0,0.7-0.5,1-1.3,1C300.3,44.3,299.9,43.9,299.9,43.6z"/>
	</g>
	<g id="XMLID_113_">
		<path id="XMLID_134_" d="M269.1,40v-1.2c0,0,0-0.1,0.1-0.1h0.8c0,0,0,0,0,0v0c0,0,0,0,0,0h-0.7v0.6h0.5c0,0,0,0,0,0v0c0,0,0,0,0,0
			h-0.5V40C269.2,40,269.2,40,269.1,40L269.1,40C269.1,40,269.1,40,269.1,40z"/>
		<path id="XMLID_132_" d="M272.9,39.5v-0.8c0,0,0,0,0,0h0c0,0,0,0,0,0v0.8c0,0.3,0.1,0.5,0.4,0.5c0.3,0,0.4-0.2,0.4-0.5v-0.8
			c0,0,0,0,0,0h0c0,0,0,0,0,0v0.8c0,0.4-0.2,0.5-0.5,0.5C273.1,40.1,272.9,39.9,272.9,39.5z"/>
		<path id="XMLID_130_" d="M277.1,40v-1.2c0,0,0-0.1,0.1-0.1h0c0,0,0.1,0,0.1,0.1l0.8,1.1v-1.1c0,0,0,0,0,0h0c0,0,0,0,0,0V40
			c0,0,0,0.1-0.1,0.1h0c0,0,0,0-0.1,0l-0.8-1.2L277.1,40C277.2,40,277.1,40,277.1,40L277.1,40C277.1,40,277.1,40,277.1,40z"/>
		<path id="XMLID_127_" d="M281.3,40v-1.2c0,0,0-0.1,0.1-0.1h0.3c0.5,0,0.7,0.3,0.7,0.7c0,0.4-0.3,0.7-0.7,0.7L281.3,40
			C281.3,40,281.3,40,281.3,40z M281.6,40c0.4,0,0.6-0.2,0.6-0.6c0-0.4-0.2-0.6-0.6-0.6h-0.3V40H281.6z"/>
		<path id="XMLID_124_" d="M285.8,38.7C285.8,38.7,285.8,38.7,285.8,38.7c0.1,0,0.1,0,0.2,0l0.5,1.3c0,0-0.1,0.1-0.1,0l-0.2-0.4
			h-0.6l-0.2,0.4c0,0.1-0.1,0-0.1,0L285.8,38.7z M286.1,39.5l-0.3-0.7l-0.3,0.7H286.1z"/>
		<path id="XMLID_122_" d="M289.4,39.4c0-0.4,0.3-0.7,0.7-0.7c0.2,0,0.4,0.1,0.4,0.2c0,0,0.1,0.1,0.1,0.1c0,0.1-0.1,0.1-0.1,0.1
			c-0.1-0.1-0.2-0.3-0.4-0.3c-0.3,0-0.6,0.3-0.6,0.6c0,0.3,0.2,0.6,0.6,0.6c0.2,0,0.4-0.1,0.5-0.3c0,0,0.1,0,0.1,0.1
			c0,0,0,0.1-0.1,0.2c-0.1,0.1-0.2,0.2-0.4,0.2C289.7,40.1,289.4,39.8,289.4,39.4z"/>
		<path id="XMLID_120_" d="M293.6,40v-1.3c0,0,0,0,0,0h0c0,0,0,0,0,0V40C293.7,40,293.7,40,293.6,40L293.6,40
			C293.7,40,293.6,40,293.6,40z"/>
		<path id="XMLID_116_" d="M296.8,39.4c0-0.4,0.3-0.7,0.7-0.7c0.4,0,0.7,0.3,0.7,0.7c0,0.4-0.3,0.7-0.7,0.7
			C297.1,40.1,296.8,39.8,296.8,39.4z M298,39.4c0-0.3-0.2-0.6-0.6-0.6c-0.3,0-0.6,0.3-0.6,0.6c0,0.3,0.2,0.6,0.6,0.6
			C297.8,40,298,39.7,298,39.4z M297.6,38.3C297.7,38.3,297.7,38.3,297.6,38.3c0.1,0,0.1,0,0.1,0C297.8,38.3,297.8,38.4,297.6,38.3
			c-0.1,0.2-0.2,0.2-0.2,0.2C297.4,38.5,297.5,38.4,297.6,38.3z"/>
		<path id="XMLID_114_" d="M301.2,40v-1.2c0,0,0-0.1,0.1-0.1h0c0,0,0.1,0,0.1,0.1l0.8,1.1v-1.1c0,0,0,0,0,0h0c0,0,0,0,0,0V40
			c0,0,0,0.1-0.1,0.1h0c0,0,0,0-0.1,0l-0.8-1.2L301.2,40C301.3,40,301.3,40,301.2,40L301.2,40C301.2,40,301.2,40,301.2,40z"/>
	</g>
	<g id="banner_2_">
		
			<radialGradient id="XMLID_2_" cx="159.5245" cy="-1259.4362" r="8.1248" gradientTransform="matrix(3.0154 0 0 0.1181 -195.2258 186.2312)" gradientUnits="userSpaceOnUse">
			<stop  offset="0" style="stop-color:#545454"/>
			<stop  offset="1" style="stop-color:#FFFFFF"/>
		</radialGradient>
		<path id="XMLID_112_" class="st10" d="M310.3,37.5c-0.4-0.5-11.2-0.9-24.5-0.9c-13.3,0-24.1,0.4-24.5,0.9H310.3z"/>
	</g>
	<line id="XMLID_111_" class="st11" x1="264.6" y1="37.5" x2="307.1" y2="37.5"/>
</g>
<g>
	<g>
		<g>
			<path class="st12" d="M143,27.4c0,9,9.9,12.1,11.1,12.3c1.1,0.2,1.8-0.2,1.8-0.9c0-3.6-10.7-9.3-10.7-14.7c0-1.2,0.4-2,1-2.5
				C144.3,22.5,143,24.3,143,27.4z"/>
		</g>
		<g>
			<path class="st12" d="M146,33.9c0-9,9.9-12.1,11.1-12.3c1.1-0.2,1.8,0.2,1.8,0.9c0,3.6-10.7,9.3-10.7,14.7c0,1.2,0.4,2,1,2.5
				C147.4,38.8,146,37.2,146,33.9z"/>
		</g>
	</g>
	<g>
		<g>
			<path class="st12" d="M143,27.4c0,9,9.9,12.1,11.1,12.3c1.1,0.2,1.8-0.2,1.8-0.9c0-3.6-10.7-9.3-10.7-14.7c0-1.2,0.4-2,1-2.5
				C144.3,22.5,143,24.3,143,27.4z"/>
		</g>
		<g>
			<path class="st12" d="M146,33.9c0-9,9.9-12.1,11.1-12.3c1.1-0.2,1.8,0.2,1.8,0.9c0,3.6-10.7,9.3-10.7,14.7c0,1.2,0.4,2,1,2.5
				C147.4,38.8,146,37.2,146,33.9z"/>
		</g>
	</g>
	<g>
		<g>
			<path class="st12" d="M161.7,33.2v-3.6h2v-1.7h-2v-2.3h-2.1v2.4h-1.2v1.7h1.2v3.8c0,3,2.4,3.3,3.7,3.3c0.4,0,0.7-0.1,0.7-0.1
				v-1.9c0,0-0.2,0.1-0.4,0.1C162.8,34.9,161.7,34.6,161.7,33.2z"/>
			<path class="st12" d="M180.6,32.2l1.4-2.1c0.2-0.3,0.3-0.3,0.7-0.3h0.6v-1.8h-1.5c-0.8,0-1,0.2-1.4,0.8l-0.9,1.4
				c-0.1,0.2-0.3,0.6-0.3,0.6h-0.1c0,0-0.2-0.3-0.3-0.6l-0.9-1.4c-0.4-0.7-0.7-0.8-1.4-0.8h-1.5v1.8h0.7c0.3,0,0.5,0.1,0.7,0.3
				l1.4,2.1l-1.6,2.6h-1.7c-0.3,0-0.4-0.2-0.4-0.4v-3.4c0-2.3-1.1-3.3-3.1-3.3c-1.7,0-2.7,1.1-3.1,1.8h-0.1c0,0,0.1-0.2,0.1-0.4
				v-0.3c0-0.6-0.4-1-1.2-1h-2v1.8h0.7c0.3,0,0.4,0.1,0.4,0.4v6.5h2.1v-4c0-0.4,0.1-0.8,0.2-1.2c0.3-1,1.2-1.8,2.4-1.8
				c1.1,0,1.4,0.7,1.4,1.8v4c0,0.8,0.3,1.2,1.2,1.2h2h1.4h1l1.5-2.5c0.1-0.2,0.3-0.5,0.3-0.5h0.1c0,0,0.1,0.3,0.3,0.5l1.5,2.5h2.4
				L180.6,32.2z"/>
		</g>
		<g>
			<path class="st12" d="M159.7,38C159.7,37.9,159.7,37.9,159.7,38l-0.2-0.1v-0.3h0.3c0.2,0,0.2,0.1,0.2,0.2v1.6
				c0,0.1,0,0.1,0.1,0.1h0.1v0.3h-0.3c-0.2,0-0.2-0.1-0.2-0.2V38z"/>
			<path class="st12" d="M161.1,38.2c0.4,0,0.7,0.3,0.7,0.7c0,0.1,0,0.1,0,0.1h-1.1c0,0.3,0.3,0.5,0.5,0.5c0.3,0,0.5-0.2,0.5-0.2
				l0.1,0.2c0,0-0.2,0.2-0.6,0.2c-0.5,0-0.8-0.3-0.8-0.8C160.3,38.5,160.7,38.2,161.1,38.2z M161.4,38.8c0-0.3-0.2-0.4-0.3-0.4
				c-0.2,0-0.4,0.2-0.5,0.4H161.4z"/>
			<path class="st12" d="M162.9,38.8L162.9,38.8L162.9,38.8c0.1-0.3-0.1-0.3-0.3-0.3c-0.1,0-0.3,0-0.3,0.1v0.1H162v-0.2
				c0-0.3,0.3-0.3,0.5-0.3c0.5,0,0.6,0.3,0.6,0.6v0.7c0,0.1,0,0.1,0.1,0.1h0.1v0.3h-0.3c-0.2,0-0.2-0.1-0.2-0.2c0-0.1,0-0.1,0-0.1
				l0,0c0,0-0.1,0.3-0.5,0.3c-0.3,0-0.5-0.2-0.5-0.5C162,38.8,162.6,38.8,162.9,38.8z M162.5,39.6c0.3,0,0.4-0.3,0.4-0.5V39h-0.1
				c-0.2,0-0.6,0-0.6,0.3C162.2,39.4,162.4,39.6,162.5,39.6z"/>
			<path class="st12" d="M164.3,38.2c0.3,0,0.5,0.3,0.5,0.3l0,0c0,0,0-0.1,0-0.1V38c0-0.1,0-0.1-0.1-0.1h-0.1v-0.3h0.3
				c0.2,0,0.2,0.1,0.2,0.2v1.6c0,0.1,0,0.1,0.1,0.1h0.1v0.3H165c-0.2,0-0.2-0.1-0.2-0.2c0-0.1,0-0.1,0-0.1l0,0c0,0-0.1,0.3-0.5,0.3
				c-0.4,0-0.7-0.3-0.7-0.8C163.6,38.5,163.9,38.2,164.3,38.2z M164.8,39c0-0.3-0.2-0.6-0.4-0.6c-0.3,0-0.5,0.2-0.5,0.6
				c0,0.3,0.2,0.6,0.4,0.6C164.5,39.5,164.8,39.4,164.8,39z"/>
			<path class="st12" d="M165.5,38.5C165.5,38.5,165.5,38.5,165.5,38.5l-0.2-0.1v-0.3h0.3c0.2,0,0.2,0.1,0.2,0.2v1
				c0,0.1,0,0.1,0.1,0.1h0.1v0.3h-0.3c-0.2,0-0.2-0.1-0.2-0.2C165.5,39.6,165.5,38.5,165.5,38.5z M165.5,37.6h0.3v0.3h-0.3V37.6z"/>
			<path class="st12" d="M166.3,38.5C166.3,38.5,166.3,38.5,166.3,38.5l-0.2-0.1v-0.3h0.3c0.2,0,0.2,0.1,0.2,0.2v0.1
				c0,0.1,0,0.1,0,0.1l0,0c0.1-0.2,0.3-0.3,0.6-0.3c0.3,0,0.5,0.2,0.5,0.6v0.7c0,0.1,0,0.1,0.1,0.1h0.1v0.3h-0.3
				c-0.2,0-0.2-0.1-0.2-0.2v-0.7c0-0.2-0.1-0.3-0.3-0.3s-0.4,0.2-0.5,0.3c0,0.1-0.1,0.2-0.1,0.2v0.7h-0.3L166.3,38.5L166.3,38.5z"/>
			<path class="st12" d="M168.7,38.2c0.3,0,0.5,0.3,0.5,0.3l0,0c0,0,0,0,0-0.1c0-0.1,0.1-0.2,0.2-0.2h0.3v0.3h-0.1
				c-0.1,0-0.1,0-0.1,0.1v1.1c0,0.5-0.3,0.7-0.8,0.7c-0.2,0-0.3-0.1-0.5-0.1l0.1-0.3c0,0,0.2,0.1,0.4,0.1c0.3,0,0.5-0.1,0.5-0.4
				v-0.1c0-0.1,0-0.1,0-0.1l0,0c-0.1,0.2-0.3,0.3-0.5,0.3c-0.4,0-0.7-0.3-0.7-0.8C168,38.5,168.2,38.2,168.7,38.2z M169.2,38.9
				c0-0.4-0.2-0.5-0.4-0.5c-0.3,0-0.4,0.2-0.4,0.5c0,0.3,0.2,0.5,0.5,0.5C168.9,39.5,169.2,39.4,169.2,38.9z"/>
			<path class="st12" d="M170.7,38C170.7,37.9,170.7,37.9,170.7,38l-0.2-0.1v-0.3h0.3c0.2,0,0.2,0.1,0.2,0.2v0.5c0,0.1,0,0.1,0,0.1
				l0,0c0,0,0.2-0.3,0.5-0.3c0.4,0,0.7,0.3,0.7,0.8c0,0.5-0.3,0.8-0.7,0.8c-0.3,0-0.5-0.3-0.5-0.3l0,0c0,0,0,0.1,0,0.1v0.1h-0.3V38
				H170.7L170.7,38z M171.4,39.5c0.3,0,0.5-0.2,0.5-0.6c0-0.3-0.2-0.6-0.4-0.6c-0.2,0-0.5,0.2-0.5,0.6
				C171,39.3,171.1,39.5,171.4,39.5z"/>
			<path class="st12" d="M172.5,40.1c0.1,0,0.2-0.1,0.3-0.2l0.1-0.2l-0.5-1.2c0-0.1-0.1-0.1-0.1-0.1h-0.1v-0.3h0.2
				c0.1,0,0.2,0.1,0.2,0.2l0.3,0.9c0.1,0.1,0.1,0.2,0.1,0.2l0,0c0,0,0-0.1,0.1-0.2l0.3-0.9c0.1-0.1,0.1-0.2,0.2-0.2h0.2v0.3h-0.1
				c-0.1,0-0.1,0-0.1,0.1l-0.6,1.4c-0.1,0.3-0.3,0.3-0.5,0.3c-0.2,0-0.3-0.2-0.3-0.2l0.1-0.2C172.3,40,172.4,40.1,172.5,40.1z"/>
			<path class="st12" d="M174.8,38.5C174.8,38.5,174.8,38.5,174.8,38.5l-0.2-0.1v-0.3h0.3c0.2,0,0.2,0.1,0.2,0.2v0.1
				c0,0.1,0,0.1,0,0.1l0,0c0.1-0.2,0.3-0.4,0.5-0.4c0.1,0,0.1,0,0.1,0v0.3c0,0-0.1,0-0.1,0c-0.2,0-0.3,0.2-0.4,0.3
				c-0.1,0.1-0.1,0.2-0.1,0.3v0.6h-0.3C174.8,39.7,174.8,38.5,174.8,38.5z"/>
			<path class="st12" d="M176.5,38.2c0.4,0,0.7,0.3,0.7,0.7c0,0.1,0,0.1,0,0.1h-1.1c0,0.3,0.3,0.5,0.5,0.5c0.3,0,0.5-0.2,0.5-0.2
				l0.1,0.2c0,0-0.2,0.2-0.6,0.2c-0.5,0-0.8-0.3-0.8-0.8C175.8,38.5,176.1,38.2,176.5,38.2z M176.9,38.8c0-0.3-0.2-0.4-0.3-0.4
				c-0.2,0-0.4,0.2-0.5,0.4H176.9z"/>
			<path class="st12" d="M177.5,39.3c0,0,0.2,0.2,0.5,0.2c0.2,0,0.3-0.1,0.3-0.2c0-0.3-0.8-0.3-0.8-0.7c0-0.3,0.3-0.4,0.6-0.4
				c0.2,0,0.5,0.1,0.5,0.3v0.2h-0.3v-0.1c0-0.1-0.2-0.2-0.2-0.2c-0.2,0-0.3,0.1-0.3,0.2c0,0.3,0.8,0.2,0.8,0.7
				c0,0.3-0.3,0.5-0.6,0.5c-0.4,0-0.6-0.3-0.6-0.3L177.5,39.3z"/>
			<path class="st12" d="M178.9,38.5C178.9,38.5,178.9,38.5,178.9,38.5l-0.2-0.1v-0.3h0.3c0.2,0,0.2,0.1,0.2,0.2v0.7
				c0,0.2,0.1,0.3,0.3,0.3c0.3,0,0.5-0.3,0.5-0.6v-0.7h0.3v1.2c0,0.1,0,0.1,0.1,0.1h0.1v0.3h-0.3c-0.2,0-0.2-0.1-0.2-0.2v-0.1
				c0-0.1,0-0.1,0-0.1l0,0c-0.1,0.2-0.3,0.3-0.6,0.3c-0.3,0-0.5-0.2-0.5-0.6L178.9,38.5L178.9,38.5L178.9,38.5z"/>
			<path class="st12" d="M180.7,38C180.7,37.9,180.7,37.9,180.7,38l-0.2-0.1v-0.3h0.3c0.2,0,0.2,0.1,0.2,0.2v1.6
				c0,0.1,0,0.1,0.1,0.1h0.1v0.3h-0.3c-0.2,0-0.2-0.1-0.2-0.2V38z"/>
			<path class="st12" d="M181.5,38.4h-0.2v-0.3h0.2v-0.4h0.3v0.4h0.3v0.3h-0.3v0.7c0,0.3,0.2,0.3,0.3,0.3c0.1,0,0.1,0,0.1,0v0.3
				c0,0-0.1,0-0.1,0c-0.2,0-0.6-0.1-0.6-0.6V38.4L181.5,38.4z"/>
			<path class="st12" d="M182.5,39.3c0,0,0.2,0.2,0.5,0.2c0.2,0,0.3-0.1,0.3-0.2c0-0.3-0.8-0.3-0.8-0.7c0-0.3,0.3-0.4,0.6-0.4
				c0.2,0,0.5,0.1,0.5,0.3v0.2h-0.3v-0.1c0-0.1-0.2-0.2-0.2-0.2c-0.2,0-0.3,0.1-0.3,0.2c0,0.3,0.8,0.2,0.8,0.7
				c0,0.3-0.3,0.5-0.6,0.5c-0.4,0-0.6-0.3-0.6-0.3L182.5,39.3z"/>
		</g>
	</g>
</g>
<g>
	<path class="st13" d="M128.8,88.5v4.7c0,0.7-0.2,1.3-0.6,1.8c-0.4,0.5-0.9,0.7-1.5,0.7c-0.2,0-0.4,0-0.6-0.1v-2
		c0.1,0,0.2,0.1,0.3,0.1c0.3,0,0.4-0.2,0.4-0.7v-4.4H128.8z"/>
	<path class="st13" d="M129.8,90.5h1.9v2.9c0,0.3,0.1,0.4,0.4,0.4c0.2,0,0.4-0.1,0.4-0.4v-2.9h1.9v2.9c0,0.7-0.2,1.2-0.7,1.7
		c-0.4,0.5-1,0.7-1.6,0.7c-0.7,0-1.3-0.3-1.8-0.8c-0.3-0.4-0.5-1-0.5-1.7V90.5z"/>
	<path class="st13" d="M138.7,90.5v2c-0.3,0-0.5,0.1-0.6,0.2c-0.1,0.1-0.2,0.3-0.2,0.6c-0.1,1-0.5,1.7-1.1,2.1
		c-0.4,0.2-0.9,0.3-1.5,0.3H135v-2h0.1c0.3,0,0.5-0.1,0.7-0.2c0.1-0.1,0.2-0.4,0.2-0.7c0-0.5,0.1-0.9,0.1-1.1
		c0.1-0.2,0.2-0.4,0.4-0.6c0.4-0.4,0.9-0.5,1.6-0.5H138.7z"/>
	<path class="st13" d="M141.1,88.5v2h0.9v2h-0.9c0,0.4,0.1,0.7,0.2,0.8c0.1,0.2,0.4,0.2,0.7,0.2v2c-0.1,0-0.2,0-0.2,0
		c-0.4,0-0.8-0.1-1.2-0.3c-0.4-0.2-0.7-0.5-0.9-0.8c-0.3-0.4-0.4-1-0.4-1.8v-4.2H141.1z"/>
	<path class="st13" d="M147.9,90.3c0.7,0,1.3,0.3,1.9,0.8c0.5,0.5,0.8,1.1,0.8,1.9c0,0.7-0.3,1.4-0.8,1.9c-0.5,0.5-1.2,0.8-1.9,0.8
		c-0.7,0-1.4-0.3-1.9-0.8c-0.5-0.5-0.8-1.1-0.8-1.9c0-0.7,0.3-1.4,0.8-1.9C146.5,90.5,147.1,90.3,147.9,90.3 M147.9,92.2
		c-0.2,0-0.4,0.1-0.5,0.2c-0.1,0.1-0.2,0.3-0.2,0.5c0,0.2,0.1,0.4,0.2,0.5c0.1,0.1,0.3,0.2,0.5,0.2c0.2,0,0.4-0.1,0.5-0.2
		s0.2-0.3,0.2-0.5c0-0.2-0.1-0.4-0.2-0.5C148.2,92.2,148.1,92.2,147.9,92.2"/>
	<path class="st13" d="M155.9,95.5H154v-2.9c0-0.3-0.1-0.4-0.4-0.4c-0.2,0-0.4,0.1-0.4,0.4v2.9h-1.9v-2.9c0-0.7,0.2-1.2,0.7-1.7
		c0.4-0.5,1-0.7,1.6-0.7c0.7,0,1.3,0.3,1.8,0.8c0.3,0.4,0.5,1,0.5,1.7V95.5z"/>
	<polygon class="st13" points="162.8,90.5 162.8,95.5 160.8,95.5 160.8,90.5 159.2,90.5 159.2,88.5 164.4,88.5 164.4,90.5 	"/>
	<path class="st13" d="M167,95.5h-1.9v-5.1h1.9V95.5z M166,88.1c0.3,0,0.5,0.1,0.7,0.3c0.2,0.2,0.3,0.4,0.3,0.6
		c0,0.3-0.1,0.5-0.3,0.7c-0.2,0.2-0.4,0.3-0.7,0.3c-0.3,0-0.5-0.1-0.7-0.3c-0.2-0.2-0.3-0.4-0.3-0.7c0-0.2,0.1-0.5,0.3-0.6
		C165.5,88.2,165.8,88.1,166,88.1"/>
	<path class="st13" d="M175.1,95.5h-1.9v-2.8c0-0.2,0-0.4-0.1-0.4c0-0.1-0.1-0.1-0.2-0.1c-0.2,0-0.3,0.2-0.3,0.6v2.8h-1.9v-2.8
		c0-0.2,0-0.4-0.1-0.4c0-0.1-0.1-0.1-0.2-0.1c-0.2,0-0.3,0.2-0.3,0.6v2.8h-1.9v-3.1c0-0.6,0.2-1.1,0.6-1.5c0.4-0.4,0.9-0.6,1.4-0.6
		c0.6,0,1.1,0.2,1.5,0.7c0.5-0.5,1-0.7,1.5-0.7c0.6,0,1.2,0.2,1.5,0.7c0.3,0.4,0.5,0.9,0.5,1.6V95.5z"/>
	<path class="st13" d="M181.3,93.3h-2.9c0-0.1-0.1-0.3-0.1-0.4c0-0.2,0-0.3,0.1-0.5h1c-0.1-0.4-0.3-0.6-0.6-0.6
		c-0.2,0-0.4,0.1-0.6,0.3c-0.1,0.2-0.2,0.5-0.2,0.8c0,0.3,0.1,0.6,0.2,0.8c0.1,0.2,0.3,0.3,0.6,0.3c0.2,0,0.4-0.1,0.6-0.3l1.1,1.3
		c-0.5,0.4-1.1,0.6-1.7,0.6c-0.8,0-1.4-0.3-1.9-0.8c-0.5-0.5-0.8-1.1-0.8-1.9c0-0.7,0.3-1.4,0.8-1.9c0.5-0.5,1.2-0.8,1.9-0.8
		c0.7,0,1.4,0.3,1.9,0.8c0.5,0.5,0.8,1.1,0.8,1.9C181.3,93,181.3,93.1,181.3,93.3"/>
	<path class="st13" d="M187.9,90.5v2c-0.3,0-0.5,0.1-0.6,0.2c-0.1,0.1-0.2,0.3-0.2,0.6c-0.1,1-0.5,1.7-1.1,2.1
		c-0.4,0.2-0.9,0.3-1.5,0.3h-0.3v-2h0.1c0.3,0,0.5-0.1,0.7-0.2c0.1-0.1,0.2-0.4,0.2-0.7c0-0.5,0.1-0.9,0.1-1.1
		c0.1-0.2,0.2-0.4,0.4-0.6c0.4-0.4,0.9-0.5,1.6-0.5H187.9z"/>
	<path class="st13" d="M189.9,93.2c0.3,0,0.6,0.1,0.9,0.4c0.2,0.2,0.4,0.5,0.4,0.9c0,0.3-0.1,0.6-0.4,0.9c-0.2,0.2-0.5,0.3-0.9,0.3
		c-0.4,0-0.6-0.1-0.9-0.3c-0.2-0.2-0.3-0.5-0.3-0.9c0-0.3,0.1-0.6,0.4-0.9C189.3,93.3,189.6,93.2,189.9,93.2"/>
	<path class="st13" d="M195.3,93.6v2c-0.2,0-0.3,0-0.4,0c-0.8,0-1.4-0.3-1.9-0.8c-0.5-0.5-0.8-1.1-0.8-1.9c0-0.7,0.3-1.4,0.8-1.9
		c0.5-0.5,1.1-0.8,1.9-0.8c0.8,0,1.5,0.2,2,0.7c0.5,0.5,0.7,1.1,0.7,2v2.5h-1.9v-2.4c0-0.3-0.1-0.5-0.2-0.6
		c-0.1-0.2-0.3-0.2-0.5-0.2c-0.2,0-0.4,0.1-0.5,0.2c-0.1,0.1-0.2,0.3-0.2,0.5c0,0.2,0.1,0.4,0.2,0.5c0.1,0.1,0.3,0.2,0.5,0.2
		C195,93.7,195.2,93.7,195.3,93.6"/>
	<path class="st13" d="M200.1,93.2c0.3,0,0.6,0.1,0.9,0.4s0.4,0.5,0.4,0.9c0,0.3-0.1,0.6-0.4,0.9c-0.2,0.2-0.5,0.3-0.9,0.3
		c-0.4,0-0.6-0.1-0.9-0.3c-0.2-0.2-0.3-0.5-0.3-0.9c0-0.3,0.1-0.6,0.4-0.9C199.5,93.3,199.8,93.2,200.1,93.2"/>
	<rect x="136.4" y="97.3" class="st13" width="0.9" height="3.3"/>
	<path class="st13" d="M139,98.1c0.3,0,0.6,0.1,0.9,0.4c0.2,0.2,0.4,0.5,0.4,0.9c0,0.3-0.1,0.6-0.4,0.9c-0.2,0.2-0.5,0.4-0.9,0.4
		c-0.3,0-0.6-0.1-0.9-0.4c-0.2-0.2-0.4-0.5-0.4-0.9c0-0.4,0.1-0.6,0.4-0.9C138.3,98.2,138.6,98.1,139,98.1 M138.9,99
		c-0.1,0-0.2,0-0.2,0.1c-0.1,0.1-0.1,0.2-0.1,0.3c0,0.1,0,0.2,0.1,0.3c0.1,0.1,0.1,0.1,0.2,0.1c0.1,0,0.2,0,0.2-0.1
		c0.1-0.1,0.1-0.2,0.1-0.3c0-0.1,0-0.2-0.1-0.3C139.1,99,139,99,138.9,99"/>
	<path class="st13" d="M141.9,99.6v0.8c-0.1,0-0.3,0.1-0.4,0.1c-0.3,0-0.5-0.1-0.7-0.3c-0.2-0.2-0.3-0.5-0.3-0.8
		c0-0.3,0.1-0.6,0.4-0.9c0.2-0.2,0.5-0.4,0.9-0.4c0.2,0,0.4,0,0.5,0.1c0.2,0.1,0.3,0.2,0.4,0.3c0.2,0.2,0.2,0.5,0.2,0.9v0.8
		c0,0.4-0.1,0.8-0.4,1c-0.2,0.3-0.6,0.4-1,0.4c-0.1,0-0.3,0-0.5-0.1v-0.8c0.1,0.1,0.2,0.1,0.4,0.1c0.2,0,0.3-0.1,0.4-0.2
		c0.1-0.1,0.1-0.3,0.1-0.5v-0.9c0-0.3-0.1-0.4-0.3-0.4c-0.1,0-0.2,0-0.2,0.1c-0.1,0.1-0.1,0.1-0.1,0.2c0,0.1,0,0.2,0.1,0.2
		c0.1,0.1,0.1,0.1,0.2,0.1C141.8,99.6,141.8,99.6,141.9,99.6"/>
	<path class="st13" d="M144.3,100.6h-0.9v-2.4h0.9V100.6z M144,97.4h0.6l-0.6,0.6h-0.5L144,97.4z"/>
	<path class="st13" d="M146.4,98.2v1c-0.1,0-0.2,0-0.3,0.1c0,0-0.1,0.1-0.1,0.3c0,0.5-0.2,0.8-0.5,1c-0.2,0.1-0.4,0.1-0.7,0.1h-0.1
		v-1h0c0.1,0,0.2,0,0.3-0.1c0.1-0.1,0.1-0.2,0.1-0.3c0-0.2,0-0.4,0.1-0.5c0-0.1,0.1-0.2,0.2-0.3c0.2-0.2,0.4-0.3,0.7-0.3H146.4z"/>
	<path class="st13" d="M147.5,97.3v0.9h0.4v1h-0.4c0,0.2,0,0.3,0.1,0.4c0.1,0.1,0.2,0.1,0.3,0.1v1c0,0-0.1,0-0.1,0
		c-0.2,0-0.4,0-0.6-0.1c-0.2-0.1-0.3-0.2-0.4-0.4c-0.1-0.2-0.2-0.5-0.2-0.8v-2H147.5z"/>
	<path class="st13" d="M149.2,100.6h-0.9v-2.4h0.9V100.6z M148.8,97.1c0.1,0,0.2,0,0.3,0.1c0.1,0.1,0.1,0.2,0.1,0.3
		c0,0.1,0,0.2-0.1,0.3c-0.1,0.1-0.2,0.1-0.3,0.1c-0.1,0-0.2,0-0.3-0.1c-0.1-0.1-0.1-0.2-0.1-0.3c0-0.1,0-0.2,0.1-0.3
		C148.6,97.1,148.7,97.1,148.8,97.1"/>
	<path class="st13" d="M151.3,99.5l0.9,0c0,0.3-0.2,0.6-0.4,0.9c-0.2,0.2-0.5,0.3-0.9,0.3c-0.4,0-0.7-0.1-0.9-0.4
		c-0.2-0.2-0.4-0.5-0.4-0.9c0-0.3,0.1-0.6,0.4-0.9c0.2-0.2,0.5-0.4,0.9-0.4c0.3,0,0.6,0.1,0.8,0.3c0.2,0.2,0.4,0.4,0.4,0.7l-0.9,0
		c-0.1-0.1-0.2-0.2-0.3-0.2c-0.1,0-0.2,0-0.3,0.1c-0.1,0.1-0.1,0.2-0.1,0.3c0,0.1,0,0.2,0.1,0.3c0.1,0.1,0.2,0.1,0.3,0.1
		C151.1,99.7,151.2,99.6,151.3,99.5"/>
	<path class="st13" d="M153.9,99.7v0.9c-0.1,0-0.1,0-0.2,0c-0.4,0-0.7-0.1-0.9-0.4c-0.2-0.2-0.4-0.5-0.4-0.9c0-0.3,0.1-0.6,0.4-0.9
		c0.2-0.2,0.5-0.4,0.9-0.4c0.4,0,0.7,0.1,0.9,0.3c0.2,0.2,0.3,0.5,0.3,0.9v1.2H154v-1.1c0-0.1,0-0.2-0.1-0.3
		c-0.1-0.1-0.1-0.1-0.2-0.1c-0.1,0-0.2,0-0.2,0.1c-0.1,0.1-0.1,0.2-0.1,0.2c0,0.1,0,0.2,0.1,0.2c0.1,0.1,0.1,0.1,0.2,0.1
		C153.7,99.7,153.8,99.7,153.9,99.7"/>
	<path class="st13" d="M157,101.6v-0.8c0.1,0.1,0.2,0.1,0.3,0.1c0.3,0,0.5-0.2,0.6-0.5c-0.2,0.1-0.3,0.1-0.5,0.1
		c-0.2,0-0.4-0.1-0.6-0.2c-0.1-0.2-0.2-0.4-0.2-0.6v-1.5h0.9v1.3c0,0.1,0.1,0.2,0.2,0.2c0.1,0,0.2-0.1,0.2-0.2v-1.3h0.9v2.2
		c0,0.4-0.1,0.7-0.3,1c-0.3,0.3-0.6,0.4-1,0.4C157.3,101.7,157.2,101.7,157,101.6"/>
	<path class="st13" d="M162.1,97.3h0.9v2c0,0.4-0.1,0.7-0.3,0.9c-0.1,0.1-0.3,0.2-0.4,0.3c-0.2,0.1-0.3,0.1-0.5,0.1
		c-0.4,0-0.7-0.1-0.9-0.4c-0.2-0.2-0.4-0.5-0.4-0.9c0-0.3,0.1-0.6,0.4-0.9c0.2-0.2,0.5-0.4,0.9-0.4c0.1,0,0.1,0,0.2,0v1
		c-0.1-0.1-0.1-0.1-0.2-0.1c-0.1,0-0.2,0-0.2,0.1c-0.1,0.1-0.1,0.2-0.1,0.2c0,0.1,0,0.2,0.1,0.2c0.1,0.1,0.2,0.1,0.2,0.1
		c0.2,0,0.3-0.2,0.3-0.5V97.3z"/>
	<path class="st13" d="M164.4,100.6h-0.9v-2.4h0.9V100.6z M163.9,97.1c0.1,0,0.2,0,0.3,0.1c0.1,0.1,0.1,0.2,0.1,0.3
		c0,0.1,0,0.2-0.1,0.3c-0.1,0.1-0.2,0.1-0.3,0.1c-0.1,0-0.2,0-0.3-0.1c-0.1-0.1-0.1-0.2-0.1-0.3c0-0.1,0-0.2,0.1-0.3
		C163.7,97.1,163.8,97.1,163.9,97.1"/>
	<path class="st13" d="M166.4,98.2v1c-0.1,0-0.2,0-0.3,0.1c0,0-0.1,0.1-0.1,0.3c0,0.5-0.2,0.8-0.5,1c-0.2,0.1-0.4,0.1-0.7,0.1h-0.1
		v-1h0c0.1,0,0.2,0,0.3-0.1c0.1-0.1,0.1-0.2,0.1-0.3c0-0.2,0-0.4,0.1-0.5c0-0.1,0.1-0.2,0.2-0.3c0.2-0.2,0.4-0.3,0.7-0.3H166.4z"/>
	<path class="st13" d="M167.5,97.3v0.9h0.4v1h-0.4c0,0.2,0,0.3,0.1,0.4c0.1,0.1,0.2,0.1,0.3,0.1v1c0,0-0.1,0-0.1,0
		c-0.2,0-0.4,0-0.6-0.1c-0.2-0.1-0.3-0.2-0.4-0.4c-0.1-0.2-0.2-0.5-0.2-0.8v-2H167.5z"/>
	<path class="st13" d="M169.7,98.1v1c-0.1,0-0.1-0.1-0.2-0.1c-0.2,0-0.2,0.1-0.2,0.4v1.1h-0.9v-1.3c0-0.3,0.1-0.6,0.3-0.8
		c0.2-0.2,0.4-0.3,0.8-0.3C169.5,98.1,169.6,98.1,169.7,98.1"/>
	<path class="st13" d="M170.9,100.6h-0.9v-2.4h0.9V100.6z M170.4,97.1c0.1,0,0.2,0,0.3,0.1c0.1,0.1,0.1,0.2,0.1,0.3
		c0,0.1,0,0.2-0.1,0.3c-0.1,0.1-0.2,0.1-0.3,0.1c-0.1,0-0.2,0-0.3-0.1c-0.1-0.1-0.1-0.2-0.1-0.3c0-0.1,0-0.2,0.1-0.3
		C170.2,97.1,170.3,97.1,170.4,97.1"/>
	<path class="st13" d="M172.2,97.3v2c0,0.3,0.1,0.5,0.3,0.5c0.1,0,0.2,0,0.3-0.1c0.1-0.1,0.1-0.1,0.1-0.2c0-0.1,0-0.2-0.1-0.2
		c-0.1-0.1-0.1-0.1-0.2-0.1c-0.1,0-0.1,0-0.2,0.1v-1c0.1,0,0.2,0,0.2,0c0.3,0,0.6,0.1,0.9,0.4c0.2,0.2,0.4,0.5,0.4,0.9
		c0,0.4-0.1,0.7-0.4,0.9c-0.2,0.2-0.5,0.4-0.9,0.4c-0.2,0-0.4,0-0.5-0.1c-0.2-0.1-0.3-0.2-0.4-0.3c-0.2-0.2-0.3-0.5-0.3-0.9v-2
		H172.2z"/>
	<path class="st13" d="M174.3,98.2h0.9v1.4c0,0.1,0.1,0.2,0.2,0.2c0.1,0,0.2-0.1,0.2-0.2v-1.4h0.9v1.3c0,0.3-0.1,0.6-0.3,0.8
		c-0.2,0.2-0.5,0.3-0.8,0.3c-0.3,0-0.6-0.1-0.8-0.4c-0.2-0.2-0.2-0.5-0.2-0.8V98.2z"/>
	<path class="st13" d="M178.4,99.5l0.9,0c0,0.3-0.2,0.6-0.4,0.9c-0.2,0.2-0.5,0.3-0.9,0.3c-0.4,0-0.7-0.1-0.9-0.4
		c-0.2-0.2-0.4-0.5-0.4-0.9c0-0.3,0.1-0.6,0.4-0.9c0.2-0.2,0.5-0.4,0.9-0.4c0.3,0,0.6,0.1,0.8,0.3c0.2,0.2,0.4,0.4,0.4,0.7l-0.9,0
		c-0.1-0.1-0.2-0.2-0.3-0.2c-0.1,0-0.2,0-0.3,0.1c-0.1,0.1-0.1,0.2-0.1,0.3c0,0.1,0,0.2,0.1,0.3c0.1,0.1,0.2,0.1,0.3,0.1
		C178.2,99.7,178.3,99.6,178.4,99.5"/>
	<path class="st13" d="M180.6,100.6h-0.9v-2.4h0.9V100.6z M180.2,97.1c0.1,0,0.2,0,0.3,0.1c0.1,0.1,0.1,0.2,0.1,0.3
		c0,0.1,0,0.2-0.1,0.3c-0.1,0.1-0.2,0.1-0.3,0.1c-0.1,0-0.2,0-0.3-0.1c-0.1-0.1-0.1-0.2-0.1-0.3c0-0.1,0-0.2,0.1-0.3
		C179.9,97.1,180,97.1,180.2,97.1"/>
	<path class="st13" d="M182.3,98.1c0.3,0,0.6,0.1,0.9,0.4c0.2,0.2,0.4,0.5,0.4,0.9c0,0.3-0.1,0.6-0.4,0.9c-0.2,0.2-0.5,0.4-0.9,0.4
		s-0.6-0.1-0.9-0.4c-0.2-0.2-0.4-0.5-0.4-0.9c0-0.4,0.1-0.6,0.4-0.9C181.6,98.2,181.9,98.1,182.3,98.1 M182.4,97.4h0.6l-0.6,0.6
		h-0.5L182.4,97.4z M182.3,99c-0.1,0-0.2,0-0.2,0.1c-0.1,0.1-0.1,0.2-0.1,0.3c0,0.1,0,0.2,0.1,0.3c0.1,0.1,0.1,0.1,0.2,0.1
		c0.1,0,0.2,0,0.2-0.1c0.1-0.1,0.1-0.2,0.1-0.3c0-0.1,0-0.2-0.1-0.3C182.4,99,182.4,99,182.3,99"/>
	<path class="st13" d="M186.1,100.6h-0.9v-1.4c0-0.1-0.1-0.2-0.2-0.2s-0.2,0.1-0.2,0.2v1.4h-0.9v-1.3c0-0.3,0.1-0.6,0.3-0.8
		c0.2-0.2,0.5-0.3,0.8-0.3c0.3,0,0.6,0.1,0.8,0.4c0.2,0.2,0.2,0.5,0.2,0.8V100.6z"/>
</g>
<g>
	<g>
		<g>
			<path class="st13" d="M259.2,90.7l-2.3-0.8v9.4c0,0,1.8,0,2.3-1.7V90.7z"/>
			<g>
				<path class="st13" d="M264,90.7c-0.2,1.1-1.2,1.9-2.4,1.9c-0.5,0-0.9-0.1-1.3-0.4v2.4c0.4,0.1,0.8,0.2,1.3,0.2
					c2.4,0,4.4-1.8,4.6-4.1H264z"/>
				<path class="st13" d="M256.9,89.9c-0.1,1.8,0.8,3.4,2.3,4.3v-4h0c0-1.3,1.1-2.4,2.4-2.4c1.1,0,2.1,0.8,2.4,1.8h2.2
					c-0.3-2.4-2.4-4.2-5-4C258.9,85.8,257.1,87.6,256.9,89.9z"/>
			</g>
		</g>
		<g>
			<path class="st13" d="M267,92.2c0-1.5,1-2.9,3-2.9c2,0,3,1.5,3,2.9c0,1.5-1,2.9-3,2.9C268,95.1,267,93.6,267,92.2z M271.4,92.2
				c0-0.9-0.6-1.5-1.4-1.5s-1.4,0.6-1.4,1.5c0,0.9,0.6,1.5,1.4,1.5S271.4,93.1,271.4,92.2z"/>
			<path class="st13" d="M273.2,89.4h1.7l1,3.4l1.1-3.4h1.7l1.1,3.4l1-3.4h1.7l-1.8,5.5h-1.6l-1.2-3.6l-1.2,3.6H275L273.2,89.4z"/>
			<path class="st13" d="M282.7,92.2c0-1.8,1.2-2.9,2.8-2.9c1.6,0,2.7,1.1,2.7,2.7c0,0.2,0,0.5-0.1,0.7h-3.9
				c0.1,0.6,0.6,1.1,1.5,1.1c0.6,0,1.1-0.4,1.4-0.7L288,94c-0.5,0.6-1.3,1-2.4,1C283.8,95.1,282.7,93.8,282.7,92.2z M284.3,91.4h2.3
				c-0.1-0.6-0.5-0.9-1.1-0.9C284.9,90.5,284.5,90.8,284.3,91.4z"/>
			<path class="st13" d="M289,89.4h1.6v0.8c0.3-0.6,0.8-0.9,1.5-0.9h0.2v1.5c-0.8,0-1.4,0.2-1.7,1v3.2H289V89.4z"/>
			<path class="st13" d="M292.9,92.3c0-1.6,1.1-2.7,2.6-2.7c1,0,1.8,0.5,2.3,1.3l-0.5,0.3c-0.3-0.7-1-1.1-1.8-1.1
				c-1.1,0-2,0.8-2,2.2c0,1.4,0.9,2.2,2,2.2c0.8,0,1.5-0.4,1.8-1.1l0.5,0.3c-0.4,0.8-1.3,1.3-2.3,1.3C294,95,292.9,93.9,292.9,92.3z
				"/>
			<path class="st13" d="M303.1,94.1c-0.4,0.6-1.1,1-1.9,1c-1.5,0-2.6-1.1-2.6-2.7s1.1-2.7,2.6-2.7c0.8,0,1.5,0.4,1.9,1v-0.9h0.5
				v5.2h-0.5V94.1z M303.1,93.4v-2c-0.3-0.7-1-1.2-1.9-1.2c-1.1,0-2,0.8-2,2.2c0,1.3,0.9,2.2,2,2.2C302.1,94.5,302.8,94,303.1,93.4z
				"/>
			<path class="st13" d="M304.8,93.8l0.4-0.3c0.3,0.6,1,1,1.7,1c0.8,0,1.5-0.4,1.5-1.1c0-0.5-0.5-0.9-1.3-1l-0.4-0.1
				c-0.9-0.1-1.5-0.5-1.5-1.3c0-0.7,0.6-1.4,1.8-1.4c0.8,0,1.4,0.4,1.8,0.9l-0.4,0.3c-0.3-0.5-0.8-0.7-1.4-0.7
				c-0.8,0-1.2,0.4-1.2,0.9c0,0.5,0.4,0.7,1,0.8l0.4,0.1c1.1,0.1,1.8,0.6,1.8,1.5c0,0.9-0.8,1.6-2.1,1.6
				C305.9,95,305.1,94.5,304.8,93.8z"/>
			<path class="st13" d="M310.2,87.4h0.5v3.3c0.3-0.4,0.9-1,1.8-1c1.3,0,2.1,0.8,2.1,2.3v3h-0.5V92c0-1.2-0.6-1.8-1.7-1.8
				c-1.1,0-1.7,0.8-1.8,1.2v3.5h-0.5V87.4z"/>
		</g>
	</g>
	<g>
		<g>
			<path class="st13" d="M267.7,98.3c0-0.6,0.4-1,0.9-1c0.4,0,0.7,0.2,0.8,0.5l-0.2,0.1c-0.1-0.2-0.4-0.4-0.6-0.4
				c-0.4,0-0.7,0.3-0.7,0.8c0,0.5,0.3,0.8,0.7,0.8c0.3,0,0.5-0.1,0.6-0.4l0.2,0.1c-0.2,0.3-0.4,0.5-0.8,0.5
				C268.1,99.3,267.7,98.9,267.7,98.3z"/>
			<path class="st13" d="M270.4,97.4h0.2v0.4c0.1-0.2,0.3-0.4,0.7-0.4h0v0.2c-0.3,0-0.6,0.2-0.7,0.5v1.2h-0.2V97.4z"/>
			<path class="st13" d="M271.9,98.3c0-0.6,0.4-1,0.9-1c0.5,0,0.9,0.4,0.9,0.9c0,0,0,0.1,0,0.1h-1.6c0,0.4,0.3,0.7,0.7,0.7
				c0.3,0,0.5-0.1,0.7-0.4l0.1,0.1c-0.2,0.3-0.5,0.5-0.8,0.5C272.3,99.3,271.9,98.9,271.9,98.3z M272.1,98.2h1.4
				c0-0.4-0.3-0.7-0.7-0.7C272.4,97.6,272.1,97.8,272.1,98.2z M272.7,97.1l0.3-0.6h0.2v0l-0.3,0.6L272.7,97.1L272.7,97.1z"/>
			<path class="st13" d="M276.1,99c-0.2,0.2-0.4,0.3-0.7,0.3c-0.5,0-0.9-0.4-0.9-1c0-0.6,0.4-1,0.9-1c0.3,0,0.5,0.1,0.7,0.3v-1.2
				h0.2v2.7h-0.2V99z M276.1,98.7V98c-0.1-0.2-0.4-0.4-0.7-0.4c-0.4,0-0.7,0.3-0.7,0.8c0,0.5,0.3,0.8,0.7,0.8
				C275.7,99.1,276,98.9,276.1,98.7z"/>
			<path class="st13" d="M277.4,96.6h0.2V97h-0.2V96.6z M277.4,97.4h0.2v1.8h-0.2V97.4z"/>
			<path class="st13" d="M278.8,98.7v-1.1h-0.3v-0.2h0.3v-0.5h0.2v0.5h0.5v0.2H279v1.1c0,0.3,0.1,0.4,0.5,0.4h0v0.2c0,0-0.1,0-0.1,0
				C279,99.3,278.8,99.1,278.8,98.7z"/>
			<path class="st13" d="M280.2,98.3c0-0.6,0.4-1,0.9-1c0.5,0,0.9,0.4,0.9,1c0,0.6-0.4,1-0.9,1C280.6,99.3,280.2,98.9,280.2,98.3z
				 M281.9,98.3c0-0.5-0.3-0.8-0.7-0.8s-0.7,0.3-0.7,0.8c0,0.5,0.3,0.8,0.7,0.8S281.9,98.8,281.9,98.3z"/>
			<path class="st13" d="M282.8,98.9l0.1-0.1c0.1,0.2,0.3,0.4,0.6,0.4c0.3,0,0.5-0.1,0.5-0.4c0-0.2-0.2-0.3-0.5-0.3l-0.2,0
				c-0.3,0-0.5-0.2-0.5-0.5c0-0.3,0.2-0.5,0.6-0.5c0.3,0,0.5,0.1,0.6,0.3l-0.1,0.1c-0.1-0.2-0.3-0.3-0.5-0.3c-0.3,0-0.4,0.2-0.4,0.3
				c0,0.2,0.1,0.3,0.4,0.3l0.2,0c0.4,0.1,0.6,0.2,0.6,0.5c0,0.3-0.3,0.6-0.7,0.6C283.2,99.3,283,99.1,282.8,98.9z"/>
			<path class="st13" d="M286.9,97.6h-0.3v-0.2h0.3v-0.3c0-0.3,0.2-0.6,0.5-0.6c0,0,0.1,0,0.1,0v0.2h0c-0.3,0-0.4,0.1-0.4,0.4v0.3
				h0.5v0.2h-0.5v1.7h-0.2V97.6z"/>
			<path class="st13" d="M288.4,96.6h0.2v2.7h-0.2V96.6z"/>
			<path class="st13" d="M289.6,98.3c0-0.6,0.4-1,0.9-1c0.5,0,0.9,0.4,0.9,0.9c0,0,0,0.1,0,0.1h-1.6c0,0.4,0.3,0.7,0.7,0.7
				c0.3,0,0.5-0.1,0.7-0.4l0.1,0.1c-0.2,0.3-0.5,0.5-0.8,0.5C289.9,99.3,289.6,98.9,289.6,98.3z M289.7,98.2h1.4
				c0-0.4-0.3-0.7-0.7-0.7C290.1,97.6,289.8,97.8,289.7,98.2z"/>
			<path class="st13" d="M292,99.3l0.7-0.9l-0.7-0.9v0h0.2l0.6,0.8l0.6-0.8h0.2v0l-0.7,0.9l0.7,0.9v0h-0.2l-0.6-0.8l-0.6,0.8
				L292,99.3L292,99.3z"/>
			<path class="st13" d="M294.5,96.6h0.2V97h-0.2V96.6z M294.5,97.4h0.2v1.8h-0.2V97.4z"/>
			<path class="st13" d="M296,99.3h-0.2v-2.7h0.2v1.2c0.2-0.2,0.4-0.3,0.7-0.3c0.5,0,0.9,0.4,0.9,1c0,0.6-0.4,1-0.9,1
				c-0.3,0-0.5-0.1-0.7-0.3V99.3z M297.4,98.3c0-0.5-0.3-0.8-0.7-0.8c-0.3,0-0.6,0.2-0.7,0.4v0.7c0.1,0.2,0.4,0.4,0.7,0.4
				C297.1,99.1,297.4,98.8,297.4,98.3z"/>
			<path class="st13" d="M298.6,96.6h0.2v2.7h-0.2V96.6z"/>
			<path class="st13" d="M299.8,98.3c0-0.6,0.4-1,0.9-1c0.5,0,0.9,0.4,0.9,0.9c0,0,0,0.1,0,0.1h-1.6c0,0.4,0.3,0.7,0.7,0.7
				c0.3,0,0.5-0.1,0.7-0.4l0.1,0.1c-0.2,0.3-0.5,0.5-0.8,0.5C300.1,99.3,299.8,98.9,299.8,98.3z M299.9,98.2h1.4
				c0-0.4-0.3-0.7-0.7-0.7C300.3,97.6,300,97.8,299.9,98.2z"/>
			<path class="st13" d="M302.3,98.9l0.1-0.1c0.1,0.2,0.3,0.4,0.6,0.4c0.3,0,0.5-0.1,0.5-0.4c0-0.2-0.2-0.3-0.5-0.3l-0.2,0
				c-0.3,0-0.5-0.2-0.5-0.5c0-0.3,0.2-0.5,0.6-0.5c0.3,0,0.5,0.1,0.6,0.3l-0.1,0.1c-0.1-0.2-0.3-0.3-0.5-0.3c-0.3,0-0.4,0.2-0.4,0.3
				c0,0.2,0.1,0.3,0.4,0.3l0.2,0c0.4,0.1,0.6,0.2,0.6,0.5c0,0.3-0.3,0.6-0.7,0.6C302.7,99.3,302.4,99.1,302.3,98.9z"/>
		</g>
	</g>
</g>
<g>
	<g>
		<path class="st12" d="M62.6,87.6v-3.2c2.1-0.2,3.7-1.9,3.7-3.9c0-2.1-1.7-3.9-4-3.9c-0.7-1.3-2.1-2.2-3.6-2.2
			c-1.6,0-3.1,1-3.7,2.4l0,0l0,0c-2.2,0-4,1.7-4,3.9c0,2,1.5,3.6,3.5,3.9v3v0.2h0.2h8l0,0V87.6z"/>
		<path class="st14" d="M61.8,83.4v3.3l0,0h-6.5v-3.2l-0.8-0.1c-0.7-0.1-1.2-0.4-1.6-0.8c-0.6-0.6-0.9-1.3-0.9-2.1
			c0-0.8,0.3-1.6,0.9-2.1c0.5-0.5,1.2-0.8,1.9-0.9c-0.1,0.2-0.1,0.4-0.1,0.6h0.9c0.1-0.8,0.5-1.5,1-2.1c0.6-0.6,1.3-0.9,2.2-0.9
			c0.9,0,1.6,0.3,2.2,0.9c0.6,0.6,0.9,1.2,0.9,2.1h1c0-0.3-0.1-0.5-0.1-0.7c0.7,0.1,1.3,0.4,1.7,0.9c0.6,0.6,0.9,1.3,0.9,2.1
			c0,0.8-0.3,1.6-0.9,2.1c-0.6,0.6-1.3,0.9-2.2,0.9L61.8,83.4z"/>
		<path class="st12" d="M59.9,78.8c0.3,0,0.5,0.5,0.5,1c0,0.6-0.2,1-0.5,1c-0.3,0-0.5-0.5-0.5-1C59.4,79.3,59.6,78.8,59.9,78.8z"/>
		<path class="st12" d="M57.2,80.1c0.3,0,0.7,0.2,1,0.3c0,0,0,0,0-0.1c0.1-0.3-0.3-0.7-0.8-0.8c-0.6-0.1-1,0.1-1.1,0.5l0,0
			C56.6,80,56.9,80.1,57.2,80.1z"/>
		<g>
			<path class="st12" d="M55.3,82c-0.1-0.1-0.1-0.2,0.1-0.3l0,0c0-0.1,0.2-0.1,0.3,0l0,0c0.6,0.6,1.6,1,2.9,1l0,0V83v0.2V83v-0.2
				c1.4,0,2.6-0.6,3-1.2l0,0c0.1-0.1,0.2-0.1,0.3-0.1l0,0c0.1,0.1,0.1,0.2,0.1,0.3l0,0c-0.6,1-1.8,1.7-3.3,1.7l0,0
				C57.2,83.5,55.9,82.9,55.3,82L55.3,82z"/>
		</g>
		<rect x="54.4" y="87.5" class="st12" width="8.3" height="2.6"/>
		<g>
			<rect x="55.2" y="87.5" class="st14" width="0.8" height="2"/>
			<rect x="56.7" y="87.5" class="st14" width="0.8" height="2"/>
			<rect x="58.1" y="87.5" class="st14" width="0.8" height="2"/>
			<rect x="59.5" y="87.5" class="st14" width="0.7" height="2"/>
			<rect x="61" y="87.5" class="st14" width="0.8" height="2"/>
		</g>
		<path class="st12" d="M39.5,93c-1.6,0-3,1.3-3,3h0.1h-0.1c0,1.6,1.3,3,3,3c1.6,0,3-1.3,3-3C42.5,94.3,41.1,93,39.5,93z M41,97.3
			c-0.4,0.4-0.9,0.6-1.5,0.6c-0.6,0-1.1-0.3-1.5-0.6c-0.4-0.4-0.6-0.9-0.6-1.5c0-0.6,0.3-1.1,0.6-1.5c0.4-0.4,0.9-0.6,1.5-0.6
			c0.6,0,1.1,0.3,1.5,0.6c0.4,0.4,0.6,0.9,0.6,1.5C41.6,96.5,41.4,97,41,97.3z M26,93c-0.3,0-0.7,0.3-0.7,0.7c0,0.3,0.3,0.7,0.7,0.7
			c0.4,0,0.7-0.3,0.7-0.7C26.6,93.3,26.3,93,26,93z M25.5,98.6h0.9v-3.5h-0.9V98.6z M27.9,95.9c0,1.6,1.3,3,3,3c0.2,0,0.3,0,0.5-0.1
			V98C31.2,98,31.1,98,30.9,98c-0.6,0-1.1-0.3-1.5-0.6c-0.4-0.4-0.6-0.9-0.6-1.5c0-0.6,0.3-1.1,0.6-1.5c0.4-0.4,0.9-0.6,1.5-0.6
			c0.2,0,0.3,0,0.5,0.1V93c-0.2,0-0.3,0-0.5,0C29.2,93,27.9,94.3,27.9,95.9z M43.5,95.9c0,1.6,1.3,3,3,3c0.2,0,0.3,0,0.5-0.1V98
			C46.9,98,46.8,98,46.5,98c-0.6,0-1.1-0.3-1.5-0.6c-0.4-0.4-0.6-0.9-0.6-1.5c0-0.6,0.3-1.1,0.6-1.5c0.4-0.4,0.9-0.6,1.5-0.6
			c0.2,0,0.3,0,0.5,0.1V93c-0.2,0-0.3,0-0.5,0C44.8,93,43.5,94.3,43.5,95.9z M21.1,93c-1.1,0-2,0.6-2.5,1.4C18,93.6,17.1,93,16,93
			c-1.6,0-2.9,1.2-2.9,2.8l0,0v0.1l0,0V96l0,0v2.2h0.8v-2.3c0-0.6,0.3-1.1,0.6-1.4c0.4-0.4,0.9-0.6,1.5-0.6c0.6,0,1.1,0.3,1.5,0.6
			c0.4,0.4,0.6,0.9,0.6,1.5v0.1l0,0v2.2H19v-2.2l0,0V96c0-0.6,0.3-1.1,0.6-1.5c0.4-0.4,0.9-0.6,1.5-0.6c0.6,0,1.1,0.3,1.5,0.6
			c0.4,0.4,0.6,0.9,0.6,1.4v2.7H24v-2.8l0,0C23.9,94.3,22.6,93,21.1,93z M35.7,93c-1.4,0-2.6,1-2.9,2.2v3.2h0.8V96l0,0v-0.1
			c0-0.6,0.3-1.1,0.6-1.5c0.4-0.4,0.9-0.6,1.5-0.6h0.1V93L35.7,93L35.7,93z M66.9,93.6L66.9,93.6v5.3h0.8v-2.7h1.5v-0.8h-1.5v-1.5
			l0,0v-0.1c0-0.6,0.3-1.1,0.6-1.4c0.4-0.4,0.9-0.6,1.5-0.6h0.1V91h-0.1C68.2,90.9,66.9,92.1,66.9,93.6z M62.8,93.6L62.8,93.6v5.3
			h0.8v-2.7h1.5v-0.8h-1.5v-1.5l0,0v-0.1c0-0.6,0.3-1.1,0.6-1.4c0.4-0.4,0.9-0.6,1.5-0.6h0.1V91h-0.1C64.2,90.9,62.9,92.1,62.8,93.6
			z M51.5,93c-0.8,0-1.5,0.3-2.1,0.8v-3.1h-0.8v7.7h0.8v-2.5l0,0V96c0-0.6,0.3-1.1,0.6-1.5c0.4-0.4,0.9-0.6,1.5-0.6
			c0.6,0,1.1,0.3,1.5,0.6c0.4,0.4,0.6,0.9,0.6,1.5v0.1l0,0v2.5h0.8v-2.7l0,0C54.3,94.3,53,93,51.5,93z M58.7,93
			c-1.6,0-2.9,1.3-2.9,2.9V96l0,0c0.1,1.6,1.3,2.8,2.9,2.8h0.1l0,0h1.5V98h-1.6c-0.6,0-1-0.3-1.4-0.6c-0.3-0.3-0.6-0.7-0.6-1.2h5V96
			C61.6,94.3,60.3,93,58.7,93z M56.7,95.4c0.1-0.3,0.3-0.7,0.6-0.9c0.4-0.4,0.9-0.6,1.5-0.6l0,0c0.6,0,1.1,0.3,1.4,0.6
			c0.3,0.3,0.5,0.6,0.6,0.9H56.7z"/>
	</g>
</g>
</svg>
