<?xml version="1.0" encoding="utf-8"?>
<!-- Generator: Adobe Illustrator 24.3.0, SVG Export Plug-In . SVG Version: 6.00 Build 0)  -->
<svg version="1.1" id="Layer_1" xmlns="http://www.w3.org/2000/svg" xmlns:xlink="http://www.w3.org/1999/xlink" x="0px" y="0px"
	 viewBox="0 0 329.2 123.9" style="enable-background:new 0 0 329.2 123.9;" xml:space="preserve">
<style type="text/css">
	.st0{fill:#575756;}
	.st1{fill:#A1A1A1;}
	.st2{fill:#6E6E6E;}
	.st3{fill:#FFFFFF;}
	.st4{fill:#595A5C;}
	.st5{fill:#6E6F71;}
	.st6{fill-rule:evenodd;clip-rule:evenodd;fill:#575756;}
	.st7{fill:#434343;}
	.st8{fill:#7D7D7D;}
	.st9{fill:#AAAAAA;}
	.st10{clip-path:url(#SVGID_11_);}
	.st11{clip-path:url(#SVGID_17_);}
	.st12{clip-path:url(#SVGID_18_);}
	.st13{clip-path:url(#SVGID_19_);}
</style>
<g>
	<path class="st0" d="M24.5,32.9v-6.8h1.3v6.8H24.5z"/>
	<path class="st0" d="M31.4,26.1h1.3v6.8h-0.8v0l-3.6-4.6v4.6h-1.3v-6.8h1l3.3,4.2V26.1z"/>
	<path class="st0" d="M35.6,27.3h-2.2v-1.2c2,0,3.6,0,5.6,0v1.2h-2.2v5.6h-1.3V27.3z"/>
	<path class="st0" d="M44.9,32.9h-5.1c0-2.3,0-4.5,0-6.8h5.1v1.2h-3.8v1.6h3.7v1.2h-3.7v1.5h3.8V32.9z"/>
	<path class="st0" d="M51.9,32.9h-1.5l-2-2.3h-1.2v2.3h-1.3v-6.8c1.1,0,2.2,0,3.2,0c1.6,0,2.4,1.1,2.4,2.3c0,0.9-0.4,1.9-1.7,2.1
		L51.9,32.9L51.9,32.9z M47.2,27.3v2.2h2c0.8,0,1.2-0.5,1.2-1.1c0-0.5-0.4-1.1-1.2-1.1H47.2z"/>
	<path class="st0" d="M52.3,29.2h2.1v1.1h-2.1V29.2z"/>
	<path class="st0" d="M56.6,26.1v5.6h3.5v1.2h-4.8v-6.8H56.6z"/>
	<path class="st0" d="M61,32.9v-6.8h1.3v6.8H61z"/>
	<path class="st0" d="M63.5,32.9v-6.8h4.9v1.2h-3.6v1.9h3.4v1.2h-3.4v2.5H63.5z"/>
	<path class="st0" d="M74.3,32.9h-5.1c0-2.3,0-4.5,0-6.8h5.1v1.2h-3.8v1.6h3.7v1.2h-3.7v1.5h3.8V32.9z"/>
	<g>
		<path class="st0" d="M24.5,34h0.1v0.9h0.4V35h-0.6V34z"/>
		<path class="st0" d="M25.9,34v1h-0.1v-1H25.9z"/>
		<path class="st0" d="M26.7,34c0.1,0,0.2,0,0.3,0c0.2,0,0.3,0,0.4,0.1c0.1,0.1,0.1,0.2,0.1,0.4c0,0.2-0.1,0.3-0.1,0.4
			C27.3,35,27.1,35,26.9,35c-0.1,0-0.2,0-0.2,0V34z M26.8,34.9c0,0,0.1,0,0.1,0c0.3,0,0.4-0.2,0.4-0.4c0-0.2-0.1-0.4-0.4-0.4
			c-0.1,0-0.1,0-0.2,0V34.9z"/>
		<path class="st0" d="M28.8,34.5h-0.4v0.4h0.4V35h-0.6v-1h0.6v0.1h-0.4v0.3h0.4V34.5z"/>
		<path class="st0" d="M29.5,34c0.1,0,0.2,0,0.3,0c0.1,0,0.2,0,0.3,0.1c0.1,0,0.1,0.1,0.1,0.2c0,0.1-0.1,0.2-0.2,0.3v0
			c0.1,0,0.1,0.1,0.2,0.2c0,0.1,0.1,0.2,0.1,0.3h-0.1c0,0,0-0.1-0.1-0.2c0-0.1-0.1-0.2-0.2-0.2h-0.1V35h-0.1V34z M29.7,34.5h0.1
			c0.1,0,0.2-0.1,0.2-0.2c0-0.1-0.1-0.2-0.2-0.2c-0.1,0-0.1,0-0.1,0V34.5z"/>
		<path class="st0" d="M31.1,34.7L31,35h-0.1l0.4-1h0.2l0.4,1h-0.1l-0.1-0.3H31.1z M31.4,34.6l-0.1-0.3c0-0.1,0-0.1-0.1-0.2h0
			c0,0.1,0,0.1-0.1,0.2l-0.1,0.3H31.4z"/>
		<path class="st0" d="M32.3,35l0.6-0.8v0h-0.5V34h0.7v0.1l-0.6,0.8v0h0.6V35L32.3,35L32.3,35z"/>
		<path class="st0" d="M34.5,35c-0.1,0-0.2,0.1-0.3,0.1c-0.2,0-0.3,0-0.4-0.1c-0.1-0.1-0.1-0.2-0.1-0.4c0-0.3,0.2-0.5,0.6-0.5
			c0.1,0,0.2,0,0.3,0l0,0.1c-0.1,0-0.1,0-0.2,0c-0.3,0-0.4,0.2-0.4,0.4c0,0.3,0.2,0.4,0.4,0.4c0.1,0,0.1,0,0.2,0v-0.3h-0.2v-0.1h0.3
			V35z"/>
		<path class="st0" d="M36.2,34.5c0,0.4-0.2,0.5-0.5,0.5c-0.3,0-0.5-0.2-0.5-0.5c0-0.3,0.2-0.5,0.5-0.5C36,34,36.2,34.2,36.2,34.5z
			 M35.3,34.5c0,0.2,0.1,0.4,0.3,0.4c0.2,0,0.3-0.2,0.3-0.4c0-0.2-0.1-0.4-0.3-0.4C35.5,34.1,35.3,34.3,35.3,34.5z"/>
		<path class="st0" d="M37.9,35v-0.4L37.6,34h0.2l0.1,0.3c0,0.1,0.1,0.1,0.1,0.2h0c0-0.1,0.1-0.1,0.1-0.2l0.1-0.3h0.2L38,34.6V35
			H37.9z"/>
		<path class="st0" d="M40.4,34.5H40v0.4h0.4V35h-0.6v-1h0.6v0.1H40v0.3h0.4V34.5z"/>
		<path class="st0" d="M41.8,35l-0.1-0.2c-0.1-0.1-0.1-0.1-0.1-0.2h0c0,0.1-0.1,0.1-0.1,0.2L41.3,35h-0.2l0.3-0.5L41.1,34h0.2
			l0.1,0.2c0,0.1,0.1,0.1,0.1,0.2h0c0-0.1,0.1-0.1,0.1-0.2l0.1-0.2h0.2l-0.3,0.5l0.3,0.5H41.8z"/>
		<path class="st0" d="M43.3,35c0,0-0.1,0-0.3,0c-0.3,0-0.5-0.2-0.5-0.5c0-0.3,0.2-0.5,0.5-0.5c0.1,0,0.2,0,0.2,0l0,0.1
			c-0.1,0-0.1,0-0.2,0c-0.2,0-0.4,0.2-0.4,0.4c0,0.3,0.1,0.4,0.4,0.4c0.1,0,0.2,0,0.2,0L43.3,35z"/>
		<path class="st0" d="M44.5,34.5h-0.4v0.4h0.4V35H44v-1h0.6v0.1h-0.4v0.3h0.4V34.5z"/>
		<path class="st0" d="M45.3,34h0.1v0.9h0.4V35h-0.6V34z"/>
		<path class="st0" d="M47.1,34.5h-0.4v0.4h0.4V35h-0.6v-1h0.6v0.1h-0.4v0.3h0.4V34.5z"/>
		<path class="st0" d="M47.9,35v-1H48l0.3,0.5c0.1,0.1,0.1,0.2,0.2,0.3l0,0c0-0.1,0-0.3,0-0.4V34h0.1v1h-0.1l-0.3-0.5
			c-0.1-0.1-0.1-0.2-0.2-0.3l0,0c0,0.1,0,0.3,0,0.4V35H47.9z"/>
		<path class="st0" d="M50.1,35c0,0-0.1,0-0.3,0c-0.3,0-0.5-0.2-0.5-0.5c0-0.3,0.2-0.5,0.5-0.5c0.1,0,0.2,0,0.2,0l0,0.1
			c-0.1,0-0.1,0-0.2,0c-0.2,0-0.4,0.2-0.4,0.4c0,0.3,0.1,0.4,0.4,0.4c0.1,0,0.2,0,0.2,0L50.1,35z"/>
		<path class="st0" d="M51,34v1h-0.1v-1H51z"/>
		<path class="st0" d="M51.9,34.7L51.8,35h-0.1l0.4-1h0.2l0.4,1h-0.1l-0.1-0.3H51.9z M52.3,34.6l-0.1-0.3c0-0.1,0-0.1-0.1-0.2h0
			c0,0.1,0,0.1-0.1,0.2L52,34.6H52.3z"/>
		<path class="st0" d="M54.7,34.5h-0.4v0.4h0.4V35h-0.6v-1h0.6v0.1h-0.4v0.3h0.4V34.5z"/>
		<path class="st0" d="M55.4,35v-1h0.1l0.3,0.5c0.1,0.1,0.1,0.2,0.2,0.3l0,0c0-0.1,0-0.3,0-0.4V34h0.1v1h-0.1l-0.3-0.5
			c-0.1-0.1-0.1-0.2-0.2-0.3l0,0c0,0.1,0,0.3,0,0.4V35H55.4z"/>
		<path class="st0" d="M57.8,34c0.1,0,0.2,0,0.2,0c0.1,0,0.2,0,0.3,0.1c0.1,0,0.1,0.1,0.1,0.2c0,0.1-0.1,0.2-0.2,0.2v0
			c0.1,0,0.2,0.1,0.2,0.3c0,0.1,0,0.2-0.1,0.2C58.3,35,58.2,35,58,35c-0.1,0-0.2,0-0.2,0V34z M58,34.4h0.1c0.1,0,0.2-0.1,0.2-0.2
			c0-0.1-0.1-0.2-0.2-0.2c-0.1,0-0.1,0-0.1,0V34.4z M58,34.9c0,0,0.1,0,0.1,0c0.1,0,0.3-0.1,0.3-0.2c0-0.1-0.1-0.2-0.3-0.2H58V34.9z
			"/>
		<path class="st0" d="M59.3,34v1h-0.1v-1H59.3z"/>
		<path class="st0" d="M61,34.5c0,0.4-0.2,0.5-0.5,0.5c-0.3,0-0.5-0.2-0.5-0.5c0-0.3,0.2-0.5,0.5-0.5C60.8,34,61,34.2,61,34.5z
			 M60.2,34.5c0,0.2,0.1,0.4,0.3,0.4c0.2,0,0.3-0.2,0.3-0.4c0-0.2-0.1-0.4-0.3-0.4C60.3,34.1,60.2,34.3,60.2,34.5z"/>
		<path class="st0" d="M61.7,34.9c0.1,0,0.1,0.1,0.2,0.1c0.1,0,0.2-0.1,0.2-0.2c0-0.1-0.1-0.2-0.2-0.2c-0.2-0.1-0.3-0.1-0.3-0.3
			c0-0.2,0.1-0.3,0.3-0.3c0.1,0,0.2,0,0.2,0l0,0.1c0,0-0.1,0-0.2,0c-0.1,0-0.2,0.1-0.2,0.2c0,0.1,0.1,0.1,0.2,0.2
			c0.2,0.1,0.3,0.2,0.3,0.3c0,0.2-0.1,0.3-0.4,0.3c-0.1,0-0.2,0-0.3-0.1L61.7,34.9z"/>
		<path class="st0" d="M63.6,34.5h-0.4v0.4h0.4V35H63v-1h0.6v0.1h-0.4v0.3h0.4V34.5z"/>
		<path class="st0" d="M65.1,35C65,35,64.9,35,64.8,35c-0.2,0-0.3,0-0.4-0.1c-0.1-0.1-0.1-0.2-0.1-0.4c0-0.3,0.2-0.5,0.6-0.5
			c0.1,0,0.2,0,0.3,0l0,0.1c-0.1,0-0.1,0-0.2,0c-0.3,0-0.4,0.2-0.4,0.4c0,0.3,0.2,0.4,0.4,0.4c0.1,0,0.1,0,0.2,0v-0.3h-0.2v-0.1h0.3
			V35z"/>
		<path class="st0" d="M66,34v0.6c0,0.2,0.1,0.3,0.2,0.3c0.2,0,0.3-0.1,0.3-0.3V34h0.1v0.6c0,0.3-0.2,0.4-0.4,0.4
			c-0.2,0-0.4-0.1-0.4-0.4V34H66z"/>
		<path class="st0" d="M67.4,34c0.1,0,0.2,0,0.3,0c0.1,0,0.2,0,0.3,0.1c0.1,0,0.1,0.1,0.1,0.2c0,0.1-0.1,0.2-0.2,0.3v0
			c0.1,0,0.1,0.1,0.2,0.2c0,0.1,0.1,0.2,0.1,0.3h-0.1c0,0,0-0.1-0.1-0.2c0-0.1-0.1-0.2-0.2-0.2h-0.1V35h-0.1V34z M67.5,34.5h0.1
			c0.1,0,0.2-0.1,0.2-0.2c0-0.1-0.1-0.2-0.2-0.2c-0.1,0-0.1,0-0.1,0V34.5z"/>
		<path class="st0" d="M68.9,34v1h-0.1v-1H68.9z"/>
		<path class="st0" d="M69.7,34c0.1,0,0.2,0,0.3,0c0.2,0,0.3,0,0.4,0.1c0.1,0.1,0.1,0.2,0.1,0.4c0,0.2-0.1,0.3-0.1,0.4
			C70.3,35,70.1,35,69.9,35c-0.1,0-0.2,0-0.2,0V34z M69.8,34.9c0,0,0.1,0,0.1,0c0.3,0,0.4-0.2,0.4-0.4c0-0.2-0.1-0.4-0.4-0.4
			c-0.1,0-0.1,0-0.2,0V34.9z"/>
		<path class="st0" d="M71.4,34.7L71.3,35h-0.1l0.4-1h0.2l0.4,1h-0.1l-0.1-0.3H71.4z M71.7,34.6l-0.1-0.3c0-0.1,0-0.1-0.1-0.2h0
			c0,0.1,0,0.1-0.1,0.2l-0.1,0.3H71.7z"/>
		<path class="st0" d="M72.7,34c0.1,0,0.2,0,0.3,0c0.2,0,0.3,0,0.4,0.1c0.1,0.1,0.1,0.2,0.1,0.4c0,0.2-0.1,0.3-0.1,0.4
			C73.3,35,73.1,35,72.9,35c-0.1,0-0.2,0-0.2,0V34z M72.8,34.9c0,0,0.1,0,0.1,0c0.3,0,0.4-0.2,0.4-0.4c0-0.2-0.1-0.4-0.4-0.4
			c-0.1,0-0.1,0-0.2,0V34.9z"/>
	</g>
	<rect x="9.4" y="24.6" class="st1" width="5.7" height="11.4"/>
	<rect x="15.5" y="24.6" class="st2" width="5.7" height="11.4"/>
	<polygon class="st3" points="17.1,27.2 17.1,26.5 13.4,26.5 13.4,27.2 14.6,27.2 14.6,33.3 13.4,33.3 13.4,34 17.1,34 17.1,33.3 
		15.9,33.3 15.9,27.2 	"/>
</g>
<g>
	<path class="st4" d="M231.1,36.4c0,0,1.7-0.1,2.4-0.3c0.3-0.1,0.5-0.2,0.8-0.4c0.2-0.2,0.4-0.4,0.4-0.7c0.1-0.3,0.1-0.5,0-0.7
		c-0.1-0.3-0.2-0.5-0.5-0.7c-0.4-0.3-0.9-0.6-1.7-0.9c-0.8-0.4-1.3-0.6-1.5-0.7c-0.4-0.3-0.7-0.7-0.7-1.1c-0.1-0.4-0.1-0.7,0-1.1
		c0.1-0.4,0.3-0.7,0.6-0.8c0.3-0.3,0.7-0.2,1-0.3c0.4-0.1,0.7-0.3,1.1-0.2c0.4,0.1,0.8,0.4,1.3,0.7c0,0-1.2-0.1-1.4-0.2
		c-0.3-0.1-0.6,0.2-0.8,0.3c-0.4,0.1-0.6,0.3-0.7,0.5c-0.2,0.3-0.2,0.5-0.1,0.8c0,0.2,0.1,0.4,0.3,0.5c0.1,0.1,0.3,0.3,0.6,0.4
		c0.1,0.1,0.6,0.3,1.2,0.6c0.8,0.4,1.5,0.7,1.8,1.1c0.4,0.4,0.6,0.7,0.7,1.1c0.2,0.6,0,1.2-0.3,1.7c-0.4,0.6-0.8,0.8-1.5,0.9
		c-0.5,0.1-0.9,0.3-1.4,0.1C231.8,36.7,231.6,36.9,231.1,36.4"/>
	<path class="st4" d="M235.6,29.1l-0.5,0.7c-0.5-0.4-1-0.6-1.5-0.8c-0.6-0.1-1.1-0.1-1.7,0c-0.7,0.2-1.2,0.5-1.7,0.9
		c-0.5,0.4-0.7,1-0.9,1.5c-0.2,0.6-0.2,1.2,0,1.9c0.3,1,0.8,1.7,1.7,2.2c0.8,0.5,1.8,0.6,2.8,0.4c1.1-0.3,1.9-0.6,1.3-0.2
		c-0.5,0.4,0,0.5-1.2,0.9c-1.4,0.5-2.6,0.2-3.7-0.6c-0.9-0.6-1.5-1.5-1.8-2.6c-0.3-1.2-0.1-2.2,0.5-3.3c0.6-1.1,1.5-1.7,2.8-2
		c0.7-0.2,1.5-0.2,2.2-0.1C234.4,28.4,235,28.7,235.6,29.1"/>
	<path class="st4" d="M232.4,33.9c0.4,0,0.7,0.3,0.7,0.7s-0.3,0.7-0.7,0.7c-0.4,0-0.7-0.3-0.7-0.7S232.1,33.9,232.4,33.9"/>
	<path class="st4" d="M242.6,30l-0.4,0.3c-0.2-0.3-0.5-0.5-0.7-0.6c-0.3-0.1-0.6-0.2-0.9-0.2c-0.4,0-0.7,0.1-1.1,0.3
		c-0.4,0.2-0.6,0.4-0.7,0.8c-0.2,0.3-0.3,0.7-0.3,1.1c0,0.6,0.2,1.1,0.6,1.5c0.4,0.4,0.9,0.6,1.5,0.6c0.7,0,1.2-0.3,1.7-0.8l0.4,0.3
		c-0.3,0.3-0.5,0.5-0.9,0.7c-0.4,0.2-0.7,0.3-1.2,0.3c-0.8,0-1.5-0.3-2-0.8c-0.4-0.5-0.6-1.1-0.6-1.7c0-0.7,0.3-1.3,0.8-1.8
		c0.5-0.5,1.1-0.7,1.9-0.7c0.4,0,0.8,0.1,1.2,0.3C242.1,29.4,242.4,29.6,242.6,30"/>
	<path class="st4" d="M246.5,29c0.8,0,1.3,0.3,1.8,0.7c0.5,0.5,0.8,1.1,0.8,1.8c0,0.7-0.3,1.3-0.8,1.8c-0.5,0.5-1.1,0.7-1.8,0.7
		c-0.7,0-1.3-0.3-1.8-0.7c-0.5-0.5-0.7-1.1-0.7-1.8c0-0.5,0.1-0.8,0.4-1.3c0.2-0.4,0.5-0.7,0.9-0.9C245.7,29,246,29,246.5,29
		 M246.5,29.5c-0.4,0-0.7,0.1-1,0.3c-0.3,0.2-0.6,0.4-0.8,0.7c-0.2,0.3-0.3,0.7-0.3,1.1c0,0.6,0.2,1.1,0.6,1.4
		c0.4,0.4,0.8,0.6,1.4,0.6c0.4,0,0.8-0.1,1.1-0.3c0.3-0.2,0.6-0.4,0.7-0.7c0.2-0.3,0.3-0.7,0.3-1.1c0-0.4-0.1-0.7-0.3-1.1
		c-0.2-0.3-0.4-0.6-0.7-0.8C247.2,29.5,246.9,29.5,246.5,29.5"/>
	<polygon class="st4" points="250.4,33.8 251.1,29.1 251.2,29.1 253.2,33 255.1,29.1 255.2,29.1 255.9,33.8 255.4,33.8 254.9,30.4 
		253.2,33.8 253,33.8 251.3,30.4 250.8,33.8 	"/>
	<path class="st4" d="M259.7,29c0.7,0,1.3,0.3,1.8,0.7c0.5,0.5,0.7,1.1,0.7,1.8c0,0.7-0.3,1.3-0.7,1.8c-0.5,0.5-1.1,0.7-1.8,0.7
		c-0.7,0-1.3-0.3-1.8-0.7c-0.5-0.5-0.7-1.1-0.7-1.8c0-0.5,0.1-0.8,0.4-1.3c0.2-0.4,0.5-0.7,0.9-0.9C258.9,29,259.3,29,259.7,29
		 M259.7,29.5c-0.4,0-0.7,0.1-1,0.3c-0.3,0.2-0.6,0.4-0.7,0.7c-0.2,0.3-0.3,0.7-0.3,1.1c0,0.6,0.2,1.1,0.6,1.4
		c0.4,0.4,0.8,0.6,1.4,0.6c0.4,0,0.7-0.1,1.1-0.3c0.3-0.2,0.6-0.4,0.7-0.7c0.2-0.3,0.3-0.7,0.3-1.1c0-0.4-0.1-0.7-0.3-1.1
		c-0.2-0.3-0.4-0.6-0.7-0.8C260.5,29.5,260.1,29.5,259.7,29.5"/>
	<polygon class="st4" points="263.4,29.6 263.4,29.1 266.1,29.1 266.1,29.6 265,29.6 265,33.9 264.5,33.9 264.5,29.6 	"/>
	<polygon class="st4" points="266.9,29.6 266.9,29.1 269.6,29.1 269.6,29.6 268.5,29.6 268.5,33.9 268,33.9 268,29.6 	"/>
	<path class="st4" d="M273.1,29c0.8,0,1.3,0.3,1.8,0.7c0.5,0.5,0.7,1.1,0.7,1.8c0,0.7-0.3,1.3-0.7,1.8c-0.5,0.5-1.1,0.7-1.8,0.7
		c-0.7,0-1.3-0.3-1.8-0.7c-0.5-0.5-0.8-1.1-0.8-1.8c0-0.5,0.1-0.8,0.4-1.3c0.2-0.4,0.5-0.7,0.9-0.9C272.3,29,272.7,29,273.1,29
		 M273.2,29.5c-0.4,0-0.7,0.1-1,0.3c-0.3,0.2-0.6,0.4-0.8,0.7c-0.2,0.3-0.3,0.7-0.3,1.1c0,0.6,0.2,1.1,0.6,1.4
		c0.4,0.4,0.8,0.6,1.4,0.6c0.4,0,0.7-0.1,1.1-0.3c0.3-0.2,0.6-0.4,0.8-0.7c0.2-0.3,0.3-0.7,0.3-1.1c0-0.4-0.1-0.7-0.3-1.1
		c-0.2-0.3-0.4-0.6-0.8-0.8C273.9,29.5,273.5,29.5,273.2,29.5"/>
	<path class="st4" d="M282.4,32.7l0.2,0.3c-0.1,0.1-0.3,0.3-0.4,0.4c0.1,0.1,0.2,0.2,0.4,0.4c0.1,0.1,0.2,0.2,0.3,0.3h-0.5l-0.4-0.5
		c-0.3,0.2-0.5,0.4-0.7,0.4c-0.2,0.1-0.4,0.1-0.6,0.1c-0.3,0-0.5-0.1-0.6-0.2c-0.2-0.1-0.2-0.4-0.2-0.6c0-0.2,0-0.4,0.2-0.5
		c0.1-0.2,0.3-0.4,0.7-0.7c-0.2-0.2-0.3-0.4-0.4-0.5c0-0.1-0.1-0.2-0.1-0.3c0-0.2,0-0.3,0.2-0.4c0.1-0.1,0.4-0.2,0.6-0.2
		c0.1,0,0.3,0,0.4,0.1s0.2,0.1,0.3,0.2c0,0.1,0.1,0.2,0.1,0.3c0,0.1,0,0.2-0.1,0.4c-0.1,0.1-0.2,0.3-0.5,0.5l0.5,0.5l0.4,0.4
		C282.1,32.9,282.3,32.8,282.4,32.7 M280.9,32.3c-0.3,0.2-0.5,0.4-0.6,0.5c-0.1,0.1-0.1,0.3-0.1,0.4c0,0.1,0,0.3,0.2,0.4
		c0.1,0.1,0.3,0.1,0.4,0.1c0.1,0,0.2,0,0.4-0.1c0.2-0.1,0.4-0.2,0.6-0.4l-0.5-0.6C281,32.5,280.9,32.5,280.9,32.3 M280.9,31.9
		c0.2-0.1,0.3-0.3,0.4-0.4c0-0.1,0.1-0.2,0.1-0.2c0-0.1,0-0.1-0.1-0.2c-0.1-0.1-0.2-0.1-0.3-0.1c-0.1,0-0.2,0-0.3,0.1
		c-0.1,0-0.1,0.1-0.1,0.2c0,0,0,0.1,0,0.2C280.6,31.6,280.8,31.7,280.9,31.9"/>
	<path class="st4" d="M287.5,33l0.4-0.3c0.3,0.5,0.6,0.7,1,0.7c0.2,0,0.3,0,0.4-0.1c0.2-0.1,0.3-0.2,0.3-0.3
		c0.1-0.1,0.1-0.3,0.1-0.4c0-0.2,0-0.3-0.2-0.5c-0.1-0.2-0.4-0.5-0.8-0.8c-0.4-0.3-0.7-0.5-0.7-0.7c-0.2-0.2-0.3-0.5-0.3-0.8
		c0-0.2,0-0.4,0.1-0.6c0.1-0.2,0.3-0.3,0.4-0.4c0.2-0.1,0.4-0.1,0.6-0.1c0.2,0,0.4,0,0.7,0.2c0.2,0.1,0.4,0.3,0.6,0.6l-0.4,0.3
		c-0.2-0.3-0.4-0.4-0.5-0.5c-0.1-0.1-0.3-0.1-0.4-0.1c-0.2,0-0.4,0-0.5,0.2c-0.1,0.1-0.2,0.3-0.2,0.4c0,0.1,0,0.2,0.1,0.3
		c0,0.1,0.1,0.2,0.2,0.3c0,0,0.3,0.2,0.6,0.5c0.4,0.3,0.7,0.6,0.8,0.8c0.2,0.3,0.2,0.5,0.2,0.7c0,0.4-0.1,0.7-0.4,0.9
		c-0.3,0.3-0.6,0.4-0.9,0.4c-0.3,0-0.6-0.1-0.7-0.2C288,33.6,287.7,33.4,287.5,33"/>
	<path class="st4" d="M294.3,29c0.8,0,1.3,0.3,1.8,0.7c0.5,0.5,0.7,1.1,0.7,1.8c0,0.7-0.3,1.3-0.7,1.8c-0.5,0.5-1.1,0.7-1.8,0.7
		c-0.7,0-1.3-0.3-1.8-0.7c-0.5-0.5-0.7-1.1-0.7-1.8c0-0.5,0.1-0.8,0.4-1.3c0.2-0.4,0.5-0.7,0.9-0.9C293.4,29,293.8,29,294.3,29
		 M294.3,29.5c-0.4,0-0.7,0.1-1,0.3c-0.3,0.2-0.6,0.4-0.8,0.7c-0.2,0.3-0.3,0.7-0.3,1.1c0,0.6,0.2,1.1,0.6,1.4
		c0.4,0.4,0.8,0.6,1.4,0.6c0.4,0,0.8-0.1,1.1-0.3c0.3-0.2,0.6-0.4,0.7-0.7c0.2-0.3,0.3-0.7,0.3-1.1c0-0.4-0.1-0.7-0.3-1.1
		c-0.2-0.3-0.4-0.6-0.7-0.8C295,29.5,294.7,29.5,294.3,29.5"/>
	<polygon class="st4" points="298.2,33.8 298.9,29.1 299,29.1 301,33 302.9,29.1 303,29.1 303.7,33.8 303.2,33.8 302.7,30.4 
		301,33.8 300.8,33.8 299.1,30.4 298.6,33.8 	"/>
	<polygon class="st4" points="305,33.8 305.7,29.1 305.8,29.1 307.8,33 309.7,29.1 309.8,29.1 310.5,33.8 310,33.8 309.5,30.4 
		307.8,33.8 307.6,33.8 305.9,30.4 305.4,33.8 	"/>
	<polygon class="st4" points="312,29.1 314.7,29.1 314.7,29.6 312.5,29.6 312.5,31.1 314.7,31.1 314.7,31.5 312.5,31.5 312.5,33.4 
		314.7,33.4 314.7,33.9 312,33.9 	"/>
	<path class="st4" d="M316.2,29.1h0.9c0.5,0,0.9,0,1.1,0.1c0.3,0.1,0.5,0.2,0.7,0.4c0.2,0.2,0.3,0.5,0.3,0.7c0,0.3,0,0.5-0.2,0.7
		c-0.1,0.2-0.3,0.4-0.5,0.4c-0.2,0.1-0.6,0.2-0.9,0.2l1.7,2.2h-0.6l-1.7-2.2h-0.3v2.2h-0.5V29.1z M316.7,29.6v1.7h0.8
		c0.3,0,0.6,0,0.7-0.1c0.2,0,0.3-0.2,0.4-0.3c0.1-0.1,0.1-0.3,0.1-0.4c0-0.2,0-0.3-0.1-0.4c-0.1-0.1-0.2-0.2-0.4-0.3
		c-0.1,0-0.4-0.1-0.7-0.1L316.7,29.6z"/>
	<path class="st5" d="M237.8,37l0.2-0.1c0.1,0.3,0.3,0.4,0.5,0.4c0.1,0,0.2,0,0.2,0c0.1,0,0.1-0.1,0.2-0.2c0-0.1,0-0.1,0-0.2
		c0-0.1,0-0.2-0.1-0.3c-0.1-0.1-0.2-0.3-0.4-0.4c-0.2-0.2-0.4-0.3-0.4-0.4c-0.1-0.1-0.1-0.3-0.1-0.4c0-0.1,0-0.2,0.1-0.3
		c0-0.1,0.1-0.2,0.2-0.2c0.1,0,0.2-0.1,0.3-0.1c0.1,0,0.2,0,0.4,0.1c0.1,0,0.2,0.2,0.4,0.3l-0.2,0.2c-0.1-0.1-0.2-0.2-0.3-0.3
		c-0.1,0-0.1,0-0.2,0c-0.1,0-0.2,0-0.3,0.1c0,0-0.1,0.1-0.1,0.2c0,0,0,0.1,0,0.2c0,0,0,0.1,0.1,0.2c0,0,0.1,0.1,0.3,0.3
		c0.2,0.2,0.4,0.3,0.4,0.4c0.1,0.2,0.1,0.3,0.1,0.4c0,0.2-0.1,0.4-0.2,0.5c-0.1,0.1-0.3,0.2-0.5,0.2c-0.2,0-0.3,0-0.4-0.1
		C238,37.3,237.9,37.1,237.8,37"/>
	<polygon class="st5" points="240.1,34.9 241.5,34.9 241.5,35.2 240.3,35.2 240.3,36 241.5,36 241.5,36.2 240.3,36.2 240.3,37.2 
		241.5,37.2 241.5,37.5 240.1,37.5 	"/>
	<path class="st5" d="M242.4,34.9h0.5c0.3,0,0.5,0,0.6,0c0.1,0,0.3,0.1,0.4,0.2c0.1,0.1,0.1,0.3,0.1,0.4c0,0.1,0,0.3-0.1,0.4
		c0,0.1-0.2,0.2-0.3,0.2c-0.1,0-0.3,0.1-0.5,0.1l0.9,1.2h-0.3l-0.9-1.2h-0.1v1.2h-0.3L242.4,34.9L242.4,34.9z M242.6,35.2V36h0.4
		c0.2,0,0.3,0,0.4,0c0.1,0,0.1-0.1,0.2-0.2c0-0.1,0.1-0.1,0.1-0.2c0-0.1,0-0.2-0.1-0.2c0-0.1-0.1-0.1-0.2-0.1c-0.1,0-0.2,0-0.4,0
		H242.6z"/>
	<polygon class="st5" points="244.5,34.9 244.7,34.9 245.5,36.9 246.4,34.9 246.6,34.9 245.5,37.5 245.5,37.5 	"/>
	<rect x="247.5" y="34.9" class="st5" width="0.3" height="2.5"/>
	<path class="st5" d="M251,35.4l-0.2,0.2c-0.1-0.1-0.3-0.3-0.4-0.3c-0.2-0.1-0.3-0.1-0.5-0.1c-0.3,0-0.4,0-0.6,0.1
		c-0.2,0.1-0.3,0.2-0.4,0.4c-0.1,0.2-0.1,0.4-0.1,0.6c0,0.3,0.1,0.6,0.3,0.8c0.2,0.2,0.5,0.3,0.8,0.3c0.4,0,0.7-0.1,0.8-0.4l0.2,0.1
		c-0.1,0.2-0.3,0.3-0.5,0.4c-0.2,0.1-0.4,0.1-0.6,0.1c-0.4,0-0.7-0.1-1.1-0.4c-0.2-0.3-0.3-0.6-0.3-0.9c0-0.3,0.1-0.7,0.4-0.9
		c0.3-0.3,0.6-0.4,0.9-0.4c0.2,0,0.4,0,0.7,0.1C250.7,35.1,250.8,35.2,251,35.4"/>
	<rect x="251.8" y="34.9" class="st5" width="0.3" height="2.5"/>
	<path class="st5" d="M254.1,34.9c0.4,0,0.7,0.1,0.9,0.4c0.3,0.3,0.4,0.6,0.4,0.9c0,0.4-0.1,0.7-0.4,0.9c-0.3,0.3-0.6,0.4-0.9,0.4
		c-0.4,0-0.7-0.1-0.9-0.4c-0.3-0.3-0.4-0.6-0.4-0.9c0-0.3,0-0.5,0.2-0.7c0.1-0.2,0.3-0.4,0.5-0.5C253.7,34.9,253.9,34.9,254.1,34.9
		 M254.1,35.1c-0.2,0-0.4,0-0.5,0.1c-0.2,0.1-0.3,0.2-0.4,0.4c-0.1,0.2-0.1,0.4-0.1,0.6c0,0.3,0.1,0.6,0.3,0.7
		c0.2,0.2,0.5,0.3,0.7,0.3c0.2,0,0.4,0,0.6-0.1c0.2-0.1,0.3-0.2,0.4-0.4c0.1-0.2,0.1-0.4,0.1-0.6c0-0.2,0-0.4-0.1-0.5
		c-0.1-0.2-0.2-0.3-0.4-0.4C254.5,35.2,254.3,35.1,254.1,35.1"/>
	<path class="st5" d="M256.1,37l0.2-0.1c0.1,0.3,0.3,0.4,0.5,0.4c0.1,0,0.2,0,0.2,0c0.1,0,0.1-0.1,0.2-0.2c0-0.1,0-0.1,0-0.2
		c0-0.1,0-0.2-0.1-0.3c-0.1-0.1-0.2-0.3-0.4-0.4c-0.2-0.2-0.4-0.3-0.4-0.4c-0.1-0.1-0.1-0.3-0.1-0.4c0-0.1,0-0.2,0.1-0.3
		c0-0.1,0.1-0.2,0.2-0.2c0.1,0,0.2-0.1,0.3-0.1c0.1,0,0.2,0,0.4,0.1c0.1,0,0.2,0.2,0.4,0.3l-0.2,0.2c-0.1-0.1-0.2-0.2-0.3-0.3
		c-0.1,0-0.1,0-0.2,0c-0.1,0-0.2,0-0.3,0.1c0,0-0.1,0.1-0.1,0.2c0,0,0,0.1,0,0.2c0,0,0,0.1,0.1,0.2c0,0,0.1,0.1,0.3,0.3
		c0.2,0.2,0.4,0.3,0.4,0.4c0.1,0.1,0.1,0.3,0.1,0.4c0,0.2-0.1,0.4-0.2,0.5c-0.1,0.1-0.3,0.2-0.5,0.2c-0.2,0-0.3,0-0.4-0.1
		C256.3,37.3,256.2,37.1,256.1,37"/>
	<rect x="259.7" y="34.9" class="st5" width="0.3" height="2.5"/>
	<polygon class="st5" points="260.8,37.5 260.8,34.9 260.9,34.9 262.6,36.8 262.6,34.9 262.9,34.9 262.9,37.5 262.8,37.5 
		261.1,35.6 261.1,37.5 	"/>
	<polygon class="st5" points="263.5,35.2 263.5,34.9 264.9,34.9 264.9,35.2 264.3,35.2 264.3,37.4 264.1,37.4 264.1,35.2 	"/>
	<polygon class="st5" points="265.6,34.9 267,34.9 267,35.2 265.8,35.2 265.8,36 267,36 267,36.2 265.8,36.2 265.8,37.2 267,37.2 
		267,37.5 265.6,37.5 	"/>
	<path class="st5" d="M270.3,35.4l-0.2,0.2c-0.1-0.1-0.3-0.3-0.5-0.3c-0.2-0.1-0.4-0.1-0.5-0.1c-0.2,0-0.4,0-0.6,0.1
		c-0.2,0.1-0.3,0.2-0.4,0.4c-0.1,0.2-0.1,0.4-0.1,0.5c0,0.2,0,0.4,0.2,0.5c0.1,0.2,0.3,0.3,0.4,0.4c0.2,0.1,0.4,0.1,0.6,0.1
		c0.3,0,0.5-0.1,0.7-0.2c0.2-0.1,0.3-0.4,0.3-0.6h-0.8v-0.3h1.1c0,0.4-0.1,0.7-0.4,0.9c-0.3,0.2-0.5,0.4-0.9,0.4
		c-0.5,0-0.8-0.2-1.1-0.5c-0.2-0.3-0.3-0.5-0.3-0.8c0-0.2,0-0.5,0.2-0.7c0.1-0.2,0.3-0.4,0.5-0.5c0.2-0.1,0.4-0.2,0.7-0.2
		c0.2,0,0.4,0,0.6,0.1C269.9,35.1,270.1,35.2,270.3,35.4"/>
	<path class="st5" d="M271.2,34.9h0.5c0.3,0,0.5,0,0.6,0c0.1,0,0.3,0.1,0.4,0.2c0.1,0.1,0.1,0.3,0.1,0.4c0,0.1,0,0.3-0.1,0.4
		c0,0.1-0.2,0.2-0.3,0.2c-0.1,0-0.3,0.1-0.5,0.1l0.9,1.2h-0.3l-0.9-1.2h-0.2v1.2h-0.3V34.9z M271.5,35.2V36h0.4c0.2,0,0.3,0,0.4,0
		c0.1,0,0.1-0.1,0.2-0.2c0-0.1,0.1-0.1,0.1-0.2c0-0.1,0-0.2-0.1-0.2c0-0.1-0.1-0.1-0.2-0.1c-0.1,0-0.2,0-0.4,0H271.5z"/>
	<path class="st5" d="M274.7,34.9l1.2,2.5h-0.3l-0.4-0.8h-1.1l-0.4,0.8h-0.3L274.7,34.9z M274.6,35.5l-0.4,0.9h0.8L274.6,35.5z"/>
	<polygon class="st5" points="276.6,34.9 276.8,34.9 276.8,37.2 277.8,37.2 277.8,37.5 276.5,37.5 	"/>
	<polygon class="st5" points="278.6,34.9 280,34.9 280,35.2 278.8,35.2 278.8,36 280,36 280,36.2 278.8,36.2 278.8,37.2 280,37.2 
		280,37.5 278.6,37.5 	"/>
	<path class="st5" d="M280.5,37l0.2-0.1c0.1,0.3,0.3,0.4,0.5,0.4c0.1,0,0.2,0,0.2,0c0.1,0,0.1-0.1,0.2-0.2c0-0.1,0-0.1,0-0.2
		c0-0.1,0-0.2-0.1-0.3c-0.1-0.1-0.2-0.3-0.4-0.4c-0.2-0.2-0.4-0.3-0.4-0.4c-0.1-0.1-0.1-0.3-0.1-0.4c0-0.1,0-0.2,0.1-0.3
		c0,0,0.1-0.2,0.2-0.2c0.1,0,0.2-0.1,0.3-0.1c0.1,0,0.2,0,0.4,0.1c0.1,0,0.2,0.2,0.4,0.3l-0.2,0.2c-0.1-0.1-0.2-0.2-0.3-0.3
		c-0.1,0-0.1,0-0.2,0c-0.1,0-0.2,0-0.3,0.1c0,0-0.1,0.1-0.1,0.2c0,0,0,0.1,0,0.2c0,0,0,0.1,0.1,0.2c0,0,0.1,0.1,0.3,0.3
		c0.2,0.2,0.4,0.3,0.4,0.4c0.1,0.1,0.1,0.3,0.1,0.4c0,0.2-0.1,0.4-0.2,0.5c-0.1,0.1-0.3,0.2-0.5,0.2c-0.2,0-0.3,0-0.4-0.1
		C280.8,37.3,280.6,37.1,280.5,37"/>
	<path class="st5" d="M284.2,37.5v-2.5h0.5c0.4,0,0.7,0,0.8,0.1c0.3,0.1,0.4,0.2,0.6,0.4c0.1,0.2,0.2,0.5,0.2,0.8
		c0,0.3,0,0.5-0.2,0.7c-0.1,0.2-0.3,0.4-0.4,0.4c-0.2,0.1-0.4,0.1-0.8,0.1H284.2z M284.4,37.2h0.3c0.4,0,0.6,0,0.8,0
		c0.2,0,0.4-0.2,0.4-0.4c0.1-0.2,0.2-0.4,0.2-0.6c0-0.3,0-0.4-0.2-0.6c-0.1-0.2-0.3-0.3-0.5-0.4c-0.2,0-0.4-0.1-0.8-0.1h-0.2
		L284.4,37.2z"/>
	<polygon class="st5" points="287.1,34.9 288.5,34.9 288.5,35.2 287.3,35.2 287.3,36 288.5,36 288.5,36.2 287.3,36.2 287.3,37.2 
		288.5,37.2 288.5,37.5 287.1,37.5 	"/>
	<path class="st5" d="M291.7,34.9l1.2,2.5h-0.3l-0.4-0.8h-1.1l-0.4,0.8h-0.3L291.7,34.9z M291.7,35.5l-0.4,0.9h0.8L291.7,35.5z"/>
	<path class="st5" d="M293.6,34.9h0.5c0.3,0,0.5,0,0.6,0c0.1,0,0.3,0.1,0.4,0.2c0.1,0.1,0.1,0.3,0.1,0.4c0,0.1,0,0.3-0.1,0.4
		c0,0.1-0.2,0.2-0.3,0.2c-0.1,0-0.3,0.1-0.5,0.1l0.9,1.2H295l-0.9-1.2H294v1.2h-0.2V35L293.6,34.9z M293.9,35.2V36h0.4
		c0.2,0,0.3,0,0.4,0c0.1,0,0.1-0.1,0.2-0.2c0-0.1,0.1-0.1,0.1-0.2c0-0.1,0-0.2-0.1-0.2c0-0.1-0.1-0.1-0.2-0.1c-0.1,0-0.2,0-0.4,0
		H293.9z"/>
	<path class="st5" d="M298.1,37.1l0.4,0.5h-0.3l-0.3-0.4c-0.2,0.1-0.4,0.2-0.7,0.2c-0.4,0-0.7-0.1-0.9-0.4c-0.3-0.3-0.4-0.6-0.4-0.9
		c0-0.3,0-0.5,0.2-0.7c0.1-0.2,0.3-0.4,0.5-0.5c0.2-0.1,0.4-0.2,0.7-0.2c0.4,0,0.7,0.1,0.9,0.4c0.3,0.3,0.4,0.6,0.4,0.9
		c0,0.2,0,0.4-0.1,0.5C298.5,36.8,298.3,37,298.1,37.1 M298,37c0.2-0.2,0.4-0.5,0.4-0.7c0-0.2,0-0.4-0.1-0.5
		c-0.1-0.2-0.2-0.3-0.4-0.4c-0.2-0.1-0.4-0.1-0.5-0.1c-0.2,0-0.4,0-0.5,0.1c-0.2,0.1-0.3,0.2-0.4,0.4c-0.1,0.2-0.1,0.4-0.1,0.6
		c0,0.3,0.1,0.6,0.3,0.8c0.2,0.2,0.5,0.3,0.8,0.3c0.2,0,0.4,0,0.6-0.1l-0.6-0.7h0.3L298,37z"/>
	<path class="st5" d="M299.4,34.9h0.3v1.5v0.4c0,0.1,0,0.2,0.1,0.3c0,0.1,0.1,0.1,0.2,0.2c0.1,0,0.2,0.1,0.3,0.1c0.1,0,0.2,0,0.3,0
		c0.1,0,0.1-0.1,0.2-0.1c0,0,0.1-0.1,0.1-0.2c0,0,0-0.2,0-0.4V35h0.3v1.5c0,0.2,0,0.4-0.1,0.6c0,0.1-0.1,0.3-0.3,0.4
		c-0.1,0.1-0.3,0.2-0.5,0.2c-0.2,0-0.4,0-0.5-0.1c-0.1-0.1-0.3-0.2-0.3-0.4c0-0.1,0-0.3,0-0.5L299.4,34.9z"/>
	<rect x="302" y="34.9" class="st5" width="0.3" height="2.5"/>
	<polygon class="st5" points="303,35.2 303,34.9 304.4,34.9 304.4,35.2 303.8,35.2 303.8,37.4 303.5,37.4 303.5,35.2 	"/>
	<polygon class="st5" points="305.1,34.9 306.5,34.9 306.5,35.2 305.3,35.2 305.3,36 306.5,36 306.5,36.2 305.3,36.2 305.3,37.2 
		306.5,37.2 306.5,37.5 305.1,37.5 	"/>
	<path class="st5" d="M309.6,35.4l-0.2,0.2c-0.1-0.1-0.3-0.3-0.4-0.3c-0.2-0.1-0.3-0.1-0.5-0.1c-0.3,0-0.4,0-0.6,0.1
		c-0.2,0.1-0.3,0.2-0.4,0.4c-0.1,0.2-0.1,0.4-0.1,0.6c0,0.3,0.1,0.6,0.3,0.8c0.2,0.2,0.5,0.3,0.7,0.3c0.4,0,0.7-0.1,0.8-0.4l0.2,0.1
		c-0.1,0.2-0.3,0.3-0.5,0.4c-0.2,0.1-0.4,0.1-0.6,0.1c-0.4,0-0.7-0.1-1.1-0.4c-0.2-0.3-0.3-0.6-0.3-0.9c0-0.3,0.1-0.7,0.4-0.9
		c0.3-0.3,0.6-0.4,0.9-0.4c0.2,0,0.4,0,0.7,0.1C309.3,35.1,309.4,35.2,309.6,35.4"/>
	<polygon class="st5" points="310.2,35.2 310.2,34.9 311.6,34.9 311.6,35.2 311,35.2 311,37.4 310.7,37.4 310.7,35.2 	"/>
	<path class="st5" d="M312.3,34.9h0.3v1.5v0.4c0,0.1,0,0.2,0.1,0.3c0,0.1,0.1,0.1,0.2,0.2c0.1,0,0.2,0.1,0.3,0.1c0.1,0,0.2,0,0.3,0
		c0.1,0,0.1-0.1,0.2-0.1c0,0,0.1-0.1,0.1-0.2c0,0,0-0.2,0-0.4V35h0.3v1.5c0,0.2,0,0.4-0.1,0.6c0,0.1-0.1,0.3-0.3,0.4
		c-0.1,0.1-0.3,0.2-0.5,0.2c-0.2,0-0.4,0-0.5-0.1c-0.1-0.1-0.3-0.2-0.3-0.4c0-0.1,0-0.3,0-0.5L312.3,34.9z"/>
	<path class="st5" d="M314.9,34.9h0.5c0.3,0,0.5,0,0.6,0c0.1,0,0.3,0.1,0.4,0.2c0.1,0.1,0.1,0.3,0.1,0.4c0,0.1,0,0.3-0.1,0.4
		c0,0.1-0.2,0.2-0.3,0.2c-0.1,0-0.3,0.1-0.5,0.1l0.9,1.2h-0.3l-0.9-1.2h-0.1v1.2H315L314.9,34.9L314.9,34.9z M315.2,35.2V36h0.4
		c0.2,0,0.3,0,0.4,0c0.1,0,0.1-0.1,0.2-0.2c0-0.1,0.1-0.1,0.1-0.2c0-0.1,0-0.2-0.1-0.2c0-0.1-0.1-0.1-0.2-0.1c-0.1,0-0.2,0-0.4,0
		H315.2z"/>
	<path class="st5" d="M318.4,34.9l1.2,2.5h-0.3l-0.4-0.8h-1.1l-0.4,0.8h-0.3L318.4,34.9z M318.3,35.5l-0.4,0.9h0.8L318.3,35.5z"/>
</g>
<g>
	<path class="st6" d="M143.5,23.8l-0.6,0l-0.3,0l0-0.1c0-0.1,0.1-0.1,0.2-0.1h6.3c3,0,5,0.9,6.2,2.7c0.7,1,1,2.3,1,3.7
		c0,0.7-0.1,1.5-0.3,2.2c-0.3,0.7-0.6,1.4-1.1,2c-0.5,0.6-1.1,1.1-1.9,1.4c-0.8,0.4-1.6,0.5-2.6,0.5h-8c-0.1,0-0.2,0-0.2-0.1
		c0-0.1,0.1-0.1,0.3-0.1l1.5-0.1c0.2,0,0.4-0.1,0.5-0.2l0.2-0.2c0.1-0.2,0.1-0.4,0.1-0.7v-10c0-0.4-0.2-0.6-0.6-0.7L143.5,23.8z
		 M146.9,24l0,0.3v11.1c0,0.1,0,0.2,0.1,0.2l0.3,0h0.8l1.9-0.1c0.5-0.1,1-0.1,1.3-0.3c0.3-0.1,0.7-0.3,1-0.5
		c0.3-0.2,0.5-0.5,0.8-0.9c0.5-0.6,0.8-1.4,1-2.4c0.1-0.6,0.2-1.2,0.2-1.8c0-0.5-0.1-1.1-0.2-1.7c-0.2-0.9-0.6-1.6-1-2.3
		c-0.9-1.2-2.4-1.9-4.5-1.9h-1.3C147,23.8,146.9,23.9,146.9,24 M157.6,35.9c0-0.1,0-0.1,0.2-0.1l0.4,0c0.2,0,0.4-0.1,0.4-0.2
		l0.1-0.5v-3.6c0-0.1,0-0.2-0.1-0.3l-0.3,0l-0.4,0.1l-0.2,0c0-0.1,0.1-0.1,0.3-0.2c0.5-0.1,1-0.3,1.4-0.5c0.2-0.1,0.4-0.2,0.5-0.2
		l0.2,0c0.1,0,0.1,0.1,0.1,0.4v4.6c0,0.2,0,0.4,0.1,0.5c0.1,0.1,0.4,0.2,0.8,0.2c0.1,0,0.2,0,0.2,0.1c0,0.1,0,0.1-0.1,0.1h-3.3
		C157.6,36,157.6,35.9,157.6,35.9 M172.4,31.4c-0.3,0.3-0.5,0.7-0.6,1.1v2.7c0,0.2,0.1,0.4,0.3,0.5l0.4,0.1l0.4,0
		c0.1,0,0.1,0,0.1,0.1l0,0l-0.1,0h-3.4c-0.1,0-0.2,0-0.2-0.1l0.1-0.1l0.6,0c0.2,0,0.4-0.1,0.4-0.2l0.1-0.3v-3.8l-0.1-0.3l-0.1-0.1
		c0,0-0.1-0.1-0.2-0.1c-0.1,0-0.2,0-0.3,0.1l-0.3,0.1l-0.2,0c0,0,0-0.1,0-0.1l0.3-0.1c0.6-0.2,1.1-0.4,1.5-0.6l0.4-0.2l0.2,0
		l0.1,0.2v1.4c0.5-0.8,0.8-1.2,1.1-1.4c0.2-0.1,0.3-0.2,0.4-0.2l0.2,0c0.1,0,0.3,0,0.5,0.1c0.2,0.1,0.4,0.3,0.4,0.6
		c0,0.2,0,0.4-0.2,0.5c-0.1,0.1-0.3,0.1-0.4,0.1c-0.1,0-0.2-0.1-0.2-0.1l-0.2-0.2c-0.1-0.2-0.3-0.3-0.4-0.2
		C172.8,31,172.6,31.1,172.4,31.4 M159.3,26.2c-0.2,0-0.4,0.1-0.6,0.2c-0.2,0.2-0.3,0.4-0.2,0.6c0,0.2,0.1,0.4,0.2,0.6
		c0.2,0.2,0.3,0.2,0.6,0.2c0.2,0,0.4-0.1,0.6-0.2c0.2-0.2,0.2-0.3,0.2-0.6c0-0.2-0.1-0.4-0.2-0.6C159.7,26.3,159.5,26.2,159.3,26.2
		 M162.6,31.2c0.2-0.3,0.5-0.6,0.8-0.8c0.3-0.2,0.6-0.3,0.9-0.3l1.2-0.1c0.4,0,0.8,0.1,1.2,0.3c0.8,0.4,1.4,1.1,1.6,2.1
		c0.2,1,0,1.9-0.5,2.6c-0.5,0.6-1.1,1-1.9,1.1c-0.8,0.2-1.6,0.1-2.3-0.2c-0.9-0.4-1.4-1.1-1.6-2.1C161.8,32.8,162,31.9,162.6,31.2
		 M166.3,30.9c-0.4-0.4-0.9-0.6-1.5-0.6c-0.6,0.1-1,0.4-1.3,1c-0.3,0.5-0.4,1.2-0.3,2c0.1,0.8,0.3,1.4,0.7,1.9
		c0.4,0.5,0.9,0.7,1.4,0.6c0.6-0.1,1-0.4,1.2-0.9c0.3-0.5,0.4-1.2,0.3-2C166.9,32,166.6,31.4,166.3,30.9"/>
	<polygon class="st6" points="157.5,31.2 157.5,31.3 157.4,31.2 157.4,31.2 157.4,31.3 157.4,31.3 157.4,31.2 157.4,31.2 
		157.4,31.2 157.5,31.2 157.5,31.2 157.5,31.2 	"/>
	<polygon class="st6" points="157.7,31.2 157.7,31.2 157.7,31.2 157.7,31.2 157.7,31.2 157.7,31.2 157.7,31.3 157.7,31.3 
		157.7,31.3 157.6,31.3 157.6,31.2 157.7,31.2 	"/>
	<path class="st6" d="M158.1,31.2L158.1,31.2l-0.1,0.1h0l0-0.1l-0.1,0.1h0c0-0.1-0.1-0.1-0.1-0.1h0l0,0.1l0.1-0.1h0H158.1
		L158.1,31.2L158.1,31.2z"/>
	<polygon class="st6" points="158.3,31.2 158.3,31.3 158.2,31.3 158.2,31.2 158.2,31.2 158.2,31.2 158.3,31.2 158.3,31.2 
		158.3,31.2 	"/>
	<path class="st6" d="M158.4,31.2C158.5,31.2,158.5,31.2,158.4,31.2c0.1,0,0.1,0,0.2,0c0,0,0,0,0,0l0,0
		C158.6,31.3,158.5,31.3,158.4,31.2C158.5,31.3,158.5,31.3,158.4,31.2L158.4,31.2C158.4,31.2,158.4,31.2,158.4,31.2 M158.6,31.2
		L158.6,31.2h-0.1c0,0,0,0,0,0c0,0,0,0,0,0L158.6,31.2C158.5,31.3,158.6,31.3,158.6,31.2C158.6,31.2,158.6,31.2,158.6,31.2
		C158.6,31.2,158.6,31.2,158.6,31.2"/>
	<path class="st6" d="M158.8,31.2L158.8,31.2L158.8,31.2C158.8,31.2,158.8,31.2,158.8,31.2C158.8,31.2,158.8,31.2,158.8,31.2
		L158.8,31.2z M158.8,31.2C158.8,31.2,158.8,31.2,158.8,31.2L158.8,31.2L158.8,31.2l0.1,0.1h0L158.8,31.2L158.8,31.2l0,0.1h0
		L158.8,31.2L158.8,31.2z"/>
	<polygon class="st6" points="159.1,31.2 159,31.2 159.1,31.3 159.1,31.3 159,31.2 159,31.2 159,31.2 159,31.3 159,31.3 159,31.2 
		159,31.2 159,31.2 159,31.2 159.1,31.2 	"/>
</g>
<g id="XMLID_1165_">
	<g id="XMLID_1237_">
		<path id="XMLID_1253_" class="st0" d="M25.7,93.2c-0.2-0.1-0.5-0.2-0.7-0.3c-0.2-0.1-0.4-0.2-0.5-0.4c-0.1-0.2-0.2-0.3-0.3-0.6
			c-0.1-0.2-0.1-0.5-0.1-0.8c0-0.4,0.1-0.7,0.2-1c0.1-0.3,0.3-0.5,0.5-0.7c0.2-0.2,0.5-0.3,0.8-0.4c0.3-0.1,0.7-0.1,1.1-0.1
			c0.4,0,0.7,0,1,0.1c0.3,0.1,0.7,0.2,1,0.3c0,0.4-0.2,0.8-0.3,1.2c-0.1,0-0.2-0.1-0.3-0.1c-0.1,0-0.2-0.1-0.4-0.1
			c-0.1,0-0.3-0.1-0.4-0.1c-0.2,0-0.3,0-0.5,0c-0.1,0-0.2,0-0.4,0c-0.1,0-0.2,0.1-0.3,0.1c-0.1,0.1-0.2,0.1-0.3,0.3
			c-0.1,0.1-0.1,0.3-0.1,0.4c0,0.1,0,0.3,0.1,0.4c0.1,0.1,0.1,0.2,0.2,0.3c0.1,0.1,0.2,0.1,0.3,0.2c0.1,0,0.2,0.1,0.3,0.1l0.7,0.3
			c0.3,0.1,0.5,0.2,0.8,0.3c0.2,0.1,0.4,0.3,0.6,0.4c0.2,0.2,0.3,0.4,0.4,0.6c0.1,0.2,0.1,0.5,0.1,0.9c0,0.4-0.1,0.7-0.2,1
			c-0.1,0.3-0.3,0.6-0.6,0.8c-0.3,0.2-0.6,0.4-0.9,0.5C27,96.9,26.6,97,26.1,97c-0.2,0-0.5,0-0.6,0c-0.2,0-0.4,0-0.5-0.1
			c-0.2,0-0.3-0.1-0.5-0.1c-0.2-0.1-0.3-0.1-0.5-0.2c0-0.2,0.1-0.4,0.1-0.7c0.1-0.2,0.1-0.5,0.2-0.7c0.3,0.1,0.6,0.2,0.9,0.3
			c0.3,0.1,0.6,0.1,0.9,0.1c0.5,0,0.8-0.1,1.1-0.3c0.3-0.2,0.4-0.4,0.4-0.8c0-0.2,0-0.3-0.1-0.4c-0.1-0.1-0.1-0.2-0.2-0.3
			c-0.1-0.1-0.2-0.1-0.3-0.2c-0.1-0.1-0.3-0.1-0.4-0.2L25.7,93.2z"/>
		<path id="XMLID_1251_" class="st0" d="M30.8,89h4.4c0,0.2,0.1,0.4,0.1,0.7c0,0.2,0,0.5-0.1,0.7h-2.8v1.7h2.3
			c0,0.2,0.1,0.5,0.1,0.7c0,0.2,0,0.5-0.1,0.7h-2.3v2.1h2.9c0,0.2,0.1,0.4,0.1,0.7c0,0.2,0,0.5-0.1,0.7h-4.5V89z"/>
		<path id="XMLID_1249_" class="st0" d="M37.2,89c0.3,0,0.6-0.1,0.9-0.1c0.3,0,0.6,0,0.9,0c0.4,0,0.8,0,1.2,0.1
			c0.4,0.1,0.7,0.2,1,0.4c0.3,0.2,0.6,0.4,0.8,0.8c0.2,0.3,0.3,0.7,0.3,1.2c0,0.3,0,0.5-0.1,0.8c-0.1,0.2-0.2,0.4-0.3,0.6
			c-0.1,0.2-0.2,0.3-0.4,0.4c-0.1,0.1-0.3,0.2-0.4,0.3L41,93.5l1.9,3.3c-0.1,0-0.3,0-0.5,0c-0.2,0-0.3,0-0.5,0c-0.3,0-0.5,0-0.8-0.1
			l-2-3.6l0.3-0.1c0.1-0.1,0.2-0.1,0.4-0.2c0.1-0.1,0.3-0.2,0.4-0.3c0.1-0.1,0.2-0.3,0.3-0.4c0.1-0.2,0.1-0.4,0.1-0.6
			c0-0.5-0.1-0.8-0.4-1c-0.3-0.2-0.6-0.3-1-0.3c-0.2,0-0.3,0-0.4,0v6.6c-0.1,0-0.3,0-0.4,0s-0.3,0-0.4,0c-0.1,0-0.3,0-0.4,0
			c-0.1,0-0.3,0-0.4,0V89z"/>
		<path id="XMLID_1246_" class="st0" d="M46.1,89c0.2,0,0.3,0,0.4,0c0.1,0,0.3,0,0.5,0c0.1,0,0.3,0,0.4,0c0.1,0,0.3,0,0.5,0l2.4,7.8
			c-0.3,0-0.6,0.1-0.9,0.1c-0.3,0-0.5,0-0.8-0.1l-0.4-1.6h-2.6l-0.4,1.6c-0.3,0-0.5,0.1-0.8,0.1c-0.3,0-0.5,0-0.8-0.1L46.1,89z
			 M47.8,93.9l-0.9-3.3L46,93.9H47.8z"/>
		<path id="XMLID_1244_" class="st0" d="M51.7,89h4.4c0,0.2,0.1,0.4,0.1,0.7c0,0.2,0,0.5-0.1,0.7h-2.8v1.8h2.3
			c0,0.2,0.1,0.5,0.1,0.7c0,0.2,0,0.5-0.1,0.7h-2.3v3.3c-0.3,0-0.5,0.1-0.8,0.1c-0.3,0-0.5,0-0.8-0.1V89z"/>
		<path id="XMLID_1242_" class="st0" d="M57.8,89c0.3,0,0.5-0.1,0.8-0.1c0.3,0,0.5,0,0.8,0.1v7.8c-0.3,0-0.5,0.1-0.8,0.1
			c-0.3,0-0.5,0-0.8-0.1V89z"/>
		<path id="XMLID_1240_" class="st0" d="M61.5,89c0.2,0,0.4-0.1,0.6-0.1c0.2,0,0.4,0,0.7,0.1l3,5v-5c0.3,0,0.5-0.1,0.8-0.1
			c0.2,0,0.4,0,0.7,0.1v7.8c-0.2,0-0.4,0.1-0.6,0.1c-0.2,0-0.4,0-0.7-0.1l-3-5v5c-0.2,0-0.5,0.1-0.7,0.1c-0.2,0-0.5,0-0.7-0.1V89z"
			/>
		<path id="XMLID_1238_" class="st0" d="M69.3,89c0.3,0,0.5-0.1,0.8-0.1c0.3,0,0.5,0,0.8,0.1v7.8c-0.3,0-0.5,0.1-0.8,0.1
			c-0.3,0-0.5,0-0.8-0.1V89z"/>
	</g>
	<g id="XMLID_1170_">
		<path id="XMLID_1235_" class="st7" d="M25,99.4C25,99.4,25,99.4,25,99.4c0,0.1,0,0.1,0,0.1c0,0-0.1,0-0.2,0.1c-0.1,0-0.1,0-0.2,0
			c-0.1,0-0.2,0-0.3,0c-0.1,0-0.2-0.1-0.2-0.1c-0.1-0.1-0.1-0.1-0.1-0.2c0-0.1,0-0.2,0-0.3c0-0.1,0-0.2,0-0.3c0-0.1,0.1-0.2,0.1-0.2
			c0.1-0.1,0.1-0.1,0.2-0.2c0.1,0,0.2-0.1,0.3-0.1c0.1,0,0.2,0,0.2,0c0.1,0,0.1,0,0.1,0c0,0,0,0,0,0.1c0,0,0,0,0,0.1c0,0,0,0-0.1,0
			c0,0,0,0-0.1,0c0,0-0.1,0-0.1,0s-0.1,0-0.1,0c-0.1,0-0.2,0-0.2,0c-0.1,0-0.1,0.1-0.2,0.1c0,0.1-0.1,0.1-0.1,0.2c0,0.1,0,0.2,0,0.3
			c0,0.1,0,0.2,0,0.3c0,0.1,0.1,0.1,0.1,0.2c0,0.1,0.1,0.1,0.2,0.1c0.1,0,0.1,0,0.2,0c0.1,0,0.1,0,0.2,0C24.9,99.4,25,99.4,25,99.4z
			"/>
		<path id="XMLID_1232_" class="st0" d="M26.3,99.6c-0.1,0-0.2,0-0.3-0.1c-0.1,0-0.1-0.1-0.2-0.2s-0.1-0.2-0.1-0.2
			c0-0.1,0-0.2,0-0.3c0-0.1,0-0.2,0-0.3s0.1-0.2,0.1-0.2c0.1-0.1,0.1-0.1,0.2-0.2c0.1,0,0.2-0.1,0.3-0.1c0.1,0,0.2,0,0.3,0.1
			c0.1,0,0.1,0.1,0.2,0.2c0.1,0.1,0.1,0.1,0.1,0.2c0,0.1,0,0.2,0,0.3c0,0.1,0,0.2,0,0.3c0,0.1-0.1,0.2-0.1,0.2
			c-0.1,0.1-0.1,0.1-0.2,0.2C26.5,99.6,26.4,99.6,26.3,99.6z M26.3,99.5c0.1,0,0.1,0,0.2,0c0.1,0,0.1-0.1,0.1-0.1
			c0-0.1,0.1-0.1,0.1-0.2c0-0.1,0-0.2,0-0.3c0-0.1,0-0.2,0-0.3c0-0.1,0-0.1-0.1-0.2c0-0.1-0.1-0.1-0.1-0.1c-0.1,0-0.1,0-0.2,0
			c-0.1,0-0.1,0-0.2,0c-0.1,0-0.1,0.1-0.1,0.1c0,0.1-0.1,0.1-0.1,0.2c0,0.1,0,0.2,0,0.3c0,0.1,0,0.2,0,0.3c0,0.1,0,0.1,0.1,0.2
			c0,0.1,0.1,0.1,0.1,0.1C26.1,99.5,26.2,99.5,26.3,99.5z"/>
		<path id="XMLID_1230_" class="st0" d="M27.6,98.1C27.7,98.1,27.7,98.1,27.6,98.1C27.7,98.1,27.7,98.1,27.6,98.1c0.1,0,0.1,0,0.1,0
			c0,0,0,0,0,0l0.7,1.2v-1.2c0,0,0,0,0,0c0,0,0,0,0,0c0,0,0,0,0,0c0,0,0,0,0,0v1.5c0,0,0,0,0,0c0,0,0,0,0,0c0,0,0,0,0,0c0,0,0,0,0,0
			l-0.7-1.2v1.2c0,0,0,0,0,0c0,0,0,0,0,0c0,0,0,0,0,0c0,0,0,0,0,0V98.1z"/>
		<path id="XMLID_1228_" class="st0" d="M29.4,99.4C29.5,99.4,29.5,99.4,29.4,99.4c0.1,0,0.1,0,0.1,0c0,0,0.1,0,0.1,0
			c0,0,0.1,0,0.1,0c0.1,0,0.1,0,0.2,0c0,0,0.1,0,0.1-0.1s0.1-0.1,0.1-0.1c0,0,0-0.1,0-0.1c0,0,0-0.1,0-0.1c0,0,0-0.1-0.1-0.1
			c0,0-0.1,0-0.1-0.1c0,0-0.1,0-0.2-0.1c0,0-0.1,0-0.1-0.1c0,0-0.1,0-0.1-0.1c0,0-0.1-0.1-0.1-0.1c0,0,0-0.1,0-0.2
			c0-0.1,0-0.2,0.1-0.3c0.1-0.1,0.2-0.1,0.4-0.1c0,0,0.1,0,0.1,0c0,0,0.1,0,0.1,0c0,0,0.1,0,0.1,0c0,0,0,0,0.1,0c0,0,0,0,0,0.1
			c0,0,0,0,0,0.1c0,0-0.1,0-0.1,0c-0.1,0-0.1,0-0.2,0c-0.1,0-0.2,0-0.2,0.1c0,0-0.1,0.1-0.1,0.2c0,0,0,0.1,0,0.1s0,0.1,0.1,0.1
			c0,0,0.1,0,0.1,0.1c0,0,0.1,0,0.1,0.1c0.1,0,0.1,0,0.2,0.1c0.1,0,0.1,0.1,0.1,0.1c0,0,0.1,0.1,0.1,0.1c0,0,0,0.1,0,0.2
			c0,0.1,0,0.1,0,0.2c0,0.1-0.1,0.1-0.1,0.1c0,0-0.1,0.1-0.2,0.1c-0.1,0-0.1,0-0.2,0c-0.1,0-0.1,0-0.2,0s-0.1,0-0.2,0
			C29.4,99.5,29.4,99.5,29.4,99.4C29.4,99.4,29.4,99.4,29.4,99.4z"/>
		<path id="XMLID_1226_" class="st0" d="M31,98.1C31,98.1,31,98.1,31,98.1C31.1,98.1,31.1,98.1,31,98.1c0.1,0,0.1,0,0.1,0
			c0,0,0,0,0,0V99c0,0.1,0,0.2,0,0.2c0,0.1,0,0.1,0.1,0.1c0,0,0.1,0.1,0.1,0.1c0,0,0.1,0,0.2,0c0.1,0,0.2,0,0.3-0.1
			c0.1-0.1,0.1-0.2,0.1-0.4v-0.9c0,0,0,0,0,0c0,0,0,0,0,0c0,0,0,0,0,0c0,0,0,0,0,0V99c0,0.2,0,0.3-0.1,0.4s-0.2,0.1-0.4,0.1
			c-0.2,0-0.3,0-0.4-0.1C31.1,99.3,31,99.2,31,99V98.1z"/>
		<path id="XMLID_1224_" class="st0" d="M32.8,98.1C32.9,98.1,32.9,98.1,32.8,98.1C32.9,98.1,32.9,98.1,32.8,98.1c0.1,0,0.1,0,0.1,0
			c0,0,0,0,0,0v1.4h0.6c0,0,0,0,0,0c0,0,0,0,0,0c0,0,0,0,0,0c0,0,0,0,0,0h-0.8V98.1z"/>
		<path id="XMLID_1222_" class="st0" d="M34.3,98.2h-0.4c0,0,0,0,0,0s0,0,0,0c0,0,0,0,0,0c0,0,0,0,0,0h0.9c0,0,0,0,0,0c0,0,0,0,0,0
			c0,0,0,0,0,0c0,0,0,0,0,0h-0.4v1.4c0,0,0,0,0,0c0,0,0,0,0,0c0,0,0,0,0,0c0,0,0,0,0,0V98.2z"/>
		<path id="XMLID_1219_" class="st0" d="M36,99.6c-0.1,0-0.2,0-0.3-0.1c-0.1,0-0.1-0.1-0.2-0.2c-0.1-0.1-0.1-0.2-0.1-0.2
			c0-0.1,0-0.2,0-0.3c0-0.1,0-0.2,0-0.3s0.1-0.2,0.1-0.2c0.1-0.1,0.1-0.1,0.2-0.2c0.1,0,0.2-0.1,0.3-0.1c0.1,0,0.2,0,0.3,0.1
			c0.1,0,0.1,0.1,0.2,0.2c0.1,0.1,0.1,0.1,0.1,0.2s0,0.2,0,0.3c0,0.1,0,0.2,0,0.3c0,0.1-0.1,0.2-0.1,0.2c-0.1,0.1-0.1,0.1-0.2,0.2
			C36.2,99.6,36.1,99.6,36,99.6z M36,99.5c0.1,0,0.1,0,0.2,0c0.1,0,0.1-0.1,0.1-0.1c0-0.1,0.1-0.1,0.1-0.2c0-0.1,0-0.2,0-0.3
			c0-0.1,0-0.2,0-0.3c0-0.1,0-0.1-0.1-0.2c0-0.1-0.1-0.1-0.1-0.1c-0.1,0-0.1,0-0.2,0c-0.1,0-0.1,0-0.2,0c-0.1,0-0.1,0.1-0.1,0.1
			c0,0.1-0.1,0.1-0.1,0.2c0,0.1,0,0.2,0,0.3c0,0.1,0,0.2,0,0.3c0,0.1,0,0.1,0.1,0.2c0,0.1,0.1,0.1,0.1,0.1
			C35.9,99.5,35.9,99.5,36,99.5z"/>
		<path id="XMLID_1217_" class="st0" d="M37.4,98.1C37.4,98.1,37.4,98.1,37.4,98.1c0.1,0,0.1,0,0.1,0c0,0,0,0,0.1,0c0,0,0.1,0,0.1,0
			c0.1,0,0.1,0,0.2,0c0.1,0,0.1,0,0.2,0.1c0.1,0,0.1,0.1,0.1,0.1c0,0.1,0,0.1,0,0.2c0,0.1,0,0.1,0,0.1c0,0,0,0.1-0.1,0.1
			c0,0-0.1,0.1-0.1,0.1c0,0-0.1,0-0.1,0.1l0,0l0.5,0.6c0,0,0,0,0,0c0,0,0,0,0,0c0,0,0,0,0,0c0,0,0,0,0,0l-0.5-0.7v0l0,0
			c0,0,0.1,0,0.1,0c0,0,0.1,0,0.1-0.1c0,0,0.1-0.1,0.1-0.1c0,0,0-0.1,0-0.1c0-0.1,0-0.2-0.1-0.2c-0.1-0.1-0.2-0.1-0.3-0.1
			c0,0-0.1,0-0.1,0c0,0-0.1,0-0.1,0v1.4c0,0,0,0,0,0c0,0,0,0,0,0c0,0,0,0,0,0c0,0,0,0,0,0V98.1z"/>
		<path id="XMLID_1214_" class="st0" d="M39.1,98C39.1,98,39,98,39.1,98c-0.1,0-0.1,0-0.2,0l0.2-0.2c0,0,0.1,0,0.1,0
			c0,0,0.1,0,0.1,0L39.1,98z M39,98.1C39,98.1,39,98.1,39,98.1C39.1,98.1,39.1,98.1,39,98.1c0.1,0,0.1,0,0.1,0c0,0,0,0,0,0v1.5
			c0,0,0,0,0,0c0,0,0,0,0,0c0,0,0,0,0,0c0,0,0,0,0,0V98.1z"/>
		<path id="XMLID_1211_" class="st0" d="M40.3,98.1C40.3,98.1,40.3,98.1,40.3,98.1C40.4,98.1,40.4,98.1,40.3,98.1c0.1,0,0.1,0,0.1,0
			c0,0,0,0,0,0l0.5,1.5c0,0,0,0,0,0c0,0,0,0,0,0c0,0,0,0,0,0c0,0,0,0,0,0l-0.1-0.4h-0.6L40,99.6c0,0,0,0,0,0c0,0,0,0,0,0
			c0,0,0,0,0,0c0,0,0,0,0,0L40.3,98.1z M40.7,99.1l-0.3-0.8l-0.3,0.8H40.7z"/>
		<path id="XMLID_1209_" class="st0" d="M43.5,99.4C43.5,99.4,43.5,99.4,43.5,99.4c0,0.1,0,0.1,0,0.1c0,0-0.1,0-0.2,0.1
			s-0.1,0-0.2,0c-0.1,0-0.2,0-0.3,0c-0.1,0-0.2-0.1-0.2-0.1c-0.1-0.1-0.1-0.1-0.1-0.2c0-0.1,0-0.2,0-0.3c0-0.1,0-0.2,0-0.3
			c0-0.1,0.1-0.2,0.1-0.2s0.1-0.1,0.2-0.2c0.1,0,0.2-0.1,0.3-0.1c0.1,0,0.2,0,0.2,0c0.1,0,0.1,0,0.1,0c0,0,0,0,0,0.1s0,0,0,0.1
			c0,0,0,0-0.1,0c0,0,0,0-0.1,0c0,0-0.1,0-0.1,0c0,0-0.1,0-0.1,0c-0.1,0-0.2,0-0.2,0c-0.1,0-0.1,0.1-0.2,0.1c0,0.1-0.1,0.1-0.1,0.2
			c0,0.1,0,0.2,0,0.3c0,0.1,0,0.2,0,0.3c0,0.1,0.1,0.1,0.1,0.2c0,0.1,0.1,0.1,0.2,0.1c0.1,0,0.1,0,0.2,0c0.1,0,0.1,0,0.2,0
			C43.4,99.4,43.5,99.4,43.5,99.4z"/>
		<path id="XMLID_1206_" class="st0" d="M44.8,99.6c-0.1,0-0.2,0-0.3-0.1c-0.1,0-0.1-0.1-0.2-0.2c-0.1-0.1-0.1-0.2-0.1-0.2
			c0-0.1,0-0.2,0-0.3c0-0.1,0-0.2,0-0.3c0-0.1,0.1-0.2,0.1-0.2c0.1-0.1,0.1-0.1,0.2-0.2c0.1,0,0.2-0.1,0.3-0.1s0.2,0,0.3,0.1
			c0.1,0,0.1,0.1,0.2,0.2c0.1,0.1,0.1,0.1,0.1,0.2c0,0.1,0,0.2,0,0.3c0,0.1,0,0.2,0,0.3c0,0.1-0.1,0.2-0.1,0.2s-0.1,0.1-0.2,0.2
			C45,99.6,44.9,99.6,44.8,99.6z M44.8,99.5c0.1,0,0.1,0,0.2,0c0.1,0,0.1-0.1,0.1-0.1c0-0.1,0.1-0.1,0.1-0.2c0-0.1,0-0.2,0-0.3
			c0-0.1,0-0.2,0-0.3c0-0.1,0-0.1-0.1-0.2c0-0.1-0.1-0.1-0.1-0.1c-0.1,0-0.1,0-0.2,0c-0.1,0-0.1,0-0.2,0c-0.1,0-0.1,0.1-0.1,0.1
			c0,0.1-0.1,0.1-0.1,0.2c0,0.1,0,0.2,0,0.3c0,0.1,0,0.2,0,0.3c0,0.1,0,0.1,0.1,0.2c0,0.1,0.1,0.1,0.1,0.1
			C44.6,99.5,44.7,99.5,44.8,99.5z"/>
		<path id="XMLID_1204_" class="st0" d="M46.2,98.1C46.2,98.1,46.2,98.1,46.2,98.1C46.2,98.1,46.2,98.1,46.2,98.1c0.1,0,0.1,0,0.1,0
			c0,0,0,0,0,0l0.7,1.2v-1.2c0,0,0,0,0,0c0,0,0,0,0,0c0,0,0,0,0,0c0,0,0,0,0,0v1.5c0,0,0,0,0,0c0,0,0,0,0,0c0,0,0,0,0,0c0,0,0,0,0,0
			l-0.7-1.2v1.2c0,0,0,0,0,0c0,0,0,0,0,0c0,0,0,0,0,0c0,0,0,0,0,0V98.1z"/>
		<path id="XMLID_1202_" class="st0" d="M48.2,98.2h-0.4c0,0,0,0,0,0c0,0,0,0,0,0c0,0,0,0,0,0c0,0,0,0,0,0h0.9c0,0,0,0,0,0
			c0,0,0,0,0,0c0,0,0,0,0,0c0,0,0,0,0,0h-0.4v1.4c0,0,0,0,0,0c0,0,0,0,0,0c0,0,0,0,0,0c0,0,0,0,0,0V98.2z"/>
		<path id="XMLID_1199_" class="st0" d="M49.7,98.1C49.7,98.1,49.7,98.1,49.7,98.1C49.7,98.1,49.7,98.1,49.7,98.1c0.1,0,0.1,0,0.1,0
			c0,0,0,0,0,0l0.5,1.5c0,0,0,0,0,0c0,0,0,0,0,0c0,0,0,0,0,0c0,0,0,0,0,0L50,99.2h-0.6l-0.1,0.4c0,0,0,0,0,0c0,0,0,0,0,0
			c0,0,0,0,0,0c0,0,0,0,0,0L49.7,98.1z M50,99.1l-0.3-0.8l-0.3,0.8H50z"/>
		<path id="XMLID_1195_" class="st0" d="M51,98.1C51,98.1,51,98.1,51,98.1c0.1,0,0.1,0,0.1,0c0,0,0.1,0,0.1,0c0,0,0.1,0,0.1,0
			c0.2,0,0.3,0,0.4,0.1c0.1,0.1,0.1,0.2,0.1,0.3c0,0,0,0.1,0,0.1c0,0,0,0.1-0.1,0.1c0,0,0,0.1-0.1,0.1c0,0-0.1,0-0.1,0
			c0,0,0.1,0,0.1,0c0,0,0.1,0,0.1,0.1c0,0,0.1,0.1,0.1,0.1c0,0,0,0.1,0,0.2c0,0.1,0,0.1,0,0.2c0,0.1-0.1,0.1-0.1,0.1
			c-0.1,0-0.1,0.1-0.2,0.1c-0.1,0-0.2,0-0.2,0c0,0,0,0-0.1,0c0,0-0.1,0-0.1,0c0,0-0.1,0-0.1,0c0,0-0.1,0-0.1,0V98.1z M51.3,98.7
			c0.1,0,0.2,0,0.2-0.1c0.1,0,0.1-0.1,0.1-0.2c0-0.1,0-0.1-0.1-0.2c-0.1-0.1-0.1-0.1-0.3-0.1c0,0-0.1,0-0.1,0c0,0-0.1,0-0.1,0v0.5
			H51.3z M51.1,99.5C51.1,99.5,51.2,99.5,51.1,99.5c0.1,0,0.1,0,0.2,0c0.1,0,0.1,0,0.2,0c0.1,0,0.1,0,0.1,0c0,0,0.1-0.1,0.1-0.1
			c0,0,0-0.1,0-0.1c0-0.1,0-0.1,0-0.1c0,0,0-0.1-0.1-0.1c0,0-0.1,0-0.1-0.1c0,0-0.1,0-0.2,0h-0.2V99.5z"/>
		<path id="XMLID_1193_" class="st0" d="M52.6,98.1C52.6,98.1,52.6,98.1,52.6,98.1C52.7,98.1,52.7,98.1,52.6,98.1c0.1,0,0.1,0,0.1,0
			c0,0,0,0,0,0v1.4h0.6c0,0,0,0,0,0c0,0,0,0,0,0c0,0,0,0,0,0c0,0,0,0,0,0h-0.8V98.1z"/>
		<path id="XMLID_1191_" class="st0" d="M54.1,98.1h0.8c0,0,0,0,0,0c0,0,0,0,0,0c0,0,0,0,0,0s0,0,0,0h-0.7v0.5h0.5c0,0,0,0,0,0
			c0,0,0,0,0,0c0,0,0,0,0,0c0,0,0,0,0,0h-0.5v0.6h0.7c0,0,0,0,0,0s0,0,0,0c0,0,0,0,0,0s0,0,0,0h-0.8V98.1z"/>
		<path id="XMLID_1189_" class="st0" d="M56.9,99l-0.5-0.9c0,0,0,0,0,0c0,0,0,0,0,0c0,0,0,0,0,0c0,0,0,0,0,0l0.4,0.8l0.4-0.8
			c0,0,0,0,0,0c0,0,0,0,0,0c0,0,0,0,0,0c0,0,0,0,0,0L57,99v0.6c0,0,0,0,0,0c0,0,0,0,0,0c0,0,0,0,0,0c0,0,0,0,0,0V99z"/>
		<path id="XMLID_1187_" class="st0" d="M59.1,98.1h0.7c0,0,0,0,0,0c0,0,0,0,0,0c0,0,0,0,0,0c0,0,0,0,0,0h-0.6v0.5h0.5c0,0,0,0,0,0
			c0,0,0,0,0,0c0,0,0,0,0,0c0,0,0,0,0,0h-0.5v0.7c0,0,0,0,0,0c0,0,0,0,0,0c0,0,0,0,0,0c0,0,0,0,0,0V98.1z"/>
		<path id="XMLID_1185_" class="st0" d="M60.5,98.1C60.6,98.1,60.6,98.1,60.5,98.1C60.6,98.1,60.6,98.1,60.5,98.1c0.1,0,0.1,0,0.1,0
			c0,0,0,0,0,0v1.5c0,0,0,0,0,0c0,0,0,0,0,0c0,0,0,0,0,0c0,0,0,0,0,0V98.1z"/>
		<path id="XMLID_1183_" class="st0" d="M61.5,98.1C61.5,98.1,61.5,98.1,61.5,98.1C61.6,98.1,61.6,98.1,61.5,98.1c0.1,0,0.1,0,0.1,0
			c0,0,0,0,0,0l0.7,1.2v-1.2c0,0,0,0,0,0c0,0,0,0,0,0c0,0,0,0,0,0c0,0,0,0,0,0v1.5c0,0,0,0,0,0c0,0,0,0,0,0c0,0,0,0,0,0c0,0,0,0,0,0
			l-0.7-1.2v1.2c0,0,0,0,0,0c0,0,0,0,0,0c0,0,0,0,0,0c0,0,0,0,0,0V98.1z"/>
		<path id="XMLID_1180_" class="st0" d="M63.7,98.1C63.7,98.1,63.7,98.1,63.7,98.1C63.7,98.1,63.8,98.1,63.7,98.1c0.1,0,0.1,0,0.1,0
			c0,0,0,0,0,0l0.5,1.5c0,0,0,0,0,0c0,0,0,0,0,0c0,0,0,0,0,0c0,0,0,0,0,0l-0.1-0.4h-0.6l-0.1,0.4c0,0,0,0,0,0c0,0,0,0,0,0
			c0,0,0,0,0,0c0,0,0,0,0,0L63.7,98.1z M64,99.1l-0.3-0.8l-0.3,0.8H64z"/>
		<path id="XMLID_1178_" class="st0" d="M65,98.1C65,98.1,65.1,98.1,65,98.1C65.1,98.1,65.1,98.1,65,98.1c0.1,0,0.1,0,0.1,0
			c0,0,0,0,0,0l0.7,1.2v-1.2c0,0,0,0,0,0c0,0,0,0,0,0c0,0,0,0,0,0c0,0,0,0,0,0v1.5c0,0,0,0,0,0c0,0,0,0,0,0c0,0,0,0,0,0c0,0,0,0,0,0
			l-0.7-1.2v1.2c0,0,0,0,0,0c0,0,0,0,0,0c0,0,0,0,0,0c0,0,0,0,0,0V98.1z"/>
		<path id="XMLID_1176_" class="st0" d="M66.7,99.6l0.8-1.3h-0.7c0,0,0,0,0,0c0,0,0,0,0,0c0,0,0,0,0,0c0,0,0,0,0,0h0.9l0,0l-0.9,1.3
			h0.8c0,0,0,0,0,0c0,0,0,0,0,0c0,0,0,0,0,0c0,0,0,0,0,0L66.7,99.6L66.7,99.6z"/>
		<path id="XMLID_1173_" class="st0" d="M68.8,98.1C68.8,98.1,68.8,98.1,68.8,98.1C68.8,98.1,68.8,98.1,68.8,98.1c0.1,0,0.1,0,0.1,0
			c0,0,0,0,0,0l0.5,1.5c0,0,0,0,0,0c0,0,0,0,0,0c0,0,0,0,0,0c0,0,0,0,0,0l-0.1-0.4h-0.6l-0.1,0.4c0,0,0,0,0,0c0,0,0,0,0,0
			c0,0,0,0,0,0c0,0,0,0,0,0L68.8,98.1z M69.1,99.1l-0.3-0.8l-0.3,0.8H69.1z"/>
		<path id="XMLID_1171_" class="st0" d="M70,99.4C70.1,99.4,70.1,99.4,70,99.4c0.1,0,0.1,0,0.1,0c0,0,0.1,0,0.1,0c0,0,0.1,0,0.1,0
			c0.1,0,0.1,0,0.2,0c0,0,0.1,0,0.1-0.1c0,0,0.1-0.1,0.1-0.1s0-0.1,0-0.1c0,0,0-0.1,0-0.1c0,0,0-0.1-0.1-0.1c0,0-0.1,0-0.1-0.1
			c0,0-0.1,0-0.2-0.1c0,0-0.1,0-0.1-0.1c0,0-0.1,0-0.1-0.1c0,0-0.1-0.1-0.1-0.1c0,0,0-0.1,0-0.2c0-0.1,0-0.2,0.1-0.3
			c0.1-0.1,0.2-0.1,0.4-0.1c0,0,0.1,0,0.1,0c0,0,0.1,0,0.1,0c0,0,0.1,0,0.1,0c0,0,0,0,0.1,0c0,0,0,0,0,0.1c0,0,0,0,0,0.1
			c0,0-0.1,0-0.1,0c-0.1,0-0.1,0-0.2,0c-0.1,0-0.2,0-0.2,0.1c0,0-0.1,0.1-0.1,0.2c0,0,0,0.1,0,0.1c0,0,0,0.1,0.1,0.1
			c0,0,0.1,0,0.1,0.1s0.1,0,0.1,0.1c0.1,0,0.1,0,0.2,0.1c0.1,0,0.1,0.1,0.1,0.1c0,0,0.1,0.1,0.1,0.1c0,0,0,0.1,0,0.2
			c0,0.1,0,0.1,0,0.2c0,0.1-0.1,0.1-0.1,0.1c0,0-0.1,0.1-0.2,0.1c-0.1,0-0.1,0-0.2,0c-0.1,0-0.1,0-0.2,0s-0.1,0-0.2,0
			C70,99.5,70,99.5,70,99.4C70,99.4,70,99.4,70,99.4z"/>
	</g>
	<g id="XMLID_1166_">
		<polygon id="XMLID_1169_" class="st0" points="12.8,84.9 12.8,91.7 17.4,91.7 19.8,93.5 19.8,91.7 22.1,91.7 22.1,84.9 		"/>
		<polygon id="XMLID_1168_" class="st8" points="12.8,84.9 19.8,83 19.8,90 12.8,91.7 		"/>
		<polygon id="XMLID_1167_" class="st9" points="12.8,84.9 17.6,81.1 17.6,88.1 12.8,91.7 		"/>
	</g>
</g>
<g>
	<path class="st0" d="M123.6,95.5l1.8,0.5c-0.1,0.5-0.3,0.9-0.6,1.3c-0.3,0.3-0.6,0.6-0.9,0.8c-0.4,0.2-0.9,0.3-1.5,0.3
		c-0.7,0-1.3-0.1-1.8-0.3c-0.5-0.2-0.8-0.6-1.2-1.1c-0.3-0.5-0.5-1.2-0.5-2c0-1.1,0.3-1.9,0.9-2.5c0.6-0.6,1.4-0.9,2.5-0.9
		c0.8,0,1.5,0.2,2,0.5c0.5,0.3,0.8,0.9,1.1,1.6l-1.8,0.4c-0.1-0.2-0.1-0.3-0.2-0.4c-0.1-0.2-0.2-0.3-0.4-0.4
		c-0.2-0.1-0.4-0.1-0.6-0.1c-0.5,0-0.8,0.2-1.1,0.6c-0.2,0.3-0.3,0.7-0.3,1.3c0,0.7,0.1,1.2,0.3,1.5c0.2,0.3,0.5,0.4,0.9,0.4
		c0.4,0,0.7-0.1,0.9-0.3C123.4,96.2,123.5,95.9,123.6,95.5z"/>
	<path class="st0" d="M125.4,95.8c0-0.7,0.2-1.3,0.7-1.8c0.5-0.5,1.2-0.7,2-0.7c0.9,0,1.7,0.3,2.2,0.8c0.4,0.4,0.6,1,0.6,1.6
		c0,0.7-0.2,1.3-0.7,1.8c-0.5,0.5-1.2,0.7-2,0.7c-0.8,0-1.4-0.2-1.9-0.6C125.7,97.2,125.4,96.6,125.4,95.8L125.4,95.8z M127.3,95.8
		c0,0.4,0.1,0.7,0.3,0.9c0.2,0.2,0.4,0.3,0.6,0.3c0.3,0,0.5-0.1,0.6-0.3c0.2-0.2,0.3-0.5,0.3-1c0-0.4-0.1-0.7-0.3-0.9
		c-0.2-0.2-0.4-0.3-0.6-0.3c-0.3,0-0.5,0.1-0.7,0.3C127.3,95.1,127.3,95.4,127.3,95.8z"/>
	<path class="st0" d="M131.2,93.4h1.7v0.8c0.3-0.3,0.5-0.5,0.8-0.7c0.3-0.1,0.6-0.2,1-0.2c0.5,0,0.9,0.2,1.2,0.5
		c0.3,0.3,0.4,0.8,0.4,1.4v3h-1.8v-2.6c0-0.3-0.1-0.5-0.2-0.6c-0.1-0.1-0.3-0.2-0.5-0.2c-0.2,0-0.4,0.1-0.5,0.2
		c-0.1,0.2-0.2,0.5-0.2,0.9v2.3h-1.8V93.4z"/>
	<path class="st0" d="M136.4,96.9l1.8-0.2c0.1,0.2,0.2,0.4,0.3,0.5c0.1,0.1,0.3,0.2,0.5,0.2c0.3,0,0.4-0.1,0.6-0.2
		c0.1-0.1,0.2-0.2,0.2-0.3c0-0.1-0.1-0.2-0.2-0.3c-0.1,0-0.4-0.1-0.8-0.2c-0.6-0.1-1.1-0.2-1.3-0.3c-0.3-0.1-0.5-0.3-0.6-0.5
		c-0.2-0.2-0.3-0.5-0.3-0.8c0-0.3,0.1-0.6,0.3-0.8c0.2-0.2,0.4-0.4,0.8-0.5c0.3-0.1,0.8-0.2,1.3-0.2c0.6,0,1,0,1.3,0.1
		c0.3,0.1,0.5,0.2,0.7,0.4c0.2,0.2,0.3,0.4,0.5,0.7l-1.7,0.2c0-0.2-0.1-0.3-0.2-0.3c-0.1-0.1-0.3-0.1-0.5-0.1c-0.2,0-0.3,0-0.4,0.1
		c-0.1,0.1-0.2,0.2-0.2,0.3c0,0.1,0.1,0.2,0.2,0.3c0.1,0.1,0.4,0.1,0.8,0.2c0.6,0.1,1.1,0.2,1.4,0.3c0.3,0.1,0.5,0.3,0.7,0.5
		c0.2,0.2,0.2,0.5,0.2,0.8c0,0.3-0.1,0.5-0.3,0.8c-0.2,0.3-0.4,0.5-0.8,0.6c-0.4,0.2-0.8,0.2-1.5,0.2c-0.9,0-1.5-0.1-1.9-0.4
		C136.7,97.7,136.5,97.3,136.4,96.9z"/>
	<path class="st0" d="M146.8,98.2h-1.7v-0.8c-0.3,0.3-0.5,0.5-0.8,0.7c-0.3,0.1-0.6,0.2-1,0.2c-0.5,0-0.9-0.2-1.2-0.5
		c-0.3-0.3-0.4-0.8-0.4-1.4v-3h1.8V96c0,0.3,0.1,0.5,0.2,0.6c0.1,0.1,0.3,0.2,0.5,0.2c0.2,0,0.4-0.1,0.5-0.3
		c0.1-0.2,0.2-0.5,0.2-0.9v-2.3h1.8V98.2z"/>
	<rect x="147.3" y="91.6" class="st0" width="1.8" height="6.6"/>
	<path class="st0" d="M151.9,91.6v1.8h1v1.3h-1v1.7c0,0.2,0,0.3,0.1,0.4c0.1,0.1,0.2,0.2,0.3,0.2c0.1,0,0.3,0,0.6-0.1l0.1,1.3
		c-0.5,0.1-0.9,0.2-1.3,0.2c-0.5,0-0.8-0.1-1-0.2c-0.2-0.1-0.4-0.3-0.5-0.5c-0.1-0.2-0.2-0.6-0.2-1.2v-1.7h-0.7v-1.3h0.7v-0.9
		L151.9,91.6z"/>
	<path class="st0" d="M153.3,91.6h1.8v1.3h-1.8V91.6L153.3,91.6z M153.3,93.4h1.8v4.8h-1.8V93.4z"/>
	<path class="st0" d="M155.6,93.4h1.7v0.8c0.3-0.3,0.5-0.5,0.8-0.7c0.3-0.1,0.6-0.2,1-0.2c0.5,0,0.9,0.2,1.2,0.5
		c0.3,0.3,0.4,0.8,0.4,1.4v3h-1.8v-2.6c0-0.3-0.1-0.5-0.2-0.6c-0.1-0.1-0.3-0.2-0.5-0.2c-0.2,0-0.4,0.1-0.5,0.2
		c-0.1,0.2-0.2,0.5-0.2,0.9v2.3h-1.8V93.4z"/>
	<path class="st0" d="M164.5,93.4h1.7v4.5v0.2c0,0.3-0.1,0.6-0.2,0.9c-0.1,0.3-0.3,0.5-0.5,0.7c-0.2,0.2-0.5,0.3-0.8,0.4
		c-0.3,0.1-0.7,0.1-1.1,0.1c-1,0-1.6-0.1-2-0.4c-0.4-0.3-0.5-0.7-0.5-1.1c0-0.1,0-0.1,0-0.2l1.8,0.2c0,0.2,0.1,0.3,0.2,0.3
		c0.1,0.1,0.3,0.1,0.5,0.1c0.3,0,0.5-0.1,0.6-0.2c0.1-0.1,0.2-0.4,0.2-0.7v-0.7c-0.2,0.2-0.4,0.4-0.5,0.5c-0.3,0.2-0.6,0.2-0.9,0.2
		c-0.6,0-1.1-0.3-1.5-0.8c-0.3-0.4-0.4-0.9-0.4-1.6c0-0.7,0.2-1.3,0.5-1.7c0.3-0.4,0.8-0.6,1.4-0.6c0.4,0,0.7,0.1,0.9,0.2
		c0.2,0.1,0.5,0.3,0.7,0.6V93.4L164.5,93.4z M162.8,95.7c0,0.3,0.1,0.6,0.2,0.8c0.1,0.2,0.3,0.3,0.6,0.3c0.2,0,0.4-0.1,0.6-0.3
		c0.2-0.2,0.2-0.4,0.2-0.8c0-0.3-0.1-0.6-0.2-0.8c-0.2-0.2-0.3-0.3-0.6-0.3c-0.2,0-0.4,0.1-0.6,0.2
		C162.9,95.1,162.8,95.3,162.8,95.7z"/>
	<path class="st0" d="M166.6,96.1l0.8-0.1c0,0.3,0.1,0.6,0.3,0.8c0.1,0.2,0.4,0.4,0.7,0.5c0.3,0.1,0.6,0.2,1,0.2
		c0.3,0,0.6,0,0.9-0.2c0.2-0.1,0.4-0.2,0.6-0.4c0.1-0.2,0.2-0.4,0.2-0.6c0-0.2-0.1-0.4-0.2-0.5c-0.1-0.2-0.3-0.3-0.6-0.4
		c-0.2-0.1-0.6-0.2-1.2-0.3c-0.6-0.2-1-0.3-1.3-0.4c-0.3-0.2-0.5-0.4-0.7-0.6c-0.2-0.3-0.2-0.5-0.2-0.8c0-0.3,0.1-0.6,0.3-0.9
		c0.2-0.3,0.5-0.5,0.8-0.6c0.4-0.2,0.8-0.2,1.2-0.2c0.5,0,0.9,0.1,1.3,0.2c0.4,0.2,0.7,0.4,0.9,0.7c0.2,0.3,0.3,0.7,0.3,1l-0.8,0.1
		c0-0.4-0.2-0.7-0.5-1c-0.3-0.2-0.6-0.3-1.2-0.3c-0.5,0-0.9,0.1-1.1,0.3c-0.2,0.2-0.4,0.4-0.4,0.7c0,0.2,0.1,0.4,0.3,0.6
		c0.2,0.2,0.6,0.3,1.3,0.5c0.7,0.2,1.2,0.3,1.5,0.4c0.4,0.2,0.7,0.4,0.8,0.7c0.2,0.3,0.3,0.6,0.3,0.9c0,0.3-0.1,0.7-0.3,1
		c-0.2,0.3-0.5,0.5-0.9,0.7c-0.4,0.2-0.8,0.3-1.3,0.3c-0.6,0-1.1-0.1-1.5-0.3c-0.4-0.2-0.7-0.4-0.9-0.8
		C166.7,96.9,166.6,96.5,166.6,96.1z"/>
	<path class="st0" d="M175.7,96.7l0.8,0.1c-0.1,0.5-0.4,0.9-0.7,1.1c-0.4,0.3-0.8,0.4-1.4,0.4c-0.7,0-1.3-0.2-1.7-0.6
		c-0.4-0.4-0.6-1-0.6-1.8c0-0.8,0.2-1.4,0.6-1.9c0.4-0.5,0.9-0.7,1.6-0.7c0.6,0,1.2,0.2,1.6,0.7c0.4,0.4,0.6,1,0.6,1.8
		c0,0.1,0,0.1,0,0.2h-3.6c0,0.5,0.2,0.9,0.5,1.2c0.3,0.3,0.6,0.4,1,0.4c0.3,0,0.6-0.1,0.8-0.2C175.4,97.3,175.5,97,175.7,96.7
		L175.7,96.7z M173,95.4h2.7c0-0.4-0.1-0.7-0.3-0.9c-0.3-0.3-0.6-0.5-1-0.5c-0.4,0-0.7,0.1-1,0.4C173.2,94.6,173,94.9,173,95.4z"/>
	<path class="st0" d="M177,98.2v-4.8h0.7v0.7c0.2-0.3,0.4-0.6,0.5-0.7c0.2-0.1,0.3-0.2,0.5-0.2c0.3,0,0.6,0.1,0.8,0.3l-0.3,0.8
		c-0.2-0.1-0.4-0.2-0.6-0.2c-0.2,0-0.3,0.1-0.5,0.2c-0.2,0.1-0.2,0.2-0.3,0.4c-0.1,0.3-0.1,0.6-0.1,1v2.5H177z"/>
	<path class="st0" d="M180.9,98.2l-1.8-4.8h0.8l1,2.9c0.1,0.3,0.2,0.6,0.3,1c0.1-0.2,0.2-0.5,0.3-0.9l1.1-2.9h0.8l-1.8,4.8H180.9z"
		/>
	<path class="st0" d="M183.7,92.5v-0.9h0.8v0.9H183.7L183.7,92.5z M183.7,98.2v-4.8h0.8v4.8H183.7z"/>
	<path class="st0" d="M188.3,96.4l0.8,0.1c-0.1,0.6-0.3,1-0.7,1.3c-0.4,0.3-0.8,0.5-1.3,0.5c-0.6,0-1.2-0.2-1.6-0.6
		c-0.4-0.4-0.6-1-0.6-1.8c0-0.5,0.1-1,0.3-1.4c0.2-0.4,0.4-0.7,0.8-0.9c0.3-0.2,0.7-0.3,1.1-0.3c0.5,0,0.9,0.1,1.3,0.4
		c0.3,0.3,0.5,0.6,0.6,1.1l-0.8,0.1c-0.1-0.3-0.2-0.6-0.4-0.7c-0.2-0.2-0.4-0.2-0.7-0.2c-0.4,0-0.7,0.1-1,0.4
		c-0.3,0.3-0.4,0.8-0.4,1.4c0,0.6,0.1,1.1,0.4,1.4c0.2,0.3,0.6,0.4,1,0.4c0.3,0,0.6-0.1,0.8-0.3C188.1,97.2,188.3,96.8,188.3,96.4z"
		/>
	<path class="st0" d="M192.6,96.7l0.8,0.1c-0.1,0.5-0.4,0.9-0.7,1.1c-0.4,0.3-0.8,0.4-1.4,0.4c-0.7,0-1.3-0.2-1.7-0.6
		c-0.4-0.4-0.6-1-0.6-1.8c0-0.8,0.2-1.4,0.6-1.9c0.4-0.5,1-0.7,1.6-0.7c0.6,0,1.2,0.2,1.6,0.7c0.4,0.4,0.6,1,0.6,1.8
		c0,0.1,0,0.1,0,0.2h-3.6c0,0.5,0.2,0.9,0.4,1.2c0.3,0.3,0.6,0.4,1,0.4c0.3,0,0.5-0.1,0.8-0.2C192.3,97.3,192.4,97,192.6,96.7
		L192.6,96.7z M189.9,95.4h2.7c0-0.4-0.1-0.7-0.3-0.9c-0.3-0.3-0.6-0.5-1-0.5c-0.4,0-0.7,0.1-0.9,0.4
		C190.1,94.6,189.9,94.9,189.9,95.4z"/>
	<path class="st0" d="M193.6,96.8l0.8-0.1c0,0.3,0.2,0.6,0.4,0.7c0.2,0.2,0.5,0.3,0.9,0.3c0.4,0,0.6-0.1,0.8-0.2
		c0.2-0.2,0.3-0.3,0.3-0.5c0-0.2-0.1-0.3-0.2-0.4c-0.1-0.1-0.4-0.1-0.8-0.3c-0.6-0.2-1-0.3-1.2-0.4c-0.2-0.1-0.4-0.3-0.5-0.5
		c-0.1-0.2-0.2-0.4-0.2-0.6c0-0.2,0-0.4,0.1-0.6c0.1-0.2,0.2-0.3,0.4-0.5c0.1-0.1,0.3-0.2,0.5-0.2c0.2-0.1,0.5-0.1,0.7-0.1
		c0.4,0,0.7,0.1,1,0.2c0.3,0.1,0.5,0.3,0.6,0.4c0.1,0.2,0.2,0.4,0.3,0.7l-0.8,0.1c0-0.3-0.1-0.4-0.3-0.6c-0.2-0.1-0.4-0.2-0.7-0.2
		c-0.4,0-0.6,0.1-0.8,0.2c-0.2,0.1-0.2,0.3-0.2,0.4c0,0.1,0,0.2,0.1,0.3c0.1,0.1,0.2,0.2,0.3,0.2c0.1,0,0.3,0.1,0.7,0.2
		c0.6,0.2,1,0.3,1.2,0.4c0.2,0.1,0.4,0.2,0.5,0.4c0.1,0.2,0.2,0.4,0.2,0.7c0,0.3-0.1,0.5-0.2,0.8c-0.2,0.2-0.4,0.4-0.7,0.6
		c-0.3,0.1-0.6,0.2-1,0.2c-0.6,0-1.1-0.1-1.4-0.4C193.9,97.7,193.7,97.3,193.6,96.8z"/>
	<g>
		<g>
			<g>
				<defs>
					<path id="SVGID_1_" d="M183.3,90.1c-1.2-1.9-2.9-3.4-4.6-4.4c-2.6-1.6-5.5-2.6-8.5-2.9c-1.7-0.2-3.5-0.2-5.3,0.1
						c-1.3,0.2-2.6,0.5-3.8,1.1c-1.4,0.6-2.8,1.5-4,2.7c-0.1,0.1-0.1,0.1-0.2,0.2c-0.6,0.6-1.1,1.3-1.6,2c-0.1,0.1-0.6,1-0.6,1.1
						c0,0.1,0.1,0.3,0.1,0.5c0,0.3-0.1,0.5-0.1,0.8c0.1-0.1,0.2-0.1,0.3-0.2c0.4-0.3,0.9-1,1.3-1.4c0.5-0.5,1-1,1.5-1.4
						c1.2-1,2.4-1.7,3.6-2.3c0.2-0.1,0.4-0.2,0.6-0.3c2.7-1.1,5.3-1.4,8-1.3c1.5,0.1,2.9,0.4,4.3,0.7c1.4,0.4,2.7,0.9,4,1.6
						c1.2,0.6,2.3,1.4,3.3,2.3c0.9,0.8,1.7,1.8,2.5,2.9C183.9,91.1,183.6,90.6,183.3,90.1z"/>
				</defs>
				<use xlink:href="#SVGID_1_"  style="overflow:visible;fill:#575756;"/>
				<clipPath id="SVGID_2_">
					<use xlink:href="#SVGID_1_"  style="overflow:visible;"/>
				</clipPath>
				<g style="clip-path:url(#SVGID_2_);">
					
						<image style="overflow:visible;" width="586" height="185" xlink:href="3FFC6D52BCFC51D0.jpg"  transform="matrix(5.017464e-02 0 0 4.990187e-02 154.6671 82.5031)">
					</image>
				</g>
			</g>
			<g>
				<defs>
					<path id="SVGID_3_" d="M160.3,84.4c0.3-0.1,0.6-0.3,0.9-0.4c3.1-1.2,6-1.5,9-1.2c0.2,0,0.4,0,0.6,0.1c2.4,0.5,4.7,1.2,6.9,2.4
						c0.3,0.2,0.6,0.3,0.9,0.5c1.1,0.7,2.2,1.5,3.2,2.6c0.4,0.4,0.8,0.8,1.1,1.3c0.1,0.1,0.2,0.3,0.3,0.4c0,0,0,0.1,0,0.1
						c0,0,0,0,0,0c0,0,0,0,0,0c0,0,0,0,0,0c0,0-0.1-0.1-0.1-0.1c-0.1-0.1-0.2-0.2-0.3-0.3c-0.3-0.4-0.7-0.8-1.1-1.1
						c-1-0.9-2.1-1.7-3.3-2.3c-0.8-0.4-1.7-0.8-2.6-1.1c-1.9-0.7-3.8-1-5.8-1.2c-0.3,0-0.5,0-0.8,0c-2.6,0-5.1,0.4-7.8,1.5
						c-0.3,0.1-0.6,0.3-0.9,0.4c-0.9,0.5-1.9,1.1-2.8,1.8c-0.4,0.3-0.8,0.6-1.2,1c-0.2,0.1-0.4,0.4-0.6,0.4c-0.2,0-0.2-0.3-0.1-0.5
						c0.1-0.2,0.2-0.4,0.3-0.6c0.1-0.1,0.1-0.2,0.2-0.3c0.1-0.1,0.2-0.2,0.2-0.3c0.2-0.3,0.5-0.5,0.7-0.8
						C158.2,85.9,159.2,85.1,160.3,84.4z"/>
				</defs>
				<use xlink:href="#SVGID_3_"  style="overflow:visible;fill:#575756;"/>
				<clipPath id="SVGID_4_">
					<use xlink:href="#SVGID_3_"  style="overflow:visible;"/>
				</clipPath>
			</g>
			<g>
				<defs>
					<path id="SVGID_5_" d="M162.5,84.6c0.1,0,0.1-0.1,0-0.2c-0.1-0.1-0.2-0.1-0.2-0.1c-0.2,0-0.3,0-0.5,0c-0.2,0-0.4,0.1-0.6,0.2
						c-0.9,0.3-1.9,0.6-2.8,1.2c-0.4,0.3-0.8,0.6-1.2,1c-0.2,0.2-0.4,0.4-0.6,0.6c-0.2,0.2-0.5,0.5-0.7,0.8
						c-0.2,0.2-0.3,0.5-0.5,0.7c-0.2,0.3-0.4,0.6-0.6,1c-0.1,0.2-0.1,0.3-0.2,0.5c0,0-0.1,0.2,0,0.2c0.1,0,0.1,0.1,0.1,0.2
						c0,0.2-0.2,0.6-0.1,0.7c0.1,0.1,0.4-0.3,0.5-0.4c0.1-0.2,0.3-0.3,0.4-0.5c0.6-0.7,1.1-1.3,1.8-1.9c0.2-0.2,0.4-0.3,0.5-0.5
						c0.4-0.3,0.7-0.6,1.1-0.9c0.3-0.2,0.5-0.4,0.8-0.6c0.3-0.3,0.6-0.5,1-0.8c0.2-0.2,0.5-0.3,0.7-0.5"/>
				</defs>
				<use xlink:href="#SVGID_5_"  style="overflow:visible;fill:#575756;"/>
				<clipPath id="SVGID_6_">
					<use xlink:href="#SVGID_5_"  style="overflow:visible;"/>
				</clipPath>
			</g>
		</g>
	</g>
	<g>
		<g>
			<g>
				<defs>
					<path id="SVGID_7_" d="M183.3,90.1c-1.3-1.9-2.9-3.4-4.7-4.4c-2.6-1.6-5.6-2.6-8.6-2.9c-1.7-0.2-3.6-0.2-5.4,0.1
						c-1.3,0.2-2.6,0.5-3.9,1.1c-1.4,0.6-2.8,1.5-4.1,2.7c-0.1,0.1-0.1,0.1-0.2,0.2c-0.6,0.6-1.1,1.3-1.6,2c-0.1,0.1-0.6,1-0.6,1.1
						c0,0.1,0.1,0.3,0.1,0.5c-0.1,0.3-0.1,0.5-0.1,0.8c0.1-0.1,0.2-0.1,0.3-0.2c0.4-0.3,0.9-1,1.3-1.4c0.5-0.5,1-1,1.5-1.4
						c1.2-1,2.4-1.7,3.7-2.3c0.2-0.1,0.4-0.2,0.6-0.3c2.7-1.1,5.4-1.4,8.1-1.3c1.5,0.1,3,0.4,4.4,0.7c1.4,0.4,2.8,0.9,4.1,1.6
						c1.2,0.6,2.3,1.4,3.3,2.3c0.9,0.8,1.8,1.8,2.5,2.9C183.8,91.1,183.6,90.6,183.3,90.1z"/>
				</defs>
				<use xlink:href="#SVGID_7_"  style="overflow:visible;fill:#575756;"/>
				<clipPath id="SVGID_8_">
					<use xlink:href="#SVGID_7_"  style="overflow:visible;"/>
				</clipPath>
			</g>
			<g>
				<defs>
					<path id="SVGID_9_" d="M161,85.4c-0.4,0.2-0.8,0.4-1.2,0.6"/>
				</defs>
				<defs>
					<path id="SVGID_10_" d="M165.6,84"/>
				</defs>
				<use xlink:href="#SVGID_9_"  style="overflow:visible;fill:#575756;"/>
				<use xlink:href="#SVGID_10_"  style="overflow:visible;fill:#575756;"/>
				<clipPath id="SVGID_11_">
					<use xlink:href="#SVGID_9_"  style="overflow:visible;"/>
				</clipPath>
				<clipPath id="SVGID_12_" class="st10">
					<use xlink:href="#SVGID_10_"  style="overflow:visible;"/>
				</clipPath>
			</g>
			<g>
				<defs>
					<path id="SVGID_13_" d="M161,85.3c-0.6,0.3-1.2,0.6-1.7,0.9"/>
				</defs>
				<defs>
					<path id="SVGID_14_" d="M164.5,84.1"/>
				</defs>
				<defs>
					<path id="SVGID_15_" d="M166.7,83.6"/>
				</defs>
				<defs>
					<path id="SVGID_16_" d="M157.2,87.7c-0.3,0.2-0.5,0.5-0.8,0.7c-0.3,0.3-0.6,0.6-0.9,1c-0.1,0.1-0.2,0.2-0.3,0.3
						c-0.1,0.1-0.1,0.2-0.2,0.2c-0.1,0.1-0.2,0.2-0.3,0.3c0,0-0.1,0-0.1,0c0,0,0-0.1,0-0.2c0,0,0.2-0.4,0.1-0.4c0,0,0-0.1-0.1-0.2
						c0-0.1,0.1-0.3,0.1-0.3c0.2-0.3,0.4-0.6,0.5-0.9c0.2-0.3,0.4-0.6,0.7-0.9c0.2-0.3,0.5-0.5,0.8-0.8c0,0,0.1-0.1,0.1-0.1
						c1.3-1,2.6-1.8,4-2.3c1.1-0.4,2.2-0.7,3.3-0.9c1.1-0.2,2.3-0.2,3.5-0.1c0,0,0,0,0.1,0v0"/>
				</defs>
				<use xlink:href="#SVGID_13_"  style="overflow:visible;fill:#575756;"/>
				<use xlink:href="#SVGID_14_"  style="overflow:visible;fill:#575756;"/>
				<use xlink:href="#SVGID_15_"  style="overflow:visible;fill:#575756;"/>
				<use xlink:href="#SVGID_16_"  style="overflow:visible;fill:#575756;"/>
				<clipPath id="SVGID_17_">
					<use xlink:href="#SVGID_13_"  style="overflow:visible;"/>
				</clipPath>
				<clipPath id="SVGID_18_" class="st11">
					<use xlink:href="#SVGID_14_"  style="overflow:visible;"/>
				</clipPath>
				<clipPath id="SVGID_19_" class="st12">
					<use xlink:href="#SVGID_15_"  style="overflow:visible;"/>
				</clipPath>
				<clipPath id="SVGID_20_" class="st13">
					<use xlink:href="#SVGID_16_"  style="overflow:visible;"/>
				</clipPath>
			</g>
			<g>
				<defs>
					<path id="SVGID_21_" d="M163.1,83.8c-0.2,0-0.3,0-0.5,0c-0.6,0.1-1.2,0.2-1.8,0.4c-0.7,0.2-1.4,0.5-2.1,0.9
						c-0.7,0.4-1.4,0.9-2,1.5c0,0-0.1,0.1-0.1,0.1c-0.3,0.3-0.6,0.5-0.8,0.8c-0.2,0.3-0.4,0.5-0.6,0.8c-0.2,0.4-0.5,0.7-0.6,1.1
						c-0.1,0.2-0.2,0.3-0.2,0.5c0,0.1-0.1,0.2,0,0.2c0.1,0,0.1,0.1,0.1,0.2c0,0.2-0.2,0.7-0.1,0.8c0.1,0.1,0.4-0.3,0.5-0.4
						c0.2-0.2,0.3-0.3,0.5-0.5c0.7-0.8,1.3-1.4,2.1-2.1c0,0,0.1-0.1,0.1-0.1c0.5-0.4,0.9-0.7,1.4-1c0.3-0.2,0.7-0.5,1-0.7
						c0.4-0.3,0.8-0.6,1.2-0.9c0.1,0,0.1-0.1,0.2-0.1"/>
				</defs>
				<use xlink:href="#SVGID_21_"  style="overflow:visible;fill:#575756;"/>
				<clipPath id="SVGID_22_">
					<use xlink:href="#SVGID_21_"  style="overflow:visible;"/>
				</clipPath>
			</g>
			<g>
				<defs>
					<path id="SVGID_23_" d="M162.2,84.6c0.1,0,0.1-0.1,0-0.2c-0.1-0.1-0.2-0.1-0.2-0.1c-0.2,0-0.3,0-0.5,0c-0.2,0-0.4,0.1-0.6,0.2
						c-1,0.3-1.9,0.6-2.8,1.2c-0.4,0.3-0.9,0.6-1.3,1c-0.2,0.2-0.4,0.4-0.6,0.6c-0.2,0.2-0.5,0.5-0.7,0.8c-0.2,0.2-0.3,0.5-0.5,0.7
						c-0.2,0.3-0.4,0.6-0.6,1c-0.1,0.2-0.1,0.3-0.2,0.5c0,0-0.1,0.2,0,0.2c0.1,0,0.1,0.1,0.1,0.2c0,0.2-0.2,0.6-0.1,0.7
						c0.1,0.1,0.4-0.3,0.4-0.4c0.1-0.2,0.3-0.3,0.4-0.5c0.6-0.7,1.1-1.3,1.8-1.9c0.2-0.2,0.4-0.3,0.6-0.5c0.4-0.3,0.7-0.6,1.1-0.9
						c0.3-0.2,0.5-0.4,0.8-0.6c0.3-0.3,0.6-0.5,1-0.8c0.2-0.2,0.5-0.3,0.7-0.5"/>
				</defs>
				<use xlink:href="#SVGID_23_"  style="overflow:visible;fill:#575756;"/>
				<clipPath id="SVGID_24_">
					<use xlink:href="#SVGID_23_"  style="overflow:visible;"/>
				</clipPath>
			</g>
		</g>
	</g>
</g>
<g>
	<path class="st0" d="M246.3,92.6c-0.2,0-0.4,0-0.7,0c-0.5,0-0.9,0.1-1.2,0.2c-0.3,0.1-0.5,0.3-0.6,0.5c-0.2,0.2-0.3,0.6-0.4,1
		l-0.1,0l0.1-1.9h6.9l0.1,1.9l-0.1,0c-0.1-0.5-0.2-0.8-0.4-1.1c-0.2-0.2-0.5-0.4-0.9-0.5c-0.3-0.1-0.9-0.1-1.6-0.1v5.2
		c0,0.3,0,0.6,0.1,0.8c0,0.2,0.1,0.3,0.2,0.4c0.1,0.1,0.2,0.2,0.3,0.2c0.1,0,0.3,0.1,0.5,0.1v0.1h-3.3v-0.1c0.2,0,0.4,0,0.5-0.1
		c0.1,0,0.2-0.1,0.3-0.2c0.1-0.1,0.2-0.2,0.2-0.4c0-0.2,0.1-0.4,0.1-0.8V92.6z"/>
	<path class="st0" d="M256.2,92.5l0.1,1.7l-0.1,0c0-0.3-0.1-0.5-0.2-0.7c-0.1-0.2-0.3-0.4-0.4-0.5c-0.2-0.1-0.3-0.2-0.6-0.3
		c-0.2,0-0.5-0.1-0.9-0.1h-1.2v3.1h0.3c0.3,0,0.5,0,0.7-0.1c0.2,0,0.3-0.1,0.4-0.2c0.1-0.1,0.2-0.2,0.2-0.4c0-0.1,0.1-0.3,0.1-0.6
		l0.1,0l0,2.7h-0.1c0-0.3-0.1-0.5-0.1-0.6c-0.1-0.2-0.1-0.3-0.2-0.4c-0.1-0.1-0.2-0.2-0.4-0.2c-0.2-0.1-0.4-0.1-0.6-0.1h-0.3V97
		c0,0.5,0,0.8,0,1c0,0.2,0.1,0.4,0.1,0.5c0.1,0.2,0.3,0.4,0.5,0.5c0.2,0.1,0.5,0.2,0.9,0.2c0.4,0,0.8-0.1,1-0.2
		c0.3-0.1,0.5-0.3,0.7-0.5c0.1-0.1,0.2-0.3,0.3-0.5c0.1-0.2,0.1-0.4,0.2-0.7l0.1,0l-0.1,2h-6.1v-0.1c0.2,0,0.4,0,0.5-0.1
		c0.1,0,0.2-0.1,0.3-0.2c0.1-0.1,0.2-0.2,0.2-0.4c0-0.2,0.1-0.4,0.1-0.8v-3.8c0-0.3,0-0.6-0.1-0.8c0-0.2-0.1-0.3-0.2-0.4
		c-0.1-0.1-0.2-0.2-0.3-0.2c-0.1,0-0.3-0.1-0.5-0.1v-0.1H256.2z"/>
	<path class="st0" d="M257.3,99.3c0.2,0,0.4,0,0.5-0.1c0.1,0,0.2-0.1,0.3-0.2c0.1-0.1,0.2-0.2,0.2-0.4c0-0.2,0.1-0.4,0.1-0.8v-3.8
		c0-0.4,0-0.6-0.1-0.8c0-0.2-0.1-0.3-0.3-0.4c-0.2-0.1-0.4-0.2-0.7-0.2v-0.1h2.8c0.6,0,1,0,1.2,0c0.7,0.1,1.3,0.3,1.8,0.6
		c0.5,0.3,0.8,0.8,1.1,1.3c0.3,0.5,0.4,1.1,0.4,1.8c0,0.5-0.1,0.9-0.2,1.3s-0.4,0.8-0.6,1c-0.4,0.4-0.8,0.6-1.4,0.7
		c-0.4,0.1-0.9,0.1-1.3,0.1h-3.8V99.3z M259.5,92.6v5.1c0,0.3,0,0.6,0.1,0.8c0,0.2,0.1,0.3,0.2,0.4c0.2,0.3,0.6,0.4,1.1,0.4
		c0.4,0,0.8-0.1,1.1-0.2c0.3-0.1,0.6-0.4,0.8-0.7c0.2-0.3,0.4-0.6,0.5-1c0.1-0.4,0.2-0.8,0.2-1.2c0-0.5-0.1-0.9-0.2-1.4
		c-0.1-0.4-0.4-0.8-0.6-1.1c-0.4-0.5-0.8-0.8-1.4-0.9c-0.3-0.1-0.7-0.1-1.1-0.1H259.5z"/>
	<path class="st0" d="M270.8,92.5l0.1,1.7l-0.1,0c0-0.3-0.1-0.5-0.2-0.7c-0.1-0.2-0.3-0.4-0.4-0.5c-0.2-0.1-0.3-0.2-0.6-0.3
		c-0.2,0-0.5-0.1-0.9-0.1h-1.2v3.1h0.3c0.3,0,0.5,0,0.7-0.1c0.2,0,0.3-0.1,0.4-0.2c0.1-0.1,0.2-0.2,0.2-0.4c0-0.1,0.1-0.3,0.1-0.6
		l0.1,0l0,2.7h-0.1c0-0.3-0.1-0.5-0.1-0.6c-0.1-0.2-0.1-0.3-0.2-0.4c-0.1-0.1-0.2-0.2-0.4-0.2c-0.2-0.1-0.4-0.1-0.6-0.1h-0.3V97
		c0,0.5,0,0.8,0,1c0,0.2,0.1,0.4,0.1,0.5c0.1,0.2,0.3,0.4,0.5,0.5c0.2,0.1,0.5,0.2,0.9,0.2c0.4,0,0.8-0.1,1-0.2
		c0.3-0.1,0.5-0.3,0.7-0.5c0.1-0.1,0.2-0.3,0.3-0.5c0.1-0.2,0.1-0.4,0.2-0.7l0.1,0l-0.1,2h-6.1v-0.1c0.2,0,0.4,0,0.5-0.1
		c0.1,0,0.2-0.1,0.3-0.2c0.1-0.1,0.2-0.2,0.2-0.4c0-0.2,0.1-0.4,0.1-0.8v-3.8c0-0.3,0-0.6-0.1-0.8c0-0.2-0.1-0.3-0.2-0.4
		c-0.1-0.1-0.2-0.2-0.3-0.2c-0.1,0-0.3-0.1-0.5-0.1v-0.1H270.8z"/>
	<path class="st0" d="M279,99.4h-3.4v-0.1c0.3,0,0.5-0.1,0.6-0.2c0.2-0.1,0.3-0.3,0.3-0.6c0-0.1,0-0.3-0.1-0.6l-0.1-0.2l-0.5-1.2
		h-2.2l-0.3,0.7l-0.1,0.3c-0.2,0.4-0.2,0.7-0.2,0.9c0,0.1,0,0.2,0.1,0.4c0.1,0.1,0.1,0.2,0.2,0.3c0.1,0.1,0.3,0.1,0.5,0.2v0.1h-2.3
		v-0.1c0.2,0,0.3-0.1,0.5-0.1c0.1-0.1,0.3-0.2,0.4-0.4c0.1-0.1,0.2-0.3,0.3-0.5c0.1-0.2,0.2-0.5,0.4-1l1.9-4.8h0.3l2.2,5.4
		c0.2,0.4,0.3,0.7,0.4,0.9c0.1,0.2,0.2,0.3,0.3,0.4c0.1,0.1,0.2,0.1,0.3,0.1c0.1,0,0.3,0.1,0.5,0.1V99.4z M275.8,96.4l-1.1-2.6
		l-1,2.6H275.8z"/>
	<path class="st0" d="M281.9,92.6c-0.2,0-0.4,0-0.7,0c-0.5,0-0.9,0.1-1.2,0.2c-0.3,0.1-0.5,0.3-0.6,0.5c-0.2,0.2-0.3,0.6-0.4,1
		l-0.1,0l0.1-1.9h6.9l0.1,1.9l-0.1,0c-0.1-0.5-0.2-0.8-0.4-1.1c-0.2-0.2-0.5-0.4-0.9-0.5c-0.3-0.1-0.9-0.1-1.6-0.1v5.2
		c0,0.3,0,0.6,0.1,0.8c0,0.2,0.1,0.3,0.2,0.4c0.1,0.1,0.2,0.2,0.3,0.2c0.1,0,0.3,0.1,0.5,0.1v0.1h-3.3v-0.1c0.2,0,0.4,0,0.5-0.1
		c0.1,0,0.2-0.1,0.3-0.2c0.1-0.1,0.2-0.2,0.2-0.4c0-0.2,0.1-0.4,0.1-0.8V92.6z"/>
	<path class="st0" d="M288.5,96v1.8c0,0.3,0,0.6,0.1,0.8c0,0.2,0.1,0.3,0.2,0.4c0.1,0.1,0.2,0.2,0.3,0.2c0.1,0,0.3,0.1,0.5,0.1v0.1
		h-3.3v-0.1c0.2,0,0.4,0,0.5-0.1c0.1,0,0.2-0.1,0.3-0.2c0.1-0.1,0.2-0.2,0.2-0.4c0-0.2,0.1-0.4,0.1-0.8v-3.8c0-0.4,0-0.6-0.1-0.8
		c0-0.2-0.1-0.3-0.2-0.4c-0.1-0.1-0.2-0.2-0.3-0.2c-0.1,0-0.3-0.1-0.5-0.1v-0.1h2.5c0.4,0,0.7,0,0.8,0c0.5,0,0.9,0.1,1.2,0.2
		c0.3,0.1,0.6,0.3,0.8,0.6c0.2,0.3,0.3,0.6,0.3,0.9c0,0.5-0.2,1-0.6,1.3c-0.1,0.1-0.3,0.2-0.4,0.2c-0.1,0.1-0.3,0.1-0.6,0.2
		c0.2,0.1,0.4,0.2,0.5,0.3c0.1,0.1,0.1,0.2,0.2,0.3c0.1,0.1,0.2,0.3,0.3,0.6c0.3,0.6,0.5,1.1,0.7,1.4c0.2,0.3,0.3,0.5,0.4,0.6
		c0.1,0.1,0.2,0.2,0.2,0.2c0.1,0,0.2,0.1,0.3,0.1v0.1h-1.7c-0.1-0.2-0.1-0.3-0.2-0.4l-0.4-0.8c-0.2-0.5-0.4-0.9-0.6-1.3
		c-0.2-0.4-0.4-0.6-0.6-0.8c-0.1-0.1-0.2-0.1-0.3-0.1c-0.1,0-0.2,0-0.4,0H288.5z M288.5,95.9h0.2c0.4,0,0.7,0,0.9-0.1
		c0.2,0,0.4-0.1,0.5-0.3c0.4-0.3,0.5-0.8,0.5-1.3c0-0.3-0.1-0.5-0.2-0.8c-0.1-0.2-0.2-0.4-0.4-0.6c-0.1-0.1-0.3-0.2-0.5-0.2
		c-0.2,0-0.5-0.1-0.8-0.1h-0.2V95.9z"/>
	<path class="st0" d="M298.6,92.5l0.1,1.7l-0.1,0c0-0.3-0.1-0.5-0.2-0.7c-0.1-0.2-0.3-0.4-0.4-0.5c-0.2-0.1-0.3-0.2-0.6-0.3
		c-0.2,0-0.5-0.1-0.9-0.1h-1.2v3.1h0.3c0.3,0,0.5,0,0.7-0.1c0.2,0,0.3-0.1,0.4-0.2c0.1-0.1,0.2-0.2,0.2-0.4c0-0.1,0.1-0.3,0.1-0.6
		l0.1,0l0,2.7h-0.1c0-0.3-0.1-0.5-0.1-0.6c-0.1-0.2-0.1-0.3-0.2-0.4c-0.1-0.1-0.2-0.2-0.4-0.2c-0.2-0.1-0.4-0.1-0.6-0.1h-0.3V97
		c0,0.5,0,0.8,0,1c0,0.2,0.1,0.4,0.1,0.5c0.1,0.2,0.3,0.4,0.5,0.5c0.2,0.1,0.5,0.2,0.9,0.2c0.4,0,0.8-0.1,1-0.2
		c0.3-0.1,0.5-0.3,0.7-0.5c0.1-0.1,0.2-0.3,0.3-0.5c0.1-0.2,0.1-0.4,0.2-0.7l0.1,0l-0.1,2h-6.1v-0.1c0.2,0,0.4,0,0.5-0.1
		c0.1,0,0.2-0.1,0.3-0.2c0.1-0.1,0.2-0.2,0.2-0.4c0-0.2,0.1-0.4,0.1-0.8v-3.8c0-0.3,0-0.6-0.1-0.8c0-0.2-0.1-0.3-0.2-0.4
		c-0.1-0.1-0.2-0.2-0.3-0.2s-0.3-0.1-0.5-0.1v-0.1H298.6z"/>
	<path class="st0" d="M299.8,99.4l0-2.1l0.1,0c0.1,0.5,0.3,1,0.5,1.3c0.4,0.6,0.8,0.9,1.4,0.9c0.4,0,0.7-0.1,1-0.4
		c0.3-0.3,0.4-0.6,0.4-1c0-0.2,0-0.4-0.1-0.5c-0.1-0.2-0.1-0.3-0.2-0.5c-0.1-0.1-0.2-0.3-0.4-0.4c-0.2-0.1-0.5-0.3-0.8-0.5
		c-0.3-0.2-0.6-0.3-0.7-0.4c-0.2-0.1-0.3-0.2-0.4-0.3c-0.3-0.3-0.4-0.7-0.4-1.2c0-0.3,0.1-0.6,0.2-0.8c0.1-0.3,0.3-0.5,0.5-0.7
		c0.4-0.3,0.8-0.5,1.3-0.5c0.2,0,0.3,0,0.4,0c0.1,0,0.3,0.1,0.5,0.2c0.2,0.1,0.3,0.1,0.3,0.1c0.1,0,0.1,0,0.2,0
		c0.1,0,0.2-0.1,0.2-0.3h0.1l0,2h-0.1c-0.1-0.3-0.2-0.6-0.2-0.7c-0.1-0.2-0.1-0.3-0.2-0.5c-0.2-0.3-0.3-0.5-0.6-0.6
		c-0.2-0.1-0.4-0.2-0.7-0.2c-0.4,0-0.7,0.1-0.9,0.4c-0.1,0.1-0.2,0.2-0.2,0.4c-0.1,0.1-0.1,0.3-0.1,0.4c0,0.6,0.4,1,1.1,1.4l0.7,0.3
		c0.6,0.3,1,0.6,1.2,0.9c0.3,0.4,0.4,0.8,0.4,1.2c0,0.3-0.1,0.6-0.2,0.9c-0.2,0.4-0.4,0.7-0.8,0.9c-0.4,0.2-0.8,0.3-1.3,0.3
		c-0.4,0-0.9-0.1-1.3-0.3c-0.2-0.1-0.3-0.1-0.4-0.2c0,0-0.1,0-0.1,0c-0.2,0-0.3,0.1-0.3,0.2H299.8z"/>
</g>
</svg>
