<?xml version="1.0" encoding="utf-8"?>
<!-- Generator: Adobe Illustrator 24.3.0, SVG Export Plug-In . SVG Version: 6.00 Build 0)  -->
<svg version="1.1" id="Layer_1" xmlns="http://www.w3.org/2000/svg" xmlns:xlink="http://www.w3.org/1999/xlink" x="0px" y="0px"
	 viewBox="0 0 329.2 123.9" style="enable-background:new 0 0 329.2 123.9;" xml:space="preserve">
<style type="text/css">
	.st0{fill:#575756;}
	.st1{fill:#535353;}
	.st2{fill:#828282;}
	.st3{fill:#999999;}
	.st4{fill:#767676;}
	.st5{fill:#565656;}
	.st6{fill:#6E6E6E;}
	.st7{fill:#808080;}
	.st8{fill:#595958;}
	.st9{fill:#646464;}
	.st10{fill:#BFBFBF;}
	.st11{fill:#5D5D5D;}
	.st12{opacity:0.5;fill:#595958;}
</style>
<g>
	<path class="st0" d="M18.2,41.5c-0.2-0.7-0.4-1.3-0.5-2c-0.1-0.5-0.3-1-0.4-1.4c0-0.2-0.1-0.2-0.3-0.3c-2.3-0.3-4.2-2.1-4.6-4.4
		c-0.4-2.5,1.1-5,3.5-5.8c0.2-0.1,0.3-0.2,0.4-0.4c1.3-2.8,3.5-4.5,6.5-5.1c4.6-0.8,9.1,2.3,10,6.9c0.9,4.6-1.9,9-6.5,10.2
		c-2.6,0.7-5.3,1.4-7.9,2.1C18.4,41.4,18.3,41.4,18.2,41.5 M24,29.7c0-0.6,0-1.1,0-1.6c0-0.1,0-0.3-0.1-0.4
		c-0.1-0.3-0.3-0.5-0.7-0.5c-0.3,0-0.6,0.2-0.6,0.5c0,0.1,0,0.2,0,0.3c0,1.8,0,3.7,0,5.5c0,0.1,0,0.2,0,0.3c0.1,0.3,0.3,0.5,0.6,0.5
		c0.3,0,0.6-0.2,0.7-0.4c0-0.1,0.1-0.3,0.1-0.5c0-0.8,0-1.5,0-2.3c0-0.4,0.2-0.7,0.5-0.8c0.6-0.2,1.1,0.2,1.1,0.8c0,0.8,0,1.6,0,2.4
		c0,0.4,0.3,0.7,0.7,0.7c0.4,0,0.7-0.3,0.7-0.7c0-0.9,0-1.8,0-2.8c0-0.7-0.5-1.4-1.2-1.6C25.2,29.2,24.6,29.3,24,29.7 M17.1,31.9
		c0,0.2,0,0.4,0.1,0.7c0.2,1.1,1.1,1.8,2.1,1.9c1.1,0.1,2-0.5,2.4-1.5c0.4-1.1,0.3-2.1-0.5-2.9c-0.5-0.6-1.2-0.9-2-0.7
		C17.9,29.6,17.1,30.6,17.1,31.9 M29.9,30.1c0-0.6,0-1.2,0-1.8c0-0.4-0.3-0.7-0.7-0.7c-0.4,0-0.7,0.3-0.7,0.7c0,1.2,0,2.4,0,3.6
		c0,0.4,0.3,0.7,0.7,0.7c0.4,0,0.7-0.3,0.7-0.7C29.9,31.3,29.9,30.7,29.9,30.1 M29.9,33.8c0-0.4-0.3-0.7-0.7-0.7
		c-0.4,0-0.8,0.3-0.7,0.7c0,0.4,0.3,0.7,0.7,0.7C29.6,34.6,29.9,34.2,29.9,33.8"/>
	<path class="st0" d="M41.6,30.3c0.3,0,0.5,0,0.8,0c0.6,0,0.8,0.2,0.9,0.8c0.1,1.7-0.9,3.2-2.8,3.4c-2.2,0.2-3.5-1.4-3.7-3
		c-0.1-1.1,0.1-2.1,0.7-3c0.8-1,1.9-1.3,3.1-1.2c0.6,0.1,1.2,0.2,1.6,0.6c0.2,0.2,0.5,0.4,0.5,0.7c0,0.5-0.4,0.8-0.9,0.6
		c-0.2-0.1-0.3-0.2-0.4-0.3c-0.5-0.3-1-0.4-1.5-0.4c-0.5,0-1,0.3-1.3,0.8c-0.6,0.8-0.5,2.2,0,3c0.6,0.9,2,1,2.7,0.2
		c0.2-0.2,0.3-0.5,0.4-0.8c0.1-0.2,0-0.3-0.3-0.3c-0.3,0-0.5,0-0.8,0c-0.3,0-0.6-0.2-0.6-0.5c0-0.4,0.1-0.7,0.5-0.7
		C40.9,30.3,41.2,30.3,41.6,30.3C41.6,30.3,41.6,30.3,41.6,30.3"/>
	<path class="st0" d="M76.9,31c0-0.9,0-1.8,0-2.7c0-0.5,0.3-0.8,0.8-0.8c0.7,0,1.5,0,2.2,0.1c1.5,0.1,2.6,1.3,2.8,2.8
		c0.1,0.6,0.1,1.2-0.1,1.8c-0.4,1.4-1.5,2.3-3.1,2.3c-0.6,0-1.2,0-1.8,0c-0.6,0-0.8-0.3-0.8-0.8C76.9,32.7,76.9,31.9,76.9,31
		 M78.4,31c0,0.6,0,1.3,0,1.9c0,0.2,0.1,0.3,0.2,0.3c0.2,0,0.5,0,0.7,0c1.1-0.1,1.7-0.5,1.9-1.6c0.1-0.4,0-0.9,0-1.3
		c-0.1-0.8-0.7-1.3-1.5-1.4c-0.3,0-0.7,0-1,0c-0.2,0-0.3,0.1-0.3,0.3C78.4,29.7,78.4,30.3,78.4,31"/>
	<path class="st0" d="M74.3,31.5c0.5,0.5,1,1,1.4,1.5c0.1,0.1,0.2,0.2,0.2,0.3c0.3,0.3,0.3,0.7,0,1c-0.3,0.3-0.7,0.3-1,0
		c-0.3-0.3-0.5-0.6-0.7-0.9c-0.4-0.5-0.9-1.1-1.3-1.6c-0.1-0.1-0.1-0.1-0.2-0.2c0,0,0,0-0.1,0c0,0.1,0,0.2,0,0.3c0,0.6,0,1.2,0,1.8
		c0,0.5-0.2,0.7-0.7,0.7c-0.5,0-0.7-0.2-0.7-0.7c0-1.9,0-3.7,0-5.6c0-0.5,0.3-0.7,0.7-0.7c0.8,0,1.6,0,2.4,0.1
		c0.7,0.1,1.3,0.4,1.6,1.2c0.3,0.7,0.3,1.5-0.2,2.1c-0.3,0.4-0.7,0.5-1.1,0.7C74.6,31.5,74.5,31.5,74.3,31.5 M72.7,29.7
		c0,0.2,0,0.5,0,0.7c0,0.1,0.1,0.2,0.2,0.2c0.3,0,0.6,0,1,0c0.5,0,0.8-0.4,0.8-0.8c0-0.5-0.2-0.9-0.7-1c-0.4-0.1-0.7,0-1.1,0
		c-0.1,0-0.1,0.1-0.1,0.2C72.7,29.2,72.7,29.5,72.7,29.7"/>
	<path class="st0" d="M67.7,27.4c0.5,0,0.8,0.3,1,0.8c0.4,1.1,0.8,2.3,1.2,3.4c0.2,0.6,0.5,1.3,0.7,1.9c0,0.1,0.1,0.2,0.1,0.3
		c0.1,0.4-0.1,0.7-0.4,0.8c-0.4,0.1-0.8,0-0.9-0.4c-0.1-0.3-0.2-0.5-0.3-0.8c0-0.2-0.1-0.2-0.3-0.2c-0.8,0-1.6,0-2.4,0
		c-0.2,0-0.2,0.1-0.3,0.2c-0.1,0.2-0.1,0.5-0.2,0.7c-0.2,0.4-0.5,0.6-0.9,0.5c-0.4-0.1-0.5-0.5-0.4-0.9c0.7-1.8,1.3-3.6,2-5.4
		C66.9,27.6,67.2,27.4,67.7,27.4 M68.6,31.7c-0.3-1-0.6-1.9-0.9-2.8c0,0,0,0-0.1,0c-0.3,0.9-0.6,1.9-0.9,2.8H68.6z"/>
	<path class="st0" d="M58.7,30.6c0-1.1,0.6-2.3,1.9-3c0.9-0.4,1.9-0.4,2.8,0c0.2,0.1,0.3,0.2,0.5,0.3c0.2,0.2,0.3,0.6,0.1,0.9
		c-0.2,0.2-0.4,0.3-0.8,0.2c-0.2-0.1-0.5-0.2-0.7-0.2c-1.2-0.2-2.1,0.5-2.3,1.7c-0.1,0.5-0.1,0.9,0.1,1.4c0.3,1.1,1.3,1.6,2.4,1.2
		c0.2-0.1,0.4-0.2,0.6-0.2c0.3-0.1,0.6-0.1,0.8,0.2c0.2,0.3,0.2,0.6,0,0.9c-0.1,0.1-0.3,0.3-0.5,0.4c-1.2,0.5-2.8,0.4-3.8-0.6
		C59.1,33,58.7,32.1,58.7,30.6"/>
	<path class="st0" d="M46.8,31c0-0.9,0-1.8,0-2.7c0-0.5,0.3-0.8,0.8-0.8c0.8,0,1.6,0,2.5,0c0.3,0,0.5,0.1,0.6,0.4
		c0.1,0.3,0.1,0.5-0.1,0.7c-0.1,0.1-0.3,0.2-0.5,0.2c-0.5,0-1.1,0-1.6,0c-0.2,0-0.3,0.1-0.3,0.2c0,0.3,0,0.7,0,1
		c0,0.2,0.1,0.3,0.3,0.3c0.4,0,0.8,0,1.3,0c0.4,0,0.7,0.3,0.7,0.7c0,0.4-0.3,0.7-0.7,0.7c-0.4,0-0.8,0-1.3,0c-0.2,0-0.3,0.1-0.3,0.3
		c0,0.6,0,1.2,0,1.9c0,0.5-0.2,0.8-0.7,0.8c-0.5,0-0.7-0.3-0.7-0.8C46.8,32.8,46.8,31.9,46.8,31"/>
	<path class="st0" d="M52.9,31.4c0-0.8,0-1.6,0-2.4c0-0.2-0.1-0.3-0.3-0.3c-0.3,0-0.6,0-0.8,0c-0.4,0-0.6-0.3-0.6-0.6
		c0-0.4,0.3-0.7,0.6-0.7c0.6,0,1.2,0,1.8,0c0.6,0,1.2,0,1.8,0c0.3,0,0.5,0.1,0.6,0.4c0.1,0.2,0.1,0.5-0.1,0.7
		c-0.1,0.1-0.3,0.2-0.5,0.2c-0.3,0-0.6,0-0.9,0c-0.2,0-0.3,0.1-0.3,0.3c0,1.5,0,3,0,4.5c0,0.1,0,0.2,0,0.3c0,0.4-0.3,0.6-0.7,0.6
		c-0.4,0-0.7-0.3-0.7-0.7C52.9,33,52.9,32.2,52.9,31.4L52.9,31.4z"/>
	<path class="st0" d="M44.2,31c0-0.9,0-1.9,0-2.8c0-0.6,0.5-0.9,1-0.7c0.3,0.1,0.4,0.4,0.4,0.7c0,1.9,0,3.7,0,5.6
		c0,0.5-0.3,0.7-0.7,0.7c-0.5,0-0.7-0.2-0.7-0.7C44.2,32.8,44.2,31.9,44.2,31"/>
	<path class="st0" d="M20.6,32c-0.1,0.3-0.1,0.6-0.3,0.8c-0.4,0.6-1.2,0.6-1.6,0c-0.3-0.5-0.3-1.3,0-1.8c0.4-0.5,1.1-0.6,1.5,0
		C20.5,31.3,20.5,31.6,20.6,32"/>
</g>
<g>
	<polygon class="st1" points="169.4,27.2 171.7,27.2 170.6,25.3 	"/>
	<polygon class="st2" points="179.8,36.3 177.5,36.3 178.7,38.2 	"/>
	<path class="st3" d="M157.1,27.6H151c-0.2,0-0.5,0.2-0.5,0.5v0.8c0,0.2,0.2,0.5,0.5,0.5h1.5c0.2,0,0.5,0.2,0.5,0.5v4.6
		c0,0,0.1,0.1,0.1,0.1l1.9-0.8c0,0,0,0,0-0.1v-3.8c0-0.3,0.2-0.5,0.5-0.5h1.6c0.2,0,0.5-0.2,0.5-0.5V28
		C157.5,27.8,157.3,27.6,157.1,27.6"/>
	<path class="st3" d="M168.6,34.5l-0.4,1c-0.1,0.1-0.2,0.2-0.4,0.2h-1.3c-0.3,0-0.5-0.3-0.4-0.5l3.2-7.4c0.1-0.1,0.2-0.2,0.4-0.2
		h1.6c0.2,0,0.3,0.1,0.4,0.2l3.1,7.4c0.1,0.3-0.1,0.5-0.4,0.5h-1.4c-0.2,0-0.3-0.1-0.4-0.2l-0.4-1c-0.1-0.1-0.2-0.2-0.4-0.2H169
		C168.8,34.3,168.7,34.4,168.6,34.5 M170.2,30.6l-0.6,1.6c-0.1,0.3,0.1,0.5,0.4,0.5h1.2c0.3,0,0.5-0.3,0.4-0.5l-0.6-1.6
		C170.7,30.3,170.3,30.3,170.2,30.6"/>
	<path class="st3" d="M177.5,35.5l-2.9-7.4c-0.1-0.3,0.1-0.5,0.4-0.5h1.4c0.2,0,0.3,0.1,0.4,0.3l1.6,4.7c0.1,0.3,0.6,0.3,0.7,0
		l1.6-4.7c0.1-0.2,0.2-0.3,0.4-0.3h1.3c0.3,0,0.5,0.3,0.4,0.5l-2.9,7.4c-0.1,0.1-0.2,0.2-0.4,0.2h-1.6
		C177.7,35.8,177.5,35.7,177.5,35.5"/>
	<path class="st3" d="M185.8,29.6v0.9c0,0.2,0.2,0.4,0.4,0.4h3.1c0.2,0,0.4,0.2,0.4,0.4v0.9c0,0.2-0.2,0.4-0.4,0.4h-3.1
		c-0.2,0-0.4,0.2-0.4,0.4v0.9c0,0.2,0.2,0.4,0.4,0.4h3.7c0.2,0,0.4,0.2,0.4,0.4v0.9c0,0.2-0.2,0.4-0.4,0.4h-5.8
		c-0.2,0-0.4-0.2-0.4-0.4V28c0-0.2,0.2-0.4,0.4-0.4h5.6c0.2,0,0.4,0.2,0.4,0.4v0.9c0,0.2-0.2,0.4-0.4,0.4h-3.6
		C186,29.2,185.8,29.4,185.8,29.6"/>
	<path class="st4" d="M147.4,29.8c-0.2,0-0.3,0.1-0.3,0.3v2.3c0,1.1-0.7,1.8-1.6,1.8c-1,0-1.7-0.7-1.7-1.8v-4.1
		c0-0.4-0.3-0.7-0.7-0.7h-0.7c-0.4,0-0.7,0.3-0.7,0.7v4.1c0,2.2,1.5,3.5,3.8,3.5c2.3,0,3.7-1.4,3.7-3.5V30c0-0.2-0.1-0.3-0.3-0.3
		H147.4z"/>
	<polygon class="st5" points="147,29.3 149.3,29.3 148.1,27.4 	"/>
	<path class="st3" d="M164.2,33.4c-0.1-0.2-0.1-0.4,0.1-0.5c0.8-0.5,1.2-1.3,1.2-2.4c0-1.8-1.2-2.9-3.4-2.9h-3.1
		c-0.3,0-0.5,0.2-0.5,0.5v7.2c0,0.3,0.2,0.5,0.5,0.5h1.1c0.3,0,0.5-0.2,0.5-0.5v-0.8l0,0V31l0,0v-1.2c0-0.3,0.2-0.5,0.5-0.5h1.1
		c0.9,0,1.4,0.4,1.4,1.3c0,0.9-0.5,1.3-1.4,1.3h-0.9c-0.1,0-0.1,0.1-0.1,0.1v1.4c0,0.1,0.1,0.1,0.1,0.1h0.9h0.1l1.1,2.1
		c0.1,0.1,0.2,0.2,0.3,0.2h1.4c0.3,0,0.5-0.3,0.3-0.6L164.2,33.4z"/>
	<path class="st4" d="M139,33.2c-0.1-0.1,0-0.2,0.1-0.3c0.9-0.5,1.3-1.4,1.3-2.5c0-1.8-1.2-2.9-3.4-2.9h-3.1c-0.3,0-0.6,0.2-0.6,0.6
		v5.3c0,0.1,0,0.1,0.1,0.2l1.7,0.7c0.1,0,0.2,0,0.2-0.2v-0.3c0,0,0,0,0-0.1h0v-2.3l0,0v-1.7c0-0.3,0.2-0.6,0.6-0.6h1
		c0.9,0,1.4,0.4,1.4,1.3c0,0.9-0.5,1.3-1.4,1.3h-0.9c-0.1,0-0.2,0.1-0.2,0.2v1.3c0,0.1,0.1,0.2,0.2,0.2h0.9h0.1l1.1,2.1
		c0.1,0.1,0.2,0.2,0.3,0.2h1.1c0.4,0,0.7-0.5,0.5-0.9L139,33.2z"/>
	<polygon class="st3" points="133.2,34 133.2,35.9 135.5,35 	"/>
	<polygon class="st6" points="155.1,35.9 155.1,34 152.9,35 	"/>
	<path class="st3" d="M196.7,34h-2.5c-0.3,0-0.5-0.2-0.5-0.5v-4.1c0-0.1-0.1-0.1-0.2-0.1l-1.8,0.7c0,0-0.1,0.1-0.1,0.1v5.1
		c0,0.3,0.2,0.5,0.5,0.5h4.5c0.3,0,0.5-0.2,0.5-0.5v-0.7C197.2,34.3,196.9,34,196.7,34"/>
	<polygon class="st7" points="191.5,27.5 191.5,29.5 193.8,28.6 	"/>
</g>
<g>
	<path class="st8" d="M265.4,30.9c0.5,0,0.8,0.1,1,0.2c0.3,0.1,0.5,0.3,0.6,0.6c0.2,0.3,0.2,0.6,0.3,0.9c0.1,0.3,0.1,0.8,0.1,1.2
		c0,0.6-0.1,1-0.1,1.4c-0.1,0.3-0.2,0.8-0.3,0.9c-0.2,0.3-0.3,0.5-0.6,0.6c-0.3,0.1-0.6,0.2-1,0.2h-1.9v-6L265.4,30.9z M265.1,36.1
		c0.2,0,0.3-0.1,0.5-0.1c0.1-0.1,0.2-0.2,0.3-0.4c0.1-0.2,0.1-0.3,0.2-0.7c0-0.3,0.1-0.6,0.1-1c0-0.3,0-0.7-0.1-0.9
		c0-0.3-0.1-0.5-0.2-0.7c-0.1-0.2-0.2-0.3-0.3-0.3c-0.1-0.1-0.3-0.1-0.6-0.1h-0.5v4.2H265.1z"/>
	<polygon class="st8" points="271.5,32 269.4,32 269.4,33.4 271.4,33.4 271.4,34.4 269.4,34.4 269.4,36 271.7,36 271.7,37 268.2,37 
		268.2,31 271.7,31 271.7,32 	"/>
	<polygon class="st8" points="272.2,30.9 273.5,30.9 273.5,36 275.7,36 275.7,37 272.2,37 	"/>
	<polygon class="st8" points="278.9,32 277.6,32 277.6,37 276.4,37 276.4,32 275,32 275,31 278.9,31 	"/>
	<path class="st8" d="M281.6,30.9l1.6,6h-1.3l-0.3-1.3H280l-0.3,1.3h-1.3l1.6-6H281.6z M281.5,34.8l-0.6-2.7l-0.6,2.7H281.5z"/>
	<polygon class="st8" points="285.6,30.9 286.5,35.2 287.3,30.9 289.1,30.9 289.1,37 288,37 288,32.1 287,37 286.1,37 285,32.1 
		285,37 283.9,37 283.9,31 	"/>
	<path class="st8" d="M292.7,30.9l1.6,6H293l-0.3-1.3h-1.6l-0.3,1.3h-1.3l1.6-6H292.7z M292.6,34.8l-0.6-2.7l-0.6,2.7H292.6z"/>
	<path class="st8" d="M297,30.9c0.5,0,0.9,0.1,1.2,0.3c0.3,0.2,0.5,0.7,0.5,1.2c0,0.3-0.1,0.8-0.2,1c-0.2,0.3-0.5,0.5-0.8,0.5
		c0.3,0.1,0.5,0.2,0.7,0.3c0.2,0.2,0.2,0.3,0.3,0.8v0.3v0.5c0,0.3,0.1,0.6,0.1,0.8c0.1,0.2,0.1,0.3,0.2,0.3v0.1h-1.3
		c-0.1-0.1-0.1-0.2-0.1-0.3c0-0.1-0.1-0.2-0.1-0.3l-0.1-1.2c0-0.2-0.1-0.5-0.2-0.6c-0.1-0.1-0.3-0.2-0.6-0.2h-0.6v2.6h-1.2v-6
		L297,30.9z M296.5,33.6c0.3,0,0.5-0.1,0.7-0.2c0.2-0.1,0.2-0.3,0.2-0.8c0-0.6-0.3-0.8-0.8-0.8H296v1.7L296.5,33.6z"/>
	<path class="st8" d="M302.5,35.3c0,0.2,0,0.3,0.1,0.3c0,0.1,0.1,0.2,0.1,0.3c0.1,0.1,0.2,0.2,0.2,0.2c0.1,0.1,0.2,0.1,0.3,0.1
		c0.1,0,0.3-0.1,0.5-0.2c0.2-0.1,0.2-0.3,0.2-0.6c0-0.1,0-0.3-0.1-0.3c-0.1-0.1-0.1-0.2-0.2-0.3c-0.1-0.1-0.2-0.2-0.3-0.2
		c-0.1-0.1-0.3-0.1-0.5-0.2c-0.3-0.1-0.5-0.2-0.8-0.3c-0.2-0.1-0.3-0.2-0.5-0.3c-0.1-0.2-0.2-0.3-0.3-0.5c-0.1-0.2-0.1-0.3-0.1-0.7
		c0-0.6,0.2-1,0.5-1.3c0.3-0.3,0.8-0.5,1.4-0.5c0.3,0,0.5,0.1,0.8,0.1c0.2,0.1,0.5,0.2,0.6,0.3c0.2,0.1,0.3,0.3,0.3,0.5
		c0.1,0.2,0.2,0.5,0.2,0.8v0.2H304c0-0.3-0.1-0.5-0.2-0.7c-0.1-0.2-0.3-0.2-0.5-0.2c-0.1,0-0.2,0-0.3,0.1c-0.1,0.1-0.2,0.1-0.2,0.2
		c-0.1,0.1-0.1,0.2-0.1,0.2c0,0.1-0.1,0.2-0.1,0.3c0,0.2,0.1,0.3,0.1,0.5c0.1,0.1,0.2,0.2,0.5,0.3l0.9,0.3c0.2,0.1,0.5,0.2,0.6,0.3
		c0.2,0.1,0.3,0.2,0.3,0.3c0.1,0.1,0.2,0.3,0.2,0.5c0.1,0.2,0.1,0.3,0.1,0.5c0,0.6-0.2,1.1-0.6,1.4c-0.4,0.3-0.9,0.5-1.6,0.5
		s-1.2-0.2-1.5-0.5c-0.3-0.3-0.5-0.8-0.5-1.3V35h1.2v0.2L302.5,35.3z"/>
	<rect x="305.9" y="35.7" class="st8" width="1.1" height="1.3"/>
	<path class="st8" d="M310.6,30.9l1.6,6h-1.3l-0.3-1.3H309l-0.3,1.3h-1.3l1.6-6H310.6z M310.5,34.8l-0.6-2.7l-0.6,2.7H310.5z"/>
	<rect x="312.7" y="35.7" class="st8" width="1.1" height="1.3"/>
	<path class="st8" d="M257.6,26.1l-1.6,7.8H256l-1.5-7.3c0-0.3,0.1-0.8,0.1-1.2c0-0.8-0.1-1.6-0.1-2.3c-0.1-0.7-0.3-1.2-0.6-1.7
		c-0.3-0.5-0.6-0.8-1.1-1c-0.5-0.3-1.1-0.3-1.9-0.3h-3.7v6.2h2.3v-4.5h0.9c0.5,0,0.8,0.1,1,0.2c0.3,0.2,0.5,0.3,0.6,0.8
		c0.1,0.3,0.2,0.8,0.3,1.2c0.1,0.5,0.1,1,0.1,1.7v0.6h-1.2v3.3c-0.2,0.1-0.3,0.1-0.6,0.1h-1h-2.3v1.7h3.5h0.3v6h2v-6.7
		c0.2-0.1,0.3-0.3,0.3-0.3l1.6,7.1h1.7l1.9-8.9h0.1v8.9h2V26.2L257.6,26.1z"/>
</g>
<g>
	<path class="st0" d="M31.3,97.8c0.2,0.2,0.4,0.3,0.6,0.3c0.2,0.1,0.5,0.1,0.7,0.1c0.3,0,0.5-0.1,0.8-0.2c0.2-0.1,0.4-0.3,0.6-0.4
		c0.2-0.2,0.3-0.4,0.4-0.6c0.1-0.2,0.2-0.5,0.2-0.8v-0.5h-1.2v0.4c0,0.2,0,0.3-0.1,0.4c0,0.1-0.1,0.2-0.2,0.3
		C33.1,96.9,33,97,32.9,97c-0.1,0-0.2,0-0.3,0c-0.3,0-0.5-0.1-0.6-0.3c-0.1-0.2-0.2-0.4-0.2-0.6v-4.4c0-0.3,0-0.5,0.2-0.7
		c0.1-0.2,0.3-0.3,0.6-0.3c0.2,0,0.4,0.1,0.6,0.3c0.1,0.2,0.2,0.4,0.2,0.6v0.4h1.2v-0.5c0-0.3-0.1-0.6-0.2-0.8
		c-0.1-0.3-0.2-0.5-0.4-0.7c-0.4-0.4-0.8-0.6-1.4-0.6c-0.3,0-0.6,0.1-0.8,0.1c-0.2,0.1-0.5,0.2-0.6,0.4c-0.2,0.2-0.3,0.4-0.4,0.6
		c-0.1,0.2-0.1,0.5-0.1,0.8v4.7c0,0.4,0.1,0.7,0.2,1C31,97.5,31.1,97.7,31.3,97.8z"/>
	<path class="st0" d="M38.7,98.2H40l-1.3-3.9c0.4-0.2,0.7-0.5,0.8-0.9c0.2-0.4,0.2-0.8,0.2-1.3c0-1.7-0.7-2.5-2.2-2.5h-2v8.5h1.2
		v-3.6h0.7L38.7,98.2z M36.8,93.4v-2.7h0.6c0.4,0,0.7,0.1,0.9,0.3c0.1,0.1,0.1,0.3,0.1,0.4c0,0.2,0,0.4,0,0.6s0,0.4,0,0.6
		c0,0.2-0.1,0.3-0.1,0.4c-0.1,0.1-0.2,0.2-0.3,0.3c-0.1,0.1-0.3,0.1-0.5,0.1H36.8z"/>
	<polygon class="st0" points="40.7,98.2 44.4,98.2 44.4,97 42,97 42,94.4 44.1,94.4 44.1,93.3 42,93.3 42,90.8 44.4,90.8 44.4,89.6 
		40.7,89.6 	"/>
	<path class="st0" d="M48.7,97.5c0.2-0.2,0.3-0.5,0.3-0.8c0.1-0.3,0.1-0.6,0.1-1c0-0.3,0-0.6,0-0.8c0-0.2-0.1-0.5-0.2-0.7
		c-0.1-0.2-0.2-0.3-0.4-0.5c-0.2-0.1-0.4-0.3-0.7-0.4L46.9,93c-0.2-0.1-0.3-0.1-0.4-0.2c-0.1-0.1-0.2-0.1-0.2-0.2
		c0-0.1-0.1-0.2-0.1-0.3c0-0.1,0-0.3,0-0.4c0-0.1,0-0.3,0-0.4c0-0.1,0.1-0.3,0.1-0.4c0.1-0.1,0.1-0.2,0.3-0.2
		c0.1-0.1,0.2-0.1,0.4-0.1c0.3,0,0.5,0.1,0.7,0.3s0.2,0.4,0.2,0.7v0.3h1.2v-0.6c0-0.5-0.2-0.9-0.6-1.3c-0.2-0.2-0.4-0.3-0.7-0.4
		c-0.3-0.1-0.5-0.2-0.8-0.2c-0.4,0-0.7,0.1-0.9,0.2c-0.3,0.1-0.5,0.3-0.6,0.5c-0.2,0.2-0.3,0.5-0.4,0.7C45,91.3,45,91.6,45,91.9
		c0,0.5,0.1,1,0.3,1.3c0.2,0.4,0.5,0.6,1.1,0.9l0.9,0.4c0.2,0.1,0.3,0.1,0.4,0.2c0.1,0.1,0.2,0.1,0.2,0.2c0,0.1,0.1,0.2,0.1,0.3
		c0,0.1,0,0.3,0,0.6c0,0.2,0,0.4,0,0.5c0,0.2-0.1,0.3-0.1,0.4c-0.1,0.1-0.2,0.2-0.3,0.3C47.4,97,47.2,97,47,97
		c-0.3,0-0.5-0.1-0.7-0.3s-0.2-0.4-0.2-0.6v-0.4h-1.2v0.5c0,0.3,0.1,0.6,0.2,0.8c0.1,0.2,0.3,0.5,0.4,0.6c0.2,0.2,0.4,0.3,0.7,0.4
		c0.3,0.1,0.5,0.2,0.8,0.2c0.4,0,0.7-0.1,1-0.2C48.3,97.9,48.5,97.8,48.7,97.5z"/>
	<polygon class="st0" points="49.4,90.8 50.9,90.8 50.9,98.2 52.1,98.2 52.1,90.8 53.5,90.8 53.5,89.6 49.4,89.6 	"/>
	<polygon class="st0" points="57.5,87.6 56.2,87.6 55.1,89.2 55.9,89.2 	"/>
	<path class="st0" d="M54.5,97.7c0.2,0.2,0.4,0.3,0.7,0.4s0.5,0.1,0.7,0.1c0.2,0,0.5,0,0.7-0.1c0.2-0.1,0.5-0.2,0.7-0.4
		c0.2-0.2,0.3-0.4,0.5-0.6c0.1-0.3,0.2-0.6,0.2-0.9v-4.5c0-0.3-0.1-0.6-0.2-0.9c-0.1-0.3-0.3-0.5-0.5-0.7c-0.2-0.2-0.4-0.3-0.7-0.4
		c-0.2-0.1-0.5-0.1-0.7-0.1c-0.2,0-0.5,0-0.7,0.1c-0.2,0.1-0.5,0.2-0.7,0.4c-0.2,0.2-0.4,0.4-0.5,0.7s-0.2,0.6-0.2,0.9v4.5
		c0,0.4,0.1,0.7,0.2,0.9C54.1,97.3,54.3,97.6,54.5,97.7z M55,91.6c0-0.3,0.1-0.5,0.2-0.7c0.2-0.1,0.4-0.2,0.6-0.2
		c0.2,0,0.4,0.1,0.6,0.2c0.2,0.1,0.2,0.4,0.2,0.7v4.5c0,0.3-0.1,0.5-0.2,0.7C56.3,97,56.1,97,55.9,97c-0.2,0-0.4-0.1-0.6-0.2
		c-0.2-0.1-0.2-0.4-0.2-0.7V91.6z"/>
	<polygon class="st0" points="63.2,98.2 63.2,89.6 62,89.6 62,94.8 62,94.8 60.1,89.6 59,89.6 59,98.2 60.2,98.2 60.2,93 60.2,93 
		62.1,98.2 	"/>
	<polygon class="st0" points="41.5,86.7 41.2,86.7 40.7,88.3 40.7,88.3 40.2,86.7 39.9,86.7 40.6,88.8 40.8,88.8 	"/>
	<path class="st0" d="M42.1,86.7l-0.8,2.1h0.3l0.2-0.5h0.8l0.2,0.5h0.3l-0.8-2.1H42.1z M42,88l0.3-0.9h0l0.3,0.9H42z"/>
	<polygon class="st0" points="43.4,86.7 43.4,88.8 44.8,88.8 44.8,88.5 43.7,88.5 43.7,86.7 	"/>
	<polygon class="st0" points="45.1,86.7 45.1,88.8 46.4,88.8 46.4,88.5 45.4,88.5 45.4,86.7 	"/>
	<polygon class="st0" points="48.1,87 48.1,86.7 46.7,86.7 46.7,88.8 48.1,88.8 48.1,88.5 47,88.5 47,87.9 47.9,87.9 47.9,87.6 
		47,87.6 47,87 	"/>
	<path class="st0" d="M50.5,87c-0.1-0.2-0.4-0.4-0.6-0.4h-0.7v2.1h0.7c0.2,0,0.3,0,0.4-0.1c0.1-0.1,0.2-0.1,0.3-0.2
		c0,0,0-0.1,0.1-0.1c0,0,0-0.1,0-0.1c0-0.1,0-0.2,0-0.5c0-0.2,0-0.4,0-0.5C50.6,87.2,50.5,87.1,50.5,87z M50.3,88.1
		c0,0.1,0,0.1-0.1,0.2c-0.1,0.1-0.2,0.2-0.4,0.2h-0.4V87h0.4c0.2,0,0.3,0.1,0.4,0.2c0,0,0.1,0.1,0.1,0.2c0,0.1,0,0.2,0,0.4
		C50.3,87.9,50.3,88.1,50.3,88.1z"/>
	<polygon class="st0" points="52.3,87 52.3,86.7 51,86.7 51,88.8 52.3,88.8 52.3,88.5 51.3,88.5 51.3,87.9 52.2,87.9 52.2,87.6 
		51.3,87.6 51.3,87 	"/>
	<polygon class="st0" points="52.6,86.7 52.6,88.8 54,88.8 54,88.5 52.9,88.5 52.9,86.7 	"/>
	<path class="st0" d="M36.2,101c-0.1-0.2-0.1-0.4-0.3-0.6c-0.2-0.2-0.3-0.5-0.6-0.7c-0.2-0.2-0.6-0.2-0.9-0.3
		c-0.5-0.2-0.9-0.1-1.4,0c-0.4,0.1-0.8,0.3-1.1,0.6c-0.1,0.1-0.2,0.2-0.2,0.2c-0.3,0.2-0.4,0.5-0.5,0.8c-0.1,0.4-0.2,0.8-0.3,1.2
		c0.4,0.1,0.7,0.2,1.1,0.3c0.4,0.1,0.8,0.1,1.2,0.2c0.3,0,0.5,0.1,0.8,0c0.5-0.1,1.1-0.2,1.6-0.2c0.3-0.1,0.6-0.1,1-0.2
		c0-0.1,0-0.1,0-0.2C36.4,101.8,36.3,101.4,36.2,101z M36,100.6c-0.4,0-0.7,0.1-1.1,0.1c0.2-0.3,0.3-0.6,0.4-0.9
		C35.6,100.1,35.8,100.4,36,100.6z M34,99.4c0.4,0.1,0.8,0.2,1.2,0.4c-0.1,0.3-0.3,0.6-0.5,0.9C34.5,100.3,34.3,99.9,34,99.4
		C34,99.4,34,99.4,34,99.4z M33.8,99.4c0.3,0.4,0.6,0.9,0.9,1.3c-0.6-0.1-1.1-0.2-1.7-0.3C33.3,100.1,33.6,99.8,33.8,99.4z
		 M33.7,99.4c-0.3,0.4-0.5,0.7-0.7,1c-0.1-0.3-0.2-0.5-0.3-0.8C33,99.6,33.3,99.5,33.7,99.4z M32.5,99.7c0.1,0.3,0.2,0.5,0.3,0.8
		c-0.4,0-0.8,0-1.2,0C31.9,100.2,32.2,100,32.5,99.7z M31.1,102.1c0.1-0.4,0.2-0.9,0.4-1.3c0,0,0,0,0,0c0.1,0.5,0.2,1,0.3,1.5
		C31.5,102.3,31.3,102.2,31.1,102.1z M31.5,100.6c0.4,0,0.9,0,1.3,0c-0.3,0.5-0.6,1.1-0.9,1.6C31.8,101.7,31.7,101.2,31.5,100.6z
		 M32,102.4c0.1-0.3,0.9-1.5,1-1.7c0.2,0.5,0.7,1.8,0.8,1.9C33.1,102.6,32.5,102.5,32,102.4z M33.8,102.6c-0.3-0.7-0.5-1.3-0.8-2
		c0.6,0.1,1.1,0.2,1.7,0.3C34.4,101.4,34.1,102,33.8,102.6z M33.9,102.6c0.3-0.6,0.6-1.1,0.9-1.7c0.3,0.5,0.6,0.9,0.8,1.4
		C35.1,102.4,34.5,102.5,33.9,102.6z M34.9,100.9c0.4,0,0.7-0.1,1.1-0.1c-0.1,0.5-0.2,1-0.3,1.5C35.4,101.8,35.2,101.3,34.9,100.9z
		 M35.8,102.3c0.1-0.4,0.2-0.9,0.3-1.3c0,0,0,0,0,0c0.1,0.4,0.2,0.8,0.3,1.2C36.2,102.2,36.1,102.3,35.8,102.3z"/>
	<path class="st0" d="M38.8,100.8c0-0.2-0.1-0.3-0.2-0.4c-0.1-0.1-0.2-0.1-0.4-0.1h-0.7v1.9h0.3v-0.8h0.4l0.4,0.8h0.3l-0.4-0.8
		C38.7,101.2,38.8,101,38.8,100.8z M37.8,101.1v-0.6h0.4c0.1,0,0.2,0,0.2,0.1c0.1,0,0.1,0.1,0.1,0.2c0,0.1,0,0.1-0.1,0.2
		c-0.1,0.1-0.1,0.1-0.2,0.1H37.8z"/>
	<polygon class="st0" points="39.1,102.1 40.3,102.1 40.3,101.8 39.4,101.8 39.4,101.3 40.2,101.3 40.2,101 39.4,101 39.4,100.5 
		40.3,100.5 40.3,100.2 39.1,100.2 	"/>
	<polygon class="st0" points="40.6,102.1 40.9,102.1 40.9,101.3 41.7,101.3 41.7,101.1 40.9,101.1 40.9,100.5 41.8,100.5 
		41.8,100.2 40.6,100.2 	"/>
	<path class="st0" d="M43,101.5c0,0.1,0,0.2-0.1,0.3c-0.1,0.1-0.2,0.1-0.3,0.1s-0.2,0-0.3-0.1c-0.1-0.1-0.1-0.2-0.1-0.3v-1.2H42v1.2
		c0,0.2,0.1,0.4,0.2,0.5c0.1,0.1,0.3,0.2,0.5,0.2c0.2,0,0.3-0.1,0.5-0.2c0.1-0.1,0.2-0.3,0.2-0.5v-1.2H43V101.5z"/>
	<path class="st0" d="M44.3,101.4h0.4v0.1c0,0.1,0,0.2-0.1,0.3c-0.1,0.1-0.2,0.1-0.3,0.1c-0.1,0-0.1,0-0.2,0c0,0-0.1-0.1-0.1-0.1
		c0,0-0.1-0.1-0.1-0.2c0-0.1,0-0.2,0-0.4c0-0.2,0-0.3,0-0.4c0-0.1,0-0.1,0.1-0.2c0,0,0.1-0.1,0.1-0.1c0,0,0.1,0,0.2,0
		c0.1,0,0.2,0,0.2,0.1c0.1,0.1,0.1,0.1,0.1,0.2h0.3c0-0.2-0.1-0.3-0.2-0.4c-0.1-0.1-0.3-0.2-0.4-0.2c-0.1,0-0.3,0-0.4,0.1
		c-0.1,0.1-0.2,0.1-0.2,0.2c0,0,0,0.1-0.1,0.2c0,0.1,0,0.2,0,0.4c0,0.2,0,0.4,0,0.4c0,0,0,0.1,0,0.1c0,0,0,0.1,0,0.1
		c0,0.1,0.1,0.2,0.2,0.2c0.1,0.1,0.2,0.1,0.4,0.1c0.2,0,0.3-0.1,0.5-0.2c0.1-0.1,0.2-0.3,0.2-0.5v-0.4h-0.7V101.4z"/>
	<rect x="45.3" y="100.2" class="st0" width="0.3" height="1.9"/>
	<path class="st0" d="M47.1,100.6c0-0.1-0.1-0.2-0.2-0.2c-0.1-0.1-0.2-0.1-0.4-0.1c-0.1,0-0.3,0-0.4,0.1c-0.1,0.1-0.2,0.1-0.2,0.2
		c0,0,0,0.1-0.1,0.2c0,0.1,0,0.2,0,0.4c0,0.2,0,0.4,0,0.4c0,0,0,0.1,0,0.1c0,0,0,0.1,0,0.1c0,0.1,0.1,0.2,0.2,0.2
		c0.1,0.1,0.2,0.1,0.4,0.1c0.1,0,0.3,0,0.4-0.1c0.1-0.1,0.2-0.1,0.2-0.2c0,0,0.1-0.1,0.1-0.2c0-0.1,0-0.2,0-0.4c0-0.2,0-0.4,0-0.4
		C47.2,100.7,47.2,100.6,47.1,100.6z M46.9,101.6c0,0.1,0,0.1-0.1,0.2c0,0-0.1,0.1-0.1,0.1c0,0-0.1,0-0.2,0c-0.1,0-0.1,0-0.2,0
		c0,0-0.1-0.1-0.1-0.1c0,0-0.1-0.1-0.1-0.2c0-0.1,0-0.2,0-0.4c0-0.2,0-0.3,0-0.4c0-0.1,0-0.1,0.1-0.2c0,0,0.1-0.1,0.1-0.1
		c0,0,0.1,0,0.2,0c0.1,0,0.1,0,0.2,0c0,0,0.1,0.1,0.1,0.1c0,0,0.1,0.1,0.1,0.2c0,0.1,0,0.2,0,0.4C46.9,101.4,46.9,101.5,46.9,101.6z
		"/>
	<path class="st0" d="M49.4,100.6c-0.1-0.2-0.3-0.3-0.6-0.3h-0.7v1.9h0.6c0.1,0,0.3,0,0.4-0.1c0.1-0.1,0.2-0.1,0.2-0.2
		c0,0,0-0.1,0.1-0.1c0,0,0-0.1,0-0.1c0-0.1,0-0.2,0-0.4c0-0.2,0-0.3,0-0.4C49.5,100.7,49.5,100.6,49.4,100.6z M49.2,101.5
		c0,0.1,0,0.1-0.1,0.2c-0.1,0.1-0.2,0.2-0.3,0.2h-0.3v-1.3h0.3c0.1,0,0.3,0,0.3,0.2c0,0,0.1,0.1,0.1,0.2c0,0.1,0,0.2,0,0.3
		C49.2,101.4,49.2,101.5,49.2,101.5z"/>
	<polygon class="st0" points="49.8,102.1 51,102.1 51,101.8 50.1,101.8 50.1,101.3 50.9,101.3 50.9,101 50.1,101 50.1,100.5 
		51,100.5 51,100.2 49.8,100.2 	"/>
	<polygon class="st0" points="52.7,101.5 52.2,100.2 51.9,100.2 51.9,102.1 52.2,102.1 52.2,101 52.2,101 52.6,101.8 52.8,101.8 
		53.2,101 53.2,101 53.2,102.1 53.5,102.1 53.5,100.2 53.3,100.2 	"/>
	<path class="st0" d="M55.1,100.6c0-0.1-0.1-0.2-0.2-0.2c-0.1-0.1-0.2-0.1-0.4-0.1c-0.1,0-0.3,0-0.4,0.1c-0.1,0.1-0.2,0.1-0.2,0.2
		c0,0,0,0.1-0.1,0.2c0,0.1,0,0.2,0,0.4c0,0.2,0,0.4,0,0.4c0,0,0,0.1,0,0.1c0,0,0,0.1,0,0.1c0,0.1,0.1,0.2,0.2,0.2
		c0.1,0.1,0.2,0.1,0.4,0.1c0.1,0,0.3,0,0.4-0.1c0.1-0.1,0.2-0.1,0.2-0.2c0,0,0.1-0.1,0.1-0.2c0-0.1,0-0.2,0-0.4c0-0.2,0-0.4,0-0.4
		C55.2,100.7,55.1,100.6,55.1,100.6z M54.9,101.6c0,0.1,0,0.1-0.1,0.2c0,0-0.1,0.1-0.1,0.1c0,0-0.1,0-0.2,0c-0.1,0-0.1,0-0.2,0
		c0,0-0.1-0.1-0.1-0.1c0,0-0.1-0.1-0.1-0.2c0-0.1,0-0.2,0-0.4c0-0.2,0-0.3,0-0.4c0-0.1,0-0.1,0.1-0.2c0,0,0.1-0.1,0.1-0.1
		c0,0,0.1,0,0.2,0c0.1,0,0.1,0,0.2,0c0,0,0.1,0.1,0.1,0.1c0,0,0.1,0.1,0.1,0.2c0,0.1,0,0.2,0,0.4C54.9,101.4,54.9,101.5,54.9,101.6z
		"/>
	<polygon class="st0" points="56.6,101.6 56.6,101.6 55.8,100.2 55.5,100.2 55.5,102.1 55.8,102.1 55.8,100.8 55.8,100.8 
		56.7,102.1 56.9,102.1 56.9,100.2 56.6,100.2 	"/>
	<polygon class="st0" points="58.4,100.2 57.1,100.2 57.1,100.5 57.6,100.5 57.6,102.1 57.9,102.1 57.9,100.5 58.4,100.5 	"/>
	<path class="st0" d="M58.9,100.2l-0.7,1.9h0.3l0.1-0.4h0.7l0.1,0.4h0.3l-0.7-1.9H58.9z M58.8,101.4l0.3-0.8h0l0.3,0.8H58.8z"/>
	<polygon class="st0" points="61.2,101.6 61.2,101.6 60.3,100.2 60,100.2 60,102.1 60.3,102.1 60.3,100.8 60.3,100.8 61.2,102.1 
		61.4,102.1 61.4,100.2 61.2,100.2 	"/>
	<path class="st0" d="M60.9,99.9C60.9,99.9,60.9,99.9,60.9,99.9c-0.1,0-0.1,0-0.2-0.1c0,0-0.1,0-0.1,0c0,0-0.1,0-0.1,0
		c-0.1,0-0.1,0-0.2,0.1c-0.1,0.1-0.1,0.1-0.1,0.2h0.2c0,0,0-0.1,0-0.1c0,0,0,0,0.1,0c0.1,0,0.1,0,0.2,0c0,0,0.1,0,0.1,0
		c0,0,0.1,0,0.1,0c0.1,0,0.2,0,0.2-0.1c0-0.1,0.1-0.1,0.1-0.2h-0.2C61.1,99.9,61,99.9,60.9,99.9C61,99.9,61,99.9,60.9,99.9z"/>
	<path class="st0" d="M62.3,100.2l-0.7,1.9h0.3l0.1-0.4h0.7l0.1,0.4h0.3l-0.7-1.9H62.3z M62.2,101.4l0.3-0.8h0l0.3,0.8H62.2z"/>
	<path class="st0" d="M64.9,89.6c-0.3-0.4-0.8-0.5-1.2-0.9c-0.4-0.4-0.6-1-1-1.4c-0.2-0.2-0.4-0.4-0.6-0.6c0.1,0,0.1,0,0.2,0
		c0.1,0,0.2-0.1,0.2-0.2C62.4,86,62.3,86,62,85.7c-0.4-0.3-0.7-0.6-1.1-1c-0.1-0.1-0.1-0.3-0.2-0.5c-0.4-0.4-1-0.7-1.6-1
		c0,0,0,0,0,0c0-0.3,0.1-0.5-0.1-0.8c-0.2-0.4-1.3-0.6-0.8-1.4c0.1-0.1,0-0.2,0-0.2c-0.3-0.4-0.6-0.6-1.1-0.8c-0.1,0-0.1,0-0.1-0.1
		c0,0-0.1,0-0.1,0c-0.3-0.2-0.3-0.3-0.6-0.7c-0.1-0.1-0.2-0.1-0.3,0c-0.1,0-0.2,0.1-0.4,0.1c0-0.1,0.1-0.2,0.1-0.2
		c0.1-0.2-0.1-0.3-0.2-0.3c-0.2,0.1-0.3,0.1-0.4,0.1c-0.3-0.6-1-2.5-0.7-2.8c0.1-0.1,0.1-0.2,0-0.3c-0.1-0.1-0.1-0.1-0.2-0.2
		c0,0,0,0,0,0c0.1,0,0.2,0,0.3,0.1c0.2,0,0.4-0.2,0.2-0.3c-0.4-0.4-0.9-0.7-1.4-1c0.2,0,0.2-0.3,0-0.4c-1.1-0.3-2.3-0.7-3.4-1
		c-0.1,0-0.1,0-0.2,0c0,0,0,0,0,0c-0.3-0.1-0.5,0.1-0.5,0.4c0,0.2,0.1,0.3,0.2,0.5c-0.1,0.3-0.2,0.6-0.3,0.9c0,0,0,0,0,0.1
		c-2.9,2.6-5.7,5.2-8.4,8.1c0,0,0,0,0,0c-0.7-0.1-1.5,0-2.1-0.4c-0.4-0.3-0.6-0.7-1.1-0.7c0,0,0,0,0,0c-0.1,0-0.1,0-0.2,0.1
		c0,0,0,0,0,0c0,0-0.1,0-0.1,0.1c0,0.1-0.1,0.2-0.1,0.3c-0.2,0.2-0.4,0.5-0.6,0.7c0,0-0.1,0-0.1,0c-0.5,0.4-1,0.8-1.4,1.2
		c0,0,0,0-0.1,0.1c-0.2,0.2-0.5,0.4-0.7,0.5c-0.6,0.4-1.2,0.8-1.8,1.2c0,0,0,0,0,0c0,0-0.1,0-0.1,0.1c-0.5,0.3-1,0.5-1.5,0.8
		c0,0,0,0,0,0c-0.1,0-0.3,0-0.4,0.1c-0.2,0.2-0.3,0.6-0.6,0.6c-0.2,0.1-0.1,0.4,0.1,0.3c0.2,0,0.3-0.2,0.5-0.3
		c0-0.1,0.1-0.2,0.2-0.3c0,0,0.1,0.1,0.1,0.1c0,0,0,0,0,0c0,0.1,0.1,0.1,0.1,0.1c0.1-0.1,0.2-0.1,0.3-0.2c0,0,0,0,0,0
		c-0.1,0.1,0,0.1,0.1,0.1c0,0-0.1,0.1-0.1,0.1c-0.1,0.1,0,0.2,0.1,0.1c0.1,0,0.1-0.1,0.2-0.1c0,0.1,0.1,0.3,0.3,0.2
		c0.1-0.1,0.2-0.2,0.3-0.2c0,0,0,0,0,0c-0.1,0.1,0,0.2,0.1,0.1c0.1,0,0.1-0.1,0.2-0.1c0.1,0.1,0.2,0.1,0.3,0c0,0,0.1-0.1,0.1-0.1
		c0.1,0,0.1,0,0.2-0.1c0,0,0,0,0.1-0.1c0,0.1,0.1,0.1,0.1,0.1c0.1-0.1,0.3-0.2,0.4-0.3c0.1-0.1,0.2-0.2,0.3-0.2c0,0.1,0,0.2,0.1,0.1
		c0.2-0.1,0.4-0.3,0.5-0.4c0,0,0.1,0,0.1-0.1c0,0.1,0.1,0.1,0.1,0.1c0.1-0.1,0.3-0.3,0.4-0.4c0,0,0,0,0,0c-0.1,0.1-0.1,0.1-0.2,0.2
		c-0.1,0.1,0,0.2,0.1,0.1c0.1,0,0.1-0.1,0.2-0.1c0,0,0,0,0,0c0,0,0,0,0,0c-0.1,0.1,0,0.2,0.1,0.1c0.2-0.1,0.3-0.3,0.4-0.4
		c0,0,0,0,0,0c0,0.1,0.1,0.1,0.1,0c0.1-0.1,0.3-0.2,0.4-0.4c0,0.1,0.1,0.1,0.1,0.1c0,0,0,0,0.1-0.1c0,0,0.1,0,0.1-0.1
		c0,0,0.1-0.1,0.1-0.1c0,0,0.1-0.1,0.1-0.1c-0.1,0.1-0.2,0.2-0.3,0.4c-0.1,0.1,0,0.2,0.1,0.1c0.2-0.1,0.3-0.3,0.5-0.4
		c0.1,0,0.1,0,0.2,0c0.1-0.1,0.2-0.2,0.3-0.2c-0.1,0.1-0.1,0.1-0.2,0.2c-0.1,0.1,0,0.2,0.1,0.1c0.1,0,0.1-0.1,0.2-0.1c0,0,0,0,0,0
		c0,0,0.1-0.1,0.1-0.1c0.1,0,0.1-0.1,0.2-0.1c0,0.1,0,0.1,0,0.2c0,0,0,0,0,0c0,0,0,0.1,0,0.1c0,0.1,0.1,0.1,0.2,0.1
		c0.4,0,0.9,0.1,1.3,0.1c0,0,0.1,0,0.1,0c0,0,0,0,0,0c0,0.1,0,0.2,0.1,0.2c0.3,0.1,0.5,0.2,0.7,0.4c0.2,0.1,0.4-0.1,0.2-0.2
		c-0.2-0.2-0.4-0.3-0.6-0.4c-0.1-0.1-0.2-0.2-0.3-0.3c0,0,0,0-0.1-0.1c-0.1,0-0.1-0.1-0.2-0.1c0,0,0,0,0,0c0-0.1-0.1-0.1-0.1-0.1
		c0,0,0,0,0,0c0,0-0.1-0.1-0.1-0.1c0-0.1,0.1-0.1,0.1-0.2c0.1-0.1,0-0.2-0.1-0.1c-0.1,0-0.2,0.1-0.2,0.1c0,0,0,0-0.1-0.1
		c0,0,0.1-0.1,0.1-0.1c0-0.1,0-0.2-0.1-0.1c-0.1,0-0.1,0.1-0.2,0.1c-0.1-0.1-0.2-0.1-0.2-0.2c0,0,0-0.1-0.1-0.1c0,0,0,0-0.1-0.1
		c0-0.1-0.1-0.2-0.2-0.2c-0.1-0.1-0.1-0.2-0.2-0.2c0,0,0.1-0.1,0.1-0.1c0,0,0,0.1,0,0.1c0,0,0,0.1,0.1,0.1c0.2,0.1,0.4,0.2,0.4,0.5
		c0,0.1,0.2,0.1,0.2,0c0-0.2-0.1-0.3-0.3-0.4c0,0-0.2-0.1-0.2-0.1c0-0.1-0.1-0.1,0-0.2c0.1-0.1,0.2-0.1,0.2-0.2
		c0,0.2,0.1,0.3,0.3,0.2c0,0,0,0,0,0c0,0.1,0.2,0.2,0.3,0.1c0.2-0.1,0.4-0.2,0.7-0.3c0,0.2,0.2,0.3,0.3,0.2c0,0,0,0,0.1-0.1
		c0.1,0,0.3,0.1,0.5,0.1c0.1,0.1,0.2,0.1,0.3,0.1c0,0,0.1,0,0.1-0.1c0.2,0,0.3,0,0.5,0c0.1,0,0.1,0,0.2,0c0.1,0.1,0.2,0.2,0.3,0.1
		c0,0,0,0,0,0c0,0,0,0.1,0,0.1c-0.1,0.1,0.1,0.2,0.2,0.1c0,0,0,0,0,0c0,0,0,0,0.1,0.1c0.1,0.1,0.1,0,0.2,0c0,0,0-0.1,0.1-0.1
		c0,0,0,0,0,0c0,0.1,0.1,0.1,0.1,0c0,0.1,0.1,0.1,0.2,0c0-0.1,0-0.1,0.1-0.2c0,0,0,0,0,0c0,0,0,0,0,0c0,0,0.1,0,0.1,0
		c0,0,0,0.1,0.1,0c0,0,0,0,0.1,0c-0.1,0.1,0,0.2,0.1,0.1c0.3-0.2,0.6-0.3,0.9-0.5c0.1,0,0.1-0.1,0-0.1c0.1-0.1,0.2-0.1,0.3-0.2
		c0,0,0,0,0,0c0.1-0.1,0.3-0.2,0.4-0.3c0.1-0.1,0-0.2-0.1-0.2c0,0,0,0,0,0c0,0,0,0-0.1,0c-0.1,0.1-0.2,0.2-0.3,0.3
		c0,0-0.1,0.1-0.1,0.1c-0.2,0.1-0.3,0.2-0.5,0.3c0.2-0.1,0.3-0.2,0.5-0.4c0,0,0,0,0-0.1c0.1-0.1,0.2-0.1,0.4-0.2
		c0.2-0.1,0.1-0.2,0-0.3c0.1-0.1,0.2-0.1,0.3-0.2c0,0,0,0,0-0.1c0.1,0,0.1-0.1,0.1-0.1c-0.1,0.1,0.1,0.2,0.1,0.1
		c0.1-0.1,0.2-0.2,0.3-0.2c0,0,0,0,0,0c0,0,0,0,0,0c0,0.1,0.1,0.1,0.2,0c0,0,0,0,0-0.1c0,0,0,0.1,0,0.1c0,0.1,0.2,0.1,0.2,0
		c0,0,0,0,0,0c0,0,0,0,0.1,0c0,0,0,0,0,0.1c0,0.1,0.1,0.1,0.2,0c0,0,0-0.1,0.1-0.1c0,0.1,0,0.1,0,0.2c0,0.1,0.2,0.1,0.2,0
		c0,0,0,0,0,0.1c0,0.1,0.2,0,0.2,0c0,0,0-0.1,0-0.1c0,0,0.1,0,0.1-0.1c0,0,0,0,0,0c0,0,0,0,0,0c0.1,0.1,0.2,0,0.2-0.1
		c0,0,0-0.1,0-0.1c0,0.1,0.1,0.1,0.1,0.2c0,0.1,0.2,0,0.2,0c0,0,0,0,0-0.1c0,0,0.1,0.1,0.1,0.1c0,0,0.1,0,0.2,0
		c0,0.1,0.1,0.2,0.2,0.2c0.1,0.1,0.2,0,0.2-0.1c0-0.1,0-0.1-0.1-0.2c0.1,0.1,0.1,0.2,0.2,0.3c0.1,0.1,0.2,0,0.2-0.1
		c0-0.1-0.1-0.2-0.1-0.2c0,0.1,0.1,0.1,0.1,0.2c0.1,0.1,0.2,0,0.1-0.1c0,0,0,0,0,0c0,0,0,0,0,0c0,0,0.1,0,0.1,0
		c0.1,0.1,0.2,0.2,0.3,0.3c0.1,0,0.2,0,0.1-0.1c0-0.1,0-0.1-0.1-0.2c0,0,0,0,0,0c0,0,0,0,0.1,0c0.1,0.1,0.1,0.2,0.2,0.4
		c0,0.1,0.2,0.1,0.2,0c0-0.1,0-0.2,0-0.2c0.1,0.1,0.1,0.3,0.2,0.4c0,0.1,0.2,0.1,0.2,0c0-0.2-0.1-0.4-0.1-0.6c0,0,0-0.1,0.1-0.1
		c0,0,0,0,0,0c0,0.1,0.1,0.1,0.1,0.2c0,0,0,0,0,0c-0.1,0.1,0.1,0.2,0.2,0.1c0,0,0,0,0,0c0,0,0,0,0,0c0,0,0.1,0,0.1,0c0,0,0,0,0,0
		c0,0.1-0.1,0.2-0.1,0.2c0,0.1,0,0.1,0.1,0.1c0.1,0,0.2,0,0.3-0.1c0,0.1,0.1,0.1,0.2,0c0.1-0.1,0-0.2-0.1-0.2c0-0.1-0.1-0.1-0.1-0.1
		c0,0-0.1,0.1-0.1,0.1c0,0,0-0.1,0-0.1c0,0,0,0,0,0c0,0,0.1,0,0.1,0c0,0,0,0,0,0c0,0,0,0,0,0c0.1,0.1,0.1,0.1,0.2,0.2c0,0,0,0,0,0
		c0,0.1-0.1,0.1-0.1,0.2c0,0,0,0.1,0,0.1c0.1,0.1,0.3,0.2,0.4,0.3c0,0.1,0,0.1,0,0.2c0,0.1,0.2,0.2,0.3,0.2c0,0,0,0,0,0
		c0.1,0.1,0.2,0,0.2-0.1c0-0.1-0.1-0.1-0.1-0.1c0-0.1,0-0.3-0.1-0.4c0,0,0.1,0,0.1,0c0,0,0,0,0,0c0,0,0,0.1,0,0.1
		c0.2,0.2,0.4,0.3,0.5,0.5c0.1,0.1,0.2,0,0.2-0.1c-0.2-0.2-0.4-0.4-0.6-0.6c0,0,0,0-0.1,0c0,0,0,0,0,0c0.1-0.1,0-0.2-0.1-0.1
		c0,0,0,0-0.1,0.1c0,0,0,0,0,0c-0.1-0.2-0.1-0.3-0.3-0.4c0,0,0-0.1,0-0.1c0.1-0.1,0.1-0.1,0.2-0.2c0-0.1,0-0.1,0-0.2
		c0.1-0.1,0.1-0.1,0.2-0.2c0.1-0.1,0-0.3-0.1-0.3c0,0,0,0,0,0c0.1-0.2,0-0.4-0.2-0.3c0,0-0.1,0-0.1,0.1c0.1-0.2,0.3-0.3,0.4-0.5
		c0.1-0.2-0.1-0.4-0.2-0.2c-0.1,0.1-0.2,0.2-0.3,0.2c0,0-0.1,0-0.1,0c0,0-0.1,0-0.1,0.1c0,0,0,0,0,0c0-0.1,0-0.2-0.1-0.3
		c0,0,0,0,0,0c0.1,0.1,0.2,0,0.2-0.1c-0.1-0.2-0.1-0.4-0.2-0.6c0,0,0,0,0-0.1c0-0.1,0-0.2,0-0.2c0,0,0.1,0,0.1-0.1
		c0-0.1,0-0.1,0-0.2c0.1,0,0.2-0.1,0.3-0.2c0,0-0.1,0.1-0.1,0.2c0,0.1,0,0.1,0.1,0.1c0,0,0,0,0,0c0,0.1,0.1,0.2,0.1,0.1
		c0.2-0.1,0.3-0.2,0.5-0.4c0,0,0.1,0,0.1,0c0,0,0,0,0,0c-0.1,0.2-0.2,0.3-0.4,0.5c-0.1,0.1,0,0.2,0.1,0.1c0.1-0.1,0.1-0.1,0.2-0.2
		c0,0,0,0,0.1,0c0,0,0.1,0,0.1,0c-0.1,0.1-0.2,0.3-0.3,0.4c-0.1,0.1,0.1,0.2,0.1,0.1c0.1-0.1,0.2-0.2,0.3-0.3c0,0,0,0,0,0
		c0,0,0,0,0,0c-0.1,0.1-0.1,0.2-0.2,0.3c0,0.1,0.1,0.2,0.1,0.1c0.1-0.1,0.2-0.2,0.3-0.3c0,0,0,0,0.1,0c-0.1,0.2-0.2,0.4-0.3,0.6
		c0,0.1,0.1,0.2,0.1,0.1c0.1-0.1,0.2-0.1,0.2-0.2c0,0,0,0,0,0c0,0,0,0.1,0,0.1c-0.1,0.1-0.1,0.2-0.2,0.3c0,0.1,0,0.2,0.1,0.1
		c0,0,0.1-0.1,0.1-0.1c0,0.1-0.1,0.1-0.1,0.2c0,0,0,0.1,0,0.1c0,0-0.1,0.1-0.1,0.1c-0.1,0.1,0.1,0.2,0.1,0.1
		c0.1-0.1,0.1-0.1,0.2-0.2c0,0,0,0,0,0c0,0,0,0,0,0c-0.1,0.1-0.1,0.2-0.2,0.3c0,0.1,0.1,0.2,0.1,0.1c0.1-0.1,0.1-0.2,0.2-0.2
		c-0.1,0.1-0.1,0.2-0.2,0.3c0,0.1,0,0.2,0.1,0.1c0,0,0,0,0.1,0c-0.1,0.1-0.2,0.2-0.2,0.3c0,0,0,0.1,0,0.1c0,0-0.1,0.1-0.1,0.1
		c0,0,0,0.1,0,0.1c0,0.1,0.1,0.1,0.1,0.2c0,0.1,0.2,0.1,0.2,0c0-0.2-0.1-0.2,0.1-0.4c0,0,0-0.1,0-0.1c0.1-0.1,0.2-0.3,0.3-0.5
		c0.1-0.1,0.1-0.2,0.2-0.3c0.1-0.1,0.2-0.2,0.3-0.3c0,0,0,0,0,0c0,0.1,0.1,0.2,0.2,0.2c0,0,0.1,0.1,0.1,0.1c0,0,0,0,0,0
		c0,0.1,0.1,0.1,0.2,0.1c0,0,0,0,0,0c0,0,0,0,0,0c0,0.1-0.1,0.1-0.1,0.2c-0.1,0.2,0.2,0.4,0.3,0.2c0,0,0,0,0,0c0,0.1,0,0.2,0.1,0.2
		c0,0,0,0,0,0c0,0.1,0,0.1,0.1,0.1c0,0.1-0.1,0.2-0.1,0.2c-0.1,0.2,0.2,0.4,0.3,0.2c0.1-0.1,0.2-0.3,0.4-0.4c0,0,0.1,0,0.1,0
		c0,0,0.1,0,0.1-0.1c0,0.1-0.1,0.2-0.1,0.2c-0.1,0.2,0.1,0.4,0.3,0.3c0.1,0,0.1-0.1,0.2-0.1c0,0,0,0,0.1,0c0,0,0,0,0,0
		c0,0.1,0,0.1,0.1,0.1c0,0,0,0,0,0c0,0,0,0,0,0c0,0,0,0,0,0.1c-0.1,0.2,0.1,0.4,0.3,0.3c0,0,0.1-0.1,0.1-0.1c0,0,0,0,0,0
		c0,0,0,0.1,0,0.1c-0.1,0.2,0.2,0.4,0.3,0.2c0,0,0,0,0.1,0c0,0,0,0,0,0c0,0,0,0.1,0,0.1c0,0.2,0.2,0.3,0.4,0.1c0,0,0.1-0.1,0.1-0.1
		c0,0,0,0,0,0c-0.1,0.1-0.1,0.2-0.1,0.3c0,0.1,0.1,0.1,0.1,0.1c0,0,0,0,0.1,0c0,0.1-0.1,0.1-0.1,0.2c0,0.1,0,0.2,0.1,0.1
		c0.1-0.1,0.2-0.1,0.3-0.2c0,0,0.1,0.1,0.1,0c0,0,0.1,0,0.1-0.1c0,0.1,0,0.2-0.1,0.3c0,0.1,0,0.1,0.1,0.1c0.1,0,0.2,0,0.3-0.1
		c0,0,0,0.1,0.1,0.1c0,0,0,0,0,0c0,0,0,0,0,0.1c0,0,0,0,0,0l0,0c0,0,0,0,0,0C57,84.1,57,84.5,57.1,85c0,0,0,0.1,0.1,0.1
		c0,0.2,0,0.4,0,0.6c0,0.1,0.2,0.1,0.2,0c0-0.2,0-0.5,0.1-0.7c0.1,0.3,0.2,0.6,0.3,1c0,0.1,0.2,0.1,0.2,0c0-0.2,0-0.5,0-0.7
		c0,0.4,0.1,0.8,0.1,1.1c0,0.1,0.2,0.1,0.2,0c0-0.2,0-0.3,0-0.5c0,0.4,0,0.7,0.1,1.1c0,0.1,0.2,0.1,0.2,0c0-0.4,0.1-0.8,0.1-1.1
		c0,0.4,0,0.9,0,1.3c0,0.1,0.1,0.1,0.2,0.1c0,0.1,0,0.3,0,0.4c0,0.1,0.2,0.1,0.2,0c0-0.5,0.1-1,0.2-1.5c0,0.2,0,0.3,0,0.5
		C59,87,59,87.3,59,87.6c0,0.1,0.1,0.1,0.2,0c0,0.2-0.1,0.4-0.1,0.6c0,0.1,0.2,0.2,0.2,0c0.1-0.3,0.1-0.6,0.2-0.9
		c0-0.1,0.1-0.3,0.1-0.4c0.1-0.1,0.1-0.2,0.1-0.2c0,0,0.1,0,0.1,0c0,0,0,0,0,0c0,0,0-0.1,0-0.1c0,0,0,0,0,0c0,0-0.1,0-0.1,0
		c0,0-0.1,0.1-0.1,0.1c0-0.2,0-0.3,0-0.5c0-0.1-0.1-0.1-0.1-0.1c0-0.1,0-0.2,0-0.2c0.1,0.1,0.2,0.1,0.2,0c0.1-0.1,0.2-0.1,0.3-0.2
		c0,0.1,0.1,0.1,0.1,0c0,0,0,0,0,0c0,0.1,0,0.2,0,0.3c0,0.1,0.1,0.2,0.2,0.2c0.1,0.1,0.3,0.1,0.4,0.2c0.1,0.1,0.2,0.1,0.3,0.1
		c0.1,0,0.1,0,0.2-0.1c0,0.1,0.1,0.1,0.1,0.1c0,0,0,0,0.1,0c0,0.1,0,0.1,0,0.2c0,0.1,0.1,0.2,0.2,0.1c0,0,0,0,0.1,0
		c0,0.1,0,0.1,0,0.2c0,0.1,0.1,0.1,0.1,0.1c0,0,0.1-0.1,0.1-0.1c0,0,0,0,0,0.1c0,0,0,0,0,0c0,0.1-0.1,0.2-0.1,0.3
		c0,0.1,0.1,0.1,0.1,0.1c0.1,0,0.2-0.1,0.3-0.1c0,0,0,0,0.1,0.1c0,0.1,0,0.2,0,0.2c0,0.1,0,0.1,0.1,0.1c0.1,0,0.1,0,0.2,0
		c0,0.1,0,0.2-0.1,0.2c0,0.1,0,0.1,0.1,0.1c0.2-0.1,0.2,0,0.1,0.2c0,0.1,0,0.1,0.1,0.1c0.3-0.1,0.2-0.1,0.1,0.2c0,0.1,0,0.1,0.1,0.1
		c0.3-0.1,0.1,0,0.3,0.1c0.4,0.2,0.9,0.5,1.3,0.8c0,0,0.1,0,0.1,0c0.2,0.1,0.3,0.3,0.5,0.5c0.2,0.3,0.5,0.7,0.8,0.9v-0.2
		C65.4,90.6,65.2,89.9,64.9,89.6z M32.6,87C32.6,87,32.6,87,32.6,87C32.6,87,32.6,87,32.6,87C32.6,87,32.6,87,32.6,87z M32.6,86.3
		C32.5,86.3,32.5,86.3,32.6,86.3c0-0.1,0.1-0.1,0.1-0.2C32.6,86.2,32.6,86.2,32.6,86.3z M34.7,84.8C34.7,84.8,34.7,84.8,34.7,84.8
		c0-0.1,0-0.1,0.1-0.2c0,0,0,0,0,0C34.8,84.7,34.8,84.7,34.7,84.8z M35.5,84.6c0,0-0.1-0.1-0.1-0.1c0,0,0.1-0.1,0.1-0.1
		c0,0,0.1,0,0.1,0C35.5,84.5,35.5,84.6,35.5,84.6z M36.9,84C36.9,84,36.9,84,36.9,84c-0.1,0.1-0.1,0.1-0.1,0.1
		c0-0.1,0.1-0.2,0.2-0.2C36.9,83.9,36.9,83.9,36.9,84C36.9,84,36.9,84,36.9,84z M37.1,82.8C37.1,82.8,37.2,82.8,37.1,82.8
		c0,0.1,0,0.1,0.1,0.1c0,0.1-0.1,0.1-0.1,0.2c0,0,0,0,0,0c0,0,0-0.1,0.1-0.1C37.2,83,37.2,82.9,37.1,82.8
		C37.1,82.9,37.1,82.8,37.1,82.8z M37.1,84.5c0-0.1,0.1-0.2,0.1-0.3c0-0.1,0-0.1,0-0.1c0.1,0,0.1,0.1,0.2,0.1
		C37.3,84.3,37.2,84.4,37.1,84.5z M38.3,85C38.3,85,38.3,85.1,38.3,85C38.4,85.1,38.3,85.1,38.3,85C38.3,85.1,38.3,85.1,38.3,85
		C38.3,85,38.3,85,38.3,85z M37.5,82.1C37.5,82.1,37.5,82.1,37.5,82.1C37.5,82.1,37.5,82.1,37.5,82.1C37.5,82,37.5,82.1,37.5,82.1
		C37.5,82.1,37.5,82.1,37.5,82.1z M38.1,82.9C38.1,82.9,38.1,82.8,38.1,82.9c0.1-0.2,0-0.3-0.1-0.3c0,0-0.1,0-0.1,0
		c0-0.1,0.1-0.1,0.1-0.2c0.1,0.1,0.2,0.2,0.2,0.3c0.1,0.1,0.1,0.1,0.2,0.2C38.2,82.8,38.1,82.8,38.1,82.9z M39.9,83.4
		c0,0,0.1,0,0.1,0C40,83.4,39.9,83.4,39.9,83.4z M41.2,83.3C41.2,83.3,41.1,83.3,41.2,83.3C41.1,83.3,41.2,83.3,41.2,83.3
		C41.2,83.3,41.2,83.3,41.2,83.3z M41.2,82.9c0.1-0.1,0.2-0.1,0.3-0.2C41.4,82.7,41.3,82.8,41.2,82.9z M41.8,82.5
		C41.7,82.5,41.7,82.5,41.8,82.5c-0.1,0.1-0.1,0.1-0.2,0.1c0.1-0.1,0.2-0.1,0.2-0.2C41.9,82.4,41.9,82.4,41.8,82.5
		C41.9,82.4,41.8,82.4,41.8,82.5z M41.9,82.7c0,0,0-0.1,0-0.1c0,0,0,0,0.1,0c0.1,0,0.1-0.1,0.2-0.1C42,82.6,41.9,82.6,41.9,82.7z
		 M42.6,81.2c0.2-0.2,0.4-0.4,0.6-0.6c0,0,0,0.1,0,0.1C43.1,80.9,42.8,81.1,42.6,81.2z M42.7,82.1C42.7,82.1,42.7,82.1,42.7,82.1
		C42.7,82.1,42.7,82.1,42.7,82.1C42.7,82.1,42.7,82.1,42.7,82.1z M42.9,83.1C42.9,83.1,42.9,83.1,42.9,83.1
		C42.9,83.1,42.9,83.1,42.9,83.1C42.9,83.1,42.9,83.1,42.9,83.1C42.9,83.1,42.9,83.1,42.9,83.1z M42.8,81.7
		C42.8,81.7,42.8,81.7,42.8,81.7C42.8,81.7,42.8,81.7,42.8,81.7c0.1-0.1,0.2-0.2,0.4-0.3c0.1,0,0-0.1,0-0.1c0,0,0.1-0.1,0.1-0.1
		c0,0,0,0.1,0.1,0.1C43.2,81.4,43,81.6,42.8,81.7z M43.4,81.6C43.4,81.6,43.5,81.5,43.4,81.6c0.1-0.1,0.1-0.1,0.1-0.1
		c0,0,0.1,0,0.1-0.1C43.5,81.5,43.5,81.5,43.4,81.6z M43.8,81.3c0.1-0.1,0.1-0.1,0.2-0.2c0,0,0,0,0.1-0.1c0,0,0.1,0,0.1,0
		C44,81.1,43.9,81.2,43.8,81.3z M44.3,81.7C44.2,81.6,44.2,81.6,44.3,81.7c0-0.1,0.1-0.2,0.2-0.2c0,0,0.1,0.1,0.2,0
		c0.1,0,0.1,0,0.2,0c0,0,0,0,0,0.1C44.6,81.6,44.4,81.6,44.3,81.7z M44.7,81.3C44.7,81.3,44.7,81.3,44.7,81.3
		C44.7,81.3,44.7,81.3,44.7,81.3C44.6,81.3,44.6,81.3,44.7,81.3C44.6,81.3,44.6,81.3,44.7,81.3C44.7,81.2,44.7,81.2,44.7,81.3
		C44.7,81.2,44.7,81.2,44.7,81.3z M44.7,80.4C44.7,80.4,44.8,80.3,44.7,80.4C44.8,80.3,44.8,80.4,44.7,80.4
		C44.7,80.4,44.7,80.4,44.7,80.4z M44.9,80.1C44.9,80.1,44.9,80.1,44.9,80.1C45,80.1,45,80,44.9,80.1C45,80,45,80.1,44.9,80.1z
		 M45.1,81.1C45.1,81.1,45.1,81.1,45.1,81.1C45.1,81.1,45.1,81.1,45.1,81.1C45.1,81.1,45.2,81.1,45.1,81.1
		C45.2,81.1,45.1,81.1,45.1,81.1z M45.2,81.3C45.2,81.3,45.2,81.3,45.2,81.3C45.2,81.3,45.2,81.3,45.2,81.3
		C45.2,81.3,45.2,81.3,45.2,81.3C45.2,81.3,45.2,81.3,45.2,81.3C45.2,81.3,45.2,81.3,45.2,81.3z M45.4,78.7
		c-0.6,0.4-1.1,0.9-1.6,1.4c0,0,0,0.1,0,0.1c-0.2,0.1-0.3,0.2-0.4,0.3c0.9-0.9,1.7-1.7,2.6-2.5c-0.2,0.2-0.3,0.4-0.5,0.5
		C45.4,78.6,45.4,78.6,45.4,78.7z M45.5,80.7C45.5,80.7,45.5,80.7,45.5,80.7c0,0.1,0.1,0.1,0.1,0.2c0,0,0,0,0,0c0,0,0,0-0.1,0
		C45.5,80.9,45.5,80.8,45.5,80.7z M45.5,81.5C45.5,81.5,45.5,81.5,45.5,81.5C45.5,81.5,45.5,81.5,45.5,81.5
		C45.5,81.4,45.5,81.4,45.5,81.5C45.5,81.4,45.5,81.4,45.5,81.5c0-0.1,0.1-0.1,0.1-0.1C45.6,81.5,45.6,81.5,45.5,81.5z M45.7,81.1
		c0,0-0.1,0-0.1,0c0,0,0,0,0,0c0.1,0,0.1-0.1,0.2-0.1C45.8,81.1,45.7,81.1,45.7,81.1z M46,81.3c-0.1,0-0.1,0-0.1,0.1c0,0,0,0-0.1,0
		c0,0,0,0,0,0c0.1,0,0.2-0.1,0.2-0.1C46,81.2,46,81.2,46,81.3C46,81.2,46,81.3,46,81.3z M46.1,81.1C46.1,81.1,46.1,81.1,46.1,81.1
		C46.2,81.1,46.2,81.1,46.1,81.1C46.1,81.1,46.1,81.1,46.1,81.1z M46,80.6c0,0.1,0,0.1,0.1,0.1c-0.1,0-0.1,0.1-0.2,0.1c0,0,0,0,0,0
		c0,0,0,0,0,0c0,0,0,0,0,0c0,0,0,0,0,0c0,0,0-0.1,0-0.1c0,0,0.1-0.1,0.1-0.1c0.1,0,0.1-0.1,0.2-0.1c0,0,0,0,0,0.1c0,0,0,0,0,0
		C46.1,80.5,46.1,80.6,46,80.6z M46.4,79.4C46.4,79.4,46.4,79.4,46.4,79.4C46.4,79.4,46.4,79.4,46.4,79.4
		C46.4,79.4,46.4,79.4,46.4,79.4C46.4,79.4,46.4,79.4,46.4,79.4z M46.5,81c0,0-0.1,0-0.1,0c0,0,0,0,0-0.1c0,0,0,0,0,0
		c0.1-0.1,0.1-0.1,0.2-0.2c0,0,0,0,0,0.1C46.5,80.9,46.5,80.9,46.5,81C46.5,81,46.5,81,46.5,81z M46.6,80.8
		C46.6,80.8,46.6,80.7,46.6,80.8C46.6,80.7,46.6,80.7,46.6,80.8C46.6,80.8,46.6,80.8,46.6,80.8z M46.7,80.3
		C46.7,80.3,46.7,80.3,46.7,80.3C46.7,80.3,46.7,80.3,46.7,80.3c-0.1,0.1-0.2,0.1-0.1,0.2c0,0,0,0,0,0c0,0,0,0,0,0c0,0,0,0,0,0
		c0,0,0,0,0,0c0,0,0-0.1,0-0.1c0,0,0,0,0,0c0,0,0-0.1,0-0.1c0.1,0,0.1-0.1,0.2-0.1c0,0,0,0,0,0C46.7,80.2,46.7,80.2,46.7,80.3
		C46.7,80.2,46.7,80.2,46.7,80.3z M46.8,80.7C46.8,80.7,46.8,80.7,46.8,80.7c0,0,0-0.1,0-0.1c0.1,0,0.1,0,0.1-0.1c0,0,0,0,0,0
		C46.9,80.6,46.8,80.7,46.8,80.7z M46.8,77.8c0,0-0.1,0-0.1,0.1c0,0-0.1,0.1-0.1,0.1c0,0,0,0,0,0c0.1-0.1,0.3-0.2,0.4-0.4
		C46.9,77.7,46.8,77.8,46.8,77.8z M47.1,79.3C47.1,79.3,47.1,79.3,47.1,79.3C47.1,79.3,47.2,79.3,47.1,79.3
		C47.2,79.3,47.1,79.3,47.1,79.3z M47.2,78.2C47.2,78.2,47.2,78.2,47.2,78.2c-0.1,0-0.1,0-0.1,0c0,0,0,0,0.1-0.1c0,0,0,0,0,0
		C47.2,78.2,47.2,78.2,47.2,78.2C47.2,78.2,47.2,78.2,47.2,78.2z M47.3,80.2C47.3,80.2,47.3,80.2,47.3,80.2
		C47.3,80.2,47.3,80.2,47.3,80.2C47.3,80.2,47.3,80.2,47.3,80.2z M47.3,79.4C47.3,79.4,47.3,79.4,47.3,79.4c0-0.1,0-0.1,0.1-0.1
		C47.4,79.3,47.4,79.3,47.3,79.4C47.4,79.4,47.3,79.4,47.3,79.4z M47.4,80.1C47.4,80.1,47.4,80.1,47.4,80.1
		C47.4,80.1,47.4,80.1,47.4,80.1C47.4,80.1,47.4,80,47.4,80.1C47.4,80,47.4,80.1,47.4,80.1z M47.4,79C47.4,79,47.4,79,47.4,79
		C47.4,79,47.4,79,47.4,79C47.4,79,47.4,79,47.4,79z M47.4,77.1c-0.1,0-0.1,0.1-0.2,0.1c0.1-0.1,0.2-0.2,0.3-0.3c0,0,0,0,0,0
		C47.5,76.9,47.5,77,47.4,77.1z M47.5,77.9C47.5,77.9,47.5,77.9,47.5,77.9C47.5,77.8,47.6,77.8,47.5,77.9
		C47.6,77.8,47.6,77.8,47.5,77.9C47.6,77.8,47.5,77.9,47.5,77.9z M47.8,79.6C47.8,79.6,47.8,79.6,47.8,79.6
		C47.8,79.6,47.8,79.6,47.8,79.6C47.8,79.6,47.8,79.6,47.8,79.6z M47.8,76.6C47.8,76.6,47.8,76.6,47.8,76.6
		C47.8,76.6,47.8,76.6,47.8,76.6C47.8,76.6,47.8,76.6,47.8,76.6z M48,79.5C48,79.5,48,79.5,48,79.5C48,79.5,48,79.5,48,79.5
		c0-0.1,0-0.1,0.1-0.1C48,79.4,48,79.4,48,79.5z M48.2,79.9C48.2,79.8,48.2,79.8,48.2,79.9C48.2,79.8,48.2,79.8,48.2,79.9
		C48.2,79.8,48.2,79.8,48.2,79.9C48.2,79.8,48.2,79.8,48.2,79.9z M48.3,81.4C48.3,81.4,48.3,81.4,48.3,81.4
		C48.3,81.5,48.3,81.5,48.3,81.4C48.3,81.5,48.3,81.5,48.3,81.4z M48.4,80.5C48.4,80.5,48.4,80.5,48.4,80.5
		C48.4,80.4,48.4,80.4,48.4,80.5C48.4,80.4,48.4,80.4,48.4,80.5C48.4,80.4,48.4,80.5,48.4,80.5z M47.9,76.5c0.2-0.2,0.4-0.4,0.6-0.6
		c0,0,0,0,0,0C48.4,76,48.2,76.2,47.9,76.5z M48.6,79.9C48.6,79.9,48.6,79.9,48.6,79.9C48.6,79.9,48.5,79.9,48.6,79.9
		C48.6,79.9,48.6,79.9,48.6,79.9C48.6,79.9,48.6,79.9,48.6,79.9z M48.5,76.6C48.5,76.6,48.5,76.6,48.5,76.6
		C48.5,76.6,48.5,76.6,48.5,76.6C48.5,76.6,48.5,76.6,48.5,76.6z M48.5,81.2C48.5,81.2,48.5,81.2,48.5,81.2
		C48.5,81.2,48.5,81.2,48.5,81.2C48.5,81.2,48.5,81.2,48.5,81.2C48.6,81.2,48.6,81.2,48.5,81.2C48.5,81.2,48.5,81.2,48.5,81.2z
		 M48.6,81.4C48.6,81.4,48.6,81.4,48.6,81.4C48.6,81.4,48.6,81.5,48.6,81.4C48.6,81.5,48.6,81.4,48.6,81.4z M49.8,82.3
		C49.8,82.3,49.8,82.3,49.8,82.3C49.8,82.3,49.8,82.3,49.8,82.3C49.8,82.3,49.8,82.3,49.8,82.3z M49.2,76C49.2,76,49.2,76,49.2,76
		C49.2,76,49.2,76,49.2,76C49.2,76,49.2,76,49.2,76z M49.2,77C49.2,77,49.2,77,49.2,77C49.2,77,49.2,77.1,49.2,77
		C49.2,77.1,49.2,77.1,49.2,77C49.2,77.1,49.2,77.1,49.2,77z M48.7,78.4C48.7,78.4,48.8,78.4,48.7,78.4c0.1-0.1,0.1-0.2,0-0.2
		c0.1-0.1,0.3-0.2,0.4-0.3c0,0.1,0,0.1-0.1,0.2C49,78.2,48.9,78.3,48.7,78.4z M48.9,80.2C48.9,80.2,48.9,80.2,48.9,80.2
		C48.9,80.2,48.9,80.2,48.9,80.2C48.9,80.2,48.9,80.2,48.9,80.2z M48.9,78.9c-0.1,0-0.1,0.1-0.1,0.1c0,0,0,0,0,0c0,0,0,0,0,0
		c0,0,0,0,0,0C48.9,78.9,48.9,78.9,48.9,78.9c0,0,0.1,0,0.1-0.1c0.1-0.1,0.1-0.1,0.2-0.2c0,0,0,0,0,0c0,0,0,0.1,0,0.1
		c0,0.1,0,0.1,0,0.2c0-0.1-0.1,0-0.1,0c0,0,0,0,0,0c0,0,0,0-0.1,0C49.1,78.9,49,78.8,48.9,78.9z M49.2,79.2
		C49.2,79.2,49.2,79.2,49.2,79.2C49.2,79.1,49.2,79.1,49.2,79.2C49.2,79.2,49.2,79.2,49.2,79.2z M49,79.8C49,79.8,49,79.7,49,79.8
		C49,79.7,49,79.7,49,79.8C49,79.7,49,79.7,49,79.8C49,79.8,49,79.8,49,79.8z M49,79.4C49,79.4,49,79.3,49,79.4
		C49,79.3,49,79.3,49,79.4C49.1,79.3,49.1,79.3,49,79.4C49.1,79.4,49,79.4,49,79.4z M49.1,80C49.1,80,49.1,80,49.1,80
		c0-0.1,0-0.1,0.1-0.1c0,0,0,0.1,0.1,0.1C49.2,80,49.2,80,49.1,80C49.1,80,49.1,80,49.1,80z M49.3,80.3c0,0-0.1,0-0.1,0
		c0,0,0,0-0.1,0c0,0,0,0,0,0c0,0,0,0,0-0.1c0,0,0,0,0,0c0,0,0,0,0.1-0.1c0,0,0-0.1,0-0.1C49.3,80.1,49.3,80.2,49.3,80.3
		C49.4,80.2,49.4,80.3,49.3,80.3C49.4,80.3,49.4,80.3,49.3,80.3z M49.4,75.7c0-0.1,0-0.1,0-0.1c0,0,0,0,0,0c0,0,0,0,0.1,0
		C49.4,75.6,49.4,75.7,49.4,75.7z M49.5,77C49.5,77,49.4,77,49.5,77C49.4,77,49.4,77,49.5,77C49.4,77,49.5,77,49.5,77
		C49.5,77,49.5,77,49.5,77z M49.5,73.2C49.5,73.2,49.5,73.2,49.5,73.2C49.5,73.2,49.5,73.2,49.5,73.2C49.5,73.2,49.5,73.2,49.5,73.2
		z M49.8,74.9C49.8,74.9,49.8,74.9,49.8,74.9C49.8,74.9,49.8,74.9,49.8,74.9C49.8,74.9,49.8,74.9,49.8,74.9z M49.8,75.4
		C49.8,75.4,49.8,75.4,49.8,75.4C49.8,75.3,49.8,75.3,49.8,75.4C49.8,75.3,49.9,75.3,49.8,75.4C49.9,75.3,49.8,75.4,49.8,75.4z
		 M49.9,77.8C49.9,77.8,49.9,77.8,49.9,77.8C49.9,77.8,49.9,77.8,49.9,77.8C49.9,77.8,49.9,77.8,49.9,77.8z M50,73.4
		C50,73.4,49.9,73.4,50,73.4C49.9,73.4,49.9,73.4,50,73.4C50,73.4,50,73.3,50,73.4C50,73.3,50,73.3,50,73.4C50,73.3,50,73.4,50,73.4
		z M50.5,74.2C50.5,74.2,50.5,74.3,50.5,74.2C50.5,74.2,50.5,74.2,50.5,74.2C50.5,74.2,50.5,74.2,50.5,74.2z M50.4,77.4
		C50.4,77.4,50.4,77.4,50.4,77.4C50.4,77.4,50.4,77.4,50.4,77.4C50.3,77.4,50.3,77.4,50.4,77.4C50.3,77.4,50.4,77.4,50.4,77.4z
		 M50.6,78.2C50.6,78.2,50.6,78.2,50.6,78.2C50.6,78.2,50.6,78.2,50.6,78.2c-0.1,0.2-0.2,0.2-0.3,0.3c0,0,0.1-0.1,0.1-0.1
		c0,0,0,0,0.1-0.1c0,0,0,0,0.1,0C50.5,78.2,50.6,78.1,50.6,78.2C50.6,78.1,50.6,78.1,50.6,78.2z M50.9,78.4
		C50.9,78.4,50.9,78.4,50.9,78.4C50.9,78.4,50.9,78.4,50.9,78.4C50.9,78.4,50.9,78.4,50.9,78.4z M50.9,74.6
		C50.9,74.6,50.8,74.5,50.9,74.6c-0.1-0.1,0-0.1,0-0.2c0,0,0.1,0,0.1,0.1C51,74.5,50.9,74.6,50.9,74.6z M51,78.8
		C51,78.8,51,78.7,51,78.8C51,78.7,51.1,78.7,51,78.8C51.1,78.7,51,78.7,51,78.8z M51.2,78.6C51.2,78.6,51.2,78.6,51.2,78.6
		C51.2,78.6,51.2,78.6,51.2,78.6c0-0.1,0-0.1,0-0.1C51.2,78.5,51.2,78.5,51.2,78.6C51.2,78.5,51.2,78.6,51.2,78.6z M51.2,77.7
		C51.2,77.7,51.2,77.7,51.2,77.7C51.2,77.7,51.2,77.7,51.2,77.7C51.2,77.7,51.2,77.7,51.2,77.7z M51.3,74.1c-0.1,0-0.2-0.1-0.3-0.1
		c0,0,0,0,0-0.1c0,0,0.1,0,0.1,0C51.2,74,51.3,74,51.3,74.1c0.1,0,0.1,0,0.2,0c0,0,0,0,0,0c0,0,0,0,0,0C51.5,74,51.4,74,51.3,74.1z
		 M51.6,79.3C51.6,79.3,51.6,79.3,51.6,79.3c-0.1,0.1-0.1,0.1-0.2,0.1c0,0-0.1,0-0.1,0.1c0.1-0.2,0.2-0.3,0.3-0.5c0,0,0,0,0,0
		c0,0,0,0,0,0.1c0,0.1,0,0.1,0,0.1C51.7,79.2,51.7,79.2,51.6,79.3z M51.6,78C51.6,78,51.6,78,51.6,78c0-0.1,0-0.1,0-0.1
		c0,0,0,0,0.1,0c0,0,0,0,0,0C51.6,77.9,51.6,78,51.6,78z M51.7,78.7C51.7,78.7,51.7,78.7,51.7,78.7C51.7,78.7,51.6,78.7,51.7,78.7
		C51.6,78.7,51.6,78.7,51.7,78.7C51.7,78.7,51.7,78.7,51.7,78.7z M51.5,75.4C51.5,75.3,51.6,75.3,51.5,75.4c0.1-0.1,0.2-0.2,0.2-0.2
		C51.7,75.2,51.6,75.3,51.5,75.4z M51.8,75.3C51.8,75.3,51.8,75.3,51.8,75.3L51.8,75.3C51.8,75.3,51.8,75.3,51.8,75.3z M51.9,79.5
		C51.8,79.5,51.8,79.5,51.9,79.5C51.8,79.4,51.8,79.4,51.9,79.5c0,0,0.1,0,0.1-0.1c0,0,0,0,0,0C52,79.4,52,79.5,51.9,79.5
		C51.9,79.5,51.9,79.5,51.9,79.5z M52,80.2C52,80.2,52,80.2,52,80.2C52,80.2,51.9,80.2,52,80.2c0,0,0-0.1,0.1-0.2c0,0,0,0,0,0
		c0,0,0,0,0,0c0,0,0,0.1,0,0.1C52.1,80.1,52,80.1,52,80.2z M52,75.3c0-0.1,0.1-0.2,0.1-0.3c0,0,0.1,0,0.1,0
		C52.2,75.1,52.1,75.2,52,75.3z M52.4,79.8C52.5,79.8,52.5,79.7,52.4,79.8C52.5,79.7,52.5,79.8,52.4,79.8
		C52.5,79.8,52.4,79.8,52.4,79.8z M52.5,80.1C52.5,80.1,52.5,80.1,52.5,80.1C52.5,80.1,52.5,80.1,52.5,80.1c0-0.1,0-0.1-0.1-0.1
		c0,0,0,0,0,0c0,0,0,0,0,0C52.5,80,52.5,80,52.5,80.1C52.5,80.1,52.5,80.1,52.5,80.1z M52.5,79.3C52.5,79.3,52.5,79.4,52.5,79.3
		C52.4,79.4,52.4,79.4,52.5,79.3C52.4,79.4,52.4,79.4,52.5,79.3C52.5,79.4,52.5,79.3,52.5,79.3C52.5,79.3,52.5,79.3,52.5,79.3z
		 M52.4,78.6C52.5,78.6,52.5,78.6,52.4,78.6C52.5,78.5,52.5,78.6,52.4,78.6C52.5,78.6,52.5,78.6,52.4,78.6
		C52.5,78.6,52.5,78.6,52.4,78.6C52.4,78.6,52.4,78.6,52.4,78.6z M52.5,75.1c0,0.1,0,0.2,0,0.3c0,0-0.1,0.1-0.1,0.1c0,0,0,0,0,0
		c0,0,0,0,0,0C52.3,75.3,52.4,75.1,52.5,75.1c0-0.1,0-0.1,0-0.1c0,0,0,0,0.1,0C52.5,74.9,52.5,75,52.5,75.1
		C52.5,75,52.5,75,52.5,75.1z M52.6,78.7C52.6,78.7,52.6,78.7,52.6,78.7L52.6,78.7C52.6,78.7,52.6,78.7,52.6,78.7
		C52.6,78.7,52.6,78.7,52.6,78.7C52.6,78.7,52.6,78.7,52.6,78.7C52.6,78.7,52.6,78.7,52.6,78.7z M54.1,78.5c0,0.1,0.1,0.1,0.1,0.2
		c0,0,0,0,0,0C54.1,78.6,54.1,78.6,54.1,78.5C54,78.5,54.1,78.5,54.1,78.5z M53.3,74.8c0.1,0.1,0.2,0.1,0.3,0.2
		C53.5,74.9,53.4,74.9,53.3,74.8C53.3,74.8,53.3,74.8,53.3,74.8C53.3,74.8,53.3,74.8,53.3,74.8z M53.1,75.6c0,0,0-0.1,0-0.1
		c0,0,0,0,0-0.1c0.2,0.1,0.4,0.1,0.6,0.2c0.1,0.1,0.2,0.3,0.2,0.5c0,0.1,0,0.2,0,0.4c-0.1-0.1-0.3-0.2-0.4-0.3c0-0.1,0-0.2-0.1-0.2
		c-0.1,0-0.2,0-0.2-0.1c0,0-0.1-0.1-0.1-0.1C53.1,75.7,53.1,75.6,53.1,75.6z M52.9,79.4c-0.1,0.1-0.1,0.1-0.2,0.2c0-0.1,0-0.1,0-0.2
		C52.8,79.4,52.8,79.4,52.9,79.4C52.8,79.3,52.9,79.3,52.9,79.4C52.9,79.3,52.9,79.3,52.9,79.4C52.9,79.4,52.9,79.4,52.9,79.4z
		 M52.9,76.8C52.9,76.8,52.9,76.8,52.9,76.8C52.9,76.8,52.9,76.8,52.9,76.8C52.9,76.8,52.9,76.8,52.9,76.8
		C52.9,76.8,52.9,76.8,52.9,76.8z M53,79.6c0,0,0-0.1,0-0.1c0,0,0,0,0.1,0.1C53,79.6,53,79.6,53,79.6z M53.2,79.4
		c-0.1-0.1-0.1-0.1-0.2-0.2c0,0,0.1,0,0.1,0c0,0,0.1,0,0.1,0.1C53.3,79.3,53.2,79.4,53.2,79.4z M53.2,77.4c0-0.1,0.1-0.1,0.1-0.2
		c0,0,0,0,0.1,0.1C53.3,77.3,53.3,77.3,53.2,77.4z M53.7,77.8c0,0,0-0.1,0-0.1C53.8,77.7,53.8,77.7,53.7,77.8
		C53.8,77.8,53.7,77.8,53.7,77.8z M53.5,76.8C53.5,76.8,53.5,76.8,53.5,76.8C53.5,76.8,53.5,76.8,53.5,76.8c0.1-0.2-0.1-0.3-0.2-0.3
		c0,0,0,0,0,0c-0.1-0.1-0.3-0.1-0.4-0.2c-0.1,0-0.1-0.1-0.2-0.1c0,0,0,0,0,0c0.1,0,0.2,0,0.3,0.1c0.4,0.2,0.8,0.5,0.8,0.9
		C53.8,77,53.7,76.9,53.5,76.8z M54,78C53.9,78,53.9,78,54,78C53.9,78,53.9,78,54,78c-0.1,0-0.1,0-0.1-0.1c0,0,0,0,0,0
		c0,0,0.1,0,0.1,0C53.9,77.9,53.9,78,54,78C54,78,54,78,54,78z M54,78.8C54,78.8,54,78.8,54,78.8C54,78.7,54,78.8,54,78.8
		C54,78.8,54,78.8,54,78.8z M54.3,79.7c-0.1,0-0.1,0.1-0.2,0.1C54.2,79.8,54.2,79.7,54.3,79.7C54.3,79.7,54.3,79.7,54.3,79.7
		C54.3,79.7,54.3,79.7,54.3,79.7z M54.7,79.3C54.7,79.3,54.7,79.3,54.7,79.3C54.7,79.3,54.7,79.3,54.7,79.3
		C54.7,79.3,54.7,79.3,54.7,79.3z M54.8,79.8C54.7,79.8,54.7,79.8,54.8,79.8C54.7,79.8,54.7,79.8,54.8,79.8
		C54.7,79.7,54.7,79.8,54.8,79.8C54.8,79.8,54.8,79.8,54.8,79.8z M55,81.2C55,81.1,55,81.1,55,81.2C55,81.1,55,81.1,55,81.2
		C55,81.1,55,81.2,55,81.2z M55.1,81C55.1,80.9,55.1,80.9,55.1,81C55.1,80.9,55.1,81,55.1,81C55.1,81,55.1,81,55.1,81z M55.6,80.7
		C55.6,80.7,55.6,80.7,55.6,80.7C55.6,80.7,55.6,80.7,55.6,80.7C55.7,80.7,55.7,80.7,55.6,80.7C55.7,80.7,55.7,80.7,55.6,80.7z
		 M56.2,79.9c0,0.1,0,0.1,0,0.2c0,0-0.1,0-0.1,0C56.2,80,56.2,80,56.2,79.9z M55.9,81.2C55.9,81.2,55.9,81.2,55.9,81.2
		C56,81.1,56,81,56,81c0,0,0,0,0,0c0,0,0,0,0,0c0,0,0.1,0.1,0.1,0.1c0,0,0,0,0,0C56.1,81.1,56,81.1,55.9,81.2z M56.2,81.6
		C56.1,81.6,56.1,81.6,56.2,81.6C56.1,81.6,56.1,81.6,56.2,81.6c0,0,0-0.1,0.1-0.1c0,0,0-0.1,0-0.1c0,0,0,0,0,0
		C56.2,81.4,56.2,81.5,56.2,81.6z M56.3,82.7C56.3,82.7,56.4,82.7,56.3,82.7c0.1-0.1,0.2-0.1,0.2-0.1C56.5,82.7,56.4,82.7,56.3,82.7
		z M56.5,80.7c-0.1-0.1-0.1-0.1-0.2-0.2c0.1,0,0.2-0.1,0.3-0.1C56.5,80.5,56.5,80.6,56.5,80.7z M56.7,82.7
		C56.7,82.7,56.7,82.7,56.7,82.7C56.7,82.7,56.7,82.7,56.7,82.7c0,0-0.1-0.1-0.2,0c0.1,0,0.1-0.1,0.2-0.1c0,0,0,0,0,0
		C56.8,82.6,56.7,82.6,56.7,82.7z M57.2,83.7C57.2,83.6,57.2,83.6,57.2,83.7C57.2,83.6,57.2,83.6,57.2,83.7
		C57.2,83.6,57.2,83.6,57.2,83.7z M57.2,83.1c-0.2,0.1-0.3,0.1-0.4,0.1c0.1-0.1,0.2-0.2,0.3-0.2C57.2,83,57.2,83,57.2,83.1
		C57.3,83.1,57.2,83.1,57.2,83.1z M56.9,82.1C56.9,82,56.9,82,56.9,82.1C56.9,82,56.9,82,56.9,82.1C56.9,82,56.9,82,56.9,82.1
		C56.9,82,56.9,82,56.9,82.1z M57.2,81.5C57.2,81.5,57.2,81.5,57.2,81.5C57.2,81.5,57.2,81.5,57.2,81.5
		C57.2,81.5,57.2,81.5,57.2,81.5z M57.3,82.4C57.3,82.4,57.3,82.4,57.3,82.4C57.3,82.4,57.3,82.4,57.3,82.4
		C57.3,82.4,57.3,82.4,57.3,82.4z M56.9,81.2C56.9,81.2,56.9,81.2,56.9,81.2c0-0.1,0.1-0.2,0.2-0.3c0.1-0.1,0-0.3-0.1-0.3
		c0-0.1,0-0.1,0.1-0.2c0.3,0.1,0.6,0.2,0.8,0.5c0,0.1,0,0.1,0,0.2c0,0-0.1,0-0.1,0C57.4,81.1,57.1,81.1,56.9,81.2z M57.5,81.8
		c0.1-0.1,0.1-0.2,0.2-0.3c0,0.1,0,0.2,0,0.2C57.6,81.7,57.6,81.8,57.5,81.8z M57.5,83.5C57.5,83.5,57.5,83.5,57.5,83.5
		C57.5,83.5,57.5,83.5,57.5,83.5C57.5,83.5,57.5,83.5,57.5,83.5z M57.7,85.3c-0.1-0.3-0.2-0.6-0.2-0.9c0,0,0-0.1-0.1-0.1
		c0-0.1,0-0.2,0-0.4c0,0.1,0,0.1,0.1,0.2c0,0.2,0.1,0.3,0.1,0.5c0,0,0,0,0,0c0,0,0,0.1,0,0.1c0,0,0,0.1,0.1,0.1c0,0.1,0,0.1,0,0.2
		C57.7,85.1,57.7,85.2,57.7,85.3z M57.7,82.9C57.7,82.9,57.7,82.9,57.7,82.9C57.7,82.9,57.7,82.9,57.7,82.9
		C57.7,83,57.7,83,57.7,82.9z M57.8,84.5C57.8,84.5,57.8,84.5,57.8,84.5C57.8,84.6,57.8,84.5,57.8,84.5
		C57.8,84.5,57.8,84.5,57.8,84.5c0,0,0-0.1,0-0.1C57.8,84.4,57.8,84.4,57.8,84.5C57.8,84.5,57.8,84.5,57.8,84.5z M57.9,82.9
		C57.9,82.9,57.9,82.9,57.9,82.9C58,82.9,58,82.9,57.9,82.9C58,82.9,57.9,82.9,57.9,82.9z M58,84.7C58,84.7,58,84.7,58,84.7
		C58,84.7,58,84.7,58,84.7C58,84.7,58,84.7,58,84.7z M58.1,82.3C58.1,82.3,58.1,82.3,58.1,82.3c0.1,0,0.1,0,0.1,0
		C58.2,82.3,58.2,82.3,58.1,82.3z M58.3,83.2c0,0,0.1,0.1,0.1,0.1c0,0-0.1,0.1-0.1,0.1C58.3,83.3,58.3,83.3,58.3,83.2z M58.3,85.8
		C58.3,85.8,58.3,85.8,58.3,85.8C58.3,85.7,58.3,85.7,58.3,85.8C58.3,85.8,58.3,85.8,58.3,85.8z M58.3,85.2c0-0.1,0-0.1,0-0.2
		c0,0,0.1,0,0.1,0C58.3,85.1,58.3,85.1,58.3,85.2z M58.4,84C58.4,84,58.4,84,58.4,84C58.4,83.9,58.4,83.9,58.4,84
		c0.1-0.1,0.1-0.1,0.2-0.1C58.5,83.9,58.5,83.9,58.4,84z M58.7,85.8c0-0.1,0-0.2,0-0.2c0,0,0.1,0,0.1-0.1
		C58.7,85.6,58.7,85.7,58.7,85.8z M59.2,85.6c0,0,0,0.1,0,0.1c0,0-0.1,0-0.1,0c-0.1,0.2-0.1,0.4-0.2,0.5c0-0.3,0-0.6,0.1-0.9
		c0,0,0,0,0,0c0,0,0.1,0,0.1,0c0,0,0,0.1,0,0.1c0,0.1,0.2,0.1,0.2,0c0,0,0,0,0,0C59.2,85.5,59.2,85.5,59.2,85.6
		C59.2,85.5,59.2,85.6,59.2,85.6z M59.1,83.9C59.1,83.9,59.1,83.8,59.1,83.9c0.1-0.1,0.1,0,0.2,0C59.2,83.9,59.2,83.9,59.1,83.9z
		 M59.4,85.2C59.4,85.2,59.4,85.2,59.4,85.2C59.4,85.2,59.4,85.2,59.4,85.2C59.4,85.2,59.4,85.2,59.4,85.2z M59.5,84.3
		c0-0.1,0.1-0.1,0-0.2c0,0,0.1,0,0.1,0C59.6,84.2,59.5,84.3,59.5,84.3z M60.3,84.8C60.3,84.9,60.4,84.9,60.3,84.8
		C60.3,84.9,60.3,84.9,60.3,84.8C60.3,84.8,60.3,84.8,60.3,84.8z M61.3,85.9c0,0-0.1,0-0.2,0c-0.2-0.2-0.5-0.3-0.7-0.4
		c0-0.1-0.1-0.3-0.2-0.2c-0.1,0-0.1,0-0.2,0c0,0-0.1,0-0.1,0c0.1-0.1,0.1-0.1,0.2-0.1c0.1,0.1,0.1,0.1,0.2,0.2
		c0.1,0.1,0.2,0,0.1-0.1c0,0,0,0,0-0.1c0,0,0,0,0,0.1c0.3,0.5,0.8,0.6,1,0.8C61.5,85.9,61.4,85.9,61.3,85.9z M61.5,86.7
		c0,0,0-0.1,0-0.1c0,0,0.1,0,0.1,0C61.6,86.6,61.6,86.6,61.5,86.7z M61.8,87.1c0-0.1,0-0.2,0.1-0.2c0,0,0,0,0,0c0,0,0,0,0-0.1
		c0-0.1,0-0.1-0.1-0.1c0,0,0,0,0,0c0,0,0,0,0,0c0,0,0,0,0,0c0,0,0,0,0,0c0.1,0.1,0.2,0.2,0.3,0.2C62,87,61.9,87.1,61.8,87.1z
		 M63.1,88.3c-0.2,0.1-0.2,0.1-0.1-0.1c0-0.1,0-0.1-0.1-0.1c-0.3,0.1-0.2,0-0.2-0.2c0-0.1-0.1-0.1-0.1-0.1c-0.2,0.1-0.1,0-0.1-0.3
		c0-0.1-0.1-0.1-0.1-0.1c0,0-0.1,0-0.1,0.1c0-0.1,0-0.2,0-0.4C62.6,87.4,62.9,87.9,63.1,88.3C63.2,88.3,63.2,88.3,63.1,88.3z
		 M63.3,88.4c0.1,0.1,0.1,0.2,0.2,0.2c0.1,0.1,0.1,0.1,0.2,0.2C63.4,88.7,63.3,88.6,63.3,88.4z"/>
	<path class="st0" d="M44.2,83c0.1-0.1,0-0.2-0.1-0.1c-0.2,0.2-0.4,0.4-0.7,0.6c-0.1,0.1,0,0.2,0.1,0.2c0.1,0,0.1-0.1,0.2-0.1
		c0,0.1,0,0.1,0.1,0.1c0.1,0,0.2-0.1,0.4-0.1c0.1,0.1,0.1,0.1,0.2,0.2c0.1,0.1,0.2,0,0.1-0.1c-0.1-0.1-0.2-0.1-0.2-0.2
		c0.1-0.1,0.1-0.1,0.2-0.2c0.1-0.1-0.1-0.2-0.1-0.1c-0.1,0.2-0.3,0.3-0.5,0.4c0,0,0,0,0,0C44,83.2,44.1,83.1,44.2,83z"/>
</g>
<g>
	<path class="st9" d="M175.5,94.6c0-0.2-0.2-0.3-0.4-0.3c-0.3,0-0.5,0.3-0.5,0.7c0,0.3,0.1,0.7,0.5,0.7c0.2,0,0.4-0.2,0.4-0.4h0.3
		c0,0.4-0.3,0.7-0.7,0.7c-0.5,0-0.8-0.4-0.8-0.9c0-0.5,0.3-0.9,0.8-0.9c0.4,0,0.6,0.2,0.7,0.6H175.5z"/>
	<path class="st9" d="M177.5,94.9c0,0.5-0.3,0.9-0.8,0.9c-0.5,0-0.8-0.4-0.8-0.9c0-0.5,0.3-0.9,0.8-0.9
		C177.2,94,177.5,94.4,177.5,94.9 M176.2,94.9c0,0.3,0.1,0.7,0.5,0.7c0.3,0,0.5-0.3,0.5-0.7c0-0.3-0.1-0.7-0.5-0.7
		C176.4,94.3,176.2,94.6,176.2,94.9"/>
	<polygon class="st9" points="177.7,94.1 178,94.1 178.8,95.3 178.8,95.3 178.8,94.1 179,94.1 179,95.8 178.7,95.8 178,94.5 
		178,94.5 178,95.8 177.7,95.8 	"/>
	<path class="st9" d="M179.6,95.2c0,0.3,0.2,0.4,0.4,0.4c0.2,0,0.3-0.1,0.3-0.3c0-0.1-0.1-0.2-0.1-0.2c-0.1,0-0.3-0.1-0.5-0.1
		c-0.3-0.1-0.4-0.3-0.4-0.4c0-0.3,0.3-0.5,0.6-0.5c0.3,0,0.6,0.2,0.6,0.5h-0.3c0-0.2-0.2-0.3-0.3-0.3c-0.1,0-0.3,0.1-0.3,0.2
		c0,0.1,0.1,0.2,0.2,0.2c0,0,0.4,0.1,0.5,0.1c0.2,0.1,0.3,0.3,0.3,0.4c0,0.4-0.3,0.5-0.6,0.5c-0.4,0-0.7-0.2-0.7-0.6H179.6z"/>
	<polygon class="st9" points="180.7,94.1 182,94.1 182,94.3 181.5,94.3 181.5,95.8 181.2,95.8 181.2,94.3 180.7,94.3 	"/>
	<path class="st9" d="M182.2,94.1h0.8c0.3,0,0.5,0.2,0.5,0.5c0,0.3-0.2,0.4-0.3,0.4v0c0.1,0,0.2,0.1,0.2,0.4c0,0.2,0,0.4,0.1,0.5
		h-0.3c0-0.1,0-0.2,0-0.3c0-0.3-0.1-0.5-0.3-0.5h-0.4v0.7h-0.3V94.1z M182.5,94.8h0.5c0.2,0,0.3-0.1,0.3-0.3c0-0.2-0.1-0.3-0.3-0.3
		h-0.5V94.8z"/>
	<path class="st9" d="M183.8,94.1h0.3v1c0,0.2,0,0.5,0.4,0.5c0.4,0,0.4-0.3,0.4-0.5v-1h0.3v1.1c0,0.4-0.3,0.7-0.7,0.7
		c-0.4,0-0.7-0.2-0.7-0.7V94.1z"/>
	<polygon class="st9" points="185.9,95.1 185.3,94.1 185.6,94.1 186,94.8 186.4,94.1 186.8,94.1 186.2,95.1 186.2,95.8 185.9,95.8 	
		"/>
	<polygon class="st9" points="187,94.1 188.1,94.1 188.1,94.3 187.2,94.3 187.2,94.8 188,94.8 188,95 187.2,95 187.2,95.5 
		188.1,95.5 188.1,95.8 187,95.8 	"/>
	<polygon class="st9" points="188.4,94.1 188.7,94.1 189.4,95.3 189.4,95.3 189.4,94.1 189.7,94.1 189.7,95.8 189.4,95.8 
		188.6,94.5 188.6,94.5 188.6,95.8 188.4,95.8 	"/>
	<path class="st9" d="M190,94.1h0.7c0.5,0,0.7,0.4,0.7,0.9c0,0.5-0.2,0.9-0.7,0.9H190V94.1z M190.3,95.5h0.3c0.4,0,0.5-0.3,0.5-0.6
		c0-0.3-0.1-0.6-0.5-0.6h-0.3V95.5z"/>
	<path class="st9" d="M193.1,94.9c0,0.5-0.3,0.9-0.8,0.9c-0.5,0-0.8-0.4-0.8-0.9c0-0.5,0.3-0.9,0.8-0.9
		C192.8,94,193.1,94.4,193.1,94.9 M191.9,94.9c0,0.3,0.1,0.7,0.5,0.7c0.3,0,0.5-0.3,0.5-0.7c0-0.3-0.1-0.7-0.5-0.7
		C192,94.3,191.9,94.6,191.9,94.9"/>
	<path class="st9" d="M166.8,96.5h0.3v1c0,0.2,0,0.5,0.4,0.5c0.4,0,0.4-0.3,0.4-0.5v-1h0.3v1.1c0,0.4-0.3,0.7-0.7,0.7
		c-0.4,0-0.7-0.2-0.7-0.7V96.5z"/>
	<polygon class="st9" points="168.5,96.5 168.8,96.5 169.5,97.7 169.5,97.7 169.5,96.5 169.8,96.5 169.8,98.2 169.5,98.2 
		168.7,96.9 168.7,96.9 168.7,98.2 168.5,98.2 	"/>
	<polygon class="st9" points="170.8,96.5 171.2,96.5 171.6,97.8 171.6,97.8 172,96.5 172.4,96.5 172.4,98.2 172.2,98.2 172.2,96.9 
		172.2,96.9 171.7,98.2 171.5,98.2 171,96.9 171,96.9 171,98.2 170.8,98.2 	"/>
	<path class="st9" d="M172.8,96.5h0.3v1c0,0.2,0,0.5,0.4,0.5c0.4,0,0.4-0.3,0.4-0.5v-1h0.3v1.1c0,0.4-0.3,0.7-0.7,0.7
		c-0.4,0-0.7-0.2-0.7-0.7V96.5z"/>
	<polygon class="st9" points="174.4,96.5 174.7,96.5 175.4,97.7 175.4,97.7 175.4,96.5 175.7,96.5 175.7,98.2 175.4,98.2 
		174.7,96.9 174.7,96.9 174.7,98.2 174.4,98.2 	"/>
	<path class="st9" d="M176.1,96.5h0.7c0.5,0,0.7,0.4,0.7,0.9c0,0.5-0.2,0.9-0.7,0.9h-0.7V96.5z M176.4,97.9h0.3
		c0.4,0,0.5-0.3,0.5-0.6c0-0.3-0.1-0.6-0.5-0.6h-0.3V97.9z"/>
	<path class="st9" d="M179.2,97.3c0,0.5-0.3,0.9-0.8,0.9c-0.5,0-0.8-0.4-0.8-0.9c0-0.5,0.3-0.9,0.8-0.9
		C178.9,96.4,179.2,96.8,179.2,97.3 M177.9,97.3c0,0.3,0.1,0.7,0.5,0.7c0.3,0,0.5-0.3,0.5-0.7c0-0.3-0.1-0.7-0.5-0.7
		C178.1,96.7,177.9,97,177.9,97.3"/>
	<rect x="180.1" y="96.5" class="st9" width="0.3" height="1.7"/>
	<polygon class="st9" points="180.7,96.5 181,96.5 181.8,97.7 181.8,97.7 181.8,96.5 182,96.5 182,98.2 181.7,98.2 181,96.9 
		181,96.9 181,98.2 180.7,98.2 	"/>
	<polygon class="st9" points="182.2,96.5 183.5,96.5 183.5,96.7 183,96.7 183,98.2 182.7,98.2 182.7,96.7 182.2,96.7 	"/>
	<polygon class="st9" points="183.7,96.5 184.9,96.5 184.9,96.7 184,96.7 184,97.2 184.8,97.2 184.8,97.4 184,97.4 184,97.9 
		184.9,97.9 184.9,98.2 183.7,98.2 	"/>
	<path class="st9" d="M186.6,98.2h-0.2l0-0.2c-0.2,0.2-0.3,0.2-0.5,0.2c-0.5,0-0.8-0.4-0.8-0.9c0-0.5,0.3-0.9,0.8-0.9
		c0.3,0,0.6,0.2,0.7,0.6h-0.3c0-0.2-0.2-0.3-0.4-0.3c-0.3,0-0.5,0.3-0.5,0.7c0,0.3,0.1,0.7,0.5,0.7c0.3,0,0.4-0.2,0.4-0.5h-0.4v-0.2
		h0.7V98.2z"/>
	<path class="st9" d="M186.9,96.5h0.8c0.3,0,0.5,0.2,0.5,0.5c0,0.3-0.2,0.4-0.3,0.4v0c0.1,0,0.2,0.1,0.2,0.4c0,0.2,0,0.4,0.1,0.5
		H188c0-0.1,0-0.2,0-0.3c0-0.3-0.1-0.5-0.3-0.5h-0.4v0.7h-0.3V96.5z M187.2,97.3h0.5c0.2,0,0.3-0.1,0.3-0.3c0-0.2-0.1-0.3-0.3-0.3
		h-0.5V97.3z"/>
	<path class="st9" d="M188.9,96.5h0.3l0.6,1.7h-0.3l-0.1-0.5h-0.6l-0.1,0.5h-0.3L188.9,96.5z M188.8,97.5h0.5l-0.2-0.7h0L188.8,97.5
		z"/>
	<path class="st9" d="M190,96.5h0.7c0.5,0,0.7,0.4,0.7,0.9c0,0.5-0.2,0.9-0.7,0.9H190V96.5z M190.3,97.9h0.3c0.4,0,0.5-0.3,0.5-0.6
		c0-0.3-0.1-0.6-0.5-0.6h-0.3V97.9z"/>
	<path class="st9" d="M193.1,97.3c0,0.5-0.3,0.9-0.8,0.9c-0.5,0-0.8-0.4-0.8-0.9c0-0.5,0.3-0.9,0.8-0.9
		C192.8,96.4,193.1,96.8,193.1,97.3 M191.9,97.3c0,0.3,0.1,0.7,0.5,0.7c0.3,0,0.5-0.3,0.5-0.7c0-0.3-0.1-0.7-0.5-0.7
		C192,96.7,191.9,97,191.9,97.3"/>
	<path class="st9" d="M138.9,89.9v-7.7h3.4c1.5,0,2.2,0.6,2.2,1.9v1.1c0,1.2-0.8,1.9-2.1,1.9H140v2.8H138.9z M142.3,86
		c0.6,0,0.9-0.2,0.9-0.7v-0.1v-1c0,0,0-0.1,0-0.1c-0.1-0.4-0.2-0.6-0.7-0.6c-0.1,0-0.1,0-0.2,0H140V86H142.3z"/>
	<rect x="145.4" y="82.2" class="st9" width="1" height="7.7"/>
	<path class="st9" d="M147.7,88.4v-0.7c0-1.2,0.6-1.8,1.5-1.8h2.4v-0.4c0-0.1,0-0.2-0.1-0.2c-0.1-0.1-0.2-0.2-0.3-0.2l-3.5,0v-1h3.4
		c0.8,0,1.2,0.3,1.4,1.1c0,0.1,0,0.2,0,0.3v3c0,0.3-0.1,0.5-0.2,0.7c-0.3,0.5-0.7,0.7-1.2,0.7h-1.9c-0.2,0-0.5-0.1-0.8-0.3
		C148,89.4,147.7,89,147.7,88.4 M148.7,88.5c0.1,0.4,0.2,0.5,0.8,0.5h1.3c0.5,0,0.7-0.1,0.8-0.5c0,0,0-0.1,0-0.1v-0.9
		c0,0,0-0.1,0-0.1c-0.1-0.4-0.2-0.5-0.7-0.5h-0.1h-1.3h-0.1c-0.4,0-0.6,0.2-0.7,0.5c0,0,0,0.1,0,0.1L148.7,88.5
		C148.7,88.4,148.7,88.5,148.7,88.5"/>
	<path class="st9" d="M153.9,89.9v-4.3c0-1,0.6-1.5,1.6-1.5h1.5c1.1,0,1.6,0.5,1.6,1.5v4.3h-1v-4.2v-0.2v0c0-0.2-0.3-0.4-0.7-0.4
		h-1.5c-0.5,0-0.7,0.2-0.7,0.6v4.2H153.9z"/>
	<path class="st9" d="M160,88.4v-2.6c0-1.1,0.6-1.7,1.8-1.7h1.4c0.9,0,1.5,0.5,1.5,1.5v0.7l-3.8,1.8v0.2v0.1
		c0.1,0.5,0.2,0.6,0.7,0.6h3.2v1h-3.3c-0.6,0-0.9-0.2-1.3-0.6C160.2,89.1,160,88.8,160,88.4 M161,87l2.8-1.3v-0.1
		c0-0.4-0.2-0.5-0.6-0.5h-1.6c-0.5,0-0.7,0.2-0.7,0.7V87z"/>
	<polygon class="st9" points="165.4,89.9 167.4,86.9 165.5,84.1 166.7,84.1 168,86.1 169.4,84.1 170.6,84.1 168.6,86.9 170.7,89.9 
		169.5,89.9 168,87.8 166.6,89.9 	"/>
	<path class="st9" d="M170.9,84.1h1l1.1,4.6l1.1-4.2c0.1-0.2,0.2-0.4,0.5-0.5c0.5-0.1,0.9,0.1,1,0.5l1.1,4.2l1.1-4.6h1l-1.3,5.4
		c-0.1,0.4-0.5,0.6-1.1,0.5c-0.2-0.1-0.4-0.3-0.5-0.6l-1-4.1l-1.1,4.1c-0.1,0.3-0.3,0.5-0.5,0.6c-0.5,0.2-1-0.1-1.1-0.5L170.9,84.1z
		"/>
	<path class="st9" d="M179.4,88.4v-0.7c0-1.2,0.6-1.8,1.5-1.8h2.4v-0.4c0-0.1,0-0.2-0.1-0.2c-0.1-0.1-0.2-0.2-0.3-0.2l-3.5,0v-1h3.4
		c0.8,0,1.2,0.3,1.4,1.1c0,0.1,0,0.2,0,0.3v3c0,0.3-0.1,0.5-0.2,0.7c-0.3,0.5-0.7,0.7-1.2,0.7h-1.9c-0.2,0-0.5-0.1-0.8-0.3
		C179.6,89.4,179.4,89,179.4,88.4 M180.3,88.5c0.1,0.4,0.2,0.5,0.8,0.5h1.3c0.5,0,0.7-0.1,0.8-0.5c0,0,0-0.1,0-0.1v-0.9
		c0,0,0-0.1,0-0.1c-0.1-0.4-0.2-0.5-0.7-0.5h-0.1h-1.3H181c-0.4,0-0.6,0.2-0.7,0.5c0,0,0,0.1,0,0.1L180.3,88.5
		C180.3,88.4,180.3,88.5,180.3,88.5"/>
	<path class="st9" d="M185.6,89.9v-4.3c0-0.1,0-0.2,0-0.3c0.1-0.8,0.4-1.1,1.2-1.2c0.1,0,0.2,0,0.2,0h0.5v1h-0.5
		c-0.1,0-0.2,0-0.3,0.1c-0.2,0.1-0.2,0.2-0.2,0.5v4.3H185.6z"/>
	<path class="st9" d="M188.3,88.4v-2.6c0-1.1,0.6-1.7,1.8-1.7h1.4c0.9,0,1.5,0.5,1.5,1.5v0.7l-3.8,1.8v0.2v0.1
		c0.1,0.5,0.2,0.6,0.7,0.6h3.2v1h-3.3c-0.6,0-0.9-0.2-1.3-0.6C188.4,89.1,188.3,88.8,188.3,88.4 M189.3,87l2.8-1.3v-0.1
		c0-0.4-0.1-0.5-0.6-0.5H190c-0.5,0-0.7,0.2-0.7,0.7V87z"/>
	<path class="st10" d="M143.3,95.9c0,0.9-1.1,1.7-2.6,1.7c-1.4,0-2.6-0.8-2.6-1.7c0-0.9,1.1-1.7,2.6-1.7
		C142.2,94.2,143.3,95,143.3,95.9"/>
	<path class="st11" d="M172.7,79.2c0,1.1-1.3,1.9-2.9,1.9c-1.6,0-2.9-0.9-2.9-1.9c0-1.1,1.3-1.9,2.9-1.9
		C171.4,77.3,172.7,78.2,172.7,79.2"/>
	<path class="st10" d="M140.7,90.6h-2.1c-1.1,1.4-1.6,2.7-1.3,3.9c0.1,0.3,0.3,0.7,0.5,1c0.2-0.8,1-1.4,2.1-1.6c0,0,0,0,0-0.1
		C139.6,92.8,139.9,91.7,140.7,90.6"/>
	<path class="st10" d="M151.5,83.6c2.1-0.9,4.5-1.7,7-2.3c2.7-0.7,5.4-1.2,7.8-1.5c0-0.2-0.1-0.3-0.1-0.5c0-0.1,0-0.2,0-0.3
		c-2.5,0.3-5.2,0.9-8,1.6c-3.3,0.9-6.3,1.9-9,3.1H151.5z"/>
	<path class="st10" d="M173.2,79.5c4.3,0.2,7.3,1.4,7.8,3.4c0.1,0.2,0.1,0.5,0.1,0.7h2.4c0.1-0.5,0.1-1,0-1.4
		c-0.7-2.5-4.7-3.8-10.5-3.8c0.1,0.3,0.2,0.5,0.2,0.8C173.2,79.3,173.2,79.4,173.2,79.5"/>
	<path class="st11" d="M173.4,82.2c0.2,0.4,0.3,0.9,0.3,1.4h1.7c0.1-0.8,0-1.5-0.3-2.2c-0.4-0.8-1.1-1.5-2-1.9
		c-0.1,0.5-0.4,1-0.8,1.4C172.8,81.2,173.2,81.7,173.4,82.2"/>
	<path class="st11" d="M154.8,83.6c0.9-0.6,1.9-1.1,3-1.6c3-1.4,6-2.2,8.6-2.4c0-0.1,0-0.3,0-0.4c0-0.2,0-0.4,0.1-0.6
		c-2.7,0.3-5.9,1.2-9,2.6c-1.5,0.7-2.9,1.5-4.2,2.3H154.8z"/>
	<path class="st10" d="M171.2,92.2c-2.6,1.2-5.6,2.3-8.9,3.1c-7.6,2-14.5,2.4-18.7,1.2c-0.2,0.5-0.7,0.9-1.3,1.2
		c4.7,1,12.1,0.5,20.1-1.6c3.1-0.8,6.1-1.8,8.7-2.9V92.2z"/>
	<path class="st11" d="M169.3,90.6c-1.6,1.3-3.6,2.6-5.9,3.7c-7.1,3.3-14.1,3.2-15.7-0.2c-0.5-1-0.4-2.2,0.1-3.5h-1.5
		c-0.7,1.6-0.9,3-0.3,4.3c1.7,3.8,9.7,3.9,17.7,0.1c2.7-1.3,5.1-2.8,7-4.4H169.3z"/>
	<path class="st10" d="M174.7,90.6c-1.9,1-3.6,1.6-3.6,1.6v1c0,0,2.6-1,5.4-2.6H174.7z"/>
</g>
<g>
	<g>
		<path class="st8" d="M258.6,83.7c0.9-0.7,1.2-1.9,0.5-2.7c-0.6-0.8-1.8-0.9-2.8-0.3c-0.9,0.7-1.2,1.9-0.5,2.7
			C256.5,84.2,257.7,84.3,258.6,83.7z"/>
		<path class="st8" d="M255.3,86.8c-0.3-0.8-1-1.3-1.7-1.1c-0.7,0.2-1,1.1-0.7,1.9c0.3,0.8,1,1.3,1.7,1.1
			C255.2,88.5,255.5,87.7,255.3,86.8z"/>
		<path class="st8" d="M259.8,87.5c0.5-0.8,0.2-1.9-0.5-2.3c-0.8-0.4-1.8-0.1-2.3,0.7c-0.5,0.8-0.2,1.9,0.5,2.3
			C258.3,88.6,259.3,88.3,259.8,87.5z"/>
		<path class="st8" d="M256.9,89.2c-0.6,0.1-1,0.8-0.8,1.5c0.2,0.7,0.8,1.1,1.4,1c0.6-0.1,1-0.8,0.8-1.5
			C258.2,89.5,257.5,89.1,256.9,89.2z"/>
		<path class="st8" d="M258.2,93c-0.5-0.1-0.9,0.1-1,0.5c-0.1,0.4,0.3,0.7,0.8,0.8c0.5,0.1,0.9-0.1,1-0.5
			C259.1,93.5,258.7,93.1,258.2,93z"/>
		<path class="st8" d="M251.8,82.6c-0.2,0.6-0.1,1.2,0.3,1.3c0.4,0.2,0.9-0.1,1.2-0.7c0.2-0.6,0.1-1.2-0.3-1.3
			C252.6,81.7,252,82.1,251.8,82.6z"/>
		<path class="st8" d="M251.9,85.9c0-0.5-0.3-0.9-0.6-0.9c-0.3,0-0.6,0.4-0.6,0.9c0,0.5,0.3,0.9,0.6,0.9
			C251.6,86.8,251.9,86.4,251.9,85.9z"/>
		<path class="st8" d="M259.4,79c0.5,0,0.9-0.3,0.9-0.7c0-0.4-0.4-0.7-0.9-0.7c-0.5,0-0.9,0.3-0.9,0.7C258.5,78.7,258.9,79,259.4,79
			z"/>
		<path class="st8" d="M261.3,82.5c-0.6,0.3-0.9,0.9-0.7,1.5c0.2,0.6,0.9,0.8,1.5,0.5c0.6-0.3,0.9-0.9,0.7-1.5
			C262.6,82.5,261.9,82.3,261.3,82.5z"/>
		<path class="st8" d="M261.7,78.2c0.3,0.1,0.6,0,0.7-0.2c0.1-0.2-0.1-0.4-0.4-0.5c-0.3-0.1-0.6,0-0.7,0.2
			C261.2,77.9,261.4,78.1,261.7,78.2z"/>
		<path class="st8" d="M260.2,80.5c0,0.4,0.4,0.7,0.8,0.7c0.4,0,0.8-0.3,0.8-0.7c0-0.4-0.4-0.7-0.8-0.7
			C260.5,79.8,260.2,80.1,260.2,80.5z"/>
		<path class="st8" d="M263.8,78c0.2,0.1,0.4,0.1,0.4,0c0-0.1-0.1-0.2-0.3-0.3c-0.2-0.1-0.4-0.1-0.4,0
			C263.5,77.8,263.6,77.9,263.8,78z"/>
		<path class="st8" d="M250.2,88.2c-0.3,0.1-0.4,0.5-0.3,1c0.2,0.4,0.5,0.7,0.8,0.6c0.3-0.1,0.4-0.5,0.3-1
			C250.9,88.4,250.5,88.1,250.2,88.2z"/>
		<path class="st8" d="M250.3,83.6c0.2,0.1,0.4-0.1,0.5-0.4c0.1-0.3,0-0.6-0.2-0.6c-0.2-0.1-0.4,0.1-0.5,0.4
			C250,83.3,250.1,83.6,250.3,83.6z"/>
		<path class="st8" d="M254.8,80.6c0.3-0.3,0.3-0.7,0.1-0.9c-0.2-0.2-0.6-0.1-0.9,0.2c-0.3,0.3-0.3,0.7-0.1,0.9
			C254.1,81,254.5,80.9,254.8,80.6z"/>
		<path class="st8" d="M256.9,79.1c0.3-0.1,0.5-0.4,0.4-0.6c-0.1-0.2-0.4-0.3-0.7-0.2c-0.3,0.1-0.5,0.4-0.4,0.6
			C256.3,79.1,256.6,79.2,256.9,79.1z"/>
		<path class="st8" d="M250.3,86.1c0-0.3-0.2-0.5-0.3-0.5c-0.2,0-0.3,0.3-0.3,0.5c0,0.3,0.2,0.5,0.3,0.5
			C250.1,86.6,250.3,86.3,250.3,86.1z"/>
		<path class="st8" d="M252.4,80.5c0.3-0.2,0.4-0.6,0.3-0.7c-0.1-0.2-0.5-0.1-0.8,0.1c-0.3,0.2-0.4,0.6-0.3,0.7
			C251.8,80.8,252.1,80.7,252.4,80.5z"/>
		<path class="st8" d="M257.3,77.1c0.2,0,0.3-0.2,0.3-0.3c0-0.1-0.2-0.2-0.4-0.1c-0.2,0-0.3,0.2-0.3,0.3
			C256.9,77.1,257.1,77.1,257.3,77.1z"/>
		<path class="st8" d="M254.9,83.5c-0.2-0.1-0.6,0-0.7,0.3c-0.2,0.3-0.1,0.6,0.2,0.8c0.3,0.1,0.6,0,0.7-0.3
			C255.2,84,255.2,83.7,254.9,83.5z"/>
		<path class="st8" d="M265.8,79.6c0.2,0.1,0.3,0.2,0.4,0.1c0.1-0.1,0-0.3-0.2-0.4c-0.2-0.1-0.3-0.2-0.4-0.1
			C265.6,79.2,265.7,79.4,265.8,79.6z"/>
		<path class="st8" d="M256.7,94.6c-0.3-0.1-0.5,0-0.5,0.1c0,0.1,0.1,0.3,0.4,0.4c0.3,0.1,0.5,0,0.5-0.1
			C257.1,94.8,257,94.7,256.7,94.6z"/>
		<path class="st8" d="M254.7,78.4c0.3-0.1,0.4-0.3,0.4-0.5c-0.1-0.2-0.3-0.2-0.6-0.1c-0.3,0.1-0.4,0.3-0.4,0.5
			C254.1,78.4,254.4,78.5,254.7,78.4z"/>
		<ellipse class="st8" cx="260.1" cy="76.7" rx="0.3" ry="0.1"/>
		<path class="st8" d="M252,88.4c-0.2,0.1-0.2,0.3-0.1,0.6c0.1,0.3,0.4,0.4,0.5,0.3c0.2-0.1,0.2-0.3,0.1-0.6
			C252.4,88.5,252.1,88.3,252,88.4z"/>
		<path class="st8" d="M256.2,92.8c0.1-0.2,0-0.4-0.2-0.6c-0.2-0.2-0.5-0.1-0.6,0c-0.1,0.2,0,0.4,0.2,0.6
			C255.8,93,256.1,93,256.2,92.8z"/>
		<path class="st8" d="M251.6,91.1c-0.2,0.1-0.1,0.4,0.1,0.7c0.2,0.3,0.5,0.4,0.7,0.3c0.2-0.1,0.1-0.4-0.1-0.7
			C252,91.2,251.7,91,251.6,91.1z"/>
		<path class="st8" d="M265.1,81c0.4-0.5,0.2-1.3-0.5-1.8c-0.6-0.5-1.4-0.4-1.8,0.1c-0.4,0.5-0.2,1.3,0.4,1.8
			C263.9,81.6,264.7,81.6,265.1,81z"/>
		<path class="st8" d="M267,80.8c-0.2,0.2-0.2,0.6,0.1,0.9c0.2,0.3,0.6,0.5,0.7,0.3c0.2-0.2,0.2-0.6-0.1-0.9
			C267.5,80.7,267.1,80.6,267,80.8z"/>
		<path class="st8" d="M265.7,82.1c-0.5-0.1-0.9,0.2-0.9,0.7c-0.1,0.4,0.3,0.8,0.7,0.9c0.5,0.1,0.9-0.2,0.9-0.7
			C266.5,82.6,266.2,82.2,265.7,82.1z"/>
		<path class="st8" d="M268.8,83.9c-0.1-0.3-0.3-0.5-0.5-0.5c-0.2,0-0.3,0.3-0.2,0.6c0.1,0.3,0.3,0.5,0.5,0.5
			C268.8,84.5,268.9,84.2,268.8,83.9z"/>
		<path class="st8" d="M254.3,91.7c0.4-0.3,0.4-0.9,0.1-1.4c-0.4-0.5-1-0.7-1.4-0.4c-0.4,0.3-0.4,0.9-0.1,1.4
			C253.3,91.8,253.9,92,254.3,91.7z"/>
		<path class="st8" d="M254.3,93.2c-0.3-0.2-0.7-0.1-0.8,0.1c-0.1,0.2,0.1,0.5,0.4,0.7c0.3,0.2,0.7,0.1,0.8-0.1
			C254.8,93.7,254.6,93.3,254.3,93.2z"/>
		<path class="st8" d="M259.9,95c-0.3,0-0.5,0.1-0.5,0.3c0,0.1,0.2,0.2,0.5,0.2c0.3,0,0.5-0.1,0.5-0.3C260.5,95.1,260.2,95,259.9,95
			z"/>
	</g>
	<path class="st8" d="M271.6,87.4c-1.4,0-2.5,0.7-2.5,2.7c0,2,1.1,2.7,2.5,2.7c1.4,0,2.5-0.7,2.5-2.7
		C274.1,88.1,272.9,87.4,271.6,87.4z M271.6,91.7c-0.7,0-1.2-0.4-1.2-1.7c0-1.3,0.5-1.7,1.2-1.7c0.7,0,1.2,0.4,1.2,1.7
		C272.7,91.3,272.2,91.7,271.6,91.7z"/>
	<path class="st8" d="M284.4,88c0,0-0.6-0.6-1.4-0.6c-1.1,0-2.1,0.7-2.1,2.6c0,1.9,1.2,2.7,2.6,2.7h1.4c0.5,0,0.7-0.2,0.7-0.7v-6.8
		h-1.3V88z M284.4,91.6h-0.9c-0.7,0-1.2-0.4-1.2-1.6s0.5-1.5,1-1.5c0.7,0,1.2,0.6,1.2,0.6V91.6z"/>
	<path class="st8" d="M280,90.9v-5.7h-1.3v5.7c0,0.7,0.3,1.4,1.6,1.7l0.4-1.3C280.1,91.2,280,91.1,280,90.9z"/>
	<path class="st8" d="M275.5,87.5l-0.4,0.1v5h1.3v-4c0.8-0.1,1.5,0.1,1.5,0.1l0.4-1.2C278.2,87.4,276.9,87,275.5,87.5z"/>
	<g>
		<path class="st8" d="M297.2,87.3c-1.2,0-2.4,0.8-2.4,2.7c0,1.9,1.2,2.7,2.6,2.7c1.3,0,2.1-0.6,2.1-0.6l-0.4-1c0,0-0.7,0.5-1.7,0.5
			c-0.6,0-1.3-0.3-1.4-1.1h3.5v-0.5C299.5,88.1,298.5,87.3,297.2,87.3z M296.1,89.6c0.1-0.9,0.6-1.2,1.1-1.2c0.5,0,1,0.3,1.1,1.2
			H296.1z"/>
		<path class="st8" d="M303.7,88c0,0-0.6-0.6-1.4-0.6c-1.1,0-2.1,0.7-2.1,2.6c0,1.9,1.2,2.7,2.6,2.7h1.4c0.5,0,0.7-0.2,0.7-0.7v-6.8
			h-1.3V88z M303.7,91.6h-0.9c-0.7,0-1.2-0.4-1.2-1.6s0.5-1.5,1-1.5c0.7,0,1.2,0.6,1.2,0.6V91.6z"/>
		<path class="st8" d="M306.7,85.2c-0.4,0-0.7,0.2-0.7,0.7c0,0.5,0.3,0.7,0.7,0.7c0.4,0,0.8-0.2,0.8-0.7
			C307.5,85.4,307.1,85.2,306.7,85.2z"/>
		<rect x="306.1" y="87.4" class="st8" width="1.3" height="5.2"/>
		<path class="st8" d="M310.7,87.3c-1.3,0-2.2,0.6-2.2,0.6l0.4,1c0,0,0.7-0.4,1.7-0.4c0.6,0,1,0.2,1,0.8v0.5c0,0-0.5-0.3-1.4-0.3
			c-1,0-1.9,0.5-1.9,1.6c0,1.1,0.8,1.6,2.2,1.6h1.6c0.5,0,0.7-0.2,0.7-0.7v-2.8C312.8,87.9,312,87.3,310.7,87.3z M311.6,91.7h-1
			c-0.7,0-1-0.2-1-0.7c0-0.4,0.3-0.6,0.8-0.6c0.8,0,1.2,0.4,1.2,0.4V91.7z"/>
		<path class="st8" d="M293.2,87.6c-1.4-0.8-3-0.2-3-0.2l-0.2,0.1c-1.4-0.6-2.7-0.1-2.7-0.1l-0.4,0.2v5.1h1.3v-4.1
			c0.4-0.1,0.9-0.1,1.5,0.2c0,0,0.1,0.2,0.1,0.3v3.6h1.3v0h0v-4.1c0.4-0.1,0.9-0.1,1.5,0.2c0,0,0.1,0.2,0.1,0.3v3.6h1.3V89v0
			C294,88.9,293.9,88,293.2,87.6z"/>
	</g>
	<g>
		<path class="st8" d="M297.2,87.4c-1.1,0-2.3,0.7-2.3,2.5c0,2.2,1.5,2.5,2.5,2.5c1,0,1.7-0.3,1.9-0.5l-0.3-0.7
			c-0.3,0.1-0.9,0.4-1.6,0.4c-0.9,0-1.5-0.5-1.5-1.2c0,0,0-0.1,0-0.1c0,0,0.1-0.1,0.1-0.1h3.3v-0.4
			C299.4,88.2,298.6,87.4,297.2,87.4z M298.4,89.5c0,0-0.1,0-0.1,0h-2.2c0,0-0.1,0-0.1-0.1c0,0,0-0.1,0-0.1c0.1-1,0.7-1.3,1.3-1.3
			c0.6,0,1.2,0.4,1.2,1.4C298.4,89.5,298.4,89.5,298.4,89.5z"/>
		<path class="st8" d="M303.9,87.8c0,0.1,0,0.1-0.1,0.2c0,0,0,0-0.1,0c0,0-0.1,0-0.1-0.1c0,0-0.5-0.6-1.3-0.6
			c-1.2,0-1.9,0.9-1.9,2.4c0,2.3,1.7,2.5,2.4,2.5h1.4c0.3,0,0.6-0.1,0.6-0.5v-6.6h-1V87.8z M303.9,91.4c0,0.1-0.1,0.2-0.2,0.2h-0.9
			c-0.5,0-1.4-0.2-1.4-1.7c0-1.4,0.6-1.6,1.1-1.6c0.7,0,1.3,0.6,1.3,0.6c0,0,0,0.1,0,0.1V91.4z"/>
		<path class="st8" d="M306.7,85.2c-0.2,0-0.6,0.1-0.6,0.5c0,0.5,0.4,0.5,0.6,0.5c0.2,0,0.6-0.1,0.6-0.5
			C307.3,85.3,307,85.2,306.7,85.2z"/>
		<rect x="306.3" y="87.5" class="st8" width="1" height="4.9"/>
		<path class="st8" d="M310.7,87.4c-1,0-1.8,0.3-2,0.5l0.3,0.7c0.3-0.1,0.9-0.4,1.7-0.4c0.3,0,1.2,0,1.2,1v0.5c0,0.1,0,0.1-0.1,0.1
			c0,0-0.1,0-0.1,0c0,0-0.1,0-0.1,0c0,0-0.5-0.3-1.3-0.3c-0.8,0-1.7,0.4-1.7,1.4c0,1,0.7,1.5,2,1.5h1.6c0.3,0,0.6-0.1,0.6-0.5v-2.8
			C312.6,87.9,312,87.4,310.7,87.4z M311.7,91.5c0,0.1-0.1,0.2-0.2,0.2h-1c-0.3,0-1.1,0-1.1-0.8c0-0.5,0.4-0.8,0.9-0.8
			c0.9,0,1.3,0.4,1.3,0.4c0,0,0.1,0.1,0.1,0.1V91.5z"/>
		<path class="st8" d="M293.2,87.6c-0.5-0.3-1-0.4-1.6-0.4c-0.7,0-1.2,0.2-1.2,0.2l-0.2,0.1c0,0,0,0-0.1,0c0,0,0,0-0.1,0
			c-0.4-0.2-0.9-0.3-1.4-0.3c-0.7,0-1.2,0.2-1.2,0.2l-0.3,0.1v4.8h1v-4c0-0.1,0.1-0.1,0.1-0.2c0.1,0,0.3,0,0.4,0
			c0.4,0,0.8,0.1,1.1,0.3c0,0,0,0,0,0c0.1,0.1,0.1,0.3,0.1,0.4v3.5h1v-4c0-0.1,0.1-0.1,0.1-0.2c0.1,0,0.3,0,0.4,0
			c0.4,0,0.8,0.1,1.1,0.3c0,0,0,0,0,0c0.1,0.1,0.1,0.3,0.1,0.4v3.5h1l0-3.5C293.8,88.8,293.8,87.9,293.2,87.6z"/>
	</g>
	<polygon class="st8" points="266.7,90.3 265.6,87.4 265.6,87.4 264.2,87.4 264.2,87.4 263.1,90.3 262.4,87.4 261.1,87.4 
		262.3,92.6 263.7,92.6 264.9,89.3 266.1,92.6 267.5,92.6 268.8,87.4 267.4,87.4 	"/>
	<g>
		<path class="st8" d="M271.6,87.4c-0.9,0-2.3,0.3-2.3,2.5c0,2.2,1.5,2.5,2.3,2.5c0.9,0,2.3-0.3,2.3-2.5
			C273.9,87.7,272.5,87.4,271.6,87.4z M271.6,91.8c-0.6,0-1.4-0.3-1.4-1.8c0-1.6,0.8-1.8,1.3-1.8c0.9,0,1.3,0.6,1.3,1.8
			C272.9,91.5,272.2,91.8,271.6,91.8z"/>
		<path class="st8" d="M284.6,85.3v2.6c0,0.1,0,0.1-0.1,0.2c0,0,0,0-0.1,0c0,0-0.1,0-0.1-0.1c0,0-0.5-0.5-1.3-0.5
			c-1.2,0-1.9,0.9-1.9,2.4c0,2.3,1.7,2.5,2.4,2.5h1.4c0.3,0,0.6-0.1,0.6-0.5v-6.6H284.6z M284.6,91.4c0,0.1-0.1,0.2-0.2,0.2h-0.9
			c-0.5,0-1.4-0.2-1.4-1.7c0-1.4,0.6-1.6,1.1-1.6c0.7,0,1.3,0.6,1.3,0.6c0,0,0,0.1,0,0.1V91.4z"/>
		<path class="st8" d="M279.9,90.8v-5.5h-1v5.5c0,0.5,0.2,1.1,1.3,1.5l0.3-1C280.1,91.2,279.9,91,279.9,90.8z"/>
		<path class="st8" d="M275.5,87.5l-0.3,0.1v4.8h1v-3.9c0-0.1,0.1-0.1,0.1-0.2c0.2,0,0.4,0,0.6,0c0.4,0,0.7,0.1,0.8,0.1l0.3-0.9
			c-0.2-0.1-0.6-0.2-1.2-0.2C276.4,87.3,276,87.3,275.5,87.5z"/>
		<path class="st8" d="M266.9,90.2c0,0.1-0.1,0.1-0.1,0.1c0,0,0,0,0,0c-0.1,0-0.1,0-0.2-0.1l-1-2.8h-1.2l-1,2.8
			c0,0.1-0.1,0.1-0.2,0.1c0,0,0,0,0,0c-0.1,0-0.1-0.1-0.1-0.1l-0.7-2.8h-1l1.2,4.8h1.1l1.2-3.2c0-0.1,0.1-0.1,0.2-0.1
			c0.1,0,0.1,0,0.2,0.1l1.2,3.2h1.1l1.2-4.8h-1L266.9,90.2z"/>
	</g>
	<g>
		<path class="st8" d="M288.4,95.6c-0.1,0-0.1,0-0.2,0.1c-0.1,0-0.2,0-0.2,0c-0.2,0-0.4-0.1-0.6-0.2c-0.1-0.1-0.2-0.3-0.2-0.6
			c0-0.1,0-0.2,0.1-0.3c0-0.1,0.1-0.2,0.1-0.2c0.1-0.1,0.1-0.1,0.2-0.2c0.1,0,0.2-0.1,0.3-0.1c0.1,0,0.2,0,0.3,0c0.1,0,0.2,0,0.2,0
			c0,0,0-0.1,0-0.1c0,0,0-0.1,0-0.1c-0.1,0-0.1,0-0.2,0c-0.1,0-0.2,0-0.3,0c-0.2,0-0.3,0-0.5,0.1c-0.1,0.1-0.2,0.1-0.3,0.2
			c-0.1,0.1-0.2,0.2-0.2,0.3c0,0.1-0.1,0.3-0.1,0.4c0,0.3,0.1,0.6,0.3,0.8c0.2,0.2,0.4,0.3,0.8,0.3c0.1,0,0.2,0,0.3,0
			c0.1,0,0.2,0,0.2-0.1c0,0,0-0.1,0-0.1C288.4,95.7,288.4,95.7,288.4,95.6z"/>
		<path class="st8" d="M291.5,94.2c-0.1-0.1-0.2-0.2-0.3-0.2c-0.1-0.1-0.3-0.1-0.4-0.1c-0.2,0-0.3,0-0.4,0.1
			c-0.1,0.1-0.2,0.1-0.3,0.2c-0.1,0.1-0.1,0.2-0.2,0.3c0,0.1-0.1,0.3-0.1,0.4c0,0.1,0,0.3,0.1,0.4c0,0.1,0.1,0.2,0.2,0.3
			c0.1,0.1,0.2,0.2,0.3,0.2c0.1,0.1,0.3,0.1,0.4,0.1c0.2,0,0.3,0,0.4-0.1c0.1-0.1,0.2-0.1,0.3-0.2c0.1-0.1,0.1-0.2,0.2-0.3
			c0-0.1,0.1-0.3,0.1-0.4c0-0.1,0-0.3-0.1-0.4C291.6,94.4,291.5,94.3,291.5,94.2z M291.2,95.5c-0.1,0.1-0.3,0.2-0.5,0.2
			c-0.2,0-0.4-0.1-0.5-0.2c-0.1-0.1-0.2-0.3-0.2-0.6c0-0.2,0.1-0.4,0.2-0.6c0.1-0.1,0.3-0.2,0.5-0.2c0.2,0,0.4,0.1,0.5,0.2
			c0.1,0.1,0.2,0.3,0.2,0.6C291.4,95.2,291.3,95.3,291.2,95.5z"/>
		<path class="st8" d="M294,93.9c-0.1,0-0.2,0-0.3,0c-0.1,0-0.1,0.1-0.2,0.1c-0.1,0-0.1,0.1-0.2,0.1c0,0-0.1,0.1-0.1,0.1
			c0-0.1,0-0.1,0-0.2c0-0.1,0-0.1,0-0.2c0,0,0,0-0.1,0c0,0,0,0-0.1,0c0,0,0,0-0.1,0c0,0,0,0-0.1,0l0,1.9c0,0,0,0,0.1,0
			c0,0,0.1,0,0.1,0c0,0,0,0,0.1,0c0,0,0.1,0,0.1,0l0-1c0-0.1,0-0.2,0.1-0.3c0-0.1,0.1-0.2,0.2-0.3c0.1-0.1,0.1-0.1,0.2-0.2
			c0.1,0,0.2-0.1,0.3-0.1c0.1,0,0.3,0,0.3,0.1c0.1,0.1,0.1,0.3,0.1,0.5l0,1.1c0,0,0,0,0.1,0c0,0,0.1,0,0.1,0c0,0,0,0,0.1,0
			c0,0,0.1,0,0.1,0l0-1.2c0-0.2-0.1-0.4-0.2-0.6C294.4,94,294.2,93.9,294,93.9z"/>
		<path class="st8" d="M297.3,94.9c-0.1,0-0.1-0.1-0.2-0.1c-0.1,0-0.2-0.1-0.2-0.1c-0.1,0-0.1,0-0.2,0c-0.1,0-0.1,0-0.1-0.1
			c0,0-0.1-0.1-0.1-0.1c0,0,0-0.1,0-0.1c0-0.1,0-0.2,0.1-0.2c0.1-0.1,0.2-0.1,0.4-0.1c0.1,0,0.2,0,0.3,0c0.1,0,0.2,0,0.2,0.1
			c0-0.1,0-0.1,0.1-0.2c-0.1,0-0.1,0-0.2-0.1c-0.1,0-0.2,0-0.3,0c-0.3,0-0.5,0-0.6,0.1c-0.1,0.1-0.2,0.2-0.2,0.4c0,0.1,0,0.2,0,0.2
			c0,0.1,0.1,0.1,0.1,0.1c0.1,0,0.1,0.1,0.2,0.1c0.1,0,0.1,0,0.2,0.1c0.1,0,0.1,0,0.2,0.1c0.1,0,0.1,0,0.2,0.1c0,0,0.1,0.1,0.1,0.1
			c0,0,0,0.1,0,0.2c0,0.1-0.1,0.2-0.1,0.2c-0.1,0.1-0.2,0.1-0.4,0.1c-0.1,0-0.2,0-0.3,0c-0.1,0-0.2,0-0.2-0.1c0,0.1-0.1,0.2-0.1,0.2
			c0.1,0,0.1,0,0.3,0.1c0.1,0,0.2,0,0.4,0c0.1,0,0.2,0,0.3,0c0.1,0,0.2-0.1,0.3-0.1c0.1-0.1,0.1-0.1,0.2-0.2c0-0.1,0.1-0.2,0.1-0.2
			c0-0.1,0-0.2-0.1-0.2C297.4,95,297.4,95,297.3,94.9z"/>
		<path class="st8" d="M300.5,93.9C300.4,93.9,300.4,93.9,300.5,93.9c-0.1,0-0.1,0-0.1,0l0,1.7c-0.1,0-0.1,0-0.2,0
			c-0.1,0-0.2,0-0.2,0c-0.1,0-0.2,0-0.3,0c-0.1,0-0.2-0.1-0.2-0.1c-0.1,0-0.1-0.1-0.1-0.2c0-0.1,0-0.2,0-0.3l0-1.1c0,0,0,0-0.1,0
			c0,0-0.1,0-0.1,0c0,0,0,0-0.1,0c0,0-0.1,0-0.1,0l0,1.1c0,0.2,0,0.3,0.1,0.4c0,0.1,0.1,0.2,0.2,0.3c0.1,0.1,0.2,0.1,0.3,0.1
			c0.1,0,0.2,0,0.4,0c0.1,0,0.3,0,0.4,0c0.1,0,0.2,0,0.3-0.1l0-1.9C300.6,93.9,300.6,93.9,300.5,93.9
			C300.5,93.9,300.5,93.9,300.5,93.9z"/>
		<path class="st8" d="M302.6,95.7C302.6,95.7,302.6,95.7,302.6,95.7c-0.1,0-0.1,0-0.2,0c0,0-0.1,0-0.1,0c0,0-0.1,0-0.1,0
			c0,0,0,0-0.1-0.1c0,0,0-0.1,0-0.2l0-2.3c0,0,0,0-0.1,0c0,0-0.1,0-0.1,0c0,0,0,0-0.1,0c0,0-0.1,0-0.1,0l0,2.4c0,0.1,0,0.2,0,0.2
			c0,0.1,0.1,0.1,0.1,0.1c0,0,0.1,0.1,0.2,0.1c0.1,0,0.1,0,0.2,0c0,0,0.1,0,0.1,0c0,0,0.1,0,0.1,0C302.7,95.8,302.7,95.8,302.6,95.7
			C302.7,95.7,302.7,95.7,302.6,95.7z"/>
		<path class="st8" d="M304.7,95.7c0,0-0.1,0-0.1,0c0,0-0.1,0-0.1,0c0,0-0.1,0-0.1-0.1c0,0,0-0.1,0-0.2l0-1.3h0.6c0,0,0,0,0,0
			c0,0,0,0,0-0.1c0,0,0,0,0-0.1c0,0,0,0,0,0h-0.6l0-0.6h0l-0.3,0.2l0,0.4h-0.4c0,0,0,0,0,0c0,0,0,0,0,0.1c0,0,0,0,0,0.1c0,0,0,0,0,0
			h0.4l0,1.3c0,0.2,0,0.3,0.1,0.4c0.1,0.1,0.2,0.1,0.4,0.1c0.1,0,0.3,0,0.4,0c0-0.1,0-0.1,0-0.2C304.9,95.7,304.8,95.7,304.7,95.7z"
			/>
		<path class="st8" d="M309.2,93.9c-0.1,0-0.2,0-0.3,0c-0.1,0-0.1,0.1-0.2,0.1c-0.1,0-0.1,0.1-0.2,0.1c0,0-0.1,0.1-0.1,0.1
			c0-0.1,0-0.1,0-0.2c0-0.1,0-0.1,0-0.2c0,0,0,0-0.1,0c0,0,0,0-0.1,0c0,0,0,0-0.1,0c0,0,0,0-0.1,0l0,1.9c0,0,0,0,0.1,0
			c0,0,0.1,0,0.1,0c0,0,0,0,0.1,0c0,0,0.1,0,0.1,0l0-1c0-0.1,0-0.2,0.1-0.3c0-0.1,0.1-0.2,0.2-0.3c0.1-0.1,0.1-0.1,0.2-0.2
			c0.1,0,0.2-0.1,0.3-0.1c0.1,0,0.3,0,0.3,0.1c0.1,0.1,0.1,0.3,0.1,0.5l0,1.1c0,0,0,0,0.1,0c0,0,0.1,0,0.1,0c0,0,0,0,0.1,0
			c0,0,0.1,0,0.1,0l0-1.2c0-0.2-0.1-0.4-0.2-0.6C309.6,94,309.5,93.9,309.2,93.9z"/>
		<path class="st8" d="M312.8,94.1c0,0,0-0.1,0-0.1c-0.1,0-0.1,0-0.2,0c-0.1,0-0.1,0-0.2,0c0,0-0.1,0-0.1,0c0,0-0.1,0-0.1,0
			c-0.1,0-0.1-0.1-0.2-0.1c-0.1,0-0.2,0-0.3,0c-0.1,0-0.3,0-0.4,0.1c-0.1,0-0.2,0.1-0.3,0.1c-0.1,0.1-0.1,0.1-0.2,0.2
			c0,0.1-0.1,0.2-0.1,0.3c0,0.1,0,0.2,0.1,0.3c0.1,0.1,0.1,0.2,0.2,0.2c-0.1,0.1-0.2,0.1-0.2,0.2c-0.1,0.1-0.1,0.1-0.1,0.2
			c0,0.1,0,0.1,0.1,0.2c0,0,0.1,0.1,0.1,0.1c-0.1,0-0.2,0.1-0.2,0.2c-0.1,0.1-0.1,0.2-0.1,0.3c0,0.1,0,0.2,0.1,0.2
			c0,0.1,0.1,0.1,0.2,0.2c0.1,0,0.2,0.1,0.3,0.1c0.1,0,0.2,0,0.3,0c0.2,0,0.3,0,0.5,0c0.1,0,0.3-0.1,0.4-0.1
			c0.1-0.1,0.2-0.1,0.2-0.2c0.1-0.1,0.1-0.2,0.1-0.3c0-0.1,0-0.3-0.2-0.3c-0.1-0.1-0.3-0.1-0.5-0.1l-0.5,0c-0.1,0-0.1,0-0.2,0
			c0,0-0.1,0-0.1,0c0,0,0,0-0.1-0.1c0,0,0,0,0-0.1c0-0.1,0-0.1,0-0.1c0,0,0.1-0.1,0.2-0.1c0.1,0,0.2,0,0.3,0c0.1,0,0.2,0,0.3,0
			c0.1,0,0.2-0.1,0.3-0.1c0.1-0.1,0.1-0.1,0.2-0.2c0-0.1,0.1-0.2,0.1-0.3c0-0.1,0-0.1,0-0.2c0-0.1,0-0.1-0.1-0.2h0.4
			C312.8,94.2,312.8,94.1,312.8,94.1z M311.4,95.9l0.5,0c0.2,0,0.3,0,0.4,0.1c0.1,0,0.1,0.1,0.1,0.2c0,0.1-0.1,0.2-0.2,0.3
			c-0.1,0.1-0.4,0.1-0.6,0.1c-0.1,0-0.2,0-0.2,0c-0.1,0-0.1,0-0.2,0c-0.1,0-0.1-0.1-0.1-0.1c0,0,0-0.1,0-0.2c0-0.1,0-0.2,0.1-0.3
			C311.2,95.9,311.3,95.9,311.4,95.9z M312.1,94.9c-0.1,0.1-0.2,0.1-0.4,0.1c-0.2,0-0.3,0-0.4-0.1c-0.1-0.1-0.1-0.2-0.1-0.3
			c0-0.1,0-0.2,0.1-0.3c0.1-0.1,0.2-0.1,0.4-0.1c0.2,0,0.3,0,0.4,0.1c0.1,0.1,0.1,0.2,0.1,0.3C312.2,94.7,312.1,94.8,312.1,94.9z"/>
		<path class="st8" d="M306.4,94C306.4,94,306.4,94,306.4,94c0,0.1,0,0.1,0,0.1c0,0,0,0,0,0h0.3l0,1.7c0,0,0,0,0.1,0
			c0,0,0.1,0,0.1,0c0,0,0,0,0.1,0c0,0,0.1,0,0.1,0l0-1.9L306.4,94C306.4,94,306.4,94,306.4,94z"/>
		<path class="st8" d="M306.7,93.5c0.1,0,0.2-0.1,0.2-0.2c0-0.1-0.1-0.2-0.2-0.2c-0.1,0-0.2,0.1-0.2,0.2
			C306.5,93.4,306.6,93.5,306.7,93.5z"/>
	</g>
	<path class="st12" d="M272.1,98c0,0.5-5.4,1-12,1c-6.6,0-12-0.4-12-1c0-0.6,5.4-1,12-1c0.1,0,0.2,0,0.3,0
		C266.9,97,272.1,97.5,272.1,98z"/>
</g>
</svg>
