<?xml version="1.0" encoding="utf-8"?>
<!-- Generator: Adobe Illustrator 24.3.0, SVG Export Plug-In . SVG Version: 6.00 Build 0)  -->
<svg version="1.1" id="Layer_1" xmlns="http://www.w3.org/2000/svg" xmlns:xlink="http://www.w3.org/1999/xlink" x="0px" y="0px"
	 viewBox="0 0 329.2 123.9" style="enable-background:new 0 0 329.2 123.9;" xml:space="preserve">
<style type="text/css">
	.st0{fill:#595A59;}
	.st1{fill:#777677;}
	.st2{fill:#626362;}
	.st3{fill:#575756;}
	.st4{fill:#696969;}
	.st5{fill:#B2B2B2;}
	.st6{fill:#E3E3E3;}
	.st7{fill:none;stroke:#000000;stroke-width:1.3969;}
	.st8{fill:#FFFFFF;}
	.st9{fill:none;stroke:#000000;stroke-width:0.2097;stroke-miterlimit:10;}
	.st10{fill-rule:evenodd;clip-rule:evenodd;fill:#575756;}
</style>
<g>
	<path class="st0" d="M41.1,20c0.6-0.4,2.7-1.7,5-3.2c2.2-1.3,3.5-2.5,6-2.7c2.1,0,4.3,2.6,6.1,3.8c0.7,0.6,2.7,2.7,4.5,3
		c2.6,0.5,3.8-1.1,4.4-1.3c0.1,0.1,0.4,0.4,0.4,0.4s-2.8,1.9-3.5,2.3c-0.7,0.5-3.3,2.4-6.1,2.3c-3-0.1-3.8-1.7-6.5-3.7
		c-2.2-1.7-3.3-2.8-5-2.9c-0.9-0.1-2.1,0.6-3.1,1.3c-0.8,0.5-1.4,1-1.7,1.1C41.5,20.2,41.3,20.2,41.1,20z"/>
	<path class="st1" d="M35.2,28.9c0.5-0.3,4.3-2.7,6.1-3.8c1.7-1,2.6-2.2,4.7-2.4c3-0.1,4.5,4,8,4.5c1.2,0,2.5-1.2,3.5-1.7
		c0.2,0.2,0.5,0.4,0.5,0.4s-4.5,2.8-5,3.2c-0.5,0.4-3.2,2.4-4.7,2.3c-1.9-0.1-2.7-1.1-4.3-2.3c-1.7-1.3-2.4-1.8-3.7-1.9
		c-0.7-0.1-1.7,0.3-2.5,0.9c-0.6,0.4-2,1.2-2.2,1.3C35.5,29.2,35.3,29,35.2,28.9z"/>
	<path class="st2" d="M32,23.7c0.5-0.3,3-2.2,5-3.4c1.9-1.1,2.9-2.5,5.2-2.6c2.2,0,3.5,1.9,5,2.9c0.6,0.5,1.7,1.8,3.7,2.2
		c2.5,0.5,4.7-1.7,5.4-2c0.2,0.2,0.5,0.5,0.5,0.5s-4.1,2.7-4.7,3c-0.6,0.4-3.3,2.6-5.7,2.4c-2.1-0.1-3-1.4-4.7-2.7
		c-1.9-1.5-2.7-2.2-4.1-2.3c-0.7-0.1-2,0.3-2.9,0.9c-0.7,0.5-1.9,1.3-2.2,1.4C32.2,23.9,32.1,23.9,32,23.7z"/>
	<path class="st0" d="M46.4,18c-0.9-0.1-2.1,0.6-3.1,1.3c-0.8,0.5-1.4,1-1.7,1.1c-0.1-0.1-0.2-0.2-0.4-0.4c0.6-0.4,2.7-1.7,5-3.2
		L46.4,18z"/>
	<g>
		<g>
			<path class="st0" d="M35.4,35.7c0.2,0,0.7,0,1,0.1c0.2,0.1,0.3,0.2,0.3,0.4c0.1,0.1,0.1,0.3,0.1,0.5c-0.1,0.5-0.5,0.8-0.7,0.9
				c-0.1,0.1-0.5,0.2-0.6,0.2l0,0c0.2,0.1,0.5,0,0.7,0.3c0.1,0.1,0.2,0.3,0.2,0.5c0,0.2-0.1,0.5-0.2,0.6c-0.1,0.2-0.2,0.3-0.4,0.5
				c-0.2,0.1-0.4,0.2-0.6,0.2C35,40,34.8,40,34.5,40H32l1.1-4.4L35.4,35.7L35.4,35.7z M34.5,39.3c0.3,0,0.5-0.1,0.6-0.2
				c0.1-0.1,0.2-0.3,0.2-0.5c0-0.1,0-0.2-0.1-0.3c0-0.1-0.1-0.1-0.2-0.1c-0.1,0-0.2,0-0.2,0c-0.1,0-0.2,0-0.3,0h-1l-0.3,1.2
				L34.5,39.3L34.5,39.3L34.5,39.3z M34.8,37.4c0.2,0,0.4,0,0.5-0.1c0.1-0.1,0.2-0.2,0.2-0.5c0-0.2,0-0.3-0.1-0.3
				c-0.1-0.1-0.2-0.1-0.4-0.1h-1.2l-0.2,1L34.8,37.4L34.8,37.4z"/>
			<path class="st0" d="M37,38.1c0.1-0.2,0.3-0.5,0.5-0.7c0.2-0.2,0.5-0.3,0.7-0.5c0.3-0.1,0.7-0.2,1-0.2c0.3,0,0.6,0,0.8,0
				c0.2,0,0.5,0.1,0.7,0.2c0.2,0.1,0.3,0.2,0.5,0.4c0.1,0.1,0.2,0.4,0.2,0.6c0,0.3,0,0.5-0.1,0.8c-0.1,0.3-0.2,0.5-0.5,0.7
				c-0.2,0.2-0.5,0.3-0.7,0.5c-0.3,0.1-0.7,0.2-1.1,0.2c-0.6,0-1.1-0.1-1.5-0.2c-0.4-0.2-0.6-0.5-0.6-1C36.8,38.5,36.9,38.3,37,38.1
				z M38,39c0,0.1,0.1,0.1,0.2,0.2c0.1,0.1,0.2,0.1,0.3,0.1c0.1,0,0.3,0,0.5,0c0.2,0,0.4-0.1,0.5-0.1c0.1-0.1,0.3-0.2,0.5-0.4
				c0.1-0.1,0.2-0.3,0.2-0.5c0-0.2,0.1-0.3,0-0.5c0-0.2-0.1-0.3-0.2-0.5c-0.1-0.1-0.4-0.2-0.7-0.1c-0.2,0-1.3,0.3-1.3,1.3
				C38,38.9,38,38.9,38,39z"/>
			<path class="st0" d="M60,38.1c0.1-0.2,0.3-0.5,0.5-0.7c0.2-0.2,0.5-0.4,0.7-0.5c0.3-0.1,0.7-0.2,1-0.2c0.3,0,0.6,0,0.9,0
				c0.2,0,0.5,0.1,0.7,0.2c0.2,0.1,0.3,0.2,0.5,0.4c0.1,0.1,0.2,0.4,0.2,0.6c0,0.3,0,0.5-0.1,0.8c-0.1,0.3-0.3,0.5-0.5,0.7
				c-0.2,0.2-0.5,0.4-0.7,0.5c-0.3,0.1-0.7,0.2-1.1,0.2c-0.6,0-1.1-0.1-1.5-0.2c-0.4-0.2-0.6-0.5-0.6-1C59.8,38.6,59.9,38.4,60,38.1
				z M61,39.1c0,0.1,0.1,0.1,0.2,0.2c0.1,0.1,0.2,0.1,0.3,0.1c0.1,0,0.3,0,0.5,0c0.2,0,0.4-0.1,0.6-0.1c0.1-0.1,0.3-0.2,0.5-0.4
				c0.1-0.1,0.2-0.3,0.2-0.5c0-0.1,0.1-0.3,0-0.5c0-0.2-0.1-0.3-0.2-0.5c-0.1-0.1-0.4-0.2-0.7-0.1c-0.2,0-1.3,0.3-1.3,1.4
				C61,38.9,61,39,61,39.1z"/>
			<path class="st0" d="M43.3,36.8l0,0.3l0,0c0.3-0.4,1-0.5,1.2-0.5c0.2,0,0.7,0.1,0.9,0.5c0.6-0.5,1.3-0.5,1.5-0.5
				c0.1,0,0.3,0,0.5,0.1c0.7,0.2,0.5,0.9,0.5,1.1c0,0.1,0,0.2-0.1,0.3l-0.5,1.9h-1.2l0.5-2.1c0-0.1,0.1-0.3-0.1-0.5
				c-0.1-0.1-0.6-0.3-1,0.2c-0.1,0.1-0.1,0.2-0.2,0.3c0,0.1-0.1,0.2-0.1,0.3l-0.5,1.7h-1.2l0.6-2.1c0-0.1,0-0.1,0-0.2
				c0-0.1,0-0.2-0.1-0.3c-0.1-0.1-0.5-0.2-0.7,0c-0.1,0.1-0.2,0.1-0.2,0.2c-0.1,0.1-0.1,0.2-0.2,0.3c0,0.1-0.1,0.2-0.1,0.3l-0.5,1.7
				h-1.1l0.9-3.3h1.1L43.3,36.8L43.3,36.8z"/>
			<polygon class="st0" points="50,36.8 49.2,40.1 48.1,40.1 49,36.8 			"/>
			<polygon class="st0" points="49.1,36.4 49.2,35.7 50.3,35.7 50.1,36.4 			"/>
			<path class="st0" d="M52,36.8L52,37.2l0,0c0.5-0.4,1-0.5,1.5-0.5c0.6,0,1.3,0.3,1.3,0.8c0,0,0,0.1,0,0.1s0,0.1,0,0.1
				c0,0,0,0.1,0,0.1c0,0,0,0.1,0,0.1l-0.5,1.9H53l0.5-1.8c0,0,0-0.1,0-0.2c0-0.1,0-0.3-0.1-0.5c-0.1-0.1-0.4-0.2-0.5-0.2
				c-0.1,0-0.2,0-0.6,0.1c-0.3,0.1-0.6,0.3-0.7,0.8l-0.5,1.8H50l0.9-3.3H52L52,36.8L52,36.8z"/>
			<path class="st0" d="M55.4,37.5l0.2-0.7h0.5c0-0.2,0.1-0.3,0.2-0.5c0.1-0.1,0.1-0.3,0.2-0.4c0.1-0.1,0.2-0.2,0.5-0.2
				c0.2,0,0.4-0.1,0.7-0.1c0.1,0,0.2,0,0.4,0c0.1,0,0.3,0,0.4,0.1v0.6c-0.1,0-0.1,0-0.2,0c-0.1,0-0.1,0-0.2,0c-0.1,0-0.4,0-0.5,0.1
				c-0.1,0.1-0.2,0.1-0.3,0.5H58l-0.2,0.7h-0.7l-0.7,2.6h-1.2l0.7-2.6L55.4,37.5L55.4,37.5L55.4,37.5z"/>
			<path class="st0" d="M60,35.7L58.8,40h-1.1l1.1-4.3H60z"/>
			<path class="st0" d="M67.6,36.8l-0.1,0.7h-1l-0.4,1.6c0,0,0,0.2,0,0.2c0.2,0.2,0.8,0.1,1,0L66.8,40c-0.2,0.1-0.7,0.1-0.9,0.1
				c-0.1,0-0.3,0-0.5,0c-0.1,0-0.2,0-0.3-0.1c-0.1,0-0.2-0.1-0.2-0.2c-0.1-0.1-0.1-0.2-0.1-0.3c0,0,0-0.1,0-0.1c0,0,0-0.1,0-0.1
				l0.5-1.8h-0.5l0.2-0.7h0.5l0.1-0.6h1.1l-0.1,0.6L67.6,36.8z"/>
		</g>
	</g>
</g>
<g>
	<path class="st3" d="M176.7,27.3c0.1,0.3,0.1,0.6,0.2,1c0.2,1.5,0.5,2.9,0.8,4.4c0.2,0.9,0.3,1.9,0.5,2.8c0,0,0,0.1,0,0.2
		c-0.1,0-0.1,0-0.1,0c-0.7,0-1.3,0-2,0c-0.1,0-0.1,0-0.2-0.1c-0.2-1.3-0.4-2.7-0.7-4c-0.1-0.5-0.2-1.1-0.3-1.7
		c0,0.1-0.1,0.1-0.1,0.2c-0.8,1.8-1.5,3.7-2.3,5.5c0,0.1-0.1,0.2-0.2,0.1c-0.3,0-0.5,0-0.8,0c-0.1,0-0.2,0-0.2-0.1
		c-0.8-1.9-1.6-3.7-2.4-5.6c0,0,0-0.1-0.1-0.1c-0.3,1.9-0.6,3.9-0.9,5.8c-1.5,0-3,0-4.5,0c0-0.3,0-0.6,0-0.9
		c-0.1,0.1-0.1,0.1-0.2,0.2c-0.7,0.7-1.6,1-2.6,0.9c-1-0.1-1.7-0.6-2.3-1.4c-0.7-1-0.5-2.4,0.3-3.3c1-1,2.2-1.3,3.5-0.8
		c0.4,0.1,0.7,0.3,1,0.6c0,0,0.1,0.1,0.1,0.1c0-0.3,0-0.5,0-0.7c0.7,0,1.4,0,2.2,0c0,1.7,0,3.5,0,5.2c0,0,0,0,0,0
		c0.4-2.7,0.9-5.4,1.3-8.1c1,0,1.9,0,2.9,0c0,0,0,0,0,0.1c0.6,1.3,1.1,2.7,1.7,4c0.1,0.3,0.2,0.6,0.4,0.9c0,0,0-0.1,0-0.1
		c0.7-1.6,1.4-3.3,2.1-4.9C174.9,27.3,175.8,27.3,176.7,27.3z M161.8,34.3C161.8,34.3,161.8,34.2,161.8,34.3
		c0.4-0.1,0.8-0.2,1.2-0.5c0.4-0.4,0.5-1,0.2-1.4c-0.6-0.8-1.9-0.9-2.6-0.1c-0.4,0.5-0.5,1.5,0.4,1.9
		C161.2,34.2,161.5,34.2,161.8,34.3z"/>
	<path class="st3" d="M138.8,27.3c0,0.1,0,0.1,0.1,0.2c1.5,2.7,2.9,5.4,4.4,8c0,0,0,0.1,0.1,0.1c-0.1,0-0.1,0-0.1,0
		c-0.7,0-1.4,0-2.2,0c-0.1,0-0.1,0-0.2-0.1c-0.3-0.5-0.5-0.9-0.8-1.4c0-0.1-0.1-0.1-0.2-0.1c-1.3,0-2.7,0-4,0c-0.1,0-0.2,0-0.2,0.1
		c-0.2,0.5-0.5,0.9-0.7,1.4c0,0.1-0.1,0.1-0.2,0.1c-0.7,0-1.4,0-2.1,0c-0.1,0-0.1,0-0.2,0c0,0,0,0,0-0.1c0,0,0.1-0.1,0.1-0.1
		c1.1-2.1,2.2-4.2,3.3-6.3c0.2-0.3,0.3-0.6,0.5-0.9c-0.4-0.4-0.8-0.7-1.2-1C136.4,27.3,137.6,27.3,138.8,27.3z M139.2,32.5
		c-0.4-0.8-0.9-1.6-1.3-2.4c-0.4,0.8-0.9,1.6-1.3,2.4C137.5,32.5,138.3,32.5,139.2,32.5z"/>
	<path class="st3" d="M188.3,30.2c0,0.3,0,0.5,0,0.8c0.5-0.6,1.1-1,2-0.9c0,0.6,0,1.1,0,1.7c0.2-0.2,0.3-0.4,0.4-0.6
		c0.6-0.6,1.3-1,2.1-1.1c0.9-0.2,1.8-0.1,2.7,0.2c0.8,0.3,1.4,0.8,1.8,1.6c0.2,0.4,0.2,0.8,0.2,1.3c-1.7,0-3.5,0-5.2,0
		c0,0.4,0.2,0.6,0.4,0.8c0.4,0.3,0.9,0.4,1.4,0.3c0.4-0.1,0.8-0.3,1.1-0.6c0,0,0.1-0.1,0.1,0c0.6,0.2,1.3,0.3,1.9,0.5c0,0,0,0,0,0
		c-0.2,0.2-0.4,0.5-0.6,0.6c-0.6,0.4-1.2,0.7-1.9,0.8c-0.9,0.1-1.7,0.1-2.6-0.2c-0.7-0.2-1.3-0.6-1.7-1.2c-0.4-0.7-0.5-1.5-0.2-2.3
		c0,0,0-0.1,0-0.1c0,0,0,0,0,0c-0.1,0-0.2,0-0.3,0c-0.2,0-0.4,0-0.7,0.1c-0.6,0.1-0.9,0.6-0.9,1.3c0,0.8,0,1.5,0,2.3
		c0,0.1,0,0.1,0,0.2c-0.7,0-1.5,0-2.2,0c0-1.8,0-3.6,0-5.4C186.9,30.2,187.6,30.2,188.3,30.2z M195.3,32.2c-0.1-0.4-0.4-0.7-0.8-0.9
		c-0.6-0.2-1.1-0.2-1.6,0.1c-0.3,0.2-0.5,0.4-0.5,0.8C193.3,32.2,194.3,32.2,195.3,32.2z"/>
	<path class="st3" d="M147.8,31c0-0.3,0-0.6,0-0.8c0.7,0,1.4,0,2.2,0c0,2.6,0,5.2,0,7.9c-0.7,0-1.4,0-2.2,0c0-1.1,0-2.2,0-3.4
		c-0.1,0.1-0.1,0.1-0.1,0.1c-0.4,0.4-0.9,0.8-1.5,0.9c-1.3,0.2-2.4,0-3.3-1c-0.9-1-0.8-2.6,0.2-3.6c0.8-0.8,1.7-1,2.8-0.9
		C146.7,30.1,147.2,30.4,147.8,31C147.7,31,147.7,31,147.8,31C147.8,31,147.8,31,147.8,31z M146,34.2c0.6,0,1-0.2,1.4-0.5
		c0.4-0.4,0.5-1,0.1-1.5c-0.7-0.9-1.9-0.7-2.4-0.2c-0.5,0.5-0.5,1.2-0.1,1.7C145.3,34.1,145.7,34.2,146,34.2z"/>
	<path class="st3" d="M183.4,30.9c0-0.3,0-0.5,0-0.7c0.7,0,1.5,0,2.2,0c0,1.8,0,3.6,0,5.4c-0.7,0-1.4,0-2.2,0c0-0.3,0-0.6,0-0.9
		c0,0,0,0,0,0c0,0.1-0.1,0.1-0.1,0.2c-0.7,0.7-1.5,0.9-2.4,0.9c-1-0.1-1.9-0.5-2.4-1.4c-0.7-1-0.5-2.4,0.3-3.2
		c1-1.1,2.6-1.3,3.7-0.8c0.3,0.1,0.6,0.3,0.9,0.5C183.3,30.8,183.4,30.8,183.4,30.9z M180.3,33.1c0,0.3,0.1,0.6,0.5,0.9
		c0.6,0.5,1.7,0.4,2.3-0.2c0.4-0.5,0.4-1.1,0-1.6c-0.5-0.5-1.5-0.6-2.1-0.2C180.5,32.2,180.3,32.6,180.3,33.1z"/>
	<path class="st3" d="M155.7,30.2c0.7,0,1.5,0,2.2,0c0,0.1,0,0.1,0,0.2c0,0.9,0,1.9,0,2.8c0,0.8-0.3,1.4-1,1.9
		c-0.6,0.4-1.2,0.6-1.9,0.7c-0.9,0.1-1.7,0.1-2.5-0.2c-0.4-0.1-0.7-0.3-1-0.6c-0.5-0.4-0.8-1-0.8-1.7c0-1,0-2,0-3c0,0,0-0.1,0-0.1
		c0.7,0,1.5,0,2.2,0c0,0.1,0,0.1,0,0.2c0,0.8,0,1.6,0,2.4c0,0.5,0.2,0.9,0.7,1.2c0.7,0.4,1.7,0.1,2-0.7c0-0.1,0.1-0.3,0.1-0.4
		c0-0.8,0-1.7,0-2.5C155.7,30.3,155.7,30.2,155.7,30.2z"/>
	<path class="st3" d="M181.6,37.9c-0.1,0-0.1,0-0.2,0c0-0.2,0-0.4,0-0.6c0-0.1,0-0.2,0-0.4c0-0.2-0.1-0.3-0.2-0.3
		c-0.2,0-0.3,0.1-0.4,0.2c0,0.1,0,0.1,0,0.2c0,0.3,0,0.5,0,0.8c-0.1,0-0.1,0-0.2,0c0-0.1,0-0.2,0-0.3c0-0.2,0-0.4,0-0.6
		c0-0.2-0.1-0.3-0.2-0.3c-0.2,0-0.4,0.1-0.4,0.2c0,0.1,0,0.2,0,0.2c0,0.2,0,0.5,0,0.8c-0.1,0-0.1,0-0.2,0c0-0.5,0-0.9,0-1.4
		c0.1,0,0.1,0,0.2,0c0,0.1,0,0.1,0,0.1c0.1-0.1,0.3-0.1,0.4-0.2c0.2,0,0.3,0,0.4,0.2c0,0,0.1-0.1,0.1-0.1c0.2-0.2,0.5-0.2,0.6-0.1
		c0.1,0.1,0.2,0.2,0.2,0.3C181.6,37.2,181.6,37.6,181.6,37.9z"/>
	<path class="st3" d="M187.5,37.8c0,0.2,0,0.5,0,0.7c-0.1,0-0.1,0-0.2,0c0-0.6,0-1.3,0-1.9c0.1,0,0.1,0,0.2,0c0,0,0,0.1,0,0.1
		c0.1,0,0.2-0.1,0.3-0.1c0.3-0.1,0.6,0.1,0.7,0.4c0.1,0.2,0.1,0.4,0,0.6C188.5,38,187.9,38.1,187.5,37.8z M187.5,37.2
		c0,0.1,0,0.2,0.1,0.3c0.1,0.2,0.2,0.2,0.4,0.2c0.2,0,0.3-0.1,0.4-0.2c0.1-0.2,0.1-0.4,0-0.6c-0.1-0.2-0.2-0.2-0.4-0.2
		c-0.2,0-0.3,0.1-0.4,0.3C187.5,37,187.5,37.1,187.5,37.2z"/>
	<path class="st3" d="M189.1,37c-0.1,0-0.1,0-0.2,0c0-0.2,0.1-0.3,0.2-0.4c0.2-0.1,0.5-0.1,0.7,0c0.1,0.1,0.2,0.2,0.2,0.3
		c0,0.2,0,0.5,0,0.7c0,0.1,0,0.2,0.1,0.2c0,0.1,0,0.2-0.1,0.2c-0.1,0-0.2,0-0.3-0.2c-0.2,0.2-0.4,0.2-0.6,0.2
		c-0.2,0-0.3-0.1-0.3-0.3c0-0.2,0.1-0.4,0.3-0.4c0.1,0,0.3-0.1,0.4-0.1c0,0,0.1,0,0.1,0c0.1,0,0.1-0.1,0.1-0.1c0-0.1,0-0.2-0.1-0.2
		C189.4,36.6,189.2,36.7,189.1,37z M189.8,37.2c-0.2,0-0.4,0.1-0.5,0.1c-0.1,0-0.2,0.1-0.2,0.2c0,0.1,0.1,0.2,0.2,0.2
		C189.6,37.8,189.8,37.6,189.8,37.2z"/>
	<path class="st3" d="M192.2,37.8c-0.2,0.2-0.4,0.2-0.6,0.2c-0.2,0-0.3-0.2-0.3-0.3c0-0.2,0.1-0.4,0.2-0.4c0.2-0.1,0.3-0.1,0.5-0.1
		c0.2,0,0.3-0.1,0.2-0.3c0,0-0.1-0.1-0.1-0.1c-0.2-0.1-0.4,0-0.6,0.2c0,0-0.1,0.1-0.2,0.1c0-0.2,0.1-0.3,0.2-0.4
		c0.2-0.1,0.5-0.1,0.7,0c0.1,0.1,0.2,0.2,0.2,0.3c0,0.3,0,0.5,0,0.8c0,0.1,0,0.2,0.1,0.1c0,0.1,0.1,0.2-0.1,0.2
		C192.3,38,192.2,38,192.2,37.8z M192.2,37.2c-0.2,0-0.3,0.1-0.5,0.1c-0.1,0-0.2,0.1-0.2,0.3c0,0.1,0.1,0.2,0.2,0.2
		C192,37.8,192.2,37.6,192.2,37.2z"/>
	<path class="st3" d="M183.2,37.3c-0.2,0-0.4,0-0.6,0c-0.2,0-0.3,0-0.5,0c0,0.3,0.3,0.6,0.6,0.4c0.1,0,0.1-0.1,0.1-0.1
		c0.1-0.2,0.2-0.1,0.3-0.1c0,0.1-0.1,0.3-0.2,0.3c-0.3,0.3-0.9,0.1-1-0.3c-0.1-0.3-0.1-0.6,0.1-0.9c0.3-0.3,0.8-0.3,1,0.1
		C183.2,37,183.2,37.1,183.2,37.3z M182.9,37.1c0-0.3-0.2-0.4-0.4-0.4c-0.2,0-0.3,0.2-0.4,0.4C182.4,37.1,182.7,37.1,182.9,37.1z"/>
	<path class="st3" d="M184,37.2c0-0.4,0.3-0.7,0.7-0.7c0.4,0,0.7,0.3,0.7,0.7c0,0.5-0.3,0.7-0.7,0.7C184.2,38,184,37.7,184,37.2z
		 M185.1,37.2c0,0,0-0.1,0-0.1c0-0.2-0.2-0.4-0.4-0.4c-0.2,0-0.4,0.1-0.4,0.3c0,0.1,0,0.3,0,0.4c0.1,0.3,0.4,0.4,0.7,0.2
		C185.1,37.6,185.1,37.4,185.1,37.2z"/>
	<path class="st3" d="M178.6,37.3c0,0.2-0.1,0.5-0.3,0.6c-0.2,0.1-0.5,0.1-0.7,0c-0.3-0.2-0.4-0.7-0.2-1c0.1-0.3,0.5-0.4,0.9-0.3
		C178.4,36.6,178.6,36.9,178.6,37.3z M178.4,37.2c0-0.1,0-0.1,0-0.2c-0.1-0.2-0.2-0.3-0.4-0.3c-0.2,0-0.4,0.1-0.4,0.3
		c0,0.1,0,0.3,0,0.5c0,0.2,0.2,0.3,0.4,0.3c0.2,0,0.3-0.1,0.4-0.3C178.3,37.4,178.3,37.3,178.4,37.2z"/>
	<path class="st3" d="M195.5,36.5c0.4,0,0.7,0.3,0.7,0.8c0,0.4-0.3,0.7-0.7,0.7c-0.4,0-0.7-0.3-0.7-0.7
		C194.8,36.8,195.1,36.5,195.5,36.5z M196,37.2c0-0.1-0.1-0.2-0.1-0.3c-0.1-0.2-0.4-0.3-0.6-0.1c-0.2,0.2-0.2,0.7,0,0.9
		c0.1,0.1,0.2,0.1,0.3,0.1C195.7,37.8,195.9,37.6,196,37.2z"/>
	<path class="st3" d="M196.4,37.5c0.1,0,0.1,0,0.2,0c0.1,0.2,0.4,0.4,0.7,0.2c0.1-0.1,0.1-0.2,0-0.3c-0.1,0-0.2-0.1-0.3-0.1
		c-0.1,0-0.2-0.1-0.3-0.1c-0.2-0.1-0.3-0.5,0-0.6c0.2-0.1,0.5-0.1,0.7,0c0.1,0.1,0.2,0.2,0.2,0.4c-0.1,0-0.2,0-0.3-0.1
		c-0.1-0.2-0.4-0.2-0.5-0.1c-0.1,0.1-0.1,0.2,0,0.2c0.1,0,0.1,0.1,0.2,0.1c0.1,0,0.3,0.1,0.4,0.1c0.3,0.1,0.3,0.5,0.1,0.7
		c-0.2,0.1-0.6,0.1-0.8,0C196.4,37.8,196.4,37.7,196.4,37.5z"/>
	<path class="st3" d="M175.8,36c0.1,0,0.2,0,0.3,0c0,0.6,0,1.1,0,1.7c0.3,0,0.7,0,1,0c0,0.1,0,0.1,0,0.2c-0.4,0-0.9,0-1.3,0
		C175.8,37.3,175.8,36.6,175.8,36z"/>
	<path class="st3" d="M193.4,36.5c0.2,0,0.2,0,0.3,0.2c0.1,0.3,0.2,0.6,0.3,0.9c0,0,0,0.1,0,0.1c0.1-0.4,0.2-0.7,0.3-1
		c0.1-0.2,0.1-0.2,0.3-0.1c-0.1,0.3-0.2,0.7-0.4,1c0,0.1-0.1,0.2-0.1,0.2c0,0.1-0.1,0.1-0.2,0.1c-0.1,0-0.2-0.1-0.2-0.1
		C193.7,37.4,193.5,37,193.4,36.5z"/>
	<path class="st3" d="M183.2,38.5c0-0.1,0-0.1,0-0.2c0.2,0,0.2,0,0.2-0.3c0-0.5,0-1,0-1.5c0.1,0,0.2,0,0.2,0c0,0.2,0,0.5,0,0.7
		c0,0.3,0,0.6,0,0.9C183.7,38.4,183.5,38.5,183.2,38.5z"/>
	<path class="st3" d="M190.4,37.9c0-0.5,0-0.9,0-1.4c0.1,0,0.1,0,0.2,0c0,0.1,0,0.2,0,0.2c0.1-0.1,0.1-0.1,0.2-0.2
		c0.1,0,0.2-0.1,0.3-0.1c0,0.1,0,0.2,0,0.2c0,0,0,0,0,0c-0.4,0.1-0.5,0.2-0.5,0.6c0,0.2,0,0.4,0,0.6
		C190.5,37.9,190.4,37.9,190.4,37.9z"/>
	<path class="st3" d="M185.8,37.9c-0.1,0-0.1,0-0.2,0c0-0.5,0-0.9,0-1.4c0.1,0,0.1,0,0.2,0c0,0.1,0,0.2,0,0.2
		c0.1-0.2,0.3-0.3,0.5-0.3c0,0.1,0,0.2,0,0.2c0,0-0.1,0-0.1,0c-0.2,0-0.4,0.2-0.4,0.4c0,0.2,0,0.4,0,0.6
		C185.8,37.8,185.8,37.9,185.8,37.9z"/>
	<path class="st3" d="M183.7,36.3c-0.1,0-0.1,0-0.2,0c0-0.1,0-0.2,0-0.3c0.1,0,0.1,0,0.2,0C183.7,36.1,183.7,36.2,183.7,36.3z"/>
</g>
<g>
	<path class="st3" d="M278.2,16.3c0,0-2,7.7,9.6,12.5C287.8,28.9,274.2,25.6,278.2,16.3z"/>
	<path class="st3" d="M280.7,9.8c0,0-3.4,15,9,19C289.7,28.9,274.4,24.1,280.7,9.8z"/>
	<path class="st3" d="M283.8,4.7c0,0-3.6,20.7,7.7,24.1C291.5,28.9,276.4,24.7,283.8,4.7z"/>
	<path class="st3" d="M289.2,14.9c0,0-5.9,7.4,1.4,12.8C290.6,27.8,281.2,22.5,289.2,14.9z"/>
	<path class="st3" d="M290.9,17.4c0,0-5,6,0.6,9.8C291.5,27.2,284.7,22.8,290.9,17.4z"/>
	<g>
		<path class="st3" d="M273.7,37.6c-0.1,0-0.2,0-0.3,0c-0.1,0-0.2,0-0.3,0c-0.1,0-0.2,0-0.3,0s-0.2,0-0.3,0
			c-0.1-0.2-0.1-0.4-0.2-0.7c-0.1-0.3-0.2-0.6-0.3-0.9c-0.1-0.3-0.3-0.6-0.4-0.9c-0.1-0.3-0.3-0.6-0.4-0.9c-0.3,0-0.6,0-0.8,0
			c-0.3,0-0.6,0-0.9,0c-0.3,0-0.5,0-0.8,0c-0.3,0-0.5,0-0.8,0c-0.3,0.7-0.5,1.3-0.7,1.9c-0.2,0.6-0.4,1.1-0.5,1.5
			c-0.1,0-0.3,0-0.5,0c-0.2,0-0.3,0-0.5,0c0.7-1.5,1.4-3,2-4.5c0.7-1.5,1.3-3,2-4.5h0.2c0.2,0.5,0.4,1,0.7,1.6
			c0.2,0.6,0.5,1.2,0.7,1.8c0.2,0.6,0.5,1.2,0.7,1.8c0.2,0.6,0.5,1.1,0.7,1.6c0.2,0.5,0.4,1,0.6,1.4
			C273.5,37.1,273.6,37.4,273.7,37.6z M268,33.6c0.2,0,0.5,0,0.7,0c0.2,0,0.5,0,0.7,0c0.2,0,0.5,0,0.7,0c0.2,0,0.5,0,0.7,0l-1.4-3.3
			L268,33.6z"/>
		<path class="st3" d="M276.1,37.6c-0.1-0.2-0.2-0.5-0.4-0.9c-0.2-0.4-0.3-0.8-0.5-1.2c-0.2-0.4-0.3-0.8-0.5-1.3
			c-0.2-0.4-0.4-0.8-0.5-1.2c-0.2-0.4-0.3-0.7-0.4-1c-0.1-0.3-0.2-0.5-0.3-0.6c0.1,0,0.2,0,0.3,0c0.1,0,0.2,0,0.3,0
			c0.1,0,0.2,0,0.3,0c0.1,0,0.2,0,0.3,0c0.3,0.8,0.6,1.6,0.9,2.5c0.3,0.8,0.7,1.6,1,2.5c0.4-0.8,0.7-1.6,1-2.4
			c0.3-0.9,0.6-1.7,0.9-2.5c0.2,0,0.3,0.1,0.4,0.1c0.1,0,0.3,0,0.4-0.1c-0.1,0.1-0.2,0.3-0.3,0.6c-0.1,0.3-0.3,0.6-0.5,1
			c-0.2,0.4-0.4,0.8-0.6,1.3c-0.2,0.5-0.4,1-0.7,1.5c-0.2,0.5-0.5,1-0.7,1.5c-0.2,0.5-0.4,1-0.6,1.4c-0.2,0.5-0.4,0.9-0.5,1.2
			c-0.1,0.4-0.2,0.7-0.3,0.9c-0.2,0-0.3-0.1-0.4-0.1c-0.1,0-0.3,0-0.4,0.1C275,39.9,275.6,38.8,276.1,37.6z"/>
		<path class="st3" d="M283.4,32.4c-0.1,0-0.3-0.1-0.4-0.1c-0.2,0-0.4,0-0.6,0.1c-0.2,0.1-0.3,0.2-0.4,0.4c-0.1,0.2-0.2,0.3-0.3,0.6
			c-0.1,0.2-0.1,0.5-0.1,0.7v1.4c0,0.6,0,1,0,1.3c0,0.3,0,0.6,0,0.7c-0.2,0-0.3,0-0.5,0c-0.2,0-0.4,0-0.5,0c0-0.3,0-0.7,0-1.2
			c0-0.5,0-1.1,0-1.9v-0.4c0-0.3,0-0.7,0-1.2c0-0.4,0-0.9,0-1.5c0.1,0,0.2,0,0.3,0c0.1,0,0.2,0,0.3,0c0.1,0,0.2,0,0.2,0
			c0.1,0,0.2,0,0.3,0c0,0.3-0.1,0.6-0.1,0.7c0,0.2,0,0.4,0,0.5l0,0c0.5-0.9,1.1-1.4,1.7-1.4c0.1,0,0.1,0,0.2,0c0.1,0,0.1,0,0.2,0.1
			c0,0.1-0.1,0.3-0.1,0.5c0,0.2,0,0.4,0,0.6l-0.1,0.1C283.6,32.5,283.5,32.4,283.4,32.4z"/>
		<path class="st3" d="M284.9,32.1c0.4-0.3,0.7-0.5,1.1-0.6c0.3-0.1,0.7-0.2,1-0.2c0.3,0,0.6,0,0.9,0.1c0.3,0.1,0.5,0.2,0.7,0.4
			c0.2,0.2,0.3,0.4,0.4,0.6c0.1,0.2,0.2,0.5,0.2,0.8c0,0.5,0,1,0,1.5c0,0.5,0,1,0,1.5c0,0.1,0,0.2,0,0.3c0,0.1,0,0.2,0.1,0.3
			c0,0.1,0.1,0.2,0.1,0.2c0.1,0.1,0.2,0.1,0.3,0.1c0,0,0.1,0,0.1,0c0,0,0.1,0,0.1,0v0.3c-0.1,0-0.2,0.1-0.4,0.1s-0.3,0-0.5,0
			c-0.3,0-0.5-0.1-0.6-0.2c-0.1-0.1-0.2-0.3-0.3-0.5c-0.3,0.3-0.6,0.5-0.9,0.7c-0.3,0.1-0.7,0.2-1.1,0.2c-0.2,0-0.4,0-0.6-0.1
			c-0.2-0.1-0.4-0.2-0.5-0.3c-0.2-0.1-0.3-0.3-0.4-0.5c-0.1-0.2-0.1-0.4-0.1-0.7c0-0.5,0.2-0.9,0.5-1.2c0.3-0.3,0.8-0.5,1.3-0.6
			c0.5-0.1,0.8-0.1,1.1-0.2c0.3-0.1,0.5-0.1,0.6-0.2c0.1-0.1,0.2-0.1,0.2-0.2c0-0.1,0-0.2,0-0.3c0-0.2,0-0.4-0.1-0.6
			c-0.1-0.2-0.1-0.4-0.2-0.5c-0.1-0.1-0.3-0.3-0.4-0.4c-0.2-0.1-0.4-0.1-0.7-0.1c-0.3,0-0.7,0.1-1,0.2c-0.3,0.2-0.5,0.4-0.7,0.6
			h-0.1V32.1z M288.1,34.4c-0.1,0.1-0.3,0.1-0.5,0.1c-0.2,0-0.4,0.1-0.6,0.1c-0.2,0-0.4,0.1-0.6,0.1c-0.2,0.1-0.4,0.1-0.5,0.2
			c-0.2,0.1-0.3,0.2-0.4,0.4c-0.1,0.2-0.1,0.4-0.1,0.6c0,0.4,0.1,0.7,0.3,0.9c0.2,0.2,0.5,0.3,0.8,0.3c0.3,0,0.6-0.1,0.9-0.3
			c0.3-0.2,0.5-0.4,0.6-0.6L288.1,34.4z"/>
		<path class="st3" d="M291.4,36.7c0.1,0.1,0.2,0.2,0.3,0.3c0.1,0.1,0.3,0.2,0.4,0.2c0.2,0.1,0.3,0.1,0.5,0.1c0.2,0,0.3,0,0.5-0.1
			c0.2-0.1,0.3-0.1,0.4-0.2c0.1-0.1,0.2-0.2,0.3-0.4c0.1-0.1,0.1-0.3,0.1-0.5c0-0.3-0.1-0.5-0.2-0.6c-0.2-0.1-0.3-0.3-0.6-0.3
			c-0.2-0.1-0.5-0.2-0.7-0.2c-0.3-0.1-0.5-0.2-0.7-0.3c-0.2-0.1-0.4-0.3-0.6-0.5c-0.2-0.2-0.2-0.5-0.2-0.9c0-0.3,0-0.5,0.1-0.8
			c0.1-0.2,0.2-0.4,0.4-0.6c0.2-0.2,0.4-0.3,0.7-0.4c0.3-0.1,0.6-0.1,0.9-0.1c0.3,0,0.6,0,0.8,0.1c0.2,0.1,0.4,0.2,0.6,0.2
			c-0.1,0.1-0.1,0.3-0.2,0.5c-0.1,0.2-0.1,0.3-0.1,0.4H294c-0.1-0.2-0.2-0.4-0.4-0.6c-0.2-0.2-0.4-0.2-0.7-0.2c-0.1,0-0.3,0-0.4,0.1
			c-0.1,0-0.2,0.1-0.3,0.2c-0.1,0.1-0.2,0.2-0.3,0.3c-0.1,0.1-0.1,0.3-0.1,0.5c0,0.3,0.1,0.5,0.2,0.6c0.2,0.2,0.3,0.3,0.6,0.4
			c0.2,0.1,0.5,0.2,0.7,0.2c0.3,0.1,0.5,0.2,0.7,0.3c0.2,0.1,0.4,0.3,0.6,0.5c0.2,0.2,0.2,0.5,0.2,0.9c0,0.3-0.1,0.5-0.2,0.7
			c-0.1,0.2-0.3,0.5-0.5,0.7c-0.2,0.2-0.4,0.3-0.7,0.5c-0.3,0.1-0.6,0.2-1,0.2c-0.4,0-0.7,0-1-0.1c-0.3-0.1-0.5-0.2-0.7-0.3
			c0.1-0.1,0.1-0.3,0.2-0.5c0.1-0.2,0.1-0.4,0.1-0.5h0.2C291.3,36.5,291.3,36.6,291.4,36.7z"/>
	</g>
	<g>
		<path class="st3" d="M280.3,40.9c0,0.1,0,0.2,0.1,0.2c0,0.1,0.1,0.1,0.1,0.1c0,0,0.1,0.1,0.2,0.1s0.1,0,0.2,0c0.1,0,0.2,0,0.2,0
			c0.1,0,0.1-0.1,0.2-0.1s0.1-0.1,0.1-0.1c0,0,0-0.1,0-0.2c0-0.1,0-0.1-0.1-0.2c0,0-0.1-0.1-0.1-0.1c-0.1,0-0.1-0.1-0.2-0.1
			c-0.1,0-0.1,0-0.2-0.1c-0.1,0-0.1,0-0.2-0.1c-0.1,0-0.1-0.1-0.2-0.1s-0.1-0.1-0.1-0.2c0-0.1-0.1-0.1-0.1-0.2c0-0.1,0-0.1,0-0.2
			c0-0.1,0.1-0.1,0.1-0.2c0.1,0,0.1-0.1,0.2-0.1c0.1,0,0.2,0,0.3,0c0.1,0,0.2,0,0.3,0c0.1,0,0.1,0.1,0.2,0.1
			c0.1,0.1,0.1,0.1,0.1,0.2c0,0.1,0,0.1,0,0.2h-0.2c0-0.1,0-0.1,0-0.2c0-0.1-0.1-0.1-0.1-0.1c0,0-0.1-0.1-0.2-0.1
			c-0.1,0-0.1,0-0.2,0c-0.1,0-0.2,0-0.2,0c-0.1,0-0.1,0.1-0.2,0.1c0,0-0.1,0.1-0.1,0.1c0,0,0,0.1,0,0.1c0,0.1,0,0.1,0.1,0.1
			c0,0,0.1,0.1,0.1,0.1c0.1,0,0.1,0,0.2,0.1c0.1,0,0.1,0,0.2,0s0.1,0,0.2,0.1c0.1,0,0.1,0.1,0.2,0.1c0.1,0,0.1,0.1,0.1,0.2
			c0,0.1,0,0.1,0,0.2c0,0.2-0.1,0.3-0.2,0.4c-0.1,0.1-0.3,0.1-0.5,0.1c-0.1,0-0.2,0-0.3,0c-0.1,0-0.2-0.1-0.2-0.1
			c-0.1-0.1-0.1-0.1-0.1-0.2c0-0.1-0.1-0.2-0.1-0.3H280.3z"/>
		<path class="st3" d="M282.1,41.5v-1.9h1.3v0.2h-1.1v0.7h1v0.2h-1v0.8h1.1v0.2H282.1z"/>
		<path class="st3" d="M284.8,40.7v-0.2h0.8v1h-0.2v-0.3c0,0.1-0.1,0.1-0.1,0.2c0,0-0.1,0.1-0.2,0.1c-0.1,0-0.1,0.1-0.2,0.1
			c-0.1,0-0.2,0-0.3,0c-0.1,0-0.2,0-0.3-0.1c-0.1,0-0.2-0.1-0.3-0.2c-0.1-0.1-0.1-0.2-0.2-0.3c0-0.1-0.1-0.3-0.1-0.4
			c0-0.1,0-0.3,0.1-0.4c0-0.1,0.1-0.2,0.2-0.3c0.1-0.1,0.2-0.2,0.3-0.2c0.1-0.1,0.2-0.1,0.4-0.1c0.1,0,0.2,0,0.3,0
			c0.1,0,0.2,0.1,0.2,0.1c0.1,0.1,0.1,0.1,0.2,0.2c0,0.1,0.1,0.2,0.1,0.3h-0.2c0-0.1,0-0.1-0.1-0.2c0-0.1-0.1-0.1-0.1-0.1
			c-0.1,0-0.1-0.1-0.2-0.1c-0.1,0-0.1,0-0.2,0c-0.1,0-0.2,0-0.3,0.1c-0.1,0-0.2,0.1-0.2,0.2c-0.1,0.1-0.1,0.2-0.1,0.3
			c0,0.1,0,0.2,0,0.4c0,0.1,0,0.2,0,0.3c0,0.1,0.1,0.2,0.1,0.3c0.1,0.1,0.1,0.1,0.2,0.2c0.1,0,0.2,0.1,0.3,0.1c0.1,0,0.1,0,0.2,0
			c0.1,0,0.1,0,0.2-0.1c0.1,0,0.1-0.1,0.1-0.1c0,0,0.1-0.1,0.1-0.2c0-0.1,0.1-0.1,0.1-0.2c0-0.1,0-0.1,0-0.2H284.8z"/>
		<path class="st3" d="M286.4,39.6h0.2v1.1c0,0.2,0,0.4,0.1,0.5c0.1,0.1,0.2,0.2,0.4,0.2c0.1,0,0.2,0,0.3,0c0.1,0,0.1-0.1,0.2-0.1
			c0-0.1,0.1-0.1,0.1-0.2c0-0.1,0-0.2,0-0.3v-1.1h0.2v1.2c0,0.3-0.1,0.4-0.2,0.6c-0.1,0.1-0.3,0.2-0.6,0.2c-0.3,0-0.4-0.1-0.6-0.2
			c-0.1-0.1-0.2-0.3-0.2-0.6V39.6z"/>
		<path class="st3" d="M288.7,40.6v0.9l-0.2,0v-1.9h0.8c0.2,0,0.4,0,0.5,0.1c0.1,0.1,0.2,0.2,0.2,0.4c0,0.1,0,0.2-0.1,0.3
			c0,0.1-0.1,0.1-0.2,0.2c0.1,0,0.1,0,0.1,0.1c0,0,0.1,0.1,0.1,0.1c0,0,0,0.1,0,0.2c0,0.1,0,0.1,0,0.2c0,0.1,0,0.1,0,0.2
			c0,0,0,0.1,0,0.1c0,0,0,0.1,0,0.1s0,0,0,0v0l-0.2,0c0,0,0-0.1,0-0.1c0-0.1,0-0.1,0-0.2c0-0.1,0-0.1,0-0.2c0-0.1,0-0.1,0-0.1
			c0-0.1,0-0.1-0.1-0.1c0,0-0.1-0.1-0.1-0.1c0,0-0.1,0-0.1,0s-0.1,0-0.1,0H288.7z M289.3,40.5c0.1,0,0.1,0,0.2,0
			c0.1,0,0.1,0,0.2-0.1c0,0,0.1-0.1,0.1-0.1c0,0,0-0.1,0-0.2c0-0.1,0-0.1,0-0.2c0,0-0.1-0.1-0.1-0.1c0,0-0.1,0-0.1-0.1
			c-0.1,0-0.1,0-0.2,0h-0.6v0.7H289.3z"/>
		<path class="st3" d="M290.5,40.5c0-0.1,0-0.3,0.1-0.4c0-0.1,0.1-0.2,0.2-0.3c0.1-0.1,0.2-0.2,0.3-0.2c0.1-0.1,0.2-0.1,0.4-0.1
			c0.1,0,0.3,0,0.4,0.1s0.2,0.1,0.3,0.2c0.1,0.1,0.1,0.2,0.2,0.3c0,0.1,0.1,0.3,0.1,0.4c0,0.1,0,0.3-0.1,0.4c0,0.1-0.1,0.2-0.2,0.3
			c-0.1,0.1-0.2,0.2-0.3,0.2c-0.1,0.1-0.2,0.1-0.4,0.1c-0.1,0-0.3,0-0.4-0.1c-0.1-0.1-0.2-0.1-0.3-0.2c-0.1-0.1-0.1-0.2-0.2-0.3
			C290.6,40.8,290.5,40.7,290.5,40.5z M291.4,41.4c0.1,0,0.2,0,0.3-0.1s0.2-0.1,0.2-0.2c0.1-0.1,0.1-0.2,0.1-0.3c0-0.1,0-0.2,0-0.3
			c0-0.1,0-0.3,0-0.4c0-0.1-0.1-0.2-0.1-0.3c-0.1-0.1-0.1-0.1-0.2-0.2c-0.1,0-0.2-0.1-0.3-0.1c-0.1,0-0.2,0-0.3,0.1
			c-0.1,0-0.2,0.1-0.2,0.2c-0.1,0.1-0.1,0.2-0.1,0.3c0,0.1,0,0.2,0,0.3c0,0.1,0,0.2,0,0.3c0,0.1,0.1,0.2,0.1,0.3
			c0.1,0.1,0.1,0.1,0.2,0.2C291.2,41.4,291.3,41.4,291.4,41.4z"/>
		<path class="st3" d="M293,40.9c0,0.1,0,0.2,0.1,0.2c0,0.1,0.1,0.1,0.1,0.1c0,0,0.1,0.1,0.2,0.1s0.1,0,0.2,0c0.1,0,0.2,0,0.2,0
			c0.1,0,0.1-0.1,0.2-0.1s0.1-0.1,0.1-0.1c0,0,0-0.1,0-0.2c0-0.1,0-0.1-0.1-0.2c0,0-0.1-0.1-0.1-0.1c-0.1,0-0.1-0.1-0.2-0.1
			c-0.1,0-0.1,0-0.2-0.1c-0.1,0-0.1,0-0.2-0.1c-0.1,0-0.1-0.1-0.2-0.1c-0.1,0-0.1-0.1-0.1-0.2c0-0.1-0.1-0.1-0.1-0.2
			c0-0.1,0-0.1,0-0.2c0-0.1,0.1-0.1,0.1-0.2c0.1,0,0.1-0.1,0.2-0.1c0.1,0,0.2,0,0.3,0c0.1,0,0.2,0,0.3,0s0.1,0.1,0.2,0.1
			c0.1,0.1,0.1,0.1,0.1,0.2c0,0.1,0,0.1,0,0.2H294c0-0.1,0-0.1,0-0.2c0-0.1-0.1-0.1-0.1-0.1c0,0-0.1-0.1-0.2-0.1c-0.1,0-0.1,0-0.2,0
			c-0.1,0-0.2,0-0.2,0c-0.1,0-0.1,0.1-0.2,0.1c0,0-0.1,0.1-0.1,0.1c0,0,0,0.1,0,0.1c0,0.1,0,0.1,0.1,0.1c0,0,0.1,0.1,0.1,0.1
			c0.1,0,0.1,0,0.2,0.1c0.1,0,0.1,0,0.2,0s0.1,0,0.2,0.1c0.1,0,0.1,0.1,0.2,0.1c0.1,0,0.1,0.1,0.1,0.2c0,0.1,0,0.1,0,0.2
			c0,0.2-0.1,0.3-0.2,0.4c-0.1,0.1-0.3,0.1-0.5,0.1c-0.1,0-0.2,0-0.3,0c-0.1,0-0.2-0.1-0.2-0.1c-0.1-0.1-0.1-0.1-0.1-0.2
			c0-0.1-0.1-0.2-0.1-0.3H293z"/>
	</g>
</g>
<g>
	<path d="M48.8,98.3c7.3,0,13.2-5.9,13.2-13.2c0-7.3-5.9-13.2-13.2-13.2h1.4c7.3,0,14.3,5.9,14.3,13.2c0,7.3-7,13.2-14.3,13.2"/>
	<path class="st4" d="M59.9,91.2c2.5-6.8-1-13.8-7.8-16.3c-6.8-2.5-14.4,0.4-16.9,7.2l0.5-1.3c2.5-6.8,10.1-10.3,16.9-7.8
		c6.8,2.5,10.3,10.1,7.8,16.9"/>
	<path class="st5" d="M59.3,82c-4-6.1-12.1-7.2-18.2-3.2c-6.1,4-7.8,11.6-3.8,17.7l-0.8-1.2c-4-6.1-2.3-14.2,3.8-18.2
		c6.1-4,14.2-2.3,18.2,3.8"/>
	<path class="st6" d="M41.3,79.6c-5.1,5.2-4.8,13.4,0.3,18.5c5.2,5.1,12.9,5.2,18.1,0.1l-1,1c-5.1,5.2-13.5,5.2-18.6,0
		c-5.2-5.1-5.8-14,0-18.6"/>
	<path d="M30.1,89.8h-1.6v-3.8H30c0.7,0,1.2,0.4,1.2,1.1c0,0.4-0.3,0.7-0.5,0.8c0.2,0.1,0.5,0.3,0.5,0.9
		C31.2,89.4,30.7,89.8,30.1,89.8 M29.9,86.6h-0.7v0.9h0.7c0.3,0,0.5-0.2,0.5-0.4C30.4,86.8,30.3,86.6,29.9,86.6 M30,88.2h-0.8v0.9
		H30c0.3,0,0.5-0.2,0.5-0.5S30.3,88.2,30,88.2"/>
	<path class="st7" d="M30.1,89.8h-1.6v-3.8H30c0.7,0,1.2,0.4,1.2,1.1c0,0.4-0.3,0.7-0.5,0.8c0.2,0.1,0.5,0.3,0.5,0.9
		C31.2,89.4,30.7,89.8,30.1,89.8z M29.9,86.6h-0.7v0.9h0.7c0.3,0,0.5-0.2,0.5-0.4C30.4,86.8,30.3,86.6,29.9,86.6z M30,88.2h-0.8v0.9
		H30c0.3,0,0.5-0.2,0.5-0.5S30.3,88.2,30,88.2z"/>
	<path d="M34.2,89.8l-0.2-0.7h-1.4l-0.2,0.7h-0.8l1.4-3.8h0.6l1.4,3.8H34.2z M33.3,87.1l-0.5,1.4h0.9L33.3,87.1z"/>
	<path class="st7" d="M34.2,89.8l-0.2-0.7h-1.4l-0.2,0.7h-0.8l1.4-3.8h0.6l1.4,3.8H34.2z M33.3,87.1l-0.5,1.4h0.9L33.3,87.1z"/>
	<path d="M38.7,89.8c-0.6,0-1-0.1-1.4-0.5l0.5-0.5c0.2,0.2,0.6,0.3,0.9,0.3c0.4,0,0.7-0.2,0.7-0.5c0-0.1,0-0.2-0.1-0.3
		c-0.1-0.1-0.2-0.1-0.3-0.1l-0.5-0.1c-0.3,0-0.6-0.1-0.7-0.3c-0.2-0.2-0.3-0.4-0.3-0.8c0-0.7,0.5-1.2,1.3-1.2c0.5,0,0.9,0.1,1.2,0.4
		l-0.5,0.5c-0.2-0.2-0.5-0.3-0.8-0.3c-0.4,0-0.6,0.2-0.6,0.5c0,0.1,0,0.2,0.1,0.3c0.1,0.1,0.2,0.1,0.4,0.2l0.5,0.1
		c0.3,0,0.6,0.1,0.7,0.3c0.2,0.2,0.3,0.5,0.3,0.8C40.1,89.4,39.5,89.8,38.7,89.8"/>
	<path class="st7" d="M38.7,89.8c-0.6,0-1-0.1-1.4-0.5l0.5-0.5c0.2,0.2,0.6,0.3,0.9,0.3c0.4,0,0.7-0.2,0.7-0.5c0-0.1,0-0.2-0.1-0.3
		c-0.1-0.1-0.2-0.1-0.3-0.1l-0.5-0.1c-0.3,0-0.6-0.1-0.7-0.3c-0.2-0.2-0.3-0.4-0.3-0.8c0-0.7,0.5-1.2,1.3-1.2c0.5,0,0.9,0.1,1.2,0.4
		l-0.5,0.5c-0.2-0.2-0.5-0.3-0.8-0.3c-0.4,0-0.6,0.2-0.6,0.5c0,0.1,0,0.2,0.1,0.3c0.1,0.1,0.2,0.1,0.4,0.2l0.5,0.1
		c0.3,0,0.6,0.1,0.7,0.3c0.2,0.2,0.3,0.5,0.3,0.8C40.1,89.4,39.5,89.8,38.7,89.8z"/>
	<path d="M36.1,89.8c-0.6,0-1-0.1-1.4-0.5l0.5-0.5c0.2,0.2,0.6,0.3,0.9,0.3c0.4,0,0.7-0.2,0.7-0.5c0-0.1,0-0.2-0.1-0.3
		c-0.1-0.1-0.2-0.1-0.3-0.1l-0.5-0.1c-0.3,0-0.6-0.1-0.7-0.3c-0.2-0.2-0.3-0.4-0.3-0.8c0-0.7,0.5-1.2,1.3-1.2c0.5,0,0.9,0.1,1.2,0.4
		l-0.5,0.5c-0.2-0.2-0.5-0.3-0.8-0.3c-0.4,0-0.6,0.2-0.6,0.5c0,0.1,0,0.2,0.1,0.3c0.1,0.1,0.2,0.1,0.4,0.2l0.5,0.1
		c0.3,0,0.6,0.1,0.7,0.3c0.2,0.2,0.3,0.5,0.3,0.8C37.5,89.4,36.9,89.8,36.1,89.8"/>
	<path class="st7" d="M36.1,89.8c-0.6,0-1-0.1-1.4-0.5l0.5-0.5c0.2,0.2,0.6,0.3,0.9,0.3c0.4,0,0.7-0.2,0.7-0.5c0-0.1,0-0.2-0.1-0.3
		c-0.1-0.1-0.2-0.1-0.3-0.1l-0.5-0.1c-0.3,0-0.6-0.1-0.7-0.3c-0.2-0.2-0.3-0.4-0.3-0.8c0-0.7,0.5-1.2,1.3-1.2c0.5,0,0.9,0.1,1.2,0.4
		l-0.5,0.5c-0.2-0.2-0.5-0.3-0.8-0.3c-0.4,0-0.6,0.2-0.6,0.5c0,0.1,0,0.2,0.1,0.3c0.1,0.1,0.2,0.1,0.4,0.2l0.5,0.1
		c0.3,0,0.6,0.1,0.7,0.3c0.2,0.2,0.3,0.5,0.3,0.8C37.5,89.4,36.9,89.8,36.1,89.8z"/>
	<polygon points="40.8,89.8 40.8,85.9 43.3,85.9 43.3,86.6 41.6,86.6 41.6,87.5 43.1,87.5 43.1,88.2 41.6,88.2 41.6,89.1 43.3,89.1 
		43.3,89.8 	"/>
	<polygon class="st7" points="40.8,89.8 40.8,85.9 43.3,85.9 43.3,86.6 41.6,86.6 41.6,87.5 43.1,87.5 43.1,88.2 41.6,88.2 
		41.6,89.1 43.3,89.1 43.3,89.8 	"/>
	<path d="M46.4,89.4c-0.3,0.3-0.6,0.4-1.1,0.4c-0.4,0-0.8-0.1-1-0.4c-0.2-0.2-0.3-0.4-0.3-0.6c0-0.2-0.1-0.5-0.1-0.9
		c0-0.4,0-0.7,0.1-1c0-0.2,0.1-0.4,0.3-0.6c0.3-0.3,0.6-0.4,1-0.4c0.9,0,1.3,0.6,1.4,1.2H46c-0.1-0.4-0.3-0.6-0.7-0.6
		c-0.2,0-0.4,0.1-0.5,0.2c-0.1,0.2-0.2,0.3-0.2,1.1c0,0.7,0,0.9,0.2,1.1c0.1,0.1,0.3,0.2,0.5,0.2c0.2,0,0.4-0.1,0.5-0.2
		c0.1-0.1,0.2-0.3,0.2-0.5v-0.1h-0.7v-0.6h1.4v0.6C46.8,88.7,46.7,89.1,46.4,89.4"/>
	<path class="st7" d="M46.4,89.4c-0.3,0.3-0.6,0.4-1.1,0.4c-0.4,0-0.8-0.1-1-0.4c-0.2-0.2-0.3-0.4-0.3-0.6c0-0.2-0.1-0.5-0.1-0.9
		c0-0.4,0-0.7,0.1-1c0-0.2,0.1-0.4,0.3-0.6c0.3-0.3,0.6-0.4,1-0.4c0.9,0,1.3,0.6,1.4,1.2H46c-0.1-0.4-0.3-0.6-0.7-0.6
		c-0.2,0-0.4,0.1-0.5,0.2c-0.1,0.2-0.2,0.3-0.2,1.1c0,0.7,0,0.9,0.2,1.1c0.1,0.1,0.3,0.2,0.5,0.2c0.2,0,0.4-0.1,0.5-0.2
		c0.1-0.1,0.2-0.3,0.2-0.5v-0.1h-0.7v-0.6h1.4v0.6C46.8,88.7,46.7,89.1,46.4,89.4z"/>
	<path d="M49.5,89.8l-0.7-1.5h-0.5v1.5h-0.7v-3.8H49c0.8,0,1.2,0.5,1.2,1.2c0,0.5-0.3,0.9-0.7,1l0.9,1.6H49.5z M48.9,86.6h-0.7v1
		h0.7c0.3,0,0.5-0.2,0.5-0.5C49.5,86.8,49.3,86.6,48.9,86.6"/>
	<path class="st7" d="M49.5,89.8l-0.7-1.5h-0.5v1.5h-0.7v-3.8H49c0.8,0,1.2,0.5,1.2,1.2c0,0.5-0.3,0.9-0.7,1l0.9,1.6H49.5z
		 M48.9,86.6h-0.7v1h0.7c0.3,0,0.5-0.2,0.5-0.5C49.5,86.8,49.3,86.6,48.9,86.6z"/>
	<path d="M53.2,89.8L53,89.1h-1.4l-0.2,0.7h-0.8l1.4-3.8h0.6l1.4,3.8H53.2z M52.3,87.1l-0.5,1.4h0.9L52.3,87.1z"/>
	<path class="st7" d="M53.2,89.8L53,89.1h-1.4l-0.2,0.7h-0.8l1.4-3.8h0.6l1.4,3.8H53.2z M52.3,87.1l-0.5,1.4h0.9L52.3,87.1z"/>
	<polygon points="55.2,86.6 55.2,87.5 56.7,87.5 56.7,88.2 55.2,88.2 55.2,89.8 54.4,89.8 54.4,85.9 56.9,85.9 56.9,86.6 	"/>
	<polygon class="st7" points="55.2,86.6 55.2,87.5 56.7,87.5 56.7,88.2 55.2,88.2 55.2,89.8 54.4,89.8 54.4,85.9 56.9,85.9 
		56.9,86.6 	"/>
	<rect x="57.5" y="87.9" width="1.7" height="0.6"/>
	<rect x="57.5" y="87.9" class="st7" width="1.7" height="0.6"/>
	<rect x="59.9" y="85.9" width="0.7" height="3.8"/>
	<rect x="59.9" y="85.9" class="st7" width="0.7" height="3.8"/>
	<polygon points="63.8,89.8 62.3,87.4 62.3,89.8 61.5,89.8 61.5,85.9 62.2,85.9 63.7,88.3 63.7,85.9 64.4,85.9 64.4,89.8 	"/>
	<polygon class="st7" points="63.8,89.8 62.3,87.4 62.3,89.8 61.5,89.8 61.5,85.9 62.2,85.9 63.7,88.3 63.7,85.9 64.4,85.9 
		64.4,89.8 	"/>
	<polygon points="67.6,89.8 66.6,88 66.1,88.6 66.1,89.8 65.3,89.8 65.3,85.9 66.1,85.9 66.1,87.6 67.4,85.9 68.3,85.9 67.1,87.5 
		68.4,89.8 	"/>
	<polygon class="st7" points="67.6,89.8 66.6,88 66.1,88.6 66.1,89.8 65.3,89.8 65.3,85.9 66.1,85.9 66.1,87.6 67.4,85.9 68.3,85.9 
		67.1,87.5 68.4,89.8 	"/>
	<path class="st8" d="M30.1,89.8h-1.6v-3.8H30c0.7,0,1.2,0.4,1.2,1.1c0,0.4-0.3,0.7-0.5,0.8c0.2,0.1,0.5,0.3,0.5,0.9
		C31.2,89.4,30.7,89.8,30.1,89.8 M29.9,86.6h-0.7v0.9h0.7c0.3,0,0.5-0.2,0.5-0.4C30.4,86.8,30.3,86.6,29.9,86.6 M30,88.2h-0.8v0.9
		H30c0.3,0,0.5-0.2,0.5-0.5S30.3,88.2,30,88.2"/>
	<path class="st8" d="M34.2,89.8l-0.2-0.7h-1.4l-0.2,0.7h-0.8l1.4-3.8h0.6l1.4,3.8H34.2z M33.3,87.1l-0.5,1.4h0.9L33.3,87.1z"/>
	<path class="st8" d="M38.7,89.8c-0.6,0-1-0.1-1.4-0.5l0.5-0.5c0.2,0.2,0.6,0.3,0.9,0.3c0.4,0,0.7-0.2,0.7-0.5c0-0.1,0-0.2-0.1-0.3
		c-0.1-0.1-0.2-0.1-0.3-0.1l-0.5-0.1c-0.3,0-0.6-0.1-0.7-0.3c-0.2-0.2-0.3-0.4-0.3-0.8c0-0.7,0.5-1.2,1.3-1.2c0.5,0,0.9,0.1,1.2,0.4
		l-0.5,0.5c-0.2-0.2-0.5-0.3-0.8-0.3c-0.4,0-0.6,0.2-0.6,0.5c0,0.1,0,0.2,0.1,0.3c0.1,0.1,0.2,0.1,0.4,0.2l0.5,0.1
		c0.3,0,0.6,0.1,0.7,0.3c0.2,0.2,0.3,0.5,0.3,0.8C40.1,89.4,39.5,89.8,38.7,89.8"/>
	<path class="st8" d="M36.1,89.8c-0.6,0-1-0.1-1.4-0.5l0.5-0.5c0.2,0.2,0.6,0.3,0.9,0.3c0.4,0,0.7-0.2,0.7-0.5c0-0.1,0-0.2-0.1-0.3
		c-0.1-0.1-0.2-0.1-0.3-0.1l-0.5-0.1c-0.3,0-0.6-0.1-0.7-0.3c-0.2-0.2-0.3-0.4-0.3-0.8c0-0.7,0.5-1.2,1.3-1.2c0.5,0,0.9,0.1,1.2,0.4
		l-0.5,0.5c-0.2-0.2-0.5-0.3-0.8-0.3c-0.4,0-0.6,0.2-0.6,0.5c0,0.1,0,0.2,0.1,0.3c0.1,0.1,0.2,0.1,0.4,0.2l0.5,0.1
		c0.3,0,0.6,0.1,0.7,0.3c0.2,0.2,0.3,0.5,0.3,0.8C37.5,89.4,36.9,89.8,36.1,89.8"/>
	<polygon class="st8" points="40.8,89.8 40.8,85.9 43.3,85.9 43.3,86.6 41.6,86.6 41.6,87.5 43.1,87.5 43.1,88.2 41.6,88.2 
		41.6,89.1 43.3,89.1 43.3,89.8 	"/>
	<path class="st8" d="M46.4,89.4c-0.3,0.3-0.6,0.4-1.1,0.4c-0.4,0-0.8-0.1-1-0.4c-0.2-0.2-0.3-0.4-0.3-0.6c0-0.2-0.1-0.5-0.1-0.9
		c0-0.4,0-0.7,0.1-1c0-0.2,0.1-0.4,0.3-0.6c0.3-0.3,0.6-0.4,1-0.4c0.9,0,1.3,0.6,1.4,1.2H46c-0.1-0.4-0.3-0.6-0.7-0.6
		c-0.2,0-0.4,0.1-0.5,0.2c-0.1,0.2-0.2,0.3-0.2,1.1c0,0.7,0,0.9,0.2,1.1c0.1,0.1,0.3,0.2,0.5,0.2c0.2,0,0.4-0.1,0.5-0.2
		c0.1-0.1,0.2-0.3,0.2-0.5v-0.1h-0.7v-0.6h1.4v0.6C46.8,88.7,46.7,89.1,46.4,89.4"/>
	<path class="st8" d="M49.5,89.8l-0.7-1.5h-0.5v1.5h-0.7v-3.8H49c0.8,0,1.2,0.5,1.2,1.2c0,0.5-0.3,0.9-0.7,1l0.9,1.6H49.5z
		 M48.9,86.6h-0.7v1h0.7c0.3,0,0.5-0.2,0.5-0.5C49.5,86.8,49.3,86.6,48.9,86.6"/>
	<path class="st8" d="M53.2,89.8L53,89.1h-1.4l-0.2,0.7h-0.8l1.4-3.8h0.6l1.4,3.8H53.2z M52.3,87.1l-0.5,1.4h0.9L52.3,87.1z"/>
	<polygon class="st8" points="55.2,86.6 55.2,87.5 56.7,87.5 56.7,88.2 55.2,88.2 55.2,89.8 54.4,89.8 54.4,85.9 56.9,85.9 
		56.9,86.6 	"/>
	<rect x="57.5" y="87.9" class="st8" width="1.7" height="0.6"/>
	<rect x="59.9" y="85.9" class="st5" width="0.7" height="3.8"/>
	<polygon class="st4" points="63.8,89.8 62.3,87.4 62.3,89.8 61.5,89.8 61.5,85.9 62.2,85.9 63.7,88.3 63.7,85.9 64.4,85.9 
		64.4,89.8 	"/>
	<polygon class="st6" points="67.6,89.8 66.6,88 66.1,88.6 66.1,89.8 65.3,89.8 65.3,85.9 66.1,85.9 66.1,87.6 67.4,85.9 68.3,85.9 
		67.1,87.5 68.4,89.8 	"/>
	<path d="M70.4,86.9l-0.2-0.5h-0.2v0.5h-0.2v-1.1h0.4c0.2,0,0.4,0.2,0.4,0.3c0,0.2-0.1,0.3-0.2,0.3l0.3,0.5H70.4z M70.3,86h-0.2v0.3
		h0.2c0.1,0,0.2-0.1,0.2-0.1C70.4,86.1,70.4,86,70.3,86"/>
	<path class="st9" d="M71.1,86.4c0,0.5-0.4,0.8-0.8,0.8c-0.5,0-0.8-0.4-0.8-0.8c0-0.5,0.4-0.8,0.8-0.8
		C70.7,85.5,71.1,85.9,71.1,86.4z"/>
</g>
<g>
	<path class="st3" d="M169.2,87.4c-0.6,0.6-1.1,1.1-1.7,1.6c-0.3,0.3-0.6,0.7-1,1c-0.3,0.2-0.7,0.2-1.1,0.1
		c-0.4-0.2-0.5-0.5-0.5-0.9c0-0.4,0-0.9,0-1.3c0-1,0-1.9,0-2.9c0-0.5,0.3-1,0.8-1.1c0.6-0.1,1.2,0.3,1.2,1c0,0.5,0,1,0,1.4
		c0,0.1,0,0.2,0,0.4c0.3-0.3,0.6-0.6,0.8-0.8c0.6-0.6,1.1-1.1,1.7-1.7c0.3-0.3,0.7-0.4,1.1-0.2c0.4,0.2,0.6,0.5,0.6,1
		c0,0.6,0,1.1,0.1,1.8c0.4-0.4,0.8-0.9,1.2-1.3c0.5-0.5,0.9-0.9,1.4-1.4c0.4-0.4,1.1-0.4,1.5,0.1c0.3,0.3,0.4,0.9-0.1,1.4
		c-0.5,0.5-1.1,1.1-1.6,1.6c-0.9,0.9-1.8,1.8-2.7,2.7c-0.4,0.4-0.8,0.5-1.3,0.2c-0.4-0.2-0.5-0.6-0.5-1
		C169.2,88.5,169.2,88,169.2,87.4z"/>
	<path class="st3" d="M137.8,79.6c0.8-0.1,1.6,0.2,2.4,0.6c0.4,0.2,0.6,0.8,0.5,1.2c-0.2,0.5-0.7,0.8-1.2,0.7
		c-0.1,0-0.3-0.1-0.4-0.2c-1-0.5-1.9-0.5-2.9,0c-1.3,0.6-1.9,1.7-1.8,3.1c0.1,2,1.9,3.3,3.8,3c0.5-0.1,1.1,0.3,1.2,0.8
		c0.1,0.6-0.2,1.1-0.8,1.2c-1.5,0.3-2.9-0.1-4.1-1c-1.6-1.3-2.3-3-2-5.1c0.2-1,0.6-2,1.3-2.7C134.8,80.1,136.1,79.6,137.8,79.6z"/>
	<path class="st3" d="M153.1,83.5c0.8,0,1.6,0,2.3,0c0.6,0,1,0.4,1,1c0,0.6-0.4,1-1,1c-0.7,0-1.3,0-2,0c-0.1,0-0.2,0-0.3,0
		c0,0.7,0,1.4,0,2.1c0,0.5,0.5,0.8,1,0.8c0.5-0.1,0.9-0.4,0.9-0.9c0-0.6,0.5-1,1.1-1c0.6,0,1,0.4,1,1.1c0,1.7-1.5,3.2-3.4,2.9
		c-1.4-0.2-2.5-1.4-2.6-2.9c0-1.9,0-3.8,0-5.7c0-0.6,0.5-1,1-1c0.6,0,1,0.4,1,1c0,0.3,0,0.6,0,0.9C153.1,82.9,153.1,83.2,153.1,83.5
		z"/>
	<path class="st3" d="M182.6,88c0,0.4,0,0.8,0,1.2c0,0.5-0.2,0.9-0.6,1.1c-0.4,0.2-0.8,0.1-1.1-0.2c0,0-0.2,0-0.3,0
		c-1,0.5-2.1,0.4-3.1-0.1c-1.3-0.7-2.1-2.2-1.7-3.7c0.2-1,0.8-1.8,1.7-2.3c1.1-0.6,2.3-0.6,3.4,0c1.2,0.7,1.7,1.8,1.7,3.1
		C182.6,87.4,182.6,87.7,182.6,88z M180.5,87c0-0.7-0.6-1.4-1.4-1.4c-0.8,0-1.4,0.7-1.5,1.4c0,0.7,0.6,1.4,1.4,1.4
		C179.8,88.4,180.5,87.7,180.5,87z"/>
	<path class="st3" d="M150.3,88c0,0.5,0,0.9,0,1.4c0,0.5-0.2,0.8-0.6,1c-0.4,0.2-0.7,0.1-1.1-0.1c-0.1-0.1-0.3-0.1-0.4,0
		c-1.1,0.5-2.7,0.3-3.6-0.6c-1-0.9-1.3-2-1.1-3.2c0.2-1,0.7-1.8,1.6-2.3c1.1-0.6,2.2-0.7,3.3-0.2c0.7,0.3,1.3,0.9,1.6,1.6
		C150.4,86.3,150.3,87.2,150.3,88z M146.9,85.6c-0.7,0-1.4,0.6-1.4,1.4c0,0.8,0.6,1.4,1.4,1.4c0.8,0,1.4-0.6,1.4-1.4
		C148.3,86.2,147.7,85.6,146.9,85.6z"/>
	<path class="st3" d="M191.7,88.5c0.7,0.1,1.2,0,1.7-0.4c0.4-0.3,1-0.4,1.3,0c0.4,0.4,0.4,1,0,1.4c-0.8,0.9-2.6,1.2-3.7,0.8
		c-0.9-0.4-1.6-0.9-2-1.8c-0.4-0.7-0.5-1.5-0.3-2.3c0.4-1.4,1.3-2.3,2.7-2.6c1.4-0.3,2.5,0.1,3.5,1.1c0.4,0.4,0.4,1.3-0.3,1.8
		c-0.7,0.5-1.5,1-2.3,1.5C192.2,88.1,192,88.3,191.7,88.5z M192.8,85.5c-1-0.4-2.2,0.3-2.2,1.4C191.4,86.4,192.1,86,192.8,85.5z"/>
	<path class="st3" d="M160.7,88.4c0.7,0.2,1.2,0,1.7-0.4c0.4-0.4,1-0.4,1.3,0c0.4,0.4,0.3,1-0.1,1.4c-1,0.9-2.6,1.2-3.8,0.6
		c-1-0.5-1.8-1.2-2-2.3c-0.1-0.5-0.2-1.2,0-1.7c0.5-2,2.6-3.1,4.5-2.5c0.6,0.2,1.1,0.4,1.5,0.9c0.6,0.6,0.5,1.6-0.2,2.1
		C162.7,87.2,161.7,87.8,160.7,88.4z M159.6,86.9c0.7-0.5,1.4-0.9,2.2-1.4C161,85.1,159.6,85.8,159.6,86.9z"/>
	<path class="st3" d="M140.6,85.9c-1,0-2,0-3,0c-0.5,0-0.9-0.3-1-0.7c-0.1-0.6,0.1-1.1,0.7-1.3c0.1,0,0.2,0,0.4,0c1.3,0,2.6,0,4,0
		c0.6,0,1.1,0.4,1.1,1c0,1.4,0,2.8,0,4.3c0,0.6-0.4,1-0.9,1c-0.6,0-1-0.3-1.1-0.9c0-0.4,0-0.9,0-1.3
		C140.6,87.3,140.6,86.6,140.6,85.9z"/>
	<path class="st3" d="M183.2,88c0-0.6,0-1.2,0.1-1.8c0.2-1.6,2.1-2.8,3.7-2.3c0.6,0.2,1.2,0.5,1.5,1c0.2,0.3,0.1,0.9-0.2,1.2
		c-0.3,0.3-0.8,0.4-1.2,0.2c-0.1-0.1-0.2-0.1-0.3-0.2c-0.3-0.3-0.7-0.3-1.1-0.2c-0.4,0.2-0.6,0.5-0.6,0.9c0,0.8,0,1.6,0,2.4
		c0,0.6-0.4,1.1-1,1.1c-0.6,0-1-0.4-1-1C183.2,88.9,183.2,88.5,183.2,88C183.2,88,183.2,88,183.2,88z"/>
	<path class="st3" d="M146,92.4c0.1-0.2,0.1-0.5,0.5-0.4c-0.1,0.6-0.2,1.1-0.3,1.7c-0.1,0.3-0.2,0.6-0.3,0.9c-0.2,0.5-0.6,0.7-1,0.7
		c-0.5,0-1,0-1.4-0.4c0.1-0.2,0.2-0.3,0.5-0.2c0.4,0.2,0.7,0.2,1.1,0.1c0.3-0.1,0.5-0.4,0.5-0.8c-0.1,0-0.2,0.1-0.4,0.1
		c-0.5,0.2-1.3,0-1.5-0.4c-0.3-0.5,0-1.4,0.5-1.7C144.9,91.8,145.5,91.9,146,92.4z M144.9,93.9c0.6,0,1-0.4,1-0.9
		c0-0.4-0.2-0.6-0.7-0.6c-0.6,0-1,0.4-1,0.9C144.1,93.7,144.3,93.9,144.9,93.9z"/>
	<path class="st3" d="M155.4,92c0.1,0,0.3,0,0.4,0c0,0.1,0,0.1,0,0.2c0,0,0,0,0,0c0.5-0.2,0.9-0.4,1.4-0.1c0.2,0.1,0.3,0.2,0.4,0.4
		c0.2,0.4,0.1,1.2-0.3,1.5c-0.3,0.4-1,0.6-1.4,0.4c-0.2-0.1-0.3-0.2-0.5-0.3c0,0.2,0,0.4-0.1,0.7c0,0.2-0.1,0.4-0.2,0.6
		c-0.1,0-0.3,0-0.4,0C154.9,94.2,155.2,93.1,155.4,92z M157.3,93.1c0-0.5-0.2-0.7-0.7-0.7c-0.6,0-0.9,0.4-1,1c0,0.4,0.3,0.7,0.7,0.7
		C156.8,94.1,157.3,93.6,157.3,93.1z"/>
	<path class="st3" d="M196.7,90c-0.6,0-1-0.4-1-1c0-0.6,0.4-1,1-1c0.5,0,1,0.5,1,1C197.7,89.5,197.3,90.1,196.7,90z"/>
	<path class="st3" d="M149.9,94.5c-0.7,0-1.1-0.4-1.1-1.1c0-0.9,0.7-1.4,1.5-1.4c0.7,0,1.2,0.4,1.2,1.1
		C151.4,93.9,150.7,94.5,149.9,94.5z M150.9,93.1c0-0.5-0.2-0.7-0.7-0.7c-0.6,0-1,0.4-1,1c0,0.4,0.3,0.7,0.7,0.7
		C150.5,94.1,150.9,93.7,150.9,93.1z"/>
	<path class="st3" d="M152.2,92c0.2,0,0.3,0,0.5,0c-0.1,0.4-0.2,0.8-0.2,1.2c-0.1,0.6,0,0.8,0.4,0.9c0.5,0.1,0.9-0.2,1-0.7
		c0.1-0.5,0.2-0.9,0.3-1.4c0.2,0,0.3,0,0.4,0c-0.2,0.8-0.3,1.6-0.5,2.5c-0.1,0-0.3,0-0.4,0c0-0.1,0-0.1,0-0.2
		c-0.1,0.1-0.2,0.1-0.3,0.1c-0.4,0.2-0.8,0.2-1.1-0.1c-0.3-0.2-0.3-0.6-0.3-1C152,92.9,152.1,92.4,152.2,92z"/>
	<path class="st3" d="M147.4,92c0.1,0,0.3,0,0.4,0c0,0.1,0,0.2,0,0.2c0.3-0.1,0.6-0.2,1-0.3c0,0.2-0.1,0.4-0.1,0.5
		c-0.8,0.1-0.9,0.2-1.1,1c-0.1,0.4-0.2,0.7-0.3,1.1c-0.1,0-0.3,0-0.4,0C147.1,93.6,147.2,92.8,147.4,92z"/>
</g>
<g>
	<path class="st10" d="M277.9,104.8L277.9,104.8C278,104.8,278,104.8,277.9,104.8C278,104.9,278,104.9,277.9,104.8l0,0.3
		c0,0.1,0,0.3,0,0.4s0,0.3,0,0.4c0,0,0,0,0,0c0,0,0,0,0,0c0,0,0,0,0-0.1c0,0,0-0.1,0-0.1l0,0c0-0.2,0-0.3,0-0.5
		C277.8,105.2,277.9,105,277.9,104.8C277.9,104.9,277.9,104.8,277.9,104.8C277.9,104.8,277.9,104.8,277.9,104.8L277.9,104.8z"/>
	<path class="st10" d="M279.4,105c0,0-0.1,0-0.1,0c0,0-0.1,0-0.1,0l0,0c-0.1,0-0.1,0.1-0.2,0.2c0,0.1-0.1,0.2-0.1,0.3
		c0,0.1,0,0.2,0,0.2c0,0.1,0.1,0.1,0.1,0.2s0.1,0.1,0.2,0.1c0.1,0,0.2,0,0.2-0.1c0.1,0,0.1-0.1,0.2-0.2c0-0.1,0.1-0.2,0.1-0.3
		c0-0.1,0-0.2,0-0.2s-0.1-0.1-0.1-0.2C279.5,105,279.5,105,279.4,105L279.4,105z M279.4,104.9c0.1,0,0.1,0,0.2,0.1
		c0.1,0,0.1,0.1,0.1,0.1c0,0,0.1,0.1,0.1,0.2c0,0.1,0,0.1,0,0.2c0,0.1,0,0.2-0.1,0.2c0,0.1-0.1,0.1-0.1,0.2c0,0.1-0.1,0.1-0.2,0.1
		c-0.1,0-0.1,0-0.2,0c-0.1,0-0.2,0-0.3-0.1c-0.1-0.1-0.1-0.1-0.2-0.2s0-0.2,0-0.3c0-0.1,0-0.2,0.1-0.3s0.1-0.2,0.2-0.2
		S279.3,104.9,279.4,104.9L279.4,104.9C279.3,104.9,279.4,104.9,279.4,104.9C279.4,104.9,279.4,104.9,279.4,104.9L279.4,104.9z"/>
	<path class="st10" d="M281.5,104.8C281.5,104.8,281.5,104.8,281.5,104.8C281.5,104.8,281.5,104.8,281.5,104.8
		c0.1,0.3,0.1,0.5,0.1,0.7c0,0.2,0,0.4,0,0.6c0,0,0,0,0,0c0,0,0,0,0,0c0,0,0,0,0,0c0,0,0,0,0,0l-0.2-0.3c-0.1-0.1-0.2-0.2-0.2-0.3
		s-0.2-0.2-0.2-0.3l0,0c0,0.1,0,0.2,0,0.3c0,0.1,0,0.2,0,0.3c0,0.1,0,0.2,0,0.3c0,0,0,0,0,0.1c0,0,0,0,0,0c0,0,0,0,0,0
		c0,0,0,0,0-0.1c0,0,0,0,0,0c0,0,0,0,0,0l0,0c0-0.1,0-0.2,0-0.3c0-0.1,0-0.2,0-0.3l0,0c0,0,0-0.1,0-0.1s0-0.1,0-0.1c0,0,0,0,0-0.1
		c0,0,0,0,0,0c0,0,0,0,0,0c0,0,0,0,0,0l0,0c0.1,0.1,0.2,0.3,0.3,0.4c0.1,0.1,0.2,0.3,0.4,0.4c0-0.1,0-0.3,0-0.4c0-0.2,0-0.3,0-0.5
		c0,0,0,0,0,0C281.4,104.9,281.4,104.9,281.5,104.8C281.4,104.8,281.4,104.8,281.5,104.8C281.5,104.8,281.5,104.8,281.5,104.8
		L281.5,104.8z"/>
	<path class="st10" d="M282.4,104.8C282.5,104.8,282.5,104.8,282.4,104.8C282.5,104.9,282.5,104.9,282.4,104.8c0.1,0,0.1,0,0.2,0
		c0,0,0.1,0,0.1,0l0.2,0c0,0,0,0,0,0c0,0,0,0,0.1,0c0,0,0,0,0,0c0,0,0,0,0,0c0,0,0,0,0,0c0,0,0,0-0.1,0l-0.1,0c-0.1,0-0.1,0-0.2,0
		c0,0-0.1,0-0.2,0l0,0c0,0,0,0,0,0c0,0,0,0,0,0c0,0,0,0.1,0,0.1c0,0,0,0.1,0,0.1c0,0,0,0,0,0c0,0,0,0,0,0c0.1,0,0.1,0,0.2,0
		c0.1,0,0.1,0,0.2-0.1l0,0c0,0,0,0,0,0c0,0,0,0,0,0c0,0,0,0,0,0s0,0,0,0c0,0,0,0,0,0c0,0,0,0-0.1,0c0,0,0,0-0.1,0c0,0,0,0-0.1,0
		c0,0,0,0-0.1,0l-0.1,0l0,0c0,0,0,0,0,0c0,0,0,0,0,0c0,0.1,0,0.2,0,0.3c0,0.1,0,0.2,0,0.3c0,0,0,0,0,0c0,0,0,0,0,0l0,0
		c0,0,0.1,0,0.1,0c0,0,0.1,0,0.1,0l0.3-0.1c0,0,0,0,0,0c0,0,0,0,0,0c0,0,0,0,0,0c0,0,0,0,0,0c0,0,0,0,0,0c0,0,0,0-0.1,0l0,0
		c0,0-0.1,0-0.1,0s-0.1,0-0.1,0l-0.2,0.1c0,0,0,0,0,0c0,0,0,0,0,0c0,0,0,0-0.1,0c0,0,0,0,0,0l0,0c0,0,0,0,0,0c0,0,0,0,0,0
		c0-0.2,0-0.3-0.1-0.5C282.4,105.3,282.4,105.1,282.4,104.8C282.4,104.9,282.4,104.9,282.4,104.8
		C282.4,104.8,282.4,104.8,282.4,104.8L282.4,104.8z"/>
	<path class="st3" d="M292.5,88.2h-0.2h-7.4h-0.2h-4.5h-4.5h-0.2h-7.4H268h-4.6l2,5.4l0,0.1l0,0.1l2.8,4.6l0.1,0.1l0.1,0l5.7,2.8
		l6.2,1.5l6.2-1.5l5.7-2.8l0.1,0l0.1-0.1l2.8-4.6l0-0.1l0-0.1l2-5.4H292.5z M292.2,88.5l-2.9,5.7l-4.1-5.7H292.2z M284.9,88.6
		l4.1,5.8h-8.5L284.9,88.6z M289,94.7l-4.4,5l-4-5H289z M280.2,88.5h4.3l-4.3,5.8l-4.3-5.8H280.2z M275.6,88.6l4.3,5.8h-8.5
		L275.6,88.6z M279.9,94.7l-4,5l-4.4-5H279.9z M275.3,88.5l-4.1,5.7l-2.9-5.7H275.3z M263.8,88.5h4l-2.3,4.8L263.8,88.5z
		 M268.1,88.7l2.8,5.6l-5.2-0.8L268.1,88.7z M265.8,93.8l5.1,0.8l0,0l0,0l-2.4,3.5L265.8,93.8z M271.2,94.8l4.4,4.9l-6.9-1.3
		L271.2,94.8z M269.6,98.8l6,1.2l-1.5,1.1L269.6,98.8z M274.5,101.1l1.5-1.1l3.4,2.2L274.5,101.1z M276.5,100h3.7v-0.3h-3.9l3.9-4.9
		l3.9,4.9h-3.9v0.3h3.7l-3.7,2.5L276.5,100z M281.1,102.3l3.4-2.2l1.5,1.1L281.1,102.3z M286.4,101l-1.5-1.1l6-1.2L286.4,101z
		 M284.9,99.7l4.4-4.9l2.5,3.5L284.9,99.7z M292,98.1l-2.4-3.5l0,0l0,0l5.1-0.8L292,98.1z M289.6,94.3l2.8-5.6l2.3,4.8L289.6,94.3z
		 M295,93.2l-2.3-4.8h4L295,93.2z"/>
	<path class="st3" d="M263.4,88.2l4.1-5.5l2.1-0.8l0.8,0l1.2-1.7l1.2,1.4l0.3-0.9l0.6,0.2l0.2,0.4v-0.4c0,0,1.1-2.2,1.1-2.7l0.7-0.8
		L276,79l0.7,0.5l0.6-2.1l1.4-1L279,76l0.8,0.3l0.4,0.9l0.2,0.1l0.9,2.8h1.7l1.1-0.6l0.8,0.6l1.4,0.4c0.1,0,0.3,0.1,0.4,0.2l1.3,1
		c0,0,0.1,0.1,0.1,0.1l0.5,0.8l2.5,0.1l1-1l1,1.1l4,5.5h-0.5l-1.6-2.3l-1-0.4l-1.7-1.7l-0.2-1.8c0,0-0.8,0.9-0.8,0.9
		c0,0-0.5,0-0.5,0l-2,0.6c-0.1,0-0.1,0-0.2,0l-1.1-0.5l-0.9-2.1c0-0.1-0.1-0.2-0.2-0.2l-1.5-0.4l0.1,2.8l-1.1-0.7l-0.7-2h-2
		l-0.9-2.9c0,0,0,0,0,0l-0.2-0.1l-0.4-0.8l-0.4-0.2c-0.1,0-0.1,0-0.2,0.1l-0.1,0.2l-0.2,0.1l-0.3,1.1l0.3,0.4l0.3-0.7l0.6,2.6
		l-1.6,0.5l-0.4,1.3l-0.8-1.9l-1.1-0.8l-0.2-1l-0.2,1.3l0.8,0.6l0.3,4.4l-2.1-1.6l-0.1-0.5c0-0.1,0-0.2-0.1-0.2l-0.7-1l-0.3-0.1
		l-0.3,0.9l-0.1,2.4l-1.2-2.5l-0.1-1.1l-1,1.3l-0.2,1.6l-2.8,2l-2,0.3l-1.7,2.3H263.4z"/>
	<polygon class="st3" points="269.7,85.5 269.9,84.6 271.5,83.9 270.7,85 	"/>
	<path class="st3" d="M277.8,84.9l0.6-3.7l0.9-0.2l0.1,0.9c0,0.2,0.1,0.4,0.2,0.5l0.3,0.4l-0.8,1.3L277.8,84.9z"/>
	<polygon class="st3" points="279.2,77 279.7,77.5 280.6,81.5 279.8,80.2 	"/>
	<polygon class="st3" points="280.5,79.5 281.3,81.3 281.8,81.4 281.9,83.1 281.2,82.3 280.4,79.5 	"/>
	<path class="st3" d="M280.7,83l1.2,0.7h1.5l3.5,1.6l-0.1,0.1l-3.5-1.2h-1.7l-0.8-0.5l-0.6,0.5c0,0,0,0-0.1,0.1l-1.8,1.2l0-0.1
		l1.5-1.2c0,0,0.1-0.1,0.1-0.1L280.7,83z"/>
	<polygon class="st3" points="286.1,84.3 287.9,83.8 289.5,84.3 291.3,83.9 294.2,86.2 294.1,86.3 291.3,84.3 289.2,84.7 
		287.7,84.3 	"/>
	<polygon class="st3" points="290.9,86.7 292.8,87.7 294.7,88 290.8,85.6 287.7,86.3 285.8,88.2 288.5,87.1 290.5,87.1 	"/>
	<path class="st3" d="M284.6,87.3c0,0,1.4-0.9,1.4-0.9s1.2-0.4,1.2-0.4h-1.6l-0.8,0.5l-0.9-0.5l-2.2-0.4l2,0.9L284.6,87.3z"/>
	<polygon class="st3" points="282.8,87 279.9,85.9 273.9,87.3 272,86.8 268.9,88.2 269.2,88.2 271.9,87.3 274.2,87.9 279.8,86.5 	
		"/>
	<polygon class="st3" points="264.9,87.7 267.4,86.7 269.7,86.5 272.4,85.1 273.7,85.6 275.5,84.5 276.8,85.4 275.6,85.1 
		273.5,86.2 272.3,85.8 269.7,87 267.3,87.1 	"/>
	<path class="st10" d="M264.2,95.4C264.2,95.4,264.2,95.4,264.2,95.4C264.2,95.4,264.2,95.4,264.2,95.4c0,0.1,0.1,0.2,0.1,0.3
		c0,0.1,0.1,0.1,0.1,0.2c0,0,0,0,0,0c0,0,0,0,0,0l0,0c0,0,0,0,0,0c0,0,0,0,0,0c0,0,0,0,0,0c0,0,0,0,0,0c0,0,0,0,0,0c0,0,0,0,0,0l0,0
		c0-0.1-0.1-0.1-0.1-0.2c0-0.1-0.1-0.1-0.1-0.2l0,0c0,0,0,0,0,0c0,0,0,0,0,0c0,0,0,0-0.1,0c0,0,0,0-0.1,0c0,0,0,0,0,0c0,0,0,0,0,0
		l0,0c0,0,0,0,0,0c0,0,0,0,0,0c0,0,0,0,0,0c0,0,0,0,0,0c0,0,0,0.1,0.1,0.1c0,0,0,0.1,0.1,0.1l0.1,0.1c0,0,0,0,0,0c0,0,0,0,0,0
		c0,0,0,0,0,0c0,0,0,0,0,0c0,0,0,0-0.1,0c0,0,0-0.1-0.1-0.1c0,0,0-0.1-0.1-0.1l-0.1-0.1c0,0,0,0,0,0c0,0,0,0,0,0
		c-0.1,0-0.2,0.1-0.3,0.1c-0.1,0.1-0.2,0.1-0.3,0.2c0,0,0,0,0,0c0,0,0,0,0,0c0,0,0,0,0-0.1c0,0,0,0,0.1,0l0,0
		c0.1-0.1,0.2-0.1,0.3-0.2c0.1-0.1,0.2-0.1,0.3-0.2c0,0,0.1,0,0.1-0.1C264,95.4,264.1,95.4,264.2,95.4
		C264.1,95.3,264.1,95.3,264.2,95.4C264.2,95.3,264.2,95.3,264.2,95.4L264.2,95.4z"/>
	<path class="st10" d="M265.1,97.1C265,97.1,265,97,265.1,97.1c-0.1-0.1-0.1-0.1-0.2-0.1l0,0c-0.1,0-0.1,0-0.2,0
		c-0.1,0-0.2,0-0.3,0.1c-0.1,0-0.1,0.1-0.2,0.2c0,0.1-0.1,0.1-0.1,0.2c0,0.1,0,0.1,0.1,0.2c0,0.1,0.1,0.1,0.2,0.2s0.2,0,0.2,0
		c0.1,0,0.2,0,0.3-0.1c0.1,0,0.1-0.1,0.2-0.2c0-0.1,0.1-0.1,0.1-0.2C265.1,97.2,265.1,97.2,265.1,97.1L265.1,97.1z M265.1,97
		c0,0.1,0.1,0.1,0.1,0.2c0,0.1,0,0.1,0,0.2c0,0.1,0,0.1-0.1,0.2c0,0.1-0.1,0.1-0.2,0.2c-0.1,0-0.1,0.1-0.2,0.1c-0.1,0-0.1,0-0.2,0
		c-0.1,0-0.1,0-0.2-0.1c-0.1,0-0.1-0.1-0.2-0.2c-0.1-0.1-0.1-0.2-0.1-0.3c0-0.1,0-0.2,0.1-0.2c0-0.1,0.1-0.1,0.2-0.2
		c0.1-0.1,0.2-0.1,0.3-0.1c0.1,0,0.2,0,0.3,0C265,96.9,265.1,96.9,265.1,97L265.1,97C265.1,97,265.1,97,265.1,97
		C265.1,97,265.1,97,265.1,97L265.1,97z"/>
	<path class="st10" d="M265.9,98.1C265.9,98.1,265.9,98.2,265.9,98.1C265.9,98.2,265.9,98.2,265.9,98.1c-0.1,0.2-0.3,0.3-0.4,0.4
		c-0.1,0.1-0.2,0.2-0.3,0.3l0,0c0,0,0,0,0,0c0,0,0,0,0,0c0,0,0,0.1,0.1,0.1c0,0,0.1,0.1,0.1,0.1l0.2,0.2c0,0,0,0,0,0c0,0,0,0,0,0
		c0,0,0,0,0,0c0,0,0,0,0,0c0,0,0,0-0.1,0c0,0,0,0,0,0l-0.1-0.1c0,0-0.1-0.1-0.1-0.1c0,0-0.1-0.1-0.1-0.1l0,0c0,0,0,0,0,0
		c0,0,0,0,0,0c0,0,0,0,0,0c0,0,0,0,0,0l0,0c0,0,0,0,0,0c0,0,0,0,0,0l0,0c0.1-0.1,0.3-0.2,0.4-0.3C265.6,98.4,265.7,98.2,265.9,98.1
		C265.8,98.1,265.9,98.1,265.9,98.1C265.9,98.1,265.9,98.1,265.9,98.1L265.9,98.1z"/>
	<path class="st10" d="M266.9,99.3C266.9,99.3,266.9,99.3,266.9,99.3C266.9,99.3,266.9,99.3,266.9,99.3c-0.1,0.2-0.2,0.3-0.3,0.4
		s-0.2,0.2-0.3,0.3l0,0c0,0,0,0,0,0c0,0,0,0,0,0c0,0,0.1,0,0.1,0.1c0,0,0.1,0.1,0.1,0.1l0.2,0.2c0,0,0,0,0,0c0,0,0,0,0,0
		c0,0,0,0,0,0c0,0,0,0,0,0c0,0,0,0-0.1,0c0,0,0,0,0,0l-0.1-0.1c0,0-0.1-0.1-0.1-0.1c0,0-0.1-0.1-0.1-0.1l0,0c0,0,0,0,0,0
		c0,0,0,0,0,0c0,0,0,0,0,0c0,0,0,0,0,0l0,0c0,0,0,0,0,0s0,0,0,0l0,0c0.1-0.1,0.2-0.2,0.3-0.4C266.5,99.5,266.7,99.4,266.9,99.3
		C266.8,99.3,266.8,99.2,266.9,99.3C266.8,99.2,266.9,99.2,266.9,99.3L266.9,99.3z"/>
	<path class="st10" d="M268.2,100.7c0,0-0.1,0-0.1-0.1c0,0-0.1,0-0.1,0l0,0c-0.1,0-0.2,0-0.2,0c-0.1,0-0.2,0.1-0.2,0.2
		c-0.1,0.1-0.1,0.1-0.1,0.2s0,0.1,0,0.2c0,0.1,0.1,0.1,0.1,0.2c0.1,0.1,0.1,0.1,0.2,0.1c0.1,0,0.2,0,0.2,0c0.1,0,0.2-0.1,0.2-0.2
		c0.1-0.1,0.1-0.1,0.1-0.2c0-0.1,0-0.1,0-0.2C268.3,100.8,268.3,100.7,268.2,100.7L268.2,100.7z M268.3,100.6
		c0.1,0.1,0.1,0.1,0.1,0.2c0,0.1,0,0.1,0,0.2c0,0.1,0,0.1,0,0.2c0,0.1-0.1,0.1-0.1,0.2c-0.1,0.1-0.1,0.1-0.2,0.2s-0.1,0.1-0.2,0.1
		c-0.1,0-0.1,0-0.2,0c-0.1,0-0.1-0.1-0.2-0.1c-0.1-0.1-0.1-0.1-0.1-0.2c0-0.1,0-0.2,0-0.3c0-0.1,0.1-0.2,0.1-0.2
		c0.1-0.1,0.2-0.2,0.3-0.2c0.1,0,0.2,0,0.3,0S268.2,100.5,268.3,100.6L268.3,100.6C268.3,100.6,268.3,100.6,268.3,100.6
		C268.3,100.6,268.3,100.6,268.3,100.6L268.3,100.6z"/>
	<path class="st10" d="M270.1,102C270.1,102,270.1,102,270.1,102C270.1,102,270.1,102,270.1,102l-0.2,0.3c-0.1,0.1-0.1,0.2-0.2,0.3
		c-0.1,0.1-0.1,0.2-0.2,0.3c0,0,0,0,0,0c0,0,0,0,0,0l0,0c0,0,0,0,0,0c0,0,0,0,0,0c0,0,0,0,0-0.1c0,0,0-0.1,0-0.1l0-0.4l0,0l0-0.3
		l0,0l0,0c0,0,0,0,0,0c0,0,0,0,0,0c0,0,0,0,0,0s0,0,0,0l-0.2,0.1c-0.1,0-0.1,0.1-0.2,0.1c-0.1,0-0.1,0.1-0.2,0.1l0,0l0,0
		c0,0,0,0-0.1,0c0,0,0,0-0.1,0c0,0,0,0,0,0c0,0,0,0,0-0.1c0,0,0,0,0,0s0,0,0,0l0,0c0.1-0.1,0.1-0.2,0.2-0.3c0.1-0.1,0.1-0.2,0.2-0.3
		c0,0,0-0.1,0.1-0.1c0,0,0-0.1,0.1-0.1c0,0,0,0,0,0s0,0,0,0c0,0,0,0,0,0c0,0,0,0,0,0c0,0,0,0,0,0l0,0c-0.1,0.1-0.1,0.2-0.2,0.3
		c-0.1,0.1-0.1,0.2-0.2,0.3l0,0c0.1-0.1,0.2-0.1,0.3-0.2c0.1-0.1,0.2-0.1,0.3-0.2l0,0c0,0,0,0,0,0c0,0,0,0,0,0c0,0,0,0,0,0
		c0,0,0,0,0,0l0,0c0,0,0,0,0,0s0,0,0-0.1c0,0,0,0,0,0s0,0,0,0c0,0,0,0,0,0s0,0,0,0c0,0,0,0,0,0c0,0,0,0,0,0c0,0,0,0,0,0s0,0,0,0
		c0,0,0,0,0,0c0,0,0,0,0,0c0,0,0,0,0,0c0,0,0,0,0,0l0,0.3c0,0.1,0,0.1,0,0.2c0,0.1,0,0.1,0,0.2c0,0,0,0,0,0c0,0,0,0,0,0
		c0.1-0.1,0.1-0.2,0.2-0.3C269.8,102.2,269.9,102.1,270.1,102C270,102,270,101.9,270.1,102C270,101.9,270,101.9,270.1,102L270.1,102
		z"/>
	<path class="st10" d="M270.9,102.4L270.9,102.4C270.9,102.5,270.9,102.5,270.9,102.4C270.9,102.5,270.9,102.5,270.9,102.4l-0.1,0.3
		c-0.1,0.1-0.1,0.3-0.2,0.4c-0.1,0.1-0.1,0.2-0.2,0.4c0,0,0,0,0,0c0,0,0,0,0,0c0,0,0,0,0-0.1c0,0,0-0.1,0-0.1l0,0
		c0.1-0.1,0.1-0.3,0.2-0.4C270.6,102.8,270.7,102.6,270.9,102.4C270.8,102.5,270.8,102.5,270.9,102.4
		C270.8,102.4,270.8,102.4,270.9,102.4L270.9,102.4z"/>
	<path class="st10" d="M272.4,103.1C272.5,103.1,272.5,103.1,272.4,103.1c0,0.1,0,0.1,0,0.1c-0.1,0.2-0.2,0.3-0.2,0.5
		c-0.1,0.2-0.2,0.3-0.2,0.5c0,0,0,0,0,0c0,0,0,0,0,0c0,0,0,0,0,0c0,0,0,0,0,0l-0.1-0.3c0-0.1-0.1-0.2-0.1-0.4c0-0.1-0.1-0.2-0.1-0.4
		l0,0c0,0.1-0.1,0.2-0.1,0.3c0,0.1-0.1,0.2-0.1,0.2c0,0.1-0.1,0.2-0.1,0.3c0,0,0,0,0,0c0,0,0,0,0,0c0,0,0,0,0,0c0,0,0,0,0-0.1
		c0,0,0,0,0,0c0,0,0,0,0,0l0,0c0-0.1,0.1-0.2,0.1-0.3c0-0.1,0.1-0.2,0.1-0.3l0,0c0,0,0-0.1,0-0.1c0,0,0-0.1,0-0.1c0,0,0,0,0,0
		c0,0,0,0,0,0c0,0,0,0,0,0c0,0,0,0,0,0l0,0c0,0.2,0.1,0.3,0.1,0.5c0,0.2,0.1,0.4,0.1,0.5c0.1-0.1,0.1-0.3,0.2-0.4
		c0.1-0.1,0.1-0.3,0.2-0.5c0,0,0,0,0,0C272.3,103.2,272.4,103.2,272.4,103.1C272.4,103.1,272.4,103.1,272.4,103.1
		C272.4,103.1,272.4,103.1,272.4,103.1L272.4,103.1z"/>
	<path class="st10" d="M273.7,103.8c0,0,0.1,0,0.1,0.1c0,0,0.1,0.1,0.1,0.1c0,0,0,0.1,0,0.1c0,0,0,0,0,0c0,0,0,0,0,0c0,0,0,0,0,0
		c0,0,0,0,0,0c0,0,0,0,0,0c0,0,0,0,0,0c0,0,0-0.1-0.1-0.1C273.7,103.9,273.7,103.9,273.7,103.8c-0.1,0.1-0.2,0.1-0.3,0.1
		c-0.1,0-0.1,0.1-0.2,0.1c-0.1,0.1-0.1,0.1-0.2,0.2c0,0.1,0,0.1,0,0.2c0,0.1,0,0.1,0.1,0.2c0,0.1,0.1,0.1,0.2,0.1c0.1,0,0.1,0,0.2,0
		c0.1,0,0.1,0,0.2,0l0,0l0,0c0,0,0,0,0,0s0,0,0,0v0c0,0,0-0.1,0-0.1s0-0.1,0-0.1l0,0c0,0,0,0,0,0c0,0,0,0,0,0c0,0,0,0,0,0
		c0,0,0,0,0,0c0,0,0,0,0,0c0,0,0,0,0.1,0c0,0,0,0,0,0c0,0,0,0,0,0.1c0,0,0,0,0,0c0,0,0,0,0,0l0,0c0,0.1-0.1,0.2-0.1,0.3
		c0,0.1-0.1,0.2-0.1,0.3c0,0,0,0,0,0s0,0,0,0c0,0,0,0,0,0c0,0,0-0.1,0-0.1c0,0,0-0.1,0-0.1l0-0.1c0,0-0.1,0-0.2,0
		c-0.1,0-0.1,0-0.2,0c-0.1,0-0.2-0.1-0.2-0.2c0-0.1-0.1-0.2-0.1-0.2c0-0.1,0-0.2,0-0.3c0-0.1,0.1-0.2,0.1-0.2c0-0.1,0.1-0.1,0.2-0.1
		c0.1,0,0.1-0.1,0.2-0.1C273.5,103.7,273.6,103.7,273.7,103.8L273.7,103.8z"/>
	<path class="st10" d="M276.6,104.7c0,0-0.1,0-0.1,0c0,0-0.1,0-0.1,0c0,0-0.1,0-0.1,0c0,0,0,0.1,0,0.1c0,0.1,0,0.1,0,0.2
		c0,0.1,0,0.1,0,0.2c0,0,0,0.1,0,0.1c0,0,0,0,0,0c0,0,0,0,0,0l0.1,0c0.1,0,0.2,0,0.3,0c0.1,0,0.2,0,0.2-0.1c0.1,0,0.1-0.1,0.1-0.2
		c0-0.1,0-0.1-0.1-0.2C276.8,104.8,276.7,104.7,276.6,104.7L276.6,104.7z M276.3,104.5L276.3,104.5
		C276.3,104.5,276.3,104.5,276.3,104.5C276.3,104.6,276.3,104.6,276.3,104.5C276.3,104.6,276.3,104.6,276.3,104.5L276.3,104.5
		L276.3,104.5c0.1,0.1,0.2,0.1,0.2,0.1c0.1,0,0.1,0,0.2,0c0.1,0,0.1,0,0.2,0.1c0.1,0,0.1,0.1,0.1,0.1c0,0.1,0,0.1,0,0.2
		c0,0.1-0.1,0.2-0.1,0.2c-0.1,0.1-0.1,0.1-0.2,0.1c-0.1,0-0.2,0-0.3,0l-0.1,0c0,0-0.1,0-0.1,0c0,0-0.1,0-0.1,0c0,0,0,0,0,0
		c0,0,0,0,0,0c0,0.1,0,0.1,0,0.2c0,0.1,0,0.1,0,0.2l0,0.1c0,0,0,0,0,0s0,0,0,0c0,0,0,0,0,0c0,0,0,0,0-0.1l0,0c0-0.2,0.1-0.4,0.1-0.5
		c0-0.2,0.1-0.4,0.1-0.5c0,0,0,0,0-0.1C276.2,104.6,276.2,104.6,276.3,104.5C276.2,104.6,276.2,104.6,276.3,104.5
		C276.2,104.5,276.2,104.5,276.3,104.5L276.3,104.5z"/>
	<path class="st10" d="M284,104.6C284,104.6,284,104.6,284,104.6C284,104.6,284,104.6,284,104.6c0.1,0,0.1,0,0.2,0c0,0,0.1,0,0.1,0
		l0.2-0.1c0,0,0,0,0,0c0,0,0,0,0.1,0c0,0,0,0,0,0c0,0,0,0,0,0c0,0,0,0,0,0c0,0,0,0,0,0l-0.1,0c0,0-0.1,0-0.1,0s-0.1,0-0.2,0.1l0,0
		c0,0,0,0,0,0c0,0,0,0,0,0c0,0,0,0.1,0,0.1c0,0,0,0.1,0,0.1c0,0,0,0,0,0c0,0,0,0,0,0c0.1,0,0.1,0,0.2-0.1c0.1,0,0.1,0,0.2-0.1l0,0
		c0,0,0,0,0,0c0,0,0,0,0,0c0,0,0,0,0,0c0,0,0,0,0,0c0,0,0,0,0,0c0,0,0,0-0.1,0c0,0,0,0-0.1,0c0,0,0,0-0.1,0c0,0,0,0-0.1,0l-0.1,0
		l0,0c0,0,0,0,0,0c0,0,0,0,0,0c0,0.1,0,0.2,0.1,0.3c0,0.1,0,0.2,0.1,0.3c0,0,0,0,0,0c0,0,0,0,0,0l0,0c0,0,0.1,0,0.1,0
		c0,0,0.1,0,0.1,0l0.3-0.1c0,0,0,0,0,0c0,0,0,0,0,0c0,0,0,0,0,0c0,0,0,0,0,0c0,0,0,0,0,0c0,0,0,0-0.1,0l0,0c0,0-0.1,0-0.1,0
		c0,0-0.1,0-0.1,0l-0.2,0.1c0,0,0,0,0,0c0,0,0,0,0,0c0,0,0,0-0.1,0c0,0,0,0,0,0l0,0c0,0,0,0,0,0c0,0,0,0,0,0c0-0.2-0.1-0.3-0.1-0.5
		C284,105,284,104.8,284,104.6C283.9,104.7,283.9,104.6,284,104.6C283.9,104.6,283.9,104.6,284,104.6L284,104.6z"/>
	<path class="st10" d="M285.9,104.2c-0.1,0-0.1,0-0.2,0.1c-0.1,0-0.1,0.1-0.1,0.1l0.1,0.2c0,0.1,0,0.1,0.1,0.2c0,0.1,0,0.1,0.1,0.2
		c0,0,0,0,0,0c0,0,0,0,0,0c0,0,0,0,0,0l0,0l0,0c0,0,0.1,0,0.1-0.1c0.1,0,0.1,0,0.1-0.1c0.1,0,0.1-0.1,0.2-0.2c0-0.1,0-0.2,0-0.2
		c0-0.1-0.1-0.1-0.1-0.2C286.1,104.2,286,104.2,285.9,104.2L285.9,104.2z M285.5,104.2L285.5,104.2
		C285.5,104.2,285.5,104.2,285.5,104.2C285.5,104.3,285.5,104.3,285.5,104.2l0.1,0c0,0,0.1-0.1,0.1-0.1c0,0,0.1,0,0.2-0.1
		c0.1,0,0.2,0,0.3,0c0.1,0,0.2,0.1,0.2,0.2c0,0.1,0,0.1,0,0.2c0,0.1,0,0.1-0.1,0.1c0,0-0.1,0.1-0.1,0.1c0,0,0,0,0,0c0,0,0,0,0,0
		c0,0,0,0,0,0c0,0,0,0,0,0l0,0l0.1,0.1c0,0,0,0,0.1,0c0,0,0,0,0.1,0l0,0c0,0,0,0,0,0c0,0,0,0,0,0c0,0,0,0,0,0c0,0,0,0,0,0
		c0,0,0,0,0,0c0,0,0,0,0,0l0,0c0,0-0.1,0-0.1-0.1c0,0-0.1,0-0.1-0.1c0,0,0,0-0.1,0l0,0c0,0,0,0,0,0s0,0,0,0c0,0,0,0,0,0c0,0,0,0,0,0
		l0,0c0,0,0,0,0,0c0,0,0,0,0,0l-0.1,0l0,0c0,0-0.1,0-0.1,0c0,0-0.1,0-0.1,0.1c0,0,0,0,0,0c0,0,0,0,0,0c0,0.1,0,0.1,0.1,0.2
		c0,0.1,0,0.1,0.1,0.2c0,0,0,0,0,0c0,0,0,0,0,0c0,0,0,0-0.1,0c0,0,0-0.1,0-0.1c0,0,0-0.1,0-0.1l0-0.1l-0.1-0.3
		c0-0.1-0.1-0.2-0.1-0.3C285.5,104.5,285.5,104.4,285.5,104.2C285.4,104.3,285.4,104.3,285.5,104.2
		C285.4,104.3,285.5,104.2,285.5,104.2L285.5,104.2z"/>
	<path class="st10" d="M287.1,103.7C287.1,103.7,287.1,103.7,287.1,103.7c0.1,0,0.1,0.1,0.2,0.1s0,0,0,0c0,0,0,0,0,0c0,0,0,0,0,0
		l0,0c0,0,0,0,0,0c0,0,0,0,0,0c0,0,0,0-0.1,0C287.2,103.8,287.1,103.8,287.1,103.7C287.1,103.8,287.1,103.8,287.1,103.7
		C287.1,103.7,287.1,103.7,287.1,103.7C287.1,103.7,287.1,103.7,287.1,103.7L287.1,103.7z"/>
	<path class="st10" d="M288.3,103.1c0,0,0.1,0,0.1,0c0,0,0.1,0,0.1,0c0,0,0.1,0,0.1,0c0,0,0,0,0,0s0,0,0,0c0,0,0,0,0,0c0,0,0,0,0,0
		c0,0,0,0,0,0l0,0.1c0,0-0.1,0-0.1,0C288.5,103.2,288.4,103.2,288.3,103.1c0,0.1-0.1,0.2-0.1,0.2s0,0.1,0,0.2c0,0,0,0.1,0.1,0.1
		s0.1,0,0.1,0c0,0,0.1,0,0.1,0l0,0c0.1,0,0.1,0,0.2,0s0.1,0,0.2,0c0.1,0,0.1,0.1,0.1,0.1c0,0.1,0,0.1,0,0.2c0,0.1,0,0.1-0.1,0.2
		c0,0.1-0.1,0.1-0.2,0.1c-0.1,0-0.1,0-0.2,0c-0.1,0-0.1,0-0.2,0l0,0c0,0,0,0,0,0s0,0,0,0c0,0,0,0,0,0c0,0,0,0,0,0l0,0c0,0,0,0,0,0
		c0,0,0,0,0,0c0,0,0,0,0,0c0,0,0,0,0,0c0,0,0.1,0,0.1,0c0.1,0,0.1,0,0.2,0c0.1,0,0.1-0.1,0.2-0.2c0-0.1,0-0.1,0-0.2
		c0-0.1-0.1-0.1-0.1-0.1c-0.1,0-0.1,0-0.2,0c-0.1,0-0.1,0-0.2,0c-0.1,0-0.1,0-0.2,0c-0.1,0-0.1,0-0.1-0.1c0-0.1,0-0.1,0-0.2
		c0-0.1,0-0.1,0.1-0.2C288.2,103.2,288.3,103.2,288.3,103.1L288.3,103.1z"/>
	<path class="st10" d="M291,101.7C291,101.7,291,101.7,291,101.7c-0.1,0.1-0.1,0.1-0.2,0.1c0,0,0,0,0,0.1c0.1,0.1,0.2,0.2,0.3,0.4
		c0.1,0.1,0.2,0.2,0.3,0.4c0,0,0,0,0,0c0,0,0,0,0,0c0,0,0,0,0.1-0.1c0,0,0,0,0.1-0.1l0,0c0.1-0.1,0.1-0.2,0.2-0.3
		c0-0.1,0-0.2-0.1-0.4c0-0.1-0.1-0.1-0.2-0.2c-0.1,0-0.1-0.1-0.2-0.1C291.2,101.6,291.1,101.6,291,101.7L291,101.7z M290.7,101.8
		L290.7,101.8C290.7,101.8,290.7,101.8,290.7,101.8C290.7,101.8,290.8,101.8,290.7,101.8C290.8,101.8,290.8,101.8,290.7,101.8
		L290.7,101.8L290.7,101.8c0.1,0,0.1-0.1,0.2-0.1c0,0,0.1-0.1,0.1-0.1c0.1-0.1,0.3-0.1,0.4-0.1c0.1,0,0.2,0.1,0.3,0.3
		c0.1,0.1,0.1,0.2,0.1,0.3c0,0.1,0,0.2,0,0.3c0,0.1-0.1,0.2-0.1,0.2c0,0,0,0-0.1,0.1s0,0-0.1,0.1l0,0c0,0,0,0,0,0c0,0,0,0,0,0
		c0,0,0,0-0.1,0c0,0,0,0,0,0l0,0c0,0,0,0,0,0c0,0,0,0,0,0c-0.1-0.1-0.2-0.3-0.3-0.4S290.8,102,290.7,101.8
		C290.7,101.9,290.7,101.8,290.7,101.8C290.7,101.8,290.7,101.8,290.7,101.8L290.7,101.8z M290.7,101.8L290.7,101.8L290.7,101.8
		L290.7,101.8L290.7,101.8z"/>
	<path class="st10" d="M292.4,100.6c0,0-0.1,0.1-0.1,0.1s-0.1,0.1-0.1,0.2l0.1,0.2c0,0,0.1,0.1,0.1,0.1c0,0,0.1,0.1,0.1,0.1
		c0,0,0,0,0,0c0,0,0,0,0,0c0,0,0,0,0,0l0,0l0,0c0,0,0.1-0.1,0.1-0.1c0,0,0.1-0.1,0.1-0.1c0.1-0.1,0.1-0.2,0.1-0.2
		c0-0.1,0-0.2-0.1-0.2c-0.1-0.1-0.1-0.1-0.2-0.1S292.5,100.5,292.4,100.6L292.4,100.6z M292,100.8L292,100.8
		C292.1,100.8,292.1,100.8,292,100.8C292.1,100.8,292.1,100.8,292,100.8l0.1,0c0,0,0.1-0.1,0.1-0.1c0,0,0.1-0.1,0.1-0.1
		c0.1-0.1,0.2-0.1,0.3-0.1c0.1,0,0.2,0,0.3,0.1c0,0.1,0.1,0.1,0.1,0.2c0,0.1,0,0.1,0,0.2c0,0.1,0,0.1,0,0.1c0,0,0,0,0,0c0,0,0,0,0,0
		c0,0,0,0,0,0c0,0,0,0,0,0l0,0l0.1,0c0,0,0,0,0.1,0c0,0,0,0,0.1,0l0,0c0,0,0,0,0,0c0,0,0,0,0,0c0,0,0,0,0,0c0,0,0,0,0,0c0,0,0,0,0,0
		s0,0,0,0l0,0c0,0-0.1,0-0.1,0c0,0-0.1,0-0.1,0c0,0-0.1,0-0.1,0l0,0c0,0,0,0,0,0c0,0,0,0,0,0c0,0,0,0,0,0c0,0,0,0,0,0l0,0
		c0,0,0,0,0,0c0,0,0,0,0,0l-0.1,0.1l0,0c0,0-0.1,0.1-0.1,0.1c0,0-0.1,0.1-0.1,0.1c0,0,0,0,0,0c0,0,0,0,0,0c0,0.1,0.1,0.1,0.1,0.2
		c0,0.1,0.1,0.1,0.1,0.2c0,0,0,0,0,0c0,0,0,0,0,0c0,0,0,0-0.1,0c0,0-0.1,0-0.1-0.1c0,0-0.1-0.1-0.1-0.1l0-0.1l-0.2-0.2
		c-0.1-0.1-0.2-0.2-0.2-0.2C292.2,101,292.1,100.9,292,100.8C292,100.8,292,100.8,292,100.8C292,100.8,292,100.8,292,100.8
		L292,100.8z"/>
	<path class="st10" d="M293.3,99.6C293.3,99.6,293.3,99.6,293.3,99.6C293.3,99.6,293.4,99.6,293.3,99.6c0.1,0,0.1-0.1,0.1-0.1
		c0,0,0.1-0.1,0.1-0.1l0.1-0.1c0,0,0,0,0,0c0,0,0,0,0-0.1c0,0,0,0,0,0c0,0,0,0,0,0c0,0,0,0,0,0c0,0,0,0,0,0l-0.1,0.1
		c0,0-0.1,0.1-0.1,0.1c0,0-0.1,0.1-0.1,0.1l0,0c0,0,0,0,0,0s0,0,0,0c0,0,0.1,0.1,0.1,0.1c0,0,0,0,0.1,0.1c0,0,0,0,0,0c0,0,0,0,0,0
		c0,0,0.1-0.1,0.1-0.2c0-0.1,0.1-0.1,0.1-0.2l0,0c0,0,0,0,0,0c0,0,0,0,0,0c0,0,0,0,0,0c0,0,0,0,0,0c0,0,0,0,0,0c0,0,0,0,0,0.1
		c0,0,0,0,0,0c0,0,0,0,0,0.1s0,0,0,0.1l-0.1,0.1l0,0c0,0,0,0,0,0c0,0,0,0,0,0c0.1,0.1,0.1,0.1,0.2,0.2c0.1,0.1,0.1,0.1,0.2,0.2
		c0,0,0,0,0,0c0,0,0,0,0,0l0,0c0,0,0,0,0.1-0.1c0,0,0-0.1,0.1-0.1l0.2-0.2c0,0,0,0,0,0c0,0,0,0,0,0c0,0,0,0,0,0s0,0,0,0
		c0,0,0,0,0,0.1c0,0,0,0,0,0l0,0c0,0,0,0.1-0.1,0.1c0,0-0.1,0.1-0.1,0.1l-0.2,0.2c0,0,0,0,0,0c0,0,0,0,0,0c0,0,0,0-0.1,0
		c0,0,0,0,0,0l0,0c0,0,0,0,0,0c0,0,0,0,0,0c-0.1-0.1-0.2-0.2-0.4-0.3C293.6,99.9,293.4,99.8,293.3,99.6
		C293.3,99.7,293.3,99.7,293.3,99.6C293.3,99.6,293.3,99.6,293.3,99.6L293.3,99.6z"/>
	<path class="st10" d="M294.6,98.3L294.6,98.3C294.6,98.3,294.6,98.3,294.6,98.3L294.6,98.3C294.6,98.3,294.6,98.3,294.6,98.3
		C294.6,98.3,294.6,98.3,294.6,98.3C294.6,98.3,294.6,98.3,294.6,98.3C294.6,98.3,294.6,98.3,294.6,98.3L294.6,98.3L294.6,98.3
		L294.6,98.3l0.1,0.1l0,0l0.4,0.6l0,0c0,0,0,0,0,0c0,0,0,0,0,0l0,0l0,0c0,0,0,0,0,0c0,0,0,0,0,0c0,0,0,0,0,0c0,0,0,0,0,0l0,0
		c0,0,0,0,0,0c0,0,0,0,0,0c0-0.1,0.1-0.1,0.1-0.2c0-0.1,0.1-0.1,0.1-0.2c0,0,0,0,0,0c0,0,0,0,0,0c0,0,0,0,0,0l0,0l-0.3-0.1
		c-0.1,0-0.1,0-0.2-0.1C294.7,98.4,294.7,98.3,294.6,98.3L294.6,98.3C294.6,98.3,294.6,98.3,294.6,98.3
		C294.6,98.3,294.6,98.3,294.6,98.3L294.6,98.3C294.6,98.3,294.6,98.3,294.6,98.3C294.6,98.3,294.6,98.3,294.6,98.3L294.6,98.3z
		 M294.5,98.2C294.5,98.2,294.5,98.2,294.5,98.2C294.6,98.2,294.6,98.2,294.5,98.2C294.6,98.2,294.6,98.2,294.5,98.2
		C294.6,98.2,294.6,98.2,294.5,98.2c0.1,0,0.1,0,0.1,0l0,0l0.8,0.2c0,0,0,0,0,0c0,0,0,0,0,0c0,0,0,0,0,0c0,0,0,0,0,0c0,0,0,0,0,0
		c0,0,0,0,0,0c0,0,0,0,0,0c0,0,0,0,0,0c0,0,0.1,0,0.1,0c0,0,0,0,0.1,0c0,0,0,0,0,0c0,0,0,0,0,0c0,0,0,0-0.1,0c0,0-0.1,0-0.1,0
		c0,0,0,0,0,0l0,0c0,0,0,0,0,0c0,0,0,0,0,0l0,0c0,0.1-0.1,0.1-0.1,0.2c0,0.1-0.1,0.1-0.1,0.2l0,0.1c0,0,0,0,0,0c0,0,0,0,0,0
		c0,0,0,0,0,0c0,0,0,0,0,0c0,0,0,0,0,0c0,0,0,0,0,0l0,0l-0.3-0.4c-0.1-0.1-0.2-0.3-0.3-0.4l0,0L294.5,98.2
		C294.5,98.3,294.5,98.3,294.5,98.2C294.5,98.3,294.5,98.3,294.5,98.2L294.5,98.2z"/>
	<path class="st10" d="M295.8,96.4C295.8,96.4,295.8,96.4,295.8,96.4C295.8,96.4,295.8,96.4,295.8,96.4L295.8,96.4
		C295.8,96.4,295.8,96.4,295.8,96.4c0.1,0,0.1,0,0.1,0l0,0c0.1,0.1,0.2,0.1,0.3,0.2c0.1,0.1,0.2,0.1,0.3,0.2l0,0c0,0,0,0,0,0
		c0,0,0,0,0,0c0,0,0,0,0,0s0,0,0,0c0,0,0,0,0,0c0,0,0,0-0.1,0c0,0,0,0,0,0c0,0,0,0,0,0l-0.2-0.1c-0.1,0-0.1-0.1-0.2-0.1
		c-0.1,0-0.1-0.1-0.2-0.1l0,0c0,0,0,0,0,0c0,0,0,0,0,0l-0.1-0.1c0,0.1,0.1,0.1,0.1,0.2c0,0,0.1,0.1,0.1,0.2l0,0l0,0
		c0,0,0,0.1,0.1,0.1c0,0,0,0.1,0.1,0.1c0,0,0,0,0,0.1c0,0,0,0,0,0.1c0,0,0,0,0,0c0,0,0,0-0.1,0l0,0c-0.1,0-0.1,0-0.2,0s-0.1,0-0.2,0
		l-0.2,0c0.1,0.1,0.2,0.1,0.3,0.2c0.1,0.1,0.2,0.1,0.3,0.2c0,0,0,0,0,0c0,0,0,0,0,0c0,0,0,0,0,0c0,0,0,0-0.1,0c0,0,0,0,0,0
		c0,0,0,0,0,0l0,0c-0.1-0.1-0.2-0.1-0.3-0.2c-0.1-0.1-0.2-0.1-0.3-0.2c0,0,0,0-0.1,0c0,0-0.1,0-0.1-0.1c0,0,0,0,0,0c0,0,0,0,0,0
		c0,0,0,0,0.1,0c0,0,0,0,0.1,0l0,0l0,0l0.2,0c0.1,0,0.2,0,0.3,0c0.1,0,0.2,0,0.3,0l0,0c0,0,0,0,0,0c0,0,0,0,0,0c0,0,0,0,0,0
		c0,0,0,0,0,0c0,0,0,0,0,0c0,0,0,0,0,0c0,0,0,0,0,0c0,0,0,0,0-0.1l-0.1-0.2c0-0.1-0.1-0.1-0.1-0.2C295.9,96.6,295.8,96.6,295.8,96.4
		L295.8,96.4L295.8,96.4C295.8,96.5,295.8,96.5,295.8,96.4C295.7,96.4,295.8,96.4,295.8,96.4L295.8,96.4z"/>
	<path class="st10" d="M296.4,95.2c0,0,0-0.1,0.1-0.1c0,0,0.1-0.1,0.1-0.1s0.1,0,0.1,0c0,0,0,0,0,0c0,0,0,0,0,0c0,0,0,0,0,0
		c0,0,0,0,0,0s0,0,0,0l0,0c0,0-0.1,0-0.1,0.1C296.5,95.2,296.5,95.3,296.4,95.2c0,0.1,0,0.2,0.1,0.2c0,0.1,0.1,0.1,0.1,0.1
		c0,0,0.1,0,0.1,0c0,0,0.1,0,0.1-0.1c0,0,0.1-0.1,0.1-0.1l0,0c0-0.1,0.1-0.1,0.1-0.1c0,0,0.1-0.1,0.1-0.1c0.1,0,0.1,0,0.2,0
		c0.1,0,0.1,0.1,0.1,0.1c0,0.1,0,0.1,0,0.2c0,0.1,0,0.1-0.1,0.2c0,0.1-0.1,0.1-0.1,0.1s-0.1,0.1-0.2,0.1l0,0c0,0,0,0,0,0
		c0,0,0,0,0,0c0,0,0,0,0,0c0,0,0,0,0,0l0,0c0,0,0,0,0,0s0,0,0,0c0,0,0,0,0,0c0,0,0,0,0,0c0,0,0.1,0,0.1-0.1c0,0,0.1-0.1,0.1-0.1
		c0-0.1,0-0.2,0-0.2c0-0.1-0.1-0.1-0.1-0.2c-0.1,0-0.1,0-0.2,0c0,0-0.1,0.1-0.1,0.1c0,0-0.1,0.1-0.1,0.1c0,0-0.1,0.1-0.1,0.1
		c0,0-0.1,0-0.2,0c-0.1,0-0.1-0.1-0.1-0.1c0-0.1,0-0.1,0-0.2C296.3,95.4,296.3,95.3,296.4,95.2L296.4,95.2z"/>
	<path class="st3" d="M297.3,94.2l0.4-0.2c0,0,0.1,0,0.2,0.1c0.1,0.1,0.1,0.3,0.1,0.3s0,0.1,0,0.1c0,0-0.1,0-0.1-0.1
		c0,0-0.1-0.2-0.2-0.2c-0.1,0-0.3,0-0.3,0s-0.1,0-0.1,0C297.2,94.3,297.2,94.2,297.3,94.2z"/>
	<path class="st3" d="M297.4,93.7l0.4-0.2c0,0,0.1,0,0.2,0.1c0.1,0.1,0.1,0.3,0.1,0.3s0,0.1,0,0.1c0,0-0.1,0-0.1-0.1
		c0,0-0.1-0.2-0.2-0.2c-0.1,0-0.3,0-0.3,0s-0.1,0-0.1,0C297.3,93.8,297.4,93.8,297.4,93.7z"/>
	<path class="st3" d="M263.1,94.2l-0.4-0.2c0,0-0.1,0-0.2,0.1c-0.1,0.1-0.1,0.3-0.1,0.3s0,0.1,0,0.1c0,0,0.1,0,0.1-0.1
		c0,0,0.1-0.2,0.2-0.2c0.1,0,0.3,0,0.3,0s0.1,0,0.1,0C263.1,94.3,263.1,94.2,263.1,94.2z"/>
	<path class="st3" d="M262.9,93.7l-0.4-0.2c0,0-0.1,0-0.2,0.1c-0.1,0.1-0.1,0.3-0.1,0.3s0,0.1,0,0.1c0,0,0.1,0,0.1-0.1
		c0,0,0.1-0.2,0.2-0.2c0.1,0,0.3,0,0.3,0s0.1,0,0.1,0C263,93.8,263,93.8,262.9,93.7z"/>
	<g>
		<path class="st3" d="M270.1,75.2c0,0-0.1-0.1-0.2-0.1c0,0,0,0,0,0c0,0,0.1-0.1,0.1-0.1c0-0.1,0-0.1-0.1-0.2l-0.1-0.1l-0.8-1
			c-0.4-0.5-0.6-0.8-0.7-0.9c-0.1-0.1-0.1-0.2-0.1-0.2c0-0.1-0.1-0.2-0.1-0.2c0,0,0,0-0.1-0.1c-0.1,0-0.2,0-0.3,0.1
			c0,0-0.1,0-0.1,0.1c-0.1,0.1-0.1,0.1-0.2,0.1c-0.1,0.1-0.1,0.1,0,0.2c0,0,0.1,0.1,0.1,0.1c0.1,0,0.2,0.2,0.4,0.4
			c0.1,0.2,0.2,0.3,0.2,0.3l0,0l-0.6,0.4c-0.3,0.2-0.5,0.3-0.5,0.3s-0.1-0.1-0.2-0.2c-0.2-0.3-0.3-0.4-0.3-0.5c0-0.1,0-0.2-0.1-0.2
			c0,0-0.1,0-0.2,0c-0.1,0-0.1,0.1-0.2,0.1c-0.2,0.1-0.3,0.3-0.2,0.3c0,0,0.1,0.1,0.1,0.1c0,0,0.1,0,0.1,0.1c0,0,0.3,0.4,0.8,1.1
			c0.5,0.7,0.7,1,0.8,1.1c0,0.1,0.1,0.1,0,0.2c0,0.2,0.1,0.2,0.3,0.1c0.1,0,0.2-0.1,0.2-0.2c0.1-0.1,0.2-0.2,0.1-0.2
			c0-0.1-0.1-0.1-0.2-0.2c0,0-0.1-0.2-0.3-0.4c-0.3-0.4-0.4-0.6-0.4-0.6c0,0,0.2-0.1,0.5-0.4c0.4-0.3,0.5-0.4,0.6-0.4c0,0,0,0,0,0.1
			c0,0,0.1,0.2,0.3,0.4c0.3,0.4,0.4,0.7,0.4,0.7c0,0.1,0.1,0.1,0.2,0.2c0,0,0.1,0,0.1,0c0,0,0,0.1,0,0.1c0,0.1,0,0.2-0.1,0.3
			c0,0,0,0,0,0.1c-0.1,0.2-0.2,0.4-0.4,0.7c-0.2,0.2-0.3,0.4-0.6,0.5c-0.1,0.1-0.2,0.1-0.2,0.1c0,0-0.1,0.1-0.2,0.1
			c-0.1,0-0.2,0.1-0.2,0.1s-0.1,0-0.2,0.1c-0.1,0-0.1,0-0.1,0c0,0,0,0-0.1,0c0,0-0.1,0-0.1,0c0,0,0,0-0.1,0c0,0-0.1,0-0.1,0
			c-0.1,0-0.2,0-0.2,0c-0.1,0-0.2,0-0.3,0c-0.2,0-0.3,0-0.3,0c0,0,0,0-0.1,0c0,0-0.1,0-0.1,0c-0.1,0-0.1,0-0.1,0c0,0,0,0-0.1,0
			c0,0,0,0-0.1,0c0,0-0.1,0-0.1-0.1c0,0-0.1,0-0.1,0c0,0-0.1,0-0.1-0.1c-0.1,0-0.2-0.1-0.3-0.2c-0.1-0.1-0.2-0.2-0.4-0.3
			c-0.2-0.2-0.3-0.4-0.4-0.5c0,0,0-0.1-0.1-0.1c0,0-0.1-0.2-0.1-0.4c0-0.2-0.1-0.3-0.1-0.3c0,0,0-0.1,0-0.1c0,0,0-0.1,0-0.2
			c0-0.2,0-0.3,0-0.4c0-0.1,0-0.1,0-0.2c0,0,0-0.1,0-0.1c0,0,0-0.1,0-0.1l0,0l0,0c0,0,0,0,0-0.1c0-0.1,0-0.1,0-0.1c0,0,0,0,0-0.1
			c0-0.1,0.1-0.2,0.2-0.4c0.1-0.1,0.1-0.1,0.1-0.2c0-0.1,0.1-0.1,0.3-0.3c0.2-0.1,0.3-0.2,0.4-0.3c0.2-0.1,0.4-0.2,0.5-0.2
			c0.1,0,0.1,0,0.1,0c0,0,0,0,0.1,0c0,0,0.1,0,0.1,0c0,0,0,0,0,0c0,0,0.1,0,0.2,0c0.1,0,0.1,0,0.2,0c0-0.1,0-0.1,0-0.2
			c0,0-0.1-0.1-0.2-0.2c-0.1-0.1-0.2-0.2-0.2-0.2c0,0-0.1,0-0.2,0c-0.1,0-0.1,0-0.2,0c0,0-0.1,0-0.2,0.1c-0.2,0.1-0.5,0.2-0.8,0.5
			c-0.1,0-0.1,0.1-0.2,0.2c-0.1,0.1-0.1,0.1-0.2,0.2c-0.2,0.2-0.3,0.3-0.3,0.5c0,0,0,0.1,0,0.1c0,0,0,0.1-0.1,0.1
			c0,0.1,0,0.1-0.1,0.1c0,0-0.1,0.1-0.1,0.3c-0.1,0.1-0.1,0.2-0.1,0.3c0,0.1,0,0.1,0,0.1c0,0.1,0,0.2-0.1,0.3c0,0,0,0,0,0.1
			c0,0,0,0,0,0.1c0,0.1,0,0.2,0,0.2c0,0.1,0,0.1,0,0.2c0,0,0,0.1,0,0.1c0,0.1,0,0.3,0.1,0.5c0.1,0.2,0.1,0.4,0.1,0.4c0,0,0,0,0,0.1
			c0,0.1,0,0.1,0.1,0.2c0.2,0.3,0.3,0.4,0.4,0.6c0.2,0.2,0.5,0.4,0.8,0.6c0.1,0.1,0.2,0.1,0.3,0.1c0,0,0,0,0.1,0
			c0.1,0.1,0.3,0.1,0.6,0.1c0.1,0,0.2,0,0.3,0c0.2,0,0.3,0,0.3,0c0,0,0,0,0.1,0c0,0,0,0,0.1,0c0,0,0.1,0,0.2,0
			c0.1,0,0.3-0.1,0.4-0.1s0.3-0.1,0.4-0.2c0,0,0.1,0,0.1-0.1c0.1,0,0.1-0.1,0.2-0.2c0.1-0.1,0.2-0.2,0.3-0.3
			c0.1-0.1,0.3-0.2,0.3-0.3c0.2-0.2,0.3-0.4,0.3-0.5c0,0,0-0.1,0-0.1c0,0,0,0,0-0.1c0-0.1,0-0.1,0.1-0.1c0.1-0.1,0.1-0.2,0.1-0.3
			c0,0,0-0.1,0-0.1s0-0.1,0-0.1c0,0,0-0.1,0-0.1c0-0.1,0-0.1,0-0.1C270.2,75.3,270.2,75.3,270.1,75.2z"/>
		<path class="st3" d="M264.8,74.2C264.8,74.2,264.7,74.2,264.8,74.2L264.8,74.2L264.8,74.2C264.8,74.2,264.8,74.2,264.8,74.2z"/>
		<path class="st3" d="M272.8,73.3c0,0-0.1,0-0.2,0c-0.1,0-0.1-0.1-0.2-0.1c0,0-0.1-0.1-0.1-0.1c0,0-0.1-0.1-0.1-0.1
			c0,0,0,0-0.1-0.1c-0.1-0.1-0.1-0.1-0.2-0.1c0,0-0.1-0.1-0.1-0.1c0,0-0.1-0.1-0.1-0.1c0,0-0.1-0.1-0.1-0.1c0,0-0.1-0.1-0.1-0.1
			c-0.1-0.1-0.2-0.1-0.2-0.2c0,0-0.1-0.1-0.1-0.1c0,0-0.1,0-0.1-0.1c0,0,0,0-0.1-0.1c-0.1,0-0.1-0.1-0.1-0.1c0,0,0,0,0,0
			c0,0,0,0-0.1-0.1c0,0-0.1-0.1-0.1-0.1c0,0-0.1-0.1-0.1-0.1c0,0,0,0-0.1-0.1c0,0-0.1-0.1-0.1-0.1c-0.1-0.1-0.2-0.1-0.2-0.2
			c0,0-0.1,0-0.1-0.1c0,0-0.1,0-0.1,0c0,0-0.1,0-0.1,0c0,0-0.1,0.1-0.1,0.1c0,0.1,0,0.1,0,0.2c0,0.1,0,0.1,0,0.2c0,0.1,0,0.1,0,0.1
			c0,0,0,0.1,0,0.1c0,0.1,0,0.1,0,0.1c0,0,0,0,0,0.1c0,0,0,0,0,0.1c0,0.1,0,0.1,0,0.1c0,0.1,0,0.1,0,0.1c0,0,0,0,0,0.1
			c0,0,0,0.1,0,0.2c0,0.1,0,0.2,0,0.3c0,0,0,0.1,0,0.2c0,0.1,0,0.2,0,0.2c0,0.1,0,0.1,0,0.1c0,0,0,0,0,0.1c0,0.1,0,0.1,0,0.1
			c0,0,0,0,0,0.1c0,0.1,0,0.2,0,0.2c0,0.1,0,0.1,0,0.2c0,0,0,0.1,0,0.1c0,0,0,0,0,0.1c0,0.1,0,0.1,0,0.1c0,0,0,0,0,0.1
			c0,0,0,0.1,0,0.1c0,0,0.1,0.1,0.1,0.1c0.1,0,0.1,0,0.1,0c0,0,0.1,0,0.1-0.1c0.1,0,0.1-0.1,0.1-0.2c0-0.1,0-0.1,0-0.1
			c0,0,0,0,0-0.1c0-0.1,0-0.2,0-0.3c0,0,0-0.1,0-0.2l0-0.1l0,0c0.1,0,0.3-0.1,0.4-0.2c0.1-0.1,0.2-0.2,0.3-0.3
			c0.1-0.1,0.2-0.1,0.2-0.2c0,0,0.1,0,0.1,0c0,0,0,0,0,0c0,0,0,0,0.1,0.1c0,0,0.1,0.1,0.2,0.1c0.1,0.1,0.1,0.1,0.2,0.1
			c0,0,0.1,0.1,0.1,0.1c0.1,0.1,0.2,0.2,0.3,0.1c0,0,0.1,0,0.2-0.1c0.1-0.1,0.2-0.1,0.2-0.1c0-0.1,0-0.1,0-0.2
			C272.9,73.3,272.8,73.3,272.8,73.3z M271.1,72.9c-0.1,0.1-0.2,0.1-0.2,0.2c-0.1,0.1-0.1,0.1-0.2,0.1c0,0-0.1,0.1-0.1,0.1
			c0,0-0.1,0.1-0.1,0.1l0,0l0,0c0,0,0,0,0,0c0,0,0-0.1,0-0.1c0-0.1,0-0.1,0-0.1c0,0,0,0,0-0.1c0-0.1,0-0.1,0-0.2c0-0.1,0-0.2,0-0.2
			c0-0.1,0-0.1,0-0.2c0-0.1,0-0.2,0-0.2c0,0,0,0,0,0l0,0l0,0c0,0,0,0,0,0c0.1,0.1,0.2,0.2,0.2,0.2c0,0,0,0,0,0c0,0,0.1,0.1,0.1,0.1
			c0.3,0.2,0.4,0.3,0.4,0.3C271.2,72.8,271.1,72.8,271.1,72.9z"/>
		<path class="st3" d="M275.2,72.2c0,0-0.1,0-0.2,0c-0.1,0-0.1,0.1-0.2,0.1c0,0,0,0,0,0c0,0,0,0-0.1,0.1c0,0-0.1,0.1-0.2,0.1
			s-0.2,0.1-0.4,0.1c-0.1,0-0.3,0.1-0.4,0.1c-0.1,0-0.2,0-0.2,0l0,0l-0.3-0.9c-0.2-0.7-0.4-1.2-0.4-1.3s-0.1-0.3,0-0.3
			c0-0.1,0-0.1,0-0.1c-0.1-0.1-0.2-0.1-0.3,0c0,0,0,0-0.1,0c-0.2,0.1-0.3,0.1-0.3,0.2s0,0.1,0,0.1c0,0,0.1,0.1,0.1,0.2
			c0,0.1,0.2,0.5,0.4,1.3L273,73l0,0.1c0,0.1,0,0.1,0,0.1c0,0.1,0,0.2,0.1,0.2c0.1,0,0.2,0,0.4-0.1c0.1,0,0.3-0.1,0.5-0.1
			c0.2-0.1,0.3-0.1,0.3-0.1c0,0,0.1,0,0.3-0.1c0.2-0.1,0.3-0.1,0.3-0.2c0.1,0,0.1-0.1,0.2-0.2c0.1-0.1,0.1-0.1,0.1-0.2
			C275.4,72.4,275.4,72.3,275.2,72.2z"/>
		<path class="st3" d="M277.4,69c0,0-0.4,0.1-1.2,0.2l0,0c0,0,0,0,0,0c-0.5,0.1-0.8,0.1-0.9,0.2s-0.2,0.1-0.2,0.2c0,0,0,0,0,0
			c0,0,0,0.1,0,0.2c0,0.1,0.1,0.2,0.1,0.2c0.1,0,0.1,0,0.2,0c0.1-0.1,0.2-0.1,0.4-0.1c0.2,0,0.3,0,0.3,0l0,0l0.2,1.2
			c0.1,0.7,0.2,1,0.2,1.2c0,0.1,0,0.2,0,0.3c0,0.1,0,0.1,0,0.2c0,0,0.1,0,0.2,0.1c0,0,0.1,0,0.2,0c0.1,0,0.1,0,0.1,0
			c0.2-0.1,0.2-0.2,0.1-0.3c0,0,0-0.1-0.1-0.1c0-0.1-0.1-0.5-0.2-1.3c-0.1-0.8-0.2-1.2-0.2-1.2l0,0l0.2,0c0.2,0,0.4,0,0.5,0
			c0.1,0,0.2,0,0.2-0.1c0-0.1,0-0.2,0-0.3C277.5,69.1,277.5,69,277.4,69z"/>
		<path class="st3" d="M280.4,71.7c-0.1,0-0.1,0-0.1,0c0,0,0,0,0,0c0,0-0.1,0-0.1,0c0,0-0.1,0-0.1,0c-0.1,0-0.1,0-0.2,0
			c-0.1,0-0.3,0-0.5,0c-0.3,0-0.5,0-0.5,0l0,0l0-0.6c0-0.3,0-0.5,0-0.6s0-0.1,0-0.1c0.1,0,0.1,0,0.3,0.1c0.2,0.1,0.4,0.1,0.5,0.1
			c0.3,0,0.5-0.1,0.6-0.2c0-0.1,0.1-0.2,0-0.2s-0.1-0.1-0.2-0.2c-0.1,0-0.2,0-0.3,0c-0.1,0-0.1,0-0.3,0c-0.1,0-0.2,0-0.3-0.1
			c0,0-0.1,0-0.1,0c0,0-0.1,0-0.1,0c0,0-0.1,0-0.2,0s-0.1,0-0.1,0c0,0,0-0.1,0-0.3c0-0.2,0-0.3,0-0.3c0,0,0,0,0.1,0c0,0,0.2,0,0.5,0
			l0.6,0l0.1,0c0.1,0,0.1,0,0.1,0.1c0.1,0,0.1,0,0.2,0c0,0,0.1-0.1,0.1-0.1c0-0.1,0-0.1,0-0.2c0-0.1,0-0.1,0-0.1s0-0.1-0.1-0.1
			l-0.1-0.1l-1,0c0,0,0,0,0,0c-0.5,0-0.8,0-0.9,0c-0.1,0-0.2,0.1-0.2,0.1c0,0.1,0,0.1,0,0.1c0,0,0,0.1,0.1,0.2c0,0.1,0,0.5,0,1.4
			c0,0.9,0,1.4-0.1,1.4c0,0.1,0,0.2,0,0.2c0,0,0.1,0,0.2,0c0.1,0,0.5,0,1.1,0l1,0l0.1-0.1c0,0,0.1-0.1,0.1-0.2
			C280.6,71.9,280.6,71.7,280.4,71.7z"/>
		<path class="st3" d="M283.6,69.3c-0.2,0-0.3,0-0.3,0c0,0-0.1,0.1-0.1,0.1c0,0,0,0.1,0,0.1c0,0.1,0,0.2,0,0.3c0,0.1,0,0.3-0.1,0.7
			c0,0.3-0.1,0.5-0.1,0.6l0,0l0,0c0,0-0.1-0.1-0.1-0.2c-0.1-0.1-0.1-0.2-0.1-0.2c0,0,0,0,0,0c0,0-0.1-0.1-0.2-0.3
			c0-0.1-0.1-0.1-0.1-0.2c0,0,0-0.1-0.1-0.1c-0.1-0.1-0.1-0.2-0.2-0.3c-0.1-0.1-0.1-0.2-0.1-0.2c0,0,0-0.1,0-0.1c0,0,0,0,0,0
			c0,0,0,0-0.1-0.1c0-0.1-0.1-0.1-0.1-0.2c0-0.1-0.1-0.1-0.1-0.2c-0.1-0.1-0.1-0.1-0.3-0.1c-0.1,0-0.2,0-0.2,0c0,0-0.1,0.1,0,0.1
			c0,0,0,0.1,0,0.2c0,0.1,0,0.5-0.2,1.3c-0.1,0.8-0.2,1.3-0.2,1.4c0,0.1,0,0.1-0.1,0.1c0,0,0,0,0,0.1c0,0,0,0.1,0,0.1
			c0,0,0.1,0.1,0.1,0.1c0,0,0.1,0,0.3,0.1c0.1,0,0.2,0,0.3,0c0.1,0,0.1-0.1,0.1-0.2c0-0.1,0-0.1,0-0.2c0-0.1,0.1-0.4,0.1-1
			c0.1-0.4,0.1-0.7,0.1-0.9l0,0l0,0c0.1,0.1,0.1,0.2,0.2,0.3c0.1,0.1,0.1,0.2,0.1,0.2c0,0,0,0,0,0c0,0,0,0.1,0.1,0.1
			c0.1,0.1,0.1,0.2,0.1,0.2c0,0.1,0.1,0.1,0.1,0.1s0,0,0,0c0,0,0,0,0,0.1c0,0,0.1,0.1,0.1,0.1c0,0.1,0.1,0.1,0.1,0.1
			c0,0,0.1,0.1,0.1,0.2c0.1,0.1,0.1,0.2,0.1,0.2c0,0,0,0,0,0c0,0,0,0,0,0c0,0,0,0.1,0.1,0.1c0,0.1,0,0.1,0,0.3c0,0.1,0,0.1,0,0.1
			c0,0,0,0,0,0c0,0,0,0,0,0.1c0,0.1,0.1,0.2,0.3,0.2c0.2,0,0.3,0,0.4,0c0,0,0.1-0.1,0.1-0.1c0,0,0-0.1,0-0.1c0-0.1,0-0.1,0-0.2
			s0.1-0.5,0.2-1.2c0.1-0.8,0.2-1.3,0.2-1.4c0-0.1,0-0.1,0.1-0.1c0.1-0.1,0.1-0.2,0-0.2C283.9,69.3,283.8,69.3,283.6,69.3z"/>
		<path class="st3" d="M288,70.3C288,70.3,288,70.3,288,70.3L288,70.3L288,70.3C288,70.3,288,70.3,288,70.3z"/>
		<path class="st3" d="M290,75C290,74.9,290,74.9,290,75c0-0.1,0-0.2,0-0.2c0-0.1,0-0.2,0-0.2c0-0.1,0-0.1,0-0.1c0,0,0-0.1,0-0.1
			c0,0,0-0.1,0-0.2c0,0,0-0.1,0-0.1c0-0.1,0-0.2,0-0.3c0-0.1,0-0.1,0-0.1c0,0,0-0.1,0-0.1c0,0,0-0.1,0-0.1c0-0.1,0-0.1,0-0.1
			c0,0,0,0,0-0.1c0,0,0-0.1,0-0.1c0-0.1,0-0.1,0-0.2c0,0,0-0.1,0-0.2c0,0,0-0.1,0-0.1c0,0,0-0.1,0-0.2c0-0.1,0-0.2,0-0.3
			c0,0,0-0.1,0-0.1c0,0,0,0,0-0.1c0,0,0-0.1-0.1-0.1c0,0-0.1,0-0.2,0c-0.1,0-0.1,0-0.2,0.1c-0.1,0-0.1,0.1-0.2,0.1
			c-0.1,0-0.1,0-0.1,0.1c0,0,0,0-0.1,0.1c-0.1,0-0.1,0.1-0.1,0.1c0,0,0,0-0.1,0.1c0,0,0,0-0.1,0.1c0,0-0.1,0-0.1,0.1
			c-0.1,0-0.1,0.1-0.1,0.1c0,0,0,0,0,0c0,0-0.1,0-0.1,0.1c-0.1,0.1-0.2,0.1-0.2,0.2c0,0-0.1,0.1-0.2,0.1c-0.1,0.1-0.1,0.1-0.2,0.1
			c0,0-0.1,0.1-0.1,0.1c0,0,0,0-0.1,0.1c-0.1,0-0.1,0.1-0.1,0.1c0,0,0,0-0.1,0.1c-0.1,0.1-0.2,0.1-0.2,0.1c-0.1,0-0.1,0.1-0.1,0.1
			c0,0-0.1,0-0.1,0.1c0,0,0,0-0.1,0.1c-0.1,0-0.1,0.1-0.1,0.1c0,0,0,0-0.1,0c0,0,0,0-0.1,0.1c0,0,0,0.1,0,0.2c0,0.1,0,0.1,0,0.1
			c0,0,0.1,0.1,0.1,0.1c0.1,0,0.1,0,0.2,0c0.1,0,0.1,0,0.1-0.1s0,0,0.1,0c0.1,0,0.2-0.1,0.3-0.2c0,0,0.1,0,0.1-0.1l0.1,0l0,0
			c0.1,0.1,0.2,0.2,0.4,0.2c0.1,0,0.3,0.1,0.4,0.1c0.1,0,0.2,0.1,0.3,0.1c0,0,0.1,0,0.1,0.1c0,0,0,0,0,0c0,0,0,0,0,0.1
			c0,0.1,0,0.1,0,0.2c0,0.1,0,0.2,0,0.2c0,0,0,0.1,0,0.1c0,0.1,0,0.1,0,0.2c0,0,0,0-0.1-0.1c-0.1,0-0.1-0.1-0.2,0c0,0-0.1,0-0.1,0
			c-0.1,0-0.2,0-0.3,0c0,0-0.1,0-0.1,0c-0.2,0-0.5,0-0.8-0.1c-0.3-0.1-0.5-0.1-0.7-0.3c-0.1-0.1-0.2-0.1-0.2-0.1s-0.1-0.1-0.2-0.1
			c-0.1-0.1-0.1-0.1-0.2-0.1c0,0-0.1-0.1-0.1-0.1c-0.1-0.1-0.1-0.1-0.1-0.1c0,0,0,0,0-0.1c0,0,0-0.1,0-0.1c0,0,0,0,0-0.1
			c0,0,0,0,0,0c0-0.1-0.1-0.2-0.1-0.2c0,0-0.1-0.1-0.1-0.3c-0.1-0.2-0.1-0.3-0.1-0.3c0,0,0,0,0-0.1c0,0,0-0.1,0-0.1
			c0-0.1,0-0.1,0-0.1s0,0,0-0.1c0,0,0,0,0-0.1c0,0,0-0.1,0-0.1c0,0,0-0.1,0-0.1c0,0,0-0.1,0-0.1c0-0.1,0-0.2,0-0.3
			c0-0.1,0.1-0.3,0.2-0.5c0.1-0.3,0.2-0.5,0.3-0.5c0,0,0.1-0.1,0.1-0.1c0,0,0.1-0.1,0.3-0.3c0.1-0.1,0.2-0.2,0.3-0.2
			c0,0,0.1,0,0.1,0c0,0,0.1-0.1,0.2-0.1c0.2-0.1,0.3-0.1,0.4-0.1c0.1,0,0.1,0,0.2,0c0,0,0.1,0,0.1,0c0,0,0.1,0,0.1,0l0,0l0,0
			c0,0,0,0,0.1,0c0.1,0,0.1,0,0.1,0c0,0,0,0,0.1,0c0.1,0,0.2,0,0.4,0c0.1,0,0.2,0,0.2,0c0.1,0,0.2,0,0.4,0.1
			c0.2,0.1,0.3,0.1,0.4,0.2c0.2,0.1,0.4,0.3,0.4,0.3c0,0.1,0.1,0.1,0.1,0.1c0,0,0,0,0,0.1c0,0,0,0.1,0,0.1c0,0,0,0,0,0
			c0,0,0,0.1,0,0.2c0,0.1,0,0.1,0.1,0.1c0.1,0,0.1,0,0.2-0.1c0,0,0.1-0.1,0.1-0.2c0-0.1,0.1-0.2,0.1-0.3c0,0,0-0.1-0.1-0.2
			c0-0.1-0.1-0.1-0.1-0.1c0,0,0,0-0.1-0.1c-0.2-0.2-0.4-0.3-0.8-0.5c-0.1,0-0.1-0.1-0.2-0.1c-0.1,0-0.2-0.1-0.3-0.1
			c-0.2-0.1-0.4-0.1-0.6-0.1c0,0-0.1,0-0.1,0c0,0-0.1,0-0.1,0c-0.1,0-0.1,0-0.1,0c-0.1,0-0.2,0-0.3,0c-0.2,0-0.3,0-0.3,0
			c-0.1,0-0.1,0-0.1,0c-0.1,0-0.2,0-0.3,0.1c0,0,0,0-0.1,0c0,0,0,0-0.1,0.1c-0.1,0-0.1,0.1-0.2,0.1c-0.1,0-0.1,0.1-0.1,0.1
			c0,0-0.1,0-0.1,0c-0.1,0-0.2,0.2-0.4,0.4c-0.2,0.1-0.3,0.2-0.3,0.3c0,0,0,0-0.1,0.1c0,0-0.1,0.1-0.1,0.1c-0.2,0.3-0.3,0.5-0.3,0.6
			c-0.1,0.3-0.2,0.6-0.2,1c0,0.1,0,0.2,0,0.3c0,0,0,0,0,0.1c0,0.2,0.1,0.4,0.1,0.6c0,0.1,0.1,0.2,0.1,0.3c0.1,0.2,0.1,0.2,0.1,0.3
			c0,0,0,0,0,0.1c0,0,0,0,0,0c0,0,0.1,0.1,0.1,0.2c0.1,0.1,0.2,0.2,0.3,0.3c0.1,0.1,0.2,0.2,0.3,0.3c0,0,0.1,0.1,0.1,0.1
			c0.1,0,0.1,0.1,0.2,0.2c0.1,0,0.2,0.1,0.4,0.2c0.2,0.1,0.3,0.1,0.4,0.2c0.2,0.1,0.4,0.1,0.6,0.1c0,0,0.1,0,0.1,0c0,0,0,0,0.1,0
			c0.1,0,0.1,0,0.1,0c0.1,0,0.2,0,0.3,0c0,0,0.1,0,0.1,0c0.1,0,0.1,0,0.1,0c0,0,0.1,0,0.1,0c0.1,0,0.1,0,0.1-0.1
			c0,0,0.1-0.1,0.1-0.1c0,0,0-0.1,0-0.1c0,0,0,0,0,0c0,0,0.1,0.1,0.2,0.1c0.1,0.1,0.2,0.1,0.2,0.1c0.1,0,0.1,0,0.1-0.1
			c0-0.1,0-0.1,0-0.2c0,0-0.1-0.1-0.1-0.2c0-0.1,0-0.2,0-0.2C290,75.1,290,75,290,75z M289.7,73.1c0,0,0,0.1,0,0.1
			c0,0.4-0.1,0.6-0.1,0.5c0,0,0,0-0.2-0.1c-0.1,0-0.2-0.1-0.3-0.1c-0.1,0-0.1,0-0.2-0.1c0,0-0.1,0-0.1,0c-0.1,0-0.1,0-0.1,0l0,0l0,0
			c0,0,0,0,0,0c0,0,0,0,0.1-0.1c0,0,0.1-0.1,0.1-0.1c0,0,0,0,0.1-0.1c0,0,0.1-0.1,0.2-0.1s0.1-0.1,0.2-0.1c0,0,0.1-0.1,0.2-0.1
			c0.1-0.1,0.1-0.1,0.2-0.1c0,0,0,0,0,0l0,0l0,0c0,0,0,0,0,0C289.7,73,289.7,73.1,289.7,73.1C289.7,73.1,289.7,73.1,289.7,73.1z"/>
		<path class="st3" d="M292.7,77.5c0,0,0.3-0.4,0.8-1c0.5-0.6,0.8-1,0.9-1c0,0,0.1-0.1,0.1-0.1c0,0,0.1,0,0.1-0.1
			c0-0.1,0.1-0.1,0-0.2c0-0.1-0.1-0.1-0.2-0.2l-0.2-0.1l-0.2,0c-0.1,0-0.2,0-0.3,0.1c-0.1,0-0.1,0-0.2,0c0,0-0.1,0-0.2,0
			c-0.1,0-0.2,0-0.3,0.1c0,0-0.1,0-0.2,0c-0.1,0-0.2,0-0.3,0.1c0,0,0,0-0.1,0l0,0l0,0c0,0,0,0,0,0c0,0,0-0.1,0-0.2
			c0-0.1,0-0.2,0-0.2c0,0,0-0.1,0-0.1c0,0,0-0.1,0-0.1c0,0,0-0.1,0-0.1c0-0.1,0-0.1,0-0.1c0,0,0,0,0,0c0,0,0,0,0-0.1
			c0-0.1,0-0.1,0-0.2c0-0.1,0-0.1,0-0.1c0,0,0-0.1,0-0.1c0,0,0,0,0-0.1c0,0,0,0,0,0c0.1-0.1,0-0.2-0.2-0.3c-0.1-0.1-0.2-0.1-0.3-0.1
			c-0.1,0-0.1,0-0.1,0.1c0,0,0,0.1-0.1,0.2c0,0.1-0.3,0.4-0.8,1c-0.4,0.5-0.7,0.8-0.8,0.9c-0.1,0.1-0.2,0.2-0.2,0.2
			c-0.1,0-0.1,0.1-0.1,0.1c0,0,0,0.1,0.1,0.2c0,0,0.1,0.1,0.1,0.1c0.1,0.1,0.2,0.2,0.3,0.1c0.1,0,0.1-0.1,0.1-0.1c0,0,0-0.1,0.1-0.2
			c0,0,0.2-0.3,0.6-0.7c0.4-0.4,0.6-0.7,0.7-0.8l0,0l0,0c0,0,0,0,0,0c0,0,0,0,0,0c0,0,0,0,0,0.1c0,0,0,0.1,0,0.2c0,0.1,0,0.1,0,0.2
			c0,0.1,0,0.1,0,0.1s0,0.1,0,0.2c0,0.1,0,0.2,0,0.2c0,0.1,0,0.2,0.1,0.3c0,0,0.1,0,0.1,0.1c0.1,0,0.1,0,0.1,0c0,0,0,0,0,0
			c0,0,0.1,0,0.1,0c0.1,0,0.1,0,0.2,0c0,0,0.1,0,0.2,0c0.1,0,0.1,0,0.2,0c0.1,0,0.1,0,0.1,0c0,0,0,0,0.1,0c0,0,0.1,0,0.1,0
			c0.1,0,0.1,0,0.1,0l0,0l0,0c-0.1,0.1-0.4,0.4-0.8,0.8l-0.6,0.7l-0.1,0c-0.1,0-0.1,0.1-0.2,0.1c0,0,0,0.1,0,0.2
			c0,0,0.1,0.1,0.2,0.2c0.1,0.1,0.2,0.2,0.3,0.2c0.1,0,0.1-0.1,0.2-0.2C292.7,77.6,292.7,77.5,292.7,77.5z"/>
		<path class="st3" d="M296.3,76.9c-0.1-0.1-0.2-0.3-0.5-0.6c-0.3-0.3-0.5-0.5-0.5-0.5c-0.1-0.1-0.2,0-0.3,0.1c0,0,0,0,0,0.1l0,0.1
			l-1,0.9c-0.7,0.6-1,0.9-1.1,0.9c-0.1,0-0.1,0-0.1,0c0,0-0.1,0-0.1,0c-0.1,0.1-0.1,0.2,0,0.3c0,0,0.1,0.1,0.2,0.2
			c0.1,0.1,0.1,0.1,0.2,0.2c0.1,0,0.1,0,0.1,0c0,0,0.1-0.1,0.1-0.1c0-0.1,0.2-0.2,0.4-0.4l0.3-0.2l0,0c0,0,0.1,0.1,0.3,0.3
			c0.3,0.3,0.5,0.5,0.6,0.5c0.3,0.1,0.5,0.2,0.7,0.1c0,0,0.1,0,0.1,0c0.1,0,0.2,0,0.3-0.1c0.1,0,0.2-0.1,0.3-0.2
			c0.1-0.1,0.2-0.2,0.2-0.2c0.1-0.2,0.2-0.4,0.2-0.6C296.5,77.3,296.4,77.1,296.3,76.9z M295.9,77.6c0,0.1,0,0.1,0,0.1
			c0,0,0,0.1-0.1,0.1c0,0.1-0.1,0.1-0.1,0.2c-0.1,0-0.1,0.1-0.2,0.1c-0.2,0.1-0.4,0-0.6-0.1c0,0-0.1-0.1-0.3-0.3
			c-0.1-0.1-0.2-0.2-0.3-0.3c0,0,0,0,0-0.1c0,0,0,0,0-0.1c0,0,0.1-0.1,0.3-0.3c0,0,0.1-0.1,0.1-0.1l0.4-0.4l0,0c0,0,0,0,0,0
			c0,0,0,0,0,0c0,0,0.1,0.1,0.3,0.3l0.3,0.4l0,0.1c0,0.1,0,0.1,0,0.1C295.9,77.5,295.9,77.5,295.9,77.6z"/>
	</g>
</g>
</svg>
