<?xml version="1.0" encoding="utf-8"?>
<!-- Generator: Adobe Illustrator 24.3.0, SVG Export Plug-In . SVG Version: 6.00 Build 0)  -->
<svg version="1.1" id="Layer_1" xmlns="http://www.w3.org/2000/svg" xmlns:xlink="http://www.w3.org/1999/xlink" x="0px" y="0px"
	 viewBox="0 0 329.2 123.9" style="enable-background:new 0 0 329.2 123.9;" xml:space="preserve">
<style type="text/css">
	.st0{fill:#575756;}
	.st1{fill-rule:evenodd;clip-rule:evenodd;fill:#575756;}
</style>
<g id="layer1_3_" transform="translate(-74.2857,-244.61318)">
	<g id="g3093_3_" transform="matrix(4.2914381,0,0,4.2914381,-42.939891,542.84403)">
	</g>
	<path id="path54_3_" class="st0" d="M383.4,276l3.3,8.8l0,0.1c0,0-0.7,1.8-1.3,2.2c-0.5,0.2-1.5,0.2-1.9,0.2v1.7
		c0.7,0,2.4,0,2.9-0.3c0.7-0.4,0.8-0.6,1.3-1.6c0.5-1,4.4-11.1,4.4-11.1H390l-2.3,6.5l-2.1-6.5H383.4z"/>
	<path id="path4247_3_" class="st0" d="M316.7,273v11.7h4.4c3.7,0,6.2-2.6,6.2-5.9c0-3.3-2.5-5.8-6.2-5.8H316.7z M318.8,274.9h2.3
		c2.5,0,4.1,1.7,4.1,4c0,2.3-1.6,4-4.1,4l-2.3,0V274.9z"/>
	<path id="path4266_3_" class="st0" d="M344.4,275.8c-2.6,0-4.6,2.1-4.6,4.6c0,2.5,1.9,4.6,4.6,4.6c1.7,0,2.7-0.7,3.6-1.7l-1.2-1.2
		c-0.6,0.7-1.3,1.1-2.3,1.1c-1.6,0-2.6-1.3-2.6-2.9c0-1.6,1.1-2.8,2.5-2.8c1,0,1.7,0.5,2.3,1.1l1.3-1.4
		C347.1,276.4,346.1,275.8,344.4,275.8z"/>
	<path id="path4262_3_" class="st0" d="M328.5,276v8.8h2V276H328.5z"/>
	<path id="path4268_3_" class="st0" d="M353.2,275.8c-0.7,0-1.3,0.1-1.9,0.4c-0.6,0.2-1.1,0.6-1.5,1c-0.4,0.4-0.7,0.9-1,1.5
		c-0.2,0.6-0.4,1.2-0.4,1.8v0c0,0.6,0.1,1.2,0.4,1.8c0.2,0.6,0.6,1,1,1.5c0.4,0.4,0.9,0.7,1.5,1c0.6,0.2,1.2,0.4,1.9,0.4
		c0.7,0,1.3-0.1,1.9-0.4c0.6-0.2,1.1-0.6,1.5-1c0.4-0.4,0.7-0.9,1-1.5c0.2-0.6,0.4-1.1,0.4-1.8v0c0-0.6-0.1-1.2-0.4-1.8
		c-0.2-0.6-0.6-1-1-1.5c-0.4-0.4-0.9-0.7-1.5-1C354.5,275.9,353.9,275.8,353.2,275.8L353.2,275.8z M353.2,277.6
		c0.4,0,0.8,0.1,1.1,0.2c0.3,0.1,0.6,0.4,0.9,0.6c0.2,0.3,0.4,0.6,0.6,0.9c0.1,0.3,0.2,0.7,0.2,1.1v0c0,0.4-0.1,0.7-0.2,1.1
		c-0.1,0.3-0.3,0.6-0.5,0.9c-0.2,0.3-0.5,0.5-0.8,0.6c-0.3,0.2-0.7,0.2-1.1,0.2c-0.4,0-0.8-0.1-1.1-0.2c-0.3-0.2-0.6-0.4-0.9-0.6
		c-0.2-0.3-0.4-0.6-0.6-0.9c-0.1-0.3-0.2-0.7-0.2-1.1v0c0-0.4,0.1-0.8,0.2-1.1c0.1-0.3,0.3-0.6,0.5-0.9c0.2-0.3,0.5-0.5,0.8-0.6
		C352.4,277.6,352.8,277.6,353.2,277.6L353.2,277.6z"/>
	<path id="path4270_3_" class="st0" d="M335.5,275.8c-0.4,0-0.8,0.1-1.2,0.2c-0.4,0.1-0.7,0.3-1,0.5c-0.3,0.2-0.5,0.5-0.7,0.8
		c-0.2,0.3-0.2,0.7-0.2,1.1v0c0,0.4,0.1,0.8,0.3,1.1c0.2,0.3,0.4,0.5,0.6,0.7c0.3,0.2,0.6,0.4,0.9,0.5c0.3,0.1,0.7,0.2,1,0.3
		c0.3,0.1,0.5,0.2,0.7,0.2c0.2,0.1,0.5,0.2,0.6,0.3c0.2,0.1,0.3,0.2,0.4,0.3c0.1,0.1,0.2,0.3,0.2,0.4v0c0,0.3-0.1,0.5-0.4,0.7
		c-0.2,0.2-0.6,0.3-1,0.3c-0.5,0-0.9-0.1-1.4-0.3c-0.5-0.2-1-0.5-1.5-0.8l-0.9,1.4c0.6,0.4,1.2,0.8,1.8,1c0.7,0.2,1.3,0.3,1.9,0.3
		c0.5,0,0.9-0.1,1.3-0.2c0.4-0.1,0.7-0.3,1-0.5c0.3-0.2,0.5-0.5,0.7-0.9c0.2-0.3,0.3-0.8,0.3-1.2v0c0-0.4-0.1-0.7-0.3-1
		c-0.2-0.3-0.4-0.5-0.6-0.7c-0.3-0.2-0.6-0.4-0.9-0.5c-0.3-0.1-0.6-0.2-1-0.4c-0.3-0.1-0.5-0.2-0.7-0.3c-0.2-0.1-0.5-0.2-0.6-0.3
		c-0.2-0.1-0.3-0.2-0.4-0.3c-0.1-0.1-0.2-0.3-0.2-0.4v0c0-0.3,0.1-0.5,0.3-0.6c0.2-0.2,0.5-0.2,0.9-0.2c0.4,0,0.8,0.1,1.2,0.2
		c0.4,0.2,0.9,0.4,1.3,0.6l0.8-1.4c-0.5-0.3-1-0.6-1.6-0.7C336.6,275.9,336,275.8,335.5,275.8L335.5,275.8z"/>
	<path id="path4272_3_" class="st0" d="M371.6,275.8c-0.6,0-1.2,0.1-1.7,0.4c-0.5,0.2-1,0.6-1.4,1c-0.4,0.4-0.7,0.9-0.9,1.5
		c-0.2,0.6-0.3,1.2-0.3,1.8v0c0,0.7,0.1,1.3,0.4,1.9c0.2,0.6,0.6,1,1,1.4c0.4,0.4,0.9,0.7,1.4,0.9c0.6,0.2,1.1,0.3,1.8,0.3
		c0.8,0,1.5-0.1,2.1-0.5c0.6-0.3,1.1-0.7,1.5-1.2l-1.2-1.1c-0.4,0.3-0.7,0.6-1.1,0.8c-0.4,0.2-0.8,0.3-1.3,0.3
		c-0.7,0-1.2-0.2-1.7-0.6c-0.5-0.4-0.8-0.9-0.9-1.7h6.5c0-0.1,0-0.2,0-0.3c0-0.1,0-0.2,0-0.3c0-0.6-0.1-1.2-0.3-1.8
		c-0.2-0.6-0.4-1.1-0.8-1.5c-0.4-0.4-0.8-0.8-1.3-1C372.9,275.9,372.3,275.8,371.6,275.8z M371.6,277.4c0.3,0,0.6,0.1,0.9,0.2
		c0.3,0.1,0.5,0.3,0.7,0.5c0.2,0.2,0.3,0.5,0.4,0.7c0.1,0.3,0.2,0.4,0.2,0.7h-4.5c0.1-0.7,0.3-1,0.7-1.5
		C370.5,277.7,371,277.4,371.6,277.4z"/>
	<path id="path4274_3_" class="st0" d="M358,276l3.6,8.9h1.8l3.6-8.9H365l-2.4,6.5l-2.4-6.5H358z"/>
	<path id="path4276_3_" class="st0" d="M377.4,276v8.8h2v-3.4c0-0.6,0.1-1.1,0.2-1.5c0.6-1.6,2.3-2.1,3.2-2.2l-0.7-1.7
		c-0.7,0.1-2,0.5-2.7,1.4V276H377.4z"/>
</g>
<g>
	<path class="st1" d="M17.2,97.8l3.7,4.7c1.9,2.3,6,3.4,9,2.3l0,0c-3.4,1.8-7.9,0.9-10.8-1.4c-2-1.6-3.2-3.8-4.8-5.6v3.7
		c0,0.3,0.2,0.5,0.2,0.5l-1.5,0c0,0,0.2-0.2,0.2-0.5v-8.8C14.6,94.4,15.8,96.1,17.2,97.8"/>
	<path class="st1" d="M85.4,101.1c0-0.6,0.5-1.1,1.1-1.1c0.6,0,1.1,0.5,1.1,1.1c0,0.6-0.5,1.1-1.1,1.1
		C85.9,102.2,85.4,101.7,85.4,101.1 M86.5,102.1c0.5,0,1-0.4,1-1s-0.4-1-1-1c-0.5,0-1,0.4-1,1S86,102.1,86.5,102.1"/>
	<path class="st1" d="M86.1,100.4h0.6c0.3,0,0.4,0.1,0.4,0.3c0,0.2-0.2,0.3-0.2,0.3v0c0.1,0,0.2,0.1,0.2,0.3c0,0.1,0,0.3,0.1,0.3
		h-0.2c0-0.1,0-0.1,0-0.2c0-0.2,0-0.3-0.2-0.3h-0.3v0.5h-0.2V100.4z M86.3,101h0.4c0.1,0,0.2-0.1,0.2-0.2c0-0.2-0.1-0.2-0.2-0.2
		h-0.4V101z"/>
	<path class="st1" d="M80.9,102.2c-0.6,0-4.5-0.1-4.5-4.6c0-4.4,3.9-4.5,4.5-4.5c0.6,0,4.5,0.1,4.5,4.5
		C85.4,102.1,81.5,102.2,80.9,102.2 M80.9,101c0.2,0,2,0.1,2-3.5c0-3.3-1.8-3.2-2-3.2h0c-0.3,0-2-0.1-2.1,3.2
		C78.9,101.1,80.7,101,80.9,101L80.9,101z"/>
	<path class="st1" d="M75.3,93.7v1.1c-0.5-0.2-0.7-0.3-1.2-0.5c-0.4-0.1-2-0.5-2.8,0.3c-0.3,0.3-0.4,0.9,0.2,1.4
		c0.9,0.6,2.2,0.9,3.3,1.7c0.7,0.6,0.9,1.2,0.8,2.2c-0.2,1-1.3,1.8-2.3,2.1c-1.5,0.3-3.1,0.2-4.4-0.4l0-1.1c1.2,0.5,3.1,1.1,4.2,0.1
		c0.3-0.3,0.5-0.7,0.3-1.1c-0.3-0.8-2.4-1.3-3.7-2.2c-1.3-0.8-1.2-2.2-0.7-2.9C70.3,92.7,73.4,93.2,75.3,93.7"/>
	<path class="st1" d="M67.9,93.7l0,1.1c-0.5-0.2-0.7-0.3-1.2-0.5c-0.4-0.1-2-0.5-2.8,0.3c-0.3,0.3-0.4,0.9,0.2,1.4
		c0.9,0.6,2.2,0.9,3.3,1.7c0.7,0.6,0.9,1.2,0.8,2.2c-0.2,1-1.3,1.8-2.3,2.1c-1.5,0.3-3.1,0.2-4.4-0.4l0-1.1c1.2,0.5,3.1,1.1,4.2,0.1
		c0.3-0.3,0.5-0.7,0.3-1.1c-0.3-0.8-2.4-1.3-3.7-2.2c-1.3-0.8-1.2-2.2-0.7-2.9C62.8,92.7,65.9,93.2,67.9,93.7"/>
	<path class="st1" d="M37.2,93.7v1.1c-0.5-0.2-0.7-0.3-1.2-0.5c-0.4-0.1-2-0.5-2.8,0.3c-0.3,0.3-0.4,0.9,0.2,1.4
		c0.9,0.6,2.2,0.9,3.3,1.7c0.7,0.6,0.9,1.2,0.8,2.2c-0.2,1-1.3,1.8-2.3,2.1c-1.5,0.3-3.1,0.2-4.4-0.4l0-1.1c1.2,0.5,3.1,1.1,4.2,0.1
		c0.3-0.3,0.5-0.7,0.3-1.1c-0.3-0.8-2.4-1.3-3.7-2.2c-1.3-0.8-1.2-2.2-0.7-2.9C32.2,92.7,35.3,93.2,37.2,93.7"/>
	<path class="st1" d="M18.1,97.6c1.4,1.8,2.6,3.4,4,5.1v-8.8c0-0.3,0.2-0.5,0.2-0.5l-1.5,0c0,0,0.2,0.2,0.2,0.5v3.7
		c-1.3-1.3-2.2-2.9-3.4-4.3c-0.2-0.2-1.2-1.3-1.5-1.6c-2.2-2.2-5.8-3.1-9.2-1.6l0,0.1c1.1-0.4,2.8-0.4,4.4,0.3c1,0.4,1.9,0.9,2.8,2
		C14.3,92.7,18.1,97.6,18.1,97.6"/>
	<path class="st1" d="M26.2,101.2c1.2,0.1,2.6-0.1,3.8-0.1l0,1h-6.3c0,0,0.2-0.2,0.2-0.5v-7.7c0-0.3-0.2-0.5-0.2-0.5h6.3l0,1
		c-1.2,0-2.6-0.2-3.8-0.1c0,0,0,2.7,0,2.9c1,0.1,2.1,0.1,3,0v1c-0.9-0.1-2.1-0.1-3,0l0,0.3L26.2,101.2z"/>
	<path class="st1" d="M56.9,101.2c1.2,0.1,2.6-0.1,3.8-0.1v1h-6.3c0,0,0.2-0.2,0.2-0.5v-7.7c0-0.3-0.2-0.5-0.2-0.5h6.3v1
		c-1.2,0-2.6-0.2-3.8-0.1c0,0,0,2.7,0,2.9c1,0.1,2.1,0.1,3,0v1c-0.9-0.1-2.1-0.1-3,0l0,0.3L56.9,101.2z"/>
	<path class="st1" d="M48.4,98.5l0,3.1c0,0.3,0.2,0.6,0.2,0.6h-2.7c0,0,0.2-0.2,0.2-0.5v-7.7c0-0.3-0.2-0.5-0.2-0.5h4.6
		c1.2,0,2.5,0.7,2.6,2.2c0,1.2-0.5,1.9-1.3,2.3c-0.2,0.1-0.1,0.1-0.2,0.1c0.6,1.3,1.1,2.3,1.8,3.6c0.1,0.3,0.4,0.5,0.4,0.5h-2.8
		c0,0,0.2-0.2,0-0.5c0,0-1-2.3-1.4-3.1L48.4,98.5z M48.4,94.4v3c0.8,0,1.7,0.1,2.2-0.5c0.4-0.6,0.4-1.4,0.1-1.9
		C50.1,94.1,48.4,94.4,48.4,94.4"/>
	<path class="st1" d="M40.9,101.5c0,0.3,0.2,0.6,0.2,0.6h-2.7c0,0,0.2-0.2,0.2-0.5v-7.7c0-0.3-0.2-0.5-0.2-0.5h4.4
		c1.1,0,2,0.5,2.3,1.6c0.3,0.9,0.2,2.2-0.4,2.9c-0.9,1.2-3.8,1-3.8,1L40.9,101.5z M40.9,94.4l0,3.3c0.8,0.1,1.7,0.1,2.2-0.5
		c0.4-0.6,0.4-1.7,0.1-2.3C42.6,94.1,40.9,94.4,40.9,94.4"/>
</g>
<g>
	<path class="st0" d="M262.7,100.6l0-4.6l-1,0c-0.7,1-1.9,1.4-3.4,1.4c-1.4,0-3-0.5-4.4-1.5l1.2-1.9c1.1,0.8,2.3,1.2,3.2,1.2
		c0.8,0,1.2-0.3,1.2-0.8l0,0c0-0.6-1-0.8-2.1-1.2c-1-0.3-2.2-0.7-2.7-1.7l-2.5,0l0-7c-0.1,0.1-0.2,0.2-0.3,0.2
		c-4.8,4-5.4,11-1.5,15.8c3.4,4.1,9.1,5.2,13.7,2.8C263.3,103,262.7,102.2,262.7,100.6"/>
	<path class="st0" d="M271.5,82.4c-2.6-0.2-11-0.7-16.3,0.8l0,5c0.7-0.8,1.8-1.2,3-1.2c1.3,0,2.7,0.4,3.8,1.2l-1.1,2
		c-1-0.6-2-0.9-2.8-0.9c-0.7,0-1.1,0.3-1.1,0.7l0,0c0,0.6,1,0.8,2.1,1.2c1.3,0.4,2.8,1,3,2.5l0.5,0l0-2.5l2.8,0l0,2.5l2.3,0l0,2.4
		l-2.3,0l0,4.2c0,0.6,0.3,0.9,0.9,0.9c0.3,0,0.6,0,0.8-0.1c3.4-4.3,4.7-14.7,5-17.7C272.3,82.8,271.9,82.4,271.5,82.4"/>
	<rect x="276" y="82.1" class="st0" width="1.3" height="6.2"/>
	<path class="st0" d="M278.6,87L278.6,87c0-1,0.8-1.5,1.8-1.5c0.5,0,0.8,0.1,1.1,0.2v-0.1c0-0.5-0.3-0.8-1-0.8
		c-0.5,0-0.8,0.1-1.2,0.2l-0.3-1c0.5-0.2,1-0.4,1.8-0.4c0.7,0,1.2,0.2,1.5,0.5c0.3,0.3,0.5,0.8,0.5,1.4v2.6h-1.2v-0.5
		c-0.3,0.3-0.7,0.6-1.4,0.6C279.3,88.3,278.6,87.9,278.6,87 M281.5,86.7v-0.2c-0.2-0.1-0.5-0.2-0.8-0.2c-0.5,0-0.9,0.2-0.9,0.6v0
		c0,0.3,0.3,0.5,0.7,0.5C281.1,87.5,281.5,87.1,281.5,86.7"/>
	<path class="st0" d="M275.6,95.4l0.5-0.8c0.5,0.4,1,0.5,1.4,0.5c0.4,0,0.5-0.1,0.5-0.3v0c0-0.3-0.4-0.4-0.9-0.5
		c-0.6-0.2-1.4-0.5-1.4-1.4v0c0-0.9,0.7-1.4,1.7-1.4c0.6,0,1.2,0.2,1.7,0.5l-0.5,0.9c-0.4-0.3-0.9-0.4-1.2-0.4
		c-0.3,0-0.5,0.1-0.5,0.3v0c0,0.3,0.4,0.4,0.9,0.5c0.6,0.2,1.4,0.5,1.4,1.3v0c0,1-0.8,1.5-1.7,1.5C276.9,96.1,276.2,95.9,275.6,95.4
		"/>
	<path class="st0" d="M280.3,94.7L280.3,94.7c0-1,0.8-1.5,1.8-1.5c0.5,0,0.8,0.1,1.1,0.2v-0.1c0-0.5-0.3-0.8-1-0.8
		c-0.5,0-0.8,0.1-1.3,0.2l-0.3-1c0.5-0.2,1-0.4,1.8-0.4c0.7,0,1.2,0.2,1.5,0.5c0.3,0.3,0.5,0.8,0.5,1.4V96h-1.2v-0.5
		c-0.3,0.3-0.7,0.6-1.4,0.6C281,96.1,280.3,95.6,280.3,94.7 M283.2,94.4v-0.2c-0.2-0.1-0.5-0.2-0.8-0.2c-0.5,0-0.9,0.2-0.9,0.6v0
		c0,0.3,0.3,0.5,0.7,0.5C282.8,95.2,283.2,94.9,283.2,94.4"/>
	<path class="st0" d="M285.8,91.5h1.3v0.6c0.3-0.4,0.7-0.7,1.3-0.7c1,0,1.5,0.6,1.5,1.7V96h-1.3v-2.5c0-0.6-0.3-0.9-0.8-0.9
		s-0.8,0.3-0.8,0.9V96h-1.3V91.5z"/>
	<path class="st0" d="M291.6,94.8v-2.1h-0.5v-1.1h0.5v-1.2h1.3v1.2h1.1v1.1h-1.1v1.9c0,0.3,0.1,0.4,0.4,0.4c0.2,0,0.4-0.1,0.6-0.2v1
		c-0.3,0.2-0.6,0.3-1,0.3C292.1,96.1,291.6,95.8,291.6,94.8"/>
	<path class="st0" d="M294.9,94.7L294.9,94.7c0-1,0.8-1.5,1.8-1.5c0.5,0,0.8,0.1,1.1,0.2v-0.1c0-0.5-0.3-0.8-1-0.8
		c-0.5,0-0.8,0.1-1.2,0.2l-0.3-1c0.5-0.2,1-0.4,1.8-0.4c0.7,0,1.2,0.2,1.5,0.5c0.3,0.3,0.5,0.8,0.5,1.4V96h-1.2v-0.5
		c-0.3,0.3-0.7,0.6-1.4,0.6C295.6,96.1,294.9,95.6,294.9,94.7 M297.9,94.4v-0.2c-0.2-0.1-0.5-0.2-0.8-0.2c-0.5,0-0.9,0.2-0.9,0.6v0
		c0,0.3,0.3,0.5,0.7,0.5C297.5,95.2,297.9,94.9,297.9,94.4"/>
	<path class="st0" d="M276.2,102.5v-2.1h-0.5v-1.1h0.5v-1.2h1.3v1.2h1.1v1.1h-1.1v1.9c0,0.3,0.1,0.4,0.4,0.4c0.2,0,0.4-0.1,0.6-0.2
		v1c-0.3,0.2-0.6,0.3-1,0.3C276.7,103.9,276.2,103.6,276.2,102.5"/>
	<path class="st0" d="M279.5,101.6L279.5,101.6c0-1.3,0.9-2.4,2.2-2.4c1.5,0,2.2,1.2,2.2,2.5c0,0.1,0,0.2,0,0.3h-3.1
		c0.1,0.6,0.5,0.9,1.1,0.9c0.4,0,0.7-0.1,1.1-0.5l0.7,0.7c-0.4,0.5-1,0.8-1.8,0.8C280.5,103.9,279.5,103,279.5,101.6 M282.7,101.2
		c-0.1-0.6-0.4-1-1-1c-0.5,0-0.9,0.4-1,1H282.7z"/>
	<path class="st0" d="M285.3,99.3h1.3v0.9c0.3-0.6,0.7-1,1.4-1v1.3H288c-0.9,0-1.4,0.5-1.4,1.6v1.7h-1.3V99.3z"/>
	<path class="st0" d="M288.9,101.6L288.9,101.6c0-1.3,0.9-2.4,2.2-2.4c1.5,0,2.2,1.2,2.2,2.5c0,0.1,0,0.2,0,0.3h-3.2
		c0.1,0.6,0.5,0.9,1.1,0.9c0.4,0,0.7-0.1,1.1-0.5l0.7,0.7c-0.4,0.5-1,0.8-1.8,0.8C289.9,103.9,288.9,103,288.9,101.6 M292.1,101.2
		c-0.1-0.6-0.4-1-1-1c-0.5,0-0.9,0.4-1,1H292.1z"/>
	<path class="st0" d="M294.3,103.2l0.5-0.8c0.5,0.4,1,0.5,1.4,0.5c0.4,0,0.5-0.1,0.5-0.3v0c0-0.3-0.4-0.4-0.9-0.5
		c-0.6-0.2-1.4-0.5-1.4-1.4v0c0-0.9,0.7-1.4,1.7-1.4c0.6,0,1.2,0.2,1.7,0.5l-0.5,0.9c-0.4-0.3-0.9-0.4-1.2-0.4
		c-0.3,0-0.5,0.1-0.5,0.3v0c0,0.3,0.4,0.4,0.9,0.5c0.6,0.2,1.4,0.5,1.4,1.3v0c0,1-0.8,1.5-1.7,1.5
		C295.6,103.9,294.9,103.7,294.3,103.2"/>
	<path class="st0" d="M299.3,97.7h1.4v1.1h-1.4V97.7z M299.3,99.3h1.3v4.5h-1.3V99.3z"/>
	<path class="st0" d="M302.4,102.5v-2.1h-0.5v-1.1h0.5v-1.2h1.3v1.2h1.1v1.1h-1.1v1.9c0,0.3,0.1,0.4,0.4,0.4c0.2,0,0.4-0.1,0.6-0.2
		v1c-0.3,0.2-0.6,0.3-1,0.3C302.9,103.9,302.4,103.6,302.4,102.5"/>
	<path class="st0" d="M305.8,102.5L305.8,102.5c0-1,0.8-1.5,1.8-1.5c0.5,0,0.8,0.1,1.1,0.2v-0.1c0-0.5-0.3-0.8-1-0.8
		c-0.5,0-0.8,0.1-1.3,0.2l-0.3-1c0.5-0.2,1-0.4,1.8-0.4c0.7,0,1.2,0.2,1.5,0.5c0.3,0.3,0.5,0.8,0.5,1.4v2.6h-1.2v-0.5
		c-0.3,0.3-0.7,0.6-1.4,0.6C306.5,103.9,305.8,103.4,305.8,102.5 M308.7,102.2V102c-0.2-0.1-0.5-0.2-0.8-0.2c-0.5,0-0.9,0.2-0.9,0.6
		v0c0,0.3,0.3,0.5,0.7,0.5C308.3,103,308.7,102.7,308.7,102.2"/>
</g>
<g id="XMLID_38_">
	<g id="XMLID_88_">
		<path id="XMLID_89_" class="st0" d="M168.6,97.1c-0.1-0.8,3.1-7.3,3.1-7.3c1-2.2,2.3-5,3.8-8.4c-0.7,0.2-1.7,0.4-3,0.6
			c-0.7,1.8-5.7,13.1-6,13.8c-0.3,0.6-0.9,2-1.3,2.4c-0.3,0.5-0.8,1-1.5,1.6c-0.9,0.7-1.3,1.1-2,1.3c0,0-0.7,0.3-1-0.1
			c-0.5-0.5,2.3-5.8,4.2-10c2-4.7,3.6-8,4.3-9.8c-0.7,0.2-1.7,0.5-3,0.9c-2.2,5.2-3.7,8.9-4.8,11.1c-1.1,2.2-1.7,3.5-2,3.8
			c-0.8,1.3-1.6,2.4-2.6,3.3c-1.1,1.1-1.5,1.4-1.9,1.4c-0.2,0-0.3-0.2-0.2-0.4c0.5-1.3,1.1-2.7,2.1-4.6c1.2-2.4,1.8-3.5,2.1-4.1
			c-0.2-0.1-0.4-0.2-0.6-0.2c-0.1,0-0.3,0.1-0.7,0.2c-0.4,0.1-0.7,0.2-1,0.1c-2.5,4.7-6.3,9.4-7.5,9.4c-1.2,0,1.1-3.1,2.2-5
			c1.3-2.2,2-3.2,2.3-4c-0.2,0-0.7,0.2-1.5,0.4c-0.6,0.2-1.2,0.3-1.7,0.3c-1.3,2.5-2.1,3.6-3.7,5.9l-0.4,0.6c0,0-0.1,0.2-0.4,0.5
			c-0.1,0.2-0.5,0.6-0.6,0.7c-0.6,0.6-2.1,1.9-2.2,0.1c7-8.1,8.4-16.9,8.4-16.9s0.2-1.4,0.1-1.9c-0.3-1-1.3-1.1-1.3-1.1
			c-2.4-0.1-3,2-3,2c3.9-1.5-0.5,7.4-0.5,7.4c-4.4,9.6-8.1,12-8.8,11.8c-1.5-0.4,1.8-3.5,5.7-12.6c4-9.4-3.7-6.5-3.7-6.5
			c-5,1.7-7.3,9.1-7.3,9.1c-1.5,5.8,2.3,4.1,2.3,4.1c3.1-1.6,4.3-6.2,4.3-6.2c0.8-2.4-0.9-1.9-0.9-1.9c1.2,1-1.1,4.6-1.6,5.3
			c-0.4,0.5-2,2.5-3,2c-1.8-0.8,0.2-5,0.6-5.7c0.7-1.2,1.5-2.6,3-3.8c1.2-1,2.5-1.6,3.6-1.6c1.8,0.1,1.4,1.4,1.4,1.4
			c-0.1,0.8-2.4,6-2.4,6c-1.6,3.5-4.1,8.6-4.1,8.6c-1.8,3.3-0.7,4-0.3,4.1c1.7,0.6,4.1-0.7,5.7-2.1c0.7,0.9,0.8,1.1,1.3,1.4
			c0.8,0.2,1.4-0.1,1.9-0.6c0.5-0.5,0.8-0.8,1-1.3c0.9-1.2,1.4-1.9,1.6-2.2c-0.2,0.4-0.7,1.9-0.7,2.4c0,0.6,0.4,1,1.1,1.1
			c1,0.1,1.8-0.6,2.6-1.3c0.7-0.6,1.4-1.4,2.1-2c-0.3,0.6-0.4,1.1-0.4,1.6c0,0.4,0.3,1.2,1.4,1.1c1-0.1,1.9-0.8,3.4-2.1l1.3-1.6
			c0.7-0.8,1-1.3,1-1.3c-0.5,1.3-0.8,2.3-0.7,2.9c0.1,0.6,0.3,1,0.8,1.2c0.5,0.1,1.1,0.1,1.7-0.1c1.2-0.3,1.7-0.8,2.8-1.8
			c0,0,0.7-0.9,1.5-1.7c-0.2,0.5-0.7,1.6-1.4,3.2c0.3,0,0.5,0,0.8,0c0.7-0.1,1.3-0.4,1.7-1.1c0.7-1.1,1.1-1.6,1.2-1.6
			c0.4,1.6,1.3,2.4,2.8,2.2c1.4-0.1,2.4-0.7,3.2-1.8l-0.1-1c-1,0.8-1.4,1.2-1.9,1.2c-0.8,0-1.5-0.7-2.2-2.4c3.1-0.8,5.2-2.3,6.1-4.6
			l-2.6,0.7C171.5,95.8,170.1,96.9,168.6,97.1z"/>
	</g>
	<g id="XMLID_39_">
		<path id="XMLID_86_" class="st0" d="M135.5,110.9h-0.3l-0.3-2.1h0.3l0.2,1.3c0,0.1,0,0.4,0,0.4h0c0,0,0-0.3,0-0.4l0.2-1.3h0.3
			L135.5,110.9z"/>
		<path id="XMLID_84_" class="st0" d="M138.1,110.9c-0.3,0-0.4-0.2-0.4-0.4v-1.7h0.3v1.6c0,0.1,0.1,0.2,0.2,0.2
			c0.1,0,0.2-0.1,0.2-0.2v-1.6h0.3v1.7C138.5,110.8,138.4,110.9,138.1,110.9z"/>
		<path id="XMLID_82_" class="st0" d="M140.4,110.9v-2.1h0.3v1.8h0.4v0.2H140.4z"/>
		<path id="XMLID_75_" class="st0" d="M143.6,110.9l-0.3-1l-0.1,0.2v0.8h-0.3v-2.1h0.3v0.9h0c0,0,0-0.2,0.1-0.3l0.3-0.6h0.3
			l-0.4,0.8l0.4,1.3H143.6z"/>
		<path id="XMLID_65_" class="st0" d="M145.6,110.9v-2.1h0.7v0.3h-0.4v0.6h0.4v0.3h-0.4v0.7h0.4v0.2H145.6z"/>
		<path id="XMLID_62_" class="st0" d="M148.7,110.1v0.8h-0.3v-0.8l-0.4-1.3h0.3l0.2,0.7c0,0.1,0,0.3,0,0.3h0c0,0,0-0.2,0.1-0.3
			l0.2-0.7h0.3L148.7,110.1z"/>
		<path id="XMLID_59_" class="st0" d="M150.8,110.9v-2.1h0.7v0.3h-0.4v0.6h0.4v0.3h-0.4v0.7h0.4v0.2H150.8z"/>
		<path id="XMLID_57_" class="st0" d="M154.5,110.9h-0.3l-0.1-1.1c0-0.1,0-0.4,0-0.4h0c0,0,0,0.3,0,0.4l-0.1,1.1h-0.3l-0.3-2.1h0.3
			l0.1,1.3c0,0.1,0,0.4,0,0.4h0c0,0,0-0.3,0-0.4l0.2-1.3h0.3l0.2,1.3c0,0.1,0,0.4,0,0.4h0c0,0,0-0.3,0-0.4l0.1-1.3h0.3L154.5,110.9z
			"/>
		<path id="XMLID_55_" class="st0" d="M156.6,110.9v-2.1h0.7v0.3h-0.4v0.6h0.4v0.3h-0.4v0.7h0.4v0.2H156.6z"/>
		<path id="XMLID_52_" class="st0" d="M159.7,110.9l-0.1-0.5h-0.3l-0.1,0.5h-0.3l0.3-2.1h0.4l0.3,2.1H159.7z M159.5,109.5
			c0-0.1,0-0.4,0-0.4h0C159.4,109.1,159.4,109.4,159.5,109.5l-0.2,0.6h0.2L159.5,109.5z"/>
		<path id="XMLID_49_" class="st0" d="M162.3,110.9v-0.7c0-0.1-0.1-0.2-0.2-0.2H162v0.9h-0.3v-2.1h0.4c0.3,0,0.4,0.2,0.4,0.5v0.3
			c0,0.1-0.1,0.3-0.2,0.3c0.1,0,0.2,0.2,0.2,0.3v0.7H162.3z M162.3,109.3c0-0.1-0.1-0.2-0.2-0.2H162v0.7h0.2c0.1,0,0.2-0.1,0.2-0.2
			V109.3z"/>
		<path id="XMLID_47_" class="st0" d="M164.5,110.9v-0.3h0.3v0.3H164.5z"/>
		<path id="XMLID_45_" class="st0" d="M167.1,110.9c-0.3,0-0.4-0.2-0.4-0.4v-1.2c0-0.3,0.2-0.4,0.4-0.4s0.4,0.2,0.4,0.4v0.2h-0.3
			v-0.2c0-0.1-0.1-0.2-0.2-0.2s-0.2,0.1-0.2,0.2v1.2c0,0.1,0.1,0.2,0.2,0.2s0.2-0.1,0.2-0.2v-0.2h0.3v0.2
			C167.5,110.8,167.4,110.9,167.1,110.9z"/>
		<path id="XMLID_42_" class="st0" d="M169.8,110.9c-0.3,0-0.4-0.2-0.4-0.4v-1.2c0-0.3,0.2-0.4,0.4-0.4s0.4,0.2,0.4,0.4v1.2
			C170.2,110.8,170.1,110.9,169.8,110.9z M170,109.3c0-0.1-0.1-0.2-0.2-0.2s-0.2,0.1-0.2,0.2v1.2c0,0.1,0.1,0.2,0.2,0.2
			s0.2-0.1,0.2-0.2V109.3z"/>
		<path id="XMLID_40_" class="st0" d="M173.2,110.9v-1.4c0-0.2,0-0.4,0-0.4h0l-0.3,1.8h-0.3l-0.3-1.8h0c0,0,0,0.2,0,0.4v1.4h-0.3
			v-2.1h0.4l0.2,1.3c0,0.2,0,0.4,0,0.4h0c0,0,0-0.3,0-0.4l0.2-1.3h0.4v2.1H173.2z"/>
	</g>
</g>
<g>
	<g>
		<path class="st0" d="M49.6,20.6c-2.5-2-6.1-1.7-8,0.7c-0.1,0.1-0.2,0.2-0.2,0.3c0.5,0.6,1,1.2,1.4,2c2.3,4.6,6.1,3.7,7.4,3.2
			c0.2-1.3-0.2-2.6-1-3.7c-0.8-1-1.8-1.8-3.1-2c1.4,0.2,2.7,1,3.5,2.2c0.8,1.1,1.2,2.4,1,3.8c0,0,0,0,0,0c0,0,0,0.1,0,0.1
			c-0.1,0.4-0.2,0.9-0.3,1.3c-0.1,0.3-0.3,0.6-0.4,0.9c0.2-0.2,0.4-0.4,0.6-0.6C52.5,26.2,52.1,22.6,49.6,20.6z"/>
	</g>
	<path class="st0" d="M46.8,28.6c-1.3,0-2.5,0.4-3.4,1.2v-0.1c0-0.6-0.5-1-1-1c-0.6,0-1.1,0.5-1.1,1c0,0,0,4,0,4.1l0,5.4
		c0,0.6,0.5,1,1,1c0.6,0,1-0.5,1-1V34c0-1.9,1.5-3.4,3.4-3.4c0.6,0,1-0.5,1-1C47.8,29,47.4,28.6,46.8,28.6z"/>
	<path class="st0" d="M38.2,34.4c0-3.2-2.6-5.8-5.8-5.8c-3.2,0-5.8,2.6-5.8,5.8c0,3.2,2.6,5.8,5.8,5.8c1.4,0,2.7-0.5,3.7-1.3v0.3
		c0,0.6,0.5,1,1,1c0.6,0,1-0.5,1-1C38.2,39.1,38.2,34.4,38.2,34.4z M32.5,38.1c-2,0-3.7-1.7-3.7-3.7s1.7-3.7,3.7-3.7
		c2,0,3.7,1.7,3.7,3.7v0C36.1,36.4,34.5,38.1,32.5,38.1z"/>
	<path class="st0" d="M67.8,34.4c0-3.2-2.6-5.8-5.8-5.8c-3.2,0-5.8,2.6-5.8,5.8c0,3.2,2.6,5.8,5.8,5.8c1.4,0,2.7-0.5,3.7-1.3v0.3
		c0,0.6,0.5,1,1,1c0.6,0,1-0.5,1-1C67.8,39.1,67.8,34.4,67.8,34.4z M62,38.1c-2,0-3.7-1.7-3.7-3.7s1.7-3.7,3.7-3.7
		c2,0,3.7,1.7,3.7,3.7v0C65.7,36.4,64.1,38.1,62,38.1z"/>
	<path class="st0" d="M55.8,28.6c-2.9,0-5.3,2.1-5.5,5l0,1.2c-0.1,1.8-1.6,3.2-3.4,3.2c-0.6,0-1,0.5-1,1c0,0.6,0.5,1,1,1
		c2.9,0,5.3-2.3,5.5-5.2l0-1.3c0.1-1.8,1.6-3,3.4-3c0.6,0,1-0.5,1-1C56.8,29.1,56.4,28.6,55.8,28.6z"/>
</g>
<g>
	<g>
		<path class="st0" d="M132.9,40.9L132.9,40.9c0-1.9,1.4-3.5,3.4-3.5c2.3,0,3.3,1.7,3.3,3.6c0,0.1,0,0.3,0,0.5h-4.7
			c0.2,0.8,0.8,1.3,1.7,1.3c0.6,0,1.1-0.2,1.7-0.7l1.1,0.9c-0.6,0.8-1.6,1.2-2.8,1.2C134.4,44.3,132.9,42.9,132.9,40.9z M137.7,40.3
			c-0.1-0.8-0.6-1.4-1.4-1.4c-0.8,0-1.3,0.6-1.5,1.4H137.7z"/>
		<path class="st0" d="M142.5,35.2h2v1.7h-2V35.2z M142.6,37.6h1.9v6.6h-1.9V37.6z"/>
		<path class="st0" d="M148.1,42.3v-3.1h-0.8v-1.6h0.8v-1.7h1.9v1.7h1.6v1.6H150V42c0,0.4,0.2,0.6,0.6,0.6c0.4,0,0.7-0.1,1-0.2v1.5
			c-0.4,0.2-0.9,0.4-1.5,0.4C148.9,44.3,148.1,43.8,148.1,42.3z"/>
		<path class="st0" d="M154.8,42.3v-3.1H154v-1.6h0.8v-1.7h1.9v1.7h1.6v1.6h-1.6V42c0,0.4,0.2,0.6,0.6,0.6c0.4,0,0.7-0.1,1-0.2v1.5
			c-0.4,0.2-0.9,0.4-1.5,0.4C155.6,44.3,154.8,43.8,154.8,42.3z"/>
		<path class="st0" d="M160.7,40.9L160.7,40.9c0-1.9,1.6-3.5,3.7-3.5c2.1,0,3.7,1.5,3.7,3.4v0c0,1.9-1.6,3.4-3.7,3.4
			C162.3,44.3,160.7,42.8,160.7,40.9z M166.2,40.9L166.2,40.9c0-1-0.7-1.8-1.8-1.8c-1.1,0-1.8,0.8-1.8,1.8v0c0,1,0.7,1.8,1.8,1.8
			C165.5,42.7,166.2,41.9,166.2,40.9z"/>
		<path class="st0" d="M170.9,37.6h1.9v1.3c0.4-0.9,1-1.5,2.2-1.4v2h-0.1c-1.3,0-2.1,0.7-2.1,2.3v2.4h-1.9V37.6z"/>
	</g>
	<g>
		<path class="st0" d="M147.4,21.9h7.1c0.3,0,0.4-0.2,0.4-0.5c-0.4-2.1-1.8-3.4-3.9-3.4c-2.1,0-3.5,1.3-4,3.4
			C146.9,21.7,147.1,21.9,147.4,21.9z"/>
		<path class="st0" d="M165.4,11.4c-0.1-0.9-0.8-1.6-1.8-1.7c-12.1-1.6-17.4,4.2-18,4.8c0,0-0.1,0.1-0.1,0.1c-0.8,0.8-1.5,1.8-2,2.8
			c0,0,0,0,0,0.1c0,0,0,0,0,0c0,0,0,0,0.1,0c1.7-2.1,4.2-3.5,7.4-3.5c6.3,0,9.3,4.8,9.3,10c0,0.2,0,0.4,0,0.6c0,0.4-0.4,0.7-0.8,0.7
			h-11.3c-0.6,0-1,0.6-0.7,1.1c0.8,1.6,2.3,2.5,4.3,2.5c1.6,0,2.8-0.4,4.1-1.4c0.3-0.2,0.8-0.2,1.1,0l1.9,1.7l0,0l0.3,0.3
			c0,0,0,0,0,0l0.2,0.2c0.2,0.1,0.4,0.1,0.5,0c0.3-0.2,0.5-0.4,0.7-0.6C166.2,23.5,165.8,14.8,165.4,11.4z"/>
	</g>
</g>
</svg>
