<?xml version="1.0" encoding="utf-8"?>
<!-- Generator: Adobe Illustrator 24.3.0, SVG Export Plug-In . SVG Version: 6.00 Build 0)  -->
<svg version="1.1" id="Layer_1" xmlns="http://www.w3.org/2000/svg" xmlns:xlink="http://www.w3.org/1999/xlink" x="0px" y="0px"
	 viewBox="0 0 205 157.6" style="enable-background:new 0 0 205 157.6;" xml:space="preserve">
<style type="text/css">
	.st0{fill:#825A92;}
	.st1{fill:#FFFFFF;}
</style>
<g>
	<g>
		<path class="st0" d="M38.6,131.5c0.7-1.2,1.7-2.2,2.9-2.9c1.2-0.7,2.6-1.1,4-1.1c1.7,0,3.3,0.4,4.6,1.3c1.3,0.8,2.2,2,2.8,3.6
			h-2.5c-0.4-1-1.1-1.7-1.9-2.2c-0.8-0.5-1.8-0.8-3-0.8c-1.1,0-2.1,0.3-3,0.8c-0.9,0.5-1.6,1.3-2.1,2.2c-0.5,1-0.8,2.1-0.8,3.3
			c0,1.3,0.3,2.4,0.8,3.3c0.5,1,1.2,1.7,2.1,2.2c0.9,0.5,1.9,0.8,3,0.8c1.2,0,2.2-0.3,3-0.8s1.5-1.2,1.9-2.2h2.5
			c-0.6,1.5-1.5,2.7-2.8,3.5c-1.3,0.8-2.8,1.2-4.6,1.2c-1.5,0-2.8-0.3-4-1c-1.2-0.7-2.2-1.7-2.9-2.9s-1.1-2.6-1.1-4.2
			S37.9,132.7,38.6,131.5z"/>
		<path class="st0" d="M58.3,143.1c-1-0.5-1.7-1.3-2.2-2.3s-0.8-2.1-0.8-3.4c0-1.3,0.3-2.4,0.8-3.4c0.6-1,1.3-1.7,2.3-2.3
			c1-0.5,2-0.8,3.2-0.8s2.3,0.3,3.2,0.8c1,0.5,1.7,1.3,2.3,2.3s0.8,2.1,0.8,3.4s-0.3,2.4-0.9,3.4s-1.3,1.7-2.3,2.3
			c-1,0.5-2.1,0.8-3.2,0.8C60.3,143.9,59.2,143.6,58.3,143.1z M63.6,141.5c0.7-0.4,1.2-0.9,1.6-1.6c0.4-0.7,0.6-1.6,0.6-2.6
			c0-1-0.2-1.9-0.6-2.6c-0.4-0.7-0.9-1.2-1.6-1.6c-0.6-0.3-1.3-0.5-2.1-0.5c-0.8,0-1.5,0.2-2.1,0.5s-1.1,0.9-1.5,1.6
			s-0.6,1.6-0.6,2.6c0,1,0.2,1.9,0.6,2.6s0.9,1.2,1.5,1.6c0.6,0.3,1.3,0.5,2.1,0.5S62.9,141.9,63.6,141.5z"/>
		<path class="st0" d="M80.5,132.3c0.9,0.9,1.4,2.3,1.4,4v7.4h-2.1v-7.1c0-1.2-0.3-2.2-0.9-2.9c-0.6-0.7-1.5-1-2.6-1
			c-1.1,0-2,0.3-2.6,1c-0.6,0.7-1,1.7-1,3v6.9h-2.1v-12.5h2.1v1.8c0.4-0.6,1-1.1,1.7-1.5s1.5-0.5,2.3-0.5
			C78.3,130.9,79.5,131.4,80.5,132.3z"/>
		<path class="st0" d="M87.1,143.4c-0.8-0.3-1.4-0.8-1.8-1.4c-0.4-0.6-0.7-1.3-0.7-2h2.1c0.1,0.6,0.4,1.1,0.9,1.5
			c0.5,0.4,1.2,0.6,2.1,0.6c0.8,0,1.4-0.2,1.9-0.5c0.5-0.4,0.7-0.8,0.7-1.3c0-0.5-0.2-1-0.7-1.2c-0.5-0.3-1.2-0.5-2.3-0.8
			c-0.9-0.2-1.7-0.5-2.3-0.7c-0.6-0.3-1.1-0.6-1.5-1.1c-0.4-0.5-0.6-1.1-0.6-2c0-0.6,0.2-1.2,0.6-1.8c0.4-0.5,0.9-1,1.6-1.3
			s1.5-0.5,2.4-0.5c1.4,0,2.5,0.4,3.4,1.1c0.9,0.7,1.3,1.7,1.4,2.9h-2.1c0-0.7-0.3-1.2-0.8-1.6c-0.5-0.4-1.1-0.6-1.9-0.6
			c-0.7,0-1.3,0.2-1.8,0.5s-0.7,0.7-0.7,1.3c0,0.4,0.1,0.8,0.4,1c0.3,0.3,0.6,0.5,1,0.6c0.4,0.2,1,0.3,1.7,0.5
			c0.9,0.2,1.6,0.5,2.2,0.7c0.6,0.2,1,0.6,1.5,1.1c0.4,0.5,0.6,1.1,0.6,1.9c0,0.7-0.2,1.3-0.6,1.9s-0.9,1-1.6,1.3
			c-0.7,0.3-1.5,0.5-2.4,0.5C88.8,143.9,87.9,143.7,87.1,143.4z"/>
		<path class="st0" d="M108.3,131.1v12.5h-2.1v-1.9c-0.4,0.6-0.9,1.1-1.7,1.5c-0.7,0.4-1.5,0.5-2.3,0.5c-1,0-1.9-0.2-2.6-0.6
			c-0.8-0.4-1.4-1-1.8-1.8c-0.5-0.8-0.7-1.8-0.7-2.9v-7.3h2.1v7.1c0,1.2,0.3,2.2,0.9,2.8s1.5,1,2.6,1c1.1,0,2-0.3,2.6-1
			c0.6-0.7,1-1.7,1-3v-6.9H108.3z"/>
		<path class="st0" d="M113.9,126.7v16.9h-2.1v-16.9H113.9z"/>
		<path class="st0" d="M120,132.8v7.4c0,0.6,0.1,1,0.4,1.3c0.3,0.3,0.7,0.4,1.3,0.4h1.5v1.8h-1.9c-1.2,0-2-0.3-2.6-0.8
			c-0.6-0.5-0.9-1.4-0.9-2.6v-7.4h-1.6v-1.7h1.6V128h2.1v3.2h3.3v1.7H120z"/>
		<path class="st0" d="M128.1,143.1c-1-0.5-1.7-1.3-2.2-2.3s-0.8-2.1-0.8-3.4c0-1.3,0.3-2.4,0.8-3.4c0.6-1,1.3-1.7,2.3-2.3
			c1-0.5,2-0.8,3.2-0.8s2.3,0.3,3.2,0.8c1,0.5,1.7,1.3,2.3,2.3s0.8,2.1,0.8,3.4s-0.3,2.4-0.9,3.4s-1.3,1.7-2.3,2.3
			c-1,0.5-2.1,0.8-3.2,0.8C130.1,143.9,129,143.6,128.1,143.1z M133.4,141.5c0.7-0.4,1.2-0.9,1.6-1.6c0.4-0.7,0.6-1.6,0.6-2.6
			c0-1-0.2-1.9-0.6-2.6c-0.4-0.7-0.9-1.2-1.6-1.6c-0.6-0.3-1.3-0.5-2.1-0.5c-0.8,0-1.5,0.2-2.1,0.5s-1.1,0.9-1.5,1.6
			s-0.6,1.6-0.6,2.6c0,1,0.2,1.9,0.6,2.6s0.9,1.2,1.5,1.6c0.6,0.3,1.3,0.5,2.1,0.5S132.7,141.9,133.4,141.5z"/>
		<path class="st0" d="M144.1,131.5c0.7-0.4,1.5-0.6,2.5-0.6v2.1H146c-2.3,0-3.5,1.3-3.5,3.8v6.8h-2.1v-12.5h2.1v2
			C142.9,132.5,143.4,131.9,144.1,131.5z"/>
		<path class="st0" d="M149,128.7c-0.3-0.3-0.4-0.6-0.4-1c0-0.4,0.1-0.7,0.4-1s0.6-0.4,1-0.4c0.4,0,0.7,0.1,1,0.4
			c0.3,0.3,0.4,0.6,0.4,1c0,0.4-0.1,0.7-0.4,1c-0.3,0.3-0.6,0.4-1,0.4C149.6,129.1,149.3,129,149,128.7z M151,131.1v12.5H149v-12.5
			H151z"/>
		<path class="st0" d="M154.6,134c0.5-1,1.2-1.7,2.1-2.3c0.9-0.5,1.9-0.8,3-0.8c1.1,0,2,0.2,2.9,0.7c0.8,0.5,1.4,1.1,1.8,1.8v-2.3
			h2.1v12.5h-2.1v-2.3c-0.4,0.7-1,1.3-1.8,1.8c-0.8,0.5-1.8,0.7-2.8,0.7c-1.1,0-2.1-0.3-3-0.8c-0.9-0.5-1.6-1.3-2.1-2.3
			s-0.8-2.1-0.8-3.4C153.8,136.1,154.1,134.9,154.6,134z M163.8,134.9c-0.4-0.7-0.9-1.2-1.5-1.6c-0.6-0.4-1.4-0.6-2.1-0.6
			c-0.8,0-1.5,0.2-2.1,0.5c-0.6,0.4-1.2,0.9-1.5,1.6c-0.4,0.7-0.6,1.5-0.6,2.5c0,1,0.2,1.8,0.6,2.5s0.9,1.2,1.5,1.6
			c0.6,0.4,1.3,0.6,2.1,0.6c0.8,0,1.5-0.2,2.1-0.6c0.6-0.4,1.2-0.9,1.5-1.6s0.6-1.5,0.6-2.5S164.2,135.6,163.8,134.9z"/>
	</g>
	<circle class="st0" cx="102.4" cy="54.5" r="48.8"/>
	<path class="st1" d="M121.8,43.1c0.3-0.3,0.4-0.7,0.3-1c-0.1-0.4-0.3-0.7-0.7-0.8l-3.9-1.7l-1.4-3.9c-0.1-0.4-0.4-0.7-0.8-0.7
		c-0.4-0.1-0.8,0-1.1,0.3l-2.2,2.2c-3-1.6-6.3-2.5-9.6-2.5c-5.3,0-10.2,2-13.9,5.8c-3.7,3.7-5.8,8.7-5.8,13.9s2,10.2,5.8,13.9
		c3.7,3.7,8.7,5.8,13.9,5.8c5.3,0,10.2-2,13.9-5.8c3.7-3.7,5.8-8.7,5.8-13.9c0-3.3-0.8-6.5-2.4-9.3L121.8,43.1z M113.7,47.9
		l-2.4-0.6l5.6-5.5l2.1,0.9L113.7,47.9z M113.3,54.5c0,6-4.9,10.8-10.8,10.8s-10.8-4.9-10.8-10.8s4.9-10.8,10.8-10.8
		c1.8,0,3.3,0.4,4.8,1.1l0.6,2.7l-1.5,1.5c-1.1-0.8-2.5-1.3-3.9-1.3c-3.8,0-6.8,3.1-6.8,6.8c0,3.8,3.1,6.8,6.8,6.8
		c3.8,0,6.8-3.1,6.8-6.8c0-1.5-0.5-2.8-1.2-3.9l1.4-1.4l2.8,0.8C113,51.3,113.3,52.8,113.3,54.5L113.3,54.5z M106.9,54.5
		c0,2.5-2,4.5-4.5,4.5c-2.5,0-4.5-2-4.5-4.5s2-4.5,4.5-4.5c0.8,0,1.6,0.2,2.3,0.6l-3.1,3.1c-0.5,0.4-0.5,1.2,0,1.6
		c0.2,0.2,0.5,0.3,0.8,0.3c0.3,0,0.6-0.1,0.8-0.3l3.1-3.1C106.7,52.9,106.9,53.7,106.9,54.5L106.9,54.5z M114.6,38.1l0.7,2l-5.5,5.5
		l-0.5-2.2L114.6,38.1z M119.8,54.5c0,4.6-1.8,9-5.1,12.3c-3.3,3.3-7.6,5.1-12.3,5.1c-4.6,0-9-1.8-12.3-5.1
		c-3.3-3.3-5.1-7.6-5.1-12.3s1.8-9,5.1-12.3c3.3-3.3,7.6-5.1,12.3-5.1c2.7,0,5.5,0.7,7.9,1.9l-3.1,3.1c0,0,0,0,0,0
		c-1.5-0.6-3.1-0.9-4.8-0.9c-7.3,0-13.2,5.9-13.2,13.2s5.9,13.2,13.2,13.2c7.3,0,13.2-5.9,13.2-13.2c0-1.6-0.2-3.1-0.7-4.4
		c0,0,0,0,0,0l3.2-3.2C119.2,49.2,119.8,51.8,119.8,54.5z"/>
</g>
</svg>
