<?xml version="1.0" encoding="utf-8"?>
<!-- Generator: Adobe Illustrator 24.3.0, SVG Export Plug-In . SVG Version: 6.00 Build 0)  -->
<svg version="1.1" id="Layer_1" xmlns="http://www.w3.org/2000/svg" xmlns:xlink="http://www.w3.org/1999/xlink" x="0px" y="0px"
	 viewBox="0 0 329.2 123.9" style="enable-background:new 0 0 329.2 123.9;" xml:space="preserve">
<style type="text/css">
	.st0{fill:#575756;}
	.st1{fill:#BFBFBF;}
	.st2{fill:#FFFFFF;}
	.st3{fill:#1D1C1A;}
	.st4{fill:#595958;}
	.st5{fill:#6D6D6D;}
	.st6{fill:#AAAAAA;}
	.st7{fill-rule:evenodd;clip-rule:evenodd;fill:#FFFFFF;}
	.st8{opacity:0.8;}
	.st9{clip-path:url(#SVGID_2_);}
	.st10{clip-path:url(#SVGID_4_);}
	.st11{clip-path:url(#SVGID_6_);fill:url(#SVGID_7_);}
	.st12{clip-path:url(#SVGID_9_);}
	.st13{clip-path:url(#SVGID_11_);fill:url(#SVGID_12_);}
	.st14{clip-path:url(#SVGID_14_);}
	.st15{clip-path:url(#SVGID_16_);fill:url(#SVGID_17_);}
	.st16{clip-path:url(#SVGID_19_);}
	.st17{clip-path:url(#SVGID_21_);}
	.st18{clip-path:url(#SVGID_23_);fill:url(#SVGID_24_);}
	.st19{clip-path:url(#SVGID_26_);}
	.st20{clip-path:url(#SVGID_28_);fill:url(#SVGID_29_);}
	.st21{clip-path:url(#SVGID_31_);fill:url(#SVGID_32_);}
	.st22{clip-path:url(#SVGID_34_);}
	.st23{clip-path:url(#SVGID_36_);}
	.st24{filter:url(#Adobe_OpacityMaskFilter);}
	.st25{clip-path:url(#SVGID_38_);fill:url(#SVGID_40_);}
	.st26{clip-path:url(#SVGID_38_);mask:url(#SVGID_39_);fill:url(#SVGID_41_);}
	.st27{clip-path:url(#SVGID_43_);}
	.st28{filter:url(#Adobe_OpacityMaskFilter_1_);}
	.st29{clip-path:url(#SVGID_45_);fill:url(#SVGID_47_);}
	.st30{clip-path:url(#SVGID_45_);mask:url(#SVGID_46_);fill:url(#SVGID_48_);}
	.st31{clip-path:url(#SVGID_50_);}
	.st32{filter:url(#Adobe_OpacityMaskFilter_2_);}
	.st33{clip-path:url(#SVGID_52_);fill:url(#SVGID_54_);}
	.st34{clip-path:url(#SVGID_52_);mask:url(#SVGID_53_);fill:url(#SVGID_55_);}
	.st35{opacity:0.7;}
	.st36{clip-path:url(#SVGID_57_);fill:#FFFFFF;}
	.st37{clip-path:url(#SVGID_59_);}
	.st38{clip-path:url(#SVGID_61_);}
	.st39{filter:url(#Adobe_OpacityMaskFilter_3_);}
	.st40{clip-path:url(#SVGID_63_);fill:url(#SVGID_65_);}
	.st41{clip-path:url(#SVGID_63_);mask:url(#SVGID_64_);fill:url(#SVGID_66_);}
	.st42{clip-path:url(#SVGID_68_);}
	.st43{filter:url(#Adobe_OpacityMaskFilter_4_);}
	.st44{clip-path:url(#SVGID_70_);fill:url(#SVGID_72_);}
	.st45{clip-path:url(#SVGID_70_);mask:url(#SVGID_71_);fill:url(#SVGID_73_);}
	.st46{opacity:0.3;clip-path:url(#SVGID_59_);}
	.st47{clip-path:url(#SVGID_75_);}
	.st48{filter:url(#Adobe_OpacityMaskFilter_5_);}
	.st49{clip-path:url(#SVGID_77_);fill:url(#SVGID_79_);}
	.st50{clip-path:url(#SVGID_77_);mask:url(#SVGID_78_);fill:url(#SVGID_80_);}
</style>
<g>
	<g>
		<path class="st0" d="M276.2,30.1c-1.9,0-2.9,1-2.9,2.8v1.4c0,1.9,1,2.9,2.9,2.9c1.9,0,3-1,3-2.9V33
			C279.2,31.1,278.2,30.1,276.2,30.1z M274.3,33c0-1.2,0.7-1.9,1.9-1.9c1.3,0,2,0.7,2,1.9v1.4c0,1.2-0.7,1.9-2,1.9
			c-1.3,0-1.9-0.7-1.9-1.9V33z"/>
		<path class="st0" d="M282.8,32.2c-0.7,0-1.4,0.2-1.7,0.7v-0.3l0,0c0-0.1-0.1-0.2-0.2-0.2h-0.4c-0.1,0-0.3,0.1-0.3,0.2v4.3
			c0,0.1,0.1,0.3,0.3,0.3h0.5c0.1,0,0.2-0.1,0.2-0.3v-3.1c0,0,0,0,0,0c0.4-0.4,0.9-0.6,1.4-0.6c0.7,0,1.1,0.3,1.1,1.1v2.7
			c0,0.1,0.1,0.3,0.2,0.3h0.5c0.1,0,0.1-0.1,0.1-0.3v-2.9C284.6,32.8,284,32.2,282.8,32.2z"/>
		<path class="st0" d="M286.5,29.5H286c-0.1,0-0.3,0.2-0.3,0.3v7c0,0.1,0.2,0.3,0.3,0.3h0.5c0.1,0,0.3-0.1,0.3-0.3v-7
			C286.8,29.7,286.6,29.5,286.5,29.5z"/>
		<path class="st0" d="M288.7,32.3h-0.5c-0.1,0-0.3,0.1-0.3,0.2v4.3c0,0.1,0.1,0.3,0.3,0.3h0.5c0.1,0,0.3-0.1,0.3-0.3v-4.3
			C289,32.4,288.8,32.3,288.7,32.3z"/>
		<path class="st0" d="M292.8,32.2c-0.7,0-1.3,0.2-1.8,0.7v-0.3l0,0c0-0.1-0.1-0.2-0.2-0.2h-0.4c-0.1,0-0.3,0.1-0.3,0.2v4.3
			c0,0.1,0.2,0.3,0.3,0.3h0.5c0.1,0,0.1-0.1,0.1-0.3v-3.1c0,0,0.1,0,0.1,0c0.4-0.4,0.8-0.6,1.3-0.6c0.7,0,1.1,0.3,1.1,1.1v2.7
			c0,0.1,0.2,0.3,0.3,0.3h0.5c0.1,0,0.2-0.1,0.2-0.3v-2.9C294.6,32.8,294,32.2,292.8,32.2z"/>
		<path class="st0" d="M297.6,32.2c-0.8,0-2.3,0.3-2.3,2.1v0.9c0,1.7,1.3,2.1,2.3,2.1c0.9,0,1.6-0.2,2.1-0.7c0.1-0.1,0.1-0.2,0-0.3
			l-0.3-0.3c-0.1-0.1-0.2-0.1-0.3,0l0,0c-0.3,0.3-0.8,0.5-1.4,0.5c-0.5,0-1.3-0.2-1.3-1.2V35c0,0,0.1,0,0.1,0h3.2
			c0.1,0,0.2-0.2,0.2-0.3v-0.5C299.8,32.9,299,32.2,297.6,32.2z M296.4,34.2c0-1,0.8-1.2,1.2-1.2c0.5,0,1.2,0.1,1.2,1.1v0.2
			c0,0,0.1,0,0,0h-2.4c0,0-0.1,0-0.1,0V34.2z"/>
	</g>
	<path class="st0" d="M287.6,30.7c0-0.5,0.3-0.7,0.8-0.7c0.5,0,0.8,0.3,0.8,0.7c0,0.4-0.3,0.7-0.8,0.7
		C287.9,31.4,287.6,31.1,287.6,30.7"/>
	<path class="st0" d="M267.7,20.2h-1.1c-0.1,0-0.3,0.1-0.4,0.2l-2.3,4.6l-2.2-4.6c-0.1-0.1-0.2-0.2-0.4-0.2h-1.1
		c-0.2,0-0.5,0.2-0.5,0.4v7.3c0,0.2,0.3,0.5,0.5,0.5h0.8c0.2,0,0.4-0.2,0.4-0.4l0-4.2l1.8,3.6c0.1,0.1,0.2,0.2,0.4,0.2h0.8
		c0.2,0,0.3-0.1,0.4-0.2l1.8-3.6l0,4.2c0,0.2,0.2,0.4,0.4,0.4h0.9c0.2,0,0.4-0.2,0.4-0.5v-7.3C268.1,20.3,267.9,20.2,267.7,20.2z"/>
	<g>
		<path class="st0" d="M271.4,23.3c-0.8,0-1.4,0.2-1.9,0.6c-0.1,0-0.1,0.1-0.1,0.2c0,0.1,0,0.1,0.1,0.2l0.2,0.3
			c0,0.1,0.1,0.1,0.2,0.1c0.1,0,0.1,0,0.2-0.1c0.4-0.3,0.7-0.5,1.3-0.5c0.8,0,1.2,0.3,1.2,1v0.3c0,0,0.1,0,0,0H271
			c-1.2,0-1.8,0.5-1.8,1.4c0,1,0.6,1.5,1.6,1.5c0.8,0,1.4-0.3,1.8-0.7l0,0.4l0,0.1c0,0.1,0.1,0.2,0.2,0.2h0.4c0.1,0,0.2-0.2,0.2-0.3
			v-2.8C273.5,23.5,272.3,23.3,271.4,23.3z M271,27.6c-0.5,0-0.9-0.3-0.9-0.7c0-0.5,0.3-0.7,0.9-0.7h1.4c0,0,0,0,0,0l0,0v0.6
			c0,0,0,0,0,0l0,0C272,27.4,271.4,27.6,271,27.6z"/>
		<path class="st0" d="M278.1,27.3c0-0.1-0.1-0.1-0.1-0.1c-0.1,0-0.1,0-0.2,0c-0.3,0.2-0.8,0.3-1.2,0.3c-0.4,0-1.1-0.1-1.1-1.2v-2
			c0,0,0.1-0.1,0.1-0.1h2c0.1,0,0.1-0.1,0.1-0.2v-0.3c0-0.1,0-0.2-0.1-0.2h-2c0,0-0.1-0.1-0.1-0.1v-0.8c0-0.1,0-0.2-0.1-0.2h-0.5
			c-0.1,0-0.2,0.1-0.2,0.2v0.8c0,0,0,0.1,0,0.1h-0.3c-0.1,0-0.2,0-0.2,0.2V24c0,0.1,0.1,0.2,0.2,0.2h0.3c0,0,0,0,0,0.1v2.1
			c0,1.4,0.6,2,1.9,2c0.6,0,1.2-0.1,1.6-0.4c0.2-0.1,0.1-0.3,0.1-0.3L278.1,27.3z"/>
		<path class="st0" d="M280.9,23.3c-0.8,0-2.3,0.3-2.3,2.1v0.9c0,1.7,1.3,2.1,2.3,2.1c0.9,0,1.6-0.2,2.1-0.7c0.1-0.1,0.1-0.2,0-0.3
			l-0.3-0.3c-0.1-0.1-0.2-0.1-0.3,0l0,0c-0.3,0.3-0.8,0.5-1.4,0.5c-0.5,0-1.3-0.2-1.3-1.2v-0.2c0,0,0,0,0.1,0h3.2
			c0.1,0,0.2-0.1,0.2-0.3v-0.5C283.1,24,282.4,23.3,280.9,23.3z M279.7,25.3c0-1,0.8-1.2,1.2-1.2c0.5,0,1.2,0.1,1.2,1.1v0.2
			c0,0,0,0,0,0h-2.4c0,0-0.1,0-0.1-0.1V25.3z"/>
		<path class="st0" d="M287.3,23.5c-0.3-0.2-0.6-0.2-1-0.2c-0.5,0-1,0.2-1.3,0.7l0-0.3c0-0.1-0.1-0.2-0.2-0.2h-0.4
			c-0.1,0-0.3,0-0.3,0.2v4.3c0,0.1,0.2,0.3,0.3,0.3h0.5c0.1,0,0.2-0.2,0.2-0.3v-3c0,0,0-0.1,0.1-0.1c0.2-0.3,0.5-0.7,1.1-0.7
			c0.2,0,0.4,0.1,0.6,0.2c0.1,0.1,0.3,0,0.3-0.1l0.2-0.4l0,0C287.4,23.7,287.4,23.6,287.3,23.5z"/>
		<path class="st0" d="M288.7,23.5h-0.5c-0.1,0-0.3,0-0.3,0.2v4.3c0,0.1,0.2,0.3,0.3,0.3h0.5c0.1,0,0.3-0.2,0.3-0.3v-4.3
			C289,23.5,288.8,23.5,288.7,23.5z"/>
		<path class="st0" d="M292,23.3c-0.8,0-1.4,0.2-1.9,0.6c-0.1,0-0.1,0.1-0.1,0.2c0,0.1,0,0.1,0.1,0.2l0.2,0.3c0,0.1,0.1,0.1,0.2,0.1
			c0.1,0,0.1,0,0.2-0.1c0.4-0.3,0.7-0.5,1.3-0.5c0.8,0,1.2,0.3,1.2,1v0.3c0,0,0,0,0,0h-1.4c-1.2,0-1.8,0.5-1.8,1.4
			c0,1,0.6,1.5,1.6,1.5c0.8,0,1.4-0.3,1.8-0.7l0,0.4l0,0.1c0,0.1,0.1,0.2,0.2,0.2h0.4c0.1,0,0.3-0.2,0.3-0.3v-2.8
			C294.1,23.5,292.9,23.3,292,23.3z M291.6,27.6c-0.5,0-0.9-0.3-0.9-0.7c0-0.5,0.3-0.7,0.9-0.7h1.4c0,0,0,0,0,0v0.6c0,0,0,0,0,0l0,0
			C292.6,27.4,292,27.6,291.6,27.6z"/>
		<path class="st0" d="M295.8,20.7h-0.5c-0.1,0-0.3,0.1-0.3,0.2v7c0,0.1,0.2,0.3,0.3,0.3h0.5c0.1,0,0.2-0.2,0.2-0.3v-7
			C296.1,20.8,296,20.7,295.8,20.7z"/>
		<path class="st0" d="M299.2,23.3c-0.8,0-2.2,0.3-2.2,2.1v0.9c0,1.7,1.2,2.1,2.3,2.1c0.9,0,1.6-0.2,2-0.7c0.1-0.1,0.1-0.2,0-0.3
			L301,27c-0.1-0.1-0.2-0.1-0.3,0l0,0c-0.3,0.3-0.8,0.5-1.4,0.5c-0.5,0-1.4-0.2-1.4-1.2v-0.2c0,0,0.1,0,0.1,0h3.2
			c0.1,0,0.2-0.1,0.2-0.3v-0.5C301.4,24,300.6,23.3,299.2,23.3z M297.9,25.3c0-1,0.8-1.2,1.3-1.2c0.5,0,1.3,0.1,1.3,1.1v0.2
			c0,0,0,0,0,0H298c0,0-0.1,0-0.1-0.1V25.3z"/>
		<path class="st0" d="M304.7,25.5l-1.1-0.2c-0.5-0.1-0.7-0.3-0.7-0.6c0-0.4,0.6-0.6,1.1-0.6c0.6,0,1.1,0.2,1.4,0.6l0,0
			c0.1,0.1,0.3,0.1,0.3,0l0.2-0.3c0-0.1,0.1-0.1,0-0.2c0-0.1,0-0.1-0.1-0.2c-0.4-0.5-1.1-0.7-2-0.7c-1.2,0-2,0.5-2,1.4
			c0,0.7,0.4,1.2,1.3,1.4l1.1,0.2c0.5,0.1,0.7,0.3,0.7,0.6c0,0.6-0.8,0.7-1.2,0.7c-0.6,0-1.2-0.2-1.5-0.6l0,0
			c-0.2-0.1-0.3,0-0.3,0.1l-0.2,0.3c0,0-0.1,0.1-0.1,0.2c0,0.1,0,0.1,0.1,0.2c0.5,0.5,1.1,0.8,2,0.8c1.4,0,2.1-0.5,2.1-1.5
			C306,26.1,305.6,25.7,304.7,25.5z"/>
	</g>
	<path class="st0" d="M287.6,21.8c0-0.5,0.3-0.7,0.8-0.7c0.5,0,0.8,0.3,0.8,0.7c0,0.4-0.3,0.7-0.8,0.7
		C287.9,22.5,287.6,22.3,287.6,21.8"/>
	<g>
		<path class="st0" d="M270.3,32.9l1.7-2.8c0.1-0.1,0.1-0.2,0-0.3c-0.1-0.1-0.2-0.1-0.3-0.1l-16.1,0c0,0,0,0,0,0
			c-0.1,0-0.2,0-0.3,0.1c-0.1,0.1-0.1,0.2,0,0.3l1.6,4.2l-2.9-0.6l0-1.4c0-0.2-0.1-0.3-0.3-0.3c-0.2,0-0.3,0.1-0.3,0.3l0,1.7
			c0,0.2,0.1,0.3,0.3,0.3l5.4,1.1l1,2.7c0,0,0.4,1,1.2,1c0,0,0,0,0,0c0.7,0,1-0.6,1-0.9l0.5-2.1l2.6,0.5c0.1,0.6,0.4,1.1,0.9,1.6
			c0.6,0.6,1.5,1,2.4,1c0,0,0,0,0,0c0.9,0,1.7-0.3,2.4-1c0.6-0.6,1-1.5,1-2.4C272,34.6,271.3,33.5,270.3,32.9z M261.5,38.1
			C261.5,38.1,261.5,38.1,261.5,38.1c0,0.1-0.1,0.4-0.4,0.4c0,0,0,0,0,0c-0.3,0-0.6-0.4-0.6-0.6l-0.9-2.4l2.4,0.5L261.5,38.1z
			 M265.2,35.9l-7.7-1.5l-1.5-4.2l15.1,0l-1.4,2.4c-0.3-0.1-0.7-0.2-1.1-0.2c0,0,0,0,0,0c-1.9,0-3.4,1.5-3.4,3.4
			C265.2,35.8,265.2,35.9,265.2,35.9z M270.5,37.8c-0.5,0.5-1.2,0.8-1.9,0.8c-0.7,0-1.4-0.3-1.9-0.8c-0.5-0.5-0.8-1.2-0.8-1.9
			c0-1.5,1.2-2.7,2.7-2.7c0,0,0,0,0,0c0.7,0,1.4,0.3,1.9,0.8c0.5,0.5,0.8,1.2,0.8,1.9C271.3,36.6,271.1,37.3,270.5,37.8z"/>
		<path class="st0" d="M268.6,35.4c-0.2,0-0.4,0.2-0.4,0.4c0,0.2,0.2,0.4,0.4,0.4c0.2,0,0.4-0.2,0.4-0.4
			C269,35.6,268.8,35.5,268.6,35.4z"/>
	</g>
	<path class="st0" d="M268.5,35.8"/>
</g>
<g>
	<circle class="st1" cx="48.4" cy="21.1" r="6.4"/>
	<path class="st2" d="M52,24.5l-0.5-1.1l0,0l-0.7-1.5l-0.2-0.3l-0.9-1.9l-0.1-0.3l-1-2.1c0-0.1-0.1-0.1-0.2-0.1h-0.1
		c-0.1,0-0.2,0.1-0.2,0.1l-3.4,7.3c-0.1,0.1,0,0.3,0.2,0.3h1.4c0.1,0,0.2-0.1,0.2-0.1l1.8-4h0.1l0.4,0.9l0.3,0.6l0.8,1.8l0,0.1
		l0.2,0.5c0,0.1,0.1,0.1,0.2,0.1h1.4C52,24.8,52.1,24.6,52,24.5z"/>
	<path class="st3" d="M46.2,18.2l0.3,0.7l0,0l0.4,0.9L47,20l0.5,1.2l0.1,0.2l0.6,1.2c0,0,0.1,0.1,0.1,0.1h0.1c0.1,0,0.1,0,0.1-0.1
		l2.1-4.4c0-0.1,0-0.2-0.1-0.2h-0.9c-0.1,0-0.1,0-0.1,0.1l-1.1,2.4h0L48.1,20l-0.2-0.4l-0.5-1.1l0-0.1l-0.1-0.3c0,0-0.1-0.1-0.1-0.1
		h-0.9C46.2,18.1,46.2,18.1,46.2,18.2z"/>
	<g>
		<path class="st0" d="M25.5,38.6c0.1,0.1,0,0.3-0.2,0.3h-0.7c-0.1,0-0.1-0.1-0.2-0.1L22.3,34h-0.1l-2.1,4.8c0,0-0.1,0.1-0.2,0.1
			h-0.7c-0.1,0-0.2-0.1-0.2-0.3l3-6.5c0-0.1,0.1-0.1,0.2-0.1h0.1c0.1,0,0.1,0,0.2,0.1L25.5,38.6z"/>
		<path class="st0" d="M26.4,37.8c0.1-0.1,0.2-0.3,0.3-0.4c0.1-0.1,0.2-0.2,0.3-0.1c0.1,0,0.8,0.7,1.5,0.7c0.7,0,1.1-0.4,1.1-0.9
			c0-0.6-0.5-0.9-1.5-1.3c-1-0.4-1.8-0.9-1.8-2c0-0.8,0.6-1.8,2.1-1.8c1,0,1.7,0.5,1.8,0.6c0.1,0,0.2,0.2,0.1,0.3
			c-0.1,0.1-0.2,0.3-0.2,0.4c-0.1,0.1-0.2,0.2-0.3,0.1c-0.1,0-0.7-0.5-1.3-0.5c-0.8,0-1.1,0.5-1.1,0.9c0,0.6,0.4,0.9,1.2,1.2
			c1.1,0.5,2.1,1,2.1,2.2c0,1-0.9,1.8-2.2,1.8c-1.2,0-1.9-0.6-2.1-0.8C26.4,38,26.3,37.9,26.4,37.8z"/>
		<path class="st0" d="M36,38.1c-0.2,0.1-0.9,0.8-2.1,0.8c-1.3,0-2.2-0.8-2.2-1.8c0-1.2,1-1.7,2.1-2.2c0.8-0.3,1.2-0.7,1.2-1.2
			c0-0.4-0.3-0.9-1.1-0.9c-0.6,0-1.2,0.4-1.3,0.5c-0.1,0.1-0.3,0-0.3-0.1c-0.1-0.1-0.2-0.3-0.2-0.4c-0.1-0.1,0-0.3,0.1-0.3
			c0.1-0.1,0.8-0.6,1.8-0.6c1.5,0,2.1,1,2.1,1.8c0,1.1-0.8,1.6-1.8,2c-1,0.4-1.5,0.8-1.5,1.3c0,0.5,0.4,0.9,1.1,0.9
			c0.7,0,1.5-0.6,1.5-0.7c0.1-0.1,0.2,0,0.3,0.1c0.1,0.1,0.2,0.3,0.3,0.4C36.2,37.9,36.1,38,36,38.1z"/>
		<path class="st0" d="M37.5,32.2c0-0.1,0.1-0.2,0.2-0.2h3.9c0.1,0,0.2,0.1,0.2,0.2v0.5c0,0.1-0.1,0.2-0.2,0.2h-3v2h2.6
			c0.1,0,0.2,0.1,0.2,0.2v0.5c0,0.1-0.1,0.2-0.2,0.2h-2.6v2.1h3c0.1,0,0.2,0.1,0.2,0.2v0.5c0,0.1-0.1,0.2-0.2,0.2h-3.9
			c-0.1,0-0.2-0.1-0.2-0.2V32.2z"/>
		<path class="st0" d="M43,37.8c0.1-0.1,0.2-0.3,0.3-0.4c0.1-0.1,0.2-0.2,0.3-0.1c0.1,0,0.8,0.7,1.5,0.7c0.7,0,1.1-0.4,1.1-0.9
			c0-0.6-0.5-0.9-1.5-1.3c-1-0.4-1.8-0.9-1.8-2c0-0.8,0.6-1.8,2.1-1.8c1,0,1.7,0.5,1.8,0.6c0.1,0,0.2,0.2,0.1,0.3
			c-0.1,0.1-0.2,0.3-0.2,0.4c-0.1,0.1-0.2,0.2-0.3,0.1c-0.1,0-0.7-0.5-1.3-0.5c-0.8,0-1.1,0.5-1.1,0.9c0,0.6,0.4,0.9,1.2,1.2
			c1.1,0.5,2.1,1,2.1,2.2c0,1-0.9,1.8-2.2,1.8c-1.2,0-1.9-0.6-2.1-0.8C42.9,38,42.9,37.9,43,37.8z"/>
		<path class="st0" d="M51.8,31.9c1.9,0,3.5,1.6,3.5,3.5c0,1.9-1.5,3.5-3.5,3.5c-1.9,0-3.5-1.5-3.5-3.5
			C48.3,33.4,49.8,31.9,51.8,31.9z M51.8,37.9c1.4,0,2.5-1.1,2.5-2.5c0-1.4-1.1-2.5-2.5-2.5c-1.4,0-2.5,1.1-2.5,2.5
			C49.3,36.8,50.4,37.9,51.8,37.9z"/>
		<path class="st0" d="M56.9,32.2c0-0.1,0.1-0.2,0.2-0.2h2.6c1.2,0,2.1,0.9,2.1,2.1c0,0.9-0.6,1.6-1.4,2l1.3,2.5
			c0.1,0.1,0,0.3-0.2,0.3h-0.8c-0.1,0-0.1,0-0.2-0.1l-1.3-2.6h-1.5v2.5c0,0.1-0.1,0.2-0.2,0.2H57c-0.1,0-0.2-0.1-0.2-0.2V32.2z
			 M59.6,35.3c0.6,0,1.2-0.5,1.2-1.2c0-0.6-0.5-1.1-1.2-1.1h-1.7v2.3H59.6z"/>
		<path class="st0" d="M63.4,32.2c0-0.1,0.1-0.2,0.2-0.2h0.6c0.1,0,0.2,0.1,0.2,0.2v4c0,1,0.6,1.7,1.6,1.7c1,0,1.6-0.7,1.6-1.7v-4
			c0-0.1,0.1-0.2,0.2-0.2h0.6c0.1,0,0.2,0.1,0.2,0.2v4.1c0,1.5-1.1,2.6-2.6,2.6c-1.5,0-2.6-1.1-2.6-2.6V32.2z"/>
		<path class="st0" d="M71.4,32c0-0.1,0.1-0.1,0.2-0.1h0.2c0.1,0,0.1,0,0.2,0.1l2,4.9h0l2-4.9c0-0.1,0.1-0.1,0.2-0.1h0.2
			c0.1,0,0.2,0.1,0.2,0.1l1.2,6.5c0,0.1,0,0.2-0.2,0.2h-0.6c-0.1,0-0.2-0.1-0.2-0.1l-0.7-4.3c0,0,0,0,0,0l-1.7,4.4
			c0,0.1-0.1,0.1-0.2,0.1h-0.2c-0.1,0-0.1,0-0.2-0.1l-1.7-4.4c0,0,0,0,0,0l-0.7,4.3c0,0.1-0.1,0.1-0.2,0.1h-0.6
			c-0.1,0-0.2-0.1-0.2-0.2L71.4,32z"/>
	</g>
</g>
<g>
	<g>
		<path class="st4" d="M179.9,24.5c0-0.1,0-0.1,0-0.2c0-1.2,0-2.4,0-3.5c0-0.5,0.1-0.6,0.6-0.6c0.2,0,0.3,0,0.5,0
			c0.3,0,0.4,0.1,0.4,0.4c0,1.2,0,2.5,0,3.7c0,0.7,0,1.5,0,2.2c0,0.4-0.1,0.5-0.5,0.5c-0.2,0-0.5,0-0.7,0c-0.3,0-0.4-0.1-0.6-0.3
			c-0.7-1.3-1.4-2.5-2.1-3.8c0-0.1-0.1-0.1-0.2-0.2c0,0.1,0,0.1,0,0.2c0,1.2,0,2.4,0,3.6c0,0.4-0.1,0.5-0.5,0.5c-0.2,0-0.4,0-0.6,0
			c-0.2,0-0.3-0.1-0.4-0.4c0,0,0-0.1,0-0.1c0-2,0-3.9,0-5.9c0,0,0-0.1,0-0.1c0-0.2,0.1-0.4,0.4-0.4c0.3,0,0.6,0,0.9,0
			c0.2,0,0.4,0.1,0.5,0.3c0.7,1.2,1.4,2.5,2.1,3.7C179.7,24.4,179.8,24.5,179.9,24.5C179.8,24.5,179.9,24.5,179.9,24.5z"/>
		<path class="st4" d="M172.1,23.7c0,0.6-0.1,1.2-0.3,1.7c-0.5,1.2-1.6,1.9-3,1.8c-1.8-0.1-2.7-1.4-2.9-2.6
			c-0.2-0.9-0.1-1.7,0.2-2.5c0.4-1.2,1.2-1.8,2.4-2c1.3-0.2,2.5,0.4,3.1,1.5c0.3,0.5,0.4,1.1,0.5,1.7
			C172.1,23.4,172.1,23.6,172.1,23.7z M170.5,23.6c0-0.4,0-0.8-0.2-1.3c-0.2-0.6-0.7-1-1.3-1c-0.7,0-1.2,0.3-1.4,0.9
			c-0.4,0.9-0.4,1.9,0,2.9c0.2,0.6,0.7,0.8,1.3,0.8c0.6,0,1.1-0.3,1.3-0.8C170.5,24.7,170.5,24.2,170.5,23.6z"/>
		<path class="st4" d="M156.4,25.6c-0.3,0-0.6,0-0.9,0c-0.1,0-0.1,0-0.2,0.1c-0.1,0.3-0.2,0.7-0.3,1c-0.1,0.2-0.2,0.3-0.5,0.3
			c-0.2,0-0.5,0-0.7,0c-0.4,0-0.5-0.1-0.4-0.5c0.4-1.3,0.8-2.6,1.2-3.9c0.2-0.7,0.4-1.4,0.7-2c0.1-0.4,0.2-0.5,0.6-0.5
			c0.3,0,0.6,0,0.9,0c0.3,0,0.4,0.1,0.5,0.4c0.5,1.6,1,3.2,1.5,4.8c0.1,0.4,0.3,0.8,0.4,1.2c0.1,0.3,0,0.5-0.3,0.5
			c-0.3,0-0.5,0-0.8,0c-0.3,0-0.4-0.1-0.5-0.4c-0.1-0.3-0.2-0.7-0.3-1c0-0.1-0.1-0.2-0.2-0.2C157,25.6,156.7,25.6,156.4,25.6z
			 M155.7,24.3c0.5,0,1,0,1.5,0c-0.2-0.8-0.5-1.7-0.7-2.5c0,0,0,0,0,0C156.1,22.7,155.9,23.5,155.7,24.3z"/>
		<path class="st4" d="M161.7,24.6c0,0.1,0,0.2,0,0.2c0,0.6,0,1.2,0,1.8c0,0.3-0.1,0.4-0.5,0.4c-0.2,0-0.4,0-0.7,0
			c-0.3,0-0.4-0.1-0.4-0.4c0-0.1,0-0.1,0-0.2c0-1.9,0-3.9,0-5.8c0-0.1,0-0.1,0-0.2c0-0.2,0.1-0.3,0.3-0.3c0.9,0,1.9,0,2.8,0.1
			c1.4,0.2,2,1.2,1.8,2.5c-0.1,1-0.7,1.7-1.8,1.8c-0.3,0-0.6,0.1-0.9,0.1C162.2,24.6,162,24.6,161.7,24.6z M161.7,23.3
			c0.4,0,0.8,0,1.2,0c0.4,0,0.7-0.3,0.7-0.7c0.1-0.5-0.1-0.9-0.5-1c-0.5-0.2-1-0.1-1.5-0.1C161.7,22.1,161.7,22.7,161.7,23.3z"/>
		<path class="st4" d="M141.9,25.5c0.1-0.4,0.2-0.8,0.3-1.3c0.3-1.2,0.7-2.4,1-3.6c0.1-0.3,0.2-0.4,0.5-0.4c0.2,0,0.5,0,0.7,0
			c0.3,0,0.5,0.2,0.4,0.5c-0.3,0.9-0.6,1.8-0.9,2.8c-0.3,1.1-0.7,2.1-1,3.2c-0.1,0.4-0.2,0.5-0.6,0.5c-0.3,0-0.6,0-0.9,0
			c-0.3,0-0.4-0.1-0.5-0.4c-0.4-1.3-0.8-2.6-1.2-3.9c-0.2-0.7-0.4-1.4-0.7-2.1c-0.2-0.5-0.1-0.6,0.4-0.6c0.2,0,0.4,0,0.6,0
			c0.3,0,0.4,0.1,0.5,0.3c0.3,1.1,0.6,2.2,0.9,3.3C141.6,24.4,141.7,24.9,141.9,25.5C141.9,25.5,141.9,25.5,141.9,25.5z"/>
		<path class="st4" d="M183.9,21.5c-0.4,0-0.7,0-1.1,0c-0.6,0-0.7,0-0.7-0.7c0-0.5,0.1-0.6,0.6-0.6c1.3,0,2.6,0,3.9,0
			c0.4,0,0.5,0.1,0.5,0.5c0,0.1,0,0.2,0,0.3c0,0.3-0.1,0.4-0.4,0.4c-0.4,0-0.7,0-1.1,0c-0.1,0-0.1,0-0.2,0c0,0.1,0,0.2,0,0.3
			c0,1.6,0,3.2,0,4.8c0,0.1,0,0.1,0,0.2c0,0.2-0.1,0.3-0.4,0.4c-0.2,0-0.5,0-0.7,0c-0.3,0-0.4-0.1-0.4-0.4c0-0.3,0-0.7,0-1
			c0-1.3,0-2.6,0-4C183.9,21.6,183.9,21.6,183.9,21.5z"/>
		<path class="st4" d="M150,25.9c0.1,0,0.2,0,0.2,0c0.8,0,1.5,0,2.3,0c0.3,0,0.5,0.1,0.5,0.5c0,0.1,0,0.2,0,0.3
			c0,0.4-0.1,0.5-0.5,0.5c-0.8,0-1.5,0-2.3,0c-0.4,0-0.8,0-1.2,0c-0.4,0-0.5-0.1-0.5-0.5c0-2.5,0-3.4,0-5.9c0-0.4,0.1-0.5,0.5-0.5
			c0.2,0,0.4,0,0.7,0c0.2,0,0.4,0.1,0.4,0.4c0,0.1,0,0.1,0,0.2c0,1.6,0,3.2,0,4.8C150,25.7,150,25.7,150,25.9z"/>
		<path class="st4" d="M145.7,23.7c0-1,0-2,0-2.9c0-0.4,0.1-0.5,0.5-0.5c0.2,0,0.4,0,0.6,0c0.3,0,0.4,0.1,0.4,0.4c0,0.1,0,0.1,0,0.2
			c0,1.9,0,3.8,0,5.8c0,0.1,0,0.2,0,0.3c0,0.2-0.1,0.3-0.3,0.3c-0.3,0-0.6,0-0.9,0c-0.2,0-0.3-0.1-0.3-0.4c0-0.2,0-0.5,0-0.7
			C145.7,25.2,145.7,24.4,145.7,23.7z"/>
		<path class="st4" d="M174.6,23.7c0,1,0,2,0,3c0,0.4-0.1,0.5-0.5,0.5c-0.2,0-0.4,0-0.7,0c-0.2,0-0.3-0.1-0.4-0.4c0-0.1,0-0.1,0-0.2
			c0-1.9,0-3.9,0-5.8c0-0.4,0.1-0.5,0.5-0.5c0.2,0,0.4,0,0.5,0c0.3,0,0.4,0.1,0.4,0.4C174.6,21.7,174.6,22.7,174.6,23.7z"/>
	</g>
	<rect x="139.7" y="28.4" class="st0" width="46.3" height="6.3"/>
	<g>
		<path class="st2" d="M141.9,30.1h-1.1v-0.4h2.7v0.4h-1.1v3.2h-0.5V30.1z"/>
		<path class="st2" d="M144.2,29.8c0.2,0,0.6-0.1,0.9-0.1c0.5,0,0.8,0.1,1.1,0.3c0.2,0.2,0.3,0.4,0.3,0.7c0,0.5-0.3,0.8-0.7,0.9v0
			c0.3,0.1,0.4,0.4,0.5,0.7c0.1,0.5,0.2,0.9,0.3,1H146c-0.1-0.1-0.1-0.4-0.2-0.9c-0.1-0.5-0.3-0.7-0.7-0.7h-0.4v1.6h-0.5V29.8z
			 M144.6,31.4h0.5c0.5,0,0.8-0.3,0.8-0.7c0-0.5-0.3-0.7-0.8-0.7c-0.2,0-0.4,0-0.5,0V31.4z"/>
		<path class="st2" d="M147.9,32.2l-0.4,1.1H147l1.2-3.6h0.6l1.2,3.6h-0.5l-0.4-1.1H147.9z M149.1,31.9l-0.4-1
			c-0.1-0.2-0.1-0.5-0.2-0.7h0c-0.1,0.2-0.1,0.4-0.2,0.7l-0.4,1.1H149.1z"/>
		<path class="st2" d="M151.3,29.7v3.6h-0.5v-3.6H151.3z"/>
		<path class="st2" d="M152.4,33.4v-3.6h0.5l1.2,1.8c0.3,0.4,0.5,0.8,0.7,1.2l0,0c0-0.5-0.1-0.9-0.1-1.5v-1.5h0.4v3.6h-0.5l-1.2-1.8
			c-0.3-0.4-0.5-0.8-0.7-1.2l0,0c0,0.5,0,0.9,0,1.5v1.6H152.4z"/>
		<path class="st2" d="M156.6,29.7v3.6h-0.5v-3.6H156.6z"/>
		<path class="st2" d="M157.7,33.4v-3.6h0.5l1.2,1.8c0.3,0.4,0.5,0.8,0.7,1.2l0,0c0-0.5-0.1-0.9-0.1-1.5v-1.5h0.4v3.6H160l-1.2-1.8
			c-0.3-0.4-0.5-0.8-0.7-1.2l0,0c0,0.5,0,0.9,0,1.5v1.6H157.7z"/>
		<path class="st2" d="M164.2,33.2c-0.2,0.1-0.6,0.2-1.1,0.2c-0.5,0-1-0.1-1.4-0.5c-0.3-0.3-0.5-0.8-0.5-1.4c0-1.1,0.7-1.9,2-1.9
			c0.4,0,0.7,0.1,0.9,0.2l-0.1,0.4c-0.2-0.1-0.4-0.2-0.8-0.2c-0.9,0-1.5,0.5-1.5,1.5c0,0.9,0.6,1.5,1.4,1.5c0.3,0,0.5,0,0.6-0.1
			v-1.1h-0.7v-0.4h1.2V33.2z"/>
		<path class="st2" d="M169.1,33.2c-0.2,0.1-0.5,0.2-1,0.2c-1,0-1.8-0.6-1.8-1.8c0-1.1,0.8-1.9,1.9-1.9c0.5,0,0.7,0.1,0.9,0.2
			l-0.1,0.4c-0.2-0.1-0.4-0.2-0.7-0.2c-0.9,0-1.4,0.5-1.4,1.5c0,0.9,0.5,1.5,1.4,1.5c0.3,0,0.6-0.1,0.8-0.2L169.1,33.2z"/>
		<path class="st2" d="M171.8,31.7h-1.4V33h1.6v0.4h-2v-3.6h2v0.4h-1.5v1.1h1.4V31.7z"/>
		<path class="st2" d="M172.8,33.4v-3.6h0.5l1.2,1.8c0.3,0.4,0.5,0.8,0.7,1.2l0,0c0-0.5-0.1-0.9-0.1-1.5v-1.5h0.4v3.6h-0.5l-1.2-1.8
			c-0.3-0.4-0.5-0.8-0.7-1.2l0,0c0,0.5,0,0.9,0,1.5v1.6H172.8z"/>
		<path class="st2" d="M177.3,30.1h-1.1v-0.4h2.7v0.4h-1.1v3.2h-0.5V30.1z"/>
		<path class="st2" d="M181.4,31.7H180V33h1.6v0.4h-2v-3.6h2v0.4H180v1.1h1.4V31.7z"/>
		<path class="st2" d="M182.4,29.8c0.2,0,0.6-0.1,0.9-0.1c0.5,0,0.8,0.1,1.1,0.3c0.2,0.2,0.3,0.4,0.3,0.7c0,0.5-0.3,0.8-0.7,0.9v0
			c0.3,0.1,0.4,0.4,0.5,0.7c0.1,0.5,0.2,0.9,0.3,1h-0.5c-0.1-0.1-0.1-0.4-0.2-0.9c-0.1-0.5-0.3-0.7-0.7-0.7h-0.4v1.6h-0.5V29.8z
			 M182.9,31.4h0.5c0.5,0,0.8-0.3,0.8-0.7c0-0.5-0.3-0.7-0.8-0.7c-0.2,0-0.4,0-0.5,0V31.4z"/>
	</g>
	<rect x="136.9" y="25.8" class="st0" width="2.2" height="11.8"/>
	<rect x="134.3" y="28" class="st0" width="2.2" height="7.5"/>
	<rect x="131.7" y="30.1" class="st0" width="2.2" height="4.3"/>
	
		<rect x="186.6" y="25.8" transform="matrix(-1 -1.224647e-16 1.224647e-16 -1 375.2693 63.4458)" class="st0" width="2.2" height="11.8"/>
	
		<rect x="189.1" y="28" transform="matrix(-1 -1.224647e-16 1.224647e-16 -1 380.4221 63.4458)" class="st0" width="2.2" height="7.5"/>
	
		<rect x="191.7" y="29" transform="matrix(-1 -1.224647e-16 1.224647e-16 -1 385.5748 62.3691)" class="st0" width="2.2" height="4.3"/>
	<rect x="139.7" y="35.1" class="st0" width="46.3" height="0.6"/>
	<rect x="139.7" y="36.1" class="st5" width="46.3" height="0.6"/>
	<rect x="139.7" y="37" class="st6" width="46.3" height="0.6"/>
</g>
<g>
	<g>
		<path class="st0" d="M156.9,92.3c-0.7,0.4-1.9,0.8-2.9,0.8c-0.5,0-0.8-0.1-0.8-0.6c0-0.5,0.8-1,1.2-1c0.4,0,0.4,0.2,0.3,0.4
			c0,0-0.1,0.1-0.1-0.1c0-0.1,0-0.1-0.2-0.1c-0.3,0-1.1,0.4-1.1,0.8c0,0.3,0.3,0.4,0.7,0.4c0.9,0,2.1-0.4,2.8-0.8
			C156.8,92.2,156.9,92.1,156.9,92.3"/>
		<path class="st0" d="M158.1,93c-0.2,0-0.4,0-0.6-0.1c-0.1,0-0.3,0.1-0.5,0.1c-0.3,0-0.4-0.2-0.4-0.4c0-0.1,0.1-0.3,0.1-0.4
			c0.1-0.1,0.1,0.1,0.1,0.1c-0.1,0.1-0.1,0.2-0.1,0.3c0,0.1,0.1,0.2,0.2,0.2c0.1,0,0.2,0,0.3,0c-0.1-0.1-0.2-0.3-0.2-0.5
			c0-0.4,0.3-0.9,0.7-0.9c0.3,0,0.4,0.3,0.4,0.4c0,0.5-0.2,0.8-0.6,1c0.1,0,0.2,0,0.4,0c0.7,0,1.5-0.2,2.3-0.7
			c0.1-0.1,0.1,0.1,0.1,0.1C159.6,92.8,158.8,93,158.1,93 M157.9,91.6c-0.4,0-0.6,0.4-0.6,0.7c0,0.2,0.1,0.3,0.2,0.4
			c0.3-0.1,0.6-0.4,0.6-0.9C158.1,91.7,158,91.6,157.9,91.6"/>
		<path class="st0" d="M162.7,93.1c-0.6,0-0.8-0.4-0.8-0.7c0-0.1,0-0.1,0-0.2c-0.2,0.3-0.6,0.5-0.8,0.5c-0.2,0-0.2-0.1-0.2-0.3
			c0-0.1,0-0.3,0.1-0.5c-0.2,0.1-0.4,0.3-0.5,0.4c-0.1,0.1-0.1-0.1-0.1-0.1c0.3-0.2,0.6-0.4,0.9-0.6c0.1-0.1,0.1,0.1,0.1,0.1
			c-0.1,0.1-0.3,0.5-0.3,0.7c0,0.1,0,0.1,0.1,0.1c0.2,0,0.7-0.4,0.9-0.7c0.2,0,0.1,0.1,0.1,0.1s-0.1,0.2-0.1,0.5
			c0,0.3,0.2,0.6,0.7,0.6c0.4,0,1.3-0.1,2.3-0.8c0.1,0,0.1,0.1,0.1,0.1C164.1,92.9,163.2,93.1,162.7,93.1"/>
		<path class="st0" d="M167.9,93.2c-1.1,0-1-0.6-1-1c0-0.2,0-0.4-0.2-0.4c-0.2,0-0.7,0.3-1,0.6c-0.3,0.3-0.6,0.5-0.8,0.5
			c-0.2,0-0.2-0.1-0.2-0.2c0-0.2,0.1-0.4,0.2-0.5c0,0,0.1-0.1,0.1,0.1c0,0.1-0.1,0.3-0.1,0.4c0,0,0,0.1,0,0.1c0.1,0,0.4-0.2,0.7-0.5
			c0.3-0.3,0.8-0.6,1.1-0.6c0.3,0,0.3,0.2,0.3,0.5c0,0.4-0.1,0.8,0.8,0.8c0.7,0,1.9-0.3,2.8-0.9c0.1-0.1,0.1,0.1,0.1,0.1
			C169.8,92.9,168.6,93.2,167.9,93.2"/>
		<path class="st0" d="M175,92.3c-0.8,0.5-1.4,0.7-2,0.7c-0.1,0-0.2,0-0.3,0c-0.2,0.3-0.7,0.4-1,0.4c-0.5,0-0.8-0.2-0.8-0.5
			c0-0.4,0.3-0.5,0.6-0.5c0.4,0,0.7,0.3,1.1,0.4c0-0.1,0-0.1,0-0.2c0-0.4-0.9-0.6-0.9-1c-0.3,0.3-0.8,0.6-1,0.7c0,0-0.1,0.1-0.1-0.1
			c0.3-0.2,0.9-0.6,1.2-0.9c0.2,0,0.1,0.1,0.1,0.1l-0.1,0.1c0,0,0,0.1,0,0.1c0,0.3,0.9,0.6,0.9,1c0,0.1,0,0.2,0,0.2
			c0.1,0,0.1,0,0.2,0c0.6,0,1.2-0.1,1.9-0.6C174.9,92.2,175.1,92.1,175,92.3 M172.6,92.9c-0.3-0.1-0.7-0.4-1-0.4
			c-0.2,0-0.5,0.1-0.5,0.4c0,0.2,0.2,0.4,0.6,0.4C172,93.2,172.4,93.1,172.6,92.9"/>
		<path class="st0" d="M178.5,92.3c-0.7,0.4-1.8,0.9-3.1,0.9c-0.5,0-0.7-0.2-0.7-0.5c0-0.5,0.6-1,1.1-1c0.2,0,0.3,0.1,0.3,0.3
			c0,0.3-0.4,0.5-0.6,0.5c-0.2,0-0.3,0-0.5-0.1c-0.1,0.1-0.1,0.3-0.1,0.4c0,0.2,0.1,0.3,0.5,0.3c1.2,0,2.3-0.5,3-0.9
			C178.5,92.1,178.5,92.1,178.5,92.3 M175.2,92.2c0.1,0,0.3,0.1,0.4,0.1c0.2,0,0.5-0.1,0.5-0.3c0-0.1,0-0.1-0.2-0.1
			C175.6,91.8,175.3,92,175.2,92.2"/>
		<path class="st0" d="M182.1,92.3c-0.9,0.6-1.9,0.9-2.8,0.9c-0.5,0-0.9-0.1-1-0.8c0-0.8,1-2.4,1.5-2.4c0.2,0,0.3,0.1,0.3,0.3
			c0,0.8-1,1.5-1.6,1.9c0,0,0,0,0,0c0,0,0,0.1,0,0.1c0,0.5,0.4,0.6,0.8,0.6c0.8,0,1.9-0.3,2.7-0.9C182,92.2,182.1,92.1,182.1,92.3
			 M178.6,92.1c0.6-0.4,1.5-1.1,1.5-1.7c0-0.1-0.1-0.2-0.2-0.2C179.4,90.2,178.7,91.3,178.6,92.1"/>
		<path class="st0" d="M182.9,93c-0.6,0-0.9-0.2-0.9-0.6c0-0.1,0-0.1,0-0.2c0.1-0.1,0.2-0.1,0.2,0c0,0.1,0,0.1,0,0.2
			c0,0.3,0.2,0.5,0.8,0.5c0.7,0,1.6-0.2,2.3-0.7c0.1-0.1,0.1,0.1,0.1,0.1C184.5,92.8,183.6,93,182.9,93 M182.2,91.1
			c0.3,0,0.2,0.2-0.1,0.2C181.9,91.3,182.2,91.2,182.2,91.1"/>
		<path class="st0" d="M188.1,93.2c-1.1,0-1-0.6-1-1c0-0.2,0-0.4-0.2-0.4c-0.2,0-0.7,0.3-1,0.6c-0.3,0.3-0.6,0.5-0.8,0.5
			c-0.2,0-0.2-0.1-0.2-0.2c0-0.2,0.1-0.4,0.2-0.5c0,0,0.1-0.1,0.1,0.1c0,0.1-0.1,0.3-0.1,0.4c0,0,0,0.1,0,0.1c0.1,0,0.4-0.2,0.7-0.5
			c0.3-0.3,0.8-0.6,1.1-0.6c0.3,0,0.3,0.2,0.3,0.5c0,0.4-0.1,0.8,0.8,0.8c0.7,0,1.9-0.3,2.8-0.9c0.1-0.1,0.1,0.1,0.1,0.1
			C190,92.9,188.8,93.2,188.1,93.2"/>
		<path class="st0" d="M195,92.3c-0.7,0.4-2,1-3.1,1.6c-0.4,0.8-0.8,1.5-1.2,1.5c-0.2,0-0.3-0.1-0.3-0.3c0-0.4,0.6-0.9,1.4-1.3
			c0.2-0.5,0.4-1.1,0.6-1.6c-0.1,0.1-0.1,0.1-0.2,0.2c-0.2,0.4-0.6,0.6-1.1,0.6c-0.2,0-0.4-0.1-0.4-0.4c0-0.1,0-0.3,0.1-0.4
			c0.1-0.1,0.1,0.1,0.1,0.1c-0.1,0.1-0.1,0.3-0.1,0.3c0,0.2,0.1,0.2,0.2,0.2c0.3,0,0.6-0.1,0.8-0.3c-0.1,0-0.3,0.1-0.5,0.1
			c-0.2,0-0.3-0.1-0.3-0.3c0-0.3,0.4-0.8,0.8-0.8c0.3,0,0.4,0.2,0.4,0.5c0,0.1,0,0.1,0,0.2c0.1-0.1,0.2-0.2,0.2-0.2
			c0,0,0.2-0.1,0.2,0c-0.1,0.5-0.3,1.1-0.6,1.8c1-0.5,2.2-1,2.9-1.5C194.9,92.2,195,92.1,195,92.3 M191.7,94
			c-0.7,0.4-1.1,0.8-1.1,1.1c0,0.1,0.1,0.2,0.2,0.2C191,95.2,191.4,94.7,191.7,94 M192.1,92.2c0-0.1,0.1-0.2,0.1-0.3
			c0-0.2-0.1-0.3-0.3-0.3c-0.3,0-0.6,0.4-0.6,0.6c0,0.1,0.1,0.2,0.2,0.2C191.7,92.4,191.9,92.3,192.1,92.2"/>
		<path class="st0" d="M148.7,80.6c0-0.1,0.1-0.2,0.2-0.2h2.1c1.4,0,2.4,0.7,2.4,2v0c0,1.4-1.2,2-2.5,2h-1.7v2.2
			c0,0.1-0.1,0.2-0.2,0.2c-0.1,0-0.2-0.1-0.2-0.2V80.6z M150.9,83.9c1.2,0,2-0.6,2-1.6v0c0-1-0.8-1.6-1.9-1.6h-1.8v3.2H150.9z"/>
		<path class="st0" d="M154.3,85.4L154.3,85.4c0-1,0.8-1.5,2-1.5c0.7,0,1.1,0.1,1.6,0.2v-0.2c0-0.9-0.6-1.4-1.5-1.4
			c-0.5,0-0.9,0.1-1.3,0.3c0,0-0.1,0-0.1,0c-0.1,0-0.2-0.1-0.2-0.2c0-0.1,0.1-0.2,0.1-0.2c0.5-0.2,0.9-0.4,1.5-0.4
			c0.6,0,1.1,0.2,1.5,0.5c0.3,0.3,0.5,0.7,0.5,1.3v2.7c0,0.1-0.1,0.2-0.2,0.2c-0.1,0-0.2-0.1-0.2-0.2V86c-0.3,0.5-0.9,0.9-1.8,0.9
			C155.2,86.9,154.3,86.4,154.3,85.4 M157.9,85v-0.5c-0.4-0.1-0.9-0.2-1.6-0.2c-1,0-1.5,0.4-1.5,1.1v0c0,0.7,0.6,1.1,1.4,1.1
			C157.1,86.5,157.9,85.9,157.9,85"/>
		<path class="st0" d="M163.8,86.6c0,0.1-0.1,0.2-0.2,0.2c-0.1,0-0.2-0.1-0.2-0.2v-0.7c-0.3,0.6-0.8,1-1.7,1c-1.2,0-1.9-0.8-1.9-1.9
			v-2.7c0-0.1,0.1-0.2,0.2-0.2c0.1,0,0.2,0.1,0.2,0.2v2.6c0,1,0.5,1.6,1.5,1.6c0.9,0,1.6-0.7,1.6-1.7v-2.5c0-0.1,0.1-0.2,0.2-0.2
			c0.1,0,0.2,0.1,0.2,0.2V86.6z"/>
		<path class="st0" d="M165.6,80.3c0-0.1,0.1-0.2,0.2-0.2c0.1,0,0.2,0.1,0.2,0.2v6.3c0,0.1-0.1,0.2-0.2,0.2c-0.1,0-0.2-0.1-0.2-0.2
			V80.3z"/>
		<path class="st0" d="M167.5,85.4L167.5,85.4c0-1,0.8-1.5,2-1.5c0.7,0,1.1,0.1,1.6,0.2v-0.2c0-0.9-0.6-1.4-1.5-1.4
			c-0.5,0-0.9,0.1-1.3,0.3c0,0-0.1,0-0.1,0c-0.1,0-0.2-0.1-0.2-0.2c0-0.1,0.1-0.2,0.1-0.2c0.5-0.2,0.9-0.4,1.5-0.4
			c0.6,0,1.1,0.2,1.5,0.5c0.3,0.3,0.5,0.7,0.5,1.3v2.7c0,0.1-0.1,0.2-0.2,0.2c-0.1,0-0.2-0.1-0.2-0.2V86c-0.3,0.5-0.9,0.9-1.8,0.9
			C168.4,86.9,167.5,86.4,167.5,85.4 M171.1,85v-0.5c-0.4-0.1-0.9-0.2-1.6-0.2c-1,0-1.5,0.4-1.5,1.1v0c0,0.7,0.6,1.1,1.4,1.1
			C170.3,86.5,171.1,85.9,171.1,85"/>
		<path class="st0" d="M176,86.5v-6c0-0.1,0.1-0.2,0.2-0.2h4.2c0.1,0,0.2,0.1,0.2,0.2c0,0.1-0.1,0.2-0.2,0.2h-3.9v2.5h3.5
			c0.1,0,0.2,0.1,0.2,0.2c0,0.1-0.1,0.2-0.2,0.2h-3.5v2.6h4c0.1,0,0.2,0.1,0.2,0.2c0,0.1-0.1,0.2-0.2,0.2h-4.2
			C176.1,86.8,176,86.7,176,86.5"/>
		<path class="st0" d="M181.7,86.3c0,0-0.1-0.1-0.1-0.2c0-0.1,0.1-0.2,0.2-0.2c0.1,0,0.1,0,0.1,0c0.5,0.3,1,0.5,1.6,0.5
			c0.6,0,1.1-0.3,1.1-0.9v0c0-0.6-0.6-0.8-1.2-0.9c-0.8-0.2-1.6-0.5-1.6-1.3v0c0-0.8,0.6-1.3,1.5-1.3c0.5,0,1.1,0.2,1.5,0.4
			c0.1,0,0.1,0.1,0.1,0.2c0,0.1-0.1,0.2-0.2,0.2c-0.1,0-0.1,0-0.1,0c-0.4-0.2-0.9-0.4-1.3-0.4c-0.6,0-1.1,0.3-1.1,0.8v0
			c0,0.5,0.6,0.7,1.3,0.9c0.8,0.2,1.5,0.5,1.5,1.3v0c0,0.8-0.7,1.4-1.6,1.4C182.9,86.9,182.2,86.6,181.7,86.3"/>
		<path class="st0" d="M186.3,84.5L186.3,84.5c0-1.3,1-2.5,2.4-2.5c0.8,0,1.3,0.3,1.8,0.7c0,0,0.1,0.1,0.1,0.2
			c0,0.1-0.1,0.2-0.2,0.2c-0.1,0-0.1,0-0.2-0.1c-0.4-0.4-0.8-0.7-1.5-0.7c-1.1,0-1.9,0.9-1.9,2v0c0,1.1,0.9,2,1.9,2
			c0.6,0,1.1-0.3,1.5-0.7c0,0,0.1-0.1,0.1-0.1c0.1,0,0.2,0.1,0.2,0.2c0,0,0,0.1-0.1,0.1c-0.5,0.5-1,0.8-1.8,0.8
			C187.3,86.9,186.3,85.8,186.3,84.5"/>
		<path class="st0" d="M191.4,84.5L191.4,84.5c0-1.3,1-2.5,2.4-2.5c1.4,0,2.4,1.1,2.4,2.4v0c0,1.3-1,2.5-2.4,2.5
			C192.4,86.9,191.4,85.8,191.4,84.5 M195.7,84.5L195.7,84.5c0-1.1-0.8-2.1-1.9-2.1c-1.1,0-1.9,0.9-1.9,2v0c0,1.1,0.8,2,1.9,2
			C194.9,86.5,195.7,85.6,195.7,84.5"/>
		<path class="st0" d="M197.8,85.6v-3.1h-0.5c-0.1,0-0.2-0.1-0.2-0.2c0-0.1,0.1-0.2,0.2-0.2h0.5v-1.3c0-0.1,0.1-0.2,0.2-0.2
			c0.1,0,0.2,0.1,0.2,0.2v1.3h1.5c0.1,0,0.2,0.1,0.2,0.2c0,0.1-0.1,0.2-0.2,0.2h-1.5v3c0,0.7,0.4,0.9,0.9,0.9c0.3,0,0.5-0.1,0.5-0.1
			c0.1,0,0.2,0.1,0.2,0.2c0,0.1-0.1,0.2-0.1,0.2c-0.2,0.1-0.4,0.1-0.7,0.1C198.4,86.9,197.8,86.5,197.8,85.6"/>
		<path class="st7" d="M140.4,87.8L140.4,87.8c0-0.1,0-0.2-0.1-0.2c-0.1,0-0.1,0-0.2,0.1h0c-1.2,1.2-3,1.7-4.7,1
			c-1.7-0.7-2.7-2.2-2.7-3.9l0,0h0c0-0.1,0-0.1-0.1-0.2c-0.1,0-0.2,0-0.2,0.1h0l0,0c0,0.1,0,0.1-0.1,0.2c-0.9,2.2,0.2,4.7,2.4,5.5
			c2.2,0.9,4.7-0.2,5.5-2.4C140.3,88,140.4,87.9,140.4,87.8"/>
		<path class="st7" d="M134.4,82.6L134.4,82.6c-0.1,0-0.1,0.1-0.1,0.2c0,0.1,0.1,0.1,0.2,0.1l0,0c1.7,0,3.3,0.9,4,2.5
			c0.7,1.6,0.4,3.5-0.8,4.7l0,0l0,0c-0.1,0-0.1,0.1,0,0.2c0,0.1,0.1,0.1,0.2,0.1l0,0l0,0c0.1,0,0.1,0,0.2-0.1c2.2-1,3.1-3.5,2.2-5.6
			c-1-2.2-3.5-3.1-5.6-2.2C134.6,82.6,134.5,82.6,134.4,82.6"/>
		<path class="st7" d="M134,90L134,90c0.1,0,0.2,0,0.2,0c0-0.1,0-0.1,0-0.2h0c-0.9-1.4-0.9-3.3,0.2-4.8c1.1-1.4,2.8-2,4.5-1.6l0,0h0
			c0.1,0,0.1,0,0.2-0.1c0-0.1,0-0.2,0-0.2l0,0l0,0c0,0-0.1-0.1-0.1-0.1c-1.9-1.4-4.6-1-6,0.9c-1.4,1.9-1,4.6,0.9,6
			C133.8,89.9,133.9,90,134,90"/>
		<path class="st7" d="M144.2,91.5L144.2,91.5c0.1-0.1,0-0.3-0.2-0.4c-0.1,0-0.3,0-0.3,0.1h0c-2.1,2.2-5.4,3-8.3,1.8
			c-3-1.2-4.8-4-4.9-7v-0.1h0c0-0.1-0.1-0.2-0.2-0.3c-0.1-0.1-0.3,0-0.4,0.1l0,0l0,0.1c0,0.1-0.1,0.2-0.1,0.3
			c-1.5,3.9,0.4,8.4,4.3,9.9c3.9,1.5,8.4-0.4,9.9-4.3C144.1,91.8,144.1,91.6,144.2,91.5"/>
		<path class="st7" d="M129.1,92.7L129.1,92.7c0.1,0.1,0.3,0.1,0.4-0.1c0.1-0.1,0.1-0.2,0-0.3h0c-1.6-2.5-1.7-5.9,0.2-8.5
			c1.8-2.6,5-3.7,7.9-3.1l0.1,0h0c0.1,0,0.3,0,0.3-0.1c0.1-0.1,0.1-0.3,0-0.4l0,0l0,0c-0.1-0.1-0.2-0.1-0.3-0.2
			c-3.5-2.4-8.3-1.6-10.7,1.9c-2.4,3.5-1.6,8.3,1.9,10.7C128.9,92.6,129,92.7,129.1,92.7"/>
		<path class="st7" d="M136.1,78L136.1,78c-0.2,0-0.2,0.2-0.2,0.3c0,0.1,0.1,0.2,0.3,0.2v0c2.9,0.6,5.4,2.9,6,6.1
			c0.6,3.1-0.8,6.2-3.3,7.8l-0.1,0v0c-0.1,0.1-0.2,0.2-0.2,0.3c0,0.1,0.2,0.2,0.3,0.2l0,0l0.1,0c0.1,0,0.2,0,0.3-0.1
			c4.2-0.8,6.9-4.8,6.1-9c-0.8-4.2-4.8-6.9-9-6.1C136.3,77.9,136.2,78,136.1,78"/>
		<g class="st8">
			<g>
				<defs>
					<rect id="SVGID_1_" x="132.1" y="82.2" width="8.6" height="8.6"/>
				</defs>
				<clipPath id="SVGID_2_">
					<use xlink:href="#SVGID_1_"  style="overflow:visible;"/>
				</clipPath>
				<g class="st9">
					<g>
						<defs>
							<rect id="SVGID_3_" x="132.1" y="84.6" width="8.3" height="6.1"/>
						</defs>
						<clipPath id="SVGID_4_">
							<use xlink:href="#SVGID_3_"  style="overflow:visible;"/>
						</clipPath>
						<g class="st10">
							<defs>
								<path id="SVGID_5_" d="M140.4,87.8L140.4,87.8c0-0.1,0-0.2-0.1-0.2c-0.1,0-0.1,0-0.2,0.1h0c-1.2,1.2-3,1.7-4.7,1
									c-1.7-0.7-2.7-2.2-2.7-3.9l0,0h0c0-0.1,0-0.1-0.1-0.2c-0.1,0-0.2,0-0.2,0.1h0l0,0c0,0.1,0,0.1-0.1,0.2
									c-0.9,2.2,0.2,4.7,2.4,5.5c2.2,0.9,4.7-0.2,5.5-2.4C140.3,88,140.4,87.9,140.4,87.8"/>
							</defs>
							<clipPath id="SVGID_6_">
								<use xlink:href="#SVGID_5_"  style="overflow:visible;"/>
							</clipPath>
							
								<linearGradient id="SVGID_7_" gradientUnits="userSpaceOnUse" x1="-108.8704" y1="158.1559" x2="-108.7068" y2="158.1559" gradientTransform="matrix(50.9701 0 0 -50.9701 5681.1948 8149.1782)">
								<stop  offset="0" style="stop-color:#C0C0C0"/>
								<stop  offset="0.9516" style="stop-color:#D8D8D8"/>
								<stop  offset="1" style="stop-color:#D8D8D8"/>
							</linearGradient>
							<rect x="131.5" y="84.6" class="st11" width="8.9" height="6.7"/>
						</g>
					</g>
				</g>
				<g class="st9">
					<g>
						<defs>
							<rect id="SVGID_8_" x="134.3" y="82.2" width="6.3" height="8.3"/>
						</defs>
						<clipPath id="SVGID_9_">
							<use xlink:href="#SVGID_8_"  style="overflow:visible;"/>
						</clipPath>
						<g class="st12">
							<defs>
								<path id="SVGID_10_" d="M134.4,82.6L134.4,82.6c-0.1,0-0.1,0.1-0.1,0.2c0,0.1,0.1,0.1,0.2,0.1l0,0c1.7,0,3.3,0.9,4,2.5
									c0.7,1.6,0.4,3.5-0.8,4.7l0,0l0,0c-0.1,0-0.1,0.1,0,0.2c0,0.1,0.1,0.1,0.2,0.1l0,0l0,0c0.1,0,0.1,0,0.2-0.1
									c2.2-1,3.1-3.5,2.2-5.6c-1-2.2-3.5-3.1-5.6-2.2C134.6,82.6,134.5,82.6,134.4,82.6"/>
							</defs>
							<clipPath id="SVGID_11_">
								<use xlink:href="#SVGID_10_"  style="overflow:visible;"/>
							</clipPath>
							
								<linearGradient id="SVGID_12_" gradientUnits="userSpaceOnUse" x1="-113.9444" y1="157.5496" x2="-113.7808" y2="157.5496" gradientTransform="matrix(-33.3197 -39.4094 -39.4094 33.3197 2552.4988 -9651.1279)">
								<stop  offset="0" style="stop-color:#A8A8A8"/>
								<stop  offset="0.957" style="stop-color:#B7B7B7"/>
								<stop  offset="1" style="stop-color:#B7B7B7"/>
							</linearGradient>
							<polygon class="st13" points="137.2,93.9 129.9,85.3 138.3,78.2 145.6,86.8 							"/>
						</g>
					</g>
				</g>
				<g class="st9">
					<g>
						<defs>
							<rect id="SVGID_13_" x="132.1" y="82.2" width="7" height="7.9"/>
						</defs>
						<clipPath id="SVGID_14_">
							<use xlink:href="#SVGID_13_"  style="overflow:visible;"/>
						</clipPath>
						<g class="st14">
							<defs>
								<path id="SVGID_15_" d="M134,90L134,90c0.1,0,0.2,0,0.2,0c0-0.1,0-0.1,0-0.2h0c-0.9-1.4-0.9-3.3,0.2-4.8
									c1.1-1.4,2.8-2,4.5-1.6l0,0h0c0.1,0,0.1,0,0.2-0.1c0-0.1,0-0.2,0-0.2l0,0l0,0c0,0-0.1-0.1-0.1-0.1c-1.9-1.4-4.6-1-6,0.9
									c-1.4,1.9-1,4.6,0.9,6C133.8,89.9,133.9,90,134,90"/>
							</defs>
							<clipPath id="SVGID_16_">
								<use xlink:href="#SVGID_15_"  style="overflow:visible;"/>
							</clipPath>
							
								<linearGradient id="SVGID_17_" gradientUnits="userSpaceOnUse" x1="-111.6821" y1="161.8288" x2="-111.5185" y2="161.8288" gradientTransform="matrix(-17.718 48.4703 48.4703 17.718 -9685.9785 2628.0227)">
								<stop  offset="0" style="stop-color:#626262"/>
								<stop  offset="1" style="stop-color:#5D5D5D"/>
							</linearGradient>
							<polygon class="st15" points="141.8,82.6 138.2,92.5 128.8,89.1 132.4,79.2 							"/>
						</g>
					</g>
				</g>
			</g>
		</g>
		<g class="st8">
			<g>
				<defs>
					<rect id="SVGID_18_" x="125.5" y="77.8" width="20" height="19"/>
				</defs>
				<clipPath id="SVGID_19_">
					<use xlink:href="#SVGID_18_"  style="overflow:visible;"/>
				</clipPath>
				<g class="st16">
					<g>
						<defs>
							<rect id="SVGID_20_" x="129.2" y="85.8" width="14.9" height="11"/>
						</defs>
						<clipPath id="SVGID_21_">
							<use xlink:href="#SVGID_20_"  style="overflow:visible;"/>
						</clipPath>
						<g class="st17">
							<defs>
								<path id="SVGID_22_" d="M144.2,91.5L144.2,91.5c0.1-0.1,0-0.3-0.2-0.4c-0.1,0-0.3,0-0.3,0.1h0c-2.1,2.2-5.4,3-8.3,1.8
									c-3-1.2-4.8-4-4.9-7v-0.1h0c0-0.1-0.1-0.2-0.2-0.3c-0.1-0.1-0.3,0-0.4,0.1l0,0l0,0.1c0,0.1-0.1,0.2-0.1,0.3
									c-1.5,3.9,0.4,8.4,4.3,9.9c3.9,1.5,8.4-0.4,9.9-4.3C144.1,91.8,144.1,91.6,144.2,91.5"/>
							</defs>
							<clipPath id="SVGID_23_">
								<use xlink:href="#SVGID_22_"  style="overflow:visible;"/>
							</clipPath>
							
								<linearGradient id="SVGID_24_" gradientUnits="userSpaceOnUse" x1="-110.1037" y1="158.8324" x2="-109.94" y2="158.8324" gradientTransform="matrix(92.0842 8.4151 8.4151 -92.0842 8931.2305 15643.5771)">
								<stop  offset="0" style="stop-color:#BDBDBD"/>
								<stop  offset="0.9516" style="stop-color:#A1A1A1"/>
								<stop  offset="1" style="stop-color:#A1A1A1"/>
							</linearGradient>
							<polygon class="st18" points="128.3,84.3 145.3,85.8 144.1,99.2 127.1,97.7 							"/>
						</g>
					</g>
				</g>
				<g class="st16">
					<g>
						<defs>
							<rect id="SVGID_25_" x="125.5" y="78.6" width="12.5" height="14.2"/>
						</defs>
						<clipPath id="SVGID_26_">
							<use xlink:href="#SVGID_25_"  style="overflow:visible;"/>
						</clipPath>
						<g class="st19">
							<defs>
								<path id="SVGID_27_" d="M129.1,92.7L129.1,92.7c0.1,0.1,0.3,0.1,0.4-0.1c0.1-0.1,0.1-0.2,0-0.3l0,0
									c-1.6-2.5-1.7-5.9,0.2-8.5c1.8-2.6,5-3.7,7.9-3.1l0.1,0h0c0.1,0,0.3,0,0.3-0.1c0.1-0.1,0.1-0.3,0-0.4l0,0l0,0
									c-0.1-0.1-0.2-0.1-0.3-0.2c-3.5-2.4-8.3-1.6-10.7,1.9c-2.4,3.5-1.6,8.3,1.9,10.7C128.9,92.6,129,92.7,129.1,92.7"/>
							</defs>
							<clipPath id="SVGID_28_">
								<use xlink:href="#SVGID_27_"  style="overflow:visible;"/>
							</clipPath>
							
								<linearGradient id="SVGID_29_" gradientUnits="userSpaceOnUse" x1="-109.2158" y1="158.5432" x2="-109.0522" y2="158.5432" gradientTransform="matrix(70.2916 9.7607 9.7607 -70.2916 6255.1689 12294.6729)">
								<stop  offset="0" style="stop-color:#979797"/>
								<stop  offset="0.2595" style="stop-color:#9B9B9B"/>
								<stop  offset="0.5264" style="stop-color:#A7A7A7"/>
								<stop  offset="0.7957" style="stop-color:#BCBCBC"/>
								<stop  offset="0.957" style="stop-color:#CCCCCC"/>
								<stop  offset="1" style="stop-color:#CCCCCC"/>
							</linearGradient>
							<polygon class="st20" points="124.7,75.7 140.1,77.8 137.8,94.6 122.4,92.5 							"/>
						</g>
					</g>
				</g>
				<g class="st16">
					<defs>
						<path id="SVGID_30_" d="M136.1,78L136.1,78c-0.2,0-0.2,0.2-0.2,0.3c0,0.1,0.1,0.2,0.3,0.2v0c2.9,0.6,5.4,2.9,6,6.1
							c0.6,3.1-0.8,6.2-3.3,7.8l-0.1,0v0c-0.1,0.1-0.2,0.2-0.2,0.3c0,0.1,0.2,0.2,0.3,0.2l0,0l0.1,0c0.1,0,0.2,0,0.3-0.1
							c4.2-0.8,6.9-4.8,6.1-9c-0.8-4.2-4.8-6.9-9-6.1C136.3,77.9,136.2,78,136.1,78"/>
					</defs>
					<clipPath id="SVGID_31_">
						<use xlink:href="#SVGID_30_"  style="overflow:visible;"/>
					</clipPath>
					
						<linearGradient id="SVGID_32_" gradientUnits="userSpaceOnUse" x1="-109.6769" y1="158.3087" x2="-109.5133" y2="158.3087" gradientTransform="matrix(62.763 5.7356 5.7356 -62.763 6110.9575 10649.5693)">
						<stop  offset="0" style="stop-color:#474747"/>
						<stop  offset="1" style="stop-color:#595959"/>
					</linearGradient>
					<polygon class="st21" points="135.9,76.2 147.6,77.3 146.1,94 134.4,92.9 					"/>
				</g>
			</g>
		</g>
		<g class="st8">
			<g>
				<defs>
					<rect id="SVGID_33_" x="132.1" y="82.2" width="8.2" height="8.6"/>
				</defs>
				<clipPath id="SVGID_34_">
					<use xlink:href="#SVGID_33_"  style="overflow:visible;"/>
				</clipPath>
				<g class="st22">
					<g>
						<defs>
							<rect id="SVGID_35_" x="132.1" y="85.1" width="8.2" height="5.6"/>
						</defs>
						<clipPath id="SVGID_36_">
							<use xlink:href="#SVGID_35_"  style="overflow:visible;"/>
						</clipPath>
						<g class="st23">
							<defs>
								<path id="SVGID_37_" d="M134.8,90.4c2.1,0.8,4.5-0.1,5.4-2.2c0,0,0-0.1-0.1-0.1c-0.1,0-0.1,0-0.2,0.1h0
									c-1.2,1.2-3,1.7-4.7,1c-1.7-0.7-2.7-2.2-2.7-3.9l0,0l0,0c0-0.1,0-0.1-0.1-0.2c-0.1,0-0.2,0-0.2,0.1h0l0,0c0,0,0,0.1,0,0.1
									C131.7,87.4,132.7,89.6,134.8,90.4"/>
							</defs>
							<clipPath id="SVGID_38_">
								<use xlink:href="#SVGID_37_"  style="overflow:visible;"/>
							</clipPath>
							<defs>
								<filter id="Adobe_OpacityMaskFilter" filterUnits="userSpaceOnUse" x="131.7" y="85.1" width="8.6" height="6.2">
									<feColorMatrix  type="matrix" values="1 0 0 0 0  0 1 0 0 0  0 0 1 0 0  0 0 0 1 0"/>
								</filter>
							</defs>
							<mask maskUnits="userSpaceOnUse" x="131.7" y="85.1" width="8.6" height="6.2" id="SVGID_39_">
								<g class="st24">
									
										<linearGradient id="SVGID_40_" gradientUnits="userSpaceOnUse" x1="-108.812" y1="158.1539" x2="-108.6484" y2="158.1539" gradientTransform="matrix(49.8395 0 0 -49.8395 5555.1968 7970.5122)">
										<stop  offset="0" style="stop-color:#000000"/>
										<stop  offset="0.5054" style="stop-color:#FFFFFF"/>
										<stop  offset="0.5481" style="stop-color:#E8E8E8"/>
										<stop  offset="0.638" style="stop-color:#ACACAC"/>
										<stop  offset="0.7665" style="stop-color:#4C4C4C"/>
										<stop  offset="0.8637" style="stop-color:#000000"/>
										<stop  offset="1" style="stop-color:#000000"/>
									</linearGradient>
									<rect x="131.7" y="85.1" class="st25" width="8.6" height="6.2"/>
								</g>
							</mask>
							
								<linearGradient id="SVGID_41_" gradientUnits="userSpaceOnUse" x1="-108.812" y1="158.1539" x2="-108.6484" y2="158.1539" gradientTransform="matrix(49.8395 0 0 -49.8395 5555.1968 7970.5122)">
								<stop  offset="0" style="stop-color:#F7F7F7"/>
								<stop  offset="0.5054" style="stop-color:#F7F7F7"/>
								<stop  offset="0.8637" style="stop-color:#F7F7F7"/>
								<stop  offset="1" style="stop-color:#F7F7F7"/>
							</linearGradient>
							<rect x="131.7" y="85.1" class="st26" width="8.6" height="6.2"/>
						</g>
					</g>
				</g>
				<g class="st22">
					<g>
						<defs>
							<rect id="SVGID_42_" x="134.3" y="82.2" width="5.9" height="8.2"/>
						</defs>
						<clipPath id="SVGID_43_">
							<use xlink:href="#SVGID_42_"  style="overflow:visible;"/>
						</clipPath>
						<g class="st27">
							<defs>
								<path id="SVGID_44_" d="M139.9,84.8c-0.8-1.7-2.5-2.7-4.3-2.5c-0.3,0.1-0.7,0.2-1,0.3c-0.1,0-0.1,0.1-0.2,0.1h0
									c-0.1,0-0.1,0.1-0.1,0.2c0,0.1,0.1,0.1,0.2,0.1l0,0c1.7,0,3.3,0.9,4,2.5c0.7,1.6,0.4,3.5-0.8,4.7l0,0l0,0
									c-0.1,0-0.1,0.1,0,0.2c0,0,0,0,0,0.1C139.9,89.5,140.9,86.9,139.9,84.8"/>
							</defs>
							<clipPath id="SVGID_45_">
								<use xlink:href="#SVGID_44_"  style="overflow:visible;"/>
							</clipPath>
							<defs>
								<filter id="Adobe_OpacityMaskFilter_1_" filterUnits="userSpaceOnUse" x="134.3" y="82.1" width="6.6" height="8.3">
									<feColorMatrix  type="matrix" values="1 0 0 0 0  0 1 0 0 0  0 0 1 0 0  0 0 0 1 0"/>
								</filter>
							</defs>
							<mask maskUnits="userSpaceOnUse" x="134.3" y="82.1" width="6.6" height="8.3" id="SVGID_46_">
								<g class="st28">
									
										<linearGradient id="SVGID_47_" gradientUnits="userSpaceOnUse" x1="-107.9438" y1="157.6635" x2="-107.7801" y2="157.6635" gradientTransform="matrix(36.3039 0 0 -36.3039 4053.1294 5810.0615)">
										<stop  offset="0" style="stop-color:#000000"/>
										<stop  offset="0.5054" style="stop-color:#FFFFFF"/>
										<stop  offset="0.5481" style="stop-color:#E8E8E8"/>
										<stop  offset="0.638" style="stop-color:#ACACAC"/>
										<stop  offset="0.7665" style="stop-color:#4C4C4C"/>
										<stop  offset="0.8637" style="stop-color:#000000"/>
										<stop  offset="1" style="stop-color:#000000"/>
									</linearGradient>
									<rect x="134.3" y="82.1" class="st29" width="6.6" height="8.3"/>
								</g>
							</mask>
							
								<linearGradient id="SVGID_48_" gradientUnits="userSpaceOnUse" x1="-107.9438" y1="157.6635" x2="-107.7801" y2="157.6635" gradientTransform="matrix(36.3039 0 0 -36.3039 4053.1294 5810.0615)">
								<stop  offset="0" style="stop-color:#F7F7F7"/>
								<stop  offset="0.5054" style="stop-color:#F7F7F7"/>
								<stop  offset="0.8637" style="stop-color:#F7F7F7"/>
								<stop  offset="1" style="stop-color:#F7F7F7"/>
							</linearGradient>
							<rect x="134.3" y="82.1" class="st30" width="6.6" height="8.3"/>
						</g>
					</g>
				</g>
				<g class="st22">
					<g>
						<defs>
							<rect id="SVGID_49_" x="132.1" y="82.2" width="6.8" height="7.5"/>
						</defs>
						<clipPath id="SVGID_50_">
							<use xlink:href="#SVGID_49_"  style="overflow:visible;"/>
						</clipPath>
						<g class="st31">
							<defs>
								<path id="SVGID_51_" d="M138.9,83c-1.9-1.4-4.6-1-6,0.9c-0.9,1.3-1.1,2.9-0.5,4.2c0.3,0.5,0.7,1,1.2,1.4
									c0,0,0.1,0.1,0.2,0.1l0,0c0.1,0,0.2,0,0.2,0c0,0,0-0.1,0-0.1c0-0.1-0.1-0.2-0.1-0.3c-0.8-1.4-0.7-3.2,0.3-4.6
									c1.1-1.4,2.8-2,4.5-1.6l0,0l0,0C138.8,83.1,138.8,83.1,138.9,83C138.9,83,138.9,83,138.9,83"/>
							</defs>
							<clipPath id="SVGID_52_">
								<use xlink:href="#SVGID_51_"  style="overflow:visible;"/>
							</clipPath>
							<defs>
								<filter id="Adobe_OpacityMaskFilter_2_" filterUnits="userSpaceOnUse" x="131.8" y="81.6" width="7" height="8.1">
									<feColorMatrix  type="matrix" values="1 0 0 0 0  0 1 0 0 0  0 0 1 0 0  0 0 0 1 0"/>
								</filter>
							</defs>
							<mask maskUnits="userSpaceOnUse" x="131.8" y="81.6" width="7" height="8.1" id="SVGID_53_">
								<g class="st32">
									
										<linearGradient id="SVGID_54_" gradientUnits="userSpaceOnUse" x1="-108.1733" y1="157.7876" x2="-108.0097" y2="157.7876" gradientTransform="matrix(41.6374 0 0 -41.6374 4636.1113 6655.5361)">
										<stop  offset="0" style="stop-color:#000000"/>
										<stop  offset="0.5054" style="stop-color:#FFFFFF"/>
										<stop  offset="0.5481" style="stop-color:#E8E8E8"/>
										<stop  offset="0.638" style="stop-color:#ACACAC"/>
										<stop  offset="0.7665" style="stop-color:#4C4C4C"/>
										<stop  offset="0.8637" style="stop-color:#000000"/>
										<stop  offset="1" style="stop-color:#000000"/>
									</linearGradient>
									<rect x="131.8" y="81.6" class="st33" width="7" height="8.1"/>
								</g>
							</mask>
							
								<linearGradient id="SVGID_55_" gradientUnits="userSpaceOnUse" x1="-108.1733" y1="157.7876" x2="-108.0097" y2="157.7876" gradientTransform="matrix(41.6374 0 0 -41.6374 4636.1113 6655.5361)">
								<stop  offset="0" style="stop-color:#F7F7F7"/>
								<stop  offset="0.5054" style="stop-color:#F7F7F7"/>
								<stop  offset="0.8637" style="stop-color:#F7F7F7"/>
								<stop  offset="1" style="stop-color:#F7F7F7"/>
							</linearGradient>
							<rect x="131.8" y="81.6" class="st34" width="7" height="8.1"/>
						</g>
					</g>
				</g>
			</g>
		</g>
		<g class="st35">
			<g>
				<defs>
					<rect id="SVGID_56_" x="127.1" y="77.8" width="17.9" height="16.5"/>
				</defs>
				<clipPath id="SVGID_57_">
					<use xlink:href="#SVGID_56_"  style="overflow:visible;"/>
				</clipPath>
				<path class="st36" d="M135.3,89.8c0.6,0.2,1.2,0.3,1.8,0.3c0.6,0,1.3-0.1,1.9-0.4c0.1-0.1,0.3-0.2,0.4-0.3
					c-0.7,0.4-1.5,0.6-2.3,0.6c-0.6,0-1.2-0.1-1.7-0.3c-1.8-0.7-3-2.4-3-4.4l0,0c0,0,0,0,0,0v0l0,0c0,0,0-0.1-0.1-0.1
					c0,0.1-0.1,0.2-0.1,0.3C132.3,87.4,133.5,89.1,135.3,89.8"/>
				<path class="st36" d="M140.5,87.7c0.1-0.9,0-1.8-0.4-2.6c-0.7-1.5-2.1-2.6-3.7-2.9c-0.3,0-0.6,0-0.8,0.1c1.9,0,3.6,1.1,4.4,2.8
					c0.5,1.1,0.5,2.3,0.2,3.4C140.3,88.2,140.4,88,140.5,87.7"/>
				<path class="st36" d="M138,89.9c-0.1,0.2-0.2,0.3-0.2,0.5c0,0,0.1,0.1,0.1,0.1c0.2-0.3,0.4-0.7,0.5-1
					C138.2,89.6,138.1,89.8,138,89.9"/>
				<path class="st36" d="M132.1,86.3c0.1-0.7,0.4-1.5,0.9-2.1c0.9-1.2,2.3-2,3.9-2c0.1,0,0.3,0,0.4,0c-0.5-0.1-1-0.1-1.5,0
					c-1.2,0.3-2.2,0.9-2.9,1.9c-0.2,0.2-0.3,0.5-0.4,0.7C132.2,85.3,132.1,85.8,132.1,86.3"/>
				<path class="st36" d="M133.6,87.9c-0.1,0.7,0,1.4,0.3,2c0,0,0.1,0.1,0.1,0.1h0c0,0,0,0,0.1,0c-0.2-0.4-0.3-0.9-0.3-1.3
					C133.7,88.5,133.6,88.2,133.6,87.9"/>
				<path class="st36" d="M138.7,83.4c0.1,0,0.1,0,0.2,0l0,0h0c0.1,0,0.1,0,0.2,0C138.9,83.4,138.8,83.4,138.7,83.4"/>
				<path class="st36" d="M130.3,92.7c-0.8-1.9-0.8-3.9-0.1-5.8c0-0.1,0.1-0.2,0.1-0.3l0-0.1c0-0.1,0.1-0.1,0.2-0.1c0,0,0-0.1,0-0.1
					c-0.1,0-0.2,0.1-0.3,0.1l0,0l-0.1,0.1c0,0.1-0.1,0.2-0.1,0.3c-0.7,1.8-0.7,3.8,0,5.6c0.3,0.5,0.6,1.1,1,1.5
					C130.7,93.5,130.4,93.1,130.3,92.7"/>
				<path class="st36" d="M132.2,90.8c-0.4-0.5-0.7-1-1-1.5c0.8,2,2.3,3.6,4.4,4.5c0.9,0.4,1.8,0.5,2.8,0.5h0c2.1,0,4.1-0.9,5.6-2.3
					l0,0l0,0c0,0,0,0,0,0c0-0.1,0.1-0.1,0.1-0.2c-0.1,0-0.1,0-0.1,0.1l0,0c0,0,0,0,0,0l0,0c-1.4,1.5-3.4,2.3-5.5,2.3h0
					c-0.9,0-1.9-0.2-2.8-0.5C134.2,93,133,92,132.2,90.8"/>
				<path class="st36" d="M131,82.3c-0.7,0.5-1.4,1.1-1.9,1.9c-1.7,2.5-1.8,5.7-0.3,8.3c0,0,0,0,0,0c0.1,0,0.2,0.1,0.3,0.2
					c-1.7-2.6-1.6-5.9,0.2-8.4c0.2-0.3,0.4-0.5,0.6-0.7C130.2,83,130.6,82.6,131,82.3"/>
				<path class="st36" d="M137.5,80.6L137.5,80.6L137.5,80.6c-0.2-0.2-0.3-0.2-0.4-0.3c-1.3-0.9-2.8-1.4-4.4-1.4
					c-1.6,0-3.2,0.5-4.5,1.5c-0.4,0.4-0.8,0.8-1.1,1.2c1.4-1.6,3.5-2.5,5.7-2.5c1.6,0,3.1,0.5,4.3,1.4c0.1,0,0.1,0.1,0.2,0.1
					C137.3,80.6,137.4,80.6,137.5,80.6C137.5,80.6,137.5,80.6,137.5,80.6"/>
				<path class="st36" d="M144.9,84c-0.6-3.2-3.2-5.7-6.3-6.2c-0.6-0.1-1.3,0-1.9,0.1c0.2,0,0.4,0,0.7,0c3.6,0,6.8,2.6,7.4,6.2
					c0.8,4.1-1.9,8.1-6.1,8.9c0,0,0,0,0,0c0,0.1,0.1,0.1,0.2,0.1C143,92.2,145.7,88.2,144.9,84"/>
			</g>
		</g>
		<g class="st8">
			<g>
				<defs>
					<rect id="SVGID_58_" x="125.5" y="78.1" width="19.3" height="17.9"/>
				</defs>
				<clipPath id="SVGID_59_">
					<use xlink:href="#SVGID_58_"  style="overflow:visible;"/>
				</clipPath>
				<g class="st37">
					<g>
						<defs>
							<rect id="SVGID_60_" x="129.4" y="85.8" width="14.7" height="10.3"/>
						</defs>
						<clipPath id="SVGID_61_">
							<use xlink:href="#SVGID_60_"  style="overflow:visible;"/>
						</clipPath>
						<g class="st38">
							<defs>
								<path id="SVGID_62_" d="M134.3,95.5c3.9,1.5,8.3-0.3,9.9-4.2c0-0.1-0.1-0.2-0.2-0.2c-0.1,0-0.3,0-0.3,0.1h0
									c-2.1,2.2-5.4,3-8.3,1.8c-3-1.2-4.8-4-4.9-7v-0.1h0c0-0.1-0.1-0.2-0.2-0.3c-0.1-0.1-0.3,0-0.4,0.1l0,0l0,0.1
									c0,0.1-0.1,0.2-0.1,0.3c0,0.1-0.1,0.2-0.1,0.3C128.7,90.2,130.7,94.1,134.3,95.5"/>
							</defs>
							<clipPath id="SVGID_63_">
								<use xlink:href="#SVGID_62_"  style="overflow:visible;"/>
							</clipPath>
							<defs>
								<filter id="Adobe_OpacityMaskFilter_3_" filterUnits="userSpaceOnUse" x="128.7" y="85.7" width="15.4" height="11.3">
									<feColorMatrix  type="matrix" values="1 0 0 0 0  0 1 0 0 0  0 0 1 0 0  0 0 0 1 0"/>
								</filter>
							</defs>
							<mask maskUnits="userSpaceOnUse" x="128.7" y="85.7" width="15.4" height="11.3" id="SVGID_64_">
								<g class="st39">
									
										<linearGradient id="SVGID_65_" gradientUnits="userSpaceOnUse" x1="-110.0829" y1="158.6506" x2="-109.9193" y2="158.6506" gradientTransform="matrix(89.9998 0 0 -89.9998 10036.875 14369.9277)">
										<stop  offset="0" style="stop-color:#000000"/>
										<stop  offset="0.5054" style="stop-color:#FFFFFF"/>
										<stop  offset="0.5481" style="stop-color:#E8E8E8"/>
										<stop  offset="0.638" style="stop-color:#ACACAC"/>
										<stop  offset="0.7665" style="stop-color:#4C4C4C"/>
										<stop  offset="0.8637" style="stop-color:#000000"/>
										<stop  offset="1" style="stop-color:#000000"/>
									</linearGradient>
									<rect x="128.7" y="85.7" class="st40" width="15.4" height="11.3"/>
								</g>
							</mask>
							
								<linearGradient id="SVGID_66_" gradientUnits="userSpaceOnUse" x1="-110.085" y1="158.6499" x2="-109.9214" y2="158.6499" gradientTransform="matrix(89.9998 0 0 -89.9998 10037.0625 14369.8652)">
								<stop  offset="0" style="stop-color:#F7F7F7"/>
								<stop  offset="0.5054" style="stop-color:#F7F7F7"/>
								<stop  offset="0.8637" style="stop-color:#F7F7F7"/>
								<stop  offset="1" style="stop-color:#F7F7F7"/>
							</linearGradient>
							<rect x="128.7" y="85.7" class="st41" width="15.4" height="11.3"/>
						</g>
					</g>
				</g>
				<g class="st37">
					<g>
						<defs>
							<rect id="SVGID_67_" x="125.5" y="78.6" width="11.4" height="13.7"/>
						</defs>
						<clipPath id="SVGID_68_">
							<use xlink:href="#SVGID_67_"  style="overflow:visible;"/>
						</clipPath>
						<g class="st42">
							<defs>
								<path id="SVGID_69_" d="M126.9,81.8c-2.3,3.4-1.6,7.9,1.6,10.4c0-0.1,0-0.1-0.1-0.2l0,0c-1.6-2.5-1.7-5.9,0.2-8.5
									c1.8-2.6,5-3.7,7.9-3.1l0.1,0v0c0.1,0,0.3,0,0.3-0.1c0.1-0.1,0.1-0.3,0-0.4l0,0l0,0c-0.1-0.1-0.2-0.1-0.3-0.2
									c-0.7-0.5-1.4-0.8-2.2-1.1C131.5,78.2,128.6,79.4,126.9,81.8"/>
							</defs>
							<clipPath id="SVGID_70_">
								<use xlink:href="#SVGID_69_"  style="overflow:visible;"/>
							</clipPath>
							<defs>
								<filter id="Adobe_OpacityMaskFilter_4_" filterUnits="userSpaceOnUse" x="124.6" y="78.2" width="12.4" height="14">
									<feColorMatrix  type="matrix" values="1 0 0 0 0  0 1 0 0 0  0 0 1 0 0  0 0 0 1 0"/>
								</filter>
							</defs>
							<mask maskUnits="userSpaceOnUse" x="124.6" y="78.2" width="12.4" height="14" id="SVGID_71_">
								<g class="st43">
									
										<linearGradient id="SVGID_72_" gradientUnits="userSpaceOnUse" x1="-109.2309" y1="158.1862" x2="-109.0672" y2="158.1862" gradientTransform="matrix(69.52 0 0 -69.52 7719.252 11082.3525)">
										<stop  offset="0" style="stop-color:#000000"/>
										<stop  offset="0.5054" style="stop-color:#FFFFFF"/>
										<stop  offset="0.5481" style="stop-color:#E8E8E8"/>
										<stop  offset="0.638" style="stop-color:#ACACAC"/>
										<stop  offset="0.7665" style="stop-color:#4C4C4C"/>
										<stop  offset="0.8637" style="stop-color:#000000"/>
										<stop  offset="1" style="stop-color:#000000"/>
									</linearGradient>
									<rect x="124.6" y="78.2" class="st44" width="12.4" height="14"/>
								</g>
							</mask>
							
								<linearGradient id="SVGID_73_" gradientUnits="userSpaceOnUse" x1="-109.2309" y1="158.1862" x2="-109.0672" y2="158.1862" gradientTransform="matrix(69.52 0 0 -69.52 7719.252 11082.3525)">
								<stop  offset="0" style="stop-color:#F7F7F7"/>
								<stop  offset="0.5054" style="stop-color:#F7F7F7"/>
								<stop  offset="0.8637" style="stop-color:#F7F7F7"/>
								<stop  offset="1" style="stop-color:#F7F7F7"/>
							</linearGradient>
							<rect x="124.6" y="78.2" class="st45" width="12.4" height="14"/>
						</g>
					</g>
				</g>
				<g class="st46">
					<g>
						<defs>
							<rect id="SVGID_74_" x="135.9" y="78.1" width="8.9" height="14.9"/>
						</defs>
						<clipPath id="SVGID_75_">
							<use xlink:href="#SVGID_74_"  style="overflow:visible;"/>
						</clipPath>
						<g class="st47">
							<defs>
								<path id="SVGID_76_" d="M144.7,84.4c-0.8-4.1-4.7-6.8-8.8-6.1c0,0,0,0.1,0,0.1c0,0.1,0.1,0.2,0.3,0.2v0
									c2.9,0.6,5.4,2.9,6,6.1c0.6,3.1-0.8,6.2-3.3,7.8l-0.1,0v0c-0.1,0.1-0.2,0.2-0.2,0.3c0,0.1,0.2,0.2,0.3,0.2l0,0l0.1,0
									c0.1,0,0.2,0,0.3-0.1c0.6-0.1,1.1-0.3,1.6-0.5C143.7,90.9,145.3,87.7,144.7,84.4"/>
							</defs>
							<clipPath id="SVGID_77_">
								<use xlink:href="#SVGID_76_"  style="overflow:visible;"/>
							</clipPath>
							<defs>
								<filter id="Adobe_OpacityMaskFilter_5_" filterUnits="userSpaceOnUse" x="135.9" y="77.6" width="9.4" height="15.5">
									<feColorMatrix  type="matrix" values="1 0 0 0 0  0 1 0 0 0  0 0 1 0 0  0 0 0 1 0"/>
								</filter>
							</defs>
							<mask maskUnits="userSpaceOnUse" x="135.9" y="77.6" width="9.4" height="15.5" id="SVGID_78_">
								<g class="st48">
									
										<linearGradient id="SVGID_79_" gradientUnits="userSpaceOnUse" x1="-109.4415" y1="158.0219" x2="-109.2779" y2="158.0219" gradientTransform="matrix(54.6988 0 0 -54.6988 6122.188 8728.915)">
										<stop  offset="0" style="stop-color:#000000"/>
										<stop  offset="0.5054" style="stop-color:#FFFFFF"/>
										<stop  offset="0.5481" style="stop-color:#E8E8E8"/>
										<stop  offset="0.638" style="stop-color:#ACACAC"/>
										<stop  offset="0.7665" style="stop-color:#4C4C4C"/>
										<stop  offset="0.8637" style="stop-color:#000000"/>
										<stop  offset="1" style="stop-color:#000000"/>
									</linearGradient>
									<rect x="135.9" y="77.6" class="st49" width="9.4" height="15.5"/>
								</g>
							</mask>
							
								<linearGradient id="SVGID_80_" gradientUnits="userSpaceOnUse" x1="-109.4415" y1="158.0219" x2="-109.2779" y2="158.0219" gradientTransform="matrix(54.6988 0 0 -54.6988 6122.188 8728.915)">
								<stop  offset="0" style="stop-color:#F7F7F7"/>
								<stop  offset="0.5054" style="stop-color:#F7F7F7"/>
								<stop  offset="0.8637" style="stop-color:#F7F7F7"/>
								<stop  offset="1" style="stop-color:#F7F7F7"/>
							</linearGradient>
							<rect x="135.9" y="77.6" class="st50" width="9.4" height="15.5"/>
						</g>
					</g>
				</g>
			</g>
		</g>
		<polygon class="st0" points="126.1,98.5 127.6,98.5 127.6,98.7 126.3,98.7 126.3,99.4 127.5,99.4 127.5,99.6 126.3,99.6 
			126.3,100.4 127.6,100.4 127.6,100.6 126.1,100.6 		"/>
		<path class="st0" d="M128.7,100.4l0.1-0.2c0.2,0.1,0.4,0.2,0.5,0.2c0.2,0,0.3-0.1,0.3-0.2v0c0-0.2-0.2-0.2-0.4-0.3
			c-0.2-0.1-0.5-0.2-0.5-0.4v0c0-0.3,0.2-0.5,0.5-0.5c0.2,0,0.4,0.1,0.6,0.2l-0.1,0.2c-0.1-0.1-0.3-0.2-0.5-0.2
			c-0.2,0-0.3,0.1-0.3,0.2v0c0,0.2,0.2,0.2,0.4,0.3c0.2,0.1,0.5,0.2,0.5,0.5v0c0,0.3-0.2,0.5-0.6,0.5
			C129.1,100.6,128.9,100.5,128.7,100.4"/>
		<path class="st0" d="M131.1,99h0.2v0.3c0.1-0.2,0.3-0.3,0.6-0.3c0.4,0,0.8,0.3,0.8,0.8v0c0,0.5-0.4,0.8-0.8,0.8
			c-0.3,0-0.5-0.2-0.6-0.3v0.8h-0.2V99z M132.4,99.8L132.4,99.8c0-0.4-0.3-0.6-0.6-0.6c-0.3,0-0.6,0.2-0.6,0.6v0
			c0,0.4,0.3,0.6,0.6,0.6C132.2,100.4,132.4,100.2,132.4,99.8"/>
		<path class="st0" d="M133.7,100.1L133.7,100.1c0-0.3,0.3-0.5,0.7-0.5c0.2,0,0.3,0,0.5,0.1v0c0-0.3-0.2-0.4-0.5-0.4
			c-0.2,0-0.3,0-0.5,0.1l-0.1-0.2c0.2-0.1,0.3-0.1,0.6-0.1c0.2,0,0.4,0.1,0.5,0.2c0.1,0.1,0.2,0.3,0.2,0.5v1h-0.2v-0.2
			c-0.1,0.1-0.3,0.3-0.6,0.3C134,100.6,133.7,100.4,133.7,100.1 M134.9,100v-0.1c-0.1,0-0.3-0.1-0.5-0.1c-0.3,0-0.5,0.1-0.5,0.3v0
			c0,0.2,0.2,0.3,0.4,0.3C134.6,100.4,134.9,100.3,134.9,100"/>
		<path class="st0" d="M136.2,99.8L136.2,99.8c0-0.5,0.3-0.8,0.8-0.8c0.3,0,0.5,0.1,0.6,0.3l-0.2,0.2c-0.1-0.1-0.3-0.2-0.5-0.2
			c-0.3,0-0.6,0.3-0.6,0.6v0c0,0.3,0.2,0.6,0.6,0.6c0.2,0,0.4-0.1,0.5-0.2l0.1,0.1c-0.2,0.2-0.3,0.3-0.6,0.3
			C136.6,100.6,136.2,100.2,136.2,99.8"/>
		<path class="st0" d="M138.8,98.4h0.3v0.3h-0.3V98.4z M138.8,99h0.2v1.6h-0.2V99z"/>
		<path class="st0" d="M140.3,99.8L140.3,99.8c0-0.5,0.3-0.8,0.8-0.8c0.5,0,0.8,0.4,0.8,0.8v0c0,0.4-0.3,0.8-0.8,0.8
			C140.6,100.6,140.3,100.2,140.3,99.8 M141.6,99.8L141.6,99.8c0-0.3-0.3-0.6-0.6-0.6c-0.3,0-0.6,0.3-0.6,0.6v0
			c0,0.3,0.2,0.6,0.6,0.6C141.4,100.4,141.6,100.1,141.6,99.8"/>
		<path class="st0" d="M144.6,99.8L144.6,99.8c0-0.5,0.4-0.8,0.8-0.8c0.3,0,0.5,0.2,0.6,0.3v-0.9h0.2v2.2H146v-0.3
			c-0.1,0.2-0.3,0.3-0.6,0.3C145,100.6,144.6,100.3,144.6,99.8 M146,99.8L146,99.8c0-0.4-0.3-0.6-0.6-0.6c-0.3,0-0.6,0.2-0.6,0.6v0
			c0,0.4,0.3,0.6,0.6,0.6C145.7,100.4,146,100.2,146,99.8"/>
		<path class="st0" d="M148.2,100.4c0.2,0,0.4-0.1,0.5-0.2l0.1,0.1c-0.2,0.2-0.3,0.3-0.6,0.3c-0.4,0-0.8-0.3-0.8-0.8
			c0-0.5,0.3-0.8,0.8-0.8c0.5,0,0.7,0.4,0.7,0.8c0,0,0,0,0,0.1h-1.2C147.6,100.2,147.9,100.4,148.2,100.4 M148.6,99.7
			c0-0.3-0.2-0.5-0.5-0.5c-0.3,0-0.5,0.2-0.5,0.5H148.6z"/>
		<path class="st0" d="M151.7,98.5h0.7c0.7,0,1.1,0.5,1.1,1.1v0c0,0.6-0.5,1.1-1.1,1.1h-0.7V98.5z M152.4,100.4
			c0.5,0,0.9-0.4,0.9-0.8v0c0-0.5-0.3-0.8-0.9-0.8h-0.5v1.7H152.4z"/>
		<path class="st0" d="M155.5,100.4c0.2,0,0.4-0.1,0.5-0.2l0.1,0.1c-0.2,0.2-0.3,0.3-0.6,0.3c-0.4,0-0.8-0.3-0.8-0.8
			c0-0.5,0.3-0.8,0.8-0.8c0.5,0,0.7,0.4,0.7,0.8c0,0,0,0,0,0.1h-1.2C155,100.2,155.2,100.4,155.5,100.4 M155.9,99.7
			c0-0.3-0.2-0.5-0.5-0.5c-0.3,0-0.5,0.2-0.5,0.5H155.9z"/>
		<path class="st0" d="M157.2,100.4l0.1-0.2c0.2,0.1,0.4,0.2,0.5,0.2c0.2,0,0.3-0.1,0.3-0.2v0c0-0.2-0.2-0.2-0.4-0.3
			c-0.2-0.1-0.5-0.2-0.5-0.4v0c0-0.3,0.2-0.5,0.5-0.5c0.2,0,0.4,0.1,0.6,0.2l-0.1,0.2c-0.1-0.1-0.3-0.2-0.5-0.2
			c-0.2,0-0.3,0.1-0.3,0.2v0c0,0.2,0.2,0.2,0.4,0.3c0.2,0.1,0.5,0.2,0.5,0.5v0c0,0.3-0.2,0.5-0.6,0.5
			C157.6,100.6,157.4,100.5,157.2,100.4"/>
		<path class="st0" d="M159.5,100.1L159.5,100.1c0-0.3,0.3-0.5,0.7-0.5c0.2,0,0.3,0,0.5,0.1v0c0-0.3-0.2-0.4-0.5-0.4
			c-0.2,0-0.3,0-0.5,0.1l-0.1-0.2c0.2-0.1,0.3-0.1,0.6-0.1c0.2,0,0.4,0.1,0.5,0.2c0.1,0.1,0.2,0.3,0.2,0.5v1h-0.2v-0.2
			c-0.1,0.1-0.3,0.3-0.6,0.3C159.8,100.6,159.5,100.4,159.5,100.1 M160.6,100v-0.1c-0.1,0-0.3-0.1-0.5-0.1c-0.3,0-0.5,0.1-0.5,0.3v0
			c0,0.2,0.2,0.3,0.4,0.3C160.4,100.4,160.6,100.3,160.6,100"/>
		<path class="st0" d="M162.1,99h0.2v0.4c0.1-0.3,0.3-0.5,0.6-0.4v0.3h0c-0.3,0-0.6,0.2-0.6,0.7v0.6h-0.2V99z"/>
		<path class="st0" d="M164.1,99h0.2v0.4c0.1-0.3,0.3-0.5,0.6-0.4v0.3h0c-0.3,0-0.6,0.2-0.6,0.7v0.6h-0.2V99z"/>
		<path class="st0" d="M165.9,99.8L165.9,99.8c0-0.5,0.3-0.8,0.8-0.8c0.5,0,0.8,0.4,0.8,0.8v0c0,0.4-0.3,0.8-0.8,0.8
			C166.2,100.6,165.9,100.2,165.9,99.8 M167.3,99.8L167.3,99.8c0-0.3-0.3-0.6-0.6-0.6c-0.3,0-0.6,0.3-0.6,0.6v0
			c0,0.3,0.2,0.6,0.6,0.6C167,100.4,167.3,100.1,167.3,99.8"/>
		<rect x="168.7" y="98.4" class="st0" width="0.2" height="2.2"/>
		<rect x="170.2" y="98.4" class="st0" width="0.2" height="2.2"/>
		<path class="st0" d="M171.7,99.8L171.7,99.8c0-0.5,0.3-0.8,0.8-0.8c0.5,0,0.8,0.4,0.8,0.8v0c0,0.4-0.3,0.8-0.8,0.8
			C172,100.6,171.7,100.2,171.7,99.8 M173.1,99.8L173.1,99.8c0-0.3-0.3-0.6-0.6-0.6c-0.3,0-0.6,0.3-0.6,0.6v0c0,0.3,0.2,0.6,0.6,0.6
			C172.8,100.4,173.1,100.1,173.1,99.8"/>
		<path class="st0" d="M176,101l0.1-0.2c0.1,0,0.1,0.1,0.2,0.1c0.1,0,0.2-0.1,0.3-0.3L176,99h0.3l0.6,1.3l0.5-1.3h0.2l-0.7,1.6
			c-0.1,0.3-0.3,0.4-0.5,0.4C176.2,101.1,176.1,101,176,101"/>
		<path class="st0" d="M180.3,98.5h0.9c0.2,0,0.4,0.1,0.6,0.2c0.1,0.1,0.1,0.2,0.1,0.3v0c0,0.3-0.2,0.4-0.3,0.5
			c0.3,0.1,0.5,0.2,0.5,0.5v0c0,0.4-0.3,0.6-0.8,0.6h-0.9V98.5z M181.2,99.4c0.3,0,0.5-0.1,0.5-0.4v0c0-0.2-0.2-0.3-0.5-0.3h-0.6
			v0.7H181.2z M181.3,100.4c0.3,0,0.5-0.1,0.5-0.4v0c0-0.2-0.2-0.4-0.6-0.4h-0.7v0.8H181.3z"/>
		<path class="st0" d="M183.2,98.4h0.3v0.3h-0.3V98.4z M183.3,99h0.2v1.6h-0.2V99z"/>
		<path class="st0" d="M185.5,100.4c0.2,0,0.4-0.1,0.5-0.2l0.1,0.1c-0.2,0.2-0.3,0.3-0.6,0.3c-0.4,0-0.8-0.3-0.8-0.8
			c0-0.5,0.3-0.8,0.8-0.8c0.5,0,0.7,0.4,0.7,0.8c0,0,0,0,0,0.1h-1.2C185,100.2,185.2,100.4,185.5,100.4 M185.9,99.7
			c0-0.3-0.2-0.5-0.5-0.5c-0.3,0-0.5,0.2-0.5,0.5H185.9z"/>
		<path class="st0" d="M187.3,99h0.2v0.3c0.1-0.2,0.3-0.3,0.5-0.3c0.4,0,0.6,0.3,0.6,0.6v1h-0.2v-0.9c0-0.3-0.2-0.5-0.4-0.5
			c-0.3,0-0.5,0.2-0.5,0.5v0.9h-0.2V99z"/>
		<path class="st0" d="M190.6,100.4c0.2,0,0.4-0.1,0.5-0.2l0.1,0.1c-0.2,0.2-0.3,0.3-0.6,0.3c-0.4,0-0.8-0.3-0.8-0.8
			c0-0.5,0.3-0.8,0.8-0.8c0.5,0,0.7,0.4,0.7,0.8c0,0,0,0,0,0.1h-1.2C190.1,100.2,190.4,100.4,190.6,100.4 M191.1,99.7
			c0-0.3-0.2-0.5-0.5-0.5c-0.3,0-0.5,0.2-0.5,0.5H191.1z"/>
		<path class="st0" d="M192.4,100.4l0.1-0.2c0.2,0.1,0.4,0.2,0.5,0.2c0.2,0,0.3-0.1,0.3-0.2v0c0-0.2-0.2-0.2-0.4-0.3
			c-0.2-0.1-0.5-0.2-0.5-0.4v0c0-0.3,0.2-0.5,0.5-0.5c0.2,0,0.4,0.1,0.6,0.2l-0.1,0.2c-0.1-0.1-0.3-0.2-0.5-0.2
			c-0.2,0-0.3,0.1-0.3,0.2v0c0,0.2,0.2,0.2,0.4,0.3c0.2,0.1,0.5,0.2,0.5,0.5v0c0,0.3-0.2,0.5-0.6,0.5
			C192.8,100.6,192.5,100.5,192.4,100.4"/>
		<path class="st0" d="M194.8,100.2v-0.9h-0.2V99h0.2v-0.5h0.2V99h0.5v0.2H195v0.9c0,0.2,0.1,0.3,0.3,0.3c0.1,0,0.1,0,0.2-0.1v0.2
			c-0.1,0-0.2,0.1-0.3,0.1C195,100.6,194.8,100.5,194.8,100.2"/>
		<path class="st0" d="M196.6,100.1L196.6,100.1c0-0.3,0.3-0.5,0.7-0.5c0.2,0,0.3,0,0.5,0.1v0c0-0.3-0.2-0.4-0.5-0.4
			c-0.2,0-0.3,0-0.5,0.1l-0.1-0.2c0.2-0.1,0.3-0.1,0.6-0.1c0.2,0,0.4,0.1,0.5,0.2c0.1,0.1,0.2,0.3,0.2,0.5v1h-0.2v-0.2
			c-0.1,0.1-0.3,0.3-0.6,0.3C196.8,100.6,196.6,100.4,196.6,100.1 M197.7,100v-0.1c-0.1,0-0.3-0.1-0.5-0.1c-0.3,0-0.5,0.1-0.5,0.3v0
			c0,0.2,0.2,0.3,0.4,0.3C197.5,100.4,197.7,100.3,197.7,100"/>
		<path class="st0" d="M199.2,99h0.2v0.4c0.1-0.3,0.3-0.5,0.6-0.4v0.3h0c-0.3,0-0.6,0.2-0.6,0.7v0.6h-0.2V99z"/>
	</g>
</g>
<g>
	<g>
		<path class="st0" d="M44.1,93.7c0,0,0-0.1,0-0.2c0-0.1,0-0.3,0.1-0.4c0.1-0.1,0.2-0.1,0.3-0.1c0.2,0,0.3,0.1,0.4,0.3
			c0,0.1,0,0.2,0,0.3v0.1h-0.2v-0.1c0-0.1,0-0.2,0-0.3c0,0,0-0.1,0-0.1c0,0,0,0-0.1,0c-0.1,0-0.1,0-0.1,0.1c0,0,0,0.1,0,0.2
			c0,0.1,0,0.1,0,0.2c0,0,0.1,0.1,0.1,0.1c0,0,0.1,0.1,0.1,0.1l0.1,0.1c0.2,0.2,0.3,0.4,0.3,0.6c0,0.2,0,0.3-0.1,0.4
			c-0.1,0.1-0.2,0.1-0.3,0.1c-0.2,0-0.3-0.1-0.4-0.2c0-0.1,0-0.2,0-0.4c0,0,0,0,0,0v-0.2h0.2v0.2c0,0.2,0,0.3,0,0.3
			c0,0.1,0.1,0.1,0.1,0.1s0.1,0,0.1,0c0,0,0-0.1,0-0.1c0-0.1,0-0.1,0-0.2c0-0.1-0.1-0.3-0.2-0.4l-0.1-0.1
			C44.2,93.9,44.1,93.8,44.1,93.7z"/>
		<path class="st0" d="M45.1,93.1h0.2v2.1h-0.2V93.1z"/>
		<path class="st0" d="M45.7,93.7c0,0,0-0.1,0-0.2c0-0.1,0-0.3,0.1-0.4c0.1-0.1,0.2-0.1,0.3-0.1c0.2,0,0.3,0.1,0.4,0.3
			c0,0.1,0,0.2,0,0.3v0.1h-0.2v-0.1c0-0.1,0-0.2,0-0.3c0,0,0-0.1,0-0.1c0,0,0,0-0.1,0c-0.1,0-0.1,0-0.1,0.1c0,0,0,0.1,0,0.2
			c0,0.1,0,0.1,0,0.2s0.1,0.1,0.1,0.1c0,0,0.1,0.1,0.1,0.1l0.1,0.1c0.2,0.2,0.3,0.4,0.3,0.6c0,0.2,0,0.3-0.1,0.4
			c-0.1,0.1-0.2,0.1-0.3,0.1c-0.2,0-0.3-0.1-0.4-0.2c0-0.1,0-0.2,0-0.4c0,0,0,0,0,0v-0.2h0.2v0.2c0,0.2,0,0.3,0,0.3
			c0,0.1,0.1,0.1,0.1,0.1s0.1,0,0.1,0c0,0,0-0.1,0-0.1c0-0.1,0-0.1,0-0.2c0-0.1-0.1-0.3-0.2-0.4l-0.1-0.1
			C45.8,93.9,45.7,93.8,45.7,93.7z"/>
		<path class="st0" d="M46.6,93.1h0.7v0.2h-0.2v1.9h-0.2v-1.9h-0.2V93.1z"/>
		<path class="st0" d="M47.5,93.1h0.6v0.2h-0.4V94h0.4v0.2h-0.4v0.8h0.4v0.2h-0.6V93.1z"/>
		<path class="st0" d="M49.3,93.1h0.3v2.1h-0.2v-0.8l0-0.8l-0.3,1.6h-0.2l-0.3-1.6l0,0.8v0.8h-0.2v-2.1h0.3l0.3,1.7L49.3,93.1z"/>
		<path class="st0" d="M50.1,93.1h0.3l0.3,2.1h-0.2l-0.1-0.4h-0.4L50,95.1h-0.2L50.1,93.1z M50.1,94.6h0.3l-0.2-1.1h0L50.1,94.6z"/>
		<path class="st0" d="M51.6,93.6c0-0.2,0-0.4,0.1-0.5c0.1-0.1,0.2-0.1,0.3-0.1c0.2,0,0.3,0.1,0.4,0.2c0,0.1,0,0.2,0,0.4v0.9
			c0,0.2,0,0.4-0.1,0.5c-0.1,0.1-0.2,0.1-0.3,0.1c-0.1,0-0.3,0-0.3-0.1c-0.1-0.1-0.1-0.3-0.1-0.5V93.6z M51.7,92.8l0.5-0.2v0.2
			l-0.5,0.1V92.8z M52.1,93.6c0-0.1,0-0.2,0-0.3c0-0.1-0.1-0.1-0.1-0.1c-0.1,0-0.1,0-0.1,0.1c0,0.1,0,0.1,0,0.3v0.9
			c0,0.2,0,0.3,0,0.3c0,0.1,0.1,0.1,0.1,0.1c0.1,0,0.1,0,0.1-0.1c0-0.1,0-0.2,0-0.3V93.6z"/>
		<path class="st0" d="M52.7,93.1h0.4c0.2,0,0.3,0.1,0.3,0.2c0,0.1,0,0.2,0,0.3c0,0.1,0,0.2,0,0.3c0,0.1-0.1,0.2-0.1,0.3
			c-0.1,0.1-0.1,0.1-0.3,0.1h-0.2v0.8h-0.2V93.1z M53.2,93.7c0-0.1,0-0.2,0-0.3c0-0.1-0.1-0.1-0.1-0.1h-0.2v0.9h0.1
			c0.1,0,0.1,0,0.1-0.1C53.2,94,53.2,93.9,53.2,93.7L53.2,93.7z"/>
		<path class="st0" d="M53.6,93.1h0.7v0.2h-0.2v1.9h-0.2v-1.9h-0.2V93.1z"/>
		<path class="st0" d="M54.5,93.1h0.2v2.1h-0.2V93.1z"/>
		<path class="st0" d="M56,93.1h0.3v2.1H56v-0.8l0-0.8l-0.3,1.6h-0.2l-0.3-1.6l0,0.8v0.8h-0.2v-2.1h0.3l0.3,1.7L56,93.1z"/>
		<path class="st0" d="M56.6,93.6c0-0.2,0-0.4,0.1-0.5c0.1-0.1,0.2-0.1,0.3-0.1c0.2,0,0.3,0.1,0.4,0.2c0,0.1,0,0.2,0,0.4v0.9
			c0,0.2,0,0.4-0.1,0.5c-0.1,0.1-0.2,0.1-0.3,0.1c-0.1,0-0.3,0-0.3-0.1c-0.1-0.1-0.1-0.3-0.1-0.5V93.6z M57.1,93.6
			c0-0.1,0-0.2,0-0.3c0-0.1-0.1-0.1-0.1-0.1c-0.1,0-0.1,0-0.1,0.1c0,0.1,0,0.1,0,0.3v0.9c0,0.2,0,0.3,0,0.3c0,0.1,0.1,0.1,0.1,0.1
			c0.1,0,0.1,0,0.1-0.1c0-0.1,0-0.2,0-0.3V93.6z"/>
		<path class="st0" d="M58.3,93.1h0.4c0.2,0,0.3,0,0.3,0.1c0.1,0.1,0.1,0.2,0.1,0.4l0,0.9c0,0.2,0,0.4-0.1,0.5
			c-0.1,0.1-0.2,0.1-0.3,0.1h-0.4V93.1z M58.9,93.6c0-0.1,0-0.2,0-0.3c0-0.1-0.1-0.1-0.1-0.1h-0.1v1.7h0.1c0,0,0.1,0,0.1,0
			c0.1,0,0.1-0.2,0.1-0.3V93.6z"/>
		<path class="st0" d="M59.4,93.1H60v0.2h-0.4V94H60v0.2h-0.4v0.8H60v0.2h-0.6V93.1z"/>
		<path class="st0" d="M60.9,93.1h0.6v0.2h-0.4V94h0.4v0.2h-0.4v0.8h0.4v0.2h-0.6V93.1z"/>
		<path class="st0" d="M62.4,93.1h0.2v2.1h-0.2L62,93.7l0,0.5v0.9h-0.2v-2.1H62l0.5,1.4l0-0.6V93.1z"/>
		<path class="st0" d="M62.8,93.1h0.7v0.2h-0.2v1.9h-0.2v-1.9h-0.2V93.1z"/>
		<path class="st0" d="M63.7,93.1h0.4c0.1,0,0.2,0,0.3,0.1c0.1,0.1,0.1,0.1,0.1,0.3c0,0,0,0.1,0,0.2c0,0.1,0,0.2,0,0.3
			c0,0.1-0.1,0.1-0.1,0.1c0.1,0,0.1,0,0.1,0.1c0,0,0,0.1,0.1,0.2c0,0.1,0,0.2,0,0.4c0,0.2,0,0.3,0,0.3h-0.2c0,0,0-0.3,0-0.7
			c0-0.1,0-0.2,0-0.3c0,0-0.1,0-0.1,0l-0.1,0v1h-0.2V93.1z M64.3,93.6c0-0.2,0-0.2,0-0.3c0,0-0.1,0-0.1,0H64V94h0.2c0,0,0.1,0,0.1,0
			c0,0,0-0.1,0-0.1C64.3,93.8,64.3,93.7,64.3,93.6L64.3,93.6z"/>
		<path class="st0" d="M64.8,93.1h0.6v0.2h-0.4V94h0.4v0.2h-0.4v0.8h0.4v0.2h-0.6V93.1z"/>
		<path class="st0" d="M66.4,93.1h0.2v2.1h-0.2l-0.5-1.4l0,0.5v0.9h-0.2v-2.1h0.2l0.5,1.4l0-0.6V93.1z"/>
		<path class="st0" d="M67.1,93.1h0.3l0.3,2.1h-0.2l-0.1-0.4h-0.4l-0.1,0.4h-0.2L67.1,93.1z M67.1,94.6h0.3l-0.2-1.1h0L67.1,94.6z"
			/>
		<path class="st0" d="M68.9,93.1h0.3v2.1H69v-0.8l0-0.8l-0.3,1.6h-0.2l-0.3-1.6l0,0.8v0.8H68v-2.1h0.3l0.3,1.7L68.9,93.1z"/>
		<path class="st0" d="M69.5,93.1h0.2v2.1h-0.2V93.1z"/>
		<path class="st0" d="M70.1,93.1h0.6v0.2h-0.4V94h0.4v0.2h-0.4v0.8h0.4v0.2h-0.6V93.1z"/>
		<path class="st0" d="M71.7,93.1h0.2v2.1h-0.2l-0.5-1.4l0,0.5v0.9H71v-2.1h0.2l0.5,1.4l0-0.6V93.1z"/>
		<path class="st0" d="M72.1,93.1h0.7v0.2h-0.2v1.9h-0.2v-1.9h-0.2V93.1z"/>
		<path class="st0" d="M73,93.6c0-0.2,0-0.4,0.1-0.5c0.1-0.1,0.2-0.1,0.3-0.1c0.2,0,0.3,0.1,0.4,0.2c0,0.1,0,0.2,0,0.4v0.9
			c0,0.2,0,0.4-0.1,0.5c-0.1,0.1-0.2,0.1-0.3,0.1c-0.1,0-0.3,0-0.3-0.1C73,94.9,73,94.8,73,94.5V93.6z M73.5,93.6c0-0.1,0-0.2,0-0.3
			c0-0.1-0.1-0.1-0.1-0.1c-0.1,0-0.1,0-0.1,0.1c0,0.1,0,0.1,0,0.3v0.9c0,0.2,0,0.3,0,0.3c0,0.1,0.1,0.1,0.1,0.1c0.1,0,0.1,0,0.1-0.1
			c0-0.1,0-0.2,0-0.3V93.6z"/>
	</g>
	<g>
		<path class="st0" d="M31.2,98.1c-4,0.8-7.9-1.8-8.7-5.8c0-0.1,0-0.2,0-0.2l1.4-0.3c0.8,4,4.7,6.5,8.7,5.7c0.3-0.1,0.6-0.2,0.9-0.3
			C32.8,97.7,32,98,31.2,98.1z"/>
		<path class="st0" d="M35.4,96.7c-2.3,3.4-6.9,4.4-10.3,2.1c-0.1,0-0.1-0.1-0.2-0.1l0.7-1.2c3.4,2.2,8,1.3,10.2-2.1
			c0.2-0.3,0.3-0.6,0.5-0.8C36.2,95.3,35.9,96,35.4,96.7z"/>
		<path class="st0" d="M37.4,92.8c0.8,4-1.8,7.9-5.8,8.7c-0.1,0-0.2,0-0.2,0l-0.3-1.4c4-0.8,6.5-4.7,5.7-8.7
			c-0.1-0.3-0.2-0.6-0.3-0.9C36.9,91.3,37.2,92,37.4,92.8z"/>
		<path class="st0" d="M36,88.6c3.4,2.3,4.4,6.9,2.1,10.3c0,0.1-0.1,0.1-0.1,0.2l-1.2-0.7c2.2-3.4,1.3-8-2.1-10.2
			c-0.3-0.2-0.6-0.3-0.8-0.5C34.5,87.8,35.3,88.2,36,88.6z"/>
		<path class="st0" d="M31.3,81.1c4-0.8,7.9,1.8,8.7,5.8c0,0.1,0,0.2,0,0.2l-1.4,0.3c-0.8-4-4.7-6.5-8.7-5.7
			c-0.3,0.1-0.6,0.2-0.9,0.3C29.7,81.5,30.5,81.3,31.3,81.1z"/>
		<path class="st0" d="M27.1,82.5c2.3-3.4,6.9-4.4,10.3-2.1c0.1,0,0.1,0.1,0.2,0.1l-0.7,1.2c-3.4-2.2-8-1.3-10.2,2.1
			c-0.2,0.3-0.3,0.6-0.5,0.8C26.3,83.9,26.6,83.2,27.1,82.5z"/>
		<path class="st0" d="M25.1,86.4c-0.8-4,1.8-7.9,5.8-8.7c0.1,0,0.2,0,0.2,0l0.3,1.4c-4,0.8-6.5,4.7-5.7,8.7
			c0.1,0.3,0.2,0.6,0.3,0.9C25.6,87.9,25.3,87.2,25.1,86.4z"/>
		<path class="st0" d="M26.5,90.6c-3.4-2.3-4.4-6.9-2.1-10.3c0-0.1,0.1-0.1,0.1-0.2l1.2,0.7c-2.2,3.4-1.3,8,2.1,10.2
			c0.3,0.2,0.6,0.3,0.8,0.5C28,91.4,27.2,91,26.5,90.6z"/>
	</g>
	<g>
		<path class="st0" d="M43,88.8h2.3c0,0.8,0.3,0.9,1,0.9h2.9c0.5,0,1-0.1,1-0.6c0-0.7-0.3-0.7-3.3-0.7c-3.5,0-3.9-0.4-3.9-2.3
			c0-1.4,0.1-2.4,3.1-2.4h3.3c2.7,0,3,0.9,3,2.3v0.2H50c0-0.6-0.1-0.8-1.1-0.8h-2.6c-0.5,0-0.9,0.2-0.9,0.6c0,0.7,0.3,0.7,2.8,0.7
			c3.6,0,4.5,0.2,4.5,2.4c0,2.1-0.7,2.4-3.8,2.4H46c-2.1,0-3-0.4-3-2.1V88.8z"/>
		<path class="st0" d="M53.9,86.3c0-2.2,1.3-2.8,3.4-2.8H61c2.1,0,3.4,0.5,3.4,2.8v2.3c0,2.2-1.3,2.8-3.4,2.8h-3.8
			c-2.1,0-3.4-0.5-3.4-2.8V86.3z M56.3,87.9c0,1.1,0.2,1.5,1.3,1.5h3c1.1,0,1.3-0.4,1.3-1.5v-0.8c0-1-0.2-1.5-1.5-1.5h-2.7
			c-1.2,0-1.5,0.6-1.5,1.5V87.9z"/>
		<path class="st0" d="M65.8,83.7h8.4v1.8h-6v1.2h5.7v1.6h-5.7v1.2h6.2v1.8h-8.5V83.7z"/>
	</g>
</g>
<g>
	<path class="st4" d="M257.9,87.2v0.9h-1.6V93h-1.2v-4.9h-1.6v-0.9H257.9z"/>
	<path class="st4" d="M263.1,88.4V93h-1.2v-0.6c-0.2,0.2-0.3,0.4-0.6,0.5c-0.2,0.1-0.5,0.2-0.8,0.2c-0.4,0-0.7-0.1-1-0.2
		c-0.3-0.2-0.5-0.4-0.7-0.7c-0.2-0.3-0.2-0.7-0.2-1.1v-2.7h1.2v2.6c0,0.4,0.1,0.7,0.3,0.9c0.2,0.2,0.4,0.3,0.8,0.3
		c0.3,0,0.6-0.1,0.8-0.3c0.2-0.2,0.3-0.5,0.3-0.9v-2.6H263.1z"/>
	<path class="st4" d="M267.4,88.1v1.5h2v0.9h-2v1.6h2.2v1h-3.4v-5.9h3.4v1H267.4z"/>
	<path class="st4" d="M277.9,88.8c0.3,0.4,0.5,0.8,0.5,1.5V93h-1.2v-2.6c0-0.4-0.1-0.6-0.3-0.8c-0.2-0.2-0.4-0.3-0.8-0.3
		s-0.6,0.1-0.8,0.3s-0.3,0.5-0.3,0.8V93H274v-2.6c0-0.4-0.1-0.6-0.3-0.8c-0.2-0.2-0.4-0.3-0.8-0.3c-0.3,0-0.6,0.1-0.8,0.3
		c-0.2,0.2-0.3,0.5-0.3,0.8V93h-1.2v-4.7h1.2v0.6c0.2-0.2,0.3-0.4,0.6-0.5c0.2-0.1,0.5-0.2,0.8-0.2c0.4,0,0.7,0.1,1,0.2
		s0.5,0.4,0.7,0.7c0.2-0.3,0.4-0.5,0.7-0.6c0.3-0.2,0.6-0.2,0.9-0.2C277.1,88.3,277.5,88.5,277.9,88.8z"/>
	<path class="st4" d="M281.3,88.5c0.3-0.1,0.6-0.2,0.9-0.2c0.4,0,0.8,0.1,1.1,0.3c0.3,0.2,0.6,0.5,0.8,0.8c0.2,0.4,0.3,0.8,0.3,1.3
		c0,0.5-0.1,0.9-0.3,1.3c-0.2,0.4-0.4,0.7-0.8,0.9c-0.3,0.2-0.7,0.3-1.1,0.3c-0.3,0-0.6-0.1-0.9-0.2c-0.3-0.1-0.5-0.3-0.6-0.5v2.9
		h-1.2v-6.9h1.2v0.7C280.9,88.8,281.1,88.7,281.3,88.5z M283,90c-0.1-0.2-0.3-0.4-0.5-0.5c-0.2-0.1-0.4-0.2-0.6-0.2
		c-0.2,0-0.4,0.1-0.6,0.2s-0.3,0.3-0.5,0.5c-0.1,0.2-0.2,0.5-0.2,0.7c0,0.3,0.1,0.5,0.2,0.7c0.1,0.2,0.3,0.4,0.5,0.5
		s0.4,0.2,0.6,0.2c0.2,0,0.4-0.1,0.6-0.2c0.2-0.1,0.3-0.3,0.5-0.5c0.1-0.2,0.2-0.5,0.2-0.7C283.2,90.4,283.1,90.2,283,90z"/>
	<path class="st4" d="M287,88.5c0.2-0.1,0.5-0.2,0.8-0.2v1.2h-0.3c-0.4,0-0.6,0.1-0.8,0.3c-0.2,0.2-0.3,0.5-0.3,0.9V93h-1.2v-4.7
		h1.2v0.7C286.6,88.9,286.8,88.7,287,88.5z"/>
	<path class="st4" d="M292.9,91.1h-3.4c0,0.3,0.1,0.6,0.4,0.8s0.5,0.3,0.8,0.3c0.4,0,0.7-0.2,0.9-0.6h1.3c-0.1,0.4-0.4,0.8-0.8,1.1
		c-0.4,0.3-0.8,0.4-1.4,0.4c-0.4,0-0.9-0.1-1.2-0.3s-0.6-0.5-0.8-0.8c-0.2-0.4-0.3-0.8-0.3-1.3c0-0.5,0.1-0.9,0.3-1.3
		s0.5-0.6,0.8-0.8c0.4-0.2,0.8-0.3,1.2-0.3c0.4,0,0.8,0.1,1.2,0.3c0.3,0.2,0.6,0.5,0.8,0.8c0.2,0.3,0.3,0.8,0.3,1.2
		C293,90.8,292.9,90.9,292.9,91.1z M291.7,90.3c0-0.3-0.1-0.5-0.3-0.7c-0.2-0.2-0.5-0.3-0.8-0.3c-0.3,0-0.5,0.1-0.7,0.3
		c-0.2,0.2-0.3,0.4-0.4,0.7H291.7z"/>
	<path class="st4" d="M294.6,92.9c-0.3-0.1-0.5-0.3-0.7-0.6c-0.2-0.2-0.3-0.5-0.3-0.8h1.2c0,0.2,0.1,0.3,0.3,0.4
		c0.2,0.1,0.3,0.2,0.6,0.2c0.2,0,0.4,0,0.5-0.1c0.1-0.1,0.2-0.2,0.2-0.3c0-0.2-0.1-0.3-0.2-0.3s-0.4-0.2-0.7-0.2
		c-0.3-0.1-0.6-0.2-0.9-0.3c-0.2-0.1-0.4-0.2-0.6-0.4c-0.2-0.2-0.2-0.4-0.2-0.7c0-0.3,0.1-0.5,0.2-0.7s0.4-0.4,0.6-0.5
		s0.6-0.2,1-0.2c0.6,0,1,0.1,1.3,0.4c0.3,0.3,0.5,0.7,0.5,1.1h-1.1c0-0.2-0.1-0.3-0.2-0.4c-0.1-0.1-0.3-0.2-0.6-0.2
		c-0.2,0-0.4,0-0.5,0.1c-0.1,0.1-0.2,0.2-0.2,0.3c0,0.2,0.1,0.3,0.2,0.4c0.2,0.1,0.4,0.2,0.7,0.2c0.3,0.1,0.6,0.2,0.8,0.3
		s0.4,0.2,0.6,0.4c0.2,0.2,0.2,0.4,0.2,0.7c0,0.3-0.1,0.5-0.2,0.7c-0.1,0.2-0.4,0.4-0.6,0.5c-0.3,0.1-0.6,0.2-1,0.2
		C295.2,93.1,294.9,93,294.6,92.9z"/>
	<path class="st4" d="M298.4,89.4c0.2-0.4,0.4-0.6,0.8-0.8s0.7-0.3,1.1-0.3c0.3,0,0.7,0.1,0.9,0.2c0.3,0.1,0.5,0.3,0.6,0.5v-0.7h1.2
		V93h-1.2v-0.7c-0.2,0.2-0.4,0.4-0.6,0.5c-0.3,0.1-0.6,0.2-0.9,0.2c-0.4,0-0.7-0.1-1.1-0.3c-0.3-0.2-0.6-0.5-0.8-0.9
		c-0.2-0.4-0.3-0.8-0.3-1.3C298.1,90.2,298.2,89.8,298.4,89.4z M301.6,90c-0.1-0.2-0.3-0.4-0.5-0.5s-0.4-0.2-0.6-0.2
		c-0.2,0-0.4,0.1-0.6,0.2s-0.3,0.3-0.4,0.5c-0.1,0.2-0.2,0.4-0.2,0.7c0,0.3,0.1,0.5,0.2,0.7c0.1,0.2,0.3,0.4,0.5,0.5
		c0.2,0.1,0.4,0.2,0.6,0.2c0.2,0,0.4-0.1,0.6-0.2s0.3-0.3,0.5-0.5c0.1-0.2,0.2-0.4,0.2-0.7C301.8,90.4,301.7,90.2,301.6,90z"/>
	<path class="st4" d="M304.5,92.9c-0.1-0.1-0.2-0.3-0.2-0.5s0.1-0.4,0.2-0.5c0.1-0.1,0.3-0.2,0.5-0.2c0.2,0,0.4,0.1,0.5,0.2
		c0.1,0.1,0.2,0.3,0.2,0.5s-0.1,0.4-0.2,0.5c-0.1,0.1-0.3,0.2-0.5,0.2C304.8,93.1,304.6,93,304.5,92.9z M305.6,87.1l-0.1,4.1h-1
		l-0.1-4.1H305.6z"/>
</g>
</svg>
