<?xml version="1.0" encoding="utf-8"?>
<!-- Generator: Adobe Illustrator 24.3.0, SVG Export Plug-In . SVG Version: 6.00 Build 0)  -->
<svg version="1.1" id="Layer_1" xmlns="http://www.w3.org/2000/svg" xmlns:xlink="http://www.w3.org/1999/xlink" x="0px" y="0px"
	 viewBox="0 0 205 157.6" style="enable-background:new 0 0 205 157.6;" xml:space="preserve">
<style type="text/css">
	.st0{fill:#696BA8;}
	.st1{fill:#FFFFFF;}
	.st2{fill:none;}
</style>
<g>
	<g>
		<path class="st0" d="M30.8,128.9c1.3,0.6,2.2,1.6,2.9,2.8c0.7,1.2,1,2.6,1,4.3s-0.3,3-1,4.2c-0.7,1.2-1.7,2.1-2.9,2.7
			c-1.3,0.6-2.8,0.9-4.5,0.9h-5v-15.9h5C28.1,127.9,29.6,128.3,30.8,128.9z M31,140.5c1.1-1.1,1.6-2.6,1.6-4.6c0-2-0.5-3.5-1.6-4.6
			c-1.1-1.1-2.7-1.7-4.7-1.7h-2.9v12.5h2.9C28.4,142.2,29.9,141.6,31,140.5z"/>
		<path class="st0" d="M37.6,128.9c-0.3-0.3-0.4-0.6-0.4-1c0-0.4,0.1-0.7,0.4-1s0.6-0.4,1-0.4c0.4,0,0.7,0.1,1,0.4
			c0.3,0.3,0.4,0.6,0.4,1c0,0.4-0.1,0.7-0.4,1c-0.3,0.3-0.6,0.4-1,0.4C38.2,129.3,37.9,129.2,37.6,128.9z M39.6,131.3v12.5h-2.1
			v-12.5H39.6z"/>
		<path class="st0" d="M45,143.6c-0.8-0.3-1.4-0.8-1.8-1.4c-0.4-0.6-0.7-1.3-0.7-2h2.1c0.1,0.6,0.4,1.1,0.9,1.5
			c0.5,0.4,1.2,0.6,2.1,0.6c0.8,0,1.4-0.2,1.9-0.5c0.5-0.4,0.7-0.8,0.7-1.3c0-0.5-0.2-1-0.7-1.2c-0.5-0.3-1.2-0.5-2.3-0.8
			c-0.9-0.2-1.7-0.5-2.3-0.7c-0.6-0.3-1.1-0.6-1.5-1.1c-0.4-0.5-0.6-1.1-0.6-2c0-0.6,0.2-1.2,0.6-1.8c0.4-0.5,0.9-1,1.6-1.3
			s1.5-0.5,2.4-0.5c1.4,0,2.5,0.4,3.4,1.1c0.9,0.7,1.3,1.7,1.4,2.9H50c0-0.7-0.3-1.2-0.8-1.6c-0.5-0.4-1.1-0.6-1.9-0.6
			c-0.7,0-1.3,0.2-1.8,0.5s-0.7,0.7-0.7,1.3c0,0.4,0.1,0.8,0.4,1c0.3,0.3,0.6,0.5,1,0.6c0.4,0.2,1,0.3,1.7,0.5
			c0.9,0.2,1.6,0.5,2.2,0.7c0.6,0.2,1,0.6,1.5,1.1c0.4,0.5,0.6,1.1,0.6,1.9c0,0.7-0.2,1.3-0.6,1.9s-0.9,1-1.6,1.3
			c-0.7,0.3-1.5,0.5-2.4,0.5C46.6,144.1,45.8,143.9,45,143.6z"/>
		<path class="st0" d="M66.5,138.4h-10c0.1,1.2,0.5,2.2,1.3,2.9c0.8,0.7,1.7,1,2.8,1c0.9,0,1.7-0.2,2.3-0.6c0.6-0.4,1-1,1.3-1.7h2.2
			c-0.3,1.2-1,2.2-2,2.9c-1,0.8-2.3,1.1-3.8,1.1c-1.2,0-2.3-0.3-3.2-0.8c-0.9-0.5-1.7-1.3-2.2-2.3c-0.5-1-0.8-2.1-0.8-3.4
			s0.3-2.4,0.8-3.4s1.2-1.7,2.2-2.3c0.9-0.5,2-0.8,3.2-0.8c1.2,0,2.2,0.3,3.2,0.8c0.9,0.5,1.6,1.2,2.1,2.1c0.5,0.9,0.7,1.9,0.7,3.1
			C66.5,137.5,66.5,137.9,66.5,138.4z M63.8,134.6c-0.4-0.6-0.8-1-1.4-1.3c-0.6-0.3-1.3-0.4-2-0.4c-1.1,0-1.9,0.3-2.7,1
			s-1.2,1.6-1.3,2.8h7.9C64.4,135.9,64.2,135.2,63.8,134.6z"/>
		<path class="st0" d="M79.1,132.5c0.9,0.9,1.4,2.3,1.4,4v7.4h-2.1v-7.1c0-1.2-0.3-2.2-0.9-2.9c-0.6-0.7-1.5-1-2.6-1
			c-1.1,0-2,0.3-2.6,1c-0.6,0.7-1,1.7-1,3v6.9h-2.1v-12.5h2.1v1.8c0.4-0.6,1-1.1,1.7-1.5s1.5-0.5,2.3-0.5
			C76.9,131.1,78.1,131.6,79.1,132.5z M72.3,128.2c0.4-0.4,0.9-0.6,1.5-0.6c0.3,0,0.5,0,0.7,0.1c0.2,0.1,0.5,0.2,0.7,0.4
			c0.2,0.2,0.4,0.3,0.6,0.4c0.2,0.1,0.4,0.1,0.5,0.1c0.3,0,0.5-0.1,0.7-0.3c0.2-0.2,0.3-0.4,0.3-0.7h1.2c-0.1,0.8-0.3,1.3-0.8,1.8
			c-0.4,0.4-0.9,0.6-1.5,0.6c-0.3,0-0.5,0-0.8-0.1c-0.2-0.1-0.5-0.2-0.7-0.4c-0.2-0.2-0.4-0.3-0.6-0.3c-0.1-0.1-0.3-0.1-0.5-0.1
			c-0.3,0-0.5,0.1-0.7,0.3c-0.2,0.2-0.3,0.4-0.3,0.8h-1.2C71.6,129.2,71.9,128.6,72.3,128.2z"/>
		<path class="st0" d="M86.2,143.3c-1-0.5-1.7-1.3-2.2-2.3s-0.8-2.1-0.8-3.4c0-1.3,0.3-2.4,0.8-3.4c0.6-1,1.3-1.7,2.3-2.3
			c1-0.5,2-0.8,3.2-0.8s2.3,0.3,3.2,0.8c1,0.5,1.7,1.3,2.3,2.3s0.8,2.1,0.8,3.4s-0.3,2.4-0.9,3.4s-1.3,1.7-2.3,2.3
			c-1,0.5-2.1,0.8-3.2,0.8C88.2,144.1,87.1,143.8,86.2,143.3z M91.5,141.7c0.7-0.4,1.2-0.9,1.6-1.6c0.4-0.7,0.6-1.6,0.6-2.6
			c0-1-0.2-1.9-0.6-2.6c-0.4-0.7-0.9-1.2-1.6-1.6c-0.6-0.3-1.3-0.5-2.1-0.5c-0.8,0-1.5,0.2-2.1,0.5s-1.1,0.9-1.5,1.6
			s-0.6,1.6-0.6,2.6c0,1,0.2,1.9,0.6,2.6s0.9,1.2,1.5,1.6c0.6,0.3,1.3,0.5,2.1,0.5S90.8,142.1,91.5,141.7z"/>
		<path class="st0" d="M116.7,132.6c-0.4-0.9-1.1-1.6-1.9-2.2c-0.8-0.5-1.8-0.8-2.9-0.8c-1.1,0-2.1,0.3-3,0.8s-1.6,1.2-2.1,2.2
			c-0.5,1-0.8,2.1-0.8,3.3s0.3,2.3,0.8,3.3s1.2,1.7,2.1,2.2s1.9,0.8,3,0.8c1.6,0,2.8-0.5,3.8-1.4s1.6-2.2,1.8-3.8h-6.4v-1.7h8.6v1.6
			c-0.1,1.3-0.5,2.5-1.2,3.6s-1.6,2-2.8,2.6c-1.1,0.6-2.4,0.9-3.8,0.9c-1.5,0-2.8-0.3-4-1c-1.2-0.7-2.2-1.7-2.9-2.9
			s-1.1-2.6-1.1-4.2s0.4-3,1.1-4.2c0.7-1.2,1.7-2.2,2.9-2.9c1.2-0.7,2.6-1,4-1c1.7,0,3.2,0.4,4.5,1.3c1.3,0.8,2.3,2,2.8,3.5H116.7z"
			/>
		<path class="st0" d="M126.1,131.7c0.7-0.4,1.5-0.6,2.5-0.6v2.1H128c-2.3,0-3.5,1.3-3.5,3.8v6.8h-2.1v-12.5h2.1v2
			C124.9,132.7,125.4,132.1,126.1,131.7z"/>
		<path class="st0" d="M131,134.2c0.5-1,1.2-1.7,2.1-2.3c0.9-0.5,1.9-0.8,3-0.8c1.1,0,2,0.2,2.9,0.7c0.8,0.5,1.4,1.1,1.8,1.8v-2.3
			h2.1v12.5h-2.1v-2.3c-0.4,0.7-1,1.3-1.8,1.8c-0.8,0.5-1.8,0.7-2.8,0.7c-1.1,0-2.1-0.3-3-0.8c-0.9-0.5-1.6-1.3-2.1-2.3
			s-0.8-2.1-0.8-3.4C130.2,136.3,130.4,135.2,131,134.2z M140.2,135.1c-0.4-0.7-0.9-1.2-1.5-1.6c-0.6-0.4-1.4-0.6-2.1-0.6
			c-0.8,0-1.5,0.2-2.1,0.5c-0.6,0.4-1.2,0.9-1.5,1.6c-0.4,0.7-0.6,1.5-0.6,2.5c0,1,0.2,1.8,0.6,2.5s0.9,1.2,1.5,1.6
			c0.6,0.4,1.3,0.6,2.1,0.6c0.8,0,1.5-0.2,2.1-0.6c0.6-0.4,1.2-0.9,1.5-1.6s0.6-1.5,0.6-2.5S140.6,135.8,140.2,135.1z M139.2,127.8
			l-4.9,2.6v-1.6l4.9-2.9V127.8z"/>
		<path class="st0" d="M151.5,133.1h-2.6v10.8h-2.1v-10.8h-1.6v-1.7h1.6v-0.9c0-1.4,0.4-2.4,1.1-3.1c0.7-0.6,1.9-1,3.5-1v1.7
			c-0.9,0-1.6,0.2-1.9,0.5c-0.4,0.4-0.6,0.9-0.6,1.8v0.9h2.6V133.1z"/>
		<path class="st0" d="M154,128.9c-0.3-0.3-0.4-0.6-0.4-1c0-0.4,0.1-0.7,0.4-1s0.6-0.4,1-0.4c0.4,0,0.7,0.1,1,0.4
			c0.3,0.3,0.4,0.6,0.4,1c0,0.4-0.1,0.7-0.4,1c-0.3,0.3-0.6,0.4-1,0.4C154.6,129.3,154.3,129.2,154,128.9z M156,131.3v12.5h-2.1
			v-12.5H156z"/>
		<path class="st0" d="M159.6,134.2c0.5-1,1.2-1.7,2.2-2.3c0.9-0.5,2-0.8,3.2-0.8c1.5,0,2.8,0.4,3.8,1.1c1,0.7,1.7,1.8,2,3.1h-2.2
			c-0.2-0.8-0.6-1.4-1.2-1.8s-1.4-0.7-2.3-0.7c-1.2,0-2.1,0.4-2.9,1.2c-0.7,0.8-1.1,2-1.1,3.5c0,1.5,0.4,2.7,1.1,3.5
			c0.7,0.8,1.7,1.2,2.9,1.2c0.9,0,1.7-0.2,2.3-0.6c0.6-0.4,1-1,1.3-1.8h2.2c-0.3,1.3-1,2.3-2,3.1c-1,0.8-2.3,1.2-3.8,1.2
			c-1.2,0-2.2-0.3-3.2-0.8c-0.9-0.5-1.6-1.3-2.2-2.3s-0.8-2.1-0.8-3.4C158.8,136.3,159,135.2,159.6,134.2z"/>
		<path class="st0" d="M175.7,143.3c-1-0.5-1.7-1.3-2.2-2.3s-0.8-2.1-0.8-3.4c0-1.3,0.3-2.4,0.8-3.4c0.6-1,1.3-1.7,2.3-2.3
			c1-0.5,2-0.8,3.2-0.8s2.3,0.3,3.2,0.8c1,0.5,1.7,1.3,2.3,2.3s0.8,2.1,0.8,3.4s-0.3,2.4-0.9,3.4s-1.3,1.7-2.3,2.3
			c-1,0.5-2.1,0.8-3.2,0.8C177.7,144.1,176.7,143.8,175.7,143.3z M181,141.7c0.7-0.4,1.2-0.9,1.6-1.6c0.4-0.7,0.6-1.6,0.6-2.6
			c0-1-0.2-1.9-0.6-2.6c-0.4-0.7-0.9-1.2-1.6-1.6c-0.6-0.3-1.3-0.5-2.1-0.5c-0.8,0-1.5,0.2-2.1,0.5s-1.1,0.9-1.5,1.6
			s-0.6,1.6-0.6,2.6c0,1,0.2,1.9,0.6,2.6s0.9,1.2,1.5,1.6c0.6,0.3,1.3,0.5,2.1,0.5S180.4,142.1,181,141.7z"/>
	</g>
	<g>
		<circle class="st0" cx="103" cy="54.9" r="48.8"/>
		<g>
			<path class="st1" d="M116,67.8h-2c-0.6,0-1-0.4-1-1c0-0.6,0.4-1,1-1h2c2.8,0,5-2.2,5-5c0-2.8-2.2-5-5-5h-2c-0.6,0-1-0.4-1-1
				c0-0.6,0.4-1,1-1h2c3.9,0,7,3.1,7,7C123,64.6,119.9,67.8,116,67.8L116,67.8z M116,67.8"/>
			<path class="st1" d="M110,77.8h-18c-2.8,0-5-2.2-5-5v-22c0-0.6,0.4-1,1-1h19.4l4.5-8.1c-0.4-0.4-0.7-0.8-0.9-1.3
				c-0.4-1-0.4-2.2,0.1-3.3c0.2-0.6,0.7-1.1,1.1-1.6c1.1-1.4,1.8-2.4,0.7-4c-0.2-0.3-0.2-0.8,0-1.1c0.2-0.3,0.7-0.5,1.1-0.4
				c2.9,0.7,4.9,2.7,5.6,5.6c0.6,2.6-0.1,5.2-1.7,6.6c-0.6,0.5-1.2,0.8-1.9,0.9l-2.5,6.8h0.6c0.6,0,1,0.4,1,1v22
				C115,75.5,112.8,77.8,110,77.8L110,77.8z M89.1,51.8v21c0,1.7,1.3,3,3,3h18c1.7,0,3-1.3,3-3v-21h-5c0,0,0,0,0,0H89.1z
				 M109.7,49.8h1.6l2.6-6.9c-0.1,0-0.2-0.1-0.3-0.1L109.7,49.8z M113.9,40.6c0.1,0.1,0.2,0.1,0.4,0.2c1,0.4,1.8,0.3,2.4-0.2
				c1-0.9,1.5-2.8,1-4.6c-0.3-1.4-1.1-2.5-2.2-3.3c0.1,1.7-0.9,3-1.7,4c-0.3,0.4-0.7,0.8-0.8,1.2c-0.3,0.6-0.3,1.2-0.1,1.7
				c0.1,0.4,0.4,0.7,0.8,0.9c0,0,0,0,0,0C113.8,40.5,113.8,40.6,113.9,40.6L113.9,40.6z M113.9,40.6"/>
			<path class="st1" d="M96,51.8h-6c-0.4,0-0.7-0.2-0.9-0.6l-3-6c-0.1-0.1-0.1-0.2-0.1-0.3l-1-6c-0.1-0.4,0.1-0.8,0.4-1
				c0.3-0.2,0.7-0.2,1.1,0l5,3c0.1,0.1,0.2,0.1,0.3,0.3c0,0,0,0,0,0c0,0,0,0,0,0c0,0,0,0,0,0l0,0l0,0l0,0c0,0,0,0,0,0v0l0,0
				c0,0,0.1,0.1,0.1,0.1l5,9c0.2,0.3,0.2,0.7,0,1C96.7,51.6,96.4,51.8,96,51.8L96,51.8z M90.7,49.8h3.7l-3.6-6.5l-2.4,1.8L90.7,49.8
				z M87.4,40.7l0.4,2.2l1.5-1.1L87.4,40.7z M87.4,40.7"/>
			<rect x="85.1" y="29.8" class="st2" width="38.1" height="48.1"/>
			<path class="st1" d="M106,51.8h-8c-0.6,0-1-0.4-1-1v-20c0-0.6,0.4-1,1-1h8c0.6,0,1,0.4,1,1v20C107,51.3,106.6,51.8,106,51.8
				L106,51.8z M99,49.8h6v-2h-1c-0.6,0-1-0.4-1-1c0-0.6,0.4-1,1-1h1v-2h-3c-0.6,0-1-0.4-1-1s0.4-1,1-1h3v-2h-1c-0.6,0-1-0.4-1-1
				c0-0.6,0.4-1,1-1h1v-2h-3c-0.6,0-1-0.4-1-1c0-0.6,0.4-1,1-1h3v-2h-6V49.8z M99,49.8"/>
		</g>
	</g>
</g>
</svg>
