<?xml version="1.0" encoding="utf-8"?>
<!-- Generator: Adobe Illustrator 24.3.0, SVG Export Plug-In . SVG Version: 6.00 Build 0)  -->
<svg version="1.1" id="Layer_1" xmlns="http://www.w3.org/2000/svg" xmlns:xlink="http://www.w3.org/1999/xlink" x="0px" y="0px"
	 viewBox="0 0 329.2 123.9" style="enable-background:new 0 0 329.2 123.9;" xml:space="preserve">
<style type="text/css">
	.st0{fill:#575756;}
	.st1{fill:#FFFFFF;}
	.st2{fill:#F7A07D;}
	.st3{fill:#F48759;}
	.st4{fill:#7C7C7B;}
	.st5{fill:#595958;}
	.st6{fill-rule:evenodd;clip-rule:evenodd;fill:#575756;}
	.st7{fill:none;stroke:#575756;stroke-width:0.3586;stroke-miterlimit:10;}
	.st8{fill:#575756;stroke:#848484;stroke-width:0.1345;stroke-linejoin:round;stroke-miterlimit:10;}
</style>
<g>
	<g>
		<g>
			<g>
				<g>
					<g>
						<g>
							<path class="st0" d="M55.8,27.2C55.8,27.2,55.8,27.2,55.8,27.2l-1-0.1c0,0-0.1,0-0.1-0.1v-0.9c0,0,0-0.1,0.1-0.1h1
								c0,0,0.1,0,0.1,0.1L55.8,27.2C55.9,27.1,55.9,27.2,55.8,27.2C55.9,27.2,55.8,27.2,55.8,27.2z"/>
						</g>
						<g>
							<g>
								<path class="st0" d="M56.5,34.5C56.5,34.5,56.5,34.5,56.5,34.5c-1.1-0.1-1.6-0.5-1.6-2.4v-3.8c0,0,0,0,0,0c0,0,0,0,0,0
									l0.9,0.1c0,0,0.1,0,0.1,0.1V32c0,1.2,0.2,1.5,0.6,1.6c0,0,0,0,0,0.1L56.5,34.5C56.5,34.4,56.5,34.4,56.5,34.5
									C56.5,34.4,56.5,34.5,56.5,34.5z"/>
							</g>
						</g>
						<path class="st0" d="M74.4,33.6c-0.4-0.1-0.6-0.3-0.6-1.4v-1.8c0-1.6-0.8-2.4-2.4-2.4c-0.6,0-1.5,0.1-2.2,0.2c0,0,0,0,0,0
							c0,0,0,0,0,0l0.1,0.7c0,0,0,0.1,0.1,0.1c0.4-0.1,1.4-0.2,2-0.2c1,0,1.5,0.5,1.5,1.6v0.1l-2,0.2c-1.5,0.1-2.1,0.7-2.1,1.9
							c0,1.2,0.9,1.9,2.5,1.9c0,0,0.1,0,0.1,0c0.9,0,1.5-0.2,1.9-0.6c0.2,0.4,0.6,0.6,1.3,0.6c0,0,0,0,0,0c0,0,0,0,0,0c0,0,0,0,0,0
							L74.4,33.6C74.4,33.6,74.4,33.6,74.4,33.6z M72.4,33.3c-0.2,0.2-0.6,0.3-1.1,0.3c0,0-0.1,0-0.1,0c-1,0-1.6-0.4-1.6-1.1
							c0-0.7,0.3-0.9,1.3-1l1.8-0.2v0.4C72.7,32.5,72.7,33,72.4,33.3z"/>
						<g>
							<path class="st0" d="M52.7,34.3h-3.6c0,0,0,0,0,0c-1.6,0-2.3-0.3-2.3-2.6v-2.9c0-2.4,0.7-2.7,2.6-2.7h3.3c0,0,0.1,0,0.1,0.1
								V27c0,0,0,0.1-0.1,0.1h-3.3c-0.7,0-1,0.1-1.3,0.3c-0.3,0.3-0.3,0.7-0.3,1.5v0.9h4c0,0,0.1,0,0.1,0.1v0.9c0,0,0,0.1-0.1,0.1
								h-4v0.9c0,0.7,0,1.1,0.3,1.4c0.2,0.2,0.7,0.3,1.3,0.3c0,0,0,0,0,0h3.3c0,0,0.1,0,0.1,0.1L52.7,34.3
								C52.8,34.2,52.7,34.3,52.7,34.3z"/>
						</g>
					</g>
				</g>
				<g>
					<path class="st0" d="M64.6,34.5c-0.9,0-1.4-0.3-1.8-2.1l-0.2-1.2l-0.2,1.2c-0.4,1.8-0.9,2.1-1.8,2.1c-0.9,0-1.4-0.3-1.8-2.1
						l-0.9-3.9c0,0,0,0,0-0.1c0,0,0,0,0.1,0l0.8,0.1c0,0,0,0,0.1,0l0.9,3.6c0.2,1.1,0.5,1.4,0.8,1.4c0,0,0,0,0,0c0,0,0.1,0,0.1,0
						c0,0,0,0,0,0c0.3,0,0.6-0.2,0.8-1.4l0.6-2.8c0,0,0,0,0.1,0H63c0,0,0.1,0,0.1,0l0.7,2.8c0.2,1.1,0.5,1.4,0.8,1.4c0,0,0,0,0,0
						c0,0,0.1,0,0.1,0c0,0,0,0,0,0c0.3,0,0.6-0.2,0.8-1.4l0.9-3.7c0,0,0,0,0.1,0l0.9-0.1c0,0,0,0,0.1,0c0,0,0,0,0,0.1l-1,4
						C66,34.2,65.5,34.5,64.6,34.5z"/>
				</g>
			</g>
		</g>
		<g>
			<path class="st0" d="M34.5,31.8c-1-1-1.9-1.6-2.8-1.9c-0.5-0.1-0.9-0.2-1.3-0.1c0.5-1,2.3-1.2,3.5-1.2c0.2,0,0.3,0,0.5,0l0.1-1.2
				c-0.2,0-0.4,0-0.6,0c-1.4,0-2.5,0.2-3.3,0.6c-0.5,0.2-0.8,0.5-1,0.8c-0.4-1,0.8-2.5,1.6-3.3c0.1-0.1,0.2-0.2,0.4-0.3l-0.8-0.9
				c-0.1,0.1-0.3,0.3-0.4,0.4c-1,1-1.6,1.9-1.9,2.8c-0.2,0.5-0.2,0.9-0.1,1.3c-0.8-0.4-1-1.5-1.1-2.5c-0.2-0.2-0.4-0.5-0.6-0.7
				l-0.4-0.3c-0.1-0.1-0.1-0.1-0.2-0.2c0,0.1,0,0.2,0,0.3c0,1.4,0.2,2.5,0.6,3.3c0.2,0.4,0.5,0.8,0.8,1c-1,0.4-2.5-0.8-3.3-1.6
				c-0.1-0.1-0.2-0.2-0.3-0.4L23,28.5c0.1,0.1,0.3,0.3,0.4,0.4c1,1,1.9,1.6,2.8,1.9c0.3,0.1,0.6,0.1,0.9,0.1c0.1,0,0.3,0,0.4,0
				C27,31.9,25.1,32,24,32c-0.2,0-0.3,0-0.5,0l-0.1,1.2c0.2,0,0.4,0,0.6,0c1.4,0,2.5-0.2,3.3-0.6c0.5-0.2,0.8-0.5,1-0.8
				c0.4,1-0.8,2.5-1.6,3.3c-0.1,0.1-0.2,0.2-0.4,0.3l0.8,0.9c0.1-0.1,0.3-0.3,0.4-0.4c1-1,1.6-1.9,1.9-2.8c0.2-0.5,0.2-0.9,0.1-1.3
				c1,0.5,1.2,2.3,1.2,3.4c0,0.2,0,0.3,0,0.5l1.2,0.1c0-0.2,0-0.4,0-0.6c0-1.4-0.2-2.5-0.6-3.3c-0.2-0.4-0.5-0.7-0.8-1
				c1-0.4,2.5,0.8,3.3,1.6c0.1,0.1,0.2,0.2,0.3,0.4l0.9-0.8C34.7,32.1,34.6,31.9,34.5,31.8z M28.9,31.3c-0.5,0-1-0.4-1-1s0.4-1,1-1
				c0.5,0,1,0.4,1,1S29.5,31.3,28.9,31.3z"/>
			<path class="st0" d="M28.1,29.2l0.4,0.3c0.1-0.1,0.3-0.1,0.4-0.1c0.1,0,0.3,0,0.4,0.1c0.2-0.4,0.3-1.1,0.1-1.9
				c-0.3-0.9-0.9-1.8-1.9-2.8L27,24.4l0,0c-2.2-2-5.4-2.8-5.5-2.8c-0.4-0.1-0.8,0-1.1,0.2c-0.3,0.3-0.4,0.7-0.2,1.1
				c0,0.1,0.8,3.2,2.8,5.5l0.9-0.8c-1.6-1.8-2.4-4.4-2.5-4.9c0.5,0.2,3.1,0.9,4.9,2.5l0.4,0.3C27.5,26.5,28.8,28.1,28.1,29.2z"/>
			<path class="st0" d="M24.2,32.6c0.9-0.9,2.5-2.2,3.5-1.5l0.3-0.4c-0.1-0.1-0.1-0.3-0.1-0.4c0-0.1,0-0.2,0.1-0.4
				c-0.4-0.2-1.1-0.3-1.8-0.1c-0.9,0.3-1.8,0.9-2.8,1.9L23,32.2l0,0c-2,2.2-2.8,5.3-2.8,5.5c-0.1,0.4,0,0.8,0.2,1.1
				c0.2,0.2,0.5,0.3,0.7,0.3c0.1,0,0.2,0,0.3,0c0.1,0,3.2-0.8,5.5-2.8l-0.8-0.9c-1.8,1.6-4.4,2.4-4.9,2.5c0.2-0.5,0.9-3.1,2.5-4.9
				L24.2,32.6z"/>
			<path class="st0" d="M30.6,35.8c-0.2,2.4-1.4,4.8-1.7,5.2c-0.3-0.5-1.5-2.8-1.7-5.2l0-0.5c0-1.2,0.2-3.3,1.5-3.5l-0.1-0.5
				c-0.3-0.1-0.5-0.3-0.6-0.5c-0.5,0.2-1,0.5-1.3,1.3c-0.4,0.8-0.6,1.9-0.6,3.3l0,0.5l0,0c0.2,3,1.8,5.7,1.9,5.9
				c0.2,0.4,0.6,0.6,0.9,0.6s0.7-0.2,0.9-0.6c0.1-0.1,1.7-2.9,1.9-5.9L30.6,35.8z"/>
			<path class="st0" d="M37.6,37.7c0-0.1-0.8-3.2-2.8-5.5L33.9,33c1.6,1.8,2.4,4.4,2.5,4.9c-0.5-0.2-3.1-0.9-4.9-2.5L31.2,35
				c-0.9-0.9-2.2-2.5-1.5-3.5l-0.4-0.3c-0.1,0.1-0.3,0.1-0.4,0.1c-0.1,0-0.2,0-0.4-0.1c-0.2,0.4-0.3,1.1-0.1,1.9
				c0.3,0.9,0.9,1.8,1.9,2.8l0.4,0.4l0,0c2.2,2,5.4,2.8,5.5,2.8c0.1,0,0.2,0,0.3,0c0.3,0,0.6-0.1,0.7-0.3
				C37.6,38.5,37.7,38.1,37.6,37.7z"/>
			<path class="st0" d="M40.3,29.4c-0.1-0.1-2.9-1.7-5.9-1.9l-0.1,1.2c2.4,0.2,4.8,1.4,5.2,1.7c-0.5,0.3-2.8,1.5-5.2,1.7l-0.5,0
				c-1.2,0-3.3-0.2-3.5-1.5l-0.5,0.1c-0.1,0.2-0.3,0.4-0.5,0.5c0.2,0.5,0.5,1,1.3,1.4c0.8,0.4,1.9,0.6,3.3,0.6h0l0.5,0l0,0
				c3-0.2,5.7-1.8,5.9-1.9c0.4-0.2,0.6-0.6,0.6-0.9S40.7,29.6,40.3,29.4z"/>
			<path class="st0" d="M37.4,21.9c-0.3-0.3-0.7-0.4-1.1-0.2c-0.1,0-3.2,0.8-5.5,2.8l0.8,0.9c1.8-1.6,4.4-2.4,4.9-2.5
				c-0.2,0.5-0.9,3.1-2.5,4.9L33.6,28c-0.9,0.9-2.5,2.2-3.5,1.5l-0.3,0.4c0.1,0.1,0.1,0.2,0.1,0.4c0,0.1,0,0.3-0.1,0.4
				c0.3,0.1,0.6,0.2,1,0.2c0.3,0,0.6,0,0.9-0.1c0.9-0.3,1.8-0.9,2.8-1.9l0.4-0.4l0,0c2-2.2,2.8-5.3,2.8-5.5
				C37.7,22.5,37.6,22.1,37.4,21.9z"/>
			<path class="st0" d="M31.8,24.8L31.8,24.8c-0.2-3-1.8-5.8-1.9-5.9c-0.2-0.4-0.6-0.6-0.9-0.6l0,0c-0.4,0-0.7,0.2-0.9,0.6
				c-0.1,0.1-1.3,2.3-1.8,4.8c0.3,0.2,0.6,0.4,0.8,0.7l0,0l0.2,0.2c0.2-2.3,1.4-4.5,1.7-5c0.3,0.5,1.5,2.8,1.7,5.2l0,0.5
				c0,1.1-0.2,3-1.2,3.4c0,0.2-0.1,0.4-0.2,0.6c0.2,0.1,0.4,0.3,0.5,0.5c0.5-0.2,1-0.5,1.4-1.3c0.4-0.8,0.6-1.9,0.6-3.3L31.8,24.8z"
				/>
			<path class="st0" d="M28.5,29.4c-0.2-0.5-0.5-1-1.3-1.3c-0.8-0.4-1.9-0.6-3.3-0.6l-0.5,0l0,0c-3,0.2-5.7,1.8-5.9,1.9
				c-0.4,0.2-0.6,0.6-0.6,0.9s0.2,0.7,0.6,0.9c0.1,0.1,2.9,1.7,5.9,1.9l0.1-1.2c-2.4-0.2-4.8-1.4-5.2-1.7c0.5-0.3,2.8-1.5,5.2-1.7
				l0.5,0c1.2,0,3.3,0.2,3.5,1.5L28,30C28.1,29.7,28.3,29.5,28.5,29.4z"/>
		</g>
	</g>
</g>
<g>
	<path id="_160380112_2_" class="st1" d="M128.4,105.6c0-5.9,0-11.7,0-17.6c21.6,0,43.1,0,64.7,0c0,5.9,0,11.7,0,17.6
		C171.6,105.6,150,105.6,128.4,105.6L128.4,105.6z"/>
	<path id="_160211824_2_" class="st2" d="M166.9,92C166.9,92,166.9,92,166.9,92c0.5,0,1.1,0,1.6,0c0,0,0,0,0,0
		C168,92,167.4,92,166.9,92L166.9,92z"/>
	<path id="_160211656_2_" class="st3" d="M142.7,88.8c0,0,0,0,49.6,0C175.8,88.8,159.2,88.8,142.7,88.8L142.7,88.8z"/>
	<g>
		<path class="st0" d="M142.7,88.8c0.5,0.4,3.7,3,4,7.6c0.2,5.1-3.6,8.3-4,8.6h49.7V88.8L142.7,88.8z"/>
		<path class="st0" d="M144.5,96.4c-0.2-4.6-3.5-7.2-4-7.6c-3.8,0-7.5,0-11.3,0v16.1h11.3C140.9,104.6,144.7,101.5,144.5,96.4z"/>
	</g>
	<path id="_160931640_2_" class="st1" d="M137.2,103.2c-0.3-2.4-0.7-4.8-1-7.2c0.4-0.2,0.5-0.6,0.6-1c0.1-0.4,0.2-0.9,0.2-1.3
		c-0.7,0-1.5,0.1-2.2,0.4c-0.8,0-0.9-1.1,0-1.2c0.7,0.3,1.4,0.4,2.2,0.4c0-0.8-0.1-1.5-0.4-2.2c0-0.2,0-0.3,0.2-0.5
		c0.5-0.3,0.9-0.1,1,0.5c-0.3,0.7-0.3,1.4-0.4,2.2c0,0,0,0,0,0c0.7,0,1.5-0.1,2.2-0.4c0.8,0.1,0.8,1.2,0,1.2
		c-0.7-0.3-1.5-0.4-2.2-0.4c0,0.4,0.1,2.1,0.8,2.3c0,0.4-0.1,0.4-0.8,5.7C137.5,101.8,137.3,103.2,137.2,103.2L137.2,103.2z"/>
	<path id="_160943952_2_" class="st3" d="M166.9,92.1c0,3.2,0,6.4,0,9.6c0.5,0,1.1,0,1.6,0c-0.5,0-1.1,0-1.6,0
		C166.9,98.5,166.9,95.3,166.9,92.1z"/>
	<g>
		<path class="st1" d="M178.2,101.1c-0.1-0.3-0.3-0.6-0.4-0.8c-0.8,0.5-1.7,0.5-2.4,0c-0.7-0.5-0.8-1.3-0.8-1.5c0-0.2-0.1-1,0.5-1.6
			c0.6-0.6,1.6-0.8,2.5-0.5c0.1-0.4,0.3-0.7,0.4-1.1c-0.3-0.1-1-0.5-2-0.3c-0.1,0-1,0.1-1.6,0.6c-1.1,0.8-1.5,2.4-1.2,4.1
			c0.1,0.3,0.4,1.1,1.3,1.6c1.3,0.8,2.7,0.2,2.9,0.1C177.7,101.5,178,101.3,178.2,101.1z"/>
		<path class="st1" d="M165.3,101.7c0-1.5,0-3.1,0-4.6c0-0.3-0.1-0.7-0.4-1c-0.6-0.7-1.5-0.8-2-0.8c-1.1-0.1-2,0.4-2.3,0.6
			c0.1,0.3,0.2,0.7,0.4,1c0.4-0.2,0.8-0.3,1-0.3c0.8-0.2,1.1-0.1,1.2,0c0.1,0,0.3,0.1,0.4,0.3c0.3,0.4,0.3,0.9,0.3,1
			c-0.4,0-0.9,0-1.6,0.2c-0.7,0.2-1.6,0.4-1.9,1.2c-0.3,0.7-0.2,1.7,0.4,2.2c0.6,0.5,1.4,0.5,1.6,0.4c0.9-0.1,1.4-0.7,1.5-0.8
			c0,0.2,0.1,0.5,0.1,0.7C164.4,101.7,164.9,101.7,165.3,101.7z M162.4,100.6c-0.1,0-0.4,0-0.5-0.3c-0.2-0.3-0.2-0.7-0.1-0.9
			c0.2-0.5,1.1-0.9,2.2-0.8c0,0.4,0,0.8,0,1.2c-0.2,0.3-0.5,0.4-0.7,0.5C163,100.5,162.7,100.7,162.4,100.6z"/>
		<path class="st1" d="M187.1,101.7c0-1.5,0-3.1,0-4.6c0-0.3-0.1-0.7-0.4-1c-0.6-0.7-1.5-0.8-2-0.8c-1.1-0.1-2,0.4-2.3,0.6
			c0.1,0.3,0.2,0.7,0.4,1c0.4-0.2,0.8-0.3,1-0.3c0.8-0.2,1.1-0.1,1.2,0c0.1,0,0.3,0.1,0.4,0.3c0.3,0.4,0.3,0.9,0.3,1
			c-0.4,0-0.9,0-1.6,0.2c-0.7,0.2-1.6,0.4-1.9,1.2c-0.3,0.7-0.2,1.7,0.4,2.2c0.6,0.5,1.4,0.5,1.6,0.4c0.9-0.1,1.4-0.7,1.5-0.8
			c0,0.2,0.1,0.5,0.1,0.7C186.2,101.7,186.7,101.7,187.1,101.7z M184.2,100.6c-0.1,0-0.4,0-0.5-0.3c-0.2-0.3-0.2-0.7-0.1-0.9
			c0.2-0.5,1.1-0.9,2.2-0.8c0,0.4,0,0.8,0,1.2c-0.2,0.3-0.5,0.4-0.7,0.5C184.8,100.5,184.5,100.7,184.2,100.6z"/>
		<path class="st1" d="M159,101.2c0-1.4,0-2.9,0-4.3c-1.1,0-2.1,0-3.2,0c0,0.5,0,0.9,0,1.4c0.5,0,1,0,1.6,0c0,0.7,0,1.4,0,2
			c-0.2,0-1.6,0.4-2.9-0.6c-1.3-1.1-1.1-2.8-1.1-3c0.1-0.4,0.2-1.4,1.1-2.1c0.9-0.7,1.9-0.7,2.3-0.7c0.7,0,1.2,0.2,1.5,0.3
			c0.1-0.4,0.3-0.8,0.4-1.2c-0.4-0.1-1.1-0.3-1.8-0.3c-0.7,0-2.1-0.1-3.4,0.9c-1.5,1.1-1.7,2.9-1.8,3.2c0,0.4-0.3,2.4,1.2,3.8
			c1.3,1.3,3,1.3,3.6,1.3C157.6,101.8,158.5,101.4,159,101.2z"/>
		<rect x="166.9" y="92" class="st1" width="1.6" height="9.6"/>
		<g>
			<rect x="170.2" y="95.3" class="st1" width="1.6" height="6.3"/>
			<circle class="st1" cx="171" cy="93.1" r="0.9"/>
		</g>
		<g>
			<circle class="st1" cx="180.1" cy="93.1" r="0.8"/>
			<rect x="179.3" y="95.4" class="st1" width="1.6" height="6.3"/>
		</g>
	</g>
</g>
<g>
	<g>
		<path class="st4" d="M303.7,30.3h1.7v0.2h-0.3c-0.2,0-0.4,0-0.4,0.4v2.5h1c0.3,0,0.4,0,0.4-0.7v-0.1h0.4v1.1h-2.7v-0.3h0.2
			c0.2,0,0.4,0,0.4-0.4v-2.1c0-0.4-0.1-0.4-0.4-0.4h-0.2L303.7,30.3z"/>
	</g>
	<g>
		<g>
			<path class="st4" d="M264.6,30.9c0-0.4-0.1-0.4-0.4-0.4H264v-0.2h1.7v0.2h-0.3c-0.2,0-0.4,0-0.4,0.4V33c0,0.4,0.1,0.4,0.4,0.4
				h0.3v0.2H264v-0.2h0.3c0.2,0,0.4,0,0.4-0.4L264.6,30.9z"/>
		</g>
		<g>
			<path class="st4" d="M268.1,30.3h1.5v0.2h-0.3c-0.2,0-0.3,0.1-0.3,0.4v2.8h-0.5l-1.6-3V33c0,0.4,0.1,0.4,0.4,0.4h0.2v0.2H266
				v-0.2h0.3c0.2,0,0.4,0,0.4-0.4v-2.1c0-0.4-0.1-0.4-0.4-0.4H266v-0.2h1.3c0.4,0.8,1.1,2,1.5,2.9v-2.3c0-0.2,0-0.4-0.4-0.4h-0.2
				L268.1,30.3z"/>
		</g>
		<g>
			<path class="st4" d="M270,30.3h3v1h-0.4l0-0.5c0-0.2-0.1-0.3-0.4-0.3h-0.5v2.5c0,0.4,0.1,0.4,0.4,0.4h0.2v0.2h-1.6v-0.2h0.2
				c0.2,0,0.4,0,0.4-0.4v-2.5h-0.5c-0.4,0-0.4,0-0.4,0.3l0,0.5h-0.4v-1H270z"/>
		</g>
		<g>
			<path class="st4" d="M275.8,31c0-0.4-0.1-0.4-0.5-0.4h-0.9v1.2h0.5c0.2,0,0.4,0,0.4-0.5h0.3v1.2h-0.3c0-0.4,0-0.5-0.4-0.5h-0.4
				v1.3h1.1c0.4,0,0.4-0.1,0.4-0.6h0.4v0.8h-2.8v-0.3h0.2c0.2,0,0.4,0,0.4-0.4v-2.1c0-0.4-0.1-0.4-0.4-0.4h-0.2v-0.2h2.8v0.8
				L275.8,31L275.8,31z"/>
		</g>
		<g>
			<path class="st4" d="M276.7,30.3h1.6c0.8,0,1.2,0.4,1.2,0.8c0,0.4-0.4,0.7-0.8,0.8c0.4,0,0.5,0.2,0.7,0.6l0.2,0.6
				c0.1,0.2,0.2,0.2,0.3,0.2h0.1v0.2h-0.8c-0.5-1.4-0.6-1.6-1.2-1.6h-0.4V33c0,0.4,0.1,0.4,0.4,0.4h0.3v0.2h-1.7v-0.2h0.3
				c0.2,0,0.4,0,0.4-0.4v-2.1c0-0.4-0.1-0.4-0.4-0.4h-0.3L276.7,30.3z M277.9,31.8h0.4c0.5,0,0.8-0.2,0.8-0.7c0-0.4-0.3-0.6-0.9-0.6
				h-0.3L277.9,31.8z"/>
		</g>
		<g>
			<path class="st4" d="M282.6,30.3h1.5v0.2h-0.3c-0.2,0-0.3,0.1-0.3,0.4v2.8H283l-1.6-3V33c0,0.4,0.1,0.4,0.4,0.4h0.2v0.2h-1.6
				v-0.2h0.3c0.2,0,0.4,0,0.4-0.4v-2.1c0-0.4-0.1-0.4-0.4-0.4h-0.3v-0.2h1.3c0.4,0.8,1.1,2,1.5,2.9v-2.3c0-0.2,0-0.4-0.4-0.4h-0.2
				L282.6,30.3z"/>
		</g>
		<g>
			<path class="st4" d="M286.2,33.4h0.2c0.1,0,0.2,0,0.2-0.1c0,0,0-0.1,0-0.2l-0.1-0.5h-1.3l-0.1,0.4c0,0.1,0,0.2,0,0.2
				c0,0.1,0,0.1,0.2,0.1h0.2v0.2h-1v-0.2c0.2,0,0.3,0,0.4-0.2l1.1-2.9h0.5l0.9,2.7c0.1,0.4,0.2,0.4,0.4,0.4h0v0.2h-1.3v-0.2H286.2z
				 M285.8,30.6L285.8,30.6l-0.6,1.7h1.2L285.8,30.6z"/>
		</g>
		<g>
			<path class="st4" d="M287.5,30.3h3v1h-0.4l0-0.5c0-0.2-0.1-0.3-0.4-0.3h-0.5v2.5c0,0.4,0.1,0.4,0.4,0.4h0.2v0.2h-1.6v-0.2h0.2
				c0.2,0,0.4,0,0.4-0.4v-2.5h-0.5c-0.4,0-0.4,0-0.4,0.3l0,0.5h-0.4L287.5,30.3z"/>
		</g>
		<g>
			<path class="st4" d="M291.4,30.9c0-0.4-0.1-0.4-0.4-0.4h-0.3v-0.2h1.7v0.2h-0.3c-0.2,0-0.4,0-0.4,0.4V33c0,0.4,0.1,0.4,0.4,0.4
				h0.3v0.2h-1.7v-0.2h0.3c0.2,0,0.4,0,0.4-0.4L291.4,30.9z"/>
		</g>
		<g>
			<path class="st4" d="M294.5,30.2c0.9,0,1.5,0.6,1.5,1.8c0,1.2-0.6,1.8-1.5,1.8c-0.9,0-1.5-0.6-1.5-1.8
				C293,30.8,293.5,30.2,294.5,30.2 M294.5,33.5c0.6,0,1-0.4,1-1.5c0-1.1-0.4-1.5-1-1.5c-0.6,0-1,0.4-1,1.5
				C293.4,33,293.8,33.5,294.5,33.5"/>
		</g>
		<g>
			<path class="st4" d="M298.6,30.3h1.5v0.2h-0.3c-0.2,0-0.3,0.1-0.3,0.4v2.8H299l-1.6-3V33c0,0.4,0.1,0.4,0.4,0.4h0.2v0.2h-1.6
				v-0.2h0.3c0.2,0,0.4,0,0.4-0.4v-2.1c0-0.4-0.1-0.4-0.4-0.4h-0.3v-0.2h1.3c0.4,0.8,1.1,2,1.5,2.9v-2.3c0-0.2,0-0.4-0.4-0.4h-0.2
				L298.6,30.3z"/>
		</g>
		<g>
			<path class="st4" d="M302.2,33.4h0.2c0.1,0,0.2,0,0.2-0.1c0,0,0-0.1,0-0.2l-0.1-0.5h-1.3l-0.1,0.4c0,0.1,0,0.2,0,0.2
				c0,0.1,0,0.1,0.2,0.1h0.2v0.2h-1v-0.2c0.2,0,0.3,0,0.4-0.2l1.1-2.9h0.5l0.9,2.7c0.1,0.4,0.2,0.4,0.4,0.4h0v0.2h-1.3v-0.2H302.2z
				 M301.8,30.6L301.8,30.6l-0.6,1.7h1.2L301.8,30.6z"/>
		</g>
		<g>
			<path class="st4" d="M264.1,37.4h0.4c0,0.6,0.2,0.8,0.7,0.8c0.5,0,0.8-0.2,0.8-0.6c0-0.9-1.8-0.5-1.8-1.7c0-0.5,0.4-0.9,1.2-0.9
				c0.3,0,0.6,0,0.8,0.2V36h-0.4c0-0.4-0.1-0.7-0.6-0.7c-0.5,0-0.7,0.2-0.7,0.6c0,0.9,1.8,0.5,1.8,1.7c0,0.6-0.5,0.9-1.2,0.9
				c-0.4,0-0.7,0-1-0.2L264.1,37.4z"/>
		</g>
		<g>
			<path class="st4" d="M269.6,37.4l0,0.9c-0.3,0.1-0.6,0.1-1,0.1c-0.8,0-1.5-0.4-1.5-1.6c0-1.2,0.6-1.9,1.6-1.9
				c0.4,0,0.7,0,0.9,0.1v0.9h-0.4c0-0.6,0-0.8-0.6-0.8c-0.7,0-1.1,0.5-1.1,1.6c0,0.8,0.4,1.4,1.1,1.4c0.6,0,0.6-0.2,0.7-0.8H269.6
				L269.6,37.4z"/>
		</g>
		<g>
			<path class="st4" d="M272.2,35h1.7v0.2h-0.3c-0.2,0-0.4,0-0.4,0.4v2.1c0,0.4,0.1,0.4,0.4,0.4h0.3v0.2h-1.7v-0.3h0.2
				c0.2,0,0.4,0,0.4-0.4v-0.9h-1.5v0.9c0,0.4,0.1,0.4,0.4,0.4h0.2v0.2h-1.7v-0.2h0.3c0.2,0,0.4,0,0.4-0.4v-2.1
				c0-0.4-0.1-0.4-0.4-0.4h-0.3V35h1.7v0.2h-0.2c-0.2,0-0.4,0-0.4,0.4v0.8h1.5v-0.8c0-0.4-0.1-0.4-0.4-0.4h-0.2V35z"/>
		</g>
		<g>
			<path class="st4" d="M275.8,35c0.9,0,1.5,0.6,1.5,1.8c0,1.2-0.6,1.8-1.5,1.8c-0.9,0-1.5-0.6-1.5-1.8C274.4,35.6,275,35,275.8,35
				 M275.8,38.2c0.6,0,1-0.4,1-1.5c0-1-0.4-1.5-1-1.5c-0.6,0-1,0.4-1,1.5C274.8,37.8,275.2,38.2,275.8,38.2"/>
		</g>
		<g>
			<path class="st4" d="M279.5,35c0.9,0,1.5,0.6,1.5,1.8c0,1.2-0.6,1.8-1.5,1.8c-0.9,0-1.5-0.6-1.5-1.8C278,35.6,278.7,35,279.5,35
				 M279.5,38.2c0.6,0,1-0.4,1-1.5c0-1-0.4-1.5-1-1.5c-0.6,0-1,0.4-1,1.5C278.5,37.8,278.9,38.2,279.5,38.2"/>
		</g>
		<g>
			<path class="st4" d="M281.6,35h1.7v0.2H283c-0.2,0-0.4,0-0.4,0.4v2.5h1c0.3,0,0.4,0,0.4-0.7v-0.1h0.4v1.1h-2.7v-0.3h0.2
				c0.2,0,0.4,0,0.4-0.4v-2.1c0-0.4-0.1-0.4-0.4-0.4h-0.2L281.6,35z"/>
		</g>
		<g>
			<path class="st4" d="M284.8,37.4h0.4c0,0.6,0.2,0.8,0.7,0.8c0.5,0,0.8-0.2,0.8-0.6c0-0.9-1.8-0.5-1.8-1.7c0-0.5,0.4-0.9,1.2-0.9
				c0.3,0,0.6,0,0.8,0.2V36h-0.4c0-0.4-0.1-0.7-0.6-0.7c-0.5,0-0.7,0.2-0.7,0.6c0,0.9,1.8,0.5,1.8,1.7c0,0.6-0.5,0.9-1.2,0.9
				c-0.4,0-0.7,0-1-0.2L284.8,37.4z"/>
		</g>
		<g>
			<path class="st5" d="M259.7,20v16.7c0,1.7-1.4,3.2-3,3.2h-5.3c-0.8,0-1.4,0.5-1.6,1.2c-0.2-0.7-0.8-1.2-1.6-1.2h-5.3
				c-1.7,0-3-1.5-3-3.3V20H259.7z"/>
		</g>
		<g>
			<path class="st1" d="M249.9,41.8l-0.5-1.8c-0.1-0.4-0.5-0.7-0.9-0.7h-4.9c-1.8,0-3.1-1.3-3.1-3.2V20.6h18.9v15.7
				c0,1.8-1.3,3.1-3,3.1h-5c-0.4,0-0.8,0.3-0.9,0.7L249.9,41.8z M241.5,21.7v14.5c0,1.3,0.8,2.1,2.1,2.1h4.9c0.5,0,1.1,0.2,1.4,0.6
				c0.4-0.4,0.9-0.6,1.4-0.6h5c1.1,0,1.9-0.8,1.9-2V21.7H241.5z"/>
		</g>
		<g>
			<path class="st1" d="M249.5,23.2c0-0.7-0.2-0.7-0.7-0.7h-0.6V22h3.3v0.4H251c-0.4,0-0.7,0-0.7,0.7v4.1c0,0.7,0.2,0.7,0.7,0.7h0.6
				v0.4h-3.3V28h0.6c0.4,0,0.7,0,0.7-0.7V23.2z"/>
		</g>
		<g>
			<rect x="241" y="28.7" class="st1" width="17.6" height="1.1"/>
		</g>
		<g>
			<rect x="241" y="26.7" class="st1" width="17.6" height="1.1"/>
		</g>
		<g>
			<rect x="241" y="24.7" class="st1" width="17.6" height="1.1"/>
		</g>
		<g>
			<rect x="241" y="22.6" class="st1" width="17.6" height="1.1"/>
		</g>
		<g>
			<path class="st1" d="M247.9,35.3h0.6c0,1,0.4,1.4,1.2,1.4c0.8,0,1.4-0.5,1.4-1.2c0-1.6-3.2-0.9-3.2-3c0-0.9,0.7-1.7,2.2-1.7
				c0.5,0,1.1,0.1,1.6,0.4v1.4H251c0-0.8-0.3-1.3-1.1-1.3c-0.8,0-1.3,0.4-1.3,1c0,1.7,3.3,0.8,3.3,3c0,1.1-0.9,1.8-2.2,1.8
				c-0.7,0-1.3-0.1-1.8-0.4L247.9,35.3z"/>
		</g>
	</g>
</g>
<g>
	<g>
		<path class="st6" d="M41.4,99.9l0-0.3c0.3,0,0.5,0,0.6-0.1c0.1,0,0.1-0.2,0.1-0.4v-0.1v-3.2l-0.7-0.2v-0.3c0.4-0.1,0.7-0.2,1-0.3
			c0.3-0.1,0.5-0.2,0.7-0.4h0.3v0.8c0.4-0.3,0.8-0.5,1-0.7c0.3-0.1,0.5-0.2,0.8-0.2c0.5,0,0.8,0.1,1.1,0.4c0.2,0.3,0.3,0.7,0.3,1.4
			v2.5c0,0.3,0,0.5,0.1,0.5c0.1,0.1,0.2,0.1,0.4,0.1h0.1v0.3c-0.3,0-0.5,0-0.7,0c-0.2,0-0.4,0-0.5,0c-0.1,0-0.3,0-0.5,0
			c-0.2,0-0.5,0-0.8,0v-0.3c0.3,0,0.4,0,0.5-0.1c0.1,0,0.1-0.2,0.1-0.4v-0.1v-2.3c0-0.4-0.1-0.7-0.2-0.9c-0.1-0.2-0.3-0.2-0.6-0.2
			c-0.2,0-0.3,0-0.5,0.1c-0.2,0.1-0.4,0.2-0.6,0.3V99c0,0.3,0,0.4,0.1,0.5c0.1,0.1,0.3,0.1,0.6,0.1v0.3c-0.1,0-0.3,0-0.5,0
			c-0.2,0-0.4,0-0.6,0c-0.3,0-0.7,0-0.9,0C41.8,99.8,41.6,99.8,41.4,99.9z"/>
		<path class="st6" d="M39.8,92.3c0-0.2,0.1-0.4,0.2-0.5c0.1-0.1,0.3-0.2,0.5-0.2c0.2,0,0.4,0.1,0.5,0.2c0.1,0.1,0.2,0.3,0.2,0.5
			c0,0.2-0.1,0.4-0.2,0.5c-0.1,0.1-0.3,0.2-0.5,0.2c-0.2,0-0.4-0.1-0.5-0.2C39.8,92.7,39.8,92.5,39.8,92.3z"/>
		<path class="st6" d="M39.2,99.9l0-0.3c0.3,0,0.5,0,0.5-0.1c0.1,0,0.1-0.2,0.1-0.5v-0.1v-3.2l-0.7-0.2v-0.3c0.4-0.1,0.7-0.2,1-0.3
			c0.3-0.1,0.5-0.2,0.7-0.4h0.3V99c0,0.3,0,0.4,0.1,0.5c0.1,0.1,0.2,0.1,0.5,0.1h0.1v0.3c-0.2,0-0.4,0-0.7,0c-0.2,0-0.4,0-0.7,0
			c-0.3,0-0.5,0-0.7,0C39.5,99.8,39.3,99.8,39.2,99.9z"/>
		<path class="st6" d="M28.6,99.8v-0.3c0.3,0,0.6,0,0.7-0.1c0.1-0.1,0.2-0.2,0.3-0.4c0-0.2,0.1-0.5,0.2-0.9c0.1-0.5,0.1-0.9,0.2-1.5
			l0.2-2.4c0-0.3,0-0.5,0-0.6c0-0.1,0-0.2,0-0.3c0-0.4-0.1-0.6-0.2-0.7c-0.1-0.1-0.4-0.2-0.9-0.3v-0.3c0.1,0,0.3,0,0.4,0
			c0.2,0,0.4,0,0.8,0c0.3,0,0.5,0,0.7,0c0.2,0,0.3,0,0.4,0l2.6,6l2.6-6c0.2,0,0.4,0,0.6,0c0.2,0,0.4,0,0.6,0c0.3,0,0.5,0,0.6,0
			c0.2,0,0.3,0,0.5,0v0.3c-0.4,0-0.7,0.1-0.8,0.2c-0.1,0.1-0.2,0.4-0.2,0.7c0,0,0,0,0,0c0,0.1,0,0.2,0,0.4l0.3,4.8
			c0,0.5,0.1,0.9,0.2,1c0.1,0.2,0.3,0.2,0.6,0.2h0.3l0,0.3c-0.1,0-0.3,0-0.5,0c-0.2,0-0.6,0-1,0c-0.6,0-1,0-1.2,0
			c-0.3,0-0.5,0-0.7,0l0-0.3h0.2c0.3,0,0.5,0,0.6-0.1c0.1-0.1,0.2-0.3,0.2-0.5c0-0.1,0-0.2,0-0.4c0,0,0,0,0,0l-0.3-4.7l-2.9,6.3
			l-0.3,0l-2.7-6.2L30.5,98c0,0.2,0,0.3,0,0.4c0,0.1,0,0.2,0,0.3c0,0.4,0.1,0.6,0.2,0.7c0.1,0.1,0.4,0.2,0.7,0.2h0.2v0.4
			c-0.3,0-0.6,0-1,0c-0.3,0-0.7,0-1.2,0c-0.2,0-0.4,0-0.5,0C28.8,99.8,28.7,99.8,28.6,99.8z"/>
		<path class="st6" d="M50.6,99.2c-0.3,0.3-0.6,0.5-0.8,0.6c-0.3,0.1-0.5,0.2-0.8,0.2c-0.6,0-1.1-0.2-1.5-0.7
			c-0.4-0.5-0.6-1-0.6-1.8c0-0.4,0.1-0.8,0.2-1.2c0.1-0.4,0.3-0.7,0.6-1c0.3-0.3,0.6-0.5,0.9-0.6c0.3-0.1,0.6-0.2,1-0.2
			c0.1,0,0.3,0,0.4,0c0.2,0,0.3,0.1,0.5,0.1v-2.3l-0.6-0.2v-0.3c0.4-0.1,0.7-0.2,1-0.3c0.3-0.1,0.5-0.2,0.7-0.4h0.3v8l0.6-0.1v0.3
			c-0.3,0.1-0.6,0.1-0.8,0.2c-0.3,0.1-0.6,0.2-0.8,0.2l-0.2,0V99.2L50.6,99.2z M50.6,95.6c-0.2-0.2-0.3-0.3-0.5-0.4
			c-0.2-0.1-0.4-0.1-0.6-0.1c-0.4,0-0.7,0.2-1,0.5c-0.3,0.3-0.4,0.8-0.4,1.3c0,0.6,0.2,1.1,0.5,1.6c0.3,0.4,0.7,0.6,1.1,0.6
			c0.1,0,0.3,0,0.4-0.1c0.2-0.1,0.3-0.1,0.5-0.3V95.6z"/>
		<path class="st6" d="M57.7,98.3c-0.5,0.6-1,1.1-1.4,1.3c-0.4,0.3-0.9,0.4-1.4,0.4c-0.7,0-1.2-0.2-1.6-0.6c-0.4-0.4-0.6-1-0.6-1.6
			c0-0.5,0.1-1,0.4-1.4c0.3-0.4,0.7-0.8,1.3-1.2c-0.3-0.3-0.5-0.5-0.6-0.7c-0.1-0.2-0.2-0.5-0.2-0.8c0-0.5,0.2-0.9,0.5-1.2
			c0.4-0.3,0.8-0.5,1.4-0.5c0.5,0,0.8,0.1,1.1,0.3c0.3,0.2,0.4,0.5,0.4,0.9c0,0.3-0.1,0.6-0.3,0.8c-0.2,0.2-0.5,0.5-1,0.7
			c0.5,0.3,1,0.6,1.4,1c0.4,0.4,0.8,0.8,1.2,1.3c0.4-0.5,0.7-1,0.9-1.4c0.2-0.4,0.3-0.7,0.3-0.9c0-0.1-0.1-0.2-0.2-0.3
			c-0.1-0.1-0.3-0.1-0.5-0.1c0,0,0,0,0,0c0,0,0,0,0,0v-0.3c0.2,0,0.4,0,0.6,0c0.2,0,0.5,0,0.9,0c0.3,0,0.9,0,1.5,0h0.1v0.3h-0.2
			c-0.3,0-0.6,0-0.8,0.2c-0.2,0.1-0.5,0.3-0.7,0.5c-0.2,0.2-0.5,0.6-0.9,1.2c-0.4,0.6-0.7,1-0.8,1.2c0.4,0.7,0.8,1.2,1.2,1.5
			c0.3,0.3,0.7,0.4,1,0.4c0.2,0,0.5-0.1,0.7-0.2c0.2-0.1,0.4-0.3,0.6-0.5l0.2,0.2c-0.3,0.5-0.7,0.8-1,1c-0.4,0.2-0.7,0.3-1.1,0.3
			c-0.4,0-0.8-0.1-1.2-0.4C58.4,99.4,58.1,98.9,57.7,98.3L57.7,98.3z M55.4,94.5c0.2-0.2,0.4-0.4,0.5-0.6c0.1-0.2,0.1-0.4,0.1-0.6
			c0-0.3-0.1-0.6-0.2-0.7c-0.2-0.2-0.4-0.3-0.6-0.3c-0.2,0-0.4,0.1-0.6,0.2c-0.2,0.2-0.2,0.4-0.2,0.6c0,0.3,0.1,0.5,0.3,0.7
			C54.8,94.1,55.1,94.3,55.4,94.5L55.4,94.5z M57.5,98c-0.5-0.7-1-1.2-1.5-1.6c-0.5-0.4-0.9-0.8-1.4-1c-0.3,0.2-0.5,0.4-0.7,0.7
			c-0.2,0.3-0.3,0.6-0.3,1c0,0.2,0,0.4,0.1,0.5c0.1,0.2,0.2,0.4,0.3,0.5c0.2,0.3,0.4,0.5,0.7,0.6c0.3,0.2,0.6,0.2,0.9,0.2
			c0.4,0,0.7-0.1,1-0.2C56.9,98.6,57.2,98.3,57.5,98z"/>
	</g>
	<g>
		<path class="st6" d="M58.8,106.6l-0.2-1.3h0.2c0.1,0.4,0.3,0.7,0.5,1c0.2,0.2,0.5,0.3,0.8,0.3c0.4,0,0.6-0.1,0.9-0.3
			c0.2-0.2,0.3-0.5,0.3-0.8c0-0.4-0.4-0.9-1.1-1.3c-0.1-0.1-0.2-0.1-0.2-0.1c-0.5-0.3-0.8-0.6-1-0.8c-0.2-0.3-0.3-0.6-0.3-0.9
			c0-0.5,0.2-0.9,0.5-1.3c0.3-0.3,0.8-0.5,1.4-0.5c0.1,0,0.3,0,0.5,0c0.2,0,0.4,0.1,0.6,0.1l0.1,1.1h-0.2c0-0.3-0.2-0.5-0.4-0.7
			c-0.2-0.2-0.4-0.3-0.7-0.3c-0.3,0-0.5,0.1-0.7,0.3c-0.2,0.2-0.3,0.4-0.3,0.7c0,0.3,0.1,0.6,0.2,0.8c0.2,0.2,0.5,0.4,0.9,0.7
			c0,0,0.1,0.1,0.2,0.1c0.4,0.2,0.7,0.4,0.8,0.6c0.2,0.2,0.3,0.3,0.3,0.5c0.1,0.2,0.1,0.4,0.1,0.6c0,0.5-0.2,1-0.6,1.3
			c-0.4,0.3-0.9,0.5-1.5,0.5c-0.2,0-0.5,0-0.7-0.1C59.2,106.8,59,106.7,58.8,106.6z"/>
		<path class="st6" d="M55.2,106.6l-0.2-1.3h0.2c0.1,0.4,0.3,0.7,0.5,1c0.2,0.2,0.5,0.3,0.8,0.3c0.4,0,0.6-0.1,0.9-0.3
			c0.2-0.2,0.3-0.5,0.3-0.8c0-0.4-0.4-0.9-1.1-1.3c-0.1-0.1-0.2-0.1-0.2-0.1c-0.5-0.3-0.8-0.6-1-0.8c-0.2-0.3-0.3-0.6-0.3-0.9
			c0-0.5,0.2-0.9,0.5-1.3c0.3-0.3,0.8-0.5,1.4-0.5c0.1,0,0.3,0,0.5,0c0.2,0,0.4,0.1,0.6,0.1l0.1,1.1H58c0-0.3-0.2-0.5-0.4-0.7
			c-0.2-0.2-0.4-0.3-0.7-0.3c-0.3,0-0.5,0.1-0.7,0.3s-0.3,0.4-0.3,0.7c0,0.3,0.1,0.6,0.2,0.8c0.2,0.2,0.5,0.4,0.9,0.7
			c0,0,0.1,0.1,0.2,0.1c0.4,0.2,0.7,0.4,0.8,0.6c0.2,0.2,0.3,0.3,0.3,0.5c0.1,0.2,0.1,0.4,0.1,0.6c0,0.5-0.2,1-0.6,1.3
			c-0.4,0.3-0.9,0.5-1.5,0.5c-0.2,0-0.5,0-0.7-0.1C55.6,106.8,55.3,106.7,55.2,106.6z"/>
		<path class="st6" d="M50.3,106.8v-0.2c0.3,0,0.5,0,0.6-0.1c0.1-0.1,0.2-0.3,0.2-0.6v-4.4c0-0.2,0-0.4-0.1-0.5
			c-0.1-0.1-0.3-0.1-0.6-0.1v-0.2c0.1,0,0.3,0,0.5,0c0.5,0,0.9,0,1.2,0c0.5,0,1,0,1.5,0c0.6,0,0.9,0,1,0v1.4l-0.2,0
			c0-0.4-0.1-0.7-0.4-0.8c-0.2-0.2-0.6-0.2-1.2-0.2h-0.9v2.5h1.1c0.3,0,0.5-0.1,0.6-0.2c0.1-0.1,0.2-0.3,0.2-0.6l0.2,0
			c0,0.2,0,0.3,0,0.5c0,0.1,0,0.3,0,0.4c0,0.2,0,0.6,0,1.1l0,0.1h-0.2v-0.1c0-0.3-0.1-0.5-0.2-0.6c-0.1-0.1-0.4-0.2-0.9-0.2h-0.8
			v1.9c0,0.4,0.1,0.6,0.2,0.7c0.1,0.1,0.5,0.2,1,0.2c0.6,0,1-0.1,1.2-0.2c0.2-0.2,0.4-0.4,0.6-0.9l0.2,0.1c-0.1,0.2-0.1,0.4-0.2,0.6
			c-0.1,0.2-0.1,0.5-0.2,0.7c-0.7,0-1.3,0-1.9,0c-0.6,0-1.1,0-1.4,0c-0.1,0-0.3,0-0.5,0C50.9,106.8,50.6,106.8,50.3,106.8z"/>
		<path class="st6" d="M50.3,105.1l-0.2,1.3c-0.3,0.2-0.7,0.3-1,0.4c-0.3,0.1-0.7,0.1-1,0.1c-0.5,0-0.9-0.1-1.3-0.2
			c-0.4-0.1-0.7-0.4-1-0.6c-0.3-0.3-0.5-0.6-0.7-1c-0.2-0.4-0.3-0.8-0.3-1.3c0-0.5,0.1-0.9,0.3-1.3c0.2-0.4,0.4-0.8,0.8-1.1
			c0.3-0.3,0.7-0.5,1-0.6c0.4-0.1,0.8-0.2,1.3-0.2c0.3,0,0.7,0,1,0.1c0.3,0.1,0.7,0.2,1,0.3c0,0.2,0,0.4,0.1,0.6c0,0.2,0,0.4,0,0.7
			h-0.2c-0.1-0.5-0.3-0.8-0.6-1.1c-0.3-0.2-0.7-0.3-1.2-0.3c-0.3,0-0.6,0-0.8,0.1c-0.3,0.1-0.5,0.2-0.7,0.4c-0.3,0.3-0.6,0.6-0.7,1
			c-0.2,0.4-0.3,0.8-0.3,1.2c0,0.3,0,0.6,0.1,0.9c0.1,0.3,0.2,0.5,0.3,0.8c0.2,0.5,0.5,0.8,0.9,1.1c0.4,0.2,0.8,0.4,1.2,0.4
			c0.5,0,0.9-0.1,1.2-0.4c0.3-0.3,0.5-0.6,0.6-1.1L50.3,105.1z"/>
		<path class="st6" d="M28.7,106.8v-0.2c0.3,0,0.5,0,0.6-0.1c0.1-0.1,0.1-0.3,0.1-0.6v-4.4c0-0.2,0-0.4-0.1-0.5
			c-0.1-0.1-0.3-0.1-0.6-0.1v-0.2c0.2,0,0.4,0,0.5,0c0.2,0,0.3,0,0.4,0c0.1,0,0.3,0,0.6,0c0.3,0,0.4,0,0.6,0c0.7,0,1.3,0.2,1.6,0.5
			c0.4,0.3,0.6,0.7,0.6,1.2c0,0.5-0.2,1-0.6,1.3c-0.4,0.3-0.9,0.5-1.5,0.5c0,0-0.1,0-0.1,0c0,0-0.1,0-0.2,0l0-0.3c0,0,0,0,0.1,0
			c0,0,0.1,0,0.1,0c0.4,0,0.7-0.1,0.9-0.4c0.2-0.2,0.3-0.6,0.3-1.1c0-0.5-0.1-0.9-0.4-1.1c-0.3-0.3-0.6-0.4-1.1-0.4
			c-0.1,0-0.1,0-0.2,0c0,0-0.1,0-0.1,0l0,4.6c0,0.5,0,0.8,0.1,0.9c0.1,0.1,0.3,0.2,0.6,0.2h0l0,0.2c-0.2,0-0.3,0-0.5,0
			c-0.2,0-0.4,0-0.6,0c-0.2,0-0.4,0-0.7,0C29.1,106.8,28.9,106.8,28.7,106.8z"/>
		<path class="st6" d="M41.5,106.9c-0.4,0-0.8-0.1-1.2-0.2c-0.4-0.1-0.7-0.4-1-0.6c-0.3-0.3-0.6-0.7-0.7-1.1
			c-0.2-0.4-0.3-0.8-0.3-1.3c0-0.4,0.1-0.8,0.2-1.2c0.2-0.4,0.4-0.7,0.7-1c0.3-0.3,0.6-0.5,1-0.7c0.4-0.2,0.8-0.2,1.2-0.2
			c0.4,0,0.8,0.1,1.2,0.2c0.4,0.1,0.7,0.4,1,0.7c0.3,0.3,0.6,0.7,0.7,1.1c0.2,0.4,0.3,0.8,0.3,1.3c0,0.3-0.1,0.7-0.2,1
			c-0.1,0.3-0.3,0.6-0.5,0.9c-0.3,0.4-0.7,0.7-1.1,1C42.5,106.8,42,106.9,41.5,106.9L41.5,106.9z M39.3,103.5c0,0.4,0.1,0.8,0.2,1.1
			c0.1,0.4,0.3,0.7,0.5,1c0.2,0.3,0.5,0.6,0.8,0.7c0.3,0.2,0.6,0.2,0.9,0.2c0.6,0,1.1-0.2,1.5-0.7c0.4-0.5,0.6-1.1,0.6-1.9
			c0-0.3,0-0.6-0.1-1c-0.1-0.3-0.2-0.6-0.3-0.9c-0.2-0.4-0.5-0.7-0.8-1c-0.3-0.2-0.7-0.3-1.1-0.3c-0.6,0-1.1,0.3-1.5,0.8
			C39.5,102.1,39.3,102.7,39.3,103.5z"/>
		<path class="st6" d="M32.8,106.8v-0.2c0.3,0,0.5,0,0.6-0.1c0.1-0.1,0.1-0.3,0.1-0.6v-4.4c0-0.2,0-0.4-0.1-0.5
			c-0.1-0.1-0.3-0.1-0.6-0.1v-0.2c0,0,0,0,0.1,0c0.3,0,0.5,0,0.6,0c0.1,0,0.4,0,0.6,0c0.3,0,0.5,0,0.6,0c0.8,0,1.5,0.1,1.9,0.4
			c0.4,0.3,0.6,0.6,0.6,1.2c0,0.3-0.1,0.7-0.3,0.9c-0.2,0.3-0.5,0.5-0.9,0.6c0.7,1.2,1.3,1.9,1.6,2.3c0.3,0.4,0.7,0.6,0.9,0.6
			c0,0,0,0,0,0c0,0,0,0,0,0c0,0,0,0,0,0v0.2c-0.1,0-0.2,0-0.3,0c-0.1,0-0.2,0-0.4,0c-0.2,0-0.3,0-0.5,0c-0.1,0-0.2,0-0.3,0
			c-0.2-0.2-0.5-0.6-0.8-1c-0.3-0.5-0.7-1.1-1.2-1.9H35c-0.1,0-0.2,0-0.3,0c-0.1,0-0.2,0-0.3,0v1.7c0,0.5,0,0.8,0.1,0.9
			c0.1,0.1,0.3,0.2,0.6,0.2h0h0l0,0.2c-0.2,0-0.3,0-0.5,0c-0.2,0-0.4,0-0.6,0c-0.2,0-0.4,0-0.7,0C33.2,106.8,33,106.8,32.8,106.8
			L32.8,106.8z M34.4,103.5c0.1,0,0.1,0,0.2,0c0.1,0,0.1,0,0.2,0c0.5,0,0.9-0.1,1.2-0.4c0.3-0.2,0.4-0.6,0.4-1c0-0.4-0.1-0.8-0.4-1
			c-0.3-0.2-0.7-0.3-1.2-0.3c-0.1,0-0.1,0-0.2,0c-0.1,0-0.1,0-0.2,0V103.5z"/>
	</g>
	<g>
		<path class="st6" d="M61.9,89.7c-1.3-1.2-2.9-2.2-4.6-3.1c-0.1-0.1-0.2-0.1-0.3-0.2c-0.2,0.2-0.4,0.4-0.6,0.6
			c0.3,0.2,0.6,0.3,0.9,0.5c0,0,0,0,0,0c1.1,0.6,2.2,1.3,3.1,2l-13,0.1c-0.7-0.7-1.4-1.4-2.2-2c-4.3-3.3-8.6-3.2-8.6-3.2
			c0,0,0,0,0,0c-1.8,0.1-3.6,0.8-5.1,2.3c-0.6,0.6-1.2,1.3-1.7,2.1l-0.4,0.7l0.8,0l2.2,0h0.3l0.1-0.2c0.3-0.6,0.7-1.2,1.2-1.7
			c0.8-1,1.9-1.7,3.1-2.3c0.1,0,0.2,0,0.3,0c1.9,0.1,3.9,0.8,5.8,2c1.3,0.8,2.6,1.9,3.8,3.1l0.1,0.1l0.2,0l14.4-0.1l1.2,0L61.9,89.7
			z"/>
		<path class="st6" d="M46.8,83.8c0-0.2-0.1-0.3-0.1-0.5c-0.8-0.1-1.6-0.2-2.5-0.2c-2.5-0.1-4.9,0.3-7,1.1
			C40.5,83.4,43.6,83.3,46.8,83.8z"/>
	</g>
	<path class="st7" d="M57.5,82.6c0,2.8-2.3,5.1-5.1,5.1s-5.1-2.3-5.1-5.1c0-2.8,2.3-5.1,5.1-5.1S57.5,79.8,57.5,82.6z"/>
	<path class="st0" d="M52.4,78.4c-2.3,0-4.2,1.9-4.2,4.2c0,1.3,0.6,2.5,1.5,3.2l0-0.2l0,0c-0.9-0.7-1.4-1.8-1.4-3c0-2.2,1.8-4,4-4
		c2.2,0,4,1.8,4,4c0,1.2-0.5,2.2-1.3,3v0.2c0.9-0.8,1.5-1.9,1.5-3.2C56.6,80.3,54.7,78.4,52.4,78.4z"/>
	<g>
		<path class="st8" d="M51.8,85.3L51.8,85.3c0.2-0.2,0.3-0.3,0.4-0.3c0,0,0.1,0,0.1,0.1c0,0,0,0.1,0,0.1c0,0-0.1,0.1-0.2,0.2
			c0.2-0.1,0.3-0.2,0.4-0.3c0.1-0.1,0.2-0.1,0.3-0.1c0,0,0.1,0,0.1,0.1c0,0.1,0,0.1-0.1,0.2c0,0.1-0.1,0.1-0.2,0.2
			c-0.1,0.1-0.1,0.1-0.1,0.2c0,0,0,0,0,0c0,0,0,0,0,0c0,0,0.1,0,0.2-0.1c0.1,0,0.2-0.1,0.2-0.2c0.1-0.1,0.2-0.1,0.2-0.2v0
			c-0.1,0.1-0.2,0.1-0.2,0.2c-0.1,0.1-0.1,0.1-0.2,0.2c-0.1,0-0.1,0.1-0.2,0.1c0,0-0.1,0-0.1,0c0,0,0,0,0-0.1c0,0,0-0.1,0.1-0.2
			c0-0.1,0.1-0.1,0.2-0.2c0.1-0.1,0.1-0.1,0.2-0.2c0,0,0-0.1,0-0.1c-0.1,0-0.2,0-0.3,0.1c-0.1,0.1-0.2,0.2-0.3,0.3
			c-0.1,0.1-0.2,0.2-0.3,0.3h-0.1l0.3-0.3c0.2-0.2,0.3-0.3,0.3-0.3c0,0,0,0,0,0C52.2,85,52.1,85.1,51.8,85.3z M52.4,84.6L52.4,84.6
			c0-0.1,0.1-0.1,0.1-0.1c0.1,0,0.1,0,0.2,0c0.1,0,0.1,0,0.2,0c0.1,0,0.1,0,0.2,0c0.1,0,0.1,0,0.2-0.1h0c-0.1,0.1-0.1,0.1-0.2,0.1
			c0,0-0.1,0-0.2,0c0,0-0.1,0-0.2-0.1c-0.1,0-0.1,0-0.1,0C52.5,84.5,52.5,84.5,52.4,84.6C52.5,84.6,52.4,84.6,52.4,84.6z"/>
		<path class="st8" d="M54,85.2L54,85.2c-0.1,0.1-0.2,0.2-0.2,0.2c0,0,0,0,0,0c0,0,0,0,0,0c-0.2,0.2-0.4,0.3-0.5,0.3
			c0,0-0.1,0-0.1,0c0,0,0,0-0.1-0.1c0,0,0-0.1,0-0.1c0-0.1,0-0.2,0.1-0.3c0.1-0.1,0.2-0.1,0.3-0.2c0.1-0.1,0.2-0.1,0.3-0.1
			c0.1,0,0.1,0,0.1,0.1c0,0.1,0,0.1-0.1,0.2c0,0,0,0,0,0C53.8,85.4,53.9,85.3,54,85.2z M53.7,85c-0.1,0-0.2,0-0.2,0.1
			c-0.1,0.1-0.2,0.2-0.2,0.3c-0.1,0.1-0.1,0.2-0.1,0.2c0,0,0,0,0,0.1c0,0,0,0,0.1,0c0.1,0,0.1,0,0.2-0.1c0.1-0.1,0.2-0.1,0.3-0.2
			C53.7,85.3,53.8,85.2,53.7,85C53.8,85.1,53.8,85.1,53.7,85C53.7,85,53.7,85,53.7,85z"/>
		<path class="st8" d="M53.9,85.3l0.4-0.3c0,0,0.1-0.1,0.1-0.1c0,0,0,0,0.1,0c0,0,0,0,0,0c0,0,0,0,0,0c0,0,0,0.1-0.1,0.1
			c0,0.1,0.1,0.1,0.1,0.2c0,0,0,0.1,0,0.2c0,0,0,0.1,0,0.1c0,0,0.1,0,0.1,0c0,0,0.1-0.1,0.2-0.1v0c-0.1,0.1-0.1,0.1-0.1,0.1
			c0,0-0.1,0-0.2,0c0,0.1-0.1,0.1-0.1,0.2c-0.1,0-0.1,0.1-0.2,0.1c-0.1,0-0.1,0-0.2,0c0,0-0.1,0-0.1,0c0,0,0,0,0-0.1
			c0,0,0-0.1,0-0.1c0,0,0,0,0.1,0c0,0,0,0,0.1,0c0,0,0,0,0,0c0,0,0,0,0,0c0,0,0,0-0.1,0c0,0,0,0-0.1-0.1c0,0,0,0,0,0.1c0,0,0,0,0,0
			c0,0,0.1,0,0.1,0c0.1,0,0.1,0,0.2-0.1c0.1-0.1,0.1-0.1,0.2-0.2c0.1-0.1,0.1-0.2,0.1-0.3c0-0.1,0-0.1-0.1-0.2L53.9,85.3L53.9,85.3z
			"/>
		<path class="st8" d="M52.9,83.6c-0.1,0-0.2,0.1-0.3,0.1c-0.1,0.1-0.2,0.1-0.4,0.2c-0.1,0.1-0.3,0.2-0.4,0.4
			c-0.2,0.1-0.4,0.3-0.6,0.5c0-0.2-0.1-0.3-0.2-0.4c-0.1-0.1-0.2-0.1-0.3-0.1c-0.1,0-0.2,0-0.3,0.1c-0.1,0.1-0.1,0.2-0.1,0.3
			c0,0.1,0,0.2,0.1,0.3c0,0.1,0.1,0.2,0.2,0.3c-0.1,0.1-0.2,0.1-0.3,0.2c0,0,0,0,0,0l0,0c0,0,0,0,0,0c0.1-0.1,0.2-0.1,0.3-0.2
			c0.1,0.1,0.1,0.1,0.2,0.1c0.1,0,0.1,0.1,0.2,0.1l-0.1,0.1h0.2l0.1-0.1c0.1,0,0.2,0,0.4-0.1c0.1-0.1,0.2-0.2,0.3-0.3v0
			c-0.1,0.1-0.1,0.1-0.2,0.2c-0.1,0.1-0.2,0.1-0.2,0.1c-0.1,0-0.2,0.1-0.2,0.1c0.1-0.2,0.3-0.4,0.4-0.5c0.1-0.2,0.3-0.3,0.4-0.5
			c0.1-0.2,0.3-0.3,0.4-0.5C52.6,84,52.7,83.9,52.9,83.6L52.9,83.6L52.9,83.6z M50.4,85.1c0-0.1-0.1-0.2-0.1-0.3c0,0,0-0.1,0-0.1
			c0-0.1,0-0.1,0.1-0.2c0.1-0.1,0.1-0.1,0.2-0.1c0.1,0,0.2,0.1,0.3,0.2c0.1,0.1,0.1,0.2,0.2,0.4c-0.2,0.2-0.4,0.4-0.6,0.5
			C50.5,85.3,50.4,85.2,50.4,85.1z M51,85.6c-0.1,0-0.2,0-0.2-0.1c-0.1,0-0.1-0.1-0.2-0.1c0.1-0.1,0.2-0.2,0.3-0.2
			c0.1-0.1,0.2-0.2,0.2-0.2c0,0.1,0,0.2,0,0.3C51.1,85.4,51.1,85.5,51,85.6z M52.5,84c-0.2,0.1-0.3,0.3-0.3,0.3l0,0.1
			c-0.2,0.2-0.4,0.4-0.5,0.5c-0.1,0.1-0.2,0.2-0.2,0.3c0,0.1-0.1,0.1-0.2,0.2c-0.1,0.1-0.1,0.2-0.2,0.2c0-0.1,0.1-0.2,0.1-0.3
			c0-0.1,0-0.2,0-0.3c0.1-0.1,0.2-0.2,0.4-0.3c0.1-0.1,0.3-0.2,0.4-0.4c0.2-0.1,0.3-0.2,0.5-0.3c0.2-0.1,0.3-0.2,0.4-0.2
			C52.8,83.7,52.7,83.8,52.5,84z"/>
	</g>
	<path class="st0" d="M55.1,85.6c0,0-0.1,0.1-0.1,0.2c0,0.1,0,0.1,0.1,0.1S55.1,85.6,55.1,85.6L55.1,85.6z"/>
	<path class="st0" d="M49.8,85.6c0,0,0,0.2,0.5-0.1c0.5-0.2,0,0.2,0,0.2s-0.4,0.2-0.5,0.1C49.6,85.6,49.8,85.6,49.8,85.6z"/>
	<g>
		<path class="st0" d="M50.3,83.3v-0.2c0.6,0,0.6-0.1,0.6-0.5v-2c0-0.3-0.1-0.3-0.3-0.3l-0.2,0v-0.2c0.4,0,0.9-0.2,1.2-0.3v2.8
			c0,0.4,0,0.4,0.6,0.5v0.2H50.3z"/>
		<path class="st0" d="M54.7,79.9L54.7,79.9l-0.1,0.6h-1.3c0,0.2-0.1,0.6-0.2,0.8c0.3-0.1,0.6-0.2,0.7-0.2c0.7,0,1.1,0.4,1.1,0.9
			c0,0.3-0.2,0.7-0.5,0.9c-0.3,0.2-0.7,0.4-1,0.4c-0.2,0-0.4-0.1-0.6-0.2c-0.1-0.1-0.1-0.1-0.1-0.2c0-0.1,0.1-0.2,0.2-0.3
			c0.1,0,0.1,0,0.2,0c0.1,0.1,0.4,0.3,0.7,0.3c0.3,0,0.5-0.3,0.5-0.7c0-0.5-0.3-0.8-0.8-0.8c-0.2,0-0.4,0.1-0.6,0.1l0,0
			c0.1-0.5,0.2-1.2,0.3-1.7H54.7z"/>
	</g>
</g>
<g id="XMLID_336_">
	<g id="XMLID_405_">
		<polygon id="XMLID_518_" class="st0" points="273.2,100.4 267.8,99.8 273.2,99.3 278.7,99.8 		"/>
		<path id="XMLID_517_" class="st0" d="M278.9,83.8l-0.1,0.1c0.4,0.6,1.4,1.1,2.2,1.2l0.1-0.2l-1.2-0.6L278.9,83.8z"/>
		<path id="XMLID_516_" class="st0" d="M267.1,82.6L267.1,82.6l0-0.2c-1.7,0.2-2.8,0.1-3.7,0c-1.3-0.1-2.4-0.2-4.4,0.7l0,0.2
			c1.7-0.5,2.3-0.5,3.5-0.5l0.3,0C263.8,83.1,265.6,83.2,267.1,82.6z"/>
		<path id="XMLID_515_" class="st0" d="M282.6,80.1l-0.1-0.2l-0.7,0.1c-0.6,0.1-1.3,0.2-1.9,0.2l0,0.2c0,0,0,0,0,0
			C281,80.7,281.7,80.7,282.6,80.1z"/>
		<path id="XMLID_514_" class="st0" d="M286.8,82.8l-0.5-0.5c-0.5-1-1.9-2.3-2.6-2.8l-0.1,0.1l0.3,0.6c0,0,0.1,0.1,0.1,0.1
			c-0.3-0.2-0.7-0.4-1.1-0.9l-0.1-0.2l0,0.2c0,0.3,0.1,0.6,0.3,0.8c0.2,0.1,0.4,0.3,0.9,0.2l0.1,0c2.1,2.1,3.2,3.5,2.9,3.9l-0.3,0.3
			c-0.2,0.3-0.2,0.3-1,0l-0.1,0l0,0c0,0,0,0,0,0.1c0,0,0,0,0.1,0.1l0,0c0,0,0,0,0,0c0,0,0.1,0.1,0.1,0.2l0.1,0.1
			c0.1,0.2,0.4,0.3,0.7,0.3l0.4-0.2c0,0,0.5-0.8,0.5-0.8C287.6,83.5,287.2,83.1,286.8,82.8z"/>
		<path id="XMLID_509_" class="st0" d="M281.5,82.8L281.5,82.8L281.5,82.8l-0.2-0.2c0,0-0.2-0.3-0.2-0.3l-0.4-0.7
			c0,0-0.2-0.3-0.2-0.3c-0.5-0.6-1.2-1.4-1.6-1.6l-0.2-0.1v-7.7h-11v6.7c-1.1,0.3-2.5,0.9-2.9,1.8c-0.1,0.3-0.1,0.6,0,0.9l0,0l0,0
			c0.6,0.7,1.9,0.6,2.7,0.6v0c0,0,0,0,0,0c0,0,0,0,0-0.1c0,0,0,0,0,0c0,0,0,0,0,0c0,0,0,0,0,0c0,0,0-0.1,0-0.1
			c-1.2,0-2.1-0.4-2.2-0.9c0,0,0-0.1,0-0.1c0-0.5,0.6-1,1.6-1.5c0,0,0.5-0.2,0.6-0.2v8.1h5.1l0,0c0.3-1.5,1.9-2.6,3-3.2
			c1.1-0.5,2.1-0.6,2.8-0.3c0,0,0,0,0,0l0,0c0,0,0,0,0,0l-0.1,0.2c-1.4-0.4-4.4,1.3-5,3.3h5.1V80h-0.2c0,0,0,0,0,0
			c-0.5,0-1.1-0.3-1.4-0.9v0v0c0,0,0,0,0,0l-0.1-0.2c0,0,0.7,0.4,0.8,0.5c0.1-0.1,0.2-0.4,0.2-0.5c0,0,0,0,0,0
			c-0.2-0.5-0.6-0.6-1.4-0.4l-0.1,0l-0.3,0l0.2-0.2c0.2-0.2,1.4-0.4,1.9,0c0.2,0.1,0.3,0.3,0.3,0.6c0,0.2-0.1,0.5-0.3,0.8
			c0.1,0,0.4,0.2,0.5,0.3v-0.2l0.1,0.1l0.1,0.1c0.8,0.7,2.5,3.3,3.2,4.4c0.1,0.2,0.2,0.3,0.2,0.5c0,0.1,0,0.2-0.1,0.3
			c0,0-0.1,0.1-0.1,0.1c-0.3,0.2-0.5,0.3-0.7,0.1l-0.2-0.1l0,0.2c0,0,0,0,0,0.1h0h0c0.1,0.1,0.2,0.3,0.2,0.3h0l0.1,0
			c0.2,0,0.4,0.1,0.6-0.2c0.1,0,0.4-0.2,0.6-0.4c0.1-0.2,0.1-0.3,0.1-0.5l-0.2-0.5l-0.4-0.6l-0.2-0.3c0,0-0.1-0.1-0.2-0.2
			c0.8-0.5,1.8,0.1,2.1,0.4c0,0,1.2,0.7,1.2,0.7l0.1-0.2C284.1,83,282.8,82.5,281.5,82.8z M270.3,81.8c-0.1,0.8-1.6,1.4-2.5,1.3
			l0-0.2c1-0.3,1.7-0.7,1.7-1.1c0-0.4-0.5-0.9-1.5-1.3l0-0.2C270,80.8,270.4,81.4,270.3,81.8z M275.4,80.9c-0.9,0.3-1.6,0.6-2.8,0
			l-0.2-0.2c-1.7-1.5-2.6-2.3-4.6-1.6l0.1-0.3l0-0.1c1-0.2,2.2-0.3,2.8,0.1c2.4,2.2,2.8,2.1,4.1,1.8l2-0.3l0,0l0,0.2L275.4,80.9z
			 M277,79.9L277,79.9l0,0.1c0,0-0.1,0-0.2,0c-0.9-0.5-1.8-1-3.4-0.3l0.4,0.3l-0.3,0c0,0,0,0,0,0v0l0,0c-0.6,0-1.1-0.4-1.3-1
			c0,0,0,0,0,0v0c0,0,0,0,0,0l-0.1-0.3c0,0,0.6,0.4,0.6,0.5c0.2-0.1,0.3-0.3,0.3-0.5c0-0.1,0-0.1,0-0.2c-0.1-0.3-0.6-0.4-1.4-0.2
			l0-0.1c0,0-0.1,0,0,0l0-0.1c0.8-0.3,1.6-0.2,1.9,0.2c0.2,0.2,0.3,0.6-0.2,1.3l0.1,0.1c0,0,0,0,0,0C274.5,78.6,275.8,78.7,277,79.9
			z"/>
		<path id="XMLID_506_" class="st0" d="M266.3,93.4c0.1,0.1,0.1,0.1,0.2,0.2l0.6,0.8h0.6V94c0,0-0.1,0-0.1,0c0,0-0.1-0.1-0.1-0.1
			c0,0-0.3-0.4-0.3-0.4c-0.1-0.1-0.1-0.2-0.2-0.2c0-0.1-0.1-0.1-0.1-0.2c0.1,0,0.3-0.1,0.4-0.2c0.1-0.1,0.2-0.3,0.2-0.5
			c0-0.1,0-0.3-0.1-0.3c-0.1-0.1-0.1-0.1-0.3-0.2c-0.1,0-0.2,0-0.5,0h-1.2v0.3h0.2c0,0,0.1,0,0.1,0c0,0,0,0,0,0c0,0,0,0.3,0,0.5v1
			c0,0.1,0,0.2,0,0.3c0,0,0,0-0.1,0h-0.2v0.3h1.1V94h-0.2c-0.1,0-0.1,0-0.1,0v-0.8C266.2,93.3,266.2,93.3,266.3,93.4z M266.1,92.3
			c0.1,0,0.2,0,0.2,0c0.1,0,0.3,0,0.3,0.1c0.1,0.1,0.1,0.1,0.1,0.2c0,0.2,0,0.2-0.1,0.3c-0.2,0.1-0.3,0.1-0.4,0.1h-0.2V92.3z"/>
		<path id="XMLID_505_" class="st0" d="M281.2,96.1c-0.1,0.2-0.2,0.4-0.3,0.6l0,0c0,0-0.2,0.4-0.3,0.6c-0.1-0.2-0.4-0.7-0.4-0.7
			c-0.1-0.2-0.1-0.3-0.2-0.5c-0.1-0.2-0.1-0.3-0.2-0.4l0-0.1h-0.8v0.3h0.2c0,0,0.1,0,0.1,0c0,0,0,0,0,0c0,0.1,0,0.2,0,0.4v0.9
			c0,0.2,0,0.3,0,0.4c0,0,0,0,0,0.1c0,0,0,0-0.1,0h-0.2V98h1v-0.3h-0.2c-0.1,0-0.1,0-0.1,0c0-0.1,0-0.2,0-0.4c0,0,0-0.4,0-0.8
			c0.2,0.3,0.4,0.8,0.4,0.8l0,0c0.1,0.3,0.2,0.5,0.3,0.6l0.1,0.1h0.1h0.1l0-0.1c0.1-0.3,0.3-0.6,0.4-0.9v0c0,0,0.2-0.3,0.3-0.6
			c0,0.4,0,0.9,0,0.9v0.1c0,0,0,0.1,0,0.1c0,0.1,0,0.1,0,0.1c0,0-0.1,0-0.1,0h-0.2V98h1.1v-0.3h-0.2c-0.1,0-0.1,0-0.1,0
			c0,0,0-0.1,0-0.2c0,0,0-0.1,0-0.1v-1.2c0-0.1,0-0.2,0-0.3c0,0,0,0,0.1,0h0.2v-0.3h-0.8L281.2,96.1z"/>
		<path id="XMLID_504_" class="st0" d="M265.7,97.4c0,0.1,0,0.2-0.1,0.3c0,0,0,0-0.1,0h0c0,0-0.6,0-0.7,0V97c0.1,0,0.2,0,0.2,0
			c0.2,0,0.3,0,0.4,0c0,0,0,0,0,0v0.3h0.3v-0.9h-0.3v0.3h-0.5V96c0.1,0,0.3,0,0.3,0c0.1,0,0.3,0,0.4,0c0,0.1,0,0.3,0,0.3h0.3v-0.1
			c0-0.2,0-0.3,0.1-0.4l0-0.1h-2V96h0.2c0,0,0.1,0,0.1,0v0.1v0.2v1c0,0.1,0,0.1,0,0.2v0.1c0,0,0,0.1,0,0.1c0,0,0,0,0,0
			c-0.1,0-0.3,0-0.3,0V98h0.1c0.1,0,0.3,0,0.4,0c0.1,0,0.1,0,0.2,0c0,0,0.1,0,0.2,0c0.1,0,0.3,0,0.4,0h0.3l0.5,0l0-0.1v-0.1
			c0-0.1,0-0.3,0-0.4l0-0.1L265.7,97.4L265.7,97.4z"/>
		<path id="XMLID_503_" class="st0" d="M267.7,92.5c-0.1,0.1-0.2,0.4-0.2,0.6c0,0,0,0,0,0c0,0.3,0.1,0.4,0.2,0.6
			c0.1,0.2,0.3,0.3,0.5,0.4c0.2,0.1,0.4,0.1,0.7,0.1c0.1,0,0.3,0,0.5,0c0.2,0,0.3-0.1,0.5-0.1l0.1,0c0,0,0-0.5,0-0.6
			c0,0,0.1-0.1,0.1-0.1v-0.2h-1v0.3h0.3c0,0,0.1,0,0.1,0c0,0,0,0.1,0,0.2c0,0.1,0,0.1,0,0.2c0,0,0,0,0,0.1c-0.2,0.1-0.3,0.1-0.5,0.1
			c-0.3,0-0.5-0.1-0.7-0.3c-0.1-0.2-0.2-0.4-0.2-0.6c0-0.3,0.1-0.5,0.2-0.6c0.1-0.1,0.4-0.2,0.7-0.2c0.2,0,0.3,0,0.5,0.1
			c0.1,0,0.1,0,0.2,0.1c0,0.1,0,0.3,0,0.3h0.3v-0.1c0-0.2,0-0.3,0.1-0.4l0-0.1l-0.3-0.1c-0.1,0-0.1,0-0.2-0.1c-0.1,0-0.1,0-0.2-0.1
			c-0.2,0-0.2,0-0.3,0h-0.1c-0.4,0-0.8,0.1-0.8,0.2C268,92.2,267.9,92.3,267.7,92.5z"/>
		<path id="XMLID_500_" class="st0" d="M264.1,96.5c0-0.5-0.5-0.8-0.8-0.9c-0.3,0-1.7,0-1.7,0v0.2l0.1,0.1l0.1,0c0,0,0,1.7,0,1.7
			c-0.2,0.1-0.2,0.1-0.2,0.1V98c0,0,0.8,0,1.1,0c0.2,0,0.6-0.1,0.9-0.4C264,97.4,264.1,97,264.1,96.5z M263.2,97.6
			c-0.2,0.1-0.6,0.1-0.8,0.1c0-0.4,0-1.7,0-1.7s0.6,0,0.8,0.1c0.3,0.2,0.3,0.3,0.4,0.7C263.6,97.2,263.4,97.5,263.2,97.6z"/>
		<path id="XMLID_497_" class="st0" d="M284,95.7c-0.3,0-0.7,0-1.1,0.2c-0.3,0.2-0.6,0.9-0.6,1.2c0,0.3,0.1,0.6,0.3,0.8
			c0.4,0.3,1.2,0.2,1.6-0.1c0.3-0.2,0.6-0.6,0.7-1.2C284.9,95.9,284.4,95.7,284,95.7z M284.2,97.3c-0.2,0.3-0.4,0.5-0.9,0.4
			c-0.5-0.1-0.4-0.5-0.4-0.6c0-0.2,0.1-0.8,0.4-1.1c0.3-0.2,0.8-0.1,0.9,0C284.4,96.3,284.4,97,284.2,97.3z"/>
		<path id="XMLID_494_" class="st0" d="M283.9,94.1c0.3-0.2,0.7-0.6,0.7-1.2c0-0.7-0.5-0.9-0.9-0.9c-0.3,0-0.7,0-1.1,0.2
			c-0.3,0.2-0.6,0.9-0.6,1.2c0,0.3,0.1,0.6,0.3,0.8C282.8,94.4,283.6,94.3,283.9,94.1z M282.6,93.4c0-0.2,0.1-0.8,0.4-1
			c0.3-0.2,0.8-0.1,0.9,0c0.1,0.2,0.1,0.9,0,1.2c-0.2,0.3-0.4,0.5-0.9,0.4C282.5,93.9,282.6,93.5,282.6,93.4z"/>
		<path id="XMLID_491_" class="st0" d="M263.9,94.3c0.2,0,0.4,0,0.6,0c0.2,0,0.4,0,0.6,0c0-0.1,0-0.3,0-0.3h-0.3l-1.1-2.5h-0.3
			l-0.1,0.2c0,0-1,2.3-1.1,2.4c-0.1,0-0.2,0-0.2,0s0,0.2-0.1,0.3c0.2,0,0.5,0,0.6,0c0.2,0,0.4,0.1,0.6,0c0-0.2,0-0.3,0-0.3l-0.3,0
			l0.2-0.6l1,0l0.2,0.6l-0.2,0C263.9,94,263.9,94.2,263.9,94.3z M263.1,93l0.3-0.7l0.3,0.7H263.1z"/>
		<path id="XMLID_490_" class="st0" d="M274.5,97.7c-0.1,0-0.3,0-0.3,0V98h0.1c0.1,0,0.3,0,0.4,0c0.1,0,0.1,0,0.2,0c0,0,0.1,0,0.2,0
			c0.1,0,0.3,0,0.4,0h0.3l0.5,0v-0.2c0-0.1,0-0.3,0-0.4l0-0.1h-0.3v0.1c0,0.1,0,0.2-0.1,0.3c0,0,0,0-0.1,0h0c0,0-0.6,0-0.7,0V97
			c0.1,0,0.2,0,0.2,0c0.2,0,0.3,0,0.4,0h0v0.3h0.3v-0.9h-0.3v0.3h-0.5V96c0.1,0,0.4,0,0.4,0c0.1,0,0.3,0,0.4,0c0,0.1,0,0.3,0,0.3
			h0.3v-0.1c0-0.2,0-0.3,0.1-0.5l0-0.1h-2V96h0.2c0,0,0.1,0,0.1,0c0,0,0,0.1,0,0.1c0,0,0,0.2,0,0.2v1c0,0.1,0,0.1,0,0.2
			c0,0,0,0.1,0,0.1C274.6,97.6,274.6,97.7,274.5,97.7C274.5,97.7,274.5,97.7,274.5,97.7z"/>
		<path id="XMLID_489_" class="st0" d="M276.6,94.3c0,0,0.1,0,0.2,0c0.1,0,0.2,0,0.3,0h0.1V94h-0.3c0,0-0.1,0-0.1,0
			c0-0.1,0-0.2,0-0.3c0,0,0-0.2,0-0.2v-0.9c0-0.1,0-0.3,0-0.4c0.1,0,0.4,0,0.4,0c0,0,0,0,0,0c0,0,0,0,0,0v0.3h0.3v-0.1
			c0-0.1,0-0.3,0-0.5l0-0.1h-2.1V92c0,0.1,0,0.1,0,0.2c0,0.1,0,0.2,0,0.3l0,0.1h0.3l0-0.3c0,0,0,0,0,0h0.5c0,0.1,0,0.2,0,0.4v0.9
			l0,0.1v0.1c0,0.1,0,0.2,0,0.3c0,0,0,0,0,0c0,0,0,0-0.1,0H276v0.3h0.1c0.1,0,0.2,0,0.3,0C276.4,94.3,276.5,94.3,276.6,94.3z"/>
		<path id="XMLID_486_" class="st0" d="M268.3,96.7L268.3,96.7c0.1,0,0.4,0.1,0.5,0.1c0.2,0,0.4-0.1,0.6-0.2
			c0.1-0.1,0.3-0.2,0.4-0.3c0.1-0.1,0.2-0.3,0.2-0.4c0-0.3-0.1-0.4-0.3-0.5v0l0,0c-0.2-0.1-0.6-0.2-0.8-0.2h-1.5v0.3h0.2
			c0.1,0,0.1,0,0.2,0c0,0,0,0.1,0,0.2v0l0,0.4v1c0,0.3,0,0.5,0,0.5l0,0l0,0c0,0-0.1,0-0.1,0h-0.3V98h1.4v-0.3h-0.2
			c-0.1,0-0.1,0-0.2,0L268.3,96.7L268.3,96.7z M268.2,95.5c0.1,0,0.3,0,0.3,0c0.2,0,0.4,0,0.5,0.1c0.1,0.1,0.2,0.2,0.2,0.3
			c0,0.1-0.1,0.3-0.2,0.4c-0.1,0.1-0.2,0.1-0.3,0.1c-0.1,0-0.3,0-0.4-0.1c0,0,0,0-0.1,0V95.5z"/>
		<path id="XMLID_483_" class="st0" d="M277.4,97.1c0.1,0.1,0.1,0.1,0.2,0.2l0.6,0.8h0.6v-0.3c0,0-0.1,0-0.1,0c0,0-0.1-0.1-0.1-0.1
			c0,0-0.3-0.4-0.3-0.4c-0.1-0.1-0.1-0.2-0.2-0.2c0,0-0.1-0.1-0.1-0.1c0.1,0,0.3-0.1,0.4-0.2c0.1-0.1,0.2-0.3,0.2-0.5
			c0-0.1,0-0.2-0.1-0.3c-0.1-0.1-0.1-0.1-0.3-0.2c-0.1,0-0.3,0-0.5,0h-1.2v0.3h0.2c0,0,0.1,0,0.1,0c0,0,0,0,0,0c0,0,0,0.3,0,0.5v1
			c0,0.1,0,0.2,0,0.3c0,0,0,0-0.1,0h-0.2V98h1.1v-0.3h-0.2c-0.1,0-0.1,0-0.1,0v-0.8C277.4,97,277.4,97,277.4,97.1z M277.3,96
			c0.1,0,0.2,0,0.2,0c0.1,0,0.3,0,0.3,0.1c0.1,0.1,0.1,0.1,0.1,0.2c0,0.2,0,0.2-0.1,0.3c-0.2,0.1-0.3,0.1-0.4,0.1h-0.2V96z"/>
		<path id="XMLID_480_" class="st0" d="M270.9,98c0.1,0,0.4,0,0.5,0c0.2,0,0.3,0,0.5,0c0-0.1,0-0.3,0-0.3h-0.2l-0.9-2.1h-0.2l0,0.1
			c0,0-0.8,1.8-0.9,1.9c-0.1,0-0.2,0-0.2,0s0,0.2,0,0.3c0.2,0,0.3,0,0.5,0c0.1,0,0.3,0,0.5,0c0-0.1,0-0.3,0-0.3l-0.3,0l0.2-0.4
			l0.8,0l0.2,0.4l-0.2,0C270.9,97.7,270.9,97.9,270.9,98z M270.2,97l0.3-0.6l0.2,0.6H270.2z"/>
		<path id="XMLID_479_" class="st0" d="M274.6,93.6c-0.1-0.1-0.1-0.1-0.2-0.2l-0.6-0.7c-0.1-0.1-0.2-0.3-0.4-0.4l-0.3-0.3h-0.7v0.3
			h0.2c0,0,0.1,0,0.1,0v0l0,0v1.2c0,0.2,0,0.4,0,0.5l0,0c0,0,0,0,0,0c0,0-0.3,0-0.3,0v0.3h0.1c0.2,0,0.2,0,0.3,0c0,0,0.1,0,0.1,0
			c0,0,0.1,0,0.1,0c0.1,0,0.2,0,0.2,0h0.1V94h-0.2c-0.1,0-0.1,0-0.1,0c0,0,0,0,0,0v-1.3c0.2,0.3,1,1.2,1,1.2l0,0
			c0.1,0.1,0.1,0.2,0.2,0.3c0.1,0.1,0.1,0.2,0.2,0.2l0,0h0.4l0-0.7v-0.7c0-0.3,0-0.5,0-0.6c0,0,0-0.1,0-0.1c0,0,0,0,0.1,0h0.2v-0.3
			h-1v0.3h0.3c0,0,0.1,0,0.1,0L274.6,93.6C274.7,93.6,274.7,93.6,274.6,93.6z"/>
		<path id="XMLID_478_" class="st0" d="M272.3,94.1c0-0.1,0-0.2,0-0.4l0-0.1H272v0.1c0,0.1,0,0.2-0.1,0.3c0,0,0,0-0.1,0h0
			c0,0-0.6,0-0.7,0v-0.7c0.1,0,0.2,0,0.2,0c0.2,0,0.3,0,0.4,0h0c0,0,0,0.1,0,0.1v0.2h0.3v-0.9h-0.3v0.2c0,0,0,0.1,0,0.1h-0.5v-0.6
			c0.1,0,0.3,0,0.3,0c0.1,0,0.3,0,0.4,0c0,0.1,0,0.3,0,0.3h0.3v-0.1c0-0.2,0-0.3,0.1-0.5l0-0.1h-2v0.3h0.2c0,0,0.1,0,0.1,0
			c0,0,0,0.1,0,0.1v0.2v1c0,0.1,0,0.1,0,0.2c0,0,0,0.1,0,0.1c0,0,0,0.1,0,0.1c0,0,0,0,0,0c-0.1,0-0.3,0-0.3,0v0.3h0.1
			c0.1,0,0.3,0,0.4,0c0.1,0,0.1,0,0.2,0c0,0,0.1,0,0.2,0c0.1,0,0.3,0,0.4,0h0.3l0.5,0V94.1z"/>
		<path id="XMLID_477_" class="st0" d="M277.8,92.2h0.2c0,0,0,0,0.1,0V94c0,0,0,0-0.1,0h-0.2v0.3h1.1V94h-0.2c0,0-0.1,0-0.1,0
			c0-0.1,0-1.8,0-1.8v0c0,0,0,0,0.1,0h0.2v-0.3h-1.1V92.2z"/>
		<path id="XMLID_476_" class="st0" d="M272.2,97.7L272.2,97.7l-0.1,0.3l0.4,0h0.2h0.8c0.2,0,0.3,0,0.4,0h0.1v-0.1
			c0-0.1,0-0.3,0-0.5l0-0.1h-0.3c0,0-0.1,0.3-0.1,0.4c-0.1,0-0.1,0-0.2,0l0,0c-0.2,0-0.6,0-0.7,0c0,0,0,0,0-0.1c0,0,0,0,0,0v0
			c0-0.7,0-1.4,0-1.6h0.3v-0.3h-1.2V96h0.2c0,0,0,0,0.1,0L272.2,97.7C272.2,97.7,272.2,97.7,272.2,97.7z"/>
		<path id="XMLID_475_" class="st0" d="M264.8,88.1c0.1,0,0.4,0,0.4,0v-0.4h-0.1c-0.1,0-0.2,0-0.4,0c-0.1,0-0.2,0-0.3,0
			c-0.1,0-0.2,0-0.3,0c-0.1,0-0.2,0-0.3,0h-0.1v0.4h0.2c0.1,0,0.1,0,0.2,0c0,0,0,0,0,0c0,0,0,0.7,0,0.8h-1.5v-0.8c0,0,0,0,0,0
			c0.1,0,0.4,0,0.4,0v-0.4H263c-0.1,0-0.2,0-0.3,0c-0.1,0-0.2,0-0.3,0c-0.1,0-0.2,0-0.3,0c-0.1,0-0.2,0-0.4,0h-0.1v0.4h0.2
			c0,0,0.1,0,0.2,0c0,0,0,0.2,0,0.5v1.2c0,0.3,0,0.5,0,0.5l0,0l0,0c0,0-0.1,0-0.1,0h-0.2v0.3h1.4v-0.3h-0.2c-0.1,0-0.1,0-0.1,0l0,0
			c0,0,0,0,0,0v-1c0.1,0,0.1,0,0.2,0c0.2,0,0.4,0,0.6,0c0.2,0,0.3,0,0.4,0c0.1,0,0.1,0,0.2,0v0.9c0,0,0,0,0,0.1c0,0-0.1,0-0.1,0
			h-0.2v0.3h1.4v-0.3h-0.3c0,0-0.1,0-0.1,0c0,0,0,0,0,0c0,0,0-0.3,0-0.6L264.8,88.1C264.8,88.1,264.8,88.1,264.8,88.1z"/>
		<path id="XMLID_474_" class="st0" d="M266.3,88.6C266.3,88.6,266.3,88.6,266.3,88.6l0.3,0v-0.3h-1.1v0.3h0.3c0,0,0,0,0.1,0v1.8
			c0,0,0,0-0.1,0h-0.2v0.3h1.1v-0.3h-0.2c0,0-0.1,0-0.1,0C266.3,90.3,266.3,88.6,266.3,88.6C266.3,88.6,266.3,88.6,266.3,88.6z"/>
		<path id="XMLID_473_" class="st0" d="M279.2,90.3C279.2,90.3,279.2,90.3,279.2,90.3C279.2,90.3,279.2,90.3,279.2,90.3l-0.3,0.1
			v0.3h1v-0.3h-0.2c-0.1,0-0.1,0-0.1,0c0-0.1,0-0.2,0-0.4c0,0,0-0.4,0-0.8c0.2,0.3,0.4,0.8,0.4,0.8c0.1,0.2,0.2,0.5,0.3,0.6l0.1,0.1
			l0.1,0h0.1l0-0.1c0.1-0.3,0.3-0.6,0.4-0.9c0,0,0.2-0.3,0.3-0.6c0,0.4,0,0.8,0,0.8v0.1c0,0,0,0.1,0,0.1c0,0.1,0,0.1,0,0.1
			c0,0-0.1,0-0.1,0H281v0.3h1.1v-0.3h-0.2c-0.1,0-0.1,0-0.1,0c0,0,0-0.1,0-0.2v-1.3c0-0.1,0-0.2,0-0.3c0,0,0.1,0,0.1,0h0.2v-0.3
			h-0.8l-0.2,0.4c-0.1,0.2-0.2,0.4-0.3,0.6l0,0c0,0-0.2,0.4-0.3,0.6c-0.1-0.2-0.4-0.6-0.4-0.6c-0.1-0.2-0.1-0.3-0.2-0.5
			c-0.1-0.2-0.1-0.3-0.2-0.4l0-0.1h-0.8v0.3h0.2c0,0,0.1,0,0.1,0c0,0,0,0,0,0c0,0.1,0,0.2,0,0.4v0.9C279.3,90,279.3,90.2,279.2,90.3
			z"/>
		<path id="XMLID_470_" class="st0" d="M278,88.3c-0.3,0-0.7,0-1.1,0.2c-0.3,0.2-0.6,0.9-0.6,1.2c0,0.3,0.1,0.6,0.3,0.8
			c0.4,0.3,1.2,0.2,1.6-0.1c0.3-0.2,0.6-0.6,0.6-1.2C278.9,88.5,278.4,88.3,278,88.3z M278.2,89.9c-0.2,0.3-0.4,0.5-0.9,0.4
			c-0.5-0.1-0.4-0.5-0.4-0.6c0-0.2,0.1-0.8,0.4-1.1c0.3-0.2,0.8-0.1,0.9,0C278.3,88.9,278.3,89.6,278.2,89.9z"/>
		<path id="XMLID_467_" class="st0" d="M274.2,90.4H274v0.3h1.1v-0.3h-0.2c0,0-0.1,0-0.1,0v-0.8c0,0,0.1,0.1,0.1,0.1
			c0.1,0.1,0.1,0.1,0.2,0.2l0.6,0.7h0.6v-0.3c0,0-0.1,0-0.1,0c0,0-0.1-0.1-0.1-0.1c0,0-0.3-0.4-0.3-0.4c-0.1-0.1-0.1-0.1-0.2-0.2
			c0-0.1-0.1-0.1-0.1-0.1c0.1,0,0.3-0.1,0.4-0.2c0.1-0.1,0.2-0.3,0.2-0.5c0-0.1,0-0.2-0.1-0.3c-0.1-0.1-0.1-0.1-0.3-0.2
			c-0.1,0-0.3,0-0.5,0H274v0.3h0.2c0,0,0.1,0,0.1,0v0c0,0,0,0,0,0c0,0.1,0,0.3,0,0.5V90c0,0,0,0.1,0,0.1
			C274.3,90.2,274.3,90.3,274.2,90.4C274.3,90.4,274.3,90.4,274.2,90.4z M274.8,88.6c0.1,0,0.2,0,0.2,0c0.1,0,0.3,0,0.3,0.1
			c0.1,0.1,0.1,0.1,0.1,0.2c0,0.2,0,0.2-0.1,0.3c-0.2,0.1-0.3,0.1-0.4,0.1h-0.2V88.6z"/>
		<path id="XMLID_464_" class="st0" d="M267.1,90.4L267.1,90.4C267.1,90.4,267.1,90.4,267.1,90.4l-0.3,0v0.3h1.2v-0.3h-0.2
			c-0.1,0-0.1,0-0.1,0v-0.8c0,0,0,0,0,0c0,0,0.3,0.1,0.3,0.1c0.1,0,0.3,0,0.5-0.1c0.1-0.1,0.2-0.2,0.3-0.3c0.1-0.1,0.1-0.2,0.1-0.4
			c0-0.2-0.1-0.3-0.2-0.4l0,0l0,0c-0.2-0.1-0.5-0.1-0.7-0.1h-1.2v0.3h0.2c0.1,0,0.1,0,0.1,0c0,0,0,0.1,0,0.2l0,0.3v0.8
			C267.2,90.2,267.1,90.3,267.1,90.4z M267.7,88.6c0.1,0,0.2,0,0.2,0c0.2,0,0.3,0,0.4,0.1c0.1,0.1,0.1,0.2,0.1,0.3
			c0,0.1,0,0.2-0.1,0.3c-0.1,0-0.2,0.1-0.3,0.1c-0.1,0-0.2,0-0.3,0c0,0,0,0,0,0V88.6z"/>
		<path id="XMLID_461_" class="st0" d="M270.6,88.3c-0.3,0-0.7,0-1.1,0.2c-0.3,0.2-0.6,0.9-0.6,1.2c0,0.4,0.1,0.6,0.3,0.8
			c0.4,0.3,1.2,0.1,1.6-0.1c0.3-0.2,0.7-0.6,0.7-1.2C271.5,88.5,271,88.3,270.6,88.3z M270.8,89.9c-0.2,0.3-0.4,0.5-0.9,0.4
			c-0.5-0.1-0.4-0.5-0.4-0.6c0-0.2,0.1-0.8,0.4-1.1c0.3-0.2,0.8-0.1,0.9,0C271,88.9,271,89.6,270.8,89.9z"/>
		<path id="XMLID_458_" class="st0" d="M273.2,88.3c-0.3,0-1.7,0-1.7,0v0.2l0.1,0.1l0.1,0c0,0,0,1.7,0,1.7c-0.2,0.1-0.2,0.1-0.2,0.1
			v0.2c0,0,0.9,0,1.1,0c0.2,0,0.6-0.1,0.9-0.3c0.3-0.3,0.4-0.7,0.4-1.1C274,88.7,273.5,88.4,273.2,88.3z M273.1,90.3
			c-0.2,0.1-0.6,0.1-0.8,0.1c0-0.4,0-1.7,0-1.7s0.6,0,0.8,0.1c0.3,0.2,0.3,0.3,0.4,0.7C273.5,89.9,273.3,90.1,273.1,90.3z"/>
		<path id="XMLID_455_" class="st0" d="M282.6,90.5c0.4,0.3,1.2,0.1,1.5-0.1c0.3-0.2,0.6-0.6,0.7-1.2c0-0.7-0.5-0.9-0.9-0.9
			c-0.3,0-0.7,0-1.1,0.2c-0.4,0.2-0.6,0.9-0.6,1.2C282.3,90.1,282.4,90.4,282.6,90.5z M283.2,88.7c0.3-0.2,0.8-0.1,0.9,0
			c0.2,0.2,0.2,0.9,0,1.2c-0.2,0.3-0.4,0.5-0.8,0.4c-0.5-0.1-0.4-0.5-0.4-0.6C282.8,89.6,282.8,88.9,283.2,88.7z"/>
		<path id="XMLID_454_" class="st0" d="M280.9,93.8L280.9,93.8c0.1,0.1,0.1,0.2,0.2,0.3c0.1,0.1,0.1,0.2,0.2,0.2l0,0h0.4l0-0.7v-0.7
			c0-0.3,0-0.5,0-0.6c0,0,0-0.1,0-0.1c0,0,0,0,0.1,0h0.2v-0.3h-1v0.3h0.2c0,0,0.1,0,0.1,0v1.3c0,0,0,0,0,0c-0.1-0.1-0.1-0.1-0.2-0.2
			l-0.6-0.7h0c-0.1-0.1-0.2-0.3-0.4-0.4l-0.2-0.3h-0.7v0.3h0.2c0,0,0.1,0,0.1,0v0l0,0v1.2c0,0.2,0,0.4,0,0.5v0c0,0,0,0,0,0
			c0,0-0.3,0-0.3,0v0.3h0.1c0.1,0,0.2,0,0.3,0c0,0,0.1,0,0.1,0c0,0,0.1,0,0.1,0c0.1,0,0.2,0,0.2,0h0.1V94H280c-0.1,0-0.1,0-0.1,0
			l0,0v-1.3C280.1,92.9,280.9,93.8,280.9,93.8z"/>
		<polygon id="XMLID_436_" class="st0" points="270.6,88.2 270.2,88.2 270.5,87.8 271,87.8 		"/>
	</g>
	<g id="XMLID_337_">
		<g id="XMLID_374_">
			<g>
				<path id="XMLID_24_" class="st0" d="M259,105.4h4.9v2.2H259V105.4z"/>
			</g>
		</g>
		<g id="XMLID_362_">
			<g>
				<path id="XMLID_22_" class="st0" d="M264.9,105.4h4.9v2.2h-4.9V105.4z"/>
			</g>
		</g>
		<g id="XMLID_350_">
			<g>
				<path id="XMLID_20_" class="st0" d="M270.8,105.4h4.9v2.2h-4.9V105.4z"/>
			</g>
		</g>
		<g id="XMLID_344_">
			<g>
				<path id="XMLID_18_" class="st0" d="M276.7,105.4h4.9v2.2h-4.9V105.4z"/>
			</g>
		</g>
		<g id="XMLID_338_">
			<g>
				<path id="XMLID_16_" class="st0" d="M282.5,105.4h4.9v2.2h-4.9V105.4z"/>
			</g>
		</g>
	</g>
</g>
<g>
	<g>
		<path class="st0" d="M138.6,27.5c1.2,0,2.1,0.6,2.1,1.6c0,1-1,1.7-2,1.7c-0.2,0-0.5,0-0.7-0.1c0.8,0,1.6-0.5,1.6-1.4
			c0-0.8-0.6-1.1-1.3-1.1c-0.2,0-0.4,0-0.6,0.1v4.1c0,0.5,0,0.9,0.5,1.1v0h-1.8v0c0.5-0.2,0.4-0.8,0.4-1.2v-3.4
			c0-0.4,0.1-1.1-0.4-1.2v0H138.6z"/>
		<path class="st0" d="M142.2,31.2l-0.5,1.3c-0.2,0.5-0.3,0.8,0.2,0.9v0h-1.7v0c0.5-0.3,0.7-0.8,0.9-1.3l1.5-3.8
			c0.1-0.3,0.3-0.7-0.1-0.8v0h1.4l1.9,4.6c0.2,0.5,0.4,1,0.9,1.3v0h-1.8v0c0.4-0.2,0.4-0.3,0.1-0.9l-0.5-1.3H142.2z M143.3,28.3
			l-0.9,2.3h1.8L143.3,28.3z"/>
		<path class="st0" d="M149.6,32.8c0.6,0,1.1-0.2,1.6-0.5h0l-0.5,1.2h-3.7v0c0.5-0.2,0.4-0.8,0.4-1.2v-3.4c0-0.4,0.1-1.1-0.4-1.2v0
			h1.7v0c-0.5,0.2-0.4,0.8-0.4,1.2v3.9L149.6,32.8z"/>
		<path class="st0" d="M154.3,32.8c0.6,0,1.1-0.2,1.6-0.5h0l-0.5,1.2h-3.7v0c0.5-0.2,0.4-0.8,0.4-1.2v-3.4c0-0.4,0.1-1.1-0.4-1.2v0
			h1.7v0c-0.5,0.2-0.4,0.8-0.4,1.2v3.9L154.3,32.8z"/>
		<path class="st0" d="M158.1,31.2l-0.5,1.3c-0.2,0.5-0.3,0.8,0.2,0.9v0h-1.7v0c0.5-0.3,0.7-0.8,0.9-1.3l1.5-3.8
			c0.1-0.3,0.3-0.7-0.1-0.8v0h1.4l1.9,4.6c0.2,0.5,0.4,1,0.9,1.3v0h-1.8v0c0.4-0.2,0.4-0.3,0.1-0.9l-0.5-1.3H158.1z M159.2,28.3
			l-0.9,2.3h1.8L159.2,28.3z"/>
		<path class="st0" d="M163.3,28.7c0-0.4,0.1-1.1-0.4-1.2v0h2.2c2.1,0,3.3,1.1,3.3,2.9c0,1.8-1.4,3-3.4,3h-2.2v0
			c0.5-0.3,0.4-0.7,0.4-1.3V28.7z M164.2,32.7c0.2,0,0.4,0.1,0.7,0.1c1.3,0,2.5-0.7,2.5-2.3c0-1.6-0.9-2.4-2.4-2.4
			c-0.3,0-0.5,0-0.8,0.1V32.7z"/>
		<path class="st0" d="M169.4,28.8c0-0.4,0.1-1.1-0.4-1.2v0h1.7v0c-0.5,0.2-0.4,0.8-0.4,1.2v3.4c0,0.4-0.1,1.1,0.4,1.2v0H169v0
			c0.5-0.2,0.4-0.8,0.4-1.2V28.8z"/>
		<path class="st0" d="M175.5,32.8c-0.4,0.5-1.1,0.7-1.8,0.7c-0.6,0-1.2-0.2-1.6-0.6c-0.5-0.5-0.5-1.1-0.5-1.8v-2.4
			c0-0.4,0.1-1.1-0.4-1.2v0h1.7v0c-0.5,0.2-0.4,0.8-0.4,1.2v2.4c0,1.2,0.5,1.8,1.4,1.8c0.5,0,1-0.2,1.3-0.6c0.2-0.3,0.2-0.5,0.2-0.8
			v-2.7c0-0.4,0.1-1.1-0.4-1.2v0h1.7l0,0c-0.5,0.2-0.4,0.8-0.4,1.2v3.4c0,0.4-0.1,1.1,0.4,1.2v0h-1.3V32.8z"/>
		<path class="st0" d="M182.8,28.1c0.1-0.2,0.1-0.4,0.1-0.6v0h1.6v0c-0.2,0.1-0.3,0.3-0.3,0.5l0.6,4.4c0.1,0.4,0.1,0.7,0.5,0.9v0
			h-1.7v0c0.3-0.1,0.4-0.4,0.4-0.7l-0.5-4.3l-2,5.2c-0.5-0.3-0.6-0.6-0.8-1.1l-1.7-4.1l-0.5,3.9c-0.1,0.5-0.1,0.9,0.3,1.1v0h-1.5v0
			c0.4-0.3,0.4-0.8,0.5-1.3l0.5-3.8c0-0.3,0.1-0.6-0.3-0.8v0h1.6v0c0,0.1,0.1,0.3,0.1,0.4l1.7,4L182.8,28.1z"/>
	</g>
	<path class="st0" d="M151.5,39.9c0.4,0,0.7-0.1,1-0.3h0l-0.3,0.7H150v0c0.3-0.1,0.2-0.5,0.2-0.7v-2.1c0-0.3,0-0.7-0.2-0.8v0h1v0
		c-0.3,0.1-0.2,0.5-0.2,0.8v2.4L151.5,39.9z"/>
	<path class="st0" d="M137,38.5v1c0,0.2,0,0.7,0.2,0.8v0h-1v0c0.3-0.1,0.2-0.5,0.2-0.8v-2.1c0-0.3,0-0.7-0.2-0.8v0h1v0
		c-0.3,0.1-0.2,0.5-0.2,0.8v0.6h2v-0.6c0-0.2,0-0.7-0.2-0.8v0h1v0c-0.3,0.1-0.2,0.5-0.2,0.8v2.1c0,0.3,0,0.7,0.2,0.8v0h-1v0
		c0.3-0.1,0.2-0.5,0.2-0.8v-1H137z"/>
	<path class="st0" d="M146,39.5c0,0.3,0,0.5,0.3,0.7v0h-1.1v0c0.3-0.1,0.2-0.5,0.2-0.7v-2.4h-0.5c-0.2,0-0.5,0.1-0.7,0.2h0l0.2-0.7
		h0c0.1,0,0.1,0,0.2,0h0.1h2c0.1,0,0.2,0,0.3,0h0l-0.2,0.7h0c-0.1-0.2-0.3-0.2-0.5-0.2H146V39.5z"/>
	<path class="st0" d="M164.6,36.7c0.7,0,1.1,0.4,1.1,0.9c0,0.5-0.4,0.9-0.9,1l0.8,1c0.2,0.3,0.6,0.6,0.9,0.8h-0.5
		c-0.3,0-0.5-0.1-0.6-0.3l-0.7-0.8l-0.5-0.8c0.4-0.1,0.9-0.3,0.9-0.8c0-0.4-0.3-0.6-0.7-0.6c-0.1,0-0.2,0-0.4,0v2.4
		c0,0.3,0,0.7,0.2,0.7v0h-1v0c0.3-0.1,0.2-0.5,0.2-0.7v-2.1c0-0.3,0-0.7-0.2-0.8v0H164.6z"/>
	<path class="st0" d="M167.6,39.8l0.7,0.1c0.4,0,0.7-0.1,1-0.3h0l-0.2,0.7h-2.3v0c0.3-0.1,0.2-0.5,0.2-0.7v-2.1c0-0.3,0-0.7-0.2-0.8
		v0h1.7c0.1,0,0.2,0,0.3,0h0v0.6h0c-0.2-0.2-0.4-0.2-0.6-0.2c-0.2,0-0.4,0-0.6,0v1h0.7c0.1,0,0.2,0,0.2,0h0v0.6h0
		c-0.1-0.2-0.3-0.2-0.5-0.2h-0.4V39.8z"/>
	<path class="st0" d="M147.9,39.8l0.7,0.1c0.4,0,0.7-0.1,1-0.3h0l-0.2,0.7h-2.3v0c0.3-0.1,0.2-0.5,0.2-0.7v-2.1c0-0.3,0-0.7-0.2-0.8
		v0h1.7c0.1,0,0.2,0,0.3,0h0v0.6h0c-0.2-0.2-0.4-0.2-0.6-0.2c-0.2,0-0.4,0-0.6,0v1h0.7c0.1,0,0.2,0,0.2,0h0v0.6h0
		c-0.1-0.2-0.3-0.2-0.5-0.2h-0.4V39.8z"/>
	<path class="st0" d="M171.8,37.3c-0.2-0.2-0.6-0.3-0.9-0.3c-0.3,0-0.7,0.1-0.7,0.5c0,0.7,1.9,0.7,1.9,1.7c0,0.6-0.6,1.1-1.5,1.1
		c-0.3,0-0.7,0-1-0.2l-0.2-0.7c0.3,0.3,0.8,0.5,1.2,0.5c0.3,0,0.8-0.2,0.8-0.6c0-0.9-1.9-0.7-1.9-1.9c0-0.7,0.7-1,1.4-1
		c0.3,0,0.6,0,0.8,0.1V37.3z"/>
	<path class="st0" d="M185,37.3c-0.2-0.2-0.6-0.3-0.9-0.3c-0.3,0-0.7,0.1-0.7,0.5c0,0.7,1.9,0.7,1.9,1.7c0,0.6-0.6,1.1-1.5,1.1
		c-0.3,0-0.7,0-1-0.2l-0.2-0.7c0.3,0.3,0.8,0.5,1.2,0.5c0.3,0,0.8-0.2,0.8-0.6c0-0.9-1.9-0.7-1.9-1.9c0-0.7,0.7-1,1.4-1
		c0.3,0,0.6,0,0.8,0.1V37.3z"/>
	<path class="st0" d="M176.3,38.4c0,1.1-0.9,1.9-2,1.9c-1.1,0-2-0.8-2-1.9c0-1,0.9-1.9,2-1.9C175.5,36.6,176.3,37.4,176.3,38.4z
		 M173,38.4c0,0.8,0.5,1.6,1.4,1.6c0.8,0,1.4-0.6,1.4-1.4c0-0.8-0.5-1.6-1.4-1.6C173.5,37,173,37.6,173,38.4z"/>
	<path class="st0" d="M144.3,38.4c0,1.1-0.9,1.9-2,1.9c-1.1,0-2-0.8-2-1.9c0-1,0.9-1.9,2-1.9C143.5,36.6,144.3,37.4,144.3,38.4z
		 M140.9,38.4c0,0.8,0.5,1.6,1.4,1.6c0.8,0,1.4-0.6,1.4-1.4c0-0.8-0.5-1.6-1.4-1.6C141.4,37,140.9,37.6,140.9,38.4z"/>
	<path class="st0" d="M178.1,36.7c0.7,0,1.1,0.4,1.1,0.9c0,0.5-0.4,0.9-0.9,1l0.8,1c0.2,0.3,0.6,0.6,0.9,0.8h-0.5
		c-0.3,0-0.5-0.1-0.6-0.3l-0.7-0.8l-0.5-0.8c0.4-0.1,0.9-0.3,0.9-0.8c0-0.4-0.3-0.6-0.7-0.6c-0.1,0-0.2,0-0.4,0v2.4
		c0,0.3,0,0.7,0.2,0.7v0h-1v0c0.3-0.1,0.2-0.5,0.2-0.7v-2.1c0-0.3,0-0.7-0.2-0.8v0H178.1z"/>
	<path class="st0" d="M181.5,39.5c0,0.3,0,0.5,0.3,0.7v0h-1.1v0c0.3-0.1,0.2-0.5,0.2-0.7v-2.4h-0.5c-0.2,0-0.5,0.1-0.7,0.2h0
		l0.2-0.7h0c0.1,0,0.1,0,0.2,0h0.1h2c0.1,0,0.2,0,0.3,0h0l-0.2,0.7h0c-0.1-0.2-0.3-0.2-0.5-0.2h-0.5V39.5z"/>
	<path class="st0" d="M161.2,40.3c-0.2,0-0.4,0-0.5-0.1c-0.2-0.1-0.5-0.3-0.7-0.5c-0.3,0.4-0.6,0.6-1.1,0.6c-0.6,0-1.2-0.4-1.2-1
		c0-0.5,0.4-0.9,0.8-1.2c-0.2-0.2-0.4-0.5-0.4-0.8c0-0.5,0.4-0.8,0.9-0.8c0.4,0,0.8,0.3,0.8,0.8c0,0.4-0.2,0.6-0.5,0.8
		c0.8,0.8,1.6,1.6,2.7,2.1v0H161.2z M158.8,38.4c-0.3,0.2-0.5,0.5-0.5,0.8c0,0.4,0.3,0.7,0.8,0.7c0.3,0,0.6-0.2,0.8-0.5L158.8,38.4z
		 M159.2,37.3c0-0.2-0.2-0.3-0.4-0.3c-0.2,0-0.4,0.1-0.4,0.3c0,0.2,0.2,0.4,0.4,0.6C159.1,37.7,159.2,37.5,159.2,37.3z"/>
	<path class="st0" d="M155.1,37.3c-0.2-0.2-0.6-0.3-0.9-0.3c-0.3,0-0.7,0.1-0.7,0.5c0,0.7,1.9,0.7,1.9,1.7c0,0.6-0.6,1.1-1.5,1.1
		c-0.3,0-0.7,0-1-0.2l-0.2-0.7c0.3,0.3,0.8,0.5,1.2,0.5c0.3,0,0.8-0.2,0.8-0.6c0-0.9-1.9-0.7-1.9-1.9c0-0.7,0.7-1,1.4-1
		c0.3,0,0.6,0,0.8,0.1V37.3z"/>
	<path class="st0" d="M161.3,24.8c4.7,0,10.9-2.3,10.9-6.3c0-3.4-5.2-6.3-11.6-6.3c-5.8,0-11.5,2.6-11.5,6.3c0,1.7,1.8,5.2,7.3,5.2
		c4.5,0,5.6-2.8,5.6-4.1c0-1.4-1.1-2.7-2.8-2.7c-1.8,0-2.7,0.9-3.1,1.4c0,0,0.6-0.3,1.6-0.3c1,0,1.6,0.4,1.6,0.9
		c0,0.5-0.6,1.3-2.9,1.3c-3.3,0-5-1.6-5-3c0-2.4,4.6-4,9.3-4c4.7,0,9.3,1.6,9.3,4c0,1.6-1.9,2.6-3.4,3.1c0-1.1-0.8-3.1-2.8-4.1
		c0.5-0.4,1.4-0.5,2.2-0.3c-0.3-0.4-1.4-1.1-2.8-1.1c-0.7,0-1.1,0.2-1.4,0.4c0-0.4,0.7-1.1,2-1.1c-0.5-0.2-1.3-0.3-2.1-0.3
		c-1.6,0-3,0.6-3,2.1c0,0.1,0.1,0.3,0.1,0.3c0.2-0.1,0.8-0.2,1.3-0.2c1.7,0,4,1.2,4,4.1C164.1,22.5,162.2,24.1,161.3,24.8z"/>
</g>
</svg>
