<?xml version="1.0" encoding="utf-8"?>
<!-- Generator: Adobe Illustrator 24.3.0, SVG Export Plug-In . SVG Version: 6.00 Build 0)  -->
<svg version="1.1" id="Layer_1" xmlns="http://www.w3.org/2000/svg" xmlns:xlink="http://www.w3.org/1999/xlink" x="0px" y="0px"
	 viewBox="0 0 205 157.6" style="enable-background:new 0 0 205 157.6;" xml:space="preserve">
<style type="text/css">
	.st0{fill:#A9C6C8;}
	.st1{fill:none;stroke:#FFFFFF;stroke-width:1.8438;stroke-miterlimit:10;}
</style>
<g>
	<g>
		<path class="st0" d="M18.4,143.5c-0.8-0.4-1.5-0.9-2-1.6s-0.7-1.4-0.7-2.3H18c0.1,0.7,0.4,1.4,0.9,1.9c0.5,0.5,1.3,0.8,2.4,0.8
			c1,0,1.8-0.2,2.3-0.7s0.9-1.1,0.9-1.9c0-0.6-0.2-1.1-0.5-1.5c-0.3-0.4-0.8-0.7-1.3-0.9s-1.2-0.4-2-0.6c-1.1-0.3-1.9-0.5-2.5-0.8
			c-0.6-0.3-1.2-0.7-1.6-1.3c-0.5-0.6-0.7-1.4-0.7-2.4c0-0.9,0.2-1.6,0.7-2.3s1.1-1.2,1.9-1.6c0.8-0.4,1.7-0.5,2.8-0.5
			c1.5,0,2.7,0.4,3.7,1.1c1,0.7,1.5,1.7,1.6,3h-2.3c-0.1-0.6-0.4-1.1-1-1.6c-0.6-0.5-1.3-0.7-2.2-0.7c-0.9,0-1.6,0.2-2.1,0.7
			s-0.8,1.1-0.8,1.9c0,0.6,0.2,1.1,0.5,1.4c0.3,0.4,0.7,0.6,1.2,0.8c0.5,0.2,1.2,0.4,2,0.7c1.1,0.3,1.9,0.6,2.5,0.9
			c0.6,0.3,1.2,0.7,1.6,1.3c0.5,0.6,0.7,1.4,0.7,2.4c0,0.8-0.2,1.5-0.6,2.2c-0.4,0.7-1,1.2-1.8,1.7c-0.8,0.4-1.8,0.6-2.9,0.6
			C20.2,144.1,19.3,143.9,18.4,143.5z"/>
		<path class="st0" d="M40.5,131.4v12.5h-2.1v-1.9c-0.4,0.6-0.9,1.1-1.7,1.5c-0.7,0.4-1.5,0.5-2.3,0.5c-1,0-1.9-0.2-2.6-0.6
			c-0.8-0.4-1.4-1-1.8-1.8c-0.5-0.8-0.7-1.8-0.7-2.9v-7.3h2.1v7.1c0,1.2,0.3,2.2,0.9,2.8c0.6,0.7,1.5,1,2.6,1c1.1,0,2-0.3,2.6-1
			c0.6-0.7,1-1.7,1-3v-6.9H40.5z"/>
		<path class="st0" d="M45.7,143.6c-0.8-0.3-1.4-0.8-1.8-1.4c-0.4-0.6-0.7-1.3-0.7-2h2.1c0.1,0.6,0.4,1.1,0.9,1.5
			c0.5,0.4,1.2,0.6,2.1,0.6c0.8,0,1.4-0.2,1.9-0.5c0.5-0.4,0.7-0.8,0.7-1.3c0-0.5-0.2-1-0.7-1.2c-0.5-0.3-1.2-0.5-2.3-0.8
			c-0.9-0.2-1.7-0.5-2.3-0.7c-0.6-0.3-1.1-0.6-1.5-1.1c-0.4-0.5-0.6-1.1-0.6-2c0-0.6,0.2-1.2,0.6-1.8c0.4-0.5,0.9-1,1.6-1.3
			s1.5-0.5,2.4-0.5c1.4,0,2.5,0.4,3.4,1.1c0.9,0.7,1.3,1.7,1.4,2.9h-2.1c0-0.7-0.3-1.2-0.8-1.6c-0.5-0.4-1.1-0.6-1.9-0.6
			c-0.7,0-1.3,0.2-1.8,0.5s-0.7,0.7-0.7,1.3c0,0.4,0.1,0.8,0.4,1c0.3,0.3,0.6,0.5,1,0.6c0.4,0.2,1,0.3,1.7,0.5
			c0.9,0.2,1.6,0.5,2.2,0.7c0.6,0.2,1,0.6,1.5,1.1c0.4,0.5,0.6,1.1,0.6,1.9c0,0.7-0.2,1.3-0.6,1.9s-0.9,1-1.6,1.3
			c-0.7,0.3-1.5,0.5-2.4,0.5C47.3,144.1,46.4,144,45.7,143.6z"/>
		<path class="st0" d="M58.1,133.1v7.4c0,0.6,0.1,1,0.4,1.3c0.3,0.3,0.7,0.4,1.3,0.4h1.5v1.8h-1.9c-1.2,0-2-0.3-2.6-0.8
			c-0.6-0.5-0.9-1.4-0.9-2.6v-7.4h-1.6v-1.7H56v-3.2h2.1v3.2h3.3v1.7H58.1z"/>
		<path class="st0" d="M75,138.4H65c0.1,1.2,0.5,2.2,1.3,2.9c0.8,0.7,1.7,1,2.8,1c0.9,0,1.7-0.2,2.3-0.6c0.6-0.4,1-1,1.3-1.7h2.2
			c-0.3,1.2-1,2.2-2,2.9c-1,0.8-2.3,1.1-3.8,1.1c-1.2,0-2.3-0.3-3.2-0.8c-0.9-0.5-1.7-1.3-2.2-2.3c-0.5-1-0.8-2.1-0.8-3.4
			s0.3-2.4,0.8-3.4s1.2-1.7,2.2-2.3c0.9-0.5,2-0.8,3.2-0.8c1.2,0,2.2,0.3,3.2,0.8c0.9,0.5,1.6,1.2,2.1,2.1c0.5,0.9,0.7,1.9,0.7,3.1
			C75.1,137.6,75,138,75,138.4z M72.4,134.7c-0.4-0.6-0.8-1-1.4-1.3c-0.6-0.3-1.3-0.4-2-0.4c-1.1,0-1.9,0.3-2.7,1s-1.2,1.6-1.3,2.8
			h7.9C72.9,135.9,72.7,135.3,72.4,134.7z"/>
		<path class="st0" d="M87.4,132.5c0.9,0.9,1.4,2.3,1.4,4v7.4h-2.1v-7.1c0-1.2-0.3-2.2-0.9-2.9c-0.6-0.7-1.5-1-2.6-1
			c-1.1,0-2,0.3-2.6,1c-0.6,0.7-1,1.7-1,3v6.9h-2.1v-12.5h2.1v1.8c0.4-0.6,1-1.1,1.7-1.5s1.5-0.5,2.3-0.5
			C85.2,131.1,86.4,131.6,87.4,132.5z"/>
		<path class="st0" d="M94.5,133.1v7.4c0,0.6,0.1,1,0.4,1.3c0.3,0.3,0.7,0.4,1.3,0.4h1.5v1.8h-1.9c-1.2,0-2-0.3-2.6-0.8
			c-0.6-0.5-0.9-1.4-0.9-2.6v-7.4h-1.6v-1.7h1.6v-3.2h2.1v3.2h3.3v1.7H94.5z"/>
		<path class="st0" d="M100.1,134.2c0.5-1,1.2-1.7,2.1-2.3c0.9-0.5,1.9-0.8,3-0.8c1.1,0,2,0.2,2.9,0.7c0.8,0.5,1.4,1.1,1.8,1.8v-2.3
			h2.1v12.5h-2.1v-2.3c-0.4,0.7-1,1.3-1.8,1.8c-0.8,0.5-1.8,0.7-2.8,0.7c-1.1,0-2.1-0.3-3-0.8c-0.9-0.5-1.6-1.3-2.1-2.3
			s-0.8-2.1-0.8-3.4C99.3,136.3,99.6,135.2,100.1,134.2z M109.3,135.2c-0.4-0.7-0.9-1.2-1.5-1.6c-0.6-0.4-1.4-0.6-2.1-0.6
			c-0.8,0-1.5,0.2-2.1,0.5c-0.6,0.4-1.2,0.9-1.5,1.6c-0.4,0.7-0.6,1.5-0.6,2.5c0,1,0.2,1.8,0.6,2.5s0.9,1.2,1.5,1.6
			c0.6,0.4,1.3,0.6,2.1,0.6c0.8,0,1.5-0.2,2.1-0.6c0.6-0.4,1.2-0.9,1.5-1.6s0.6-1.5,0.6-2.5S109.7,135.9,109.3,135.2z"/>
		<path class="st0" d="M119.3,131.9c0.8-0.5,1.8-0.7,2.8-0.7c1.1,0,2.1,0.3,3,0.8c0.9,0.5,1.6,1.3,2.1,2.3c0.5,1,0.8,2.1,0.8,3.4
			c0,1.3-0.3,2.4-0.8,3.4c-0.5,1-1.2,1.8-2.1,2.3c-0.9,0.5-1.9,0.8-3,0.8c-1.1,0-2-0.2-2.8-0.7c-0.8-0.5-1.4-1.1-1.8-1.8v2.3h-2.1
			V127h2.1v6.7C117.8,133,118.4,132.4,119.3,131.9z M125.3,135.1c-0.4-0.7-0.9-1.2-1.5-1.6c-0.6-0.4-1.4-0.5-2.1-0.5
			c-0.8,0-1.5,0.2-2.1,0.6c-0.6,0.4-1.2,0.9-1.6,1.6c-0.4,0.7-0.6,1.5-0.6,2.5c0,0.9,0.2,1.8,0.6,2.5s0.9,1.2,1.6,1.6
			c0.6,0.4,1.4,0.6,2.1,0.6c0.8,0,1.5-0.2,2.1-0.6c0.6-0.4,1.2-0.9,1.5-1.6s0.6-1.5,0.6-2.5C125.9,136.7,125.7,135.8,125.3,135.1z"
			/>
		<path class="st0" d="M130.6,128.9c-0.3-0.3-0.4-0.6-0.4-1c0-0.4,0.1-0.7,0.4-1s0.6-0.4,1-0.4c0.4,0,0.7,0.1,1,0.4
			c0.3,0.3,0.4,0.6,0.4,1c0,0.4-0.1,0.7-0.4,1c-0.3,0.3-0.6,0.4-1,0.4C131.2,129.3,130.9,129.2,130.6,128.9z M132.6,131.4v12.5h-2.1
			v-12.5H132.6z"/>
		<path class="st0" d="M138,127v16.9h-2.1V127H138z"/>
		<path class="st0" d="M141.4,128.9c-0.3-0.3-0.4-0.6-0.4-1c0-0.4,0.1-0.7,0.4-1s0.6-0.4,1-0.4c0.4,0,0.7,0.1,1,0.4
			c0.3,0.3,0.4,0.6,0.4,1c0,0.4-0.1,0.7-0.4,1c-0.3,0.3-0.6,0.4-1,0.4C142,129.3,141.7,129.2,141.4,128.9z M143.4,131.4v12.5h-2.1
			v-12.5H143.4z"/>
		<path class="st0" d="M146.7,134.2c0.5-1,1.2-1.7,2.1-2.3c0.9-0.5,1.9-0.8,3.1-0.8c1,0,1.9,0.2,2.7,0.7c0.8,0.5,1.5,1,1.9,1.8V127
			h2.1v16.9h-2.1v-2.4c-0.4,0.7-1,1.4-1.8,1.8c-0.8,0.5-1.8,0.7-2.8,0.7c-1.1,0-2.1-0.3-3-0.8s-1.6-1.3-2.1-2.3s-0.8-2.1-0.8-3.4
			C145.9,136.3,146.2,135.2,146.7,134.2z M156,135.2c-0.4-0.7-0.9-1.2-1.5-1.6c-0.6-0.4-1.4-0.6-2.1-0.6c-0.8,0-1.5,0.2-2.1,0.5
			c-0.6,0.4-1.2,0.9-1.5,1.6c-0.4,0.7-0.6,1.5-0.6,2.5c0,1,0.2,1.8,0.6,2.5s0.9,1.2,1.5,1.6c0.6,0.4,1.3,0.6,2.1,0.6
			c0.8,0,1.5-0.2,2.1-0.6c0.6-0.4,1.2-0.9,1.5-1.6s0.6-1.5,0.6-2.5S156.4,135.9,156,135.2z"/>
		<path class="st0" d="M161.9,134.2c0.5-1,1.2-1.7,2.1-2.3c0.9-0.5,1.9-0.8,3-0.8c1.1,0,2,0.2,2.9,0.7c0.8,0.5,1.4,1.1,1.8,1.8v-2.3
			h2.1v12.5h-2.1v-2.3c-0.4,0.7-1,1.3-1.8,1.8c-0.8,0.5-1.8,0.7-2.8,0.7c-1.1,0-2.1-0.3-3-0.8c-0.9-0.5-1.6-1.3-2.1-2.3
			s-0.8-2.1-0.8-3.4C161.2,136.3,161.4,135.2,161.9,134.2z M171.2,135.2c-0.4-0.7-0.9-1.2-1.5-1.6c-0.6-0.4-1.4-0.6-2.1-0.6
			c-0.8,0-1.5,0.2-2.1,0.5c-0.6,0.4-1.2,0.9-1.5,1.6c-0.4,0.7-0.6,1.5-0.6,2.5c0,1,0.2,1.8,0.6,2.5s0.9,1.2,1.5,1.6
			c0.6,0.4,1.3,0.6,2.1,0.6c0.8,0,1.5-0.2,2.1-0.6c0.6-0.4,1.2-0.9,1.5-1.6s0.6-1.5,0.6-2.5S171.6,135.9,171.2,135.2z"/>
		<path class="st0" d="M177.2,134.2c0.5-1,1.2-1.7,2.1-2.3c0.9-0.5,1.9-0.8,3.1-0.8c1,0,1.9,0.2,2.7,0.7c0.8,0.5,1.5,1,1.9,1.8V127
			h2.1v16.9H187v-2.4c-0.4,0.7-1,1.4-1.8,1.8c-0.8,0.5-1.8,0.7-2.8,0.7c-1.1,0-2.1-0.3-3-0.8s-1.6-1.3-2.1-2.3s-0.8-2.1-0.8-3.4
			C176.4,136.3,176.7,135.2,177.2,134.2z M186.4,135.2c-0.4-0.7-0.9-1.2-1.5-1.6c-0.6-0.4-1.4-0.6-2.1-0.6c-0.8,0-1.5,0.2-2.1,0.5
			c-0.6,0.4-1.2,0.9-1.5,1.6c-0.4,0.7-0.6,1.5-0.6,2.5c0,1,0.2,1.8,0.6,2.5s0.9,1.2,1.5,1.6c0.6,0.4,1.3,0.6,2.1,0.6
			c0.8,0,1.5-0.2,2.1-0.6c0.6-0.4,1.2-0.9,1.5-1.6s0.6-1.5,0.6-2.5S186.8,135.9,186.4,135.2z"/>
	</g>
	<g>
		<circle class="st0" cx="102.6" cy="54.9" r="48.8"/>
		<g>
			<path class="st1" d="M91.5,35C91.5,35,91.5,35,91.5,35l-0.3,0.5c0,0,0,0,0,0l-4.5,7.8l9.6,5.5l4.4-7.6l0.5-1l1.3-2.3l3.2-5.5
				h-9.6C94.2,32.5,92.5,33.5,91.5,35z"/>
			<path class="st1" d="M117.2,41.4l-3.5-6.1c-0.5-0.8-1.2-1.5-2-2c-0.9-0.5-1.8-0.7-2.8-0.7h-9.6h-3.2c1.9,0,3.7,1,4.6,2.5l0.3,0.5
				l6.6,11.4l-3.4,2h11l5.5-9.5L117.2,41.4z"/>
			<path class="st1" d="M126.4,57.2C126.4,57.2,126.4,57.2,126.4,57.2l-0.3-0.5c0,0,0,0,0,0l-4.5-7.8l-9.6,5.5l4.4,7.6l0.5,1
				l1.3,2.3l3.2,5.5l4.8-8.3C127.2,60.8,127.2,58.8,126.4,57.2z"/>
			<path class="st1" d="M121.7,65.2h-0.6l-13.1,0v-4l-2.3,4l0,0v0l-3.2,5.5l5.5,9.5v-4h7v0c0.9,0,1.9-0.2,2.8-0.7
				c0.9-0.5,1.6-1.2,2-2l4.8-8.3l1.6-2.8C125.3,64.2,123.5,65.2,121.7,65.2z"/>
			<path class="st1" d="M99.3,65.3h-8.8h-1.1l-2.6,0l-6.4,0l4.8,8.3c1,1.7,2.7,2.7,4.5,2.8c0,0,0,0,0,0h0.5c0,0,0,0,0,0l9,0
				L99.3,65.3L99.3,65.3z"/>
			<path class="st1" d="M85.4,67.7l6.6-11.4l3.4,2l-2.3-4l0,0l0,0l-3.2-5.5l-6.4,0h0l0,0l-4.6,0l3.4,2L78.8,57
				c-0.5,0.8-0.7,1.8-0.7,2.8c0,1,0.3,1.9,0.7,2.8l4.8,8.3l1.6,2.8c-1-1.7-1-3.7-0.1-5.3L85.4,67.7z"/>
		</g>
	</g>
</g>
</svg>
