<?xml version="1.0" encoding="utf-8"?>
<!-- Generator: Adobe Illustrator 24.3.0, SVG Export Plug-In . SVG Version: 6.00 Build 0)  -->
<svg version="1.1" id="Layer_1" xmlns="http://www.w3.org/2000/svg" xmlns:xlink="http://www.w3.org/1999/xlink" x="0px" y="0px"
	 viewBox="0 0 329.2 123.9" style="enable-background:new 0 0 329.2 123.9;" xml:space="preserve">
<style type="text/css">
	.st0{fill:#575756;}
	.st1{clip-path:url(#SVGID_2_);fill:#575756;}
	.st2{clip-path:url(#SVGID_4_);fill:#575756;}
	.st3{clip-path:url(#SVGID_6_);fill:#575756;}
	.st4{clip-path:url(#SVGID_8_);fill:#575756;}
	.st5{clip-path:url(#SVGID_10_);fill:#575756;}
</style>
<g>
	<path class="st0" d="M23.9,21c-5,0-9,4-9,9c0,5,4,9,9,9c5,0,9-4,9-9C32.9,25,28.9,21,23.9,21 M28,33.9c-0.2,0.3-0.5,0.3-0.8,0.2
		c-2.1-1.3-4.8-1.6-7.9-0.9c-0.3,0.1-0.6-0.1-0.7-0.4c-0.1-0.3,0.1-0.6,0.4-0.7c3.4-0.8,6.4-0.4,8.7,1C28.1,33.3,28.2,33.7,28,33.9
		 M29.1,31.5c-0.2,0.3-0.6,0.4-1,0.2c-2.4-1.5-6.1-1.9-9-1c-0.4,0.1-0.8-0.1-0.9-0.5c-0.1-0.4,0.1-0.8,0.5-0.9
		c3.3-1,7.3-0.5,10.1,1.2C29.2,30.7,29.3,31.2,29.1,31.5 M29.2,28.9c-2.9-1.7-7.7-1.9-10.4-1c-0.4,0.1-0.9-0.1-1-0.6
		c-0.1-0.4,0.1-0.9,0.6-1c3.2-1,8.5-0.8,11.8,1.2c0.4,0.2,0.5,0.8,0.3,1.2C30.1,29,29.6,29.2,29.2,28.9"/>
	<path class="st0" d="M35.5,33.2l0.9-1.2c0.6,0.7,1.6,1.3,2.8,1.3c1.3,0,1.8-0.6,1.8-1.2c0-1.9-5.2-0.7-5.2-4c0-1.5,1.3-2.6,3.3-2.6
		c1.4,0,2.5,0.5,3.4,1.3l-0.9,1.2c-0.7-0.7-1.7-1-2.6-1c-0.9,0-1.5,0.5-1.5,1.1c0,1.7,5.2,0.6,5.2,4c0,1.5-1.1,2.8-3.5,2.8
		C37.5,34.6,36.3,34,35.5,33.2"/>
	<path class="st0" d="M45.4,33.5v3.4H44v-9h1.4v0.9c0.5-0.6,1.2-1.1,2.1-1.1c1.7,0,2.9,1.3,2.9,3.4c0,2.1-1.2,3.4-2.9,3.4
		C46.7,34.6,46,34.2,45.4,33.5 M48.9,31.2c0-1.3-0.7-2.2-1.8-2.2c-0.7,0-1.3,0.4-1.7,0.9v2.6c0.3,0.5,1,0.9,1.7,0.9
		C48.2,33.4,48.9,32.5,48.9,31.2"/>
	<path class="st0" d="M51.4,31.2c0-1.9,1.3-3.4,3.3-3.4c2.1,0,3.3,1.5,3.3,3.4c0,1.9-1.3,3.4-3.3,3.4C52.7,34.6,51.4,33,51.4,31.2
		 M56.6,31.2c0-1.1-0.7-2.2-1.9-2.2c-1.2,0-1.9,1-1.9,2.2c0,1.2,0.7,2.2,1.9,2.2C56,33.4,56.6,32.3,56.6,31.2"/>
	<path class="st0" d="M59.9,32.9v-3.8h-1.1v-1.2h1.1v-1.8h1.4v1.8h1.3v1.2h-1.3v3.4c0,0.4,0.2,0.8,0.6,0.8c0.3,0,0.5-0.1,0.6-0.2
		l0.3,1.1c-0.3,0.2-0.7,0.4-1.3,0.4C60.4,34.6,59.9,34,59.9,32.9"/>
	<path class="st0" d="M63.7,26.3c0-0.5,0.4-0.9,0.9-0.9c0.5,0,0.9,0.4,0.9,0.9c0,0.5-0.4,0.9-0.9,0.9C64.1,27.1,63.7,26.7,63.7,26.3
		 M63.9,27.9h1.4v6.5h-1.4V27.9z"/>
	<path class="st0" d="M67.5,34.4v-5.3h-1.1v-1.2h1.1v-0.4c0-1.4,0.8-2.3,2-2.3c0.6,0,1.2,0.1,1.6,0.6l-0.6,0.9
		c-0.2-0.2-0.4-0.3-0.7-0.3c-0.6,0-0.9,0.4-0.9,1.1v0.4h1.3v1.2h-1.3v5.3H67.5z"/>
	<path class="st0" d="M71.2,35.7c0.1,0.1,0.4,0.1,0.5,0.1c0.5,0,0.8-0.1,0.9-0.6l0.3-0.7l-2.7-6.6h1.5l1.9,4.9l1.9-4.9h1.5L74,35.6
		c-0.4,1.1-1.2,1.5-2.2,1.5c-0.2,0-0.6,0-0.8-0.1L71.2,35.7z"/>
</g>
<g>
	<path class="st0" d="M247.7,40.6c-0.1-0.1-0.1-0.1-0.2-0.2l-1.3-4c0,0,0-0.1,0-0.1c0-0.1,0-0.2,0.1-0.2c0.1-0.1,0.1-0.1,0.2-0.1
		c0.1,0,0.1,0,0.2,0.1c0.1,0,0.1,0.1,0.1,0.2l1.1,3.7l1.1-3.6c0-0.1,0.1-0.1,0.1-0.2c0.1,0,0.1-0.1,0.2-0.1c0.1,0,0.1,0,0.2,0.1
		c0.1,0,0.1,0.1,0.1,0.2l1.1,3.6l1.1-3.7c0-0.1,0.1-0.1,0.1-0.2c0.1,0,0.1-0.1,0.2-0.1c0.1,0,0.2,0,0.2,0.1c0.1,0.1,0.1,0.1,0.1,0.2
		c0,0,0,0.1,0,0.1l-1.3,4c0,0.1-0.1,0.2-0.2,0.2c-0.1,0.1-0.1,0.1-0.2,0.1c-0.1,0-0.2,0-0.2-0.1c-0.1-0.1-0.1-0.1-0.1-0.2l-1.1-3.4
		l-1.1,3.4c0,0.1-0.1,0.2-0.1,0.2c-0.1,0.1-0.2,0.1-0.2,0.1S247.8,40.6,247.7,40.6"/>
	<path class="st0" d="M253.4,40.5c-0.1-0.1-0.1-0.1-0.1-0.2v-4c0-0.1,0-0.2,0.1-0.2c0.1-0.1,0.1-0.1,0.2-0.1h2.6
		c0.1,0,0.1,0,0.2,0.1c0.1,0.1,0.1,0.1,0.1,0.2c0,0.1,0,0.1-0.1,0.2c-0.1,0.1-0.1,0.1-0.2,0.1h-2.3V38h2.1c0.1,0,0.1,0,0.2,0.1
		c0.1,0.1,0.1,0.1,0.1,0.2c0,0.1,0,0.1-0.1,0.2c-0.1,0.1-0.1,0.1-0.2,0.1h-2.1v1.5h2.3c0.1,0,0.1,0,0.2,0.1c0.1,0.1,0.1,0.1,0.1,0.2
		c0,0.1,0,0.1-0.1,0.2c-0.1,0.1-0.1,0.1-0.2,0.1h-2.6C253.6,40.6,253.5,40.6,253.4,40.5"/>
	<path class="st0" d="M257.6,40.6c-0.1-0.1-0.1-0.1-0.1-0.2v-4.1c0-0.1,0-0.2,0.1-0.2c0.1-0.1,0.1-0.1,0.2-0.1c0.1,0,0.2,0,0.2,0.1
		c0.1,0.1,0.1,0.1,0.1,0.2v2.1l2.2-2.3c0.1-0.1,0.1-0.1,0.2-0.1c0.1,0,0.1,0,0.2,0.1c0.1,0.1,0.1,0.1,0.1,0.2c0,0.1,0,0.2-0.1,0.2
		l-1.5,1.5l1.7,2.2c0,0.1,0.1,0.1,0.1,0.2c0,0.1,0,0.1-0.1,0.2c-0.1,0.1-0.1,0.1-0.2,0.1c-0.1,0-0.2,0-0.2-0.1l-1.7-2.2l-0.7,0.8
		v1.2c0,0.1,0,0.2-0.1,0.2c-0.1,0.1-0.1,0.1-0.2,0.1C257.7,40.7,257.7,40.6,257.6,40.6"/>
	<path class="st0" d="M262.5,40.4c-0.3-0.2-0.6-0.5-0.8-0.8c-0.2-0.4-0.3-0.8-0.3-1.2c0-0.5,0.1-0.9,0.3-1.2
		c0.2-0.4,0.5-0.6,0.8-0.8c0.3-0.2,0.7-0.3,1.2-0.3c0.5,0,0.9,0.1,1.2,0.3c0.3,0.2,0.6,0.5,0.8,0.8c0.2,0.4,0.3,0.8,0.3,1.2
		c0,0.5-0.1,0.9-0.3,1.2c-0.2,0.4-0.5,0.6-0.8,0.8c-0.3,0.2-0.7,0.3-1.2,0.3C263.3,40.7,262.9,40.6,262.5,40.4 M264.6,39.9
		c0.3-0.2,0.5-0.4,0.6-0.6c0.1-0.3,0.2-0.6,0.2-0.9c0-0.3-0.1-0.7-0.2-0.9c-0.1-0.3-0.3-0.5-0.6-0.6s-0.6-0.2-0.9-0.2
		c-0.4,0-0.7,0.1-0.9,0.2s-0.5,0.4-0.6,0.6c-0.1,0.3-0.2,0.6-0.2,0.9c0,0.3,0.1,0.7,0.2,0.9c0.1,0.3,0.3,0.5,0.6,0.6
		c0.3,0.2,0.6,0.2,0.9,0.2C264.1,40.1,264.4,40,264.6,39.9"/>
	<path class="st0" d="M267.1,40.6c-0.1-0.1-0.1-0.1-0.1-0.2v-4.1c0-0.1,0-0.2,0.1-0.2c0.1-0.1,0.1-0.1,0.2-0.1h1.5
		c0.6,0,1,0.1,1.3,0.4c0.3,0.2,0.4,0.6,0.4,1c0,0.3-0.1,0.5-0.2,0.7c-0.1,0.2-0.4,0.4-0.6,0.5c0.3,0.1,0.5,0.3,0.6,0.6
		c0.1,0.3,0.2,0.6,0.2,0.9v0.3c0,0.1,0,0.2-0.1,0.2c-0.1,0.1-0.1,0.1-0.2,0.1c-0.1,0-0.2,0-0.2-0.1c-0.1-0.1-0.1-0.1-0.1-0.2v-0.2
		c0-0.2,0-0.4-0.1-0.6c0-0.2-0.1-0.4-0.3-0.5c-0.1-0.1-0.4-0.2-0.7-0.2h-1.4v1.5c0,0.1,0,0.2-0.1,0.2c-0.1,0.1-0.1,0.1-0.2,0.1
		C267.2,40.7,267.2,40.6,267.1,40.6 M268.8,38.3c0.4,0,0.7-0.1,0.9-0.2c0.2-0.2,0.3-0.4,0.3-0.6c0-0.3-0.1-0.5-0.3-0.6
		c-0.2-0.1-0.5-0.2-1-0.2h-1.2v1.7H268.8z"/>
	<path class="st0" d="M274.5,40.6c-0.1-0.1-0.1-0.1-0.1-0.2v-3.8h-1.3c-0.1,0-0.1,0-0.2-0.1c-0.1-0.1-0.1-0.1-0.1-0.2
		c0-0.1,0-0.1,0.1-0.2s0.1-0.1,0.2-0.1h3.3c0.1,0,0.1,0,0.2,0.1c0.1,0.1,0.1,0.1,0.1,0.2c0,0.1,0,0.1-0.1,0.2
		c-0.1,0.1-0.1,0.1-0.2,0.1H275v3.8c0,0.1,0,0.2-0.1,0.2c-0.1,0.1-0.1,0.1-0.2,0.1C274.7,40.7,274.6,40.6,274.5,40.6"/>
	<path class="st0" d="M276.7,40.6c-0.1-0.1-0.1-0.1-0.1-0.2c0,0,0-0.1,0-0.1l1.7-4c0-0.1,0.1-0.1,0.1-0.2c0.1-0.1,0.1-0.1,0.2-0.1
		h0.1c0.1,0,0.2,0,0.2,0.1c0.1,0.1,0.1,0.1,0.1,0.2l1.7,4c0,0.1,0,0.1,0,0.1c0,0.1,0,0.2-0.1,0.2c-0.1,0.1-0.1,0.1-0.2,0.1
		c-0.1,0-0.1,0-0.2,0c-0.1,0-0.1-0.1-0.1-0.1l-0.4-1h-2.2l-0.4,1c0,0.1-0.1,0.1-0.1,0.1c0,0-0.1,0-0.2,0
		C276.9,40.7,276.8,40.6,276.7,40.6 M277.9,38.9h1.8l-0.9-2.2L277.9,38.9z"/>
	<path class="st0" d="M282,40.5c-0.1-0.1-0.1-0.2-0.1-0.3v-3.9c0-0.1,0-0.2,0.1-0.2C282,36,282,36,282.1,36c0.1,0,0.2,0,0.2,0.1
		c0.1,0.1,0.1,0.1,0.1,0.2V40h2.1c0.1,0,0.2,0,0.2,0.1c0.1,0.1,0.1,0.1,0.1,0.2c0,0.1,0,0.2-0.1,0.2c-0.1,0.1-0.1,0.1-0.2,0.1h-2.3
		C282.1,40.6,282,40.6,282,40.5"/>
	<path class="st0" d="M285.7,40.5c-0.1-0.1-0.1-0.1-0.1-0.2v-4c0-0.1,0-0.2,0.1-0.2c0.1-0.1,0.1-0.1,0.2-0.1h2.6
		c0.1,0,0.1,0,0.2,0.1c0.1,0.1,0.1,0.1,0.1,0.2c0,0.1,0,0.1-0.1,0.2c-0.1,0.1-0.1,0.1-0.2,0.1h-2.3V38h2.1c0.1,0,0.1,0,0.2,0.1
		c0.1,0.1,0.1,0.1,0.1,0.2c0,0.1,0,0.1-0.1,0.2c-0.1,0.1-0.1,0.1-0.2,0.1h-2.1v1.5h2.3c0.1,0,0.1,0,0.2,0.1c0.1,0.1,0.1,0.1,0.1,0.2
		c0,0.1,0,0.1-0.1,0.2c-0.1,0.1-0.1,0.1-0.2,0.1h-2.6C285.8,40.6,285.7,40.6,285.7,40.5"/>
	<path class="st0" d="M289.9,40.6c-0.1-0.1-0.1-0.1-0.1-0.2v-4c0-0.1,0-0.2,0.1-0.3c0.1-0.1,0.2-0.1,0.3-0.1h0.1
		c0.1,0,0.3,0.1,0.4,0.2l2.5,3.7v-3.6c0-0.1,0-0.2,0.1-0.2c0.1-0.1,0.1-0.1,0.2-0.1c0.1,0,0.2,0,0.2,0.1c0.1,0.1,0.1,0.1,0.1,0.2v4
		c0,0.1,0,0.2-0.1,0.3c-0.1,0.1-0.2,0.1-0.3,0.1h-0.1c-0.1,0-0.1,0-0.2,0c-0.1,0-0.1-0.1-0.2-0.1l-2.5-3.7v3.6c0,0.1,0,0.2-0.1,0.2
		c-0.1,0.1-0.1,0.1-0.2,0.1C290,40.7,289.9,40.6,289.9,40.6"/>
	<path class="st0" d="M296.2,40.6c-0.1-0.1-0.1-0.1-0.1-0.2v-3.8h-1.3c-0.1,0-0.1,0-0.2-0.1c-0.1-0.1-0.1-0.1-0.1-0.2
		c0-0.1,0-0.1,0.1-0.2s0.1-0.1,0.2-0.1h3.3c0.1,0,0.1,0,0.2,0.1c0.1,0.1,0.1,0.1,0.1,0.2c0,0.1,0,0.1-0.1,0.2
		c-0.1,0.1-0.1,0.1-0.2,0.1h-1.3v3.8c0,0.1,0,0.2-0.1,0.2c-0.1,0.1-0.1,0.1-0.2,0.1C296.3,40.7,296.2,40.6,296.2,40.6"/>
	<path class="st0" d="M271,18.6c-0.5,0.2-0.9,0.6-1.2,1.1c0,0,0,0,0,0c-0.5,0.8-0.5,1.7-0.1,2.6l2.5,5.3l2.5-5.3
		c0.3-0.7,0.3-1.5,0.1-2.2l-0.1-0.1C274,18.5,272.4,18,271,18.6"/>
	<path class="st0" d="M268.1,21.2l-1.9-4.1c-0.6-1.4-2.3-2-3.7-1.3l0,0c-1.4,0.6-2,2.3-1.3,3.7l3.9,8.2L268.1,21.2z"/>
	<path class="st0" d="M269.8,31.2c0.5-0.2,0.9-0.6,1.2-1.1c0,0,0,0,0,0c0.5-0.8,0.5-1.7,0.1-2.6l-2.5-5.3l-2.5,5.3
		c-0.3,0.7-0.3,1.5-0.1,2.2l0.1,0.1C266.7,31.3,268.4,31.9,269.8,31.2"/>
	<path class="st0" d="M276.4,21.2l1.9-4.1c0.6-1.4,2.3-2,3.7-1.3l0,0c1.4,0.6,2,2.3,1.3,3.7l-3.9,8.2L276.4,21.2z"/>
	<path class="st0" d="M274.7,31.2c-0.5-0.2-0.9-0.6-1.2-1.1c0,0,0,0,0,0c-0.5-0.8-0.5-1.7-0.1-2.6l2.5-5.3l2.5,5.3
		c0.3,0.7,0.3,1.5,0.1,2.2l-0.1,0.1C277.8,31.3,276.1,31.9,274.7,31.2"/>
</g>
<g>
	<g>
		<g>
			<defs>
				<path id="SVGID_1_" d="M175.3,21.3c-0.3,0-0.5,0.2-0.5,0.5v3.2h-3.3c-0.3,0-0.5,0.2-0.5,0.5v1.6c0,0.3,0.2,0.5,0.5,0.5h3.3v3.3
					c0,0.3,0.2,0.5,0.5,0.5h1.6c0.3,0,0.5-0.2,0.5-0.5v-3.3h3.3c0.3,0,0.5-0.2,0.5-0.5v-1.6c0-0.3-0.2-0.5-0.5-0.5h-3.3v-3.2
					c0-0.3-0.2-0.5-0.5-0.5H175.3z"/>
			</defs>
			<use xlink:href="#SVGID_1_"  style="overflow:visible;fill:#575756;"/>
			<clipPath id="SVGID_2_">
				<use xlink:href="#SVGID_1_"  style="overflow:visible;"/>
			</clipPath>
			<rect x="171" y="21.3" class="st1" width="10.3" height="10.1"/>
		</g>
		<g>
			<defs>
				<path id="SVGID_3_" d="M165.5,25.3v5.7c0,0.2,0.2,0.4,0.4,0.4h2.1c0.2,0,0.4-0.2,0.4-0.4v-5.3c0-1.6,1-2.2,2.2-2.2
					c0.4,0,0.8,0.1,1.2,0.1c0.2,0,0.4-0.1,0.5-0.4l0.3-1.6c0.1-0.3-0.1-0.5-0.4-0.5c-0.7-0.2-1.4-0.2-2-0.3c-0.1,0-0.2,0-0.3,0
					C167.8,20.9,165.5,21.9,165.5,25.3"/>
			</defs>
			<use xlink:href="#SVGID_3_"  style="overflow:visible;fill:#575756;"/>
			<clipPath id="SVGID_4_">
				<use xlink:href="#SVGID_3_"  style="overflow:visible;"/>
			</clipPath>
			<rect x="165.5" y="20.9" class="st2" width="7.3" height="10.6"/>
		</g>
		<g>
			<defs>
				<path id="SVGID_5_" d="M139.8,26.5c0,0.6,0.5,1.1,1.1,1.1c0.6,0,1.1-0.5,1.1-1.1c0-0.6-0.5-1.1-1.1-1.1
					C140.2,25.4,139.8,25.9,139.8,26.5"/>
			</defs>
			<use xlink:href="#SVGID_5_"  style="overflow:visible;fill:#575756;"/>
			<clipPath id="SVGID_6_">
				<use xlink:href="#SVGID_5_"  style="overflow:visible;"/>
			</clipPath>
			<rect x="139.8" y="25.4" class="st3" width="2.2" height="2.2"/>
		</g>
		<g>
			<defs>
				<path id="SVGID_7_" d="M144.4,16.6C144.4,16.6,144.3,16.6,144.4,16.6c-0.7,0-1.3,0.6-1.3,1.3v2.8c0,0.7,0.6,1.3,1.3,1.3
					c0.7,0,1.3-0.6,1.3-1.3v-1c2.5,0.3,3.7,1.8,3.7,4.7c0,2.9-1.3,4.2-3.7,4.6v-0.8c0-0.7-0.6-1.3-1.3-1.3c-0.7,0-1.3,0.6-1.3,1.3
					V31c0,0.7,0.6,1.3,1.3,1.3c0,0,0,0,0,0v0c4.3,0,7.8-3.5,7.8-7.8C152.2,20.1,148.7,16.6,144.4,16.6L144.4,16.6z"/>
			</defs>
			<use xlink:href="#SVGID_7_"  style="overflow:visible;fill:#575756;"/>
			<clipPath id="SVGID_8_">
				<use xlink:href="#SVGID_7_"  style="overflow:visible;"/>
			</clipPath>
			<rect x="143.1" y="16.6" class="st4" width="9.1" height="15.6"/>
		</g>
		<g>
			<defs>
				<path id="SVGID_9_" d="M139.7,22.5c0,0.6,0.5,1.1,1.1,1.1c0.6,0,1.1-0.5,1.1-1.1c0-0.6-0.5-1.1-1.1-1.1
					C140.2,21.4,139.7,21.9,139.7,22.5"/>
			</defs>
			<use xlink:href="#SVGID_9_"  style="overflow:visible;fill:#575756;"/>
			<clipPath id="SVGID_10_">
				<use xlink:href="#SVGID_9_"  style="overflow:visible;"/>
			</clipPath>
			<rect x="139.7" y="21.4" class="st5" width="2.2" height="2.2"/>
		</g>
		<g>
			<path class="st0" d="M158.7,20.8c-3.1,0-5.5,2.1-5.5,5.5c0,3.2,1.8,5.5,4.7,5.5c1.5,0,2.8-0.7,3.5-1.9v1.1c0,0.2,0.2,0.4,0.4,0.4
				h1.8c0.2,0,0.4-0.2,0.4-0.4v-4.8C164.1,22.7,161.8,20.8,158.7,20.8z M158,28.3c-1.2,0-2.2-1-2.2-2.2c0-1.2,1-2.2,2.2-2.2
				c1.2,0,2.2,1,2.2,2.2C160.2,27.3,159.2,28.3,158,28.3z"/>
		</g>
	</g>
	<g>
		<path class="st0" d="M144.9,39.1c0.1,0,0.1,0,0.2,0.1c0.2,0.4,0.6,0.5,1,0.5c0.4,0,1-0.1,1-0.6c0-0.9-2.6-0.2-2.6-1.8
			c0-0.9,0.8-1.3,1.7-1.3c0.7,0,1.3,0.2,1.6,1c0,0.1,0,0.1-0.1,0.1l-0.4,0.2c-0.1,0-0.1,0-0.1-0.1c-0.2-0.4-0.6-0.6-1-0.6
			c-0.4,0-1,0.1-1,0.6c0,0.8,2.6,0.2,2.6,1.7c0,0.9-0.8,1.3-1.7,1.3c-0.7,0-1.4-0.3-1.6-1c0-0.1,0-0.1,0.1-0.1L144.9,39.1z"/>
		<path class="st0" d="M155.1,38.2v1.9c0,0.1,0,0.1-0.1,0.1h-0.5c-0.1,0-0.1,0-0.1-0.1v-0.5c-0.4,0.5-0.9,0.7-1.4,0.7
			c-1.2,0-2.1-0.7-2.1-2.2c0-1.3,0.9-2.2,2.1-2.2C154.2,36,155.1,36.8,155.1,38.2z M154.4,38.2c0-0.9-0.5-1.5-1.4-1.5
			c-0.9,0-1.4,0.6-1.4,1.5c0,0.9,0.5,1.5,1.4,1.5C153.9,39.7,154.4,39.1,154.4,38.2z"/>
		<path class="st0" d="M160,40.1c0,0.1,0,0.1-0.1,0.1h-0.5c-0.1,0-0.1,0-0.1-0.1v-4.9c0-0.1,0-0.1,0.1-0.1h0.5c0.1,0,0.1,0,0.1,0.1
			V40.1z"/>
		<path class="st0" d="M166.9,36.3c0-0.1,0-0.1,0.1-0.1h0.5c0.1,0,0.1,0,0.1,0.1v2.1c0,1.3-0.8,2-2,2c-1.1,0-2-0.7-2-2v-2.1
			c0-0.1,0-0.1,0.1-0.1h0.5c0.1,0,0.1,0,0.1,0.1v2.1c0,1.1,0.7,1.4,1.3,1.4c0.5,0,1.3-0.3,1.3-1.4V36.3z"/>
		<path class="st0" d="M174.7,34.5c0.1,0,0.1,0,0.1,0.1v3.6c0,1.4-0.9,2.2-2.1,2.2c-1.2,0-2.1-0.9-2.1-2.2c0-1.4,0.9-2.2,2.1-2.2
			c0.5,0,1.1,0.2,1.4,0.7v-2.1c0-0.1,0-0.1,0.1-0.1H174.7z M174.1,38.2c0-0.9-0.5-1.5-1.4-1.5c-0.9,0-1.4,0.6-1.4,1.5
			c0,0.9,0.5,1.5,1.4,1.5C173.6,39.7,174.1,39.1,174.1,38.2z"/>
	</g>
</g>
<g>
	<g>
		<path id="path14_1_" class="st0" d="M134.7,87.5c0.1,0,4.3,0,4.4,0c0-0.1-2.2-4.3-2.2-4.4C136.8,83.1,134.7,87.4,134.7,87.5"/>
		<path id="path16_1_" class="st0" d="M139.5,97.2c0.1,0,4.3,0,4.4,0c0-0.1-2.2-4.3-2.3-4.4C141.7,92.8,139.6,97.1,139.5,97.2"/>
		<path id="path18_1_" class="st0" d="M137.1,92.6c0,0.1,2.2,4.3,2.2,4.4c0-0.1,2.2-4.4,2.2-4.4C141.4,92.6,137.1,92.6,137.1,92.6"
			/>
		<path id="path20_1_" class="st0" d="M134.7,97.2c0.1,0,4.3,0,4.4,0c0-0.1-2.2-4.3-2.2-4.4C136.8,92.8,134.7,97.1,134.7,97.2"/>
		<path id="path22_1_" class="st0" d="M129.8,97.2c0.1,0,4.3,0,4.4,0c0-0.1-2.2-4.3-2.2-4.4C132,92.8,129.8,97.1,129.8,97.2"/>
		<path id="path24_1_" class="st0" d="M132.2,92.6c0,0.1,2.2,4.3,2.2,4.4c0-0.1,2.2-4.4,2.2-4.4C136.6,92.6,132.3,92.6,132.2,92.6"
			/>
		<path id="path26_1_" class="st0" d="M137.1,92.3c0.1,0,4.3,0,4.4,0c0-0.1-2.2-4.3-2.2-4.4C139.3,88,137.1,92.3,137.1,92.3"/>
		<path id="path28_1_" class="st0" d="M132.2,92.3c0.1,0,4.3,0,4.4,0c0-0.1-2.2-4.3-2.2-4.4C134.4,88,132.3,92.3,132.2,92.3"/>
		<path id="path30_1_" class="st0" d="M134.7,87.8c0,0.1,2.2,4.3,2.2,4.4c0-0.1,2.2-4.4,2.2-4.4C139,87.8,134.7,87.8,134.7,87.8"/>
		<path id="path32_1_" class="st0" d="M134.7,97.4c0,0.1,2.2,4.3,2.2,4.4c0-0.1,2.2-4.4,2.2-4.4C139,97.4,134.7,97.4,134.7,97.4"/>
		<g>
			<path class="st0" d="M149,100.4c0,0.2-0.1,0.4-0.3,0.5c-0.1,0.1-0.3,0.2-0.6,0.2c-0.3,0-0.5-0.1-0.6-0.3
				c-0.2-0.2-0.2-0.4-0.2-0.8v-0.2c0-0.2,0-0.4,0.1-0.5c0.1-0.2,0.2-0.3,0.3-0.4c0.1-0.1,0.3-0.1,0.5-0.1c0.2,0,0.4,0.1,0.6,0.2
				c0.1,0.1,0.2,0.3,0.3,0.5h-0.3c0-0.2-0.1-0.3-0.2-0.4c-0.1-0.1-0.2-0.1-0.4-0.1c-0.2,0-0.3,0.1-0.4,0.2c-0.1,0.1-0.2,0.3-0.2,0.6
				v0.2c0,0.2,0.1,0.4,0.2,0.6c0.1,0.1,0.2,0.2,0.4,0.2c0.2,0,0.3,0,0.4-0.1c0.1-0.1,0.1-0.2,0.2-0.4H149z"/>
			<path class="st0" d="M150.1,99.7c0,0-0.1,0-0.1,0c-0.2,0-0.3,0.1-0.4,0.2v1.2h-0.3v-1.6h0.3l0,0.2c0.1-0.1,0.2-0.2,0.4-0.2
				c0.1,0,0.1,0,0.1,0V99.7z"/>
			<path class="st0" d="M151.1,101.1c-0.2,0-0.4-0.1-0.6-0.2c-0.1-0.1-0.2-0.3-0.2-0.6v-0.1c0-0.2,0-0.3,0.1-0.4
				c0.1-0.1,0.2-0.2,0.3-0.3c0.1-0.1,0.2-0.1,0.4-0.1c0.2,0,0.4,0.1,0.5,0.2s0.2,0.3,0.2,0.6v0.1h-1.1c0,0.2,0.1,0.3,0.1,0.4
				c0.1,0.1,0.2,0.2,0.4,0.2c0.1,0,0.2,0,0.3-0.1c0.1,0,0.1-0.1,0.2-0.2l0.2,0.1C151.6,101,151.4,101.1,151.1,101.1z M151,99.7
				c-0.1,0-0.2,0-0.3,0.1c-0.1,0.1-0.1,0.2-0.1,0.3h0.8v0c0-0.1,0-0.3-0.1-0.3C151.3,99.7,151.2,99.7,151,99.7z"/>
			<path class="st0" d="M153.1,101.1c0,0,0-0.1,0-0.2c-0.1,0.1-0.3,0.2-0.5,0.2c-0.2,0-0.3,0-0.4-0.1c-0.1-0.1-0.2-0.2-0.2-0.3
				c0-0.2,0.1-0.3,0.2-0.4c0.1-0.1,0.3-0.1,0.6-0.1h0.3V100c0-0.1,0-0.2-0.1-0.2c-0.1-0.1-0.1-0.1-0.3-0.1c-0.1,0-0.2,0-0.3,0.1
				c-0.1,0.1-0.1,0.1-0.1,0.2H152c0-0.1,0-0.2,0.1-0.2c0.1-0.1,0.1-0.1,0.2-0.2c0.1,0,0.2-0.1,0.3-0.1c0.2,0,0.3,0,0.5,0.1
				c0.1,0.1,0.2,0.2,0.2,0.4v0.8c0,0.2,0,0.3,0.1,0.4v0H153.1z M152.6,100.9c0.1,0,0.2,0,0.3-0.1c0.1,0,0.1-0.1,0.2-0.2v-0.3h-0.2
				c-0.4,0-0.5,0.1-0.5,0.3c0,0.1,0,0.2,0.1,0.2C152.4,100.9,152.5,100.9,152.6,100.9z"/>
			<path class="st0" d="M154.2,99v0.4h0.3v0.2h-0.3v1c0,0.1,0,0.1,0,0.1c0,0,0.1,0,0.1,0c0,0,0.1,0,0.1,0v0.2c-0.1,0-0.1,0-0.2,0
				c-0.1,0-0.2,0-0.3-0.1c-0.1-0.1-0.1-0.2-0.1-0.3v-1h-0.3v-0.2h0.3V99H154.2z"/>
			<path class="st0" d="M154.8,99c0,0,0-0.1,0-0.1c0,0,0.1,0,0.1,0c0.1,0,0.1,0,0.1,0c0,0,0,0.1,0,0.1c0,0,0,0.1,0,0.1
				c0,0-0.1,0-0.1,0c-0.1,0-0.1,0-0.1,0C154.8,99.1,154.8,99.1,154.8,99z M155.1,101.1h-0.3v-1.6h0.3V101.1z"/>
			<path class="st0" d="M156.1,100.7l0.4-1.3h0.3l-0.6,1.6H156l-0.6-1.6h0.3L156.1,100.7z"/>
			<path class="st0" d="M157.8,101.1c-0.2,0-0.4-0.1-0.6-0.2c-0.1-0.1-0.2-0.3-0.2-0.6v-0.1c0-0.2,0-0.3,0.1-0.4
				c0.1-0.1,0.2-0.2,0.3-0.3c0.1-0.1,0.2-0.1,0.4-0.1c0.2,0,0.4,0.1,0.5,0.2s0.2,0.3,0.2,0.6v0.1h-1.1c0,0.2,0.1,0.3,0.1,0.4
				c0.1,0.1,0.2,0.2,0.4,0.2c0.1,0,0.2,0,0.3-0.1c0.1,0,0.1-0.1,0.2-0.2l0.2,0.1C158.3,101,158.1,101.1,157.8,101.1z M157.8,99.7
				c-0.1,0-0.2,0-0.3,0.1s-0.1,0.2-0.1,0.3h0.8v0c0-0.1,0-0.3-0.1-0.3C158,99.7,157.9,99.7,157.8,99.7z"/>
			<path class="st0" d="M160.3,100.1c-0.3-0.1-0.4-0.2-0.6-0.3c-0.1-0.1-0.2-0.2-0.2-0.4c0-0.2,0.1-0.3,0.2-0.4
				c0.1-0.1,0.3-0.2,0.6-0.2c0.2,0,0.3,0,0.4,0.1c0.1,0.1,0.2,0.1,0.3,0.2s0.1,0.2,0.1,0.3h-0.3c0-0.1,0-0.2-0.1-0.3
				c-0.1-0.1-0.2-0.1-0.4-0.1c-0.1,0-0.3,0-0.3,0.1c-0.1,0.1-0.1,0.2-0.1,0.3c0,0.1,0,0.2,0.1,0.2c0.1,0.1,0.2,0.1,0.4,0.2
				c0.2,0.1,0.3,0.1,0.4,0.2c0.1,0.1,0.2,0.1,0.2,0.2c0.1,0.1,0.1,0.2,0.1,0.3c0,0.2-0.1,0.3-0.2,0.4c-0.1,0.1-0.3,0.2-0.6,0.2
				c-0.2,0-0.3,0-0.4-0.1c-0.1-0.1-0.2-0.1-0.3-0.2c-0.1-0.1-0.1-0.2-0.1-0.3h0.3c0,0.1,0.1,0.2,0.2,0.3c0.1,0.1,0.2,0.1,0.4,0.1
				c0.2,0,0.3,0,0.4-0.1c0.1-0.1,0.1-0.1,0.1-0.3c0-0.1,0-0.2-0.1-0.3S160.5,100.2,160.3,100.1z"/>
			<path class="st0" d="M161.4,100.3c0-0.2,0-0.3,0.1-0.4s0.2-0.2,0.3-0.3c0.1-0.1,0.2-0.1,0.4-0.1c0.2,0,0.4,0.1,0.6,0.2
				s0.2,0.4,0.2,0.6v0c0,0.2,0,0.3-0.1,0.4c-0.1,0.1-0.2,0.2-0.3,0.3c-0.1,0.1-0.2,0.1-0.4,0.1c-0.2,0-0.4-0.1-0.6-0.2
				C161.4,100.7,161.4,100.5,161.4,100.3L161.4,100.3z M161.6,100.3c0,0.2,0,0.3,0.1,0.4c0.1,0.1,0.2,0.2,0.3,0.2
				c0.1,0,0.3-0.1,0.3-0.2c0.1-0.1,0.1-0.3,0.1-0.5c0-0.2,0-0.3-0.1-0.4c-0.1-0.1-0.2-0.2-0.3-0.2c-0.1,0-0.3,0.1-0.3,0.2
				C161.7,99.9,161.6,100.1,161.6,100.3z"/>
			<path class="st0" d="M163.4,101.1v-1.4h-0.3v-0.2h0.3v-0.2c0-0.2,0-0.3,0.1-0.4c0.1-0.1,0.2-0.1,0.4-0.1c0.1,0,0.1,0,0.2,0l0,0.2
				c0,0-0.1,0-0.2,0c-0.1,0-0.2,0-0.2,0.1c-0.1,0.1-0.1,0.1-0.1,0.2v0.2h0.4v0.2h-0.4v1.4H163.4z"/>
			<path class="st0" d="M164.7,99v0.4h0.3v0.2h-0.3v1c0,0.1,0,0.1,0,0.1c0,0,0.1,0,0.1,0c0,0,0.1,0,0.1,0v0.2c-0.1,0-0.1,0-0.2,0
				c-0.1,0-0.2,0-0.3-0.1c-0.1-0.1-0.1-0.2-0.1-0.3v-1h-0.3v-0.2h0.3V99H164.7z"/>
			<path class="st0" d="M166.9,100.7l0.3-1.3h0.3l-0.5,1.6h-0.2l-0.4-1.3l-0.4,1.3h-0.2l-0.5-1.6h0.3l0.3,1.2l0.4-1.2h0.2
				L166.9,100.7z"/>
			<path class="st0" d="M168.8,101.1c0,0,0-0.1,0-0.2c-0.1,0.1-0.3,0.2-0.5,0.2c-0.2,0-0.3,0-0.4-0.1c-0.1-0.1-0.2-0.2-0.2-0.3
				c0-0.2,0.1-0.3,0.2-0.4c0.1-0.1,0.3-0.1,0.6-0.1h0.3V100c0-0.1,0-0.2-0.1-0.2c-0.1-0.1-0.1-0.1-0.3-0.1c-0.1,0-0.2,0-0.3,0.1
				c-0.1,0.1-0.1,0.1-0.1,0.2h-0.3c0-0.1,0-0.2,0.1-0.2c0.1-0.1,0.1-0.1,0.2-0.2c0.1,0,0.2-0.1,0.3-0.1c0.2,0,0.3,0,0.5,0.1
				c0.1,0.1,0.2,0.2,0.2,0.4v0.8c0,0.2,0,0.3,0.1,0.4v0H168.8z M168.3,100.9c0.1,0,0.2,0,0.3-0.1c0.1,0,0.1-0.1,0.2-0.2v-0.3h-0.2
				c-0.4,0-0.5,0.1-0.5,0.3c0,0.1,0,0.2,0.1,0.2C168.1,100.9,168.2,100.9,168.3,100.9z"/>
			<path class="st0" d="M170.3,99.7c0,0-0.1,0-0.1,0c-0.2,0-0.3,0.1-0.4,0.2v1.2h-0.3v-1.6h0.3l0,0.2c0.1-0.1,0.2-0.2,0.4-0.2
				c0.1,0,0.1,0,0.1,0V99.7z"/>
			<path class="st0" d="M171.2,101.1c-0.2,0-0.4-0.1-0.6-0.2c-0.1-0.1-0.2-0.3-0.2-0.6v-0.1c0-0.2,0-0.3,0.1-0.4
				c0.1-0.1,0.2-0.2,0.3-0.3c0.1-0.1,0.2-0.1,0.4-0.1c0.2,0,0.4,0.1,0.5,0.2s0.2,0.3,0.2,0.6v0.1h-1.1c0,0.2,0.1,0.3,0.1,0.4
				c0.1,0.1,0.2,0.2,0.4,0.2c0.1,0,0.2,0,0.3-0.1c0.1,0,0.1-0.1,0.2-0.2l0.2,0.1C171.7,101,171.5,101.1,171.2,101.1z M171.2,99.7
				c-0.1,0-0.2,0-0.3,0.1c-0.1,0.1-0.1,0.2-0.1,0.3h0.8v0c0-0.1,0-0.3-0.1-0.3C171.4,99.7,171.3,99.7,171.2,99.7z"/>
			<path class="st0" d="M173,101.1v-2.2h0.6c0.2,0,0.4,0,0.5,0.1c0.2,0.1,0.3,0.2,0.3,0.4c0.1,0.2,0.1,0.3,0.1,0.5v0.1
				c0,0.2,0,0.4-0.1,0.6c-0.1,0.2-0.2,0.3-0.4,0.4c-0.2,0.1-0.3,0.1-0.5,0.1H173z M173.3,99.1v1.7h0.3c0.2,0,0.4-0.1,0.5-0.2
				c0.1-0.1,0.2-0.3,0.2-0.6v-0.1c0-0.3-0.1-0.4-0.2-0.6c-0.1-0.1-0.3-0.2-0.5-0.2H173.3z"/>
			<path class="st0" d="M175.7,101.1c-0.2,0-0.4-0.1-0.6-0.2c-0.1-0.1-0.2-0.3-0.2-0.6v-0.1c0-0.2,0-0.3,0.1-0.4
				c0.1-0.1,0.2-0.2,0.3-0.3c0.1-0.1,0.2-0.1,0.4-0.1c0.2,0,0.4,0.1,0.5,0.2s0.2,0.3,0.2,0.6v0.1h-1.1c0,0.2,0.1,0.3,0.1,0.4
				c0.1,0.1,0.2,0.2,0.4,0.2c0.1,0,0.2,0,0.3-0.1c0.1,0,0.1-0.1,0.2-0.2l0.2,0.1C176.2,101,176,101.1,175.7,101.1z M175.7,99.7
				c-0.1,0-0.2,0-0.3,0.1c-0.1,0.1-0.1,0.2-0.1,0.3h0.8v0c0-0.1,0-0.3-0.1-0.3C175.9,99.7,175.8,99.7,175.7,99.7z"/>
			<path class="st0" d="M177.3,100.7l0.4-1.3h0.3l-0.6,1.6h-0.2l-0.6-1.6h0.3L177.3,100.7z"/>
			<path class="st0" d="M178.9,101.1c-0.2,0-0.4-0.1-0.6-0.2c-0.1-0.1-0.2-0.3-0.2-0.6v-0.1c0-0.2,0-0.3,0.1-0.4
				c0.1-0.1,0.2-0.2,0.3-0.3c0.1-0.1,0.2-0.1,0.4-0.1c0.2,0,0.4,0.1,0.5,0.2c0.1,0.1,0.2,0.3,0.2,0.6v0.1h-1.1
				c0,0.2,0.1,0.3,0.1,0.4c0.1,0.1,0.2,0.2,0.4,0.2c0.1,0,0.2,0,0.3-0.1c0.1,0,0.1-0.1,0.2-0.2l0.2,0.1
				C179.4,101,179.2,101.1,178.9,101.1z M178.9,99.7c-0.1,0-0.2,0-0.3,0.1c-0.1,0.1-0.1,0.2-0.1,0.3h0.8v0c0-0.1,0-0.3-0.1-0.3
				C179.1,99.7,179,99.7,178.9,99.7z"/>
			<path class="st0" d="M180.2,101.1h-0.3v-2.3h0.3V101.1z"/>
			<path class="st0" d="M180.6,100.3c0-0.2,0-0.3,0.1-0.4c0.1-0.1,0.2-0.2,0.3-0.3c0.1-0.1,0.2-0.1,0.4-0.1c0.2,0,0.4,0.1,0.6,0.2
				c0.1,0.2,0.2,0.4,0.2,0.6v0c0,0.2,0,0.3-0.1,0.4c-0.1,0.1-0.2,0.2-0.3,0.3c-0.1,0.1-0.2,0.1-0.4,0.1c-0.2,0-0.4-0.1-0.6-0.2
				C180.7,100.7,180.6,100.5,180.6,100.3L180.6,100.3z M180.9,100.3c0,0.2,0,0.3,0.1,0.4c0.1,0.1,0.2,0.2,0.3,0.2
				c0.1,0,0.3-0.1,0.3-0.2c0.1-0.1,0.1-0.3,0.1-0.5c0-0.2,0-0.3-0.1-0.4c-0.1-0.1-0.2-0.2-0.3-0.2c-0.1,0-0.3,0.1-0.3,0.2
				C180.9,99.9,180.9,100.1,180.9,100.3z"/>
			<path class="st0" d="M183.9,100.3c0,0.3-0.1,0.5-0.2,0.6c-0.1,0.2-0.3,0.2-0.5,0.2c-0.2,0-0.4-0.1-0.5-0.2v0.8h-0.3v-2.3h0.3
				l0,0.2c0.1-0.1,0.3-0.2,0.5-0.2c0.2,0,0.4,0.1,0.5,0.2C183.8,99.8,183.9,100,183.9,100.3L183.9,100.3z M183.6,100.3
				c0-0.2,0-0.3-0.1-0.4c-0.1-0.1-0.2-0.2-0.3-0.2c-0.2,0-0.3,0.1-0.4,0.2v0.8c0.1,0.2,0.2,0.2,0.4,0.2c0.1,0,0.2-0.1,0.3-0.2
				C183.6,100.6,183.6,100.5,183.6,100.3z"/>
			<path class="st0" d="M184.5,99.4l0,0.2c0.1-0.1,0.3-0.2,0.5-0.2c0.2,0,0.4,0.1,0.5,0.3c0.1-0.1,0.1-0.1,0.2-0.2
				c0.1,0,0.2-0.1,0.3-0.1c0.4,0,0.6,0.2,0.6,0.6v1.1h-0.3V100c0-0.1,0-0.2-0.1-0.3c-0.1-0.1-0.1-0.1-0.3-0.1c-0.1,0-0.2,0-0.3,0.1
				c-0.1,0.1-0.1,0.1-0.1,0.3v1.1h-0.3V100c0-0.2-0.1-0.4-0.4-0.4c-0.2,0-0.3,0.1-0.4,0.2v1.2h-0.3v-1.6H184.5z"/>
			<path class="st0" d="M187.7,101.1c-0.2,0-0.4-0.1-0.6-0.2c-0.1-0.1-0.2-0.3-0.2-0.6v-0.1c0-0.2,0-0.3,0.1-0.4
				c0.1-0.1,0.2-0.2,0.3-0.3c0.1-0.1,0.2-0.1,0.4-0.1c0.2,0,0.4,0.1,0.5,0.2c0.1,0.1,0.2,0.3,0.2,0.6v0.1h-1.1
				c0,0.2,0.1,0.3,0.1,0.4c0.1,0.1,0.2,0.2,0.4,0.2c0.1,0,0.2,0,0.3-0.1c0.1,0,0.1-0.1,0.2-0.2l0.2,0.1
				C188.2,101,188,101.1,187.7,101.1z M187.7,99.7c-0.1,0-0.2,0-0.3,0.1c-0.1,0.1-0.1,0.2-0.1,0.3h0.8v0c0-0.1,0-0.3-0.1-0.3
				C187.9,99.7,187.8,99.7,187.7,99.7z"/>
			<path class="st0" d="M189,99.4l0,0.2c0.1-0.2,0.3-0.2,0.5-0.2c0.4,0,0.5,0.2,0.5,0.6v1.1h-0.3V100c0-0.1,0-0.2-0.1-0.3
				c-0.1-0.1-0.1-0.1-0.3-0.1c-0.1,0-0.2,0-0.2,0.1c-0.1,0-0.1,0.1-0.2,0.2v1.2h-0.3v-1.6H189z"/>
			<path class="st0" d="M190.8,99v0.4h0.3v0.2h-0.3v1c0,0.1,0,0.1,0,0.1c0,0,0.1,0,0.1,0c0,0,0.1,0,0.1,0v0.2c-0.1,0-0.1,0-0.2,0
				c-0.1,0-0.2,0-0.3-0.1c-0.1-0.1-0.1-0.2-0.1-0.3v-1h-0.3v-0.2h0.3V99H190.8z"/>
		</g>
	</g>
	<polygon class="st0" points="146.1,90.8 147.1,90.1 147.3,90 147.4,89.9 147.4,89.9 147.4,90 147.4,97.1 148.8,97.1 148.8,87.7 
		146.1,89.3 	"/>
	<path class="st0" d="M156.2,90.8c0-2.2-1.5-3.2-3.1-3.2c-1.5,0-3.1,1-3.1,3.2v3.4c0,2.2,1.5,3.2,3.1,3.2c1.5,0,3.1-1,3.1-3.2V90.8z
		 M154.8,94.3c0,1.2-0.8,1.7-1.7,1.7c-0.8,0-1.7-0.5-1.7-1.7v-3.6c0-1.2,0.8-1.7,1.7-1.7c0.8,0,1.7,0.5,1.7,1.7V94.3z"/>
	<path class="st0" d="M162.4,94.1c2,0,3.3-1.3,3.3-3.1c0-1.9-1.3-3.1-3.3-3.1h-4v9.3h1.4v-3v0h0H162.4z M159.8,92.7v-3.6v0h0h2.4
		c1.5,0,2,1,2,1.8c0,0.8-0.5,1.8-2,1.8L159.8,92.7L159.8,92.7L159.8,92.7z"/>
	<g>
		<rect x="166.5" y="89.8" class="st0" width="1.4" height="7.3"/>
	</g>
	<path class="st0" d="M167.2,87.5c-0.4,0-0.8,0.4-0.8,0.8c0,0.4,0.4,0.8,0.8,0.8c0.4,0,0.8-0.4,0.8-0.8
		C168.1,87.9,167.7,87.5,167.2,87.5z"/>
	<path class="st0" d="M173,89.6c-0.9,0-1.6,0.4-2.1,1.1c-0.2,0.2-0.3,0.5-0.3,0.5l-0.1,0.1v-0.1v-1.4h-1.4v7.3h1.4V93
		c0-1.2,0.8-2,1.9-2c1.2,0,1.9,0.7,1.9,2v4.1h1.4v-4.4C175.8,91,174.6,89.6,173,89.6z"/>
	<path class="st0" d="M180.7,89.7c-2.6,0-4,2-4,3.8c0,1.9,1.4,3.8,4,3.8c1.2,0,2.4-0.6,3.3-1.6l0,0l-1.1-0.6l0,0
		c-0.6,0.7-1.3,1.1-2.2,1.1c-1.3,0-2.3-0.9-2.4-2.1l0-0.1l0,0h0h6.2v-0.2C184.4,90.9,182.2,89.7,180.7,89.7z M182.8,92.8h-4.6h0l0,0
		l0-0.1c0.3-1.1,1.1-1.8,2.2-1.8c1.1,0,2,0.7,2.3,1.8L182.8,92.8L182.8,92.8L182.8,92.8z"/>
	<path class="st0" d="M189.2,93l-1.6-0.3c-0.9-0.2-1.1-0.6-1.1-0.9c0-0.7,0.7-1,1.5-1c0.7,0,1.3,0.3,1.9,0.8l0,0l0.8-1l-0.1,0
		c-0.9-0.6-1.8-0.9-2.8-0.9c-1.9,0-2.8,1.2-2.8,2.4c0,0.9,0.4,1.6,2.6,2l0.9,0.2c0.7,0.1,1.1,0.5,1.1,1c0,0.5-0.6,1-1.6,1
		c-0.8,0-1.7-0.4-2.3-1l0,0l-1,1l0.1,0c1,0.8,2,1.2,3.2,1.2c2.1,0,3.1-1.3,3.1-2.4C191.1,93.9,190.5,93.3,189.2,93z"/>
</g>
<g>
	<g>
		<g>
			<path class="st0" d="M53.1,95.6c0.1,0,0.4-0.2,0.7-0.3c0.3-0.2,0.6-0.4,1-0.7c0.7-0.5,1.3-1.1,1.7-1.5c0.3-0.3,0.5-0.5,0.7-0.7
				c0.2-0.1-0.2,0.2-0.7,0.7c-0.2,0.2-0.5,0.5-0.8,0.8c0.5-0.3,0.9-0.6,1.2-0.9c0.2-0.2,0.4-0.4,0.6-0.6c0.9-0.9,1.7-1.9,2.4-2.9
				c0.1-0.1,0.1-0.2,0.2-0.4c0.1-0.1,0.2-0.3,0.3-0.5c0.2-0.3,0.3-0.7,0.4-0.9c-0.1,0.5-0.3,0.9-0.6,1.3c-0.2,0.4-0.5,0.8-0.8,1.2
				c-0.5,0.8-1.2,1.5-1.8,2.1l0.1-0.1c0.7-0.7,1.3-1.4,1.9-2.2c0.1-0.1,0.2-0.3,0.3-0.4c-0.1,0.1-0.2,0.3-0.3,0.4
				c-0.2,0.4-0.5,0.7-0.8,1.1c-0.2,0.2-0.4,0.5-0.6,0.7c-0.2,0.2-0.3,0.3-0.5,0.5l-0.3,0.3c0,0-0.1,0.1-0.1,0.1c0,0,0,0,0,0
				c0.2-0.1,0.9-0.8,1.7-1.5c0.4-0.4,0.7-0.8,1-1.2c0.3-0.4,0.4-0.7,0.5-0.8c0.2-0.5,0.3-0.9,0.4-1.5c0-0.1,0-0.2,0.1-0.3
				c0-0.1,0-0.2,0-0.2c0,0,0-0.1,0-0.2c0-0.1,0-0.2,0-0.3c0-0.1-0.1-0.2-0.1-0.3c-0.1-0.2-0.3-0.3-0.4-0.4c-0.1-0.1-0.2-0.2-0.4-0.4
				c-0.1-0.1-0.3-0.3-0.3-0.2c-0.2,0.2-0.1,0-0.5-0.1c-0.1,0-0.3,0-0.4,0c-0.4-0.1-0.5-0.1-0.9-0.1c-0.6,0-0.8-0.2-1.3-0.1
				c0,0-0.3,0-0.5,0c-0.2,0-0.4,0-0.4,0c-0.1,0-0.2-0.1-0.4-0.1c-0.1,0-0.2,0-0.3-0.1c-0.1,0-0.2-0.1-0.2-0.2c0-0.1,0-0.2,0-0.2
				c0-0.1,0.1-0.1,0.1-0.2c0-0.1,0.1-0.2,0.2-0.4c0.1-0.1,0.2-0.3,0.3-0.4c0.3-0.2,0.6-0.4,0.8-0.6c0.5-0.4,0.8-0.4,1.4-0.6
				c0.1-0.1,0.3-0.1,0.4-0.1c0.1,0,0.3-0.2,0.4-0.2l0,0.1c0.1,0,0.2-0.1,0.2-0.1c0.1,0,0,0,0,0c0,0,0,0.1,0.1,0.1
				c0.2-0.1,0.4-0.1,0.7-0.2c0.2-0.1,0.4-0.2,0.6-0.3c0,0,0-0.1,0-0.1l0.2-0.1c0-0.1,0-0.1,0-0.2c-0.1-0.2,0.2-0.4,0-0.5
				c0,0,0,0-0.1,0c0,0-0.1,0-0.2,0c-0.1,0-0.3,0.1-0.4,0.1c0,0,0-0.1,0-0.2c-0.2,0.1-0.3,0-0.2-0.1c-0.1,0-0.1,0-0.1,0
				c0,0,0-0.1,0-0.1c-0.6,0.1-1.3,0.3-1.8,0.6c-0.1,0.1-0.3,0.2-0.4,0.3c-0.1,0-0.2,0.1-0.3,0.1c-0.1,0.1,0,0.1,0,0.2
				c-0.2,0.1-0.5,0.2-0.8,0.4c-0.3,0.2-0.4,0.3-0.4,0.4c-0.3,0.2-0.3,0.3-0.6,0.6c-0.2,0.2-0.3,0.3-0.5,0.6c0,0.1-0.1,0.1-0.1,0.2
				l-0.1,0.1l-0.1,0.1c-0.1,0.2-0.1,0.3-0.2,0.5c0,0.1,0,0.2,0,0.3c0,0.1,0.1,0.2,0.1,0.3c0.1,0.1,0.2,0.1,0.3,0.2
				c0.1,0.1,0.2,0.1,0.3,0.1c0.1,0,0.1,0,0.2,0.1l0.1,0c0.1,0,0.2,0.1,0.3,0.1c0.6,0.1,1.1,0.2,1.7,0.3c0.5,0.1,1,0.2,1.5,0.3
				c0.5,0.1,0.9,0.3,1.3,0.5c0.2,0.1,0.3,0.2,0.3,0.4l0,0l0,0l0,0.1c0,0.1,0,0.1,0,0.2c0,0.1,0,0.1,0,0.2c0,0.1,0,0.1,0,0.2
				c-0.1,0.5-0.3,1.1-0.6,1.6c-0.3,0.5-0.6,1-1,1.4c-0.7,0.9-1.5,1.7-2.2,2.4c-1.5,1.4-2.8,2.2-3.2,2.5L53.1,95.6L53.1,95.6z"/>
		</g>
		<path class="st0" d="M66,89.4c0-0.1,0-0.1,0-0.2c0-0.1-0.1-0.1-0.1-0.1c-0.1-0.1-0.2-0.3-0.4-0.3c0,0-0.2,0.2-0.3,0.3
			c0,0-0.1-0.1-0.1-0.1C65.1,89,65,89,65,88.9c0,0,0,0,0,0c0,0-0.1-0.1-0.1-0.1c-0.1,0.1-0.3,0.2-0.4,0.3c-0.1,0.1-0.3,0.2-0.4,0.3
			c0,0-0.1,0.1-0.2,0.2c0,0,0,0,0,0c0,0,0,0,0,0c0,0.1,0,0.1,0,0.2c0,0-0.1,0-0.1-0.1c0,0,0,0,0,0c0,0,0,0,0,0
			c0.1-0.1,0.2-0.2,0.2-0.3c-0.1,0.1-0.2,0.2-0.3,0.2c-0.1,0-0.1,0-0.2,0.1c0,0,0-0.1-0.1-0.1c-0.1-0.3-0.2-0.6-0.3-1
			c-0.1-0.2-0.1-0.4-0.1-0.6c0-0.1,0-0.1,0-0.2c0-0.4,0-0.7,0-1.1c0-0.3,0.1-0.7,0.1-1c0.1-0.3,0.1-0.6,0.2-1c0-0.2,0.1-0.4,0-0.6
			c0-0.2-0.1-0.5-0.2-0.7c0-0.1-0.1-0.1-0.2-0.2l-0.2-0.2l-0.2,0.2c-0.3,0.4-0.4,0.8-0.5,1.1c-0.1,0.4-0.2,0.7-0.2,1.1
			c-0.1,0.7-0.2,1.5-0.2,2.1c0,0.3,0,0.6,0.1,1c0.1,0.3,0.2,0.6,0.5,0.8c0.2,0.2,0.4,0.3,0.6,0.3c0.1,0.2,0.1,0.4,0.3,0.7
			c0.1,0.1,0.2,0.2,0.3,0.2c0.1,0,0.2,0,0.3,0.1c0.1,0,0.2,0,0.3,0c0.1,0,0.2-0.1,0.4-0.1c0.1-0.1,0.2-0.1,0.3-0.1
			c0.1,0,0.2-0.2,0.3-0.3l0,0.1c0,0,0.1-0.1,0.1-0.1c0,0,0,0,0,0c0,0,0,0.1,0.1,0.1c0.2-0.1,0.3-0.2,0.4-0.4
			C65.9,89.8,66,89.6,66,89.4C66,89.4,66,89.4,66,89.4z M62.6,85C62.6,85,62.6,85,62.6,85C62.6,85,62.6,85,62.6,85
			C62.6,85,62.6,85,62.6,85c0-0.1,0.1-0.2,0.1-0.3C62.7,84.7,62.6,84.9,62.6,85z M62.5,85.3C62.5,85.3,62.5,85.3,62.5,85.3
			c0,0.1,0,0.1-0.1,0.2C62.5,85.4,62.5,85.3,62.5,85.3C62.5,85.3,62.5,85.3,62.5,85.3z M62.8,89.7c-0.1,0-0.2-0.1-0.2-0.1
			c-0.1-0.1-0.1-0.1-0.2-0.2c-0.2-0.3-0.3-0.6-0.4-0.9C62,88.2,62,87.9,62,87.8c0-0.3,0-0.5,0-0.7c0-0.1,0,0.2,0,0.7
			c0,0.2,0,0.5,0.1,0.8c0-0.4,0-0.8,0.1-1c0-0.2,0-0.4,0-0.6c0-0.8,0.2-1.6,0.4-2.4c0-0.1,0.1-0.3,0.2-0.5c0,0,0,0,0,0c0,0,0,0,0,0
			c0,0,0,0,0,0c-0.1,0.3-0.2,0.7-0.3,1c0,0,0,0.1,0,0.1c0,0,0,0,0,0c-0.1,0.6-0.2,1.1-0.2,1.7c0,0,0-0.1,0-0.1
			c0-0.4,0.1-0.8,0.2-1.2c0,0,0,0.1,0,0.1c0,0,0,0.1,0,0.1c0,0.2-0.1,0.4-0.1,0.6c0,0.2-0.1,0.3-0.1,0.4c0,0.1,0,0.2,0,0.3
			c0,0,0,0.1,0,0.1c0,0,0,0,0,0c0.1-0.1,0.1-0.4,0.2-0.8c0,0,0,0,0,0.1c0,0.4-0.1,0.5,0,0.9c0,0,0,0.2,0.1,0.3
			c0,0.2,0.1,0.3,0.1,0.3c0,0.5,0.2,0.7,0.1,1.1c0.1,0.2,0.2,0.4,0.2,0.6C62.9,89.7,62.9,89.7,62.8,89.7z M63.7,89.9
			C63.8,89.9,63.8,89.9,63.7,89.9C63.8,89.9,63.8,89.9,63.7,89.9C63.7,89.9,63.7,89.9,63.7,89.9z"/>
		<g>
			<path class="st0" d="M46.4,76c-0.1,0.7-0.2,2.1-0.4,3.6c-0.1,1.5-0.3,3.1-0.4,4.1c-0.1,0.7-0.2,1.3-0.2,1.7
				c-0.1,0.4,0.1-0.5,0.2-1.7c0.1-0.6,0.1-1.2,0.2-2c-0.2,1-0.3,1.9-0.5,2.6c-0.1,0.5-0.1,1-0.2,1.5C45,86.9,44.8,88,44.6,89
				c-0.2,1.1-0.4,2.2-0.8,3.2c-0.1,0.4-0.3,1-0.6,1.5c-0.1,0.1-0.2,0.3-0.2,0.4c-0.1,0.1-0.2,0.2-0.2,0.2c-0.1,0.1-0.2,0.1-0.3,0.1
				c0,0-0.1,0-0.1,0c0,0-0.1,0-0.1,0c0.1,0,0.1,0,0.2,0c0.1,0,0.1-0.1,0.2-0.1c0.1-0.1,0.2-0.2,0.3-0.3c0.2-0.3,0.4-0.7,0.5-1
				c0.3-0.7,0.5-1.5,0.7-2.3c0.4-1.6,0.6-3.2,0.8-4.8c0,0.1,0,0.2,0,0.3c-0.2,1.7-0.5,3.4-0.9,5c-0.1,0.3-0.1,0.6-0.2,0.8
				c0.1-0.3,0.2-0.6,0.2-0.8c0.2-0.7,0.3-1.5,0.4-2.3c0.1-0.5,0.2-1.1,0.3-1.6c0.1-0.4,0.2-0.8,0.2-1.2l0.1-0.8c0-0.1,0-0.2,0-0.2
				c0,0,0,0,0,0c-0.1,0.3-0.4,2.1-0.8,3.8c-0.2,0.9-0.4,1.8-0.6,2.5c-0.2,0.7-0.4,1.3-0.5,1.5c-0.1,0.2-0.1,0.4-0.2,0.5
				c0,0.1-0.1,0.2-0.1,0.3L42.8,94l0,0l0,0c0,0,0,0,0,0c0,0.1-0.1,0.2-0.2,0.2c-0.1,0-0.1,0.1-0.2,0.1c-0.1,0-0.1-0.1-0.1-0.1
				c0-0.1-0.1-0.2-0.1-0.2c0,0,0-0.1,0-0.1c0,0,0-0.1,0-0.1l0-0.1c0,0-0.1-0.1-0.1-0.2c-0.1-0.6-0.2-1.2-0.3-1.7
				c-0.1-0.3,0.1-1.3,0.1-1.4c-0.3-0.2-0.1-0.1-0.1-0.9c0-0.1-0.1-0.4-0.1-0.6c0-0.7-0.1-0.8-0.3-1.6c-0.1-0.6-0.2-0.9-0.2-1.2
				c0-0.2-0.1-0.3-0.1-0.5c0-0.1-0.1-0.2-0.1-0.3c0-0.1,0-0.1-0.1-0.2c0,0-0.1-0.1-0.1-0.2c0,0-0.1-0.2-0.2-0.4
				c-0.1-0.2-0.3-0.4-0.5-0.4c-0.1,0-0.2,0-0.3,0.1c-0.1,0-0.2,0.1-0.3,0.2c-0.1,0.1-0.1,0.1-0.2,0.2c0,0-0.1,0.1-0.1,0.1
				c-0.1,0.1-0.1,0.1-0.2,0.2c0,0-0.1,0.1-0.1,0.1c0,0,0,0.1-0.1,0.1c-0.1,0.1-0.2,0.2-0.2,0.3c-0.1,0.2-0.2,0.4-0.4,0.6
				c-0.2,0.4-0.4,0.8-0.7,1.2c-0.2,0.5-0.5,1.1-0.9,1.6c-0.2,0.3-0.4,0.5-0.6,0.7c0,0.1-0.1,0.1-0.2,0.1c0,0-0.1,0.1-0.1,0.1
				c-0.1,0.1-0.2,0.1-0.3,0.1c0,0-0.1,0-0.1,0c0,0-0.1,0-0.1-0.1c0,0-0.1-0.1-0.1-0.1c0,0,0-0.1-0.1-0.1c0,0,0-0.1-0.1-0.1
				c0,0,0-0.1-0.1-0.1c0,0,0-0.1,0-0.1c0-0.1,0-0.2-0.1-0.3c-0.1-0.4-0.1-0.7-0.1-1.2c0-0.3-0.1-0.5-0.1-0.7c0-0.2-0.1-0.6-0.1-0.8
				l0.1,0.1c0-0.1,0-0.3,0-0.4c0-0.1,0-0.1,0-0.1c0,0,0.1,0.1,0.1-0.1c0-0.4,0-0.8,0-1.2c0-0.4-0.1-0.8-0.1-1.2c0,0-0.1,0-0.1-0.1
				l-0.1-0.4c-0.1-0.1-0.1,0-0.2-0.1c-0.2,0-0.3-0.5-0.5-0.4c0,0.1-0.1,0.8-0.1,1.1c0,0.1-0.1-0.1-0.1-0.2c0,0.4-0.1,0.4-0.1,0.3
				c0,0.1,0,0.2,0,0.2c0,0-0.1-0.1-0.1-0.1c0,1.1-0.1,2.3,0.1,3.3c0,0.2,0.1,0.6,0.2,0.8c0,0.1,0.1,0.4,0.1,0.5
				c0.1,0.2,0.2,0.1,0.2,0.2c0,0.3,0.1,0.7,0.3,1.1c0,0.1,0.1,0.2,0.1,0.3c0,0.1,0.1,0.1,0.1,0.2c0,0.1,0.1,0.1,0.1,0.2
				c0.1,0.1,0.2,0.2,0.3,0.3c0.1,0.1,0.2,0.1,0.3,0.2c0.1,0,0.2,0,0.3,0c0.1,0,0.1,0,0.2,0c0.1,0,0.2-0.1,0.1-0.1
				c0.2-0.1,0.4-0.2,0.5-0.3c0.1-0.1,0.1-0.1,0.1-0.1c0,0,0.1-0.1,0.1-0.1c0.1-0.2,0.2-0.4,0.4-0.6c0.5-0.7,1-1.7,1.4-2.6
				c0.3-0.5,0.5-1,0.8-1.4l0-0.1l0,0l0.1-0.1c0,0,0.1-0.1,0.1-0.1c0.1-0.1,0.1-0.1,0.2-0.1c0.1,0,0.2,0,0.2,0
				c0.1,0.1,0.2,0.3,0.2,0.4l0,0l0,0.1l0,0.2c0,0.1,0.1,0.2,0.1,0.3c0,0.2,0.1,0.5,0.1,0.7c0.1,0.9,0.2,1.8,0.3,2.7
				c0.1,0.9,0.2,1.8,0.3,2.7c0.1,0.5,0.1,0.9,0.2,1.4c0,0.1,0.1,0.2,0.1,0.4l0.1,0.2c0,0.1,0,0.1,0.1,0.2c0.1,0.3,0.2,0.7,0.5,0.8
				c0.1,0,0.1,0.1,0.2,0.1c0,0,0.1,0,0.1,0c0,0,0.1,0,0.1,0l0.1,0c0,0,0.1,0,0.1,0c0.1,0,0.1-0.1,0.2-0.1c0.1,0,0.1-0.1,0.2-0.2
				l0.2-0.2c0,0,0.1-0.1,0.1-0.1l0.1-0.1l0.1-0.2c0.3-0.5,0.4-1,0.6-1.5c0.3-1,0.5-2,0.7-3c0.4-2,0.6-4,0.9-5.7
				c0.4-3.5,0.7-6.3,0.8-7.3L46.4,76z"/>
		</g>
		<g>
			<path class="st0" d="M52.3,96.1c0-0.3-0.1-0.6-0.2-1.1c-0.1-0.5-0.2-1-0.2-1.6c-0.1-1.1-0.1-2.3-0.1-3c0-0.5,0.1-1,0.1-1.3
				c0-0.3,0,0.3-0.1,1.3c0,0.4,0,0.9,0,1.5c0-0.7,0.1-1.4,0.2-1.9c0-0.4,0-0.7,0.1-1.1c0-0.4,0.1-0.8,0.1-1.2c0-0.4,0.1-0.8,0.2-1.2
				c0.1-0.4,0.1-0.9,0.2-1.3c0-0.2,0-0.4,0-0.6c0-0.1,0-0.2,0-0.3c0,0,0-0.1,0-0.1c0,0,0,0,0-0.1c0,0-0.1,0-0.1,0
				c-0.2,0.1-0.4,0.2-0.6,0.4c-0.2,0.2-0.4,0.4-0.6,0.7c-0.2,0.3-0.4,0.5-0.5,0.7c0.1-0.1,0.2-0.3,0.3-0.4c0.1-0.1,0.2-0.3,0.3-0.4
				c0.1-0.1,0.2-0.2,0.3-0.3c0.1-0.1,0.2-0.2,0.3-0.3c0.2-0.2,0.3-0.3,0.5-0.4l0.1,0c0,0,0,0,0.1,0c0.1,0,0.1,0.1,0.1,0.1
				c0,0.1,0,0.2,0,0.3c0,0.2,0,0.4,0,0.6c0,0.2-0.1,0.5-0.1,0.8l-0.1,0.8l-0.1,0.7c-0.1,0.5-0.1,0.9-0.1,1.4c0-0.1,0-0.1,0-0.2
				c0-0.3,0.1-0.6,0.1-0.9l0.1-0.5l0.1-0.5l0.2-1.2c0.1-0.4,0.1-0.7,0.1-1c0-0.1,0-0.2,0-0.3c0-0.1,0-0.2-0.1-0.3
				c0.1,0.1,0.1,0.2,0.1,0.3c0,0.1,0,0.2,0,0.3c0,0.2,0,0.5,0,0.8c0,0.3-0.1,0.7-0.1,1.1c0,0.2-0.1,0.5-0.1,0.7
				c0,0.2-0.1,0.4-0.1,0.6c0,0.3-0.1,0.6-0.2,0.9l-0.1,0.6c0,0.1,0,0.1,0,0.2c0,0,0,0,0,0c0-0.1,0.1-0.5,0.2-1
				c0-0.3,0.1-0.5,0.2-0.8c0-0.2,0.1-0.3,0.1-0.5c0-0.2,0.1-0.5,0.1-0.7c0-0.3,0.1-0.5,0.1-0.8c0-0.3,0.1-0.5,0.1-0.7
				c0-0.2,0-0.4,0-0.5c0-0.1-0.1-0.2-0.1-0.3c0,0,0-0.1-0.1-0.1c0,0,0-0.1-0.1-0.1c-0.1,0-0.1,0-0.2,0c0,0-0.1,0-0.1,0
				c0,0-0.1,0-0.1,0c0,0-0.1,0-0.1,0c-0.1,0-0.1,0.1-0.2,0.1l-0.1,0c-0.1,0.1-0.3,0.2-0.4,0.4c-0.1,0.2-0.2,0.3-0.4,0.5
				c-0.2,0.4-0.5,0.8-0.7,1.2c0,0.1-0.1,0.1-0.1,0.2c0,0.1-0.1,0.1-0.1,0.2c-0.1,0.1-0.1,0.2-0.1,0.3c0,0,0,0.1,0,0.2
				c-0.2,0.4-0.5,0.8-0.6,1.2c-0.1,0.2-0.7,0.7-0.7,0.8c0.1,0.3,0,0.1-0.2,0.6c0,0.1-0.1,0.3-0.1,0.4c-0.3,0.4-0.3,0.6-0.5,1
				c-0.2,0.3-0.3,0.5-0.5,0.7l-0.1,0.1c0,0,0,0-0.1,0.1c0,0-0.1,0.1-0.2,0.2c0,0,0,0,0,0c0,0-0.1,0-0.1,0c-0.1,0-0.2,0-0.2-0.1
				c-0.1-0.1-0.1-0.2-0.1-0.2c0-0.1,0-0.1,0-0.1c0,0,0-0.1,0-0.1c0,0,0-0.1,0-0.1c0-0.1,0-0.2,0-0.3c0-0.2,0-0.3,0-0.5
				c0-0.3,0.1-0.6,0.2-0.9c0-0.8,0.5-1.8,0.7-2.6c0.1-0.4,0.3-0.7,0.4-0.9c0.1-0.1,0.2-0.2,0.2-0.3c0.1-0.1,0.2-0.2,0.3-0.4
				c0.1-0.2,0.2-0.3,0.3-0.4c0.1-0.1,0.2-0.3,0.3-0.4l0,0.1c0,0,0.1,0,0.1-0.1c0,0,0,0,0,0c0,0,0,0,0,0c0,0,0,0,0,0
				c0,0,0,0.1,0.1,0.1c0.1,0,0.1,0,0.1,0.1c0,0,0,0,0,0c0,0,0,0,0,0l0,0l0,0c0,0,0,0,0,0.1c0,0,0.1,0.1,0.1,0.1c0,0,0.1,0,0.1,0
				c0,0.1,0.1,0.1,0.1,0.2c0.1,0,0.1,0,0.2,0c0.2,0,0.4,0.3,0.6,0.2c0,0,0-0.2,0-0.3c0-0.2,0-0.4,0-0.5c0-0.1,0.1,0,0.2,0.1
				c-0.1-0.3-0.1-0.4,0-0.3c0-0.1-0.1-0.2-0.1-0.2c0,0,0.1,0,0.1,0c0-0.1,0-0.1-0.1-0.2c0-0.1-0.1-0.1-0.1-0.2
				c-0.1-0.2-0.2-0.3-0.3-0.4c-0.3-0.3-0.6-0.4-1-0.4l-0.1,0c0,0-0.1,0-0.1,0C49.1,83,49,83,49,83l-0.1,0.1l-0.1,0.1
				c-0.1,0-0.2,0.1-0.2,0.1l-0.1,0.1c0,0-0.1,0.1-0.1,0.1c-0.1,0.1-0.1,0.2-0.2,0.3c-0.1,0.1-0.3,0.4-0.3,0.6c0,0.1-0.2,0.2-0.2,0.3
				c0,0.1,0,0.2,0.1,0.2c-0.2,0.3-0.4,0.7-0.6,1c-0.1,0.4-0.2,0.6-0.1,0.7c-0.2,0.4-0.1,0.5-0.2,1c-0.2,0.6-0.3,1.4-0.4,2.1
				c0,0.4-0.1,0.8-0.1,1.3c0,0,0,0.1,0,0.1c0,0.1,0,0.1,0,0.2c0,0.1,0,0.2,0.1,0.3c0.1,0.3,0.2,0.5,0.4,0.7c0.1,0.1,0.2,0.1,0.3,0.2
				c0.1,0,0.2,0,0.4,0c0.1,0,0.1,0,0.1,0c0,0,0.1,0,0.1-0.1c0.1-0.1,0.2-0.1,0.3-0.2c0.1-0.1,0.2-0.1,0.2-0.2
				c0.1-0.1,0.1-0.1,0.2-0.2c0.2-0.2,0.4-0.5,0.5-0.8c0.3-0.5,0.6-1,0.8-1.5c0.3-0.5,0.5-1,0.7-1.6c0.1-0.3,0.2-0.5,0.4-0.8
				c0.1-0.1,0.1-0.3,0.2-0.4c0-0.1,0.1-0.2,0.1-0.3c0.1-0.3,0.3-0.7,0.6-1.1c0-0.1,0.1-0.1,0.1-0.2c0-0.1,0.1-0.1,0.1-0.1
				c0,0,0.1-0.1,0.2-0.1c0,0,0.1,0,0.1,0c0,0,0,0.1,0,0.1c0,0.2,0,0.5-0.1,0.7c-0.1,0.5-0.1,1.1-0.2,1.6c-0.2,1.3-0.3,2.5-0.3,3.7
				c0,1.1,0,2.1,0.1,2.9c0.1,0.8,0.2,1.4,0.3,1.8C52.1,95.8,52.2,95.9,52.3,96.1z"/>
		</g>
		<g>
			<path class="st0" d="M24.8,93.7c0.1-0.4,0.3-1.4,0.6-2.3c0.2-1,0.5-2,0.7-2.6c0.1-0.5,0.3-0.8,0.4-1.1c0.1-0.2-0.1,0.3-0.4,1.1
				c-0.1,0.4-0.2,0.8-0.4,1.3c0.2-0.6,0.5-1.2,0.6-1.6c0.1-0.3,0.2-0.6,0.3-1c0.4-1.4,0.9-2.8,1.4-4.1c0.2-0.5,0.6-1.6,0.9-2
				c-0.4,1-0.8,2-1.2,3c-0.4,1-0.7,2-1,3.1c0-0.1,0-0.1,0.1-0.2c0.3-1.1,0.7-2.1,1.1-3.2c0.1-0.2,0.1-0.4,0.2-0.5l-0.2,0.5
				c-0.2,0.5-0.3,0.9-0.5,1.5c-0.1,0.3-0.3,0.7-0.4,1c-0.1,0.3-0.2,0.5-0.3,0.7l-0.2,0.5c0,0,0,0.1,0,0.2c0,0,0,0,0,0
				c0.1-0.2,0.5-1.3,1-2.4c0.4-1.1,0.9-2.3,1-2.6c0.1-0.3,0.2-0.5,0.2-0.8c0-0.1,0.1-0.3,0.1-0.4c0-0.1,0-0.1,0.1-0.2
				c0-0.1,0-0.1,0.1-0.2c0.1-0.1,0.1-0.2,0.1-0.3c0,0,0-0.1,0-0.2c0.1-0.1,0.1-0.2,0.2-0.3c0,0,0,0,0.1,0c0,0,0,0,0,0
				c0,0,0,0.1,0.1,0.1c0,0,0,0.3,0,0.4c0,0.2-0.1,0.2,0,0.2c0.1,0,0.1,0,0.1,0c0,0,0,0,0,0.1c0,0,0,0.2,0,0.3c0,0.1,0.2,0.2,0.2,0.4
				c0.1,0.4,0.2,0.5,0.3,1c0.2,0.7,0.1,0.9,0.4,1.5c0,0.1,0.3,1.1,0.3,1.1c0.1,0.8,0.4,1.3,0.3,1.9c0.3,0.7,0.3,1.7,0.5,2.4
				c0.2,0.8,0.1,1.1,0.1,1.8c0,0.2,0.1,0.3,0,0.4c0,0.1,0.1,0.4,0.1,0.6l-0.1,0c0,0.1,0,0.2,0,0.3c0,0.1,0,0.1,0,0
				c0,0-0.1-0.1-0.1,0.1c0,0.3,0,0.5,0,0.8c0.1,0.3,0.1,0.5,0.2,0.8c0,0,0.1,0,0.1,0.1l0.1,0.2c0.1,0,0.1,0,0.2,0
				c0.2,0,0.4,0.3,0.5,0.2c0,0,0-0.5,0-0.7c0-0.1,0.1,0.1,0.2,0.1c0-0.3,0-0.3,0.1-0.2c0-0.1,0-0.1,0-0.1c0,0,0.1,0.1,0.1,0.1
				c0-0.7,0-1.5-0.2-2.2c0-0.1-0.1-0.4-0.2-0.5c0-0.1,0-0.3,0-0.3c-0.1-0.1-0.1-0.1-0.2-0.1c0-0.5-0.1-1.6-0.3-1.5
				c-0.1-0.4-0.2-0.5-0.3-0.9c-0.1-0.5-0.3-1.2-0.4-1.9c-0.1-0.4-0.2-0.7-0.2-1.1c0-0.1-0.1-0.3-0.1-0.4c-0.2-1.1-0.4-2.1-0.7-3
				c-0.1-0.2-0.1-0.5-0.2-0.7l-0.1-0.4l0-0.2L30.5,81c-0.1-0.3-0.2-0.7-0.4-1c-0.1-0.1-0.1-0.2-0.2-0.3c0,0-0.1-0.1-0.1-0.1
				c0,0-0.1,0-0.1,0c0,0,0,0,0,0l0,0c0,0,0,0,0,0c-0.1,0.1-0.2,0.1-0.3,0.2c-0.1,0.1-0.2,0.2-0.3,0.4c-0.2,0.3-0.3,0.7-0.5,1
				c-0.5,1.3-0.9,2.6-1.4,3.9c-0.4,1.3-0.8,2.5-1.2,3.6c-0.7,2.2-1.1,4-1.2,4.7L24.8,93.7z"/>
		</g>
		<g>
			<path class="st0" d="M32,88c-0.2,0-0.3-0.1-0.5-0.1c0,0,0,0,0,0c0,0,0,0,0,0l-0.1,0c0,0,0,0,0,0l0,0c0,0,0,0,0,0c0,0,0,0,0,0
				c0,0,0,0,0,0c0,0,0,0,0,0c0,0,0,0-0.1,0c0,0,0,0,0.1,0l0,0l0,0l-0.2,0c0,0,0,0,0,0c0,0-0.1,0-0.1,0l0,0c0,0,0,0,0,0c0,0,0,0,0,0
				l-0.1,0c0,0-0.1,0-0.1,0.1c0,0,0,0,0,0c0,0,0,0,0,0c0,0,0,0.1,0.1,0.1c0,0,0.1-0.1,0.1,0c0-0.1-0.1,0.1-0.1,0c0,0,0-0.1-0.1-0.1
				c0,0-0.1,0-0.1,0c0,0,0.1,0,0.1,0c0,0,0,0,0,0c0,0,0,0,0,0c0,0,0.1,0,0.1-0.1c-0.1,0-0.2,0-0.2,0c-0.5-0.1-1,0-1.6,0
				c-0.3,0-0.6,0-0.9,0c-0.3,0-0.6,0.1-0.8,0.1c-0.1,0-0.3,0.1-0.4,0.1c-0.1,0-0.3,0-0.4,0c-0.1,0-0.3,0-0.4,0.1
				c-0.1,0.1-0.3,0.1-0.4,0.2c-0.2,0.3,0.1,0.6,0.1,0.6c0.3,0.3,0.3,0,0.7,0.1c-0.3,0,0.1-0.3,0.4-0.1c0.2,0.1,0.4,0.1,0.6,0
				c0.2-0.1,0.4-0.2,0.6-0.2c0.1,0,0.2,0,0.3-0.1c0.6,0,1.1-0.2,1.7-0.2c0.2,0,0.3-0.1,0.4-0.2c0.1,0,0.2,0,0.3,0
				c0.1,0,0.2,0,0.4-0.1c-0.1,0-0.2,0-0.3,0c-0.1,0,0.1-0.1,0.1-0.1c0,0,0.1,0.1,0.1,0.1c0.1,0,0.1,0,0.2-0.1c0,0,0,0.1,0,0.1
				c0.1,0,0.2-0.1,0.2-0.1c0,0,0.1,0,0.1,0.1c0,0,0,0,0.1,0l0,0c0,0,0-0.1,0-0.1c0,0,0,0,0.1,0c0,0,0,0-0.1,0c0,0,0,0.1,0,0.1
				c0.1,0,0.2-0.1,0.4-0.1l0,0c-0.1,0-0.1,0-0.2-0.1c0,0,0,0.1,0,0.1l0-0.1C31.9,88,32,88,32,88C32,88.1,32.1,88.1,32,88
				c0.1,0.1,0.1,0.1,0.1,0.1c0,0,0,0,0,0C32.1,88.1,32,88,32,88z"/>
			<path class="st0" d="M31.3,87.9C31.3,87.9,31.3,87.9,31.3,87.9l-0.1,0C31.2,88,31.3,87.9,31.3,87.9z"/>
		</g>
		<path class="st0" d="M63.7,80.6c-0.1-0.2-0.1-0.3-0.2-0.5c0,0,0-0.1-0.1-0.1c0,0-0.1-0.1-0.1-0.1c0,0-0.1,0-0.1,0
			c-0.1,0-0.2,0.1-0.2,0.1c0,0-0.1,0.1-0.1,0.1c-0.1,0.1-0.2,0.2-0.2,0.3c-0.1,0.1-0.1,0.1-0.1,0.2l0.1,0.1c0,0,0.1,0,0.1-0.1
			c0,0,0,0,0,0.1c0,0,0,0,0,0c0,0-0.1,0-0.1,0c0,0,0,0,0,0c0,0-0.1,0-0.1,0c-0.1,0.1-0.2,0.2-0.2,0.3c0,0,0,0.1,0.1,0.1c0,0,0,0,0,0
			c0,0,0.1,0,0.2,0c-0.1,0.1-0.1,0.3,0.1,0.2c0,0.1,0.1,0.1,0.1,0.1c0,0,0,0.1,0.1,0.1c0,0,0.1,0.1,0.1,0.1c0,0,0.1,0.1,0.2,0.1
			c0.1,0,0.1,0,0.1,0c0,0,0.1,0,0.1-0.1c0.1,0,0.1-0.1,0.1-0.1c0,0,0,0,0-0.1c0-0.1,0.1-0.2,0.1-0.2c0-0.1,0.1-0.1,0.1-0.2
			C63.7,80.9,63.8,80.8,63.7,80.6z"/>
	</g>
	<g>
		<g>
			<path class="st0" d="M64.8,106.8c0.4,0.4-0.3,0.8-1.6,0.7s-1.4-0.8-1.7-0.6c-0.5,0.3-0.5,0.6-0.5,0.8c0.1,0.2,0.4,0.5,0.6,0.4
				c0.3-0.1,0.6-0.3,0.9-0.2s-0.4,0.1-0.4,0.3c0,0.1,0.3,0.1,0.4,0.2c0.1,0.2-0.5,0.1-0.4,0.3s-0.2,0.2-0.6-0.1
				c-0.3-0.2-0.4-0.1-0.9-0.3c-0.5-0.2-0.4-0.8-0.4-0.8s-1,0.3-1.9,0.1c-0.9-0.2-1,0-1,0s0.1,0.7-0.3,1.1c-0.4,0.3-0.8-0.1-1.1-0.2
				c-0.3-0.1,0.2,0.4,0,0.5c-0.1,0.1,0-0.1-0.2-0.2c-0.1-0.1-0.1,0.2-0.2,0.4c-0.1,0.2-0.1-0.1-0.2-0.3c0-0.2,0-0.2-0.2-0.1
				c-0.2,0.1-0.1,0.1-0.1-0.2c0-0.3,0.3-0.8,0.5-0.7s0.6,0.2,0.8,0c0.3-0.2-0.7-0.6-0.7-0.6s-3.4-1.1-7.5-1.6c-4.1-0.5-8,1.6-8,1.6
				s5-3.2,11.4-1.7c3.7,0.9,5,0.4,4.3-0.2c-0.2-0.2-0.2-0.1-0.6,0s-0.4-0.1-0.5-0.4c-0.1-0.3-0.4-0.2-0.3-0.4s0.4,0.2,0.2-0.3
				c-0.1-0.2,0.1-0.3,0.3-0.1c0.2,0.3,0.2-0.1,0.4-0.1s-0.3,0.4,0,0.7c0.2,0.1,0.4-0.2,1.2-0.2c0.4,0,0.4,1.1,0.4,1.1
				s0.4-0.5,1.7-0.6s1.6,0.3,1.7,0.2c0.1-0.2-0.2-0.6,0.1-0.9c0.4-0.3,0.9,0,1.1,0.1c0.2,0.1,0.3-0.1,0.4-0.3s0.2,0,0.1,0.4
				c-0.1,0.4,0,0,0.3-0.1c0.2,0-0.3,0.2,0,0.2s0.3,0.1,0.1,0.3s-0.4,0.1-0.9-0.2c-0.5-0.3-0.4,0.1-0.2,0.5c0,0,0.2,0.4,0.8,0.3
				S63.3,105,64.8,106.8z"/>
		</g>
	</g>
</g>
<g>
	<g>
		<path class="st0" d="M256.7,103.8h0.3l1.1,1.7l1.1-1.7h0.3v3h-0.3v-2.5l-1.1,1.6h0l-1.1-1.6v2.5h-0.3V103.8z"/>
		<path class="st0" d="M262.5,105.6v-1.8h0.3v1.7c0,0.7,0.3,1,0.9,1c0.6,0,0.9-0.3,0.9-1v-1.8h0.3v1.7c0,0.9-0.5,1.3-1.3,1.3
			C263,106.9,262.5,106.4,262.5,105.6z"/>
		<path class="st0" d="M267.9,103.8h2.2v0.3h-1.9v1h1.7v0.3h-1.7v1.1h1.9v0.3h-2.2V103.8z"/>
		<path class="st0" d="M272.9,103.8h1.3c0.3,0,0.6,0.1,0.8,0.3c0.1,0.1,0.2,0.3,0.2,0.5v0c0,0.4-0.2,0.6-0.5,0.7
			c0.4,0.1,0.7,0.3,0.7,0.7v0c0,0.5-0.4,0.8-1.1,0.8h-1.4V103.8z M274.1,105.2c0.4,0,0.7-0.2,0.7-0.5v0c0-0.3-0.2-0.5-0.7-0.5h-0.9
			v1H274.1z M274.2,106.5c0.5,0,0.7-0.2,0.7-0.5v0c0-0.3-0.3-0.5-0.8-0.5h-1v1.1H274.2z"/>
		<path class="st0" d="M278.1,103.8h0.3v2.7h1.7v0.3h-2.1V103.8z"/>
		<path class="st0" d="M282.8,103.8h2.2v0.3h-1.9v1h1.7v0.3h-1.7v1.1h1.9v0.3h-2.2V103.8z"/>
		<path class="st0" d="M287.6,106.4l0.2-0.3c0.3,0.3,0.6,0.4,1,0.4c0.4,0,0.7-0.2,0.7-0.5v0c0-0.3-0.2-0.4-0.8-0.6
			c-0.7-0.2-1-0.4-1-0.9v0c0-0.5,0.4-0.8,1-0.8c0.4,0,0.8,0.1,1.1,0.4l-0.2,0.3c-0.3-0.2-0.6-0.3-0.9-0.3c-0.4,0-0.6,0.2-0.6,0.5v0
			c0,0.3,0.2,0.4,0.8,0.6c0.7,0.1,1,0.4,1,0.9v0c0,0.5-0.4,0.9-1,0.9C288.4,106.9,288,106.7,287.6,106.4z"/>
	</g>
	<g>
		<g>
			<path class="st0" d="M246.8,89.9c0.9,0,1.4,0.5,1.4,0.5l-0.4,0.7c0,0-0.4-0.4-0.9-0.4c-0.7,0-1.1,0.5-1.1,1.1
				c0,0.6,0.4,1.1,1.1,1.1c0.6,0,1-0.5,1-0.5l0.5,0.7c0,0-0.5,0.6-1.5,0.6c-1.2,0-2-0.8-2-1.9C244.8,90.7,245.7,89.9,246.8,89.9z"/>
			<path class="st0" d="M252,89.9h0.9v3h1.5v0.8H252V89.9z"/>
			<path class="st0" d="M260.1,92.9H259l-0.2,0.8h-0.9l1.3-3.8h1l1.3,3.8h-0.9L260.1,92.9z M259.5,90.8c0,0-0.1,0.4-0.2,0.6
				l-0.2,0.7h0.7l-0.2-0.7C259.6,91.2,259.6,90.8,259.5,90.8L259.5,90.8z"/>
			<path class="st0" d="M264.8,89.9h0.9v2.4c0,0.4,0.3,0.6,0.7,0.6c0.4,0,0.7-0.2,0.7-0.6v-2.4h0.9v2.4c0,0.8-0.6,1.4-1.6,1.4
				c-1,0-1.6-0.6-1.6-1.4V89.9z"/>
			<path class="st0" d="M271.9,89.9h1.3c1.2,0,1.9,0.7,1.9,1.9c0,1.2-0.8,1.9-1.9,1.9h-1.3V89.9z M273.2,92.9c0.6,0,1-0.4,1-1.1
				c0-0.7-0.4-1.1-1-1.1h-0.4v2.2H273.2z"/>
			<path class="st0" d="M279,89.9h0.9v3.8H279V89.9z"/>
			<path class="st0" d="M285.8,92.9h-1.2l-0.2,0.8h-0.9l1.3-3.8h1l1.3,3.8H286L285.8,92.9z M285.2,90.8c0,0-0.1,0.4-0.2,0.6
				l-0.2,0.7h0.7l-0.2-0.7C285.3,91.2,285.2,90.8,285.2,90.8L285.2,90.8z"/>
		</g>
		<path class="st0" d="M294.6,84.6h-0.5h-56.2V99h56.2h0.5h13.9V84.6H294.6z M294.1,98.5h-55.7V85.1h55.7V98.5z M308,98.5h-13.5
			V85.1H308V98.5z"/>
		<g>
			<path class="st0" d="M299.6,89.9h1l0.5,1.6c0.1,0.2,0.2,0.6,0.2,0.6h0c0,0,0.1-0.4,0.2-0.6l0.5-1.6h1l0.3,3.8h-0.9l-0.1-1.7
				c0-0.3,0-0.6,0-0.6h0c0,0-0.1,0.4-0.2,0.6l-0.4,1.1h-0.8l-0.4-1.1c-0.1-0.2-0.2-0.6-0.2-0.6h0c0,0,0,0.3,0,0.6l-0.1,1.7h-0.9
				L299.6,89.9z"/>
		</g>
	</g>
</g>
</svg>
