<?xml version="1.0" encoding="utf-8"?>
<!-- Generator: Adobe Illustrator 24.3.0, SVG Export Plug-In . SVG Version: 6.00 Build 0)  -->
<svg version="1.1" id="Layer_1" xmlns="http://www.w3.org/2000/svg" xmlns:xlink="http://www.w3.org/1999/xlink" x="0px" y="0px"
	 viewBox="0 0 205 157.6" style="enable-background:new 0 0 205 157.6;" xml:space="preserve">
<style type="text/css">
	.st0{fill:#696BA8;}
	.st1{fill:#FFFFFF;}
	.st2{fill:none;}
	.st3{fill:#A9C6C8;}
	.st4{fill:none;stroke:#FFFFFF;stroke-width:1.8438;stroke-miterlimit:10;}
	.st5{fill:#825A92;}
	.st6{fill:#C45979;}
	.st7{fill:#D38BB6;}
	.st8{fill:#FFFFFF;stroke:#FFFFFF;stroke-width:0.5041;stroke-miterlimit:10;}
	.st9{fill:#AB863F;}
</style>
<g>
	<text transform="matrix(1 0 0 1 348.5221 137.7252)" class="st0" style="font-family:'Poppins-Regular'; font-size:22.8667px;">Diseño Gráfico</text>
	<g>
		<circle class="st0" cx="431.9" cy="48.8" r="48.8"/>
		<g>
			<path class="st1" d="M445,61.6h-2c-0.6,0-1-0.4-1-1c0-0.6,0.4-1,1-1h2c2.8,0,5-2.2,5-5c0-2.8-2.2-5-5-5h-2c-0.6,0-1-0.4-1-1
				c0-0.6,0.4-1,1-1h2c3.9,0,7,3.1,7,7C452,58.5,448.8,61.6,445,61.6L445,61.6z M445,61.6"/>
			<path class="st1" d="M439,71.6h-18c-2.8,0-5-2.2-5-5v-22c0-0.6,0.4-1,1-1h19.4l4.5-8.1c-0.4-0.4-0.7-0.8-0.9-1.3
				c-0.4-1-0.4-2.2,0.1-3.3c0.2-0.6,0.7-1.1,1.1-1.6c1.1-1.4,1.8-2.4,0.7-4c-0.2-0.3-0.2-0.8,0-1.1c0.2-0.3,0.7-0.5,1.1-0.4
				c2.9,0.7,4.9,2.7,5.6,5.6c0.6,2.6-0.1,5.2-1.7,6.6c-0.6,0.5-1.2,0.8-1.9,0.9l-2.5,6.8h0.6c0.6,0,1,0.4,1,1v22
				C444,69.4,441.7,71.6,439,71.6L439,71.6z M418,45.6v21c0,1.7,1.3,3,3,3h18c1.7,0,3-1.3,3-3v-21h-5c0,0,0,0,0,0H418z M438.7,43.6
				h1.6l2.6-6.9c-0.1,0-0.2-0.1-0.3-0.1L438.7,43.6z M442.8,34.5c0.1,0.1,0.2,0.1,0.4,0.2c1,0.4,1.8,0.3,2.4-0.2
				c1-0.9,1.5-2.8,1-4.6c-0.3-1.4-1.1-2.5-2.2-3.3c0.1,1.7-0.9,3-1.7,4c-0.3,0.4-0.7,0.8-0.8,1.2c-0.3,0.6-0.3,1.2-0.1,1.7
				c0.1,0.4,0.4,0.7,0.8,0.9c0,0,0,0,0,0C442.7,34.4,442.8,34.4,442.8,34.5L442.8,34.5z M442.8,34.5"/>
			<path class="st1" d="M425,45.6h-6c-0.4,0-0.7-0.2-0.9-0.6l-3-6c-0.1-0.1-0.1-0.2-0.1-0.3l-1-6c-0.1-0.4,0.1-0.8,0.4-1
				c0.3-0.2,0.7-0.2,1.1,0l5,3c0.1,0.1,0.2,0.1,0.3,0.3c0,0,0,0,0,0c0,0,0,0,0,0c0,0,0,0,0,0l0,0l0,0l0,0c0,0,0,0,0,0v0l0,0
				c0,0,0.1,0.1,0.1,0.1l5,9c0.2,0.3,0.2,0.7,0,1C425.7,45.4,425.3,45.6,425,45.6L425,45.6z M419.6,43.6h3.7l-3.6-6.5l-2.4,1.8
				L419.6,43.6z M416.3,34.6l0.4,2.2l1.5-1.1L416.3,34.6z M416.3,34.6"/>
			<rect x="414" y="23.6" class="st2" width="38.1" height="48.1"/>
			<path class="st1" d="M435,45.6h-8c-0.6,0-1-0.4-1-1v-20c0-0.6,0.4-1,1-1h8c0.6,0,1,0.4,1,1v20C436,45.2,435.5,45.6,435,45.6
				L435,45.6z M428,43.6h6v-2h-1c-0.6,0-1-0.4-1-1c0-0.6,0.4-1,1-1h1v-2h-3c-0.6,0-1-0.4-1-1c0-0.6,0.4-1,1-1h3v-2h-1
				c-0.6,0-1-0.4-1-1c0-0.6,0.4-1,1-1h1v-2h-3c-0.6,0-1-0.4-1-1c0-0.6,0.4-1,1-1h3v-2h-6V43.6z M428,43.6"/>
		</g>
	</g>
</g>
<g>
	<g>
		<path class="st3" d="M530.5,137.3c-0.8-0.4-1.5-0.9-2-1.6s-0.7-1.4-0.7-2.3h2.2c0.1,0.7,0.4,1.4,0.9,1.9c0.5,0.5,1.3,0.8,2.4,0.8
			c1,0,1.8-0.2,2.3-0.7s0.9-1.1,0.9-1.9c0-0.6-0.2-1.1-0.5-1.5c-0.3-0.4-0.8-0.7-1.3-0.9s-1.2-0.4-2-0.6c-1.1-0.3-1.9-0.5-2.5-0.8
			c-0.6-0.3-1.2-0.7-1.6-1.3c-0.5-0.6-0.7-1.4-0.7-2.4c0-0.9,0.2-1.6,0.7-2.3s1.1-1.2,1.9-1.6c0.8-0.4,1.7-0.5,2.8-0.5
			c1.5,0,2.7,0.4,3.7,1.1c1,0.7,1.5,1.7,1.6,3h-2.3c-0.1-0.6-0.4-1.1-1-1.6c-0.6-0.5-1.3-0.7-2.2-0.7c-0.9,0-1.6,0.2-2.1,0.7
			s-0.8,1.1-0.8,1.9c0,0.6,0.2,1.1,0.5,1.4c0.3,0.4,0.7,0.6,1.2,0.8c0.5,0.2,1.2,0.4,2,0.7c1.1,0.3,1.9,0.6,2.5,0.9
			c0.6,0.3,1.2,0.7,1.6,1.3c0.5,0.6,0.7,1.4,0.7,2.4c0,0.8-0.2,1.5-0.6,2.2c-0.4,0.7-1,1.2-1.8,1.7c-0.8,0.4-1.8,0.6-2.9,0.6
			C532.2,137.9,531.3,137.7,530.5,137.3z"/>
		<path class="st3" d="M552.5,125.2v12.5h-2.1v-1.9c-0.4,0.6-0.9,1.1-1.7,1.5c-0.7,0.4-1.5,0.5-2.3,0.5c-1,0-1.9-0.2-2.6-0.6
			c-0.8-0.4-1.4-1-1.8-1.8c-0.5-0.8-0.7-1.8-0.7-2.9v-7.3h2.1v7.1c0,1.2,0.3,2.2,0.9,2.8s1.5,1,2.6,1c1.1,0,2-0.3,2.6-1
			c0.6-0.7,1-1.7,1-3v-6.9H552.5z"/>
		<path class="st3" d="M557.7,137.4c-0.8-0.3-1.4-0.8-1.8-1.4c-0.4-0.6-0.7-1.3-0.7-2h2.1c0.1,0.6,0.4,1.1,0.9,1.5
			c0.5,0.4,1.2,0.6,2.1,0.6c0.8,0,1.4-0.2,1.9-0.5c0.5-0.4,0.7-0.8,0.7-1.3c0-0.5-0.2-1-0.7-1.2c-0.5-0.3-1.2-0.5-2.3-0.8
			c-0.9-0.2-1.7-0.5-2.3-0.7c-0.6-0.3-1.1-0.6-1.5-1.1c-0.4-0.5-0.6-1.1-0.6-2c0-0.6,0.2-1.2,0.6-1.8c0.4-0.5,0.9-1,1.6-1.3
			s1.5-0.5,2.4-0.5c1.4,0,2.5,0.4,3.4,1.1c0.9,0.7,1.3,1.7,1.4,2.9h-2.1c0-0.7-0.3-1.2-0.8-1.6c-0.5-0.4-1.1-0.6-1.9-0.6
			c-0.7,0-1.3,0.2-1.8,0.5s-0.7,0.7-0.7,1.3c0,0.4,0.1,0.8,0.4,1c0.3,0.3,0.6,0.5,1,0.6c0.4,0.2,1,0.3,1.7,0.5
			c0.9,0.2,1.6,0.5,2.2,0.7c0.6,0.2,1,0.6,1.5,1.1c0.4,0.5,0.6,1.1,0.6,1.9c0,0.7-0.2,1.3-0.6,1.9s-0.9,1-1.6,1.3
			c-0.7,0.3-1.5,0.5-2.4,0.5C559.3,137.9,558.5,137.8,557.7,137.4z"/>
		<path class="st3" d="M570.1,126.9v7.4c0,0.6,0.1,1,0.4,1.3c0.3,0.3,0.7,0.4,1.3,0.4h1.5v1.8h-1.9c-1.2,0-2-0.3-2.6-0.8
			c-0.6-0.5-0.9-1.4-0.9-2.6v-7.4h-1.6v-1.7h1.6V122h2.1v3.2h3.3v1.7H570.1z"/>
		<path class="st3" d="M587,132.2h-10c0.1,1.2,0.5,2.2,1.3,2.9c0.8,0.7,1.7,1,2.8,1c0.9,0,1.7-0.2,2.3-0.6c0.6-0.4,1-1,1.3-1.7h2.2
			c-0.3,1.2-1,2.2-2,2.9c-1,0.8-2.3,1.1-3.8,1.1c-1.2,0-2.3-0.3-3.2-0.8c-0.9-0.5-1.7-1.3-2.2-2.3c-0.5-1-0.8-2.1-0.8-3.4
			s0.3-2.4,0.8-3.4s1.2-1.7,2.2-2.3c0.9-0.5,2-0.8,3.2-0.8c1.2,0,2.2,0.3,3.2,0.8c0.9,0.5,1.6,1.2,2.1,2.1c0.5,0.9,0.7,1.9,0.7,3.1
			C587.1,131.4,587.1,131.8,587,132.2z M584.4,128.5c-0.4-0.6-0.8-1-1.4-1.3c-0.6-0.3-1.3-0.4-2-0.4c-1.1,0-1.9,0.3-2.7,1
			s-1.2,1.6-1.3,2.8h7.9C584.9,129.8,584.7,129.1,584.4,128.5z"/>
		<path class="st3" d="M599.4,126.3c0.9,0.9,1.4,2.3,1.4,4v7.4h-2.1v-7.1c0-1.2-0.3-2.2-0.9-2.9c-0.6-0.7-1.5-1-2.6-1
			c-1.1,0-2,0.3-2.6,1c-0.6,0.7-1,1.7-1,3v6.9h-2.1v-12.5h2.1v1.8c0.4-0.6,1-1.1,1.7-1.5s1.5-0.5,2.3-0.5
			C597.2,125,598.5,125.4,599.4,126.3z"/>
		<path class="st3" d="M606.5,126.9v7.4c0,0.6,0.1,1,0.4,1.3c0.3,0.3,0.7,0.4,1.3,0.4h1.5v1.8h-1.9c-1.2,0-2-0.3-2.6-0.8
			c-0.6-0.5-0.9-1.4-0.9-2.6v-7.4h-1.6v-1.7h1.6V122h2.1v3.2h3.3v1.7H606.5z"/>
		<path class="st3" d="M612.1,128c0.5-1,1.2-1.7,2.1-2.3c0.9-0.5,1.9-0.8,3-0.8c1.1,0,2,0.2,2.9,0.7c0.8,0.5,1.4,1.1,1.8,1.8v-2.3
			h2.1v12.5h-2.1v-2.3c-0.4,0.7-1,1.3-1.8,1.8c-0.8,0.5-1.8,0.7-2.8,0.7c-1.1,0-2.1-0.3-3-0.8c-0.9-0.5-1.6-1.3-2.1-2.3
			s-0.8-2.1-0.8-3.4C611.3,130.1,611.6,129,612.1,128z M621.4,129c-0.4-0.7-0.9-1.2-1.5-1.6c-0.6-0.4-1.4-0.6-2.1-0.6
			c-0.8,0-1.5,0.2-2.1,0.5c-0.6,0.4-1.2,0.9-1.5,1.6c-0.4,0.7-0.6,1.5-0.6,2.5c0,1,0.2,1.8,0.6,2.5s0.9,1.2,1.5,1.6
			c0.6,0.4,1.3,0.6,2.1,0.6c0.8,0,1.5-0.2,2.1-0.6c0.6-0.4,1.2-0.9,1.5-1.6s0.6-1.5,0.6-2.5S621.7,129.7,621.4,129z"/>
		<path class="st3" d="M631.3,125.7c0.8-0.5,1.8-0.7,2.8-0.7c1.1,0,2.1,0.3,3,0.8c0.9,0.5,1.6,1.3,2.1,2.3c0.5,1,0.8,2.1,0.8,3.4
			c0,1.3-0.3,2.4-0.8,3.4c-0.5,1-1.2,1.8-2.1,2.3c-0.9,0.5-1.9,0.8-3,0.8c-1.1,0-2-0.2-2.8-0.7c-0.8-0.5-1.4-1.1-1.8-1.8v2.3h-2.1
			v-16.9h2.1v6.7C629.8,126.8,630.5,126.2,631.3,125.7z M637.3,128.9c-0.4-0.7-0.9-1.2-1.5-1.6c-0.6-0.4-1.4-0.5-2.1-0.5
			c-0.8,0-1.5,0.2-2.1,0.6c-0.6,0.4-1.2,0.9-1.6,1.6c-0.4,0.7-0.6,1.5-0.6,2.5c0,0.9,0.2,1.8,0.6,2.5s0.9,1.2,1.6,1.6
			c0.6,0.4,1.4,0.6,2.1,0.6c0.8,0,1.5-0.2,2.1-0.6c0.6-0.4,1.2-0.9,1.5-1.6s0.6-1.5,0.6-2.5C637.9,130.5,637.7,129.6,637.3,128.9z"
			/>
		<path class="st3" d="M642.6,122.7c-0.3-0.3-0.4-0.6-0.4-1s0.1-0.7,0.4-1s0.6-0.4,1-0.4c0.4,0,0.7,0.1,1,0.4c0.3,0.3,0.4,0.6,0.4,1
			s-0.1,0.7-0.4,1c-0.3,0.3-0.6,0.4-1,0.4C643.2,123.2,642.9,123,642.6,122.7z M644.6,125.2v12.5h-2.1v-12.5H644.6z"/>
		<path class="st3" d="M650,120.8v16.9h-2.1v-16.9H650z"/>
		<path class="st3" d="M653.4,122.7c-0.3-0.3-0.4-0.6-0.4-1s0.1-0.7,0.4-1s0.6-0.4,1-0.4c0.4,0,0.7,0.1,1,0.4c0.3,0.3,0.4,0.6,0.4,1
			s-0.1,0.7-0.4,1c-0.3,0.3-0.6,0.4-1,0.4C654,123.2,653.7,123,653.4,122.7z M655.4,125.2v12.5h-2.1v-12.5H655.4z"/>
		<path class="st3" d="M658.7,128c0.5-1,1.2-1.7,2.1-2.3c0.9-0.5,1.9-0.8,3.1-0.8c1,0,1.9,0.2,2.7,0.7c0.8,0.5,1.5,1,1.9,1.8v-6.6
			h2.1v16.9h-2.1v-2.4c-0.4,0.7-1,1.4-1.8,1.8c-0.8,0.5-1.8,0.7-2.8,0.7c-1.1,0-2.1-0.3-3-0.8s-1.6-1.3-2.1-2.3s-0.8-2.1-0.8-3.4
			C658,130.1,658.2,129,658.7,128z M668,129c-0.4-0.7-0.9-1.2-1.5-1.6c-0.6-0.4-1.4-0.6-2.1-0.6c-0.8,0-1.5,0.2-2.1,0.5
			c-0.6,0.4-1.2,0.9-1.5,1.6c-0.4,0.7-0.6,1.5-0.6,2.5c0,1,0.2,1.8,0.6,2.5s0.9,1.2,1.5,1.6c0.6,0.4,1.3,0.6,2.1,0.6
			c0.8,0,1.5-0.2,2.1-0.6c0.6-0.4,1.2-0.9,1.5-1.6s0.6-1.5,0.6-2.5S668.4,129.7,668,129z"/>
		<path class="st3" d="M674,128c0.5-1,1.2-1.7,2.1-2.3c0.9-0.5,1.9-0.8,3-0.8c1.1,0,2,0.2,2.9,0.7c0.8,0.5,1.4,1.1,1.8,1.8v-2.3h2.1
			v12.5h-2.1v-2.3c-0.4,0.7-1,1.3-1.8,1.8c-0.8,0.5-1.8,0.7-2.8,0.7c-1.1,0-2.1-0.3-3-0.8c-0.9-0.5-1.6-1.3-2.1-2.3
			s-0.8-2.1-0.8-3.4C673.2,130.1,673.4,129,674,128z M683.2,129c-0.4-0.7-0.9-1.2-1.5-1.6c-0.6-0.4-1.4-0.6-2.1-0.6
			c-0.8,0-1.5,0.2-2.1,0.5c-0.6,0.4-1.2,0.9-1.5,1.6c-0.4,0.7-0.6,1.5-0.6,2.5c0,1,0.2,1.8,0.6,2.5s0.9,1.2,1.5,1.6
			c0.6,0.4,1.3,0.6,2.1,0.6c0.8,0,1.5-0.2,2.1-0.6c0.6-0.4,1.2-0.9,1.5-1.6s0.6-1.5,0.6-2.5S683.6,129.7,683.2,129z"/>
		<path class="st3" d="M689.2,128c0.5-1,1.2-1.7,2.1-2.3c0.9-0.5,1.9-0.8,3.1-0.8c1,0,1.9,0.2,2.7,0.7c0.8,0.5,1.5,1,1.9,1.8v-6.6
			h2.1v16.9H699v-2.4c-0.4,0.7-1,1.4-1.8,1.8c-0.8,0.5-1.8,0.7-2.8,0.7c-1.1,0-2.1-0.3-3-0.8s-1.6-1.3-2.1-2.3s-0.8-2.1-0.8-3.4
			C688.4,130.1,688.7,129,689.2,128z M698.5,129c-0.4-0.7-0.9-1.2-1.5-1.6c-0.6-0.4-1.4-0.6-2.1-0.6c-0.8,0-1.5,0.2-2.1,0.5
			c-0.6,0.4-1.2,0.9-1.5,1.6c-0.4,0.7-0.6,1.5-0.6,2.5c0,1,0.2,1.8,0.6,2.5s0.9,1.2,1.5,1.6c0.6,0.4,1.3,0.6,2.1,0.6
			c0.8,0,1.5-0.2,2.1-0.6c0.6-0.4,1.2-0.9,1.5-1.6s0.6-1.5,0.6-2.5S698.8,129.7,698.5,129z"/>
	</g>
	<g>
		<circle class="st3" cx="614.6" cy="48.8" r="48.8"/>
		<g>
			<path class="st4" d="M603.5,28.8C603.5,28.8,603.5,28.8,603.5,28.8l-0.3,0.5c0,0,0,0,0,0l-4.5,7.8l9.6,5.5l4.4-7.6l0.5-1l1.3-2.3
				l3.2-5.5h-9.6C606.2,26.3,604.5,27.3,603.5,28.8z"/>
			<path class="st4" d="M629.2,35.2l-3.5-6.1c-0.5-0.8-1.2-1.5-2-2c-0.9-0.5-1.8-0.7-2.8-0.7h-9.6h-3.2c1.9,0,3.7,1,4.6,2.5l0.3,0.5
				l6.6,11.4l-3.4,2h11l5.5-9.5L629.2,35.2z"/>
			<path class="st4" d="M638.4,51C638.4,51,638.4,51,638.4,51l-0.3-0.5c0,0,0,0,0,0l-4.5-7.8l-9.6,5.5l4.4,7.6l0.5,1l1.3,2.3
				l3.2,5.5l4.8-8.3C639.2,54.6,639.2,52.6,638.4,51z"/>
			<path class="st4" d="M633.7,59.1h-0.6l-13.1,0v-4l-2.3,4l0,0v0l-3.2,5.5l5.5,9.5v-4h7v0c0.9,0,1.9-0.2,2.8-0.7
				c0.9-0.5,1.6-1.2,2-2l4.8-8.3l1.6-2.8C637.3,58,635.6,59,633.7,59.1z"/>
			<path class="st4" d="M611.4,59.1h-8.8h-1.1l-2.6,0l-6.4,0l4.8,8.3c1,1.7,2.7,2.7,4.5,2.8c0,0,0,0,0,0h0.5c0,0,0,0,0,0l9,0
				L611.4,59.1L611.4,59.1z"/>
			<path class="st4" d="M597.4,61.6l6.6-11.4l3.4,2l-2.3-4l0,0l0,0l-3.2-5.5l-6.4,0h0l0,0l-4.6,0l3.4,2l-3.5,6.1
				c-0.5,0.8-0.7,1.8-0.7,2.8c0,1,0.3,1.9,0.7,2.8l4.8,8.3l1.6,2.8c-1-1.7-1-3.7-0.1-5.3L597.4,61.6z"/>
		</g>
	</g>
</g>
<g>
	<g>
		<path class="st5" d="M714.7,124.4c0.7-1.2,1.7-2.2,2.9-2.9s2.6-1.1,4-1.1c1.7,0,3.3,0.4,4.6,1.3c1.3,0.8,2.2,2,2.8,3.6h-2.5
			c-0.4-1-1.1-1.7-1.9-2.2c-0.8-0.5-1.8-0.8-3-0.8c-1.1,0-2.1,0.3-3,0.8c-0.9,0.5-1.6,1.3-2.1,2.2c-0.5,1-0.8,2.1-0.8,3.3
			c0,1.3,0.3,2.4,0.8,3.3c0.5,1,1.2,1.7,2.1,2.2c0.9,0.5,1.9,0.8,3,0.8c1.2,0,2.2-0.3,3-0.8s1.5-1.2,1.9-2.2h2.5
			c-0.6,1.5-1.5,2.7-2.8,3.5c-1.3,0.8-2.8,1.2-4.6,1.2c-1.5,0-2.8-0.3-4-1c-1.2-0.7-2.2-1.7-2.9-2.9s-1.1-2.6-1.1-4.2
			S714,125.7,714.7,124.4z"/>
		<path class="st5" d="M734.4,136c-1-0.5-1.7-1.3-2.2-2.3s-0.8-2.1-0.8-3.4c0-1.3,0.3-2.4,0.8-3.4c0.6-1,1.3-1.7,2.3-2.3
			c1-0.5,2-0.8,3.2-0.8s2.3,0.3,3.2,0.8c1,0.5,1.7,1.3,2.3,2.3s0.8,2.1,0.8,3.4s-0.3,2.4-0.9,3.4s-1.3,1.7-2.3,2.3
			c-1,0.5-2.1,0.8-3.2,0.8C736.4,136.8,735.3,136.5,734.4,136z M739.7,134.4c0.7-0.4,1.2-0.9,1.6-1.6c0.4-0.7,0.6-1.6,0.6-2.6
			c0-1-0.2-1.9-0.6-2.6c-0.4-0.7-0.9-1.2-1.6-1.6c-0.6-0.3-1.3-0.5-2.1-0.5c-0.8,0-1.5,0.2-2.1,0.5s-1.1,0.9-1.5,1.6
			s-0.6,1.6-0.6,2.6c0,1,0.2,1.9,0.6,2.6s0.9,1.2,1.5,1.6c0.6,0.3,1.3,0.5,2.1,0.5S739,134.8,739.7,134.4z"/>
		<path class="st5" d="M756.5,125.2c0.9,0.9,1.4,2.3,1.4,4v7.4h-2.1v-7.1c0-1.2-0.3-2.2-0.9-2.9c-0.6-0.7-1.5-1-2.6-1
			c-1.1,0-2,0.3-2.6,1c-0.6,0.7-1,1.7-1,3v6.9h-2.1v-12.5h2.1v1.8c0.4-0.6,1-1.1,1.7-1.5s1.5-0.5,2.3-0.5
			C754.4,123.8,755.6,124.3,756.5,125.2z"/>
		<path class="st5" d="M763.2,136.3c-0.8-0.3-1.4-0.8-1.8-1.4c-0.4-0.6-0.7-1.3-0.7-2h2.1c0.1,0.6,0.4,1.1,0.9,1.5
			c0.5,0.4,1.2,0.6,2.1,0.6c0.8,0,1.4-0.2,1.9-0.5c0.5-0.4,0.7-0.8,0.7-1.3c0-0.5-0.2-1-0.7-1.2c-0.5-0.3-1.2-0.5-2.3-0.8
			c-0.9-0.2-1.7-0.5-2.3-0.7c-0.6-0.3-1.1-0.6-1.5-1.1c-0.4-0.5-0.6-1.1-0.6-2c0-0.6,0.2-1.2,0.6-1.8c0.4-0.5,0.9-1,1.6-1.3
			s1.5-0.5,2.4-0.5c1.4,0,2.5,0.4,3.4,1.1c0.9,0.7,1.3,1.7,1.4,2.9h-2.1c0-0.7-0.3-1.2-0.8-1.6c-0.5-0.4-1.1-0.6-1.9-0.6
			c-0.7,0-1.3,0.2-1.8,0.5s-0.7,0.7-0.7,1.3c0,0.4,0.1,0.8,0.4,1c0.3,0.3,0.6,0.5,1,0.6c0.4,0.2,1,0.3,1.7,0.5
			c0.9,0.2,1.6,0.5,2.2,0.7c0.6,0.2,1,0.6,1.5,1.1c0.4,0.5,0.6,1.1,0.6,1.9c0,0.7-0.2,1.3-0.6,1.9s-0.9,1-1.6,1.3
			c-0.7,0.3-1.5,0.5-2.4,0.5C764.8,136.8,764,136.6,763.2,136.3z"/>
		<path class="st5" d="M784.4,124.1v12.5h-2.1v-1.9c-0.4,0.6-0.9,1.1-1.7,1.5c-0.7,0.4-1.5,0.5-2.3,0.5c-1,0-1.9-0.2-2.6-0.6
			c-0.8-0.4-1.4-1-1.8-1.8c-0.5-0.8-0.7-1.8-0.7-2.9v-7.3h2.1v7.1c0,1.2,0.3,2.2,0.9,2.8s1.5,1,2.6,1c1.1,0,2-0.3,2.6-1
			c0.6-0.7,1-1.7,1-3v-6.9H784.4z"/>
		<path class="st5" d="M790,119.7v16.9h-2.1v-16.9H790z"/>
		<path class="st5" d="M796.1,125.8v7.4c0,0.6,0.1,1,0.4,1.3c0.3,0.3,0.7,0.4,1.3,0.4h1.5v1.8h-1.9c-1.2,0-2-0.3-2.6-0.8
			c-0.6-0.5-0.9-1.4-0.9-2.6v-7.4h-1.6v-1.7h1.6v-3.2h2.1v3.2h3.3v1.7H796.1z"/>
		<path class="st5" d="M804.2,136c-1-0.5-1.7-1.3-2.2-2.3s-0.8-2.1-0.8-3.4c0-1.3,0.3-2.4,0.8-3.4c0.6-1,1.3-1.7,2.3-2.3
			c1-0.5,2-0.8,3.2-0.8s2.3,0.3,3.2,0.8c1,0.5,1.7,1.3,2.3,2.3s0.8,2.1,0.8,3.4s-0.3,2.4-0.9,3.4s-1.3,1.7-2.3,2.3
			c-1,0.5-2.1,0.8-3.2,0.8C806.2,136.8,805.1,136.5,804.2,136z M809.5,134.4c0.7-0.4,1.2-0.9,1.6-1.6c0.4-0.7,0.6-1.6,0.6-2.6
			c0-1-0.2-1.9-0.6-2.6c-0.4-0.7-0.9-1.2-1.6-1.6c-0.6-0.3-1.3-0.5-2.1-0.5c-0.8,0-1.5,0.2-2.1,0.5s-1.1,0.9-1.5,1.6
			s-0.6,1.6-0.6,2.6c0,1,0.2,1.9,0.6,2.6s0.9,1.2,1.5,1.6c0.6,0.3,1.3,0.5,2.1,0.5S808.8,134.8,809.5,134.4z"/>
		<path class="st5" d="M820.2,124.4c0.7-0.4,1.5-0.6,2.5-0.6v2.1h-0.5c-2.3,0-3.5,1.3-3.5,3.8v6.8h-2.1v-12.5h2.1v2
			C819,125.4,819.5,124.8,820.2,124.4z"/>
		<path class="st5" d="M825.1,121.6c-0.3-0.3-0.4-0.6-0.4-1s0.1-0.7,0.4-1s0.6-0.4,1-0.4c0.4,0,0.7,0.1,1,0.4c0.3,0.3,0.4,0.6,0.4,1
			s-0.1,0.7-0.4,1c-0.3,0.3-0.6,0.4-1,0.4C825.7,122,825.4,121.9,825.1,121.6z M827.1,124.1v12.5h-2.1v-12.5H827.1z"/>
		<path class="st5" d="M830.7,126.9c0.5-1,1.2-1.7,2.1-2.3c0.9-0.5,1.9-0.8,3-0.8c1.1,0,2,0.2,2.9,0.7c0.8,0.5,1.4,1.1,1.8,1.8v-2.3
			h2.1v12.5h-2.1v-2.3c-0.4,0.7-1,1.3-1.8,1.8c-0.8,0.5-1.8,0.7-2.8,0.7c-1.1,0-2.1-0.3-3-0.8c-0.9-0.5-1.6-1.3-2.1-2.3
			s-0.8-2.1-0.8-3.4C829.9,129,830.2,127.9,830.7,126.9z M839.9,127.8c-0.4-0.7-0.9-1.2-1.5-1.6c-0.6-0.4-1.4-0.6-2.1-0.6
			c-0.8,0-1.5,0.2-2.1,0.5c-0.6,0.4-1.2,0.9-1.5,1.6c-0.4,0.7-0.6,1.5-0.6,2.5c0,1,0.2,1.8,0.6,2.5s0.9,1.2,1.5,1.6
			c0.6,0.4,1.3,0.6,2.1,0.6c0.8,0,1.5-0.2,2.1-0.6c0.6-0.4,1.2-0.9,1.5-1.6s0.6-1.5,0.6-2.5S840.3,128.5,839.9,127.8z"/>
	</g>
	<circle class="st5" cx="778.5" cy="46.4" r="48.8"/>
	<path class="st1" d="M797.9,35c0.3-0.3,0.4-0.7,0.3-1c-0.1-0.4-0.3-0.7-0.7-0.8l-3.9-1.7l-1.4-3.9c-0.1-0.4-0.4-0.7-0.8-0.7
		c-0.4-0.1-0.8,0-1.1,0.3l-2.2,2.2c-3-1.6-6.3-2.5-9.6-2.5c-5.3,0-10.2,2-13.9,5.8c-3.7,3.7-5.8,8.7-5.8,13.9s2,10.2,5.8,13.9
		c3.7,3.7,8.7,5.8,13.9,5.8c5.3,0,10.2-2,13.9-5.8c3.7-3.7,5.8-8.7,5.8-13.9c0-3.3-0.8-6.5-2.4-9.3L797.9,35z M789.8,39.8l-2.4-0.6
		l5.6-5.5l2.1,0.9L789.8,39.8z M789.4,46.4c0,6-4.9,10.8-10.8,10.8c-6,0-10.8-4.9-10.8-10.8s4.9-10.8,10.8-10.8
		c1.8,0,3.3,0.4,4.8,1.1l0.6,2.7l-1.5,1.5c-1.1-0.8-2.5-1.3-3.9-1.3c-3.8,0-6.8,3.1-6.8,6.8c0,3.8,3.1,6.8,6.8,6.8s6.8-3.1,6.8-6.8
		c0-1.5-0.5-2.8-1.2-3.9l1.4-1.4l2.8,0.8C789,43.2,789.4,44.7,789.4,46.4L789.4,46.4z M783,46.4c0,2.5-2,4.5-4.5,4.5
		c-2.5,0-4.5-2-4.5-4.5s2-4.5,4.5-4.5c0.8,0,1.6,0.2,2.3,0.6l-3.1,3.1c-0.5,0.4-0.5,1.2,0,1.6c0.2,0.2,0.5,0.3,0.8,0.3
		c0.3,0,0.6-0.1,0.8-0.3l3.1-3.1C782.8,44.8,783,45.6,783,46.4L783,46.4z M790.7,30l0.7,2l-5.5,5.5l-0.5-2.2L790.7,30z M795.9,46.4
		c0,4.6-1.8,9-5.1,12.3c-3.3,3.3-7.6,5.1-12.3,5.1c-4.6,0-9-1.8-12.3-5.1c-3.3-3.3-5.1-7.6-5.1-12.3s1.8-9,5.1-12.3
		c3.3-3.3,7.6-5.1,12.3-5.1c2.7,0,5.5,0.7,7.9,1.9l-3.1,3.1c0,0,0,0,0,0c-1.5-0.6-3.1-0.9-4.8-0.9c-7.3,0-13.2,5.9-13.2,13.2
		s5.9,13.2,13.2,13.2s13.2-5.9,13.2-13.2c0-1.6-0.2-3.1-0.7-4.4c0,0,0,0,0,0l3.2-3.2C795.3,41.2,795.9,43.8,795.9,46.4z"/>
</g>
<g>
	<path class="st1" d="M124.9,32.5H78.8c-0.5,0-1,0.4-1,1v46.1c0,0.5,0.4,1,1,1h39.9c0.5,0,1-0.4,1-1c0-0.5-0.4-1-1-1h-39V56.1h13.5
		v9.2c0,0.5,0.4,1,1,1c0.5,0,1-0.4,1-1V45.2c0-0.5-0.4-1-1-1c-0.5,0-1,0.4-1,1v9H79.7V34.4h26.2v12.1c0,0.5,0.4,1,1,1h10.2
		c0.5,0,1-0.4,1-1c0-0.5-0.4-1-1-1h-9.2V34.4h16v30h-17c-0.5,0-1,0.4-1,1c0,0.5,0.4,1,1,1h17v12.3h-6.8c-0.5,0-1,0.4-1,1
		c0,0.5,0.4,1,1,1h7.8c0.5,0,1-0.4,1-1V33.5C125.8,32.9,125.4,32.5,124.9,32.5L124.9,32.5z M124.9,32.5"/>
</g>
<g>
	<g>
		<g>
			<path class="st6" d="M80.8,129.2c1.3,0.6,2.2,1.6,2.9,2.8c0.7,1.2,1,2.6,1,4.3s-0.3,3-1,4.2c-0.7,1.2-1.7,2.1-2.9,2.7
				c-1.3,0.6-2.8,0.9-4.5,0.9h-5v-15.9h5C78,128.2,79.5,128.6,80.8,129.2z M81,140.8c1.1-1.1,1.6-2.6,1.6-4.6c0-2-0.5-3.5-1.6-4.6
				c-1.1-1.1-2.7-1.7-4.7-1.7h-2.9v12.5h2.9C78.3,142.5,79.9,141.9,81,140.8z"/>
			<path class="st6" d="M87.3,129.2c-0.3-0.3-0.4-0.6-0.4-1s0.1-0.7,0.4-1s0.6-0.4,1-0.4c0.4,0,0.7,0.1,1,0.4c0.3,0.3,0.4,0.6,0.4,1
				s-0.1,0.7-0.4,1c-0.3,0.3-0.6,0.4-1,0.4C87.9,129.6,87.6,129.5,87.3,129.2z M89.3,131.7v12.5h-2.1v-12.5H89.3z"/>
			<path class="st6" d="M100.7,132.2c0.8,0.5,1.4,1.1,1.8,1.8v-2.3h2.1v12.8c0,1.1-0.2,2.2-0.7,3.1c-0.5,0.9-1.2,1.6-2.1,2.1
				c-0.9,0.5-2,0.8-3.2,0.8c-1.6,0-3-0.4-4.1-1.2s-1.7-1.8-1.9-3.2h2.1c0.2,0.8,0.7,1.4,1.4,1.8s1.6,0.7,2.6,0.7
				c1.1,0,2.1-0.4,2.8-1.1c0.7-0.7,1.1-1.7,1.1-3v-2.6c-0.4,0.7-1,1.3-1.8,1.8c-0.8,0.5-1.8,0.7-2.8,0.7c-1.1,0-2.1-0.3-3-0.8
				s-1.6-1.3-2.1-2.3s-0.8-2.1-0.8-3.4c0-1.3,0.3-2.4,0.8-3.4c0.5-1,1.2-1.7,2.1-2.3c0.9-0.5,1.9-0.8,3-0.8
				C98.9,131.5,99.9,131.7,100.7,132.2z M101.9,135.4c-0.4-0.7-0.9-1.2-1.5-1.6c-0.6-0.4-1.4-0.6-2.1-0.6c-0.8,0-1.5,0.2-2.1,0.5
				c-0.6,0.4-1.2,0.9-1.5,1.6c-0.4,0.7-0.6,1.5-0.6,2.5c0,1,0.2,1.8,0.6,2.5s0.9,1.2,1.5,1.6c0.6,0.4,1.3,0.6,2.1,0.6
				c0.8,0,1.5-0.2,2.1-0.6c0.6-0.4,1.2-0.9,1.5-1.6s0.6-1.5,0.6-2.5S102.3,136.1,101.9,135.4z"/>
			<path class="st6" d="M107.9,129.2c-0.3-0.3-0.4-0.6-0.4-1s0.1-0.7,0.4-1s0.6-0.4,1-0.4c0.4,0,0.7,0.1,1,0.4
				c0.3,0.3,0.4,0.6,0.4,1s-0.1,0.7-0.4,1c-0.3,0.3-0.6,0.4-1,0.4C108.6,129.6,108.2,129.5,107.9,129.2z M110,131.7v12.5h-2.1v-12.5
				H110z"/>
			<path class="st6" d="M115.8,133.4v7.4c0,0.6,0.1,1,0.4,1.3c0.3,0.3,0.7,0.4,1.3,0.4h1.5v1.8h-1.9c-1.2,0-2-0.3-2.6-0.8
				c-0.6-0.5-0.9-1.4-0.9-2.6v-7.4h-1.6v-1.7h1.6v-3.2h2.1v3.2h3.3v1.7H115.8z"/>
			<path class="st6" d="M121.4,134.5c0.5-1,1.2-1.7,2.1-2.3c0.9-0.5,1.9-0.8,3-0.8c1.1,0,2,0.2,2.9,0.7c0.8,0.5,1.4,1.1,1.8,1.8
				v-2.3h2.1v12.5h-2.1v-2.3c-0.4,0.7-1,1.3-1.8,1.8c-0.8,0.5-1.8,0.7-2.8,0.7c-1.1,0-2.1-0.3-3-0.8c-0.9-0.5-1.6-1.3-2.1-2.3
				s-0.8-2.1-0.8-3.4C120.6,136.6,120.9,135.5,121.4,134.5z M130.6,135.4c-0.4-0.7-0.9-1.2-1.5-1.6c-0.6-0.4-1.4-0.6-2.1-0.6
				c-0.8,0-1.5,0.2-2.1,0.5c-0.6,0.4-1.2,0.9-1.5,1.6c-0.4,0.7-0.6,1.5-0.6,2.5c0,1,0.2,1.8,0.6,2.5s0.9,1.2,1.5,1.6
				c0.6,0.4,1.3,0.6,2.1,0.6c0.8,0,1.5-0.2,2.1-0.6c0.6-0.4,1.2-0.9,1.5-1.6s0.6-1.5,0.6-2.5S131,136.1,130.6,135.4z"/>
			<path class="st6" d="M138.7,127.3v16.9h-2.1v-16.9H138.7z"/>
		</g>
	</g>
	<circle class="st6" cx="102.9" cy="55.2" r="48.8"/>
	<g>
		<path class="st1" d="M119.1,37.2H85.9c-3.8,0.1-7.2,3.9-7.4,8.5v21c0.1,4.5,3.6,8.3,7.8,8.3h10l5.4,10.2c0.2,0.5,0.7,0.8,1.3,0.8
			s1-0.3,1.3-0.8l5.4-10.2h10c4.2,0,7.7-3.7,7.8-8.2v-21C127.2,41.1,123.8,37.3,119.1,37.2z M124.4,66.6c0,3-2.2,5.4-4.8,5.4h-10.8
			c-0.5,0-1,0.3-1.3,0.8l-4.5,8.6l-4.5-8.6c-0.2-0.5-0.7-0.8-1.3-0.8H86.3c-2.7,0-4.8-2.4-4.8-5.4v-21c0-3,2.2-5.4,4.8-5.4h33.2
			c2.7,0,4.8,2.4,4.8,5.4L124.4,66.6L124.4,66.6z"/>
		<path class="st1" d="M100.9,49.6c-1.4,0-2.7,0.5-3.6,1.5c-1-0.9-2.3-1.5-3.6-1.5c-2.9,0-5.3,2.4-5.3,5.3c0,2.1,1.4,4.3,4.3,6.5
			c2,1.5,3.9,2.6,4,2.6c0.2,0.1,0.4,0.2,0.7,0.2c0.2,0,0.5-0.1,0.7-0.2c0.1,0,2-1.1,4-2.6c2.8-2.2,4.3-4.4,4.3-6.5
			c0-1.4-0.5-2.7-1.5-3.7C103.7,50.1,102.3,49.6,100.9,49.6L100.9,49.6z M100.2,59.1c-1.1,0.9-2.2,1.6-2.9,2c-2.3-1.4-6.1-4.1-6-6.2
			c0-1.3,1.1-2.4,2.4-2.4c1,0,1.9,0.6,2.3,1.6c0.2,0.6,0.7,1,1.3,1c0.6,0,1.1-0.4,1.3-1c0.3-1,1.3-1.6,2.3-1.6
			c0.7,0,1.3,0.3,1.7,0.7c0.5,0.5,0.7,1.1,0.7,1.7C103.3,55.9,102.2,57.5,100.2,59.1L100.2,59.1z"/>
		<path class="st1" d="M115.3,48.9c-0.2,0-0.4,0-0.5,0.1l-2.5,1.5c-0.4,0.2-0.5,0.6-0.5,1c0,0.6,0.4,1.2,0.9,1.2
			c0.1,0,0.3,0,0.5-0.2l0.5-0.3v9.6c0,0.6,0.7,0.9,1.5,0.9c0.7,0,1.5-0.3,1.5-0.9V49.8C116.6,49.3,115.9,48.9,115.3,48.9z"/>
	</g>
</g>
<g>
	<g>
		<g>
			<path class="st7" d="M67.8,386.8l-3.8-6.5h-2.5v6.5h-2.1v-15.9h5.1c1.2,0,2.2,0.2,3.1,0.6c0.8,0.4,1.5,1,1.9,1.7
				c0.4,0.7,0.6,1.5,0.6,2.4c0,1.1-0.3,2.1-0.9,2.9c-0.6,0.8-1.6,1.4-2.8,1.7l4,6.7H67.8z M61.5,378.6h3.1c1.1,0,2-0.3,2.5-0.8
				c0.6-0.6,0.8-1.3,0.8-2.2c0-0.9-0.3-1.7-0.8-2.2s-1.4-0.8-2.5-0.8h-3.1V378.6z"/>
			<path class="st7" d="M84.5,381.3h-10c0.1,1.2,0.5,2.2,1.3,2.9c0.8,0.7,1.7,1,2.8,1c0.9,0,1.7-0.2,2.3-0.6c0.6-0.4,1-1,1.3-1.7
				h2.2c-0.3,1.2-1,2.2-2,2.9c-1,0.8-2.3,1.1-3.8,1.1c-1.2,0-2.3-0.3-3.2-0.8c-0.9-0.5-1.7-1.3-2.2-2.3c-0.5-1-0.8-2.1-0.8-3.4
				s0.3-2.4,0.8-3.4s1.2-1.7,2.2-2.3c0.9-0.5,2-0.8,3.2-0.8c1.2,0,2.2,0.3,3.2,0.8c0.9,0.5,1.6,1.2,2.1,2.1c0.5,0.9,0.7,1.9,0.7,3.1
				C84.5,380.5,84.5,380.9,84.5,381.3z M81.9,377.6c-0.4-0.6-0.8-1-1.4-1.3c-0.6-0.3-1.3-0.4-2-0.4c-1.1,0-1.9,0.3-2.7,1
				s-1.2,1.6-1.3,2.8h7.9C82.4,378.8,82.2,378.2,81.9,377.6z"/>
			<path class="st7" d="M95.1,374.8c0.8,0.5,1.4,1.1,1.8,1.8v-2.3H99v12.8c0,1.1-0.2,2.2-0.7,3.1c-0.5,0.9-1.2,1.6-2.1,2.1
				c-0.9,0.5-2,0.8-3.2,0.8c-1.6,0-3-0.4-4.1-1.2s-1.7-1.8-1.9-3.2H89c0.2,0.8,0.7,1.4,1.4,1.8s1.6,0.7,2.6,0.7
				c1.1,0,2.1-0.4,2.8-1.1c0.7-0.7,1.1-1.7,1.1-3v-2.6c-0.4,0.7-1,1.3-1.8,1.8c-0.8,0.5-1.8,0.7-2.8,0.7c-1.1,0-2.1-0.3-3-0.8
				s-1.6-1.3-2.1-2.3s-0.8-2.1-0.8-3.4c0-1.3,0.3-2.4,0.8-3.4c0.5-1,1.2-1.7,2.1-2.3c0.9-0.5,1.9-0.8,3-0.8
				C93.3,374.1,94.3,374.3,95.1,374.8z M96.3,378.1c-0.4-0.7-0.9-1.2-1.5-1.6c-0.6-0.4-1.4-0.6-2.1-0.6c-0.8,0-1.5,0.2-2.1,0.5
				c-0.6,0.4-1.2,0.9-1.5,1.6c-0.4,0.7-0.6,1.5-0.6,2.5c0,1,0.2,1.8,0.6,2.5s0.9,1.2,1.5,1.6c0.6,0.4,1.3,0.6,2.1,0.6
				c0.8,0,1.5-0.2,2.1-0.6c0.6-0.4,1.2-0.9,1.5-1.6s0.6-1.5,0.6-2.5S96.7,378.8,96.3,378.1z"/>
			<path class="st7" d="M102.3,377.1c0.5-1,1.2-1.7,2.1-2.3c0.9-0.5,1.9-0.8,3-0.8c1.1,0,2,0.2,2.9,0.7c0.8,0.5,1.4,1.1,1.8,1.8
				v-2.3h2.1v12.5h-2.1v-2.3c-0.4,0.7-1,1.3-1.8,1.8c-0.8,0.5-1.8,0.7-2.8,0.7c-1.1,0-2.1-0.3-3-0.8c-0.9-0.5-1.6-1.3-2.1-2.3
				s-0.8-2.1-0.8-3.4C101.5,379.2,101.8,378.1,102.3,377.1z M111.5,378.1c-0.4-0.7-0.9-1.2-1.5-1.6c-0.6-0.4-1.4-0.6-2.1-0.6
				c-0.8,0-1.5,0.2-2.1,0.5c-0.6,0.4-1.2,0.9-1.5,1.6c-0.4,0.7-0.6,1.5-0.6,2.5c0,1,0.2,1.8,0.6,2.5s0.9,1.2,1.5,1.6
				c0.6,0.4,1.3,0.6,2.1,0.6c0.8,0,1.5-0.2,2.1-0.6c0.6-0.4,1.2-0.9,1.5-1.6s0.6-1.5,0.6-2.5S111.9,378.8,111.5,378.1z"/>
			<path class="st7" d="M119.6,369.9v16.9h-2.1v-16.9H119.6z"/>
			<path class="st7" d="M125.2,386.2c-1-0.5-1.7-1.3-2.2-2.3s-0.8-2.1-0.8-3.4c0-1.3,0.3-2.4,0.8-3.4c0.6-1,1.3-1.7,2.3-2.3
				c1-0.5,2-0.8,3.2-0.8s2.3,0.3,3.2,0.8c1,0.5,1.7,1.3,2.3,2.3s0.8,2.1,0.8,3.4s-0.3,2.4-0.9,3.4s-1.3,1.7-2.3,2.3
				c-1,0.5-2.1,0.8-3.2,0.8C127.2,387,126.1,386.8,125.2,386.2z M130.5,384.7c0.7-0.4,1.2-0.9,1.6-1.6c0.4-0.7,0.6-1.6,0.6-2.6
				c0-1-0.2-1.9-0.6-2.6c-0.4-0.7-0.9-1.2-1.6-1.6c-0.6-0.3-1.3-0.5-2.1-0.5c-0.8,0-1.5,0.2-2.1,0.5s-1.1,0.9-1.5,1.6
				s-0.6,1.6-0.6,2.6c0,1,0.2,1.9,0.6,2.6s0.9,1.2,1.5,1.6c0.6,0.3,1.3,0.5,2.1,0.5S129.8,385,130.5,384.7z"/>
			<path class="st7" d="M139.2,386.5c-0.8-0.3-1.4-0.8-1.8-1.4c-0.4-0.6-0.7-1.3-0.7-2h2.1c0.1,0.6,0.4,1.1,0.9,1.5
				c0.5,0.4,1.2,0.6,2.1,0.6c0.8,0,1.4-0.2,1.9-0.5c0.5-0.4,0.7-0.8,0.7-1.3c0-0.5-0.2-1-0.7-1.2c-0.5-0.3-1.2-0.5-2.3-0.8
				c-0.9-0.2-1.7-0.5-2.3-0.7c-0.6-0.3-1.1-0.6-1.5-1.1c-0.4-0.5-0.6-1.1-0.6-2c0-0.6,0.2-1.2,0.6-1.8c0.4-0.5,0.9-1,1.6-1.3
				s1.5-0.5,2.4-0.5c1.4,0,2.5,0.4,3.4,1.1c0.9,0.7,1.3,1.7,1.4,2.9h-2.1c0-0.7-0.3-1.2-0.8-1.6c-0.5-0.4-1.1-0.6-1.9-0.6
				c-0.7,0-1.3,0.2-1.8,0.5s-0.7,0.7-0.7,1.3c0,0.4,0.1,0.8,0.4,1c0.3,0.3,0.6,0.5,1,0.6c0.4,0.2,1,0.3,1.7,0.5
				c0.9,0.2,1.6,0.5,2.2,0.7c0.6,0.2,1,0.6,1.5,1.1c0.4,0.5,0.6,1.1,0.6,1.9c0,0.7-0.2,1.3-0.6,1.9s-0.9,1-1.6,1.3
				c-0.7,0.3-1.5,0.5-2.4,0.5C140.8,387,139.9,386.9,139.2,386.5z"/>
			<path class="st7" d="M31.7,407.3c0.7-1.2,1.7-2.2,2.9-2.9s2.6-1.1,4-1.1c1.7,0,3.3,0.4,4.6,1.3c1.3,0.8,2.2,2,2.8,3.6h-2.5
				c-0.4-1-1.1-1.7-1.9-2.2c-0.8-0.5-1.8-0.8-3-0.8c-1.1,0-2.1,0.3-3,0.8c-0.9,0.5-1.6,1.3-2.1,2.2c-0.5,1-0.8,2.1-0.8,3.3
				c0,1.3,0.3,2.4,0.8,3.3c0.5,1,1.2,1.7,2.1,2.2c0.9,0.5,1.9,0.8,3,0.8c1.2,0,2.2-0.3,3-0.8s1.5-1.2,1.9-2.2H46
				c-0.6,1.5-1.5,2.7-2.8,3.5c-1.3,0.8-2.8,1.2-4.6,1.2c-1.5,0-2.8-0.3-4-1c-1.2-0.7-2.2-1.7-2.9-2.9c-0.7-1.2-1.1-2.6-1.1-4.2
				S31,408.6,31.7,407.3z"/>
			<path class="st7" d="M51.2,418.9c-1-0.5-1.7-1.3-2.2-2.3s-0.8-2.1-0.8-3.4c0-1.3,0.3-2.4,0.8-3.4c0.6-1,1.3-1.7,2.3-2.3
				c1-0.5,2-0.8,3.2-0.8s2.3,0.3,3.2,0.8c1,0.5,1.7,1.3,2.3,2.3s0.8,2.1,0.8,3.4s-0.3,2.4-0.9,3.4s-1.3,1.7-2.3,2.3
				c-1,0.5-2.1,0.8-3.2,0.8C53.2,419.7,52.1,419.5,51.2,418.9z M56.5,417.4c0.7-0.4,1.2-0.9,1.6-1.6c0.4-0.7,0.6-1.6,0.6-2.6
				c0-1-0.2-1.9-0.6-2.6c-0.4-0.7-0.9-1.2-1.6-1.6c-0.6-0.3-1.3-0.5-2.1-0.5c-0.8,0-1.5,0.2-2.1,0.5s-1.1,0.9-1.5,1.6
				s-0.6,1.6-0.6,2.6c0,1,0.2,1.9,0.6,2.6s0.9,1.2,1.5,1.6c0.6,0.3,1.3,0.5,2.1,0.5S55.8,417.7,56.5,417.4z"/>
			<path class="st7" d="M67,407.4c0.7-0.4,1.5-0.6,2.5-0.6v2.1h-0.5c-2.3,0-3.5,1.3-3.5,3.8v6.8h-2.1V407h2.1v2
				C65.8,408.3,66.3,407.8,67,407.4z"/>
			<path class="st7" d="M75.5,407.5c0.8-0.5,1.8-0.7,2.8-0.7c1.1,0,2.1,0.3,3,0.8c0.9,0.5,1.6,1.3,2.1,2.3c0.5,1,0.8,2.1,0.8,3.4
				c0,1.3-0.3,2.4-0.8,3.4c-0.5,1-1.2,1.8-2.1,2.3c-0.9,0.5-1.9,0.8-3,0.8c-1.1,0-2-0.2-2.8-0.7s-1.4-1.1-1.9-1.8v8.3h-2.1V407h2.1
				v2.3C74.1,408.6,74.7,408,75.5,407.5z M81.6,410.7c-0.4-0.7-0.9-1.2-1.5-1.6c-0.6-0.4-1.4-0.5-2.1-0.5c-0.8,0-1.5,0.2-2.1,0.6
				c-0.6,0.4-1.2,0.9-1.6,1.6c-0.4,0.7-0.6,1.5-0.6,2.5c0,0.9,0.2,1.8,0.6,2.5s0.9,1.2,1.6,1.6c0.6,0.4,1.4,0.6,2.1,0.6
				c0.8,0,1.5-0.2,2.1-0.6c0.6-0.4,1.2-0.9,1.5-1.6s0.6-1.5,0.6-2.5C82.2,412.3,82,411.4,81.6,410.7z"/>
			<path class="st7" d="M89.1,418.9c-1-0.5-1.7-1.3-2.2-2.3s-0.8-2.1-0.8-3.4c0-1.3,0.3-2.4,0.8-3.4c0.6-1,1.3-1.7,2.3-2.3
				c1-0.5,2-0.8,3.2-0.8s2.3,0.3,3.2,0.8c1,0.5,1.7,1.3,2.3,2.3s0.8,2.1,0.8,3.4s-0.3,2.4-0.9,3.4s-1.3,1.7-2.3,2.3
				c-1,0.5-2.1,0.8-3.2,0.8C91.1,419.7,90.1,419.5,89.1,418.9z M94.4,417.4c0.7-0.4,1.2-0.9,1.6-1.6c0.4-0.7,0.6-1.6,0.6-2.6
				c0-1-0.2-1.9-0.6-2.6c-0.4-0.7-0.9-1.2-1.6-1.6c-0.6-0.3-1.3-0.5-2.1-0.5c-0.8,0-1.5,0.2-2.1,0.5s-1.1,0.9-1.5,1.6
				s-0.6,1.6-0.6,2.6c0,1,0.2,1.9,0.6,2.6s0.9,1.2,1.5,1.6c0.6,0.3,1.3,0.5,2.1,0.5S93.7,417.7,94.4,417.4z"/>
			<path class="st7" d="M104.9,407.4c0.7-0.4,1.5-0.6,2.5-0.6v2.1h-0.5c-2.3,0-3.5,1.3-3.5,3.8v6.8h-2.1V407h2.1v2
				C103.7,408.3,104.2,407.8,104.9,407.4z"/>
			<path class="st7" d="M109.5,409.8c0.5-1,1.2-1.7,2.1-2.3c0.9-0.5,1.9-0.8,3-0.8c1.1,0,2,0.2,2.9,0.7c0.8,0.5,1.4,1.1,1.8,1.8V407
				h2.1v12.5h-2.1v-2.3c-0.4,0.7-1,1.3-1.8,1.8c-0.8,0.5-1.8,0.7-2.8,0.7c-1.1,0-2.1-0.3-3-0.8c-0.9-0.5-1.6-1.3-2.1-2.3
				s-0.8-2.1-0.8-3.4C108.8,411.9,109,410.8,109.5,409.8z M118.8,410.8c-0.4-0.7-0.9-1.2-1.5-1.6c-0.6-0.4-1.4-0.6-2.1-0.6
				c-0.8,0-1.5,0.2-2.1,0.5c-0.6,0.4-1.2,0.9-1.5,1.6c-0.4,0.7-0.6,1.5-0.6,2.5c0,1,0.2,1.8,0.6,2.5s0.9,1.2,1.5,1.6
				c0.6,0.4,1.3,0.6,2.1,0.6c0.8,0,1.5-0.2,2.1-0.6c0.6-0.4,1.2-0.9,1.5-1.6s0.6-1.5,0.6-2.5S119.2,411.5,118.8,410.8z"/>
			<path class="st7" d="M127.3,408.7v7.4c0,0.6,0.1,1,0.4,1.3c0.3,0.3,0.7,0.4,1.3,0.4h1.5v1.8h-1.9c-1.2,0-2-0.3-2.6-0.8
				c-0.6-0.5-0.9-1.4-0.9-2.6v-7.4h-1.6V407h1.6v-3.2h2.1v3.2h3.3v1.7H127.3z"/>
			<path class="st7" d="M132.9,404.5c-0.3-0.3-0.4-0.6-0.4-1s0.1-0.7,0.4-1s0.6-0.4,1-0.4c0.4,0,0.7,0.1,1,0.4
				c0.3,0.3,0.4,0.6,0.4,1s-0.1,0.7-0.4,1c-0.3,0.3-0.6,0.4-1,0.4C133.5,405,133.2,404.8,132.9,404.5z M134.9,407v12.5h-2.1V407
				H134.9z"/>
			<path class="st7" d="M142.9,417.6l3.9-10.6h2.2l-4.9,12.5h-2.4l-4.9-12.5h2.2L142.9,417.6z"/>
			<path class="st7" d="M153.1,418.9c-1-0.5-1.7-1.3-2.2-2.3s-0.8-2.1-0.8-3.4c0-1.3,0.3-2.4,0.8-3.4c0.6-1,1.3-1.7,2.3-2.3
				c1-0.5,2-0.8,3.2-0.8s2.3,0.3,3.2,0.8c1,0.5,1.7,1.3,2.3,2.3s0.8,2.1,0.8,3.4s-0.3,2.4-0.9,3.4s-1.3,1.7-2.3,2.3
				c-1,0.5-2.1,0.8-3.2,0.8C155.2,419.7,154.1,419.5,153.1,418.9z M158.4,417.4c0.7-0.4,1.2-0.9,1.6-1.6c0.4-0.7,0.6-1.6,0.6-2.6
				c0-1-0.2-1.9-0.6-2.6c-0.4-0.7-0.9-1.2-1.6-1.6c-0.6-0.3-1.3-0.5-2.1-0.5c-0.8,0-1.5,0.2-2.1,0.5s-1.1,0.9-1.5,1.6
				s-0.6,1.6-0.6,2.6c0,1,0.2,1.9,0.6,2.6s0.9,1.2,1.5,1.6c0.6,0.3,1.3,0.5,2.1,0.5S157.8,417.7,158.4,417.4z"/>
			<path class="st7" d="M167.1,419.2c-0.8-0.3-1.4-0.8-1.8-1.4c-0.4-0.6-0.7-1.3-0.7-2h2.1c0.1,0.6,0.4,1.1,0.9,1.5
				c0.5,0.4,1.2,0.6,2.1,0.6c0.8,0,1.4-0.2,1.9-0.5c0.5-0.4,0.7-0.8,0.7-1.3c0-0.5-0.2-1-0.7-1.2c-0.5-0.3-1.2-0.5-2.3-0.8
				c-0.9-0.2-1.7-0.5-2.3-0.7c-0.6-0.3-1.1-0.6-1.5-1.1c-0.4-0.5-0.6-1.1-0.6-2c0-0.6,0.2-1.2,0.6-1.8c0.4-0.5,0.9-1,1.6-1.3
				s1.5-0.5,2.4-0.5c1.4,0,2.5,0.4,3.4,1.1c0.9,0.7,1.3,1.7,1.4,2.9h-2.1c0-0.7-0.3-1.2-0.8-1.6c-0.5-0.4-1.1-0.6-1.9-0.6
				c-0.7,0-1.3,0.2-1.8,0.5s-0.7,0.7-0.7,1.3c0,0.4,0.1,0.8,0.4,1c0.3,0.3,0.6,0.5,1,0.6c0.4,0.2,1,0.3,1.7,0.5
				c0.9,0.2,1.6,0.5,2.2,0.7c0.6,0.2,1,0.6,1.5,1.1c0.4,0.5,0.6,1.1,0.6,1.9c0,0.7-0.2,1.3-0.6,1.9s-0.9,1-1.6,1.3
				c-0.7,0.3-1.5,0.5-2.4,0.5C168.7,419.7,167.9,419.6,167.1,419.2z"/>
		</g>
	</g>
	<circle class="st7" cx="102.4" cy="298.3" r="48.8"/>
	<path class="st8" d="M124.3,286.3h-3.7c0.1-0.1,0.2-0.3,0.3-0.5c0.5-0.9,0.6-2.1,0.2-3.1l-1.1-3c-0.4-1-1.1-1.8-2.1-2.2
		c-1-0.4-2.1-0.4-3.1,0.1l-8.8,4.2c-0.4-0.3-1-0.5-1.5-0.5h-4c-0.6,0-1.1,0.2-1.5,0.5l-8.8-4.2c-1-0.5-2.1-0.5-3.1-0.1
		c-1,0.4-1.8,1.2-2.1,2.2l-1.1,3c-0.4,1-0.3,2.1,0.2,3.1c0.1,0.2,0.2,0.3,0.3,0.5h-3.7c-0.4,0-0.7,0.3-0.7,0.7v7.6
		c0,0.4,0.3,0.7,0.7,0.7s0.7-0.3,0.7-0.7v-6.9h4.8c0.1,0,0.2,0.1,0.2,0.1l5.8,1.6c-1.3,2-2.4,4.1-3.4,6.2h-7.5v-0.8
		c0-0.4-0.3-0.7-0.7-0.7s-0.7,0.3-0.7,0.7v1.5c0,0.4,0.3,0.7,0.7,0.7h2.5v24.6c0,0.4,0.3,0.7,0.7,0.7h37.3c0.4,0,0.7-0.3,0.7-0.7v-4
		c0-0.4-0.3-0.7-0.7-0.7c-0.4,0-0.7,0.3-0.7,0.7v3.3h-13.8v-23.5c2,3.7,3.3,7.8,3.9,12c0,0.3,0.2,0.5,0.5,0.6c0.1,0,0.1,0,0.2,0
		c0.2,0,0.4-0.1,0.6-0.3c1-1.3,1.9-2.7,2.8-4.2c1.4,1,2.8,2,4.1,3.2c0.2,0.2,0.5,0.2,0.8,0.1c0.3-0.1,0.4-0.4,0.4-0.7
		c-0.6-3.8-1.6-7.5-3.1-11.1h3.7v20.5c0,0.4,0.3,0.7,0.7,0.7c0.4,0,0.7-0.3,0.7-0.7V297h2.5c0.4,0,0.7-0.3,0.7-0.7V287
		C125,286.6,124.7,286.3,124.3,286.3z M115.4,279c0.6-0.3,1.3-0.3,1.9-0.1c0.6,0.3,1.1,0.8,1.4,1.4l1.1,3c0.2,0.6,0.2,1.3-0.1,1.9
		c-0.3,0.6-0.8,1-1.5,1.2l-11.1,3v-3.3c2.5-1.5,8.7-4.7,10.2-2.5c0.2,0.3,0.7,0.4,1,0.2c0.3-0.2,0.4-0.7,0.2-1
		c-1.2-1.7-3.7-1.8-7.5-0.2c-1.5,0.6-3,1.4-3.9,1.9V284c0-0.4-0.1-0.7-0.2-1L115.4,279z M100.5,282.8h4c0.7,0,1.3,0.6,1.3,1.3v5.7
		c0,0.7-0.6,1.3-1.3,1.3h-4c-0.7,0-1.3-0.6-1.3-1.3V284C99.2,283.3,99.8,282.8,100.5,282.8z M99.3,295.7c0.7-1.1,1.4-2.2,2.2-3.2h2
		c0.8,1,1.5,2.1,2.2,3.2H99.3z M85.2,285.2c-0.3-0.6-0.4-1.3-0.1-1.9l1.1-3c0.2-0.6,0.7-1.1,1.4-1.4c0.6-0.3,1.3-0.2,1.9,0.1l8.5,4
		c-0.1,0.3-0.2,0.7-0.2,1v0.6c-0.9-0.5-2.4-1.3-4-2c-3.8-1.5-6.3-1.4-7.5,0.2c-0.2,0.3-0.1,0.7,0.2,1c0.3,0.2,0.7,0.1,1-0.2
		c1.6-2.2,7.9,1,10.3,2.5v3.3l-11.1-3C86.1,286.3,85.5,285.8,85.2,285.2z M98.1,291c0.3,0.6,1,1.1,1.7,1.3
		c-3.3,4.5-5.5,9.8-6.5,15.2c-0.7-1.1-1.4-2.2-2.1-3.4c-0.1-0.2-0.3-0.3-0.4-0.3c-0.2,0-0.4,0-0.6,0.1c-1.2,0.8-2.3,1.6-3.4,2.5
		c1.1-5.9,3.5-11.6,6.8-16.6L98.1,291z M84.5,297h3.7c-1.5,3.5-2.5,7.3-3.1,11.1c0,0.3,0.1,0.6,0.4,0.7c0.3,0.1,0.6,0.1,0.8-0.1
		c1.3-1.2,2.7-2.2,4.1-3.2c0.8,1.5,1.8,2.9,2.8,4.2c0.1,0.2,0.3,0.3,0.6,0.3c0.1,0,0.1,0,0.2,0c0.3-0.1,0.5-0.3,0.5-0.6
		c0.6-4.2,1.9-8.3,3.9-12V321H84.5V297z M99.7,321V297h5.6V321H99.7z M114.7,304c-0.2-0.1-0.4-0.1-0.6-0.1c-0.2,0-0.3,0.2-0.4,0.3
		c-0.6,1.2-1.3,2.3-2.1,3.4c-1.1-5.5-3.3-10.7-6.5-15.2c0.7-0.2,1.3-0.7,1.7-1.3l4.5-1.2c3.3,5,5.7,10.7,6.8,16.6
		C117,305.5,115.8,304.7,114.7,304z M123.6,295.7h-7.5c-1-2.2-2.1-4.3-3.4-6.2l5.8-1.6c0.1,0,0.2,0,0.2-0.1h4.8V295.7z"/>
</g>
<g>
	<circle class="st9" cx="303.6" cy="54.9" r="48.8"/>
	<g>
		<path class="st1" d="M290.3,60.9c0.5-0.3,0.7-0.9,0.4-1.5c-0.3-0.5-0.9-0.7-1.5-0.4c-0.5,0.3-0.7,0.9-0.4,1.5
			C289.1,61,289.8,61.2,290.3,60.9z"/>
		<path class="st1" d="M285.9,68.2l5.4,9.3c1.2,2,3.8,2.8,5.8,1.6c2-1.2,2.7-3.8,1.6-5.8l-3.2-5.6l2.8-1.6c0.5-0.3,0.7-0.9,0.4-1.5
			l-1.4-2.4c0.2,0,1.3-0.2,20.5-4c2.4-0.1,3.8-2.7,2.6-4.8l-3.6-6.1l2.3-3.4c0.2-0.3,0.2-0.8,0-1.1L317,39c-0.2-0.4-0.6-0.6-1-0.5
			l-4.1,0.2l-3.9-6.8c-0.6-1-1.6-1.6-2.7-1.6c0,0,0,0,0,0c-1.1,0-2.1,0.5-2.7,1.5l-14,17.8l-9.1,5.2c-3.6,2.1-4.8,6.6-2.7,10.2
			C278.6,68.3,282.6,69.6,285.9,68.2z M296.9,74.4c0.6,1,0.2,2.3-0.8,2.9c-1,0.6-2.3,0.2-2.9-0.8l-5.3-9.3l3.7-2.1
			C297.7,75.8,296.8,74.2,296.9,74.4z M294.4,65.9l-1.1-1.9l1.9-1.1l1.1,1.9L294.4,65.9z M315.4,40.7l1.5,2.6l-1.3,2l-2.5-4.4
			L315.4,40.7z M304.2,33c0.3-0.5,0.7-0.5,0.9-0.5c0.2,0,0.6,0.1,0.9,0.5l12.4,21.5c0.4,0.7-0.1,1.6-0.9,1.6c-0.1,0-0.2,0-0.6,0.1
			l-13.1-22.8C304.1,33.1,304.2,33.1,304.2,33z M302.4,35.3l12.4,21.4l-18.6,3.7l-5.7-9.8L302.4,35.3z M278.5,64
			c-0.5-0.8-0.7-1.7-0.7-2.7c0-1.9,1-3.7,2.7-4.6l8.3-4.8l5.3,9.3l-8.3,4.8C283.3,67.4,280,66.5,278.5,64z"/>
		<path class="st1" d="M287,61.5c-0.3-0.5-0.9-0.7-1.5-0.4l-1.9,1.1c-0.5,0.3-1.2,0.1-1.5-0.4c-0.3-0.5-0.9-0.7-1.5-0.4
			s-0.7,0.9-0.4,1.5c0.9,1.5,2.8,2.1,4.4,1.2l1.9-1.1C287.1,62.7,287.3,62.1,287,61.5z"/>
		<path class="st1" d="M328.8,32.6l-6,3.3c-0.5,0.3-0.7,0.9-0.4,1.5c0.3,0.5,0.9,0.7,1.5,0.4l6-3.3c0.5-0.3,0.7-0.9,0.4-1.5
			C330,32.5,329.3,32.3,328.8,32.6z"/>
		<path class="st1" d="M328.2,43.7l-4.1-1.1c-0.6-0.2-1.2,0.2-1.3,0.8c-0.2,0.6,0.2,1.2,0.8,1.3l4.1,1.1c0.6,0.2,1.2-0.2,1.3-0.8
			C329.1,44.4,328.7,43.8,328.2,43.7z"/>
		<path class="st1" d="M317.8,28.7l-1.1,4.1c-0.2,0.6,0.2,1.2,0.8,1.3c0.6,0.2,1.2-0.2,1.3-0.8l1.1-4.1c0.2-0.6-0.2-1.2-0.8-1.3
			C318.5,27.8,317.9,28.2,317.8,28.7z"/>
	</g>
	<g>
		<path class="st9" d="M252.9,130v5.3h5.8v1.7h-5.8v5.5h6.5v1.7h-8.6v-16h8.6v1.7H252.9z"/>
		<path class="st9" d="M266.9,142.3l3.9-10.6h2.2l-4.9,12.5h-2.4l-4.9-12.5h2.2L266.9,142.3z"/>
		<path class="st9" d="M286.2,138.7h-10c0.1,1.2,0.5,2.2,1.3,2.9c0.8,0.7,1.7,1,2.8,1c0.9,0,1.7-0.2,2.3-0.6c0.6-0.4,1-1,1.3-1.7
			h2.2c-0.3,1.2-1,2.2-2,2.9c-1,0.8-2.3,1.1-3.8,1.1c-1.2,0-2.3-0.3-3.2-0.8c-0.9-0.5-1.7-1.3-2.2-2.3c-0.5-1-0.8-2.1-0.8-3.4
			s0.3-2.4,0.8-3.4s1.2-1.7,2.2-2.3c0.9-0.5,2-0.8,3.2-0.8c1.2,0,2.2,0.3,3.2,0.8c0.9,0.5,1.6,1.2,2.1,2.1c0.5,0.9,0.7,1.9,0.7,3.1
			C286.3,137.9,286.3,138.3,286.2,138.7z M283.6,135c-0.4-0.6-0.8-1-1.4-1.3c-0.6-0.3-1.3-0.4-2-0.4c-1.1,0-1.9,0.3-2.7,1
			s-1.2,1.6-1.3,2.8h7.9C284.2,136.3,284,135.6,283.6,135z"/>
		<path class="st9" d="M298.6,132.9c0.9,0.9,1.4,2.3,1.4,4v7.4H298v-7.1c0-1.2-0.3-2.2-0.9-2.9c-0.6-0.7-1.5-1-2.6-1
			c-1.1,0-2,0.3-2.6,1c-0.6,0.7-1,1.7-1,3v6.9h-2.1v-12.5h2.1v1.8c0.4-0.6,1-1.1,1.7-1.5s1.5-0.5,2.3-0.5
			C296.5,131.5,297.7,131.9,298.6,132.9z"/>
		<path class="st9" d="M305.8,133.4v7.4c0,0.6,0.1,1,0.4,1.3c0.3,0.3,0.7,0.4,1.3,0.4h1.5v1.8h-1.9c-1.2,0-2-0.3-2.6-0.8
			c-0.6-0.5-0.9-1.4-0.9-2.6v-7.4h-1.6v-1.7h1.6v-3.2h2.1v3.2h3.3v1.7H305.8z"/>
		<path class="st9" d="M313.6,143.6c-1-0.5-1.7-1.3-2.2-2.3s-0.8-2.1-0.8-3.4c0-1.3,0.3-2.4,0.8-3.4c0.6-1,1.3-1.7,2.3-2.3
			c1-0.5,2-0.8,3.2-0.8s2.3,0.3,3.2,0.8c1,0.5,1.7,1.3,2.3,2.3s0.8,2.1,0.8,3.4s-0.3,2.4-0.9,3.4s-1.3,1.7-2.3,2.3
			c-1,0.5-2.1,0.8-3.2,0.8C315.6,144.4,314.6,144.2,313.6,143.6z M318.9,142.1c0.7-0.4,1.2-0.9,1.6-1.6c0.4-0.7,0.6-1.6,0.6-2.6
			c0-1-0.2-1.9-0.6-2.6c-0.4-0.7-0.9-1.2-1.6-1.6c-0.6-0.3-1.3-0.5-2.1-0.5c-0.8,0-1.5,0.2-2.1,0.5s-1.1,0.9-1.5,1.6
			s-0.6,1.6-0.6,2.6c0,1,0.2,1.9,0.6,2.6s0.9,1.2,1.5,1.6c0.6,0.3,1.3,0.5,2.1,0.5S318.2,142.4,318.9,142.1z"/>
		<path class="st9" d="M327.6,143.9c-0.8-0.3-1.4-0.8-1.8-1.4c-0.4-0.6-0.7-1.3-0.7-2h2.1c0.1,0.6,0.4,1.1,0.9,1.5
			c0.5,0.4,1.2,0.6,2.1,0.6c0.8,0,1.4-0.2,1.9-0.5c0.5-0.4,0.7-0.8,0.7-1.3c0-0.5-0.2-1-0.7-1.2c-0.5-0.3-1.2-0.5-2.3-0.8
			c-0.9-0.2-1.7-0.5-2.3-0.7c-0.6-0.3-1.1-0.6-1.5-1.1c-0.4-0.5-0.6-1.1-0.6-2c0-0.6,0.2-1.2,0.6-1.8c0.4-0.5,0.9-1,1.6-1.3
			s1.5-0.5,2.4-0.5c1.4,0,2.5,0.4,3.4,1.1c0.9,0.7,1.3,1.7,1.4,2.9h-2.1c0-0.7-0.3-1.2-0.8-1.6c-0.5-0.4-1.1-0.6-1.9-0.6
			c-0.7,0-1.3,0.2-1.8,0.5s-0.7,0.7-0.7,1.3c0,0.4,0.1,0.8,0.4,1c0.3,0.3,0.6,0.5,1,0.6c0.4,0.2,1,0.3,1.7,0.5
			c0.9,0.2,1.6,0.5,2.2,0.7c0.6,0.2,1,0.6,1.5,1.1c0.4,0.5,0.6,1.1,0.6,1.9c0,0.7-0.2,1.3-0.6,1.9s-0.9,1-1.6,1.3
			c-0.7,0.3-1.5,0.5-2.4,0.5C329.2,144.4,328.3,144.3,327.6,143.9z"/>
		<path class="st9" d="M355.5,144.2l-2.1-2.1c-0.8,0.8-1.6,1.4-2.5,1.8s-1.9,0.6-3,0.6c-1.1,0-2.1-0.2-2.9-0.6c-0.8-0.4-1.5-1-2-1.7
			c-0.5-0.7-0.7-1.6-0.7-2.6c0-1.1,0.3-2.1,0.9-2.9s1.6-1.5,2.8-2c-0.5-0.6-0.8-1.1-1.1-1.6c-0.2-0.5-0.3-1-0.3-1.6
			c0-0.7,0.2-1.3,0.5-1.8c0.3-0.5,0.8-1,1.5-1.3c0.6-0.3,1.4-0.5,2.2-0.5c0.8,0,1.5,0.2,2.1,0.5s1.1,0.8,1.4,1.3s0.4,1.2,0.4,1.9
			h-2.1c0-0.6-0.2-1.1-0.5-1.5s-0.8-0.5-1.4-0.5c-0.6,0-1.1,0.2-1.5,0.5c-0.4,0.3-0.6,0.8-0.6,1.3c0,0.5,0.1,0.9,0.4,1.3
			c0.3,0.4,0.7,1,1.3,1.6l4.8,4.8l0.4-0.6l1.6-2.6h2.2l-1.9,3.2c-0.3,0.5-0.6,0.9-0.9,1.4l3.6,3.6H355.5z M350.2,142.2
			c0.7-0.3,1.3-0.8,1.9-1.5l-4.7-4.7c-2,0.7-2.9,1.9-2.9,3.5c0,0.9,0.3,1.6,1,2.2c0.6,0.6,1.5,0.9,2.5,0.9
			C348.8,142.7,349.5,142.6,350.2,142.2z"/>
		<path class="st9" d="M241.2,169c-0.9,0.9-2.3,1.3-4.2,1.3H234v6.7h-2.1V161h5.1c1.8,0,3.2,0.4,4.1,1.3s1.4,2,1.4,3.4
			C242.6,167,242.1,168.1,241.2,169z M239.6,167.8c0.5-0.5,0.8-1.2,0.8-2.1c0-2-1.1-2.9-3.4-2.9H234v5.9h3.1
			C238.2,168.6,239.1,168.3,239.6,167.8z"/>
		<path class="st9" d="M248.6,164.8c0.7-0.4,1.5-0.6,2.5-0.6v2.1h-0.5c-2.3,0-3.5,1.3-3.5,3.8v6.8h-2.1v-12.5h2.1v2
			C247.4,165.7,247.9,165.2,248.6,164.8z"/>
		<path class="st9" d="M255.5,176.3c-1-0.5-1.7-1.3-2.2-2.3s-0.8-2.1-0.8-3.4c0-1.3,0.3-2.4,0.8-3.4c0.6-1,1.3-1.7,2.3-2.3
			c1-0.5,2-0.8,3.2-0.8s2.3,0.3,3.2,0.8c1,0.5,1.7,1.3,2.3,2.3s0.8,2.1,0.8,3.4s-0.3,2.4-0.9,3.4s-1.3,1.7-2.3,2.3
			c-1,0.5-2.1,0.8-3.2,0.8C257.5,177.1,256.4,176.9,255.5,176.3z M260.8,174.8c0.7-0.4,1.2-0.9,1.6-1.6c0.4-0.7,0.6-1.6,0.6-2.6
			c0-1-0.2-1.9-0.6-2.6c-0.4-0.7-0.9-1.2-1.6-1.6c-0.6-0.3-1.3-0.5-2.1-0.5c-0.8,0-1.5,0.2-2.1,0.5s-1.1,0.9-1.5,1.6
			s-0.6,1.6-0.6,2.6c0,1,0.2,1.9,0.6,2.6s0.9,1.2,1.5,1.6c0.6,0.3,1.3,0.5,2.1,0.5S260.1,175.1,260.8,174.8z"/>
		<path class="st9" d="M285.3,164.8c0.8,0.4,1.4,1,1.8,1.8c0.4,0.8,0.7,1.8,0.7,3v7.4h-2.1v-7.1c0-1.2-0.3-2.2-0.9-2.9
			c-0.6-0.7-1.5-1-2.5-1c-1.1,0-1.9,0.3-2.6,1c-0.6,0.7-1,1.7-1,3v6.9h-2.1v-7.1c0-1.2-0.3-2.2-0.9-2.9c-0.6-0.7-1.5-1-2.5-1
			c-1.1,0-1.9,0.3-2.6,1c-0.6,0.7-1,1.7-1,3v6.9h-2.1v-12.5h2.1v1.8c0.4-0.7,1-1.2,1.7-1.5c0.7-0.4,1.5-0.5,2.3-0.5
			c1.1,0,2,0.2,2.8,0.7c0.8,0.5,1.4,1.2,1.8,2.1c0.4-0.9,0.9-1.6,1.7-2.1c0.8-0.5,1.7-0.7,2.7-0.7
			C283.7,164.2,284.5,164.4,285.3,164.8z"/>
		<path class="st9" d="M293.2,176.3c-1-0.5-1.7-1.3-2.2-2.3s-0.8-2.1-0.8-3.4c0-1.3,0.3-2.4,0.8-3.4c0.6-1,1.3-1.7,2.3-2.3
			c1-0.5,2-0.8,3.2-0.8s2.3,0.3,3.2,0.8c1,0.5,1.7,1.3,2.3,2.3s0.8,2.1,0.8,3.4s-0.3,2.4-0.9,3.4s-1.3,1.7-2.3,2.3
			c-1,0.5-2.1,0.8-3.2,0.8C295.2,177.1,294.2,176.9,293.2,176.3z M298.5,174.8c0.7-0.4,1.2-0.9,1.6-1.6c0.4-0.7,0.6-1.6,0.6-2.6
			c0-1-0.2-1.9-0.6-2.6c-0.4-0.7-0.9-1.2-1.6-1.6c-0.6-0.3-1.3-0.5-2.1-0.5c-0.8,0-1.5,0.2-2.1,0.5s-1.1,0.9-1.5,1.6
			s-0.6,1.6-0.6,2.6c0,1,0.2,1.9,0.6,2.6s0.9,1.2,1.5,1.6c0.6,0.3,1.3,0.5,2.1,0.5S297.9,175.1,298.5,174.8z"/>
		<path class="st9" d="M305.3,167.3c0.5-1,1.2-1.7,2.2-2.3c0.9-0.5,2-0.8,3.2-0.8c1.5,0,2.8,0.4,3.8,1.1c1,0.7,1.7,1.8,2,3.1h-2.2
			c-0.2-0.8-0.6-1.4-1.2-1.8s-1.4-0.7-2.3-0.7c-1.2,0-2.1,0.4-2.9,1.2c-0.7,0.8-1.1,2-1.1,3.5c0,1.5,0.4,2.7,1.1,3.5
			c0.7,0.8,1.7,1.2,2.9,1.2c0.9,0,1.7-0.2,2.3-0.6c0.6-0.4,1-1,1.3-1.8h2.2c-0.3,1.3-1,2.3-2,3.1c-1,0.8-2.3,1.2-3.8,1.2
			c-1.2,0-2.2-0.3-3.2-0.8c-0.9-0.5-1.6-1.3-2.2-2.3s-0.8-2.1-0.8-3.4C304.6,169.4,304.8,168.2,305.3,167.3z"/>
		<path class="st9" d="M319.1,162c-0.3-0.3-0.4-0.6-0.4-1s0.1-0.7,0.4-1s0.6-0.4,1-0.4c0.4,0,0.7,0.1,1,0.4c0.3,0.3,0.4,0.6,0.4,1
			s-0.1,0.7-0.4,1c-0.3,0.3-0.6,0.4-1,0.4C319.7,162.4,319.3,162.2,319.1,162z M321.1,164.4v12.5H319v-12.5H321.1z"/>
		<path class="st9" d="M326.7,176.3c-1-0.5-1.7-1.3-2.2-2.3s-0.8-2.1-0.8-3.4c0-1.3,0.3-2.4,0.8-3.4c0.6-1,1.3-1.7,2.3-2.3
			c1-0.5,2-0.8,3.2-0.8s2.3,0.3,3.2,0.8c1,0.5,1.7,1.3,2.3,2.3s0.8,2.1,0.8,3.4s-0.3,2.4-0.9,3.4s-1.3,1.7-2.3,2.3
			c-1,0.5-2.1,0.8-3.2,0.8C328.7,177.1,327.6,176.9,326.7,176.3z M332,174.8c0.7-0.4,1.2-0.9,1.6-1.6c0.4-0.7,0.6-1.6,0.6-2.6
			c0-1-0.2-1.9-0.6-2.6c-0.4-0.7-0.9-1.2-1.6-1.6c-0.6-0.3-1.3-0.5-2.1-0.5c-0.8,0-1.5,0.2-2.1,0.5s-1.1,0.9-1.5,1.6
			s-0.6,1.6-0.6,2.6c0,1,0.2,1.9,0.6,2.6s0.9,1.2,1.5,1.6c0.6,0.3,1.3,0.5,2.1,0.5S331.3,175.1,332,174.8z"/>
		<path class="st9" d="M348.6,165.6c0.9,0.9,1.4,2.3,1.4,4v7.4H348v-7.1c0-1.2-0.3-2.2-0.9-2.9c-0.6-0.7-1.5-1-2.6-1
			c-1.1,0-2,0.3-2.6,1c-0.6,0.7-1,1.7-1,3v6.9h-2.1v-12.5h2.1v1.8c0.4-0.6,1-1.1,1.7-1.5s1.5-0.5,2.3-0.5
			C346.4,164.2,347.7,164.6,348.6,165.6z"/>
		<path class="st9" d="M364.6,171.5h-10c0.1,1.2,0.5,2.2,1.3,2.9c0.8,0.7,1.7,1,2.8,1c0.9,0,1.7-0.2,2.3-0.6c0.6-0.4,1-1,1.3-1.7
			h2.2c-0.3,1.2-1,2.2-2,2.9c-1,0.8-2.3,1.1-3.8,1.1c-1.2,0-2.3-0.3-3.2-0.8c-0.9-0.5-1.7-1.3-2.2-2.3c-0.5-1-0.8-2.1-0.8-3.4
			s0.3-2.4,0.8-3.4s1.2-1.7,2.2-2.3c0.9-0.5,2-0.8,3.2-0.8c1.2,0,2.2,0.3,3.2,0.8c0.9,0.5,1.6,1.2,2.1,2.1c0.5,0.9,0.7,1.9,0.7,3.1
			C364.6,170.6,364.6,171,364.6,171.5z M362,167.7c-0.4-0.6-0.8-1-1.4-1.3c-0.6-0.3-1.3-0.4-2-0.4c-1.1,0-1.9,0.3-2.7,1
			s-1.2,1.6-1.3,2.8h7.9C362.5,169,362.3,168.3,362,167.7z"/>
		<path class="st9" d="M369,176.7c-0.8-0.3-1.4-0.8-1.8-1.4c-0.4-0.6-0.7-1.3-0.7-2h2.1c0.1,0.6,0.4,1.1,0.9,1.5
			c0.5,0.4,1.2,0.6,2.1,0.6c0.8,0,1.4-0.2,1.9-0.5c0.5-0.4,0.7-0.8,0.7-1.3c0-0.5-0.2-1-0.7-1.2c-0.5-0.3-1.2-0.5-2.3-0.8
			c-0.9-0.2-1.7-0.5-2.3-0.7c-0.6-0.3-1.1-0.6-1.5-1.1c-0.4-0.5-0.6-1.1-0.6-2c0-0.6,0.2-1.2,0.6-1.8c0.4-0.5,0.9-1,1.6-1.3
			s1.5-0.5,2.4-0.5c1.4,0,2.5,0.4,3.4,1.1c0.9,0.7,1.3,1.7,1.4,2.9H374c0-0.7-0.3-1.2-0.8-1.6c-0.5-0.4-1.1-0.6-1.9-0.6
			c-0.7,0-1.3,0.2-1.8,0.5s-0.7,0.7-0.7,1.3c0,0.4,0.1,0.8,0.4,1c0.3,0.3,0.6,0.5,1,0.6c0.4,0.2,1,0.3,1.7,0.5
			c0.9,0.2,1.6,0.5,2.2,0.7c0.6,0.2,1,0.6,1.5,1.1c0.4,0.5,0.6,1.1,0.6,1.9c0,0.7-0.2,1.3-0.6,1.9s-0.9,1-1.6,1.3
			c-0.7,0.3-1.5,0.5-2.4,0.5C370.6,177.1,369.8,177,369,176.7z"/>
	</g>
</g>
</svg>
