<?xml version="1.0" encoding="utf-8"?>
<!-- Generator: Adobe Illustrator 24.3.0, SVG Export Plug-In . SVG Version: 6.00 Build 0)  -->
<svg version="1.1" id="Layer_1" xmlns="http://www.w3.org/2000/svg" xmlns:xlink="http://www.w3.org/1999/xlink" x="0px" y="0px"
	 viewBox="0 0 329.2 123.9" style="enable-background:new 0 0 329.2 123.9;" xml:space="preserve">
<style type="text/css">
	.st0{fill:#575756;}
	.st1{fill:#CCC9A9;}
	.st2{fill:#FFFFFF;}
	.st3{fill-rule:evenodd;clip-rule:evenodd;fill:#FFFFFF;}
	.st4{fill-rule:evenodd;clip-rule:evenodd;fill:#575756;}
</style>
<g>
	<path class="st0" d="M142.8,28.4c0,0-4,0.5-6.5,0c0,0-0.3,1.2-0.7,1.8c0,0-0.2,0.4,2.2-0.2v6.6c0,0,2.1-0.7,2.8-0.5
		c0,0-1-2.1-0.4-6c0,0,1.2,0.5,2.1-0.2C142.3,29.9,142.2,29,142.8,28.4L142.8,28.4z"/>
	<path class="st0" d="M142.8,28.4c0,0-4,0.5-6.5,0c0,0-0.3,1.2-0.7,1.8c0,0-0.2,0.4,2.2-0.2v6.6c0,0,2.1-0.7,2.8-0.5
		c0,0-1-2.1-0.4-6c0,0,1.2,0.5,2.1-0.2C142.3,29.9,142.2,29,142.8,28.4L142.8,28.4L142.8,28.4z"/>
	<path class="st0" d="M146.2,28.4c0,0,0.6,0.9,0.4,1.7c0,0-2.1,0.7-2.1,1.6h1.5v1.6h-2c0,0,0.7,1.5,2.4,1.9c0,0,0,1.1-0.5,1.7
		c0,0-4.3-1.9-4.3-4.1C141.7,32.8,141.4,30.5,146.2,28.4L146.2,28.4z"/>
	<path class="st0" d="M146.2,28.4c0,0,0.6,0.9,0.4,1.7c0,0-2.1,0.7-2.1,1.6h1.5v1.6h-2c0,0,0.7,1.5,2.4,1.9c0,0,0,1.1-0.5,1.7
		c0,0-4.3-1.9-4.3-4.1C141.7,32.8,141.4,30.5,146.2,28.4L146.2,28.4L146.2,28.4z"/>
	<path class="st0" d="M181.5,28.4c0,0,0.6,0.9,0.4,1.7c0,0-2.1,0.7-2.1,1.6h1.5v1.6h-2c0,0,0.7,1.5,2.4,1.9c0,0,0,1.1-0.5,1.7
		c0,0-4.3-1.9-4.3-4.1C177,32.8,176.6,30.5,181.5,28.4L181.5,28.4z"/>
	<path class="st0" d="M181.5,28.4c0,0,0.6,0.9,0.4,1.7c0,0-2.1,0.7-2.1,1.6h1.5v1.6h-2c0,0,0.7,1.5,2.4,1.9c0,0,0,1.1-0.5,1.7
		c0,0-4.3-1.9-4.3-4.1C177,32.8,176.6,30.5,181.5,28.4L181.5,28.4L181.5,28.4z"/>
	<path class="st0" d="M151.7,30.4l-1.8-1.8h-2.7c0,0,1.1,4.7,0.2,7.7c0,0,2.4,0.1,2.7-0.4c0,0-0.9-3.3-0.5-4.6c0,0,1.7,1.8,1.9,3.3
		c0,0,0.1-1.6,1.7-3.1c0,0,0.6,2.4-0.2,4.6c0,0,1.3,0.8,3-0.4c0,0-1.5-2.6-0.2-7.3h-2.8L151.7,30.4L151.7,30.4z"/>
	<path class="st0" d="M151.7,30.4l-1.8-1.8h-2.7c0,0,1.1,4.7,0.2,7.7c0,0,2.4,0.1,2.7-0.4c0,0-0.9-3.3-0.5-4.6c0,0,1.7,1.8,1.9,3.3
		c0,0,0.1-1.6,1.7-3.1c0,0,0.6,2.4-0.2,4.6c0,0,1.3,0.8,3-0.4c0,0-1.5-2.6-0.2-7.3h-2.8L151.7,30.4L151.7,30.4L151.7,30.4z"/>
	<path class="st0" d="M161.9,28.1l-2.6,1.1c1.9,1.9-2.8,6.5-2.8,6.5l2.8,1c0-1,0.5-1.8,0.5-1.8h2.8c0.7,0.6,0.7,2,0.7,2l2.2-1.6
		C163.8,33.6,161.9,28.1,161.9,28.1L161.9,28.1L161.9,28.1z M160.3,33.6c0.3-0.7,1-1.5,1-1.5l0.4,1.5H160.3L160.3,33.6z"/>
	<path class="st0" d="M155.3,39.8c0,0,0.1,0.2,0.1,0.4c0,0-0.5,0.2-0.5,0.4h0.4V41h-0.5c0,0,0.2,0.4,0.6,0.5c0,0,0,0.3-0.1,0.4
		c0,0-1-0.4-1-1C154.2,40.9,154.1,40.3,155.3,39.8L155.3,39.8z"/>
	<path class="st0" d="M161.1,39.8l-0.6,0.2c0.4,0.4-0.6,1.5-0.6,1.5l0.6,0.2c0-0.2,0.1-0.4,0.1-0.4h0.6c0.2,0.1,0.2,0.4,0.2,0.4
		l0.5-0.4C161.6,41.1,161.1,39.8,161.1,39.8L161.1,39.8L161.1,39.8z M160.8,41.1c0.1-0.2,0.2-0.3,0.2-0.3l0.1,0.3H160.8L160.8,41.1z
		"/>
	<path class="st0" d="M166.3,39.8c0,0,0.1,0.2,0.1,0.4c0,0-0.5,0.2-0.5,0.4h0.4V41h-0.5c0,0,0.2,0.4,0.6,0.5c0,0,0,0.3-0.1,0.4
		c0,0-1-0.4-1-1C165.2,40.9,165.2,40.3,166.3,39.8L166.3,39.8z"/>
	<path class="st0" d="M174.2,39.8l-0.6,0.2c0.4,0.4-0.6,1.5-0.6,1.5l0.6,0.2c0-0.2,0.1-0.4,0.1-0.4h0.6c0.2,0.1,0.2,0.4,0.2,0.4
		l0.5-0.4C174.7,41.1,174.2,39.8,174.2,39.8L174.2,39.8L174.2,39.8z M173.9,41.1c0.1-0.2,0.2-0.3,0.2-0.3l0.1,0.3H173.9L173.9,41.1z
		"/>
	<path class="st0" d="M169,28.5h-3.3c0,0,1.8,1.5,0.4,7.8h2.7C168.8,36.3,167.5,31,169,28.5L169,28.5z"/>
	<path class="st0" d="M169,28.5h-3.3c0,0,1.8,1.5,0.4,7.8h2.7C168.8,36.3,167.5,31,169,28.5L169,28.5L169,28.5z"/>
	<path class="st0" d="M169.8,28.5c0,0,1.1,2.7,0.2,7.8c0,0,1.1-0.2,2.7-0.1c0,0-0.4-1.9,0-2.3c0,0,0.6-1,2.4,2.7
		c0,0,1.2-0.9,2.3-1.2c0,0-2.2-2.1-3.1-3.4c0,0,1-1.7,2.1-2.7c0,0-1.6-0.5-2.1-1.1c0,0-0.8,2.1-1.6,2.4c0,0-0.5-1.5,0.1-2.2H169.8
		L169.8,28.5z"/>
	<path class="st0" d="M169.8,28.5c0,0,1.1,2.7,0.2,7.8c0,0,1.1-0.2,2.7-0.1c0,0-0.4-1.9,0-2.3c0,0,0.6-1,2.4,2.7
		c0,0,1.2-0.9,2.3-1.2c0,0-2.2-2.1-3.1-3.4c0,0,1-1.7,2.1-2.7c0,0-1.6-0.5-2.1-1.1c0,0-0.8,2.1-1.6,2.4c0,0-0.5-1.5,0.1-2.2H169.8
		L169.8,28.5L169.8,28.5z"/>
	<path class="st0" d="M178.6,26.5l1.8-0.6c0,0,0.7,1.6,1.4,1.6l-1.3,0.7C180.5,28.2,179.3,26.4,178.6,26.5L178.6,26.5z"/>
	<path class="st0" d="M178.6,26.5l1.8-0.6c0,0,0.7,1.6,1.4,1.6l-1.3,0.7C180.5,28.2,179.3,26.4,178.6,26.5L178.6,26.5L178.6,26.5z"
		/>
	<path class="st0" d="M183,28.5c0,0,1.4,4.3,0.1,7.8c0,0,1.5-0.5,2.8-0.1c0,0-0.9-3.2-0.4-3.8c0,0,1.1-0.1,2.9,4c0,0,1.2-0.4,1.9,0
		c0,0-1-5.2,0-7.8h-3c0,0,0.7,2.5,0.5,3.3c0,0-2-1.8-2.1-3.3H183L183,28.5z"/>
	<path class="st0" d="M183,28.5c0,0,1.4,4.3,0.1,7.8c0,0,1.5-0.5,2.8-0.1c0,0-0.9-3.2-0.4-3.8c0,0,1.1-0.1,2.9,4c0,0,1.2-0.4,1.9,0
		c0,0-1-5.2,0-7.8h-3c0,0,0.7,2.5,0.5,3.3c0,0-2-1.8-2.1-3.3H183L183,28.5L183,28.5z"/>
	<polygon class="st0" points="152.1,40.3 152.2,41.8 151.6,41.8 151.7,40.3 151.1,40.4 151.1,40 152.8,40 152.7,40.4 152.1,40.3 	
		"/>
	<polygon class="st0" points="153.6,39.9 153.6,41.8 153.1,41.8 153.1,40 153.6,39.9 	"/>
	<path class="st0" d="M157.5,41.8l-0.6,0l-0.6-0.8l0,0.1v0.7h-0.6l-0.1-1.9l1,0c0.2,0,0.4,0,0.5,0.1c0.1,0.1,0.2,0.2,0.2,0.4
		c0,0.2-0.1,0.4-0.3,0.5L157.5,41.8L157.5,41.8L157.5,41.8z M156.3,40.7l0.4,0c0.2,0,0.3-0.1,0.3-0.2c0-0.1-0.1-0.2-0.3-0.2l-0.4,0
		V40.7L156.3,40.7z"/>
	<path class="st0" d="M159.7,41.8l-0.6,0l-0.6-0.8l0,0.1v0.7h-0.6l-0.1-1.9l1,0c0.2,0,0.4,0,0.5,0.1c0.1,0.1,0.2,0.2,0.2,0.4
		c0,0.2-0.1,0.4-0.3,0.5L159.7,41.8L159.7,41.8L159.7,41.8z M158.4,40.7l0.4,0c0.2,0,0.3-0.1,0.3-0.2c0-0.1-0.1-0.2-0.3-0.2l-0.4,0
		V40.7L158.4,40.7z"/>
	<path class="st0" d="M163.2,41.8l0-1.9l0.7,0c0.3,0,0.5,0.1,0.7,0.3c0.2,0.2,0.2,0.4,0.2,0.7c0,0.3-0.1,0.5-0.2,0.7
		c-0.2,0.2-0.4,0.3-0.7,0.3L163.2,41.8L163.2,41.8L163.2,41.8z M163.8,41.3l0.3,0c0.1,0,0.2-0.1,0.3-0.2c0-0.1,0.1-0.2,0.1-0.3
		c0-0.1,0-0.2-0.1-0.3c-0.1-0.1-0.1-0.2-0.3-0.2l-0.3,0V41.3L163.8,41.3z"/>
	<path class="st0" d="M169.7,40l-0.7,1.8l-0.3,0l-0.8-1.9l0.6,0l0.2,1.1c0,0,0,0.1,0.1,0.2l0.3-1.3L169.7,40L169.7,40z"/>
	<polygon class="st0" points="170.6,39.9 170.6,41.8 170.1,41.8 170.2,40 170.6,39.9 	"/>
	<path class="st0" d="M171.1,41.8l0-1.9l0.7,0c0.3,0,0.5,0.1,0.7,0.3c0.2,0.2,0.2,0.4,0.2,0.7c0,0.3-0.1,0.5-0.2,0.7
		c-0.2,0.2-0.4,0.3-0.7,0.3L171.1,41.8L171.1,41.8L171.1,41.8z M171.6,41.3l0.3,0c0.1,0,0.2-0.1,0.3-0.2c0-0.1,0.1-0.2,0.1-0.3
		c0-0.1,0-0.2-0.1-0.3c-0.1-0.1-0.2-0.2-0.3-0.2l-0.3,0V41.3L171.6,41.3z"/>
	<path class="st1" d="M161.3,15c1.2-0.2,2.3-0.3,3.5-0.3c1.6,0,2.8-1.4,4.4-1.5c-1.4-1.9-3.6-3.2-6.2-3.2c-4,0-7.3,3.1-7.6,7.1
		c1.2-0.6,2.1-0.5,3.4-0.7C159.9,16.1,160.3,15.2,161.3,15L161.3,15z"/>
	<path class="st0" d="M161.3,15c1.2-0.2,2.3-0.3,3.5-0.3c1.6,0,2.8-1.4,4.4-1.5c-1.4-1.9-3.6-3.2-6.2-3.2c-4,0-7.3,3.1-7.6,7.1
		c1.2-0.6,2.1-0.5,3.4-0.7C159.9,16.1,160.3,15.2,161.3,15L161.3,15L161.3,15z"/>
	<path class="st0" d="M163.7,20.1c1.3-0.1,2.2-1,3.5-1.2c1.1-0.1,2.4,0,3.3-0.6c0-0.3,0-0.5,0-0.8c0-1.6-0.5-3.1-1.4-4.4
		c-1.6,0.1-2.8,1.4-4.4,1.5c-1.2,0-2.3,0.1-3.5,0.3c-1.1,0.2-1.4,1.2-2.5,1.4c-1.3,0.2-2.2,0.1-3.4,0.7c0,0.2,0,0.3,0,0.5
		c0,1.6,0.5,3.1,1.4,4.4c0.8-0.2,1.5-0.4,2.2-0.8C160.5,19.9,161.9,20.3,163.7,20.1L163.7,20.1z"/>
	<path class="st0" d="M163.7,20.1c1.3-0.1,2.2-1,3.5-1.2c1.1-0.1,2.4,0,3.3-0.6c0-0.3,0-0.5,0-0.8c0-1.6-0.5-3.1-1.4-4.4
		c-1.6,0.1-2.8,1.4-4.4,1.5c-1.2,0-2.3,0.1-3.5,0.3c-1.1,0.2-1.4,1.2-2.5,1.4c-1.3,0.2-2.2,0.1-3.4,0.7c0,0.2,0,0.3,0,0.5
		c0,1.6,0.5,3.1,1.4,4.4c0.8-0.2,1.5-0.4,2.2-0.8C160.5,19.9,161.9,20.3,163.7,20.1L163.7,20.1L163.7,20.1z"/>
	<path class="st0" d="M167.3,18.9c-1.3,0.2-2.2,1.1-3.5,1.2c-1.8,0.1-3.3-0.2-4.7,0.9c-0.7,0.5-1.4,0.6-2.2,0.8
		c1.4,1.9,3.6,3.2,6.2,3.2c3.9,0,7.1-3,7.5-6.8C169.6,18.9,168.4,18.8,167.3,18.9L167.3,18.9z"/>
	<path class="st0" d="M167.3,18.9c-1.3,0.2-2.2,1.1-3.5,1.2c-1.8,0.1-3.3-0.2-4.7,0.9c-0.7,0.5-1.4,0.6-2.2,0.8
		c1.4,1.9,3.6,3.2,6.2,3.2c3.9,0,7.1-3,7.5-6.8C169.6,18.9,168.4,18.8,167.3,18.9L167.3,18.9L167.3,18.9z"/>
	<path class="st2" d="M168.4,12.1c0,0-5.9,0.8-9.7,0c0,0-0.5,1.8-1,2.6c0,0-0.3,0.6,3.3-0.3v9.8c0,0,3.2-1,4.2-0.8
		c0,0-1.5-3.1-0.6-8.9c0,0,1.8,0.7,3.1-0.3C167.7,14.3,167.6,13,168.4,12.1L168.4,12.1z"/>
	<path class="st2" d="M168.4,12.1c0,0-5.9,0.8-9.7,0c0,0-0.5,1.8-1,2.6c0,0-0.3,0.6,3.3-0.3v9.8c0,0,3.2-1,4.2-0.8
		c0,0-1.5-3.1-0.6-8.9c0,0,1.8,0.7,3.1-0.3C167.7,14.3,167.6,13,168.4,12.1L168.4,12.1L168.4,12.1z"/>
	<path class="st2" d="M169.3,13.1L169.3,13.1C169.3,13.1,169.3,13.1,169.3,13.1L169.3,13.1z"/>
	<path class="st2" d="M169.7,13.1c-0.1,0-0.3,0-0.4,0C169.4,13.1,169.6,12.9,169.7,13.1L169.7,13.1z"/>
	<path class="st2" d="M169.2,12.8l0.1,0C169.3,12.9,169.3,12.8,169.2,12.8L169.2,12.8z"/>
	<polygon class="st2" points="169.3,13 169.3,13 169.2,13 169.3,13 	"/>
	<polygon class="st2" points="163.2,15.4 163.2,15.5 163.2,15.4 	"/>
	<polygon class="st2" points="162.9,15.2 162.8,15.2 162.9,15.2 	"/>
	<polygon class="st2" points="163.5,15.4 163.4,15.4 163.5,15.4 	"/>
	<path class="st2" d="M166.7,14.4c0.1,0,0.1,0,0.2,0C166.8,14.6,166.7,14.5,166.7,14.4L166.7,14.4z"/>
	<path class="st2" d="M161.4,14.6L161.4,14.6C161.4,14.6,161.4,14.6,161.4,14.6L161.4,14.6z"/>
	<polygon class="st2" points="162.7,14.5 162.7,14.5 162.7,14.5 162.7,14.5 	"/>
	<path class="st2" d="M163.7,15.3L163.7,15.3L163.7,15.3C163.7,15.3,163.7,15.3,163.7,15.3L163.7,15.3z"/>
	<path class="st2" d="M160.8,14.7l-0.1-0.1C160.8,14.7,160.8,14.7,160.8,14.7L160.8,14.7z"/>
	<polygon class="st2" points="162.8,15.2 162.8,15.2 162.8,15.2 162.8,15.2 	"/>
	<path class="st2" d="M163.2,14.5L163.2,14.5C163.1,14.4,163.2,14.4,163.2,14.5L163.2,14.5z"/>
	<path class="st2" d="M166.7,14.4L166.7,14.4C166.7,14.4,166.7,14.4,166.7,14.4L166.7,14.4z"/>
	<path class="st2" d="M169,13.3C168.9,13.3,168.9,13.2,169,13.3L169,13.3L169,13.3z"/>
	<polygon class="st2" points="155.1,17.6 155.1,17.6 155.1,17.6 	"/>
	<path class="st2" d="M156.5,17.4L156.5,17.4C156.6,17.4,156.5,17.4,156.5,17.4L156.5,17.4z"/>
	<path class="st2" d="M158,16.3c-0.1,0.1-0.2-0.1-0.3-0.1l0,0.1l-0.1,0l0,0.1c-0.1,0-0.3,0-0.4-0.1l0,0.1l-0.2-0.1l0.1,0.1
		c-0.2,0-0.5-0.1-0.5-0.1l0,0c0,0-0.1,0-0.1,0l0,0.1c-0.3,0-0.4,0.2-0.7,0.1c-0.1,0,0.1,0,0.1,0.1c0,0.1-0.2,0-0.2,0
		c0,0.1,0.2,0.1,0.1,0.2c-0.1,0,0.1,0.1-0.1,0.1l-0.1-0.1c-0.1,0,0,0.1-0.1,0.1c-0.1,0,0.1-0.2-0.1-0.2c-0.1,0-0.1,0.4-0.3,0.4
		c-0.1,0.1,0.2,0.2-0.1,0.2l0.2,0c0,0.1,0,0.1-0.1,0.1c0,0-0.1-0.1-0.2-0.1c0.2,0-0.1,0.2,0.1,0.3l-0.1,0l0,0l-0.1,0
		c0.1,0,0.2,0,0.2,0.1l-0.1,0.1c0.1,0.1,0,0.1,0.1,0.2l0.4,0c0,0-0.1-0.1-0.1-0.1c0.1-0.1,0.1,0,0.1,0l-0.1,0c0,0,0,0,0,0
		c0,0,0,0-0.1,0c0-0.1,0.1-0.1,0.1,0c0.1,0,0-0.1,0-0.2c0.1,0.1,0.2,0,0.3,0l-0.1-0.1c0.1-0.1,0.2,0,0.2,0l0-0.1
		c0.1,0,0.2-0.2,0.3,0l0,0c0.1,0,0.1-0.1,0.2,0c0,0,0-0.1,0-0.1c0,0.1,0.1,0,0.2,0c-0.1,0,0-0.1-0.1-0.2c0.1-0.1,0.1,0.1,0.2,0.1
		c0.1-0.1-0.1-0.1-0.1-0.1c0.2,0.1,0.4-0.3,0.5,0l-0.1,0.1c0.1,0.1,0.1,0.1,0.1,0c0,0,0,0,0,0c0.2-0.1,0.3,0.2,0.5,0.1
		c0,0,0-0.1,0-0.1c0.1,0,0.1,0.2,0.3,0.1l0-0.1c0.1,0,0.1,0,0.1,0.1c0-0.2,0.3,0,0.4-0.3c0.1,0.1,0.3,0.2,0.4,0.1
		c0.1-0.1-0.1-0.1-0.1-0.3c0.1,0,0.1,0.1,0.2,0c0,0.1-0.2,0.3,0.1,0.3l0-0.1c0,0-0.1,0-0.1,0c-0.1,0,0-0.1,0-0.1l0.3,0
		c0.1,0.1-0.1,0.1-0.1,0.2c0.2-0.1,0.3-0.4,0.5-0.4l0,0c0.2,0,0-0.3,0.2-0.2c0.1-0.1-0.1-0.1,0-0.2c0,0,0,0,0,0
		c0.2-0.1,0-0.1,0.2-0.2l-0.1-0.1c0.2-0.1,0.5,0,0.6-0.2c-0.1-0.1-0.1,0-0.2,0c0.3,0,0.4-0.3,0.6-0.3c0,0.1,0.2,0.1,0.1,0.2
		c-0.1-0.1-0.1,0-0.1,0c0.2,0.2,0.2-0.3,0.4-0.1l0-0.1c0,0,0.1,0,0.1,0.1l0.1-0.1c-0.1-0.1-0.3-0.2-0.3-0.1c-0.1-0.1,0-0.1-0.1-0.2
		c0.2,0.1,0-0.1,0.2-0.1c0,0.2,0.2,0.2,0.2,0.2c0,0,0.2,0,0.2,0.1c0.1,0,0.3-0.2,0.4-0.1c-0.1,0-0.1-0.1-0.2-0.2
		c0.1,0,0.1,0,0.1-0.1c-0.3-0.2,0,0.3-0.3,0.2c-0.1-0.1-0.1-0.1-0.3-0.2c0-0.1,0-0.1,0-0.2c0.2,0.2,0.4,0,0.6,0.1
		c0.1,0.1,0.1,0.2,0.2,0.2l-0.1,0.1c0.1-0.1,0,0.1,0.2,0.1l-0.1-0.1c0.1,0,0.1,0,0.2,0l-0.1-0.1c0,0,0.1,0,0.1,0l0-0.1
		c0,0,0,0,0.1,0c0,0-0.1,0-0.1,0c0.2,0,0-0.1,0.2-0.1c0,0,0-0.1,0.1-0.1c0,0.2,0.3,0.2,0.3,0.3l0,0l0.2,0.1c0,0,0-0.1,0-0.1l0,0
		c0,0-0.1-0.2,0.1-0.2l0.1,0.1c0,0,0,0,0-0.1l0.1,0.1c0.1-0.2,0.2,0.1,0.4,0c0,0-0.1,0-0.1-0.1c0,0,0.1,0,0.1,0l0,0l0.3,0.1
		c0-0.1-0.2-0.1-0.1-0.2c0-0.1,0.1,0,0.2,0c0,0.1-0.1,0.1,0,0.1c0,0,0.1-0.1,0.1-0.1c0.1,0.1,0.2,0.1,0.4,0.2c0,0,0,0,0,0l0,0
		c-0.1,0,0-0.1-0.1-0.1c0-0.2,0.2-0.1,0.3-0.1l-0.2-0.1c0.3-0.3,0.7-0.1,1-0.2c-0.1,0.1-0.1,0.1-0.1,0.2c0.2,0,0.2,0,0.3-0.1l0,0
		c0.1-0.1,0.2,0,0.2-0.2c-0.1-0.1-0.1,0.1-0.2,0l0.2-0.1c-0.1-0.1-0.2,0.1-0.3,0.1c-0.1,0,0.1,0,0.1,0.1c-0.2,0.1-0.3,0-0.4-0.1
		c-0.1-0.1,0-0.1,0.1-0.1c0.2,0.1,0.4,0.1,0.5-0.1l0.1-0.2c0.1,0.1,0.2,0.3,0.3,0.2l-0.1-0.1c0,0,0-0.1,0.1-0.1l-0.3-0.1
		c0-0.2,0.3,0,0.5-0.1c0,0-0.1,0-0.1,0c0.2-0.1,0.5-0.1,0.7-0.1c0-0.1-0.2,0-0.2-0.1c0.1,0,0.1-0.1,0.2-0.1c-0.1-0.1,0.2-0.1,0-0.2
		c0.3-0.2,0.7-0.3,1-0.3c0,0,0-0.1,0-0.1c-0.1,0-0.3,0.1-0.4,0c0-0.1,0.2,0,0.2,0c-0.1,0-0.1,0-0.2-0.1c0.1-0.1,0.2,0,0.2,0l0,0.1
		c0.2,0,0.2,0.2,0.4,0.1c0-0.1,0-0.1-0.1-0.2c0.1,0,0.2-0.2,0.3-0.1l-0.1,0.1c0.1,0,0.2,0,0.3,0c0,0,0,0,0,0c0.1,0,0.2,0,0.2,0
		l0-0.1c0,0.1-0.2,0.1-0.2,0.1c0-0.1,0.1-0.1,0.2-0.1c-0.3,0-0.3-0.1-0.5,0l0.1,0c-0.1,0.1-0.3,0-0.4,0.1c0,0,0-0.1,0-0.1
		c-0.2,0.2-0.5,0.2-0.7,0.5l-0.1-0.1l0,0.1c-0.1,0.1-0.1-0.1-0.2,0c0,0,0,0,0.1,0c-0.2,0,0,0.1-0.1,0.1c0.1,0.1,0.2-0.1,0.2,0.1
		c-0.2,0-0.4,0.2-0.5,0c-0.2,0.2-0.7,0.3-0.9,0.4c0,0.1,0,0,0,0.1c-0.1-0.1-0.3,0.2-0.3,0.1c0,0,0,0.1,0,0.2c-0.1,0-0.2,0-0.2,0
		l0.1,0l0,0l-0.1,0l0,0c-0.2,0-0.4,0.1-0.6,0c0.1,0.1,0,0.1,0,0.2c-0.1-0.2-0.3-0.2-0.5-0.1c0,0,0,0.1,0,0.1l-0.1-0.1l0,0
		c-0.2,0-0.4-0.2-0.6-0.1c0.1,0,0.1,0.1,0.1,0.1c-0.1,0-0.3,0-0.5,0l0,0c0,0-0.1,0-0.1,0l0,0.1c-0.1,0-0.2,0-0.3,0
		c0,0.1-0.3-0.1-0.4,0c-0.1,0,0.1,0.1,0,0.1c0-0.2-0.2,0-0.2-0.2l-0.1,0.1l0-0.1c-0.1,0.2-0.2-0.1-0.3,0c0,0,0,0,0,0
		c-0.1,0-0.2,0-0.1-0.1c-0.1,0-0.4,0-0.2,0.1c0-0.1,0.1,0,0.1,0c0,0.1-0.1,0.1-0.1,0.2l0,0l0,0.1c-0.2,0-0.4,0.1-0.6,0
		c0,0,0,0.1-0.1,0.1l-0.1-0.1l-0.2,0.1l0.2,0.1c-0.2,0.1-0.4,0.1-0.5,0.1c0.1,0.2-0.3,0.1-0.3,0.4l0.1,0c-0.2,0.1-0.2,0.3-0.3,0.3
		c0.1-0.2,0.1-0.1,0.2-0.4c-0.2,0.3-0.4,0.2-0.5,0.5c0,0,0.1,0,0.1,0.1c-0.1,0-0.1,0.1-0.2,0c0,0.1,0,0.2,0,0.2c-0.1,0-0.2,0-0.2,0
		l0,0c-0.2,0.4-0.4,0-0.8,0.1l0,0.1l-0.1-0.1c0.1,0.1,0,0.1,0,0.1l-0.3-0.1C157.9,16.2,157.9,16.3,158,16.3L158,16.3L158,16.3z
		 M160.8,14.8L160.8,14.8l0.1-0.1L160.8,14.8C160.8,14.8,160.8,14.9,160.8,14.8L160.8,14.8L160.8,14.8z M166.7,13.8L166.7,13.8
		C166.6,13.9,166.7,13.8,166.7,13.8C166.6,13.8,166.7,13.8,166.7,13.8L166.7,13.8L166.7,13.8z M161.1,15.6L161.1,15.6L161.1,15.6
		L161.1,15.6L161.1,15.6L161.1,15.6z M160.4,16.1L160.4,16.1L160.4,16.1L160.4,16.1L160.4,16.1L160.4,16.1L160.4,16.1z M159.3,16.2
		L159.3,16.2L159.3,16.2c-0.1,0,0,0.1-0.1,0C159.1,16.1,159.2,16.2,159.3,16.2L159.3,16.2L159.3,16.2z M160.7,15.1
		c0-0.1-0.2,0-0.2,0c0,0,0.1,0.1,0.1,0.1c0,0,0,0-0.1,0C160.6,15.3,160.5,15,160.7,15.1L160.7,15.1L160.7,15.1z M162.8,14.6
		L162.8,14.6L162.8,14.6L162.8,14.6L162.8,14.6L162.8,14.6z M163.2,14.6c0.1,0.1,0.2,0.1,0.3,0.1C163.5,14.6,163.4,14.5,163.2,14.6
		C163.2,14.5,163.3,14.7,163.2,14.6L163.2,14.6L163.2,14.6z M159.9,15.9c0.1,0,0.2,0.1,0.3-0.1l-0.1,0l0,0l-0.1,0
		C160.2,15.9,159.9,15.8,159.9,15.9L159.9,15.9L159.9,15.9z M164,14.6c0.1,0.1,0.2,0.1,0.2,0.2C164.3,14.7,164.1,14.6,164,14.6
		C164.1,14.6,164.1,14.6,164,14.6L164,14.6L164,14.6z M164.1,14.8c0,0,0,0.1-0.1,0c0-0.1,0-0.2-0.1-0.2c0.1,0.1,0.1,0.2,0.2,0.2
		L164.1,14.8L164.1,14.8L164.1,14.8z M163.9,14.5L163.9,14.5c-0.1,0.1-0.1,0.2-0.2,0.1L163.9,14.5L163.9,14.5L163.9,14.5L163.9,14.5
		z M164.9,14.4L164.9,14.4C164.9,14.4,164.9,14.4,164.9,14.4L164.9,14.4C164.8,14.5,164.9,14.5,164.9,14.4L164.9,14.4L164.9,14.4z
		 M164,14.5l0.1,0C164.1,14.6,164,14.6,164,14.5L164,14.5L164,14.5z M164.9,14.6c-0.1,0-0.2,0.1-0.2,0
		C164.7,14.5,164.8,14.5,164.9,14.6L164.9,14.6L164.9,14.6z M167.6,13.5l0,0.1L167.6,13.5L167.6,13.5L167.6,13.5L167.6,13.5z
		 M166.9,14L166.9,14L166.9,14L166.9,14L166.9,14L166.9,14z M166,14.5L166,14.5L166,14.5C165.9,14.4,165.9,14.4,166,14.5
		c0-0.1,0.1-0.1,0.1-0.1c0,0-0.1,0-0.1,0c0-0.1,0.4,0.1,0.2-0.2c0,0,0.2,0,0.2,0.1C166.2,14.3,166,14.4,166,14.5L166,14.5L166,14.5
		L166,14.5L166,14.5z M164.7,14.9C164.7,14.9,164.7,14.9,164.7,14.9c-0.1,0-0.1-0.1-0.1-0.1C164.7,14.8,164.6,14.9,164.7,14.9
		L164.7,14.9L164.7,14.9L164.7,14.9z M164.7,15.1l-0.2-0.1l0.1,0.1l-0.1-0.1C164.5,15,164.6,15.2,164.7,15.1L164.7,15.1L164.7,15.1z
		 M164.4,15L164.4,15L164.4,15L164.4,15L164.4,15l-0.2,0L164.4,15L164.4,15L164.4,15z M162.4,15c0,0.3,0.2,0.2,0.3,0.3
		c0-0.1,0.1-0.2-0.1-0.2c0.2-0.1,0.1,0.2,0.2-0.1c-0.1,0-0.2,0-0.2,0l0.1,0C162.5,14.8,162.4,15.1,162.4,15L162.4,15L162.4,15z
		 M161.4,15.3l-0.1,0L161.4,15.3L161.4,15.3L161.4,15.3L161.4,15.3z M158.8,17c0,0.1-0.1,0.2-0.2,0.1C158.7,17,158.7,17,158.8,17
		L158.8,17L158.8,17z M157.4,17l0.1,0.1C157.5,17.2,157.4,17.1,157.4,17C157.3,17,157.4,17.1,157.4,17L157.4,17L157.4,17z M156.5,17
		L156.5,17l0,0.1L156.5,17L156.5,17L156.5,17z M156.6,17.3C156.6,17.3,156.5,17.3,156.6,17.3L156.6,17.3L156.6,17.3L156.6,17.3z
		 M155.8,17.3l0.1,0.1l-0.1,0L155.8,17.3L155.8,17.3L155.8,17.3z M155.8,17.2C155.8,17.2,155.8,17.2,155.8,17.2
		c0.1,0.1,0.1,0.1,0.2,0.1C156,17.2,155.9,17.2,155.8,17.2c0.1,0,0.1,0,0.2,0c0,0.1,0,0.1,0,0.2C155.9,17.5,155.9,17.4,155.8,17.2
		L155.8,17.2L155.8,17.2L155.8,17.2z M156.3,17.1L156.3,17.1L156.3,17.1C156.3,17.1,156.3,17.1,156.3,17.1L156.3,17.1
		c-0.1,0.1,0,0.2,0.1,0.2c0,0-0.1-0.1-0.1,0c0,0,0,0,0,0l-0.1,0C156.1,17.2,156.2,17.2,156.3,17.1L156.3,17.1
		C156.3,17.1,156.3,17.1,156.3,17.1L156.3,17.1L156.3,17.1z M155.7,17.1C155.7,17.1,155.7,17.1,155.7,17.1L155.7,17.1
		C155.6,17.1,155.7,17.1,155.7,17.1L155.7,17.1L155.7,17.1z M158.3,16.9c0,0,0,0.1,0.1,0.1l0,0.1c0-0.1-0.1-0.1-0.2-0.1
		C158.2,16.9,158.3,16.9,158.3,16.9L158.3,16.9L158.3,16.9z M161.2,15.3c-0.1,0-0.2,0.1-0.3,0C161,15.5,161.1,15.4,161.2,15.3
		L161.2,15.3L161.2,15.3z M161.1,15.2L161.1,15.2c0.1,0,0.1,0.1,0.2,0c0,0-0.1,0-0.1,0C161.2,15.1,161.2,15.1,161.1,15.2L161.1,15.2
		L161.1,15.2L161.1,15.2z M159.7,16.3l-0.1,0l-0.1,0.1L159.7,16.3L159.7,16.3L159.7,16.3z M158.8,16.5
		C158.8,16.6,158.7,16.6,158.8,16.5c-0.1,0.1,0,0.1,0,0.1h0h0C158.8,16.6,158.8,16.6,158.8,16.5L158.8,16.5
		C158.8,16.5,158.8,16.5,158.8,16.5C158.8,16.5,158.8,16.5,158.8,16.5L158.8,16.5L158.8,16.5z M157,16.5c-0.1,0.1-0.1,0-0.1,0
		C156.9,16.5,157,16.5,157,16.5L157,16.5L157,16.5z M159.2,16.3c-0.1,0.1,0.1,0.1,0.1,0.2l0,0c0,0.1-0.1-0.1-0.1,0L159.2,16.3
		c0,0-0.1,0.1-0.1,0C159.1,16.3,159.2,16.3,159.2,16.3L159.2,16.3L159.2,16.3z M156.9,16.5c-0.1,0.1-0.1-0.1-0.2-0.1
		C156.9,16.3,156.8,16.4,156.9,16.5L156.9,16.5L156.9,16.5z M158.6,16.2L158.6,16.2L158.6,16.2L158.6,16.2L158.6,16.2L158.6,16.2z"
		/>
	<polygon class="st2" points="156.8,17.3 156.7,17.3 156.8,17.3 	"/>
	<polygon class="st2" points="161.6,15.6 161.6,15.6 161.6,15.6 	"/>
	<polygon class="st2" points="161.8,15.6 161.8,15.6 161.8,15.6 161.8,15.6 	"/>
	<path class="st2" d="M168.9,13.4C169,13.5,168.9,13.4,168.9,13.4C168.9,13.4,168.9,13.3,168.9,13.4L168.9,13.4z"/>
	<path class="st2" d="M168.6,13.3c0,0,0.1,0,0.1,0C168.7,13.3,168.7,13.3,168.6,13.3L168.6,13.3z"/>
	<path class="st2" d="M168.9,13.3c0,0-0.1,0.1-0.1,0.1C168.8,13.3,168.8,13.3,168.9,13.3L168.9,13.3z"/>
	<path class="st2" d="M167.9,13.6c0.1,0,0.1,0,0.1,0c-0.1,0.1,0.1,0.1,0.1,0.1C168,13.8,168,13.7,167.9,13.6L167.9,13.6z"/>
	<path class="st2" d="M167.7,13.7L167.7,13.7C167.7,13.7,167.7,13.7,167.7,13.7L167.7,13.7z"/>
	<path class="st2" d="M167.6,13.8c-0.1,0-0.1,0-0.2-0.1C167.5,13.7,167.6,13.7,167.6,13.8C167.6,13.8,167.6,13.8,167.6,13.8
		L167.6,13.8z"/>
	<path class="st2" d="M165.9,15.1C165.9,15.1,165.9,15,165.9,15.1L165.9,15.1C165.8,15.1,165.9,15.1,165.9,15.1L165.9,15.1z"/>
	<path class="st2" d="M165.4,15C165.3,15,165.4,15.1,165.4,15L165.4,15L165.4,15L165.4,15z"/>
	<polygon class="st2" points="165.3,14.3 165.3,14.3 165.3,14.4 165.3,14.3 	"/>
	<path class="st2" d="M165,15.2l0.1,0.1C165,15.3,164.9,15.2,165,15.2L165,15.2z"/>
	<polygon class="st2" points="164.6,15.4 164.6,15.4 164.5,15.4 164.6,15.4 	"/>
	<polygon class="st2" points="164.2,15.3 164.2,15.4 164.1,15.3 164.2,15.3 	"/>
	<path class="st2" d="M160.2,16.4c-0.1-0.1,0.1-0.2,0.1-0.2C160.4,16.3,160.1,16.2,160.2,16.4L160.2,16.4z"/>
	<path class="st2" d="M157,17.2l0.2,0C157,17.3,157.1,17.3,157,17.2L157,17.2z"/>
	<path class="st2" d="M156.2,21.6L156.2,21.6C156.2,21.5,156.2,21.5,156.2,21.6L156.2,21.6z"/>
	<path class="st2" d="M155.8,21.6c0.1,0,0.3-0.1,0.4,0C156.1,21.6,155.9,21.7,155.8,21.6L155.8,21.6z"/>
	<path class="st2" d="M156.3,21.8l-0.1,0C156.2,21.7,156.2,21.8,156.3,21.8L156.3,21.8z"/>
	<polygon class="st2" points="156.2,21.7 156.2,21.6 156.3,21.6 156.2,21.7 	"/>
	<path class="st2" d="M162.6,19.7C162.6,19.7,162.6,19.6,162.6,19.7L162.6,19.7L162.6,19.7z"/>
	<polygon class="st2" points="162.9,19.9 163,20 162.9,19.9 	"/>
	<polygon class="st2" points="162.4,19.7 162.4,19.7 162.4,19.7 	"/>
	<path class="st2" d="M159,20.6c-0.1,0-0.1,0-0.2,0C158.9,20.5,158.9,20.5,159,20.6L159,20.6z"/>
	<path class="st2" d="M164.5,20.6L164.5,20.6C164.5,20.6,164.5,20.6,164.5,20.6L164.5,20.6z"/>
	<polygon class="st2" points="163,20.7 163,20.6 163,20.6 163,20.7 	"/>
	<path class="st2" d="M162.1,19.8L162.1,19.8L162.1,19.8C162.1,19.8,162.1,19.8,162.1,19.8L162.1,19.8z"/>
	<path class="st2" d="M165,20.5L165,20.5C165,20.6,165,20.6,165,20.5L165,20.5z"/>
	<polygon class="st2" points="163,20 163,20 163,20 163,20 	"/>
	<path class="st2" d="M162.6,20.6L162.6,20.6C162.6,20.7,162.6,20.7,162.6,20.6L162.6,20.6z"/>
	<path class="st2" d="M159,20.6L159,20.6C159,20.6,159,20.6,159,20.6L159,20.6z"/>
	<path class="st2" d="M156.6,21.4C156.6,21.4,156.6,21.4,156.6,21.4L156.6,21.4L156.6,21.4z"/>
	<polygon class="st2" points="171.1,17.8 171.1,17.8 171.1,17.8 	"/>
	<path class="st2" d="M169.7,18.2L169.7,18.2C169.7,18.2,169.7,18.2,169.7,18.2L169.7,18.2z"/>
	<path class="st2" d="M168.4,19.5c0.1-0.1,0.2,0,0.3,0l0-0.1l0.1,0l0-0.1c0.2,0,0.3-0.1,0.4,0l0-0.1l0.2,0.1l-0.1-0.1
		c0.2,0,0.5,0,0.5,0l0,0c0,0,0.1,0,0.1,0l0-0.1c0.3,0,0.3-0.2,0.7-0.2c0.1,0-0.1,0-0.1,0c0-0.1,0.2-0.1,0.2,0
		c-0.1-0.1-0.2,0-0.1-0.1c0.1,0-0.1-0.1,0.1-0.1l0.1,0.1c0.1-0.1,0-0.1,0.1-0.1c0.1,0-0.1,0.2,0.1,0.1c0.1-0.1,0.1-0.4,0.3-0.4
		c0.1-0.2-0.2-0.1,0-0.2l-0.2,0c0-0.1,0-0.1,0.1-0.1c0.1,0,0.1,0.1,0.2,0c-0.2,0,0.1-0.2-0.2-0.2l0.1,0l0,0l0.1-0.1
		c-0.1,0-0.2,0.1-0.2-0.1l0.1-0.1c-0.1,0-0.1-0.1-0.1-0.1l-0.3,0c0,0,0.1,0,0.1,0.1c0,0.1-0.1,0-0.1,0.1l0.1,0c0,0,0,0,0,0
		c0,0,0,0,0.1,0c0,0.1-0.1,0.1-0.1,0c-0.1,0.1,0,0.1,0,0.2c-0.1-0.1-0.2,0.1-0.3,0.1l0.1,0.1c-0.1,0.1-0.2,0.1-0.2,0.1l0,0.1
		c-0.1,0-0.1,0.3-0.3,0.1l0,0c0,0-0.1,0.1-0.2,0c0,0,0,0.1,0,0.1c-0.1-0.1-0.1,0-0.2,0c0.1,0,0.1,0.1,0.1,0.2
		c-0.1,0.2-0.1-0.1-0.3-0.1c-0.1,0.1,0.1,0.1,0.1,0.1c-0.2,0-0.3,0.3-0.5,0.1l0.1-0.1c-0.1,0-0.1,0-0.1,0c0,0,0,0,0,0
		c-0.2,0.2-0.3-0.1-0.6-0.1c0,0,0.1,0.1,0.1,0.1c-0.1,0.1-0.1-0.2-0.3-0.1l0,0.1c0,0-0.1,0-0.1-0.1c0,0.2-0.3,0-0.4,0.3
		c-0.1-0.1-0.3-0.2-0.4-0.1c-0.1,0.1,0.1,0.1,0.1,0.3c-0.1,0-0.1-0.1-0.2-0.1c0-0.1,0.2-0.3,0-0.3c0,0,0,0,0,0.1c0,0,0.1,0,0.1,0
		c0.1,0.1,0,0.1,0,0.1l-0.3,0c0-0.1,0.1-0.1,0.1-0.2c-0.2,0.1-0.4,0.3-0.6,0.3l0,0c-0.3,0-0.1,0.3-0.3,0.1c-0.1,0.1,0.1,0.1,0,0.2
		c0,0,0,0,0-0.1c-0.2,0,0,0.1-0.2,0.1l0.1,0.1c-0.2,0-0.5-0.1-0.6,0c0.1,0.1,0.1,0,0.2,0.1c-0.3-0.1-0.5,0.2-0.7,0.2
		c0-0.1-0.2-0.2-0.1-0.3c0.1,0.1,0.1,0,0.2,0c-0.2-0.2-0.4,0.3-0.5,0.1l0,0.1c0,0-0.1-0.1-0.1-0.1l-0.2,0.1c0.1,0.1,0.3,0.2,0.3,0.1
		c0.1,0.1-0.1,0.1,0,0.2c-0.2-0.1-0.1,0.1-0.2,0.1c0-0.2-0.2-0.2-0.2-0.2c0,0-0.2,0-0.2,0c-0.1,0-0.2,0.1-0.4,0.1
		c0.1,0,0.1,0.1,0.1,0.2c-0.1,0-0.1,0-0.1,0.1c0.3,0.2,0.1-0.3,0.3-0.2c0.1,0.1,0.1,0.1,0.3,0.2c0,0.1,0,0.1,0,0.2
		c-0.2-0.2-0.4,0-0.6-0.1c-0.1-0.1,0-0.2-0.2-0.3l0.1-0.1c-0.2,0.1,0-0.1-0.2-0.1l0.1,0.1c-0.1,0-0.1,0-0.2-0.1l0.1,0.1
		c0,0-0.1,0-0.1,0l0,0.1c0,0,0,0-0.1,0c0,0,0.1,0,0.1,0c-0.2,0,0,0.1-0.2,0.1c0,0,0,0.1-0.1,0.1c0-0.2-0.2-0.2-0.3-0.4l0,0l-0.2-0.1
		c0,0,0,0.1-0.1,0.1l0,0c-0.1,0,0.1,0.2-0.1,0.2l-0.1-0.1c0,0,0,0,0,0.1l-0.1-0.1c-0.1,0.2-0.3-0.1-0.4,0c0,0,0.1,0,0.1,0.1
		c0,0-0.1,0-0.1,0l0,0l-0.3-0.1c0,0.1,0.2,0.1,0.1,0.2c0,0.1-0.1,0-0.2,0c0-0.1,0.1-0.1,0-0.1c0,0-0.1,0.1-0.1,0.1
		c-0.1-0.1-0.3-0.1-0.4-0.2c0,0,0,0,0,0.1l0,0c0.1,0,0,0.1,0.1,0.1c0,0.2-0.2,0.1-0.3,0.1L161,20c-0.3,0.3-0.7,0.1-1,0.1
		c0.1-0.1,0.2,0,0.1-0.2c-0.2,0-0.2,0-0.4,0l0,0c-0.1,0.1-0.3,0-0.3,0.2c0.1,0.1,0.1-0.1,0.2,0l-0.2,0.1c0.1,0.1,0.2-0.1,0.3-0.1
		c0.1,0-0.1,0-0.1-0.1c0.2-0.1,0.3,0,0.4,0.1c0.1,0.1-0.1,0.1-0.1,0.1c-0.2-0.1-0.4-0.1-0.6,0l0,0.2c-0.1,0-0.2-0.3-0.4-0.1l0.1,0
		c0,0.1,0,0.1-0.1,0.1l0.3,0c0,0.2-0.3,0.1-0.5,0.1c0,0,0.1,0,0.1,0c-0.2,0.2-0.5,0.1-0.6,0.1c0,0.1,0.2,0,0.2,0.1
		c-0.1,0-0.2,0.1-0.2,0c0.1,0.1-0.2,0.1,0,0.2c-0.3,0.2-0.7,0.1-1.1,0.1c0,0,0,0.1,0,0.1c0.1,0,0.3,0,0.4,0.1
		c-0.1,0.1-0.2-0.1-0.2,0c0,0,0.1,0,0.1,0.1c-0.1,0.1-0.2,0-0.2,0l0,0c-0.2-0.1-0.2-0.3-0.4-0.2c-0.1,0.1,0,0.1,0,0.2
		c-0.1,0-0.2,0.1-0.3,0l0.1,0c-0.1,0-0.2,0-0.3,0c0,0,0,0,0,0.1c-0.1,0-0.2,0-0.2-0.1v0.1c0-0.1,0.2-0.1,0.2,0
		c0,0.1-0.1,0.1-0.2,0.1c0.3,0,0.3,0.2,0.5,0.1l0,0c0.1-0.1,0.3,0,0.4,0c0,0,0,0.1,0,0.1c0.3-0.1,0.5-0.1,0.9-0.3l0.1,0.1l0-0.1
		c0.1-0.1,0.1,0.1,0.2,0.1c0,0,0,0-0.1,0c0.2,0,0.1-0.1,0.2-0.1c-0.1-0.1-0.2,0-0.2-0.1c0.2,0,0.5-0.1,0.6,0
		c0.4-0.3,0.6-0.3,0.9-0.4c0,0,0,0,0-0.1c0.1,0.1,0.3-0.2,0.3-0.1c0,0,0-0.1,0-0.2c0.1,0,0.2,0.1,0.2,0.1l-0.1,0l0,0l0.1,0l0,0
		c0.2,0,0.4-0.1,0.6,0c-0.1-0.1,0-0.1,0-0.2c0.1,0.2,0.3,0.2,0.5,0.2c0,0,0-0.1,0-0.1l0.1,0.1l0,0c0.2,0,0.4,0.2,0.6,0.1
		c-0.1,0-0.1-0.1-0.1-0.1c0.1,0,0.3,0,0.5,0.1l0,0c0,0,0.1,0,0.1,0.1l0-0.1c0.1,0,0.2,0,0.3,0.1c0-0.1,0.3,0.1,0.4,0
		c0,0-0.1-0.1,0-0.1c0,0.2,0.2,0,0.2,0.2l0.1-0.1l0,0.1c0.1-0.2,0.2,0.1,0.4,0c0,0,0,0,0,0c0.1,0,0.2,0,0.1,0.1c0.1,0,0.4,0,0.2-0.1
		c0,0.1-0.1,0-0.2,0c0-0.1,0.1-0.1,0.1-0.2l0,0l0-0.1c0.2,0.1,0.3-0.1,0.5,0c0,0,0-0.1,0.1-0.1l0,0.1l0.2-0.1l-0.1-0.1
		c0.2-0.1,0.4,0,0.5,0c0-0.2,0.3,0,0.3-0.3l-0.1,0c0.2-0.1,0.2-0.2,0.4-0.2c-0.1,0.1-0.2,0.1-0.3,0.4c0.2-0.2,0.5-0.1,0.6-0.3
		c0,0-0.1,0-0.1-0.1c0.1,0.1,0.2-0.1,0.2,0c0-0.1,0-0.2,0.1-0.2l0.3,0.1l0,0c0.3-0.4,0.7,0.1,1.1-0.1l0-0.1l0.1,0.1
		c-0.1-0.1,0-0.1,0-0.1l0.3,0.1C168.5,19.6,168.5,19.5,168.4,19.5L168.4,19.5L168.4,19.5z M165,20.4L165,20.4l-0.1,0L165,20.4
		C165,20.4,165,20.4,165,20.4L165,20.4L165,20.4z M159.1,21.2c0,0,0.1,0,0.1-0.1C159.2,21.1,159.1,21.2,159.1,21.2
		C159.1,21.2,159.1,21.2,159.1,21.2L159.1,21.2L159.1,21.2z M164.8,19.7L164.8,19.7L164.8,19.7L164.8,19.7L164.8,19.7L164.8,19.7z
		 M165.6,19.3l-0.1,0l0,0L165.6,19.3L165.6,19.3L165.6,19.3L165.6,19.3z M166.8,19.6L166.8,19.6L166.8,19.6c0.1,0,0.1-0.1,0.2,0
		C166.9,19.7,166.8,19.6,166.8,19.6L166.8,19.6L166.8,19.6z M165.1,20.2c0,0.1,0.1,0,0.2,0.1c0,0,0-0.1-0.1-0.1c0,0,0,0,0.1,0
		C165.2,20,165.3,20.3,165.1,20.2L165.1,20.2L165.1,20.2z M163,20.6L163,20.6L163,20.6L163,20.6L163,20.6L163,20.6z M162.6,20.5
		c0-0.1-0.2-0.1-0.3-0.1C162.3,20.5,162.4,20.6,162.6,20.5C162.6,20.6,162.5,20.4,162.6,20.5L162.6,20.5L162.6,20.5z M166.1,19.7
		c-0.1,0-0.2-0.1-0.3,0l0.1,0l0,0l0.1,0.1C165.8,19.6,166,19.7,166.1,19.7L166.1,19.7L166.1,19.7z M161.7,20.4
		c-0.1-0.1-0.2-0.1-0.2-0.2C161.5,20.3,161.6,20.4,161.7,20.4C161.7,20.4,161.7,20.4,161.7,20.4L161.7,20.4L161.7,20.4z M161.7,20.3
		c0,0,0-0.1,0.1,0c0,0.1,0,0.2,0.1,0.2c-0.1-0.1-0.1-0.2-0.2-0.3L161.7,20.3L161.7,20.3L161.7,20.3z M161.8,20.5L161.8,20.5
		c0.1-0.1,0.1-0.2,0.2-0.1L161.8,20.5L161.8,20.5L161.8,20.5L161.8,20.5z M160.9,20.6L160.9,20.6C160.9,20.6,160.8,20.6,160.9,20.6
		L160.9,20.6C160.9,20.5,160.9,20.5,160.9,20.6L160.9,20.6L160.9,20.6z M161.7,20.5l-0.1,0C161.6,20.5,161.7,20.4,161.7,20.5
		L161.7,20.5L161.7,20.5z M160.9,20.4c0.1,0,0.2,0,0.2,0C161,20.5,160.9,20.5,160.9,20.4L160.9,20.4L160.9,20.4z M157.9,21.5l0-0.1
		L157.9,21.5L157.9,21.5L157.9,21.5L157.9,21.5z M158.8,21L158.8,21L158.8,21L158.8,21L158.8,21L158.8,21z M159.7,20.5L159.7,20.5
		L159.7,20.5C159.8,20.5,159.8,20.5,159.7,20.5c0,0.1-0.1,0.1-0.1,0.1c0,0,0.1,0,0.1,0c0,0.1-0.4-0.1-0.2,0.2c0,0-0.2,0-0.2-0.1
		C159.5,20.6,159.7,20.5,159.7,20.5L159.7,20.5L159.7,20.5L159.7,20.5L159.7,20.5z M161,20.1C161.1,20.1,161.1,20.1,161,20.1
		c0.1,0,0.1,0.1,0.1,0.1C161.1,20.2,161.1,20.1,161,20.1L161,20.1L161,20.1L161,20.1z M161,20l0.2,0.1l-0.1-0.1l0.1,0.1
		C161.3,20,161.1,19.9,161,20L161,20L161,20z M161.3,20L161.3,20L161.3,20L161.3,20L161.3,20l0.2,0L161.3,20L161.3,20L161.3,20z
		 M163.4,20.2c0.1-0.3-0.2-0.2-0.2-0.3c0,0.1-0.1,0.2,0.1,0.2c-0.2,0.1-0.1-0.2-0.2,0.1c0.1,0,0.2,0,0.2,0.1l-0.1,0
		C163.3,20.4,163.4,20.1,163.4,20.2L163.4,20.2L163.4,20.2z M164.5,19.9l0.1,0L164.5,19.9L164.5,19.9L164.5,19.9L164.5,19.9z
		 M167.5,18.8c0-0.1,0.1-0.2,0.2-0.1C167.6,18.8,167.5,18.8,167.5,18.8L167.5,18.8L167.5,18.8z M168.9,18.7l-0.2,0
		C168.7,18.5,168.9,18.7,168.9,18.7C169,18.7,168.9,18.7,168.9,18.7L168.9,18.7L168.9,18.7z M169.8,18.5L169.8,18.5l0-0.1
		L169.8,18.5L169.8,18.5L169.8,18.5z M169.6,18.3c0,0,0.1,0,0.1,0.1L169.6,18.3L169.6,18.3L169.6,18.3z M170.5,18.2L170.5,18.2
		l0-0.1L170.5,18.2L170.5,18.2L170.5,18.2z M170.5,18.3C170.5,18.3,170.4,18.2,170.5,18.3c-0.1-0.1-0.1-0.1-0.2,0
		C170.3,18.3,170.4,18.2,170.5,18.3c-0.1,0-0.1,0.1-0.2,0c0-0.1,0-0.1,0-0.2C170.4,18,170.4,18.1,170.5,18.3L170.5,18.3L170.5,18.3
		L170.5,18.3z M170,18.4L170,18.4L170,18.4C170,18.4,170,18.4,170,18.4L170,18.4c0-0.1-0.1-0.2-0.1-0.2c0,0,0.1,0.1,0.1,0
		c0,0,0,0,0,0l0.1,0C170.2,18.3,170.1,18.3,170,18.4L170,18.4C170,18.5,170,18.5,170,18.4L170,18.4L170,18.4z M170.6,18.3
		C170.6,18.3,170.6,18.4,170.6,18.3L170.6,18.3C170.7,18.3,170.6,18.3,170.6,18.3L170.6,18.3L170.6,18.3z M168,19
		c0,0-0.1-0.1-0.1-0.1l0-0.1c0,0.1,0.1,0.1,0.2,0.1C168.1,18.9,168,18.9,168,19L168,19L168,19z M164.7,19.9c0.1,0,0.2-0.1,0.3,0
		C164.9,19.7,164.8,19.8,164.7,19.9L164.7,19.9L164.7,19.9z M164.7,20.1L164.7,20.1c-0.1,0-0.1-0.1-0.2,0c0,0,0.1,0,0.1,0
		C164.6,20.1,164.6,20.1,164.7,20.1L164.7,20.1L164.7,20.1L164.7,20.1z M166.4,19.3L166.4,19.3l0.2,0L166.4,19.3L166.4,19.3
		L166.4,19.3z M167.4,19.3c0-0.1,0.1-0.1,0.1,0c0-0.1-0.1-0.1-0.2-0.1l0,0l0,0C167.4,19.2,167.4,19.2,167.4,19.3L167.4,19.3
		L167.4,19.3L167.4,19.3L167.4,19.3L167.4,19.3z M169.3,19.2c0.1-0.1,0.1-0.1,0.1,0C169.5,19.1,169.4,19.2,169.3,19.2L169.3,19.2
		L169.3,19.2z M166.9,19.4c0.1-0.1-0.1-0.1,0-0.2l-0.1,0c0.1-0.1,0.1,0.1,0.1,0L166.9,19.4c0,0,0.1,0,0.1,0
		C167,19.5,166.9,19.5,166.9,19.4L166.9,19.4L166.9,19.4z M169.5,19.2c0.1-0.1,0.1,0.1,0.2,0.1C169.6,19.3,169.6,19.2,169.5,19.2
		L169.5,19.2L169.5,19.2z M167.7,19.6L167.7,19.6l-0.1,0L167.7,19.6L167.7,19.6L167.7,19.6z"/>
	<path class="st2" d="M169.5,18.3C169.5,18.3,169.5,18.3,169.5,18.3L169.5,18.3L169.5,18.3z"/>
	<polygon class="st2" points="164.3,19.6 164.2,19.6 164.3,19.6 	"/>
	<polygon class="st2" points="164.1,19.6 164.1,19.6 164,19.6 164.1,19.6 	"/>
	<path class="st2" d="M156.6,21.3C156.5,21.2,156.6,21.3,156.6,21.3C156.6,21.3,156.6,21.3,156.6,21.3L156.6,21.3z"/>
	<path class="st2" d="M156.9,21.4c0,0-0.1,0-0.1,0C156.8,21.4,156.9,21.4,156.9,21.4L156.9,21.4z"/>
	<path class="st2" d="M156.7,21.4c0.1,0,0.1,0,0.1,0C156.8,21.4,156.8,21.4,156.7,21.4L156.7,21.4z"/>
	<path class="st2" d="M157.7,21.2c-0.1-0.1-0.1,0-0.1,0c0.2-0.1-0.1-0.1-0.1-0.2C157.6,21.1,157.6,21.2,157.7,21.2L157.7,21.2z"/>
	<path class="st2" d="M158,21.2L158,21.2C158,21.2,158,21.2,158,21.2L158,21.2z"/>
	<path class="st0" d="M158,21.1c0.1,0,0.1,0.1,0.2,0.1C158.1,21.3,158,21.2,158,21.1C158,21.2,158.1,21.2,158,21.1L158,21.1z"/>
	<path class="st2" d="M159.8,19.9C159.8,19.9,159.8,19.9,159.8,19.9L159.8,19.9C160,19.8,159.9,19.9,159.8,19.9L159.8,19.9z"/>
	<path class="st2" d="M160.3,20C160.4,20,160.4,19.9,160.3,20l0.1,0L160.3,20L160.3,20z"/>
	<polygon class="st2" points="160.4,20.7 160.4,20.7 160.4,20.7 160.4,20.7 	"/>
	<path class="st2" d="M160.8,19.8l-0.1-0.1C160.8,19.7,160.8,19.8,160.8,19.8L160.8,19.8z"/>
	<polygon class="st2" points="161.2,19.6 161.1,19.6 161.3,19.6 161.2,19.6 	"/>
	<polygon class="st2" points="161.6,19.7 161.6,19.7 161.7,19.7 161.6,19.7 	"/>
	<path class="st2" d="M166,19c0.1,0.1-0.1,0.1-0.2,0.2C165.8,19.1,166,19.2,166,19L166,19z"/>
	<path class="st2" d="M169.3,18.4l-0.2,0C169.3,18.4,169.2,18.4,169.3,18.4L169.3,18.4z"/>
</g>
<g>
	<path class="st0" d="M15.4,32.1c0.2,0.3,0.4,0.5,0.7,0.6c0.3,0.1,0.6,0.2,0.9,0.2c0.2,0,0.3,0,0.5-0.1c0.2-0.1,0.3-0.1,0.5-0.2
		c0.1-0.1,0.3-0.2,0.3-0.4c0.1-0.2,0.1-0.3,0.1-0.5c0-0.3-0.1-0.5-0.3-0.7c-0.2-0.1-0.4-0.3-0.7-0.4c-0.3-0.1-0.6-0.2-0.9-0.3
		c-0.3-0.1-0.6-0.2-0.9-0.4c-0.3-0.2-0.5-0.4-0.7-0.7c-0.2-0.3-0.3-0.7-0.3-1.1c0-0.2,0-0.4,0.1-0.7c0.1-0.2,0.2-0.5,0.4-0.7
		c0.2-0.2,0.5-0.4,0.8-0.5c0.3-0.1,0.7-0.2,1.1-0.2c0.4,0,0.8,0.1,1.2,0.2c0.4,0.1,0.7,0.3,1,0.7l-0.8,0.7c-0.1-0.2-0.3-0.4-0.5-0.5
		C17.9,27,17.6,27,17.3,27c-0.3,0-0.5,0-0.7,0.1c-0.2,0.1-0.3,0.2-0.4,0.3c-0.1,0.1-0.2,0.2-0.2,0.4c0,0.1-0.1,0.3-0.1,0.4
		c0,0.3,0.1,0.6,0.3,0.7c0.2,0.2,0.4,0.3,0.7,0.4c0.3,0.1,0.6,0.2,0.9,0.3c0.3,0.1,0.6,0.2,0.9,0.3c0.3,0.1,0.5,0.4,0.7,0.6
		c0.2,0.3,0.3,0.6,0.3,1c0,0.4-0.1,0.7-0.2,1c-0.1,0.3-0.3,0.5-0.5,0.7c-0.2,0.2-0.5,0.3-0.8,0.4c-0.3,0.1-0.6,0.2-1,0.2
		c-0.5,0-0.9-0.1-1.3-0.3c-0.4-0.2-0.8-0.4-1-0.8L15.4,32.1z"/>
	<path class="st0" d="M31.9,26.2h2.6c0.5,0,0.9,0.1,1.2,0.2c0.3,0.1,0.5,0.3,0.7,0.5c0.2,0.2,0.3,0.4,0.4,0.7
		c0.1,0.2,0.1,0.5,0.1,0.7c0,0.2,0,0.5-0.1,0.7c-0.1,0.2-0.2,0.4-0.4,0.6c-0.2,0.2-0.3,0.3-0.6,0.4c-0.2,0.1-0.5,0.2-0.8,0.2
		l2.1,3.4h-1.3L34,30.4h-1.1v3.3h-1V26.2z M32.9,29.5h1.3c0.2,0,0.4,0,0.6,0c0.2,0,0.4-0.1,0.5-0.2c0.1-0.1,0.3-0.2,0.4-0.4
		c0.1-0.2,0.1-0.4,0.1-0.6c0-0.3,0-0.5-0.1-0.6c-0.1-0.2-0.2-0.3-0.4-0.4c-0.2-0.1-0.3-0.1-0.5-0.2c-0.2,0-0.4,0-0.6,0h-1.3V29.5z"
		/>
	<path class="st0" d="M39.7,33.6l4.9-6.5h-4.1v-0.9h5.3h0.7l-4.9,6.5h4.3v0.9h-5.5H39.7z"/>
	<path class="st0" d="M58.8,26.2h2.6c0.3,0,0.6,0,0.9,0.1c0.3,0.1,0.5,0.2,0.7,0.3c0.2,0.1,0.4,0.3,0.5,0.6c0.1,0.2,0.2,0.5,0.2,0.8
		c0,0.4-0.1,0.8-0.4,1c-0.2,0.3-0.5,0.5-0.9,0.6v0c0.2,0,0.4,0.1,0.6,0.2c0.2,0.1,0.4,0.2,0.5,0.4c0.1,0.2,0.3,0.4,0.3,0.6
		c0.1,0.2,0.1,0.4,0.1,0.7c0,0.3-0.1,0.6-0.2,0.9c-0.1,0.3-0.3,0.5-0.6,0.6c-0.2,0.2-0.5,0.3-0.8,0.4c-0.3,0.1-0.7,0.1-1,0.1h-2.5
		V26.2z M59.8,29.3h1.4c0.2,0,0.4,0,0.5-0.1c0.2,0,0.3-0.1,0.4-0.2c0.1-0.1,0.2-0.2,0.3-0.3c0.1-0.1,0.1-0.3,0.1-0.5
		c0-0.3-0.1-0.5-0.3-0.8c-0.2-0.2-0.5-0.3-0.9-0.3h-1.6V29.3z M59.8,32.8h1.5c0.2,0,0.3,0,0.5,0c0.2,0,0.4-0.1,0.5-0.2
		c0.2-0.1,0.3-0.2,0.4-0.4c0.1-0.2,0.2-0.4,0.2-0.6c0-0.4-0.1-0.8-0.4-1c-0.3-0.2-0.7-0.3-1.2-0.3h-1.5V32.8z"/>
	<path class="st0" d="M76.9,26.2h1v6.5h3.4v0.9h-4.4V26.2z"/>
	<polygon id="XMLID_327_" class="st0" points="67.8,33.6 68.4,32.2 68.7,31.3 70.1,28.2 70.2,28.2 71.5,31.3 71.9,32.2 72.5,33.6 
		73.7,33.6 70.7,26.9 70.7,26.9 70.4,26.4 70.2,25.9 70,26.4 69.8,26.9 69.8,26.9 66.6,33.6 	"/>
	<g>
		<path class="st0" d="M16.4,38.5c-0.1-0.1-0.1-0.1-0.2-0.2c-0.1,0-0.2-0.1-0.3-0.1c-0.1,0-0.2,0-0.3,0.1c-0.1,0-0.2,0.1-0.3,0.2
			c-0.1,0.1-0.1,0.2-0.2,0.3c0,0.1-0.1,0.2-0.1,0.3c0,0.1,0,0.2,0.1,0.3c0,0.1,0.1,0.2,0.2,0.3c0.1,0.1,0.2,0.1,0.3,0.2
			c0.1,0,0.2,0.1,0.3,0.1c0.1,0,0.2,0,0.3-0.1c0.1-0.1,0.2-0.1,0.2-0.2l0.2,0.2c0,0,0,0.1-0.1,0.1c0,0-0.1,0.1-0.2,0.1
			c-0.1,0-0.1,0.1-0.2,0.1c-0.1,0-0.2,0-0.3,0c-0.2,0-0.3,0-0.5-0.1C15.3,40,15.1,40,15,39.9c-0.1-0.1-0.2-0.2-0.2-0.4
			c-0.1-0.1-0.1-0.3-0.1-0.4c0-0.2,0-0.3,0.1-0.5c0.1-0.1,0.1-0.3,0.2-0.4c0.1-0.1,0.2-0.2,0.4-0.2c0.1-0.1,0.3-0.1,0.5-0.1
			c0.1,0,0.3,0,0.4,0.1c0.1,0.1,0.2,0.1,0.3,0.3L16.4,38.5z"/>
		<path class="st0" d="M18.9,40.2c-0.2,0-0.3,0-0.5-0.1c-0.1-0.1-0.3-0.1-0.4-0.2c-0.1-0.1-0.2-0.2-0.2-0.4
			c-0.1-0.1-0.1-0.3-0.1-0.4c0-0.2,0-0.3,0.1-0.4c0.1-0.1,0.1-0.3,0.2-0.4c0.1-0.1,0.2-0.2,0.4-0.2c0.1-0.1,0.3-0.1,0.5-0.1
			s0.3,0,0.5,0.1c0.1,0.1,0.3,0.1,0.4,0.2c0.1,0.1,0.2,0.2,0.2,0.4c0.1,0.1,0.1,0.3,0.1,0.4c0,0.2,0,0.3-0.1,0.4
			c-0.1,0.1-0.1,0.3-0.2,0.4c-0.1,0.1-0.2,0.2-0.4,0.2C19.2,40.2,19.1,40.2,18.9,40.2z M18.9,39.9c0.1,0,0.2,0,0.3-0.1
			c0.1,0,0.2-0.1,0.3-0.2c0.1-0.1,0.1-0.2,0.2-0.3c0-0.1,0.1-0.2,0.1-0.3c0-0.1,0-0.2-0.1-0.3c0-0.1-0.1-0.2-0.2-0.3
			c-0.1-0.1-0.2-0.1-0.3-0.2c-0.1,0-0.2-0.1-0.3-0.1c-0.1,0-0.2,0-0.3,0.1c-0.1,0-0.2,0.1-0.3,0.2c-0.1,0.1-0.1,0.2-0.2,0.3
			c0,0.1-0.1,0.2-0.1,0.3c0,0.1,0,0.2,0.1,0.3c0,0.1,0.1,0.2,0.2,0.3c0.1,0.1,0.2,0.1,0.3,0.2C18.7,39.9,18.8,39.9,18.9,39.9z"/>
		<path class="st0" d="M21.4,38h0.4l0.7,1.6h0l0.7-1.6h0.4v2.2h-0.3v-1.8h0l-0.7,1.8h-0.2l-0.7-1.8h0v1.8h-0.3V38z"/>
		<path class="st0" d="M25.3,38v1.3c0,0.1,0,0.1,0,0.2c0,0.1,0,0.1,0.1,0.2c0,0.1,0.1,0.1,0.2,0.1c0.1,0,0.2,0.1,0.3,0.1
			c0.1,0,0.2,0,0.3-0.1c0.1,0,0.1-0.1,0.2-0.1c0-0.1,0.1-0.1,0.1-0.2c0-0.1,0-0.1,0-0.2V38h0.3v1.4c0,0.1,0,0.2-0.1,0.3
			c0,0.1-0.1,0.2-0.2,0.3c-0.1,0.1-0.2,0.1-0.3,0.2c-0.1,0-0.2,0.1-0.3,0.1c-0.1,0-0.2,0-0.3-0.1c-0.1,0-0.2-0.1-0.3-0.2
			c-0.1-0.1-0.1-0.2-0.2-0.3c0-0.1-0.1-0.2-0.1-0.3V38H25.3z"/>
		<path class="st0" d="M28.1,38h0.4l1.2,1.8h0V38H30v2.2h-0.4l-1.2-1.8h0v1.8h-0.3V38z"/>
		<path class="st0" d="M31.4,38h0.3v2.2h-0.3V38z"/>
		<path class="st0" d="M34.7,38.5c-0.1-0.1-0.1-0.1-0.2-0.2c-0.1,0-0.2-0.1-0.3-0.1c-0.1,0-0.2,0-0.3,0.1c-0.1,0-0.2,0.1-0.3,0.2
			c-0.1,0.1-0.1,0.2-0.2,0.3c0,0.1-0.1,0.2-0.1,0.3c0,0.1,0,0.2,0.1,0.3c0,0.1,0.1,0.2,0.2,0.3c0.1,0.1,0.2,0.1,0.3,0.2
			c0.1,0,0.2,0.1,0.3,0.1c0.1,0,0.2,0,0.3-0.1c0.1-0.1,0.2-0.1,0.2-0.2l0.2,0.2c0,0,0,0.1-0.1,0.1c0,0-0.1,0.1-0.2,0.1
			c-0.1,0-0.1,0.1-0.2,0.1c-0.1,0-0.2,0-0.3,0c-0.2,0-0.3,0-0.5-0.1c-0.1-0.1-0.3-0.2-0.4-0.3c-0.1-0.1-0.2-0.2-0.2-0.4
			c-0.1-0.1-0.1-0.3-0.1-0.4c0-0.2,0-0.3,0.1-0.5c0.1-0.1,0.1-0.3,0.2-0.4c0.1-0.1,0.2-0.2,0.4-0.2c0.1-0.1,0.3-0.1,0.5-0.1
			c0.1,0,0.3,0,0.4,0.1c0.1,0.1,0.2,0.1,0.3,0.3L34.7,38.5z"/>
		<path class="st0" d="M36.9,38h0.3l0.9,2.2h-0.3l-0.2-0.5h-1l-0.2,0.5H36L36.9,38z M37.4,39.4l-0.4-1h0l-0.4,1H37.4z"/>
		<path class="st0" d="M40.8,38.5c-0.1-0.1-0.1-0.1-0.2-0.2c-0.1,0-0.2-0.1-0.3-0.1c-0.1,0-0.2,0-0.3,0.1c-0.1,0-0.2,0.1-0.3,0.2
			c-0.1,0.1-0.1,0.2-0.2,0.3c0,0.1-0.1,0.2-0.1,0.3c0,0.1,0,0.2,0.1,0.3c0,0.1,0.1,0.2,0.2,0.3c0.1,0.1,0.2,0.1,0.3,0.2
			c0.1,0,0.2,0.1,0.3,0.1c0.1,0,0.2,0,0.3-0.1c0.1-0.1,0.2-0.1,0.2-0.2l0.2,0.2c0,0,0,0.1-0.1,0.1c0,0-0.1,0.1-0.2,0.1
			c-0.1,0-0.1,0.1-0.2,0.1c-0.1,0-0.2,0-0.3,0c-0.2,0-0.3,0-0.5-0.1c-0.1-0.1-0.3-0.2-0.3-0.3c-0.1-0.1-0.2-0.2-0.2-0.4
			c-0.1-0.1-0.1-0.3-0.1-0.4c0-0.2,0-0.3,0.1-0.5c0.1-0.1,0.1-0.3,0.2-0.4c0.1-0.1,0.2-0.2,0.4-0.2c0.1-0.1,0.3-0.1,0.5-0.1
			c0.1,0,0.3,0,0.4,0.1c0.1,0.1,0.2,0.1,0.3,0.3L40.8,38.5z"/>
		<path class="st0" d="M42.3,38h0.3v2.2h-0.3V38z"/>
		<path class="st0" d="M45.1,40.2c-0.2,0-0.3,0-0.5-0.1c-0.1-0.1-0.3-0.1-0.4-0.2c-0.1-0.1-0.2-0.2-0.2-0.4C44,39.4,44,39.2,44,39.1
			c0-0.2,0-0.3,0.1-0.4c0.1-0.1,0.1-0.3,0.2-0.4c0.1-0.1,0.2-0.2,0.4-0.2c0.1-0.1,0.3-0.1,0.5-0.1c0.2,0,0.3,0,0.5,0.1
			c0.1,0.1,0.3,0.1,0.4,0.2c0.1,0.1,0.2,0.2,0.2,0.4c0.1,0.1,0.1,0.3,0.1,0.4c0,0.2,0,0.3-0.1,0.4c-0.1,0.1-0.1,0.3-0.2,0.4
			c-0.1,0.1-0.2,0.2-0.4,0.2C45.4,40.2,45.3,40.2,45.1,40.2z M45.1,39.9c0.1,0,0.2,0,0.3-0.1c0.1,0,0.2-0.1,0.3-0.2
			c0.1-0.1,0.1-0.2,0.2-0.3c0-0.1,0.1-0.2,0.1-0.3c0-0.1,0-0.2-0.1-0.3c0-0.1-0.1-0.2-0.2-0.3c-0.1-0.1-0.2-0.1-0.3-0.2
			c-0.1,0-0.2-0.1-0.3-0.1c-0.1,0-0.2,0-0.3,0.1c-0.1,0-0.2,0.1-0.3,0.2c-0.1,0.1-0.1,0.2-0.2,0.3c0,0.1-0.1,0.2-0.1,0.3
			c0,0.1,0,0.2,0.1,0.3c0,0.1,0.1,0.2,0.2,0.3c0.1,0.1,0.2,0.1,0.3,0.2C44.9,39.9,45,39.9,45.1,39.9z M45.2,37.4h0.4l-0.5,0.4h-0.3
			L45.2,37.4z"/>
		<path class="st0" d="M47.5,38h0.4l1.2,1.8h0V38h0.3v2.2H49l-1.2-1.8h0v1.8h-0.3V38z"/>
		<path class="st0" d="M52.6,38H54v0.3h-1.1v0.6h1v0.3h-1v0.7h1.2v0.3h-1.4V38z"/>
		<path class="st0" d="M55.5,39.7c0.1,0.1,0.1,0.1,0.2,0.2c0.1,0,0.2,0.1,0.3,0.1c0,0,0.1,0,0.1,0c0.1,0,0.1,0,0.1-0.1
			c0,0,0.1-0.1,0.1-0.1c0,0,0-0.1,0-0.2c0-0.1,0-0.1-0.1-0.2c-0.1,0-0.1-0.1-0.2-0.1c-0.1,0-0.2-0.1-0.3-0.1c-0.1,0-0.2-0.1-0.3-0.1
			c-0.1,0-0.1-0.1-0.2-0.2c-0.1-0.1-0.1-0.2-0.1-0.3c0-0.1,0-0.1,0-0.2c0-0.1,0.1-0.1,0.1-0.2c0.1-0.1,0.1-0.1,0.2-0.1
			c0.1,0,0.2-0.1,0.3-0.1c0.1,0,0.2,0,0.3,0c0.1,0,0.2,0.1,0.3,0.2l-0.2,0.2c0-0.1-0.1-0.1-0.2-0.1c-0.1,0-0.1-0.1-0.2-0.1
			c-0.1,0-0.1,0-0.2,0c-0.1,0-0.1,0-0.1,0.1c0,0-0.1,0.1-0.1,0.1c0,0,0,0.1,0,0.1c0,0.1,0,0.2,0.1,0.2c0.1,0,0.1,0.1,0.2,0.1
			c0.1,0,0.2,0.1,0.3,0.1c0.1,0,0.2,0.1,0.3,0.1c0.1,0,0.1,0.1,0.2,0.2c0.1,0.1,0.1,0.2,0.1,0.3c0,0.1,0,0.2-0.1,0.3
			c0,0.1-0.1,0.2-0.2,0.2c-0.1,0.1-0.1,0.1-0.2,0.1c-0.1,0-0.2,0-0.3,0c-0.1,0-0.3,0-0.4-0.1c-0.1,0-0.2-0.1-0.3-0.2L55.5,39.7z"/>
		<path class="st0" d="M58.5,38.3h-0.7V38h1.7v0.3h-0.7v1.9h-0.3V38.3z"/>
		<path class="st0" d="M60.7,38h0.8c0.1,0,0.3,0,0.3,0.1c0.1,0,0.2,0.1,0.2,0.1c0.1,0.1,0.1,0.1,0.1,0.2c0,0.1,0,0.1,0,0.2
			c0,0.1,0,0.1,0,0.2c0,0.1-0.1,0.1-0.1,0.2c0,0.1-0.1,0.1-0.2,0.1c-0.1,0-0.1,0.1-0.2,0.1l0.6,1h-0.4l-0.5-0.9H61v0.9h-0.3V38z
			 M61,38.9h0.4c0.1,0,0.1,0,0.2,0c0.1,0,0.1,0,0.1-0.1c0,0,0.1-0.1,0.1-0.1c0,0,0-0.1,0-0.2c0-0.1,0-0.1,0-0.2c0,0-0.1-0.1-0.1-0.1
			c0,0-0.1,0-0.1-0.1c-0.1,0-0.1,0-0.2,0H61V38.9z"/>
		<path class="st0" d="M64.1,38h0.3l0.9,2.2H65l-0.2-0.5h-1l-0.2,0.5h-0.3L64.1,38z M64.6,39.4l-0.4-1h0l-0.4,1H64.6z"/>
		<path class="st0" d="M66.7,38.3H66V38h1.7v0.3H67v1.9h-0.3V38.3z"/>
		<path class="st0" d="M68.9,38h1.4v0.3h-1.1v0.6h1v0.3h-1v0.7h1.2v0.3h-1.4V38z M69.6,37.4H70l-0.5,0.4h-0.3L69.6,37.4z"/>
		<path class="st0" d="M73.5,38.9V40c-0.1,0-0.1,0.1-0.2,0.1c-0.1,0-0.1,0-0.2,0.1c-0.1,0-0.1,0-0.2,0s-0.1,0-0.2,0
			c-0.2,0-0.3,0-0.5-0.1c-0.1-0.1-0.3-0.1-0.4-0.2c-0.1-0.1-0.2-0.2-0.2-0.4c-0.1-0.1-0.1-0.3-0.1-0.4c0-0.2,0-0.3,0.1-0.4
			c0.1-0.1,0.1-0.3,0.2-0.4c0.1-0.1,0.2-0.2,0.4-0.2c0.1-0.1,0.3-0.1,0.5-0.1c0.2,0,0.4,0,0.5,0.1c0.1,0,0.2,0.1,0.3,0.2l-0.2,0.2
			c-0.1-0.1-0.2-0.1-0.3-0.2c-0.1,0-0.2-0.1-0.3-0.1c-0.1,0-0.2,0-0.3,0.1c-0.1,0-0.2,0.1-0.3,0.2c-0.1,0.1-0.1,0.2-0.2,0.3
			c0,0.1-0.1,0.2-0.1,0.3c0,0.1,0,0.2,0.1,0.3c0,0.1,0.1,0.2,0.2,0.3c0.1,0.1,0.2,0.1,0.3,0.2c0.1,0,0.2,0.1,0.3,0.1
			c0.1,0,0.2,0,0.3,0c0.1,0,0.2,0,0.2-0.1v-0.6h-0.5v-0.3H73.5z"/>
		<path class="st0" d="M74.9,38h0.3v2.2h-0.3V38z"/>
		<path class="st0" d="M78.2,38.5c-0.1-0.1-0.1-0.1-0.2-0.2c-0.1,0-0.2-0.1-0.3-0.1c-0.1,0-0.2,0-0.3,0.1c-0.1,0-0.2,0.1-0.3,0.2
			c-0.1,0.1-0.1,0.2-0.2,0.3c0,0.1-0.1,0.2-0.1,0.3c0,0.1,0,0.2,0.1,0.3c0,0.1,0.1,0.2,0.2,0.3c0.1,0.1,0.2,0.1,0.3,0.2
			c0.1,0,0.2,0.1,0.3,0.1c0.1,0,0.2,0,0.3-0.1c0.1-0.1,0.2-0.1,0.2-0.2l0.2,0.2c0,0,0,0.1-0.1,0.1c0,0-0.1,0.1-0.2,0.1
			c-0.1,0-0.1,0.1-0.2,0.1c-0.1,0-0.2,0-0.3,0c-0.2,0-0.3,0-0.5-0.1c-0.1-0.1-0.3-0.2-0.4-0.3c-0.1-0.1-0.2-0.2-0.2-0.4
			c-0.1-0.1-0.1-0.3-0.1-0.4c0-0.2,0-0.3,0.1-0.5c0.1-0.1,0.1-0.3,0.2-0.4c0.1-0.1,0.2-0.2,0.4-0.2c0.1-0.1,0.3-0.1,0.5-0.1
			c0.1,0,0.3,0,0.4,0.1c0.1,0.1,0.2,0.1,0.3,0.3L78.2,38.5z"/>
		<path class="st0" d="M80.4,38h0.3l0.9,2.2h-0.3L81,39.6h-1l-0.2,0.5h-0.3L80.4,38z M80.9,39.4l-0.4-1h0l-0.4,1H80.9z"/>
	</g>
	<polygon id="XMLID_295_" class="st0" points="23.5,33.6 24.1,32.2 24.4,31.3 25.8,28.2 25.8,28.2 27.2,31.3 27.6,32.2 28.2,33.6 
		29.4,33.6 26.3,26.9 26.3,26.9 26.1,26.4 25.9,25.9 25.7,26.4 25.4,26.9 25.4,26.9 22.3,33.6 	"/>
	<polygon id="XMLID_294_" class="st0" points="49.7,33.6 50.3,32.2 50.6,31.3 52,28.2 52.1,28.2 53.4,31.3 53.8,32.2 54.4,33.6 
		55.6,33.6 52.5,26.9 52.5,26.9 52.3,26.4 52.1,25.9 51.9,26.4 51.6,26.9 51.6,26.9 48.5,33.6 	"/>
</g>
<g>
	<path class="st0" d="M272.8,26.4c-0.1,0-0.2,0-0.3,0c-3.5,0-7,0-10.5,0c-0.2,0-0.3,0-0.3,0.3c-0.2,1-0.4,2-0.6,3.1
		c0,0.1,0,0.1,0,0.2c1.4,0,2.8,0,4.3,0c-0.1,0.3-0.1,0.6-0.2,0.9c-0.4,2.1-0.9,4.3-1.3,6.4c0,0.2-0.1,0.3-0.3,0.3
		c-3.2-0.1-5.8-1.5-7.6-4.2c-2.2-3.3-2-7.6,0.4-10.7c1.7-2.2,3.9-3.5,6.7-3.7c4.5-0.3,8.6,2.6,9.7,7C272.8,26,272.8,26.2,272.8,26.4
		z"/>
	<path class="st0" d="M282.9,23.3c-0.4,0.3-0.7,0.6-1.1,0.9c0,0,0,0,0-0.1c-0.3-0.6-0.8-0.8-1.5-0.8c-1,0-2.1,0.8-2.3,1.8
		c-0.2,0.9,0.4,1.8,1.4,1.9c0.6,0,1.1-0.1,1.5-0.4c0.1-0.1,0.1-0.3,0.2-0.5c-0.4,0-0.8,0-1.3,0c0.1-0.4,0.2-0.8,0.2-1.1
		c0.8,0,1.7,0,2.5,0c-0.1,0.4-0.2,0.9-0.3,1.3c0,0.1-0.1,0.2-0.1,0.4c0,0.3-0.2,0.5-0.4,0.7c-0.9,0.7-1.9,1-3,0.9
		c-1.7-0.3-2.6-1.7-2.1-3.3c0.4-1.2,1.2-2,2.3-2.5c0.8-0.3,1.6-0.4,2.5-0.2C282.1,22.4,282.6,22.7,282.9,23.3z"/>
	<path class="st0" d="M268,36.3c0.1-0.4,0.2-0.8,0.3-1.3c0.3-1.6,0.7-3.3,1-4.9c0-0.1,0.1-0.2,0.2-0.2c1,0,2.1,0,3.1,0
		c0.1,0,0.1,0,0.2,0c-0.2,1.2-0.7,2.2-1.3,3.2C270.6,34.6,269.2,35.8,268,36.3z"/>
	<path class="st0" d="M290.8,22c0.4,0,0.8,0,1.3,0c-0.1,0.6-0.3,1.2-0.4,1.9c0.1,0,0.1,0,0.1,0c0.7-0.3,1.3-0.2,1.9,0.2
		c0.6,0.5,0.7,1.1,0.6,1.8c-0.2,1.2-1.2,2.2-2.4,2.3c-0.4,0-0.7,0-1-0.2c-0.1,0-0.2,0.1-0.3,0.1c-0.3,0-0.7,0-1.1,0
		C290,26.1,290.4,24,290.8,22z M291.7,27.1c0.1,0,0.2,0,0.3-0.1c0.6-0.2,1.1-0.8,1.1-1.5c0-0.5-0.3-0.8-0.7-0.8
		c-0.2,0-0.5,0.1-0.7,0.1c-0.1,0-0.2,0.1-0.2,0.3c-0.1,0.5-0.2,1-0.3,1.5c-0.1,0.3,0,0.4,0.3,0.5C291.5,27.1,291.6,27.1,291.7,27.1z
		"/>
	<path class="st0" d="M294.5,34.1c-0.1,0.5-0.2,1-0.3,1.5c0,0.2-0.1,0.2-0.2,0.2c-0.3,0-0.7,0-1.1,0c0.1-0.3,0.1-0.6,0.2-0.9
		c0.4-1.7,0.7-3.4,1.1-5.1c0-0.2,0.1-0.2,0.2-0.2c0.3,0,0.7,0,1.1,0c-0.2,1.1-0.5,2.2-0.7,3.3c0,0,0,0,0,0c0.3-0.3,0.6-0.5,0.8-0.8
		c0.2-0.2,0.4-0.4,0.7-0.6c0.1-0.1,0.2-0.1,0.3-0.1c0.4,0,0.9,0,1.3,0c-0.8,0.7-1.5,1.4-2.3,2.1c0.5,0.7,1.1,1.4,1.6,2.2
		c-0.4,0-0.7,0-1,0c-0.4,0-0.6-0.1-0.8-0.4C295.2,35,294.9,34.6,294.5,34.1z"/>
	<path class="st0" d="M287.6,23.7c1,0,1.8,0.6,2,1.5c0.1,0.7-0.1,1.3-0.5,1.9c-0.7,0.8-1.5,1.3-2.6,1.2c-1.3-0.1-2-1.2-1.6-2.4
		C285.1,24.6,286.3,23.7,287.6,23.7z M288.3,25.7c0-0.6-0.5-1-1.1-0.9c-0.7,0.1-1.2,0.7-1.3,1.4c0,0.5,0.4,0.9,0.9,0.9
		C287.6,27.1,288.3,26.4,288.3,25.7z"/>
	<path class="st0" d="M295,24.4c0.7-0.7,2.1-1,2.9-0.6c0.5,0.2,0.8,0.6,0.7,1.2c0,0.4-0.1,0.8-0.2,1.2c-0.1,0.6-0.2,1.1-0.3,1.7
		c0,0.1-0.1,0.2-0.2,0.2c-0.3,0-0.6,0-0.9,0c-0.1,0-0.1,0-0.1-0.1c-0.4,0.1-0.8,0.1-1.2,0.1c-0.9,0-1.4-0.7-1.1-1.5
		c0.2-0.7,0.8-1,1.4-1.2c0.3-0.1,0.7-0.1,1-0.1c0.1,0,0.3,0,0.4,0c0.1-0.3,0-0.5-0.3-0.6c-0.4-0.1-0.7-0.1-1.1,0.1
		c-0.1,0.1-0.2,0.1-0.4,0.2c-0.1-0.1-0.2-0.2-0.3-0.4C295.2,24.7,295.1,24.6,295,24.4z M297.1,26.3c-0.3,0-0.5,0-0.8,0
		c-0.2,0-0.3,0.1-0.5,0.2c-0.2,0.1-0.3,0.3-0.2,0.4c0.1,0.2,0.2,0.3,0.4,0.2c0.3,0,0.6-0.1,0.9-0.2c0,0,0.1-0.1,0.1-0.1
		C297.1,26.7,297.1,26.5,297.1,26.3z"/>
	<path class="st0" d="M285.9,31.5c-0.1,0.7-0.3,1.3-0.4,2c0,0.2-0.1,0.4-0.1,0.7c-0.1,0.5,0.2,0.7,0.6,0.7c0.1,0,0.2,0,0.3-0.1
		c0.3-0.1,0.5-0.2,0.6-0.6c0.1-0.8,0.3-1.7,0.5-2.5c0-0.1,0.1-0.2,0.2-0.2c0.4,0,0.7,0,1.1,0c-0.1,0.6-0.2,1.1-0.4,1.7
		c-0.2,0.8-0.3,1.6-0.5,2.5c0,0.1-0.1,0.2-0.2,0.2c-0.3,0-0.7,0-1.1,0c0-0.1,0-0.1,0-0.2c0,0-0.1,0-0.1,0.1
		c-0.5,0.2-0.9,0.3-1.4,0.2c-0.7-0.2-1-0.7-0.9-1.4c0.1-0.6,0.2-1.1,0.3-1.6c0.1-0.4,0.2-0.8,0.2-1.1c0-0.1,0.1-0.1,0.1-0.1
		C285.1,31.5,285.5,31.5,285.9,31.5z"/>
	<path class="st0" d="M276.6,31c0.1-0.4,0.1-0.7,0.2-1.1c0,0,0.1-0.1,0.2-0.1c0.9,0,1.8,0,2.7,0c0.5,0,1,0,1.5,0c0.1,0,0.1,0,0.2,0
		c-0.1,0.4-0.1,0.7-0.2,1.1c0,0-0.1,0.1-0.2,0.1c-0.4,0-0.9,0-1.3,0c-0.1,0-0.2,0-0.2,0.2c-0.3,1.5-0.6,2.9-0.9,4.4
		c0,0.2-0.1,0.2-0.3,0.2c-0.4,0-0.7,0-1.1,0c0.3-1.6,0.7-3.2,1-4.8C277.7,31,277.2,31,276.6,31z"/>
	<path class="st0" d="M293.3,32.2c-0.3,0.3-0.7,0.5-1,0.8c0,0-0.1-0.1-0.1-0.1c-0.3-0.4-0.6-0.5-1-0.4c-0.6,0.1-1.1,0.7-1.1,1.2
		c-0.1,0.7,0.5,1.3,1.2,1c0.3-0.1,0.5-0.3,0.8-0.5c0.2,0.2,0.4,0.5,0.7,0.8c-0.3,0.2-0.5,0.3-0.7,0.5c-0.5,0.3-1.1,0.4-1.7,0.3
		c-1.1-0.2-1.7-1.2-1.5-2.3c0.3-1.5,1.9-2.5,3.4-2.2C292.6,31.5,293,31.8,293.3,32.2z"/>
	<path class="st0" d="M299.9,22c0.4,0,0.8,0,1.3,0c0,0.1,0,0.2,0,0.3c-0.4,1.9-0.8,3.8-1.2,5.6c0,0.2-0.1,0.2-0.3,0.2
		c-0.3,0-0.7,0-1.1,0C299.1,26.1,299.5,24,299.9,22z"/>
	<path class="st0" d="M282.5,28.1c0-0.2,0.1-0.4,0.1-0.6c0.4-1.8,0.7-3.5,1.1-5.3c0.1-0.3,0-0.3,0.3-0.3c0.3,0,0.6,0,1,0
		c-0.1,0.3-0.1,0.7-0.2,1c-0.3,1.7-0.7,3.3-1,5c0,0.2-0.1,0.2-0.3,0.2C283.2,28.1,282.9,28.1,282.5,28.1z"/>
	<path class="st0" d="M280.1,35.8c0.1-0.5,0.2-0.9,0.3-1.3c0.2-0.9,0.4-1.9,0.6-2.8c0-0.2,0.1-0.2,0.3-0.2c0.3,0,0.7,0,1,0
		c0,0.1,0,0.1,0,0.2c0.2-0.1,0.5-0.2,0.7-0.3c0.6-0.1,1,0.2,1.2,0.5c0,0,0,0.1,0,0.2c0,0,0,0,0,0.1c-0.2,0.3-0.5,0.6-0.7,0.9
		c-0.1-0.1-0.2-0.2-0.3-0.3c-0.2-0.2-0.4-0.2-0.7-0.1c-0.3,0.2-0.4,0.4-0.5,0.7c-0.2,0.8-0.3,1.5-0.5,2.3c0,0.1-0.1,0.2-0.2,0.2
		C280.9,35.8,280.5,35.8,280.1,35.8z"/>
</g>
<g>
	<ellipse transform="matrix(0.7071 -0.7071 0.7071 0.7071 -58.7262 44.0094)" class="st3" cx="23.8" cy="92.9" rx="9.2" ry="9.2"/>
	<circle class="st4" cx="23.8" cy="92.8" r="8.7"/>
	<circle class="st4" cx="23.8" cy="92.9" r="5.1"/>
	<path class="st3" d="M23.8,87.7c1.4,0,2.7,0.6,3.7,1.5c0.9,0.9,1.5,2.2,1.5,3.7c0,1.4-0.6,2.7-1.5,3.7c-0.9,0.9-2.2,1.5-3.7,1.5
		c-1.4,0-2.7-0.6-3.7-1.5c-0.9-0.9-1.5-2.2-1.5-3.7c0-1.4,0.6-2.7,1.5-3.7C21,88.3,22.3,87.7,23.8,87.7L23.8,87.7z M27.2,89.4
		c-0.9-0.9-2.1-1.4-3.5-1.4c-1.4,0-2.6,0.5-3.5,1.4c-0.9,0.9-1.4,2.1-1.4,3.5c0,1.4,0.5,2.6,1.4,3.5c0.9,0.9,2.1,1.4,3.5,1.4
		c1.4,0,2.6-0.5,3.5-1.4c0.9-0.9,1.4-2.1,1.4-3.5C28.7,91.5,28.1,90.3,27.2,89.4z"/>
	<path class="st4" d="M23.8,83.6c2.6,0,4.9,1,6.5,2.7c1.7,1.7,2.7,4,2.7,6.5c0,2.6-1,4.9-2.7,6.5c-1.7,1.7-4,2.7-6.5,2.7
		c-2.6,0-4.9-1-6.5-2.7c-1.7-1.7-2.7-4-2.7-6.5c0-2.6,1-4.9,2.7-6.5C18.9,84.6,21.2,83.6,23.8,83.6L23.8,83.6z M30.1,86.5
		c-1.6-1.6-3.8-2.6-6.3-2.6c-2.5,0-4.7,1-6.3,2.6c-1.6,1.6-2.6,3.8-2.6,6.3s1,4.7,2.6,6.3c1.6,1.6,3.8,2.6,6.3,2.6
		c2.5,0,4.7-1,6.3-2.6c1.6-1.6,2.6-3.8,2.6-6.3S31.7,88.2,30.1,86.5z"/>
	<path class="st3" d="M20.8,97.1c0.4-0.6,0.2-0.8,0.9-0.8l3.3,0c0.6,0,0.5,0,0.8,0.7c0,0,0.1,0.2,0.1,0.2
		C23,98.5,21.4,97.4,20.8,97.1L20.8,97.1z M21.1,95.8l4.5,0c0-1.6,0-0.8-1.2-2.3c-0.1-0.2-0.4-0.5-0.5-0.7c0.3,0.2,0.4,0.3,0.9,0.2
		c0.5-0.1,0.5,0.1,0.9,0.3c0.4,0.2,0.6-0.2,0.8-0.4c0.2-0.2,0.4-0.5,0-0.7l-2-1.6c-0.4-0.4-0.2-0.7-0.3-0.9
		c-0.3-0.1-0.6,0.3-0.6,0.4c-0.5,0.9-1.2-0.2-1.9,1.5C21.1,92.8,21.1,94.6,21.1,95.8z"/>
	<path class="st4" d="M40.3,88c-0.5-0.3-0.9-0.4-1.4-0.4c-1.5,0-2.6,1-2.6,2.5c0,1.4,1,2.4,2.5,2.4c0.6,0,1.2-0.2,1.7-0.6l0.1,0.5
		h0.3v-1.7h-0.3C40.4,91.6,39.8,92,39,92c-1,0-1.6-0.7-1.6-2c0-1.3,0.6-2.1,1.5-2.1c0.7,0,1.2,0.5,1.4,1.2h0.2l0.1-1.6h-0.3L40.3,88
		L40.3,88z M44.4,91.3c0.1,0.3,0.2,0.4,0.2,0.6c0,0.2-0.2,0.2-0.6,0.3v0.3h2.3v-0.3c-0.6-0.1-0.7-0.1-1-1l-1.5-3.6h-0.5l-1.6,4.1
		c-0.1,0.4-0.3,0.5-0.7,0.5v0.2h1.7v-0.2c-0.4,0-0.6,0-0.6-0.3c0-0.2,0.1-0.5,0.3-0.9h1.8L44.4,91.3L44.4,91.3z M43.4,88.7
		L43.4,88.7l0.7,1.9h-1.5L43.4,88.7L43.4,88.7z M48.8,92.4c0.6,0,1.2-0.1,1.5-0.3c0.4-0.2,0.6-0.5,0.6-0.9c0-0.7-0.6-1.3-1.5-1.3v0
		c0.7-0.2,1.1-0.5,1.1-1c0-0.7-0.7-1.2-1.9-1.2h-2v0.2c0.4,0,0.5,0.1,0.5,0.7v2.9c0,0.6-0.1,0.7-0.7,0.7v0.2H48.8L48.8,92.4z
		 M48.8,92c-0.6,0-0.9-0.2-0.9-0.7v-1.2h0.3c0.6,0,1,0.1,1.2,0.2c0.2,0.2,0.4,0.4,0.4,0.8C49.8,91.7,49.5,92,48.8,92L48.8,92z
		 M48,89.7v-1.6c0-0.1,0-0.1,0.1-0.1h0.4c0.7,0,0.9,0.3,0.9,0.9c0,0.3-0.1,0.5-0.3,0.6c-0.2,0.1-0.5,0.2-0.8,0.2H48L48,89.7z
		 M54.3,91.3c0.1,0.3,0.2,0.4,0.2,0.6c0,0.2-0.2,0.2-0.6,0.3v0.3h2.3v-0.3c-0.6-0.1-0.7-0.1-1-1l-1.5-3.6h-0.5l-1.6,4.1
		c-0.1,0.4-0.3,0.5-0.7,0.5v0.2h1.7v-0.2c-0.4,0-0.6,0-0.6-0.3c0-0.2,0.1-0.5,0.3-0.9h1.8L54.3,91.3L54.3,91.3z M53.3,88.7
		L53.3,88.7l0.7,1.9h-1.5L53.3,88.7L53.3,88.7z M60.7,91h-0.2C60.2,91.9,59.9,92,59,92c-0.9,0-1.1-0.1-1.1-0.8v-2.6
		c0-0.6,0.1-0.7,0.6-0.8v-0.2h-2.1v0.2c0.5,0,0.6,0.1,0.6,0.7v2.9c0,0.6-0.1,0.7-0.7,0.7v0.2h4.3L60.7,91L60.7,91z M65.4,91h-0.2
		c-0.2,0.9-0.5,1.1-1.4,1.1c-0.9,0-1.1-0.1-1.1-0.8v-2.6c0-0.6,0.1-0.7,0.6-0.8v-0.2h-2.1v0.2c0.5,0,0.6,0.1,0.6,0.7v2.9
		c0,0.6-0.1,0.7-0.7,0.7v0.2h4.3L65.4,91L65.4,91z M67.2,88.2c0-0.2,0-0.2,0.2-0.2h0.7c0.9,0,1.2,0.2,1.3,0.9h0.3l0-1.2h-3.9v0.2
		c0.5,0,0.6,0.1,0.6,0.7v2.9c0,0.6-0.1,0.7-0.7,0.7v0.2h4.2L70,91h-0.2c-0.2,0.8-0.5,1.1-1.4,1.1c-0.8,0-1.1-0.2-1.1-0.7v-1.3
		c1,0,1.2,0.1,1.3,0.7h0.2V89h-0.2c-0.1,0.7-0.2,0.8-1.3,0.8V88.2L67.2,88.2z M74.5,88.8c0-0.8-0.7-1.2-1.9-1.2h-2.1v0.2
		c0.5,0,0.6,0.1,0.6,0.7v2.9c0,0.6-0.1,0.7-0.7,0.7v0.2h2.5v-0.2c-0.8,0-0.9-0.1-0.9-0.7v-1.2c0.1,0,0.3,0.1,0.5,0.3l1.5,1.9h1.5
		v-0.2c-0.3,0-0.6-0.1-0.8-0.4l-1.4-1.7C74.1,90,74.5,89.5,74.5,88.8L74.5,88.8z M72,88.1c0-0.1,0-0.1,0.1-0.1h0.5
		c0.6,0,0.9,0.4,0.9,0.9c0,0.7-0.4,1-1.2,1H72V88.1L72,88.1z M78.1,87.5c1.5,0,2.7,1.1,2.7,2.5c0,1.3-1.2,2.4-2.7,2.4
		c-1.5,0-2.7-1.1-2.7-2.4C75.4,88.6,76.6,87.5,78.1,87.5L78.1,87.5z M78.1,92c1,0,1.6-0.8,1.6-2c0-1.3-0.6-2.1-1.6-2.1
		c-1,0-1.6,0.8-1.6,2.1C76.5,91.3,77.1,92,78.1,92z"/>
	<path class="st4" d="M36.4,98h2.4v-0.3h-2v-1.1h1.8v-0.3h-1.8v-1.1h2v-0.3h-2.4V98L36.4,98z M40.6,98.1c0.6,0,1.1-0.4,1.1-0.9v0
		c0-0.5-0.3-0.8-1.1-0.9c-0.7-0.2-0.9-0.3-0.9-0.6v0c0-0.3,0.3-0.5,0.7-0.5c0.3,0,0.6,0.1,0.9,0.4l0.2-0.3c-0.3-0.3-0.7-0.4-1.1-0.4
		c-0.6,0-1.1,0.4-1.1,0.9v0c0,0.5,0.3,0.8,1.1,0.9c0.7,0.1,0.8,0.3,0.8,0.6v0c0,0.3-0.3,0.6-0.7,0.6c-0.5,0-0.8-0.2-1.1-0.5
		l-0.2,0.3C39.7,97.9,40.1,98.1,40.6,98.1L40.6,98.1z M44,98.1c0.6,0,1-0.2,1.3-0.6L45,97.3c-0.3,0.3-0.6,0.5-1.1,0.5
		c-0.7,0-1.3-0.6-1.3-1.3v0c0-0.8,0.5-1.3,1.3-1.3c0.4,0,0.8,0.2,1,0.4l0.3-0.3c-0.3-0.3-0.7-0.5-1.3-0.5c-1,0-1.7,0.8-1.7,1.7v0
		C42.3,97.4,43,98.1,44,98.1L44,98.1z M45.9,98h0.4v-1.3h0.9l0.9,1.3h0.5l-1-1.3c0.5-0.1,0.9-0.4,0.9-1v0c0-0.3-0.1-0.5-0.3-0.6
		c-0.2-0.2-0.5-0.3-0.9-0.3h-1.4V98L45.9,98z M46.3,96.4v-1.3h1c0.5,0,0.8,0.2,0.8,0.6v0c0,0.4-0.4,0.7-0.8,0.7H46.3L46.3,96.4z
		 M49.3,98h0.4v-3.3h-0.4V98L49.3,98z M50.7,98h1.5c0.7,0,1.2-0.3,1.2-0.9v0c0-0.4-0.3-0.7-0.7-0.8c0.3-0.1,0.5-0.3,0.5-0.8v0
		c0-0.2-0.1-0.4-0.2-0.5c-0.2-0.2-0.5-0.3-0.9-0.3h-1.4V98L50.7,98z M51,96.2v-1.1h1c0.5,0,0.7,0.2,0.7,0.5v0c0,0.4-0.3,0.6-0.8,0.6
		H51L51,96.2z M51,97.7v-1.2h1c0.6,0,0.9,0.2,0.9,0.6v0c0,0.4-0.3,0.6-0.8,0.6H51L51,97.7z M53.7,98h0.4l0.4-0.9h1.8l0.4,0.9h0.4
		l-1.5-3.3h-0.3L53.7,98L53.7,98z M54.7,96.8l0.7-1.7l0.7,1.7H54.7L54.7,96.8z M57.7,98h0.4v-2.7l2.1,2.7h0.3v-3.3h-0.4v2.6
		l-2.1-2.6h-0.3V98L57.7,98z M62.9,98.1c1,0,1.7-0.8,1.7-1.7v0c0-0.9-0.7-1.7-1.7-1.7c-1,0-1.7,0.8-1.7,1.7v0
		C61.3,97.3,61.9,98.1,62.9,98.1L62.9,98.1z M62.9,97.8c-0.7,0-1.3-0.6-1.3-1.3v0c0-0.7,0.5-1.3,1.3-1.3c0.7,0,1.3,0.6,1.3,1.3v0
		C64.2,97.2,63.7,97.8,62.9,97.8L62.9,97.8z M66.5,98.1c0.6,0,1.1-0.4,1.1-0.9v0c0-0.5-0.3-0.8-1.1-0.9c-0.7-0.2-0.9-0.3-0.9-0.6v0
		c0-0.3,0.3-0.5,0.7-0.5c0.3,0,0.6,0.1,0.9,0.4l0.2-0.3c-0.3-0.3-0.7-0.4-1.1-0.4c-0.6,0-1.1,0.4-1.1,0.9v0c0,0.5,0.3,0.8,1.1,0.9
		c0.7,0.1,0.8,0.3,0.8,0.6v0c0,0.3-0.3,0.6-0.7,0.6c-0.5,0-0.8-0.2-1.1-0.5l-0.2,0.3C65.5,97.9,65.9,98.1,66.5,98.1z"/>
	<rect x="36.4" y="101.7" class="st4" width="45.3" height="0.3"/>
	<rect x="36.4" y="83.7" class="st4" width="45.3" height="0.3"/>
</g>
<g>
	<g>
		<g>
			<path class="st0" d="M196.6,89c-0.4-2.3-2.4-4-4.8-4.1c-0.3,0-0.5,0-0.8,0.1c-1.8,0.3-3.1,1.4-3.8,3.1c-0.4,1-0.4,2-0.1,3
				c0.3,0.7,0.6,1.4,1,2.1c0.9,1.4,1.8,2.7,2.9,4c0.1,0.2,0.4,0.1,0.4-0.1v-5.4h-1.3c-0.3,0-0.5-0.3-0.3-0.6l1.8-3.2
				c0-0.1,0.2-0.1,0.2,0l1.8,3.2c0.1,0.2,0,0.6-0.3,0.6h-1.3V97c0,0.2,0.3,0.3,0.4,0.1c0.8-1,1.6-2,2.3-3.1c0.5-0.8,1-1.6,1.4-2.5
				C196.6,90.7,196.7,89.9,196.6,89z"/>
		</g>
		<g>
			<path class="st0" d="M130.3,97.2v-5.8h-1.1v-1.3h1.1c0-1.7,1-2.6,3-2.6V89c-0.2,0-0.4,0-0.6,0.1c-0.2,0-0.3,0.1-0.4,0.2
				c-0.1,0.1-0.1,0.2-0.2,0.3c0,0.1-0.1,0.3-0.1,0.5h1.2v1.3h-1.2v5.8H130.3z"/>
			<path class="st0" d="M137.8,92.2c0-0.3-0.2-0.6-0.4-0.7c-0.2-0.2-0.5-0.2-0.9-0.2c-0.4,0-0.7,0-0.9,0.1c-0.2,0.1-0.3,0.2-0.3,0.5
				c0,0.2,0.1,0.3,0.3,0.5c0.2,0.1,0.5,0.2,0.9,0.3c0.6,0.2,1.1,0.3,1.6,0.4c0.4,0.1,0.8,0.3,1,0.4c0.3,0.2,0.4,0.4,0.6,0.6
				c0.1,0.2,0.2,0.6,0.2,1c0,0.6-0.3,1.2-0.8,1.6c-0.5,0.4-1.3,0.6-2.4,0.6c-0.5,0-1-0.1-1.4-0.2c-0.4-0.1-0.8-0.3-1.1-0.5
				c-0.3-0.2-0.5-0.5-0.7-0.8c-0.2-0.3-0.2-0.6-0.3-1h2c0,0.3,0.1,0.6,0.4,0.8c0.3,0.2,0.6,0.3,1,0.3c0.4,0,0.7-0.1,0.9-0.2
				c0.3-0.1,0.4-0.3,0.4-0.5c0-0.3-0.1-0.5-0.3-0.6c-0.2-0.1-0.5-0.2-0.9-0.3c-0.7-0.2-1.3-0.3-1.7-0.5c-0.4-0.2-0.8-0.4-1-0.6
				c-0.2-0.2-0.4-0.4-0.5-0.7c-0.1-0.2-0.1-0.5-0.1-0.8c0-0.3,0.1-0.5,0.2-0.8c0.1-0.2,0.3-0.5,0.5-0.6c0.2-0.2,0.6-0.3,0.9-0.4
				c0.4-0.1,0.9-0.2,1.4-0.2c1,0,1.8,0.2,2.3,0.6c0.5,0.4,0.7,1,0.8,1.7H137.8z"/>
			<path class="st0" d="M148.7,97.2v-4.3c0-0.4-0.1-0.8-0.3-1.1c-0.2-0.3-0.5-0.4-0.8-0.4c-0.3,0-0.6,0.1-0.9,0.4
				c-0.2,0.3-0.3,0.7-0.3,1.1v4.3h-1.9v-4.3c0-0.3,0-0.5-0.1-0.7c0-0.2-0.1-0.3-0.2-0.4c-0.1-0.1-0.2-0.2-0.4-0.2s-0.3-0.1-0.5-0.1
				c-0.8,0-1.1,0.5-1.1,1.4v4.4h-1.9v-7.2h1.8v1c0.2-0.5,0.5-0.8,0.9-1c0.3-0.2,0.7-0.3,1.2-0.3c0.2,0,0.5,0,0.6,0.1
				c0.2,0,0.4,0.1,0.5,0.2c0.2,0.1,0.3,0.2,0.4,0.4c0.1,0.1,0.3,0.3,0.4,0.5c0.2-0.4,0.5-0.7,0.8-0.9c0.3-0.2,0.7-0.3,1.2-0.3
				c0.4,0,0.7,0.1,1,0.2c0.3,0.1,0.6,0.3,0.8,0.5c0.2,0.2,0.4,0.5,0.5,0.8c0.1,0.3,0.2,0.6,0.2,0.9v5H148.7z"/>
			<path class="st0" d="M158.4,97.2l0-1c-0.2,0.4-0.6,0.7-1.1,1c-0.5,0.2-1.1,0.3-1.8,0.3c-0.7,0-1.3-0.1-1.8-0.4
				c-0.5-0.3-1-0.7-1.4-1.1c-0.4-0.5-0.7-1-0.9-1.7c-0.2-0.6-0.3-1.3-0.3-1.9c0-0.7,0.1-1.4,0.3-2c0.2-0.6,0.5-1.2,0.9-1.6
				c0.4-0.5,0.9-0.8,1.5-1.1c0.6-0.3,1.3-0.4,2.1-0.4c0.6,0,1.1,0.1,1.6,0.2c0.5,0.2,0.9,0.4,1.3,0.7c0.4,0.3,0.7,0.6,0.9,1
				c0.2,0.4,0.4,0.8,0.4,1.3h-2c0-0.2-0.1-0.4-0.2-0.6c-0.1-0.2-0.3-0.4-0.5-0.5c-0.2-0.1-0.4-0.3-0.7-0.3c-0.3-0.1-0.5-0.1-0.8-0.1
				c-0.8,0-1.5,0.3-2,0.9c-0.5,0.6-0.7,1.5-0.7,2.6c0,0.4,0.1,0.8,0.2,1.2c0.1,0.4,0.3,0.8,0.5,1.1c0.2,0.3,0.5,0.6,0.8,0.8
				c0.3,0.2,0.7,0.3,1.2,0.3c0.3,0,0.6-0.1,0.9-0.2c0.3-0.1,0.5-0.3,0.7-0.5c0.2-0.2,0.4-0.4,0.5-0.7c0.1-0.3,0.2-0.6,0.2-0.9h-2.1
				V92h4v5.2H158.4z"/>
			<path class="st0" d="M160.9,97.2v-7.2h1.8v0.9c0.2-0.2,0.3-0.4,0.5-0.6c0.2-0.1,0.3-0.2,0.5-0.3c0.2-0.1,0.4-0.1,0.5-0.1
				c0.2,0,0.4,0,0.6,0h0.2v1.9c-0.2,0-0.3,0-0.5,0c-1.2,0-1.7,0.6-1.7,1.7v3.7H160.9z"/>
			<path class="st0" d="M168.6,97.4c-0.6,0-1.1-0.1-1.6-0.3c-0.5-0.2-0.8-0.4-1.2-0.8c-0.3-0.3-0.6-0.7-0.7-1.2
				c-0.2-0.5-0.2-1-0.2-1.5c0-0.6,0.1-1.1,0.3-1.5c0.2-0.5,0.4-0.9,0.7-1.2c0.3-0.3,0.7-0.6,1.2-0.8c0.5-0.2,1-0.3,1.5-0.3
				c0.6,0,1.1,0.1,1.5,0.3c0.4,0.2,0.8,0.4,1.1,0.8c0.3,0.3,0.6,0.7,0.7,1.2c0.2,0.5,0.3,1,0.3,1.6c0,0.6-0.1,1.1-0.3,1.6
				c-0.2,0.5-0.4,0.9-0.7,1.2c-0.3,0.3-0.7,0.6-1.1,0.8C169.6,97.3,169.1,97.4,168.6,97.4z M168.6,95.8c1.2,0,1.7-0.7,1.7-2.2
				c0-1.4-0.6-2.2-1.7-2.2c-1.2,0-1.7,0.7-1.7,2.2C166.8,95.1,167.4,95.8,168.6,95.8z"/>
			<path class="st0" d="M177.5,97.2v-1c-0.5,0.8-1.2,1.2-2.2,1.2c-0.4,0-0.7-0.1-1-0.2c-0.3-0.1-0.6-0.3-0.8-0.5
				c-0.2-0.2-0.4-0.5-0.5-0.8c-0.1-0.3-0.2-0.7-0.2-1.1v-4.7h1.9v4.4c0,0.9,0.4,1.3,1.2,1.3c0.5,0,0.9-0.2,1.1-0.5
				c0.2-0.3,0.4-0.7,0.4-1.2v-4.1h1.9v7.2H177.5z"/>
			<path class="st0" d="M180,100.6V90.1h1.8l0,0.9c0.4-0.7,1.1-1.1,2-1.1c0.4,0,0.9,0.1,1.2,0.3c0.4,0.2,0.7,0.4,1,0.8
				c0.3,0.3,0.5,0.7,0.6,1.2c0.2,0.5,0.2,1,0.2,1.6c0,0.5-0.1,1-0.2,1.5c-0.1,0.5-0.3,0.8-0.6,1.2c-0.3,0.3-0.6,0.6-0.9,0.8
				c-0.4,0.2-0.8,0.3-1.2,0.3c-0.9,0-1.6-0.4-2.1-1.1v4.3H180z M183.4,95.8c1.1,0,1.6-0.7,1.6-2.2c0-0.6-0.2-1.2-0.5-1.6
				c-0.3-0.4-0.7-0.6-1.2-0.6c-0.5,0-0.8,0.2-1.1,0.6c-0.3,0.4-0.5,0.9-0.5,1.5C181.8,95,182.4,95.8,183.4,95.8z"/>
		</g>
	</g>
</g>
<g>
	<g>
		<path class="st0" d="M293.6,92.9c0.5,0.8,1.1,1.6,1.7,2.4c-0.4,0-0.8,0-1.1,0c-0.1,0-0.1-0.1-0.2-0.1c-0.5-0.7-1-1.4-1.5-2.1
			c-0.1-0.1-0.2-0.2-0.3-0.2c-0.9,0-1.9,0-2.8,0c-0.2,0-0.2,0-0.2,0.2c0,0.7,0,1.3,0,2c0,0.1,0,0.1,0,0.2c-0.3,0-0.7,0-1,0
			c0-2.1,0-4.2,0-6.3c0.1,0,0.1,0,0.1,0c1.7,0,3.3,0,5,0c0.6,0,1.1,0.2,1.5,0.7c0.6,0.7,0.7,2.3-0.5,2.9
			C294.1,92.8,293.9,92.8,293.6,92.9z M289.2,92c0.1,0,0.1,0,0.2,0c1.2,0,2.4,0,3.7,0c0.2,0,0.3,0,0.5-0.1c0.4-0.1,0.6-0.4,0.7-0.8
			c0-0.5-0.2-0.9-0.6-1c-0.2-0.1-0.5-0.1-0.7-0.1c-1.2,0-2.3,0-3.5,0c-0.1,0-0.1,0-0.2,0C289.2,90.7,289.2,91.3,289.2,92z"/>
		<path class="st0" d="M304.1,94.4c0.2-0.2,0.4-0.5,0.5-0.7c0.4,0.2,0.8,0.4,1.2,0.5c1.1,0.4,2.2,0.5,3.3,0.2c0.2,0,0.4-0.1,0.6-0.3
			c0.3-0.2,0.5-0.5,0.4-0.8c0-0.3-0.3-0.5-0.6-0.6c-0.4-0.1-0.7-0.1-1.1-0.2c-0.9-0.1-1.8-0.2-2.7-0.3c-0.2,0-0.4-0.1-0.5-0.1
			c-1-0.3-1.3-1.4-0.7-2.3c0.3-0.4,0.7-0.6,1.2-0.8c1.7-0.4,3.3-0.3,4.9,0.6c0.1,0,0.1,0.1,0.2,0.1c-0.2,0.2-0.4,0.5-0.6,0.7
			c-0.4-0.1-0.7-0.3-1.1-0.4c-1-0.3-1.9-0.4-2.9-0.2c-0.2,0-0.3,0.1-0.5,0.2c-0.2,0.1-0.4,0.3-0.3,0.6c0,0.3,0.2,0.4,0.4,0.5
			c0.3,0.1,0.7,0.2,1,0.2c0.9,0.1,1.7,0.2,2.6,0.3c0.3,0,0.6,0.1,0.9,0.2c1.4,0.5,1.2,2.2,0.4,2.8c-0.5,0.4-1,0.6-1.5,0.6
			c-1.3,0.2-2.5,0.1-3.8-0.3C304.9,95,304.4,94.7,304.1,94.4z"/>
		<path class="st0" d="M271.3,89.8c-0.2,0.2-0.4,0.4-0.6,0.6c0,0-0.1,0-0.2,0c-0.7-0.3-1.4-0.6-2.2-0.6c-0.6-0.1-1.3-0.1-1.9,0.1
			c-0.2,0.1-0.4,0.2-0.5,0.3c-0.3,0.2-0.3,0.7,0.1,0.9c0.2,0.1,0.4,0.2,0.6,0.2c0.7,0.1,1.3,0.1,2,0.2c0.7,0.1,1.3,0.1,1.9,0.4
			c1.4,0.5,1.2,2.2,0.4,2.8c-0.4,0.4-1,0.6-1.5,0.6c-1.3,0.2-2.5,0.2-3.8-0.3c-0.5-0.2-0.9-0.4-1.3-0.7c0.2-0.3,0.4-0.5,0.5-0.7
			c0.5,0.2,0.9,0.4,1.4,0.6c1.1,0.3,2.1,0.4,3.2,0.1c0.2-0.1,0.4-0.2,0.6-0.3c0.5-0.4,0.5-1.1-0.1-1.4c-0.4-0.2-0.8-0.2-1.2-0.2
			c-0.9-0.1-1.8-0.2-2.7-0.3c-0.2,0-0.3-0.1-0.5-0.1c-1-0.4-1.3-1.6-0.6-2.4c0.4-0.4,0.9-0.6,1.5-0.7c1.5-0.3,3-0.1,4.4,0.6
			C271,89.7,271.1,89.8,271.3,89.8z"/>
		<path class="st0" d="M299.8,95.6c-1,0-1.8-0.2-2.7-0.7c-1.8-1.2-1.9-3.9-0.1-5.1c0.7-0.5,1.4-0.7,2.3-0.8c0.9-0.1,1.8,0,2.7,0.5
			c0.9,0.5,1.5,1.1,1.8,2.1c0.3,1.4-0.2,2.7-1.5,3.4C301.6,95.3,300.8,95.6,299.8,95.6z M299.8,94.6c0.6,0,1.1-0.1,1.7-0.3
			c0.8-0.4,1.2-1,1.3-1.8c0.1-0.9-0.3-1.6-1-2.1c-0.5-0.3-1.1-0.5-1.7-0.5c-0.7,0-1.4,0.1-2.1,0.5c-0.7,0.5-1.2,1.1-1.1,2
			c0,0.9,0.5,1.6,1.4,2C298.7,94.5,299.3,94.6,299.8,94.6z"/>
		<path class="st0" d="M287.2,89.1c0,0.3,0,0.6,0,0.9c-1.8,0-3.5,0-5.3,0c0,0.5,0,1.1,0,1.6c1.2,0,2.4,0,3.7,0c0,0.3,0,0.6,0,0.9
			c-1.2,0-2.4,0-3.7,0c0,0.6,0,1.2,0,1.9c1.9,0,3.7,0,5.5,0c0,0.3,0,0.6,0,0.9c-2.2,0-4.4,0-6.6,0c0-2.1,0-4.2,0-6.3
			C283,89.1,285.1,89.1,287.2,89.1z"/>
		<path class="st0" d="M278.5,94.2c0-1.7,0-3.4,0-5.1c0.3,0,0.7,0,1,0c0,2.1,0,4.2,0,6.3c-0.3,0-0.5,0-0.8,0c-0.4,0-0.6-0.1-0.9-0.4
			c-1.4-1.6-2.9-3.1-4.3-4.6c0,0-0.1-0.1-0.2-0.1c0,1.7,0,3.4,0,5.1c-0.4,0-0.7,0-1,0c0-2.1,0-4.2,0-6.3c0.3,0,0.5,0,0.8,0
			c0.3,0,0.6,0.1,0.8,0.3c1.4,1.6,2.9,3.1,4.4,4.7C278.4,94.1,278.5,94.2,278.5,94.2C278.5,94.2,278.5,94.2,278.5,94.2z"/>
		<path class="st0" d="M261.9,90.5c-0.3,0.1-0.6,0.2-0.9,0.3c0,0-0.1,0-0.2,0c-0.8-0.8-1.8-1-2.9-0.9c-0.6,0-1.2,0.2-1.7,0.6
			c-1.4,0.9-1.3,3,0.3,3.8c1.1,0.6,3.2,0.6,4.3-0.6c0,0,0.1-0.1,0.1,0c0.3,0.1,0.5,0.3,0.8,0.5c-0.3,0.4-0.7,0.7-1.1,0.9
			c-1.2,0.7-3.7,0.8-5-0.1c-1.7-1.1-1.8-3-1.1-4.2c0.4-0.7,1.1-1.3,1.9-1.5c1.5-0.5,2.9-0.5,4.3,0.3
			C261.2,89.7,261.6,90.1,261.9,90.5z"/>
		<path class="st0" d="M263.8,95.4c-0.3,0-0.7,0-1,0c0-2.1,0-4.2,0-6.3c0.3,0,0.7,0,1,0C263.8,91.2,263.8,93.3,263.8,95.4z"/>
	</g>
	
		<rect x="244.7" y="88" transform="matrix(0.7071 0.7071 -0.7071 0.7071 134.9806 -147.7405)" class="st0" width="2.2" height="2.2"/>
	
		<rect x="247.9" y="88" transform="matrix(0.7071 0.7071 -0.7071 0.7071 135.9163 -149.9994)" class="st0" width="2.2" height="2.2"/>
	
		<rect x="251.1" y="88" transform="matrix(0.7071 0.7071 -0.7071 0.7071 136.852 -152.2583)" class="st0" width="2.2" height="2.2"/>
	
		<rect x="244.7" y="91.1" transform="matrix(0.7071 0.7071 -0.7071 0.7071 137.1787 -146.83)" class="st0" width="2.2" height="2.2"/>
	
		<rect x="247.9" y="91.1" transform="matrix(0.7071 0.7071 -0.7071 0.7071 138.1144 -149.0889)" class="st0" width="2.2" height="2.2"/>
	
		<rect x="251.1" y="91.1" transform="matrix(0.7071 0.7071 -0.7071 0.7071 139.0501 -151.3478)" class="st0" width="2.2" height="2.2"/>
	
		<rect x="244.7" y="94.2" transform="matrix(0.7071 0.7071 -0.7071 0.7071 139.3768 -145.9195)" class="st0" width="2.2" height="2.2"/>
	
		<rect x="247.9" y="94.2" transform="matrix(0.7071 0.7071 -0.7071 0.7071 140.3125 -148.1784)" class="st0" width="2.2" height="2.2"/>
	
		<rect x="251.1" y="94.2" transform="matrix(0.7071 0.7071 -0.7071 0.7071 141.2482 -150.4373)" class="st0" width="2.2" height="2.2"/>
</g>
</svg>
