<?xml version="1.0" encoding="utf-8"?>
<!-- Generator: Adobe Illustrator 24.3.0, SVG Export Plug-In . SVG Version: 6.00 Build 0)  -->
<svg version="1.1" id="Layer_1" xmlns="http://www.w3.org/2000/svg" xmlns:xlink="http://www.w3.org/1999/xlink" x="0px" y="0px"
	 viewBox="0 0 205 186" style="enable-background:new 0 0 205 186;" xml:space="preserve">
<style type="text/css">
	.st0{fill:#D38BB6;}
	.st1{fill:#FFFFFF;stroke:#FFFFFF;stroke-width:0.5041;stroke-miterlimit:10;}
</style>
<g>
	<g>
		<g>
			<path class="st0" d="M67.8,143.9l-3.8-6.5h-2.5v6.5h-2.1V128h5.1c1.2,0,2.2,0.2,3.1,0.6c0.8,0.4,1.5,1,1.9,1.7
				c0.4,0.7,0.6,1.5,0.6,2.4c0,1.1-0.3,2.1-0.9,2.9c-0.6,0.8-1.6,1.4-2.8,1.7l4,6.7H67.8z M61.5,135.7h3.1c1.1,0,2-0.3,2.5-0.8
				c0.6-0.6,0.8-1.3,0.8-2.2c0-0.9-0.3-1.7-0.8-2.2s-1.4-0.8-2.5-0.8h-3.1V135.7z"/>
			<path class="st0" d="M84.5,138.4h-10c0.1,1.2,0.5,2.2,1.3,2.9c0.8,0.7,1.7,1,2.8,1c0.9,0,1.7-0.2,2.3-0.6c0.6-0.4,1-1,1.3-1.7
				h2.2c-0.3,1.2-1,2.2-2,2.9c-1,0.8-2.3,1.1-3.8,1.1c-1.2,0-2.3-0.3-3.2-0.8c-0.9-0.5-1.7-1.3-2.2-2.3c-0.5-1-0.8-2.1-0.8-3.4
				s0.3-2.4,0.8-3.4s1.2-1.7,2.2-2.3c0.9-0.5,2-0.8,3.2-0.8c1.2,0,2.2,0.3,3.2,0.8c0.9,0.5,1.6,1.2,2.1,2.1c0.5,0.9,0.7,1.9,0.7,3.1
				C84.5,137.6,84.5,138,84.5,138.4z M81.9,134.7c-0.4-0.6-0.8-1-1.4-1.3c-0.6-0.3-1.3-0.4-2-0.4c-1.1,0-1.9,0.3-2.7,1
				s-1.2,1.6-1.3,2.8h7.9C82.4,135.9,82.2,135.3,81.9,134.7z"/>
			<path class="st0" d="M95.1,131.9c0.8,0.5,1.4,1.1,1.8,1.8v-2.3H99v12.8c0,1.1-0.2,2.2-0.7,3.1c-0.5,0.9-1.2,1.6-2.1,2.1
				c-0.9,0.5-2,0.8-3.2,0.8c-1.6,0-3-0.4-4.1-1.2s-1.7-1.8-1.9-3.2H89c0.2,0.8,0.7,1.4,1.4,1.8s1.6,0.7,2.6,0.7
				c1.1,0,2.1-0.4,2.8-1.1c0.7-0.7,1.1-1.7,1.1-3v-2.6c-0.4,0.7-1,1.3-1.8,1.8c-0.8,0.5-1.8,0.7-2.8,0.7c-1.1,0-2.1-0.3-3-0.8
				s-1.6-1.3-2.1-2.3s-0.8-2.1-0.8-3.4c0-1.3,0.3-2.4,0.8-3.4c0.5-1,1.2-1.7,2.1-2.3c0.9-0.5,1.9-0.8,3-0.8
				C93.3,131.2,94.3,131.4,95.1,131.9z M96.3,135.2c-0.4-0.7-0.9-1.2-1.5-1.6c-0.6-0.4-1.4-0.6-2.1-0.6c-0.8,0-1.5,0.2-2.1,0.5
				c-0.6,0.4-1.2,0.9-1.5,1.6c-0.4,0.7-0.6,1.5-0.6,2.5c0,1,0.2,1.8,0.6,2.5s0.9,1.2,1.5,1.6c0.6,0.4,1.3,0.6,2.1,0.6
				c0.8,0,1.5-0.2,2.1-0.6c0.6-0.4,1.2-0.9,1.5-1.6s0.6-1.5,0.6-2.5S96.7,135.9,96.3,135.2z"/>
			<path class="st0" d="M102.3,134.2c0.5-1,1.2-1.7,2.1-2.3c0.9-0.5,1.9-0.8,3-0.8c1.1,0,2,0.2,2.9,0.7c0.8,0.5,1.4,1.1,1.8,1.8
				v-2.3h2.1v12.5h-2.1v-2.3c-0.4,0.7-1,1.3-1.8,1.8c-0.8,0.5-1.8,0.7-2.8,0.7c-1.1,0-2.1-0.3-3-0.8c-0.9-0.5-1.6-1.3-2.1-2.3
				s-0.8-2.1-0.8-3.4C101.5,136.3,101.8,135.2,102.3,134.2z M111.5,135.2c-0.4-0.7-0.9-1.2-1.5-1.6c-0.6-0.4-1.4-0.6-2.1-0.6
				c-0.8,0-1.5,0.2-2.1,0.5c-0.6,0.4-1.2,0.9-1.5,1.6c-0.4,0.7-0.6,1.5-0.6,2.5c0,1,0.2,1.8,0.6,2.5s0.9,1.2,1.5,1.6
				c0.6,0.4,1.3,0.6,2.1,0.6c0.8,0,1.5-0.2,2.1-0.6c0.6-0.4,1.2-0.9,1.5-1.6s0.6-1.5,0.6-2.5S111.9,135.9,111.5,135.2z"/>
			<path class="st0" d="M119.6,127v16.9h-2.1V127H119.6z"/>
			<path class="st0" d="M125.2,143.3c-1-0.5-1.7-1.3-2.2-2.3s-0.8-2.1-0.8-3.4c0-1.3,0.3-2.4,0.8-3.4c0.6-1,1.3-1.7,2.3-2.3
				c1-0.5,2-0.8,3.2-0.8s2.3,0.3,3.2,0.8c1,0.5,1.7,1.3,2.3,2.3s0.8,2.1,0.8,3.4s-0.3,2.4-0.9,3.4s-1.3,1.7-2.3,2.3
				c-1,0.5-2.1,0.8-3.2,0.8C127.2,144.1,126.1,143.9,125.2,143.3z M130.5,141.8c0.7-0.4,1.2-0.9,1.6-1.6c0.4-0.7,0.6-1.6,0.6-2.6
				c0-1-0.2-1.9-0.6-2.6c-0.4-0.7-0.9-1.2-1.6-1.6c-0.6-0.3-1.3-0.5-2.1-0.5c-0.8,0-1.5,0.2-2.1,0.5s-1.1,0.9-1.5,1.6
				s-0.6,1.6-0.6,2.6c0,1,0.2,1.9,0.6,2.6s0.9,1.2,1.5,1.6c0.6,0.3,1.3,0.5,2.1,0.5S129.8,142.1,130.5,141.8z"/>
			<path class="st0" d="M139.2,143.6c-0.8-0.3-1.4-0.8-1.8-1.4c-0.4-0.6-0.7-1.3-0.7-2h2.1c0.1,0.6,0.4,1.1,0.9,1.5
				c0.5,0.4,1.2,0.6,2.1,0.6c0.8,0,1.4-0.2,1.9-0.5c0.5-0.4,0.7-0.8,0.7-1.3c0-0.5-0.2-1-0.7-1.2c-0.5-0.3-1.2-0.5-2.3-0.8
				c-0.9-0.2-1.7-0.5-2.3-0.7c-0.6-0.3-1.1-0.6-1.5-1.1c-0.4-0.5-0.6-1.1-0.6-2c0-0.6,0.2-1.2,0.6-1.8c0.4-0.5,0.9-1,1.6-1.3
				s1.5-0.5,2.4-0.5c1.4,0,2.5,0.4,3.4,1.1c0.9,0.7,1.3,1.7,1.4,2.9h-2.1c0-0.7-0.3-1.2-0.8-1.6c-0.5-0.4-1.1-0.6-1.9-0.6
				c-0.7,0-1.3,0.2-1.8,0.5s-0.7,0.7-0.7,1.3c0,0.4,0.1,0.8,0.4,1c0.3,0.3,0.6,0.5,1,0.6c0.4,0.2,1,0.3,1.7,0.5
				c0.9,0.2,1.6,0.5,2.2,0.7c0.6,0.2,1,0.6,1.5,1.1c0.4,0.5,0.6,1.1,0.6,1.9c0,0.7-0.2,1.3-0.6,1.9s-0.9,1-1.6,1.3
				c-0.7,0.3-1.5,0.5-2.4,0.5C140.8,144.1,139.9,144,139.2,143.6z"/>
			<path class="st0" d="M31.7,164.4c0.7-1.2,1.7-2.2,2.9-2.9s2.6-1.1,4-1.1c1.7,0,3.3,0.4,4.6,1.3c1.3,0.8,2.2,2,2.8,3.6h-2.5
				c-0.4-1-1.1-1.7-1.9-2.2c-0.8-0.5-1.8-0.8-3-0.8c-1.1,0-2.1,0.3-3,0.8c-0.9,0.5-1.6,1.3-2.1,2.2c-0.5,1-0.8,2.1-0.8,3.3
				c0,1.3,0.3,2.4,0.8,3.3c0.5,1,1.2,1.7,2.1,2.2c0.9,0.5,1.9,0.8,3,0.8c1.2,0,2.2-0.3,3-0.8s1.5-1.2,1.9-2.2H46
				c-0.6,1.5-1.5,2.7-2.8,3.5c-1.3,0.8-2.8,1.2-4.6,1.2c-1.5,0-2.8-0.3-4-1c-1.2-0.7-2.2-1.7-2.9-2.9c-0.7-1.2-1.1-2.6-1.1-4.2
				S31,165.7,31.7,164.4z"/>
			<path class="st0" d="M51.2,176c-1-0.5-1.7-1.3-2.2-2.3s-0.8-2.1-0.8-3.4c0-1.3,0.3-2.4,0.8-3.4c0.6-1,1.3-1.7,2.3-2.3
				c1-0.5,2-0.8,3.2-0.8s2.3,0.3,3.2,0.8c1,0.5,1.7,1.3,2.3,2.3s0.8,2.1,0.8,3.4s-0.3,2.4-0.9,3.4s-1.3,1.7-2.3,2.3
				c-1,0.5-2.1,0.8-3.2,0.8C53.2,176.8,52.1,176.6,51.2,176z M56.5,174.5c0.7-0.4,1.2-0.9,1.6-1.6c0.4-0.7,0.6-1.6,0.6-2.6
				c0-1-0.2-1.9-0.6-2.6c-0.4-0.7-0.9-1.2-1.6-1.6c-0.6-0.3-1.3-0.5-2.1-0.5c-0.8,0-1.5,0.2-2.1,0.5s-1.1,0.9-1.5,1.6
				s-0.6,1.6-0.6,2.6c0,1,0.2,1.9,0.6,2.6s0.9,1.2,1.5,1.6c0.6,0.3,1.3,0.5,2.1,0.5S55.8,174.8,56.5,174.5z"/>
			<path class="st0" d="M67,164.5c0.7-0.4,1.5-0.6,2.5-0.6v2.1h-0.5c-2.3,0-3.5,1.3-3.5,3.8v6.8h-2.1v-12.5h2.1v2
				C65.8,165.4,66.3,164.9,67,164.5z"/>
			<path class="st0" d="M75.5,164.6c0.8-0.5,1.8-0.7,2.8-0.7c1.1,0,2.1,0.3,3,0.8c0.9,0.5,1.6,1.3,2.1,2.3c0.5,1,0.8,2.1,0.8,3.4
				c0,1.3-0.3,2.4-0.8,3.4c-0.5,1-1.2,1.8-2.1,2.3c-0.9,0.5-1.9,0.8-3,0.8c-1.1,0-2-0.2-2.8-0.7s-1.4-1.1-1.9-1.8v8.3h-2.1v-18.5
				h2.1v2.3C74.1,165.7,74.7,165.1,75.5,164.6z M81.6,167.8c-0.4-0.7-0.9-1.2-1.5-1.6c-0.6-0.4-1.4-0.5-2.1-0.5
				c-0.8,0-1.5,0.2-2.1,0.6c-0.6,0.4-1.2,0.9-1.6,1.6c-0.4,0.7-0.6,1.5-0.6,2.5c0,0.9,0.2,1.8,0.6,2.5s0.9,1.2,1.6,1.6
				c0.6,0.4,1.4,0.6,2.1,0.6c0.8,0,1.5-0.2,2.1-0.6c0.6-0.4,1.2-0.9,1.5-1.6s0.6-1.5,0.6-2.5C82.2,169.4,82,168.5,81.6,167.8z"/>
			<path class="st0" d="M89.1,176c-1-0.5-1.7-1.3-2.2-2.3s-0.8-2.1-0.8-3.4c0-1.3,0.3-2.4,0.8-3.4c0.6-1,1.3-1.7,2.3-2.3
				c1-0.5,2-0.8,3.2-0.8s2.3,0.3,3.2,0.8c1,0.5,1.7,1.3,2.3,2.3s0.8,2.1,0.8,3.4s-0.3,2.4-0.9,3.4s-1.3,1.7-2.3,2.3
				c-1,0.5-2.1,0.8-3.2,0.8C91.1,176.8,90.1,176.6,89.1,176z M94.4,174.5c0.7-0.4,1.2-0.9,1.6-1.6c0.4-0.7,0.6-1.6,0.6-2.6
				c0-1-0.2-1.9-0.6-2.6c-0.4-0.7-0.9-1.2-1.6-1.6c-0.6-0.3-1.3-0.5-2.1-0.5c-0.8,0-1.5,0.2-2.1,0.5s-1.1,0.9-1.5,1.6
				s-0.6,1.6-0.6,2.6c0,1,0.2,1.9,0.6,2.6s0.9,1.2,1.5,1.6c0.6,0.3,1.3,0.5,2.1,0.5S93.7,174.8,94.4,174.5z"/>
			<path class="st0" d="M104.9,164.5c0.7-0.4,1.5-0.6,2.5-0.6v2.1h-0.5c-2.3,0-3.5,1.3-3.5,3.8v6.8h-2.1v-12.5h2.1v2
				C103.7,165.4,104.2,164.9,104.9,164.5z"/>
			<path class="st0" d="M109.5,166.9c0.5-1,1.2-1.7,2.1-2.3c0.9-0.5,1.9-0.8,3-0.8c1.1,0,2,0.2,2.9,0.7c0.8,0.5,1.4,1.1,1.8,1.8
				v-2.3h2.1v12.5h-2.1v-2.3c-0.4,0.7-1,1.3-1.8,1.8c-0.8,0.5-1.8,0.7-2.8,0.7c-1.1,0-2.1-0.3-3-0.8c-0.9-0.5-1.6-1.3-2.1-2.3
				s-0.8-2.1-0.8-3.4C108.8,169,109,167.9,109.5,166.9z M118.8,167.9c-0.4-0.7-0.9-1.2-1.5-1.6c-0.6-0.4-1.4-0.6-2.1-0.6
				c-0.8,0-1.5,0.2-2.1,0.5c-0.6,0.4-1.2,0.9-1.5,1.6c-0.4,0.7-0.6,1.5-0.6,2.5c0,1,0.2,1.8,0.6,2.5s0.9,1.2,1.5,1.6
				c0.6,0.4,1.3,0.6,2.1,0.6c0.8,0,1.5-0.2,2.1-0.6c0.6-0.4,1.2-0.9,1.5-1.6s0.6-1.5,0.6-2.5S119.2,168.6,118.8,167.9z"/>
			<path class="st0" d="M127.3,165.8v7.4c0,0.6,0.1,1,0.4,1.3c0.3,0.3,0.7,0.4,1.3,0.4h1.5v1.8h-1.9c-1.2,0-2-0.3-2.6-0.8
				c-0.6-0.5-0.9-1.4-0.9-2.6v-7.4h-1.6v-1.7h1.6v-3.2h2.1v3.2h3.3v1.7H127.3z"/>
			<path class="st0" d="M132.9,161.6c-0.3-0.3-0.4-0.6-0.4-1s0.1-0.7,0.4-1s0.6-0.4,1-0.4c0.4,0,0.7,0.1,1,0.4
				c0.3,0.3,0.4,0.6,0.4,1s-0.1,0.7-0.4,1c-0.3,0.3-0.6,0.4-1,0.4C133.5,162.1,133.2,161.9,132.9,161.6z M134.9,164.1v12.5h-2.1
				v-12.5H134.9z"/>
			<path class="st0" d="M142.9,174.7l3.9-10.6h2.2l-4.9,12.5h-2.4l-4.9-12.5h2.2L142.9,174.7z"/>
			<path class="st0" d="M153.1,176c-1-0.5-1.7-1.3-2.2-2.3s-0.8-2.1-0.8-3.4c0-1.3,0.3-2.4,0.8-3.4c0.6-1,1.3-1.7,2.3-2.3
				c1-0.5,2-0.8,3.2-0.8s2.3,0.3,3.2,0.8c1,0.5,1.7,1.3,2.3,2.3s0.8,2.1,0.8,3.4s-0.3,2.4-0.9,3.4s-1.3,1.7-2.3,2.3
				c-1,0.5-2.1,0.8-3.2,0.8C155.2,176.8,154.1,176.6,153.1,176z M158.4,174.5c0.7-0.4,1.2-0.9,1.6-1.6c0.4-0.7,0.6-1.6,0.6-2.6
				c0-1-0.2-1.9-0.6-2.6c-0.4-0.7-0.9-1.2-1.6-1.6c-0.6-0.3-1.3-0.5-2.1-0.5c-0.8,0-1.5,0.2-2.1,0.5s-1.1,0.9-1.5,1.6
				s-0.6,1.6-0.6,2.6c0,1,0.2,1.9,0.6,2.6s0.9,1.2,1.5,1.6c0.6,0.3,1.3,0.5,2.1,0.5S157.8,174.8,158.4,174.5z"/>
			<path class="st0" d="M167.1,176.3c-0.8-0.3-1.4-0.8-1.8-1.4c-0.4-0.6-0.7-1.3-0.7-2h2.1c0.1,0.6,0.4,1.1,0.9,1.5
				c0.5,0.4,1.2,0.6,2.1,0.6c0.8,0,1.4-0.2,1.9-0.5c0.5-0.4,0.7-0.8,0.7-1.3c0-0.5-0.2-1-0.7-1.2c-0.5-0.3-1.2-0.5-2.3-0.8
				c-0.9-0.2-1.7-0.5-2.3-0.7c-0.6-0.3-1.1-0.6-1.5-1.1c-0.4-0.5-0.6-1.1-0.6-2c0-0.6,0.2-1.2,0.6-1.8c0.4-0.5,0.9-1,1.6-1.3
				s1.5-0.5,2.4-0.5c1.4,0,2.5,0.4,3.4,1.1c0.9,0.7,1.3,1.7,1.4,2.9h-2.1c0-0.7-0.3-1.2-0.8-1.6c-0.5-0.4-1.1-0.6-1.9-0.6
				c-0.7,0-1.3,0.2-1.8,0.5s-0.7,0.7-0.7,1.3c0,0.4,0.1,0.8,0.4,1c0.3,0.3,0.6,0.5,1,0.6c0.4,0.2,1,0.3,1.7,0.5
				c0.9,0.2,1.6,0.5,2.2,0.7c0.6,0.2,1,0.6,1.5,1.1c0.4,0.5,0.6,1.1,0.6,1.9c0,0.7-0.2,1.3-0.6,1.9s-0.9,1-1.6,1.3
				c-0.7,0.3-1.5,0.5-2.4,0.5C168.7,176.8,167.9,176.7,167.1,176.3z"/>
		</g>
	</g>
	<circle class="st0" cx="102.4" cy="55.4" r="48.8"/>
	<path class="st1" d="M124.3,43.4h-3.7c0.1-0.1,0.2-0.3,0.3-0.5c0.5-0.9,0.6-2.1,0.2-3.1l-1.1-3c-0.4-1-1.1-1.8-2.1-2.2
		c-1-0.4-2.1-0.4-3.1,0.1L106,39c-0.4-0.3-1-0.5-1.5-0.5h-4c-0.6,0-1.1,0.2-1.5,0.5l-8.8-4.2c-1-0.5-2.1-0.5-3.1-0.1
		c-1,0.4-1.8,1.2-2.1,2.2l-1.1,3c-0.4,1-0.3,2.1,0.2,3.1c0.1,0.2,0.2,0.3,0.3,0.5h-3.7c-0.4,0-0.7,0.3-0.7,0.7v7.6
		c0,0.4,0.3,0.7,0.7,0.7s0.7-0.3,0.7-0.7v-6.9h4.8c0.1,0,0.2,0.1,0.2,0.1l5.8,1.6c-1.3,2-2.4,4.1-3.4,6.2h-7.5v-0.8
		c0-0.4-0.3-0.7-0.7-0.7s-0.7,0.3-0.7,0.7v1.5c0,0.4,0.3,0.7,0.7,0.7h2.5v24.6c0,0.4,0.3,0.7,0.7,0.7h37.3c0.4,0,0.7-0.3,0.7-0.7v-4
		c0-0.4-0.3-0.7-0.7-0.7c-0.4,0-0.7,0.3-0.7,0.7v3.3h-13.8V54.6c2,3.7,3.3,7.8,3.9,12c0,0.3,0.2,0.5,0.5,0.6c0.1,0,0.1,0,0.2,0
		c0.2,0,0.4-0.1,0.6-0.3c1-1.3,1.9-2.7,2.8-4.2c1.4,1,2.8,2,4.1,3.2c0.2,0.2,0.5,0.2,0.8,0.1c0.3-0.1,0.4-0.4,0.4-0.7
		c-0.6-3.8-1.6-7.5-3.1-11.1h3.7v20.5c0,0.4,0.3,0.7,0.7,0.7c0.4,0,0.7-0.3,0.7-0.7V54.1h2.5c0.4,0,0.7-0.3,0.7-0.7v-9.3
		C125,43.7,124.7,43.4,124.3,43.4z M115.4,36.1c0.6-0.3,1.3-0.3,1.9-0.1c0.6,0.3,1.1,0.8,1.4,1.4l1.1,3c0.2,0.6,0.2,1.3-0.1,1.9
		c-0.3,0.6-0.8,1-1.5,1.2l-11.1,3v-3.3c2.5-1.5,8.7-4.7,10.2-2.5c0.2,0.3,0.7,0.4,1,0.2s0.4-0.7,0.2-1c-1.2-1.7-3.7-1.8-7.5-0.2
		c-1.5,0.6-3,1.4-3.9,1.9v-0.5c0-0.4-0.1-0.7-0.2-1L115.4,36.1z M100.5,39.9h4c0.7,0,1.3,0.6,1.3,1.3v5.7c0,0.7-0.6,1.3-1.3,1.3h-4
		c-0.7,0-1.3-0.6-1.3-1.3v-5.7C99.2,40.4,99.8,39.9,100.5,39.9z M99.3,52.8c0.7-1.1,1.4-2.2,2.2-3.2h2c0.8,1,1.5,2.1,2.2,3.2H99.3z
		 M85.2,42.3c-0.3-0.6-0.4-1.3-0.1-1.9l1.1-3c0.2-0.6,0.7-1.1,1.4-1.4c0.6-0.3,1.3-0.2,1.9,0.1l8.5,4c-0.1,0.3-0.2,0.7-0.2,1v0.6
		c-0.9-0.5-2.4-1.3-4-2c-3.8-1.5-6.3-1.4-7.5,0.2c-0.2,0.3-0.1,0.7,0.2,1c0.3,0.2,0.7,0.1,1-0.2c1.6-2.2,7.9,1,10.3,2.5v3.3l-11.1-3
		C86.1,43.4,85.5,42.9,85.2,42.3z M98.1,48.1c0.3,0.6,1,1.1,1.7,1.3c-3.3,4.5-5.5,9.8-6.5,15.2c-0.7-1.1-1.4-2.2-2.1-3.4
		c-0.1-0.2-0.3-0.3-0.4-0.3c-0.2,0-0.4,0-0.6,0.1c-1.2,0.8-2.3,1.6-3.4,2.5c1.1-5.9,3.5-11.6,6.8-16.6L98.1,48.1z M84.5,54.1h3.7
		c-1.5,3.5-2.5,7.3-3.1,11.1c0,0.3,0.1,0.6,0.4,0.7c0.3,0.1,0.6,0.1,0.8-0.1c1.3-1.2,2.7-2.2,4.1-3.2c0.8,1.5,1.8,2.9,2.8,4.2
		c0.1,0.2,0.3,0.3,0.6,0.3c0.1,0,0.1,0,0.2,0c0.3-0.1,0.5-0.3,0.5-0.6c0.6-4.2,1.9-8.3,3.9-12v23.5H84.5V54.1z M99.7,78.1V54.1h5.6
		v23.9H99.7z M114.7,61.1c-0.2-0.1-0.4-0.1-0.6-0.1c-0.2,0-0.3,0.2-0.4,0.3c-0.6,1.2-1.3,2.3-2.1,3.4c-1.1-5.5-3.3-10.7-6.5-15.2
		c0.7-0.2,1.3-0.7,1.7-1.3l4.5-1.2c3.3,5,5.7,10.7,6.8,16.6C117,62.6,115.8,61.8,114.7,61.1z M123.6,52.8h-7.5
		c-1-2.2-2.1-4.3-3.4-6.2l5.8-1.6c0.1,0,0.2,0,0.2-0.1h4.8V52.8z"/>
</g>
</svg>
