<?xml version="1.0" encoding="utf-8"?>
<!-- Generator: Adobe Illustrator 24.3.0, SVG Export Plug-In . SVG Version: 6.00 Build 0)  -->
<svg version="1.1" id="Layer_1" xmlns="http://www.w3.org/2000/svg" xmlns:xlink="http://www.w3.org/1999/xlink" x="0px" y="0px"
	 viewBox="0 0 329.2 123.9" style="enable-background:new 0 0 329.2 123.9;" xml:space="preserve">
<style type="text/css">
	.st0{fill:#575756;}
	.st1{fill:#FFFFFF;}
	.st2{fill:#595A59;}
	.st3{fill:#9E9C9E;}
</style>
<g>
	<path class="st0" d="M183.6,31.2l-16.2-0.1c-0.1,0.1-0.2,0.2-0.3,0.2l16.6,0c0.1,0,0.2,0.1,0.2,0.1l1.6-0.1v-0.2l-2.2-0.1
		C183.4,31.1,183.5,31.2,183.6,31.2 M184.7,31.8l-18.1-0.1c-0.2,0.1-0.4,0.2-0.6,0.3l19-0.1c0.2,0.1,0.4,0.2,0.7,0.2v-0.4l-1.3-0.1
		C184.4,31.7,184.6,31.8,184.7,31.8z M182.7,30.6L168,30.5c-0.1,0.1-0.1,0.2-0.2,0.2l15.1,0c0.1,0.1,0.2,0.1,0.3,0.2l2.5-0.2v-0.2
		l-3-0.1C182.6,30.5,182.7,30.5,182.7,30.6z M182,30l-13.6-0.1c0,0.1-0.1,0.2-0.1,0.2l13.9,0c0.1,0.1,0.2,0.2,0.3,0.3l3.2-0.2V30
		L182,30C182,29.9,182,29.9,182,30z M181.5,29.4l-12.8-0.1c0,0.1-0.1,0.1-0.1,0.2l13,0c0.1,0.1,0.1,0.2,0.2,0.2l3.8-0.2v-0.1
		L181.5,29.4C181.5,29.4,181.5,29.4,181.5,29.4z M181.1,28.9l-12.2-0.1c0,0.1-0.1,0.1-0.1,0.2l12.3,0c0,0.1,0.1,0.1,0.1,0.2l3.6-0.2
		h0.1l0,0l0.6,0v-0.1l-4.6-0.1C181,28.7,181.1,28.8,181.1,28.9z M180.7,28.3l-11.7-0.1c0,0.1,0,0.1-0.1,0.2l11.8,0
		c0,0.1,0.1,0.1,0.1,0.2l4-0.2l0.1,0l0,0l0.6,0v-0.1l-4.9-0.1C180.7,28.1,180.7,28.2,180.7,28.3z M180.4,27.6l-11.3-0.1
		c0,0.1,0,0.1,0,0.2l11.3,0c0,0.1,0.1,0.1,0.1,0.2l5-0.2v-0.1l-5.2-0.1C180.4,27.6,180.4,27.6,180.4,27.6z M180.2,27.1l-11-0.1
		c0,0.1,0,0.1,0,0.2c0,0,0,0,0,0l11.1,0c0,0.1,0,0.1,0.1,0.1l5.3-0.2v-0.1l-5.4-0.2C180.2,27,180.2,27,180.2,27.1z M180,26.4
		l-10.9,0c0,0.1,0,0.1,0,0.2l10.9,0c0,0.1,0,0.1,0.1,0.2l5.5-0.2v-0.1l-5.6-0.2C180,26.3,180,26.4,180,26.4z M179.8,25.8l-10.9,0
		c0,0.1,0,0.1,0.1,0.2l10.8,0c0,0.1,0,0.1,0,0.2l5.7-0.2v-0.1l-5.8-0.2C179.8,25.7,179.8,25.8,179.8,25.8z M179.7,24.1L168.1,24
		c0.1,0.1,0.1,0.1,0.2,0.2l11.4,0c0,0.1,0,0.1,0,0.2l5.9-0.2v-0.2L179.7,24.1C179.7,24,179.7,24,179.7,24.1z M167.7,23.7l12,0
		c0,0,0,0.1,0,0.1l5.3-0.1h0l0.6,0v-0.2l-5.9-0.1c0,0.1,0,0.1,0,0.2l-11.9-0.1L167.7,23.7z M179.8,22.9l-11.7-0.1
		c0,0.1-0.1,0.2-0.1,0.2l11.8,0c0,0.1,0,0.1,0,0.2l5.8-0.1v-0.2l-5.8-0.1C179.8,22.8,179.8,22.8,179.8,22.9z M180,21.7l-11.8-0.1
		c0,0.1,0,0.1,0,0.2l11.7,0c0,0.1,0,0.1-0.1,0.2l5.6-0.1v-0.1l-5.5-0.2C180.1,21.6,180.1,21.7,180,21.7z M180.2,21.1L168.3,21
		c0,0.1,0,0.2,0,0.3l11.9,0c0,0,0,0.1,0,0.1l5.4-0.1v-0.1l-5.3-0.2C180.3,21,180.3,21.1,180.2,21.1z M180.5,20.5l-12.3-0.1
		c0,0.1,0,0.2,0,0.3l12.2,0c0,0,0,0.1-0.1,0.1l5.2-0.1v-0.2l-5-0.1C180.6,20.4,180.5,20.5,180.5,20.5z M180.9,19.9l-12.8-0.1
		c0,0.1,0,0.2,0.1,0.3l12.6,0c0,0.1-0.1,0.1-0.1,0.2l4.9-0.1v-0.2l-4.7-0.1C180.9,19.8,180.9,19.9,180.9,19.9z M181.2,19.3
		l-13.3-0.1c0,0.1,0.1,0.2,0.1,0.3l13.1,0c0,0-0.1,0.1-0.1,0.1l4.5-0.1v-0.2l-4.3-0.1C181.3,19.2,181.3,19.3,181.2,19.3z
		 M181.7,18.7l-14.2-0.1c0.1,0.1,0.1,0.2,0.2,0.3l13.9,0c0,0-0.1,0.1-0.1,0.1l4.1-0.1v-0.2l-3.7-0.1
		C181.8,18.6,181.8,18.7,181.7,18.7z M182.3,18.1L167.1,18c0.1,0.1,0.1,0.2,0.2,0.3l14.8,0c0,0-0.1,0.1-0.1,0.1l3.6-0.1v-0.2
		l-3.2-0.1C182.4,18,182.3,18.1,182.3,18.1z M183,17.6l-16.4-0.1c0.1,0.1,0.2,0.2,0.3,0.3l16,0c0,0-0.1,0.1-0.1,0.1l2.9-0.1v-0.2
		l-2.5-0.1C183,17.5,183,17.5,183,17.6z M183.8,17l-18.2-0.1c0.2,0.1,0.3,0.2,0.5,0.3l17.5,0c-0.1,0-0.1,0.1-0.2,0.1l2.1,0V17
		l-1.6-0.1C183.9,16.9,183.9,16.9,183.8,17z M185.1,16.4l-21.5-0.2l0,0c0.5,0,1,0.1,1.4,0.3l19.8-0.1c-0.2,0.1-0.4,0.2-0.5,0.2
		l1.3,0v-0.5C185.4,16.3,185.2,16.3,185.1,16.4z M185,22.3l-0.4,0l-4.7-0.1c0,0,0,0.1,0,0.1l-11.7-0.1c0,0.1,0,0.2-0.1,0.2l11.7,0
		c0,0.1,0,0.1,0,0.2l5.8-0.1v-0.1L185,22.3L185,22.3z M185,25.2l-0.5,0l-4.8-0.1c0,0,0,0.1,0,0.1l-11,0c0,0.1,0.1,0.1,0.1,0.2
		l10.9,0c0,0.1,0,0.2,0,0.2l5.8-0.2v-0.1L185,25.2L185,25.2z M185,24.7l-0.9,0l-4.4-0.1c0,0,0,0.1,0,0.1l-11.2-0.1
		c0,0.1,0.1,0.1,0.1,0.2l11.1,0c0,0.1,0,0.1,0,0.2l5.9-0.2v-0.1L185,24.7L185,24.7z"/>
	<path class="st0" d="M183.7,31.3c0.1,0,0.2,0.1,0.2,0.1l1.6-0.1v-0.2l-2.2-0.1c0.1,0,0.1,0.1,0.2,0.1L183.7,31.3 M184.9,31.9
		c0.2,0.1,0.4,0.2,0.7,0.2v-0.4l-1.3-0.1c0.1,0.1,0.2,0.1,0.4,0.2L184.9,31.9z M182.8,30.7c0.1,0.1,0.2,0.1,0.3,0.2l2.5-0.2v-0.2
		l-3-0.1c0,0,0.1,0.1,0.1,0.1L182.8,30.7z M182.2,30.1c0.1,0.1,0.2,0.2,0.3,0.3l3.2-0.2V30l-3.6-0.1c0,0,0,0,0.1,0.1L182.2,30.1z
		 M181.6,29.5c0.1,0.1,0.1,0.2,0.2,0.2l3.8-0.2v-0.1l-4.1-0.1c0,0,0,0.1,0.1,0.1L181.6,29.5z M181.2,29c0,0.1,0.1,0.1,0.1,0.2
		l3.6-0.2h0.1l0,0l0.6,0v-0.1l-4.6-0.1c0,0.1,0.1,0.1,0.1,0.2L181.2,29z M180.8,28.4c0,0.1,0.1,0.1,0.1,0.2l4-0.2l0.1,0l0,0l0.6,0
		v-0.1l-4.9-0.1c0,0.1,0.1,0.1,0.1,0.2L180.8,28.4z M180.5,27.8c0,0.1,0.1,0.1,0.1,0.2l5-0.2v-0.1l-5.2-0.1c0,0,0,0.1,0.1,0.1
		L180.5,27.8z M180.2,27.2c0,0.1,0,0.1,0.1,0.1l5.3-0.2v-0.1l-5.4-0.2c0,0.1,0,0.1,0.1,0.2L180.2,27.2z M180,26.6
		c0,0.1,0,0.1,0.1,0.2l5.5-0.2v-0.1l-5.6-0.2c0,0.1,0,0.1,0,0.2L180,26.6z M179.9,26c0,0.1,0,0.1,0,0.2l5.7-0.2v-0.1l-5.8-0.2
		c0,0.1,0,0.1,0,0.2L179.9,26z M179.7,24.2c0,0.1,0,0.1,0,0.2l5.9-0.2v-0.2l-5.9-0.1c0,0,0,0.1,0,0.1L179.7,24.2z M179.7,23.7
		c0,0,0,0.1,0,0.1l5.3-0.1h0l0.6,0v-0.2l-5.9-0.1c0,0.1,0,0.1,0,0.2L179.7,23.7z M179.8,23c0,0.1,0,0.1,0,0.2l5.8-0.1v-0.2l-5.8-0.1
		c0,0,0,0.1,0,0.1L179.8,23z M180,21.8c0,0.1,0,0.1-0.1,0.2l5.6-0.1v-0.1l-5.5-0.2c0,0,0,0.1,0,0.1L180,21.8z M180.2,21.3
		c0,0,0,0.1,0,0.1l5.4-0.1v-0.1l-5.3-0.2c0,0.1,0,0.1-0.1,0.2L180.2,21.3z M180.4,20.7c0,0,0,0.1-0.1,0.1l5.2-0.1v-0.2l-5-0.1
		c0,0.1-0.1,0.1-0.1,0.2L180.4,20.7z M180.8,20.1c0,0.1-0.1,0.1-0.1,0.2l4.9-0.1v-0.2l-4.7-0.1c0,0,0,0.1-0.1,0.1L180.8,20.1z
		 M181.1,19.5c0,0-0.1,0.1-0.1,0.1l4.5-0.1v-0.2l-4.3-0.1c0,0-0.1,0.1-0.1,0.1L181.1,19.5z M181.6,18.9
		C181.6,18.9,181.5,18.9,181.6,18.9l4,0v-0.2l-3.7-0.1c0,0-0.1,0.1-0.1,0.1L181.6,18.9z M182.2,18.2c0,0-0.1,0.1-0.1,0.1l3.6-0.1
		v-0.2l-3.2-0.1c0,0-0.1,0.1-0.1,0.1L182.2,18.2z M182.8,17.7c0,0-0.1,0.1-0.1,0.1l2.9-0.1v-0.2l-2.5-0.1c0,0-0.1,0.1-0.1,0.1
		L182.8,17.7z M183.6,17.1c-0.1,0-0.1,0.1-0.2,0.1l2.1,0V17l-1.6-0.1c-0.1,0-0.1,0.1-0.2,0.1L183.6,17.1z M184.8,16.5
		c-0.2,0.1-0.4,0.2-0.5,0.2l1.3,0v-0.5c-0.2,0.1-0.4,0.1-0.5,0.2L184.8,16.5z M179.9,22.4c0,0.1,0,0.1,0,0.2l5.8-0.1v-0.1l-0.6,0
		l0,0l-0.4,0l-4.7-0.1c0,0,0,0.1,0,0.1 M179.8,25.4c0,0.1,0,0.2,0,0.2l5.8-0.2v-0.1l-0.6,0l0,0l-0.5,0l-4.8-0.1c0,0,0,0.1,0,0.1
		L179.8,25.4z M179.7,24.8c0,0.1,0,0.1,0,0.2l5.9-0.2v-0.1l-0.6,0l0,0l-0.9,0l-4.4-0.1c0,0,0,0.1,0,0.1L179.7,24.8z"/>
	<g>
		<path class="st0" d="M148.6,34.2c0.2,0,0.4,0,0.6,0c0.4,0,0.6,0.1,0.8,0.2c0.2,0.1,0.3,0.3,0.3,0.6c0,0.3-0.1,0.5-0.3,0.6
			c-0.2,0.1-0.5,0.2-0.9,0.2c-0.2,0-0.3,0-0.5,0V34.2z M148.9,35.5c0.1,0,0.2,0,0.3,0c0.6,0,0.9-0.2,0.9-0.7c0-0.4-0.3-0.6-0.8-0.6
			c-0.1,0-0.2,0-0.3,0V35.5z"/>
		<path class="st0" d="M151,34.3c0,0.1-0.1,0.1-0.2,0.1c-0.1,0-0.2-0.1-0.2-0.1c0-0.1,0.1-0.1,0.2-0.1C150.9,34.2,151,34.2,151,34.3
			z M150.7,35.7v-1.1h0.3v1.1H150.7z"/>
		<path class="st0" d="M151.4,35.5c0.1,0,0.2,0.1,0.4,0.1c0.2,0,0.3-0.1,0.3-0.2c0-0.1-0.1-0.1-0.3-0.2c-0.3-0.1-0.4-0.2-0.4-0.3
			c0-0.2,0.2-0.3,0.5-0.3c0.1,0,0.3,0,0.4,0.1l-0.1,0.1c-0.1,0-0.2-0.1-0.3-0.1c-0.2,0-0.2,0.1-0.2,0.2c0,0.1,0.1,0.1,0.3,0.2
			c0.3,0.1,0.4,0.2,0.4,0.3c0,0.2-0.2,0.3-0.5,0.3c-0.2,0-0.3,0-0.4-0.1L151.4,35.5z"/>
		<path class="st0" d="M153,34.3v0.3h0.4v0.2H153v0.6c0,0.1,0.1,0.2,0.2,0.2c0.1,0,0.1,0,0.2,0l0,0.2c-0.1,0-0.1,0-0.2,0
			c-0.1,0-0.2,0-0.3-0.1c-0.1-0.1-0.1-0.2-0.1-0.3v-0.6h-0.2v-0.2h0.2v-0.3L153,34.3z"/>
		<path class="st0" d="M153.8,34.9c0-0.1,0-0.2,0-0.3h0.2l0,0.2h0c0.1-0.1,0.2-0.2,0.4-0.2c0,0,0.1,0,0.1,0v0.2c0,0-0.1,0-0.1,0
			c-0.2,0-0.3,0.1-0.4,0.3c0,0,0,0.1,0,0.1v0.6h-0.3V34.9z"/>
		<path class="st0" d="M155.1,34.3c0,0.1-0.1,0.1-0.2,0.1c-0.1,0-0.2-0.1-0.2-0.1c0-0.1,0.1-0.1,0.2-0.1
			C155.1,34.2,155.1,34.2,155.1,34.3z M154.8,35.7v-1.1h0.3v1.1H154.8z"/>
		<path class="st0" d="M155.6,35.7c0-0.1,0-0.2,0-0.3v-1.3h0.3v0.7h0c0.1-0.1,0.3-0.2,0.5-0.2c0.4,0,0.6,0.2,0.6,0.6
			c0,0.4-0.3,0.6-0.7,0.6c-0.2,0-0.4-0.1-0.5-0.2h0l0,0.2H155.6z M155.8,35.3C155.8,35.3,155.9,35.3,155.8,35.3
			c0.1,0.2,0.2,0.3,0.4,0.3c0.3,0,0.4-0.2,0.4-0.4c0-0.2-0.2-0.4-0.4-0.4c-0.2,0-0.4,0.1-0.4,0.2c0,0,0,0.1,0,0.1V35.3z"/>
		<path class="st0" d="M158.6,35.4c0,0.1,0,0.2,0,0.3h-0.2l0-0.2h0c-0.1,0.1-0.2,0.2-0.5,0.2c-0.2,0-0.5-0.1-0.5-0.5v-0.7h0.3v0.6
			c0,0.2,0.1,0.4,0.3,0.4c0.2,0,0.3-0.1,0.4-0.2c0,0,0-0.1,0-0.1v-0.7h0.3V35.4z"/>
		<path class="st0" d="M159.4,34.3c0,0.1-0.1,0.1-0.2,0.1c-0.1,0-0.2-0.1-0.2-0.1c0-0.1,0.1-0.1,0.2-0.1
			C159.3,34.2,159.4,34.2,159.4,34.3z M159.1,35.7v-1.1h0.3v1.1H159.1z"/>
		<path class="st0" d="M161.1,34.1v1.3c0,0.1,0,0.2,0,0.3h-0.2l0-0.2h0c-0.1,0.1-0.3,0.2-0.5,0.2c-0.4,0-0.6-0.2-0.6-0.6
			c0-0.4,0.3-0.6,0.7-0.6c0.2,0,0.4,0.1,0.4,0.2h0v-0.7H161.1z M160.8,35C160.8,35,160.8,35,160.8,35c-0.1-0.2-0.2-0.3-0.4-0.3
			c-0.3,0-0.4,0.2-0.4,0.4c0,0.2,0.1,0.4,0.4,0.4c0.2,0,0.3-0.1,0.4-0.2c0,0,0-0.1,0-0.1V35z"/>
		<path class="st0" d="M162.9,35.1c0,0.4-0.4,0.6-0.7,0.6c-0.4,0-0.7-0.2-0.7-0.6c0-0.4,0.3-0.6,0.7-0.6
			C162.7,34.6,162.9,34.8,162.9,35.1z M161.8,35.2c0,0.2,0.2,0.4,0.4,0.4c0.3,0,0.4-0.2,0.4-0.4c0-0.2-0.1-0.4-0.4-0.4
			C161.9,34.7,161.8,34.9,161.8,35.2z"/>
		<path class="st0" d="M163.3,34.9c0-0.1,0-0.2,0-0.3h0.2l0,0.2h0c0.1-0.1,0.2-0.2,0.4-0.2c0,0,0.1,0,0.1,0v0.2c0,0-0.1,0-0.1,0
			c-0.2,0-0.3,0.1-0.4,0.3c0,0,0,0.1,0,0.1v0.6h-0.3V34.9z"/>
		<path class="st0" d="M165.2,35.7l0-0.1h0c-0.1,0.1-0.2,0.2-0.4,0.2c-0.3,0-0.4-0.2-0.4-0.3c0-0.3,0.3-0.4,0.9-0.4v0
			c0-0.1,0-0.3-0.3-0.3c-0.1,0-0.3,0-0.4,0.1l-0.1-0.1c0.1-0.1,0.3-0.1,0.5-0.1c0.4,0,0.6,0.2,0.6,0.5v0.4c0,0.1,0,0.2,0,0.3H165.2z
			 M165.1,35.1c-0.3,0-0.6,0-0.6,0.3c0,0.1,0.1,0.2,0.3,0.2c0.2,0,0.3-0.1,0.4-0.2c0,0,0,0,0-0.1V35.1z"/>
		<path class="st0" d="M166.9,35.2l-0.2,0.5h-0.3l0.7-1.6h0.3l0.7,1.6h-0.3l-0.2-0.5H166.9z M167.6,35.1l-0.2-0.4
			c0-0.1-0.1-0.2-0.1-0.3h0c0,0.1-0.1,0.2-0.1,0.3l-0.2,0.4H167.6z"/>
		<path class="st0" d="M168.5,34.9c0-0.1,0-0.2,0-0.3h0.2l0,0.2h0c0.1-0.1,0.2-0.2,0.4-0.2c0,0,0.1,0,0.1,0v0.2c0,0-0.1,0-0.1,0
			c-0.2,0-0.3,0.1-0.4,0.3c0,0,0,0.1,0,0.1v0.6h-0.3V34.9z"/>
		<path class="st0" d="M170.8,34.6c0,0.1,0,0.2,0,0.3v0.6c0,0.3-0.1,0.4-0.2,0.5c-0.1,0.1-0.3,0.1-0.5,0.1c-0.2,0-0.4,0-0.5-0.1
			l0.1-0.2c0.1,0,0.2,0.1,0.4,0.1c0.3,0,0.5-0.1,0.5-0.4v-0.1h0c-0.1,0.1-0.2,0.2-0.5,0.2c-0.4,0-0.6-0.2-0.6-0.5
			c0-0.4,0.3-0.6,0.7-0.6c0.3,0,0.4,0.1,0.5,0.2h0l0-0.2H170.8z M170.5,35C170.5,35,170.5,35,170.5,35c-0.1-0.2-0.2-0.3-0.4-0.3
			c-0.3,0-0.4,0.2-0.4,0.4c0,0.2,0.1,0.4,0.4,0.4c0.2,0,0.3-0.1,0.4-0.2c0,0,0-0.1,0-0.1V35z"/>
		<path class="st0" d="M171.4,35.2c0,0.3,0.2,0.4,0.5,0.4c0.2,0,0.3,0,0.4-0.1l0,0.1c-0.1,0-0.3,0.1-0.5,0.1c-0.5,0-0.7-0.2-0.7-0.6
			c0-0.3,0.3-0.6,0.7-0.6c0.5,0,0.6,0.3,0.6,0.5c0,0,0,0.1,0,0.1H171.4z M172.2,35c0-0.1-0.1-0.3-0.4-0.3c-0.3,0-0.4,0.2-0.4,0.3
			H172.2z"/>
		<path class="st0" d="M172.9,34.9c0-0.1,0-0.2,0-0.3h0.2l0,0.2h0c0.1-0.1,0.2-0.2,0.5-0.2c0.2,0,0.5,0.1,0.5,0.5v0.7h-0.3v-0.6
			c0-0.2-0.1-0.3-0.3-0.3c-0.2,0-0.3,0.1-0.4,0.2c0,0,0,0.1,0,0.1v0.7h-0.3V34.9z"/>
		<path class="st0" d="M174.9,34.3v0.3h0.4v0.2h-0.4v0.6c0,0.1,0.1,0.2,0.2,0.2c0.1,0,0.1,0,0.2,0l0,0.2c-0.1,0-0.1,0-0.2,0
			c-0.1,0-0.2,0-0.3-0.1c-0.1-0.1-0.1-0.2-0.1-0.3v-0.6h-0.2v-0.2h0.2v-0.3L174.9,34.3z"/>
		<path class="st0" d="M175.9,34.3c0,0.1-0.1,0.1-0.2,0.1c-0.1,0-0.2-0.1-0.2-0.1c0-0.1,0.1-0.1,0.2-0.1
			C175.9,34.2,175.9,34.2,175.9,34.3z M175.7,35.7v-1.1h0.3v1.1H175.7z"/>
		<path class="st0" d="M176.4,34.9c0-0.1,0-0.2,0-0.3h0.2l0,0.2h0c0.1-0.1,0.2-0.2,0.5-0.2c0.2,0,0.5,0.1,0.5,0.5v0.7h-0.3v-0.6
			c0-0.2-0.1-0.3-0.3-0.3c-0.2,0-0.3,0.1-0.4,0.2c0,0,0,0.1,0,0.1v0.7h-0.3V34.9z"/>
		<path class="st0" d="M179,35.7l0-0.1h0c-0.1,0.1-0.2,0.2-0.4,0.2c-0.3,0-0.4-0.2-0.4-0.3c0-0.3,0.3-0.4,0.9-0.4v0
			c0-0.1,0-0.3-0.3-0.3c-0.1,0-0.3,0-0.4,0.1l-0.1-0.1c0.1-0.1,0.3-0.1,0.5-0.1c0.4,0,0.6,0.2,0.6,0.5v0.4c0,0.1,0,0.2,0,0.3H179z
			 M178.9,35.1c-0.3,0-0.6,0-0.6,0.3c0,0.1,0.1,0.2,0.3,0.2c0.2,0,0.3-0.1,0.4-0.2c0,0,0,0,0-0.1V35.1z"/>
		<path class="st0" d="M180.3,35.5c0.1,0.1,0.3,0.1,0.5,0.1c0.3,0,0.4-0.1,0.4-0.3c0-0.1-0.1-0.2-0.4-0.3c-0.3-0.1-0.5-0.2-0.5-0.4
			c0-0.2,0.3-0.4,0.7-0.4c0.2,0,0.4,0,0.5,0.1l-0.1,0.2c-0.1,0-0.2-0.1-0.4-0.1c-0.3,0-0.4,0.1-0.4,0.2c0,0.1,0.1,0.2,0.4,0.3
			c0.3,0.1,0.5,0.2,0.5,0.5c0,0.2-0.2,0.4-0.7,0.4c-0.2,0-0.4,0-0.5-0.1L180.3,35.5z"/>
		<path class="st0" d="M181.8,35.6c0-0.1,0.1-0.1,0.2-0.1c0.1,0,0.2,0.1,0.2,0.1c0,0.1-0.1,0.1-0.2,0.1
			C181.9,35.7,181.8,35.7,181.8,35.6z"/>
		<path class="st0" d="M182.9,35.2l-0.2,0.5h-0.3l0.7-1.6h0.3l0.7,1.6h-0.3l-0.2-0.5H182.9z M183.6,35.1l-0.2-0.4
			c0-0.1-0.1-0.2-0.1-0.3h0c0,0.1-0.1,0.2-0.1,0.3l-0.2,0.4H183.6z"/>
		<path class="st0" d="M184.4,35.6c0-0.1,0.1-0.1,0.2-0.1c0.1,0,0.2,0.1,0.2,0.1c0,0.1-0.1,0.1-0.2,0.1
			C184.5,35.7,184.4,35.7,184.4,35.6z"/>
	</g>
	<rect x="148.4" y="36.8" class="st0" width="37.2" height="0.6"/>
	<rect x="148.4" y="32.7" class="st0" width="37.2" height="0.6"/>
	<path class="st0" d="M161.5,24.8c0,0.4,0.3,0.3,0.7,0.3c0.6,0,2.9-0.2,2.9,2.1c0,2.1-2.7,1.8-3.2,1.8c-0.3,0-0.5,0.2-0.5,0.6
		c0,0.4,0,1.6,0,2c0,0.4,0.2,0.5,0.4,0.5c0.6,0,1.8,0,2.2,0c1.2,0,4.1-1.4,4.1-4.6c0-2.7-1.5-3.9-1.5-3.9s1.2-2.7,0.1-4.8
		c-1.1-2-3.8-2.7-4.7-2.7c-0.6,0-2.1,0-2.1,0H158c-0.2,0-0.5,0.2-0.5,0.4v15.1c0,0.2,0.2,0.5,0.5,0.5h2.2c0.2,0,0.5-0.2,0.5-0.5v-12
		c0,0,0.6-0.4,1.5-0.4c0.9,0,1.8,0.6,1.8,1.6c0,1-0.8,1.6-1.9,1.6c-0.2,0-0.4,0-0.4,0.3L161.5,24.8"/>
	<path class="st0" d="M152.7,16.2c-1.4,0-3.8,0-3.8,0c-0.3,0-0.5,0.2-0.5,0.5v15c0,0.3,0.2,0.5,0.5,0.5c0,0,1.1,0,3.4,0
		s4.4-2.2,4.4-4.3v-7.4C156.7,17.9,154.1,16.2,152.7,16.2 M153.8,27.6c0,1-0.9,1.5-1.4,1.5c-0.4,0-0.8,0-0.8,0
		c-0.2,0-0.5-0.2-0.5-0.5v-8.8c0-0.2,0.2-0.5,0.5-0.5c0,0,0.5,0,0.8,0c0.3,0,1.3,0.4,1.3,1.5V27.6z"/>
</g>
<g>
	<path class="st0" d="M289.8,39.1c-0.4,0-0.8,0-1.2,0c-0.1,0-0.1-0.1-0.2-0.2c-0.2-0.3-0.4-0.6-0.6-0.9c-0.1-0.1-0.4-0.2-0.5-0.1
		c-0.1,0-0.1,0.1-0.1,0.2c0,0.3,0,0.5,0,0.8c0,0.1,0,0.2-0.2,0.2c-0.2,0-0.5,0-0.7,0c-0.1,0-0.2-0.1-0.2-0.2c0-1.2,0-2.5,0-3.7
		c0-0.1,0.1-0.2,0.2-0.2c0.7,0,1.4,0,2.2,0.1c1.1,0.1,1.6,1.3,0.9,2.1c-0.1,0.1-0.2,0.2-0.4,0.3c-0.1,0.1-0.2,0.2-0.1,0.3
		c0.2,0.3,0.5,0.7,0.7,1C289.7,38.9,289.7,39,289.8,39.1z M287.7,37c0.2,0,0.3,0,0.5,0c0.3,0,0.4-0.2,0.4-0.5c0-0.2-0.2-0.4-0.4-0.4
		c-0.2,0-0.3,0-0.5,0c-0.5,0-0.5,0-0.5,0.5C287.2,37,287.1,37,287.7,37z"/>
	<path class="st0" d="M297.8,39.1c-0.4,0-0.8,0-1.2,0c-0.1,0-0.1-0.1-0.2-0.2c-0.2-0.3-0.4-0.6-0.6-0.9c-0.1-0.1-0.4-0.2-0.5-0.1
		c0,0-0.1,0.1-0.1,0.2c0,0.3,0,0.5,0,0.8c0,0.2,0,0.2-0.2,0.2c-0.2,0-0.5,0-0.7,0c-0.1,0-0.2-0.1-0.2-0.2c0-1.2,0-2.4,0-3.7
		c0-0.2,0.1-0.2,0.2-0.2c0.7,0,1.4,0,2.1,0.1c1.1,0.1,1.6,1.3,1,2.1c-0.1,0.1-0.2,0.3-0.4,0.4c-0.2,0.1-0.2,0.2-0.1,0.3
		c0.2,0.3,0.4,0.6,0.6,0.9C297.7,38.8,297.7,38.9,297.8,39.1z M295.7,37c0.2,0,0.3,0,0.5,0c0.3,0,0.4-0.2,0.4-0.5
		c0-0.2-0.2-0.4-0.4-0.5c-0.1,0-0.3,0-0.4,0c-0.5,0-0.5,0-0.5,0.5C295.2,37,295.2,37,295.7,37z"/>
	<path class="st0" d="M285.5,39.1c-0.4,0-0.8,0-1.2,0c-0.1,0-0.1-0.1-0.2-0.2c-0.2-0.3-0.4-0.6-0.6-0.9c-0.1-0.2-0.4-0.2-0.5-0.2
		c-0.1,0-0.1,0.1-0.1,0.2c0,0.3,0,0.6,0,0.8c0,0.1-0.1,0.2-0.2,0.2c-0.2,0-0.5,0-0.7,0c-0.1,0-0.2-0.1-0.2-0.2c0-1.2,0-2.4,0-3.7
		c0-0.1,0-0.2,0.2-0.2c0.7,0,1.5,0,2.2,0.1c1,0.1,1.5,1.3,0.9,2.1c-0.1,0.1-0.3,0.3-0.4,0.4c-0.2,0.1-0.2,0.2-0.1,0.3
		c0.2,0.3,0.5,0.7,0.7,1C285.5,38.9,285.5,39,285.5,39.1z M283.5,36C283.5,36,283.5,36,283.5,36c-0.1,0-0.2,0-0.3,0
		c-0.2,0-0.3,0.1-0.3,0.3c0,0.2,0,0.3,0,0.5c0,0.1,0.1,0.2,0.2,0.2c0.3,0,0.5,0,0.8,0c0.3,0,0.4-0.2,0.4-0.5c0-0.2-0.2-0.4-0.4-0.5
		C283.8,36,283.6,36,283.5,36z"/>
	<path class="st0" d="M290.2,37.1c0-0.6,0-1.2,0-1.8c0-0.2,0.1-0.3,0.3-0.3c0.9,0,1.8,0,2.7,0c0.2,0,0.3,0.1,0.3,0.3
		c0,0.7,0,0.7-0.7,0.7c-0.4,0-0.8,0-1.2,0c-0.3,0-0.2,0.1-0.2,0.3c0,0.2,0,0.3,0.2,0.3c0.5,0,1,0,1.4,0c0.2,0,0.3,0,0.3,0.3
		c0,0.7,0.1,0.6-0.6,0.6c-0.4,0-0.7,0-1.1,0c-0.3,0-0.2,0.2-0.2,0.3c0,0.2,0,0.3,0.3,0.3c0.6,0,1.1,0,1.7,0c0.2,0,0.3,0.1,0.3,0.3
		c0,0.7,0,0.7-0.7,0.7c-0.8,0-1.5,0-2.3,0c-0.3,0-0.3,0-0.3-0.3C290.2,38.2,290.2,37.6,290.2,37.1z"/>
	<path class="st0" d="M276.9,39.1c0-0.1,0-0.2,0.1-0.2c0.5-1.2,1-2.4,1.5-3.6c0.1-0.2,0.2-0.3,0.4-0.2c0.9,0,0.7-0.2,1.1,0.7
		c0.5,1,0.9,2.1,1.3,3.1c0,0.1,0.1,0.1,0.1,0.3c-0.4,0-0.7,0-1.1,0c-0.1,0-0.1-0.1-0.2-0.2c-0.3-0.6-0.1-0.5-0.7-0.5
		c-0.3,0-0.6,0-0.9,0c-0.2,0-0.3,0-0.3,0.2c-0.1,0.5-0.4,0.6-0.8,0.5C277.3,39,277.1,39.1,276.9,39.1z M279.2,36.4c0,0-0.1,0-0.1,0
		c-0.1,0.3-0.3,0.7-0.4,1.1c0.3,0,0.5,0,0.7,0c0.1,0,0.2-0.1,0.1-0.2C279.4,37,279.3,36.7,279.2,36.4z"/>
	<path class="st0" d="M302.4,39.1c-0.4,0-0.7,0-1.1,0c-0.1,0-0.2-0.1-0.2-0.2c-0.3-0.6-0.1-0.5-0.8-0.5c-0.3,0-0.6,0-0.8,0
		c-0.1,0-0.2,0-0.3,0.2c-0.1,0.5-0.4,0.6-0.9,0.5c-0.1,0-0.3,0-0.5,0c0-0.1,0-0.2,0.1-0.2c0.5-1.2,1-2.4,1.5-3.6
		c0.1-0.2,0.2-0.3,0.4-0.3c0.7,0,0.7,0,1,0.7c0.5,1.1,0.9,2.2,1.4,3.3C302.4,38.9,302.4,39,302.4,39.1z M300.2,36.4c0,0-0.1,0-0.1,0
		c-0.1,0.3-0.2,0.6-0.4,1c0,0,0.1,0.1,0.1,0.1c0.2,0,0.3,0,0.5,0c0.2,0,0.2-0.1,0.1-0.2C300.4,37,300.3,36.7,300.2,36.4z"/>
	<path class="st0" d="M275,34.9c0.6,0,1.1,0.2,1.5,0.6c0.1,0.1,0.1,0.2,0,0.3c-0.1,0-0.1,0.1-0.2,0.1c-0.1,0.1-0.3,0.3-0.4,0.3
		c-0.1,0-0.3-0.2-0.4-0.2c-0.4-0.2-0.8-0.2-1.1,0c-0.4,0.3-0.5,0.7-0.4,1.1c0.1,0.4,0.3,0.7,0.7,0.8c0.4,0.1,0.7,0,1-0.3
		c0.1-0.1,0.2-0.1,0.4,0c0.1,0.1,0.3,0.2,0.4,0.3c0.2,0.1,0.2,0.2,0,0.3c-0.5,0.6-1.1,0.8-1.9,0.7c-0.8-0.1-1.4-0.6-1.7-1.4
		C272.5,36.3,273.5,34.9,275,34.9z"/>
	<path class="st0" d="M283.6,41.4c0.1-0.2,0.2-0.4,0.3-0.5c0.1-0.2,0.3-0.3,0.6-0.2c0.1,0,0.1,0.1,0.1,0.2c0,0.5,0,1.1,0,1.6
		c0,0.2-0.2,0.2-0.3,0.2c-0.1,0-0.2,0-0.2-0.2c0-0.3,0-0.5,0-0.8c0,0,0,0-0.1,0c-0.2,0.2-0.3,0.4-0.5,0.6c-0.2-0.2-0.3-0.4-0.4-0.6
		c0,0-0.1,0-0.1,0c0,0.2,0,0.5,0,0.7c0,0.2-0.1,0.3-0.3,0.3c-0.2,0-0.2-0.1-0.2-0.2c0-0.5,0-0.9,0-1.4c0-0.1,0.1-0.3,0.1-0.3
		c0.2,0,0.4-0.1,0.5,0.1C283.4,40.9,283.5,41.1,283.6,41.4z"/>
	<path class="st0" d="M274.4,41.5c0-0.2,0-0.4,0-0.6c0-0.2,0-0.3,0.3-0.3c0.2,0,0.3,0.1,0.3,0.3c0,0.5,0,0.9,0,1.4
		c0,0.1,0,0.3-0.1,0.3c-0.2,0.1-0.3,0.1-0.5-0.1c-0.2-0.2-0.3-0.4-0.5-0.6c-0.1-0.1-0.1-0.1-0.2-0.2c0,0-0.1,0-0.1,0
		c0,0.2,0,0.5,0,0.7c0,0.2-0.1,0.3-0.3,0.3c-0.2,0-0.3-0.1-0.2-0.3c0-0.5,0-0.9,0-1.4c0-0.1,0.1-0.3,0.1-0.3c0.2,0,0.4,0,0.5,0.1
		c0.2,0.2,0.4,0.4,0.5,0.7C274.2,41.4,274.2,41.5,274.4,41.5C274.3,41.5,274.3,41.5,274.4,41.5z"/>
	<path class="st0" d="M298.4,42.6c-0.6,0-1.1-0.5-1-1c0-0.5,0.5-1,1-1c0.6,0,1.1,0.5,1,1C299.4,42.2,299,42.6,298.4,42.6z
		 M298.9,41.6c0-0.3-0.2-0.5-0.5-0.5c-0.3,0-0.5,0.2-0.5,0.5c0,0.3,0.2,0.5,0.5,0.5C298.7,42.1,298.9,41.9,298.9,41.6z"/>
	<path class="st0" d="M276.3,41.6c0-0.3,0-0.5,0-0.8c0-0.2,0.1-0.2,0.2-0.2c0.4,0,0.8,0,1.1,0c0.2,0,0.2,0.1,0.2,0.2
		c0,0.2,0,0.2-0.2,0.2c-0.2,0-0.4,0-0.7,0c-0.1,0-0.1,0.1-0.2,0.1c0.1,0.1,0.1,0.1,0.2,0.1c0.2,0,0.4,0,0.6,0c0.2,0,0.2,0.1,0.2,0.2
		c0,0.1,0,0.2-0.2,0.2c-0.2,0-0.4,0-0.6,0c-0.1,0-0.1,0.1-0.2,0.2c0.1,0.1,0.1,0.1,0.2,0.1c0.2,0,0.4,0,0.6,0c0.2,0,0.2,0.1,0.2,0.2
		c0,0.2-0.1,0.2-0.2,0.2c-0.4,0-0.7,0-1.1,0c-0.2,0-0.2-0.1-0.2-0.2C276.3,42.1,276.3,41.8,276.3,41.6z"/>
	<path class="st0" d="M279.3,41.3c0-0.2,0-0.4,0-0.5c0-0.2,0.1-0.2,0.3-0.2c0.1,0,0.3,0,0.3,0.2c0,0.3,0,0.6,0,0.9
		c0,0.3,0.1,0.4,0.4,0.4c0.3,0,0.4-0.1,0.4-0.5c0-0.3,0-0.6,0-0.9c0-0.2,0.1-0.2,0.3-0.2c0.1,0,0.3,0,0.3,0.2c0,0.3,0,0.7,0,1
		c0,0.5-0.4,0.8-0.9,0.8c-0.5,0-0.8-0.3-0.9-0.8C279.3,41.7,279.3,41.5,279.3,41.3C279.3,41.3,279.3,41.3,279.3,41.3z"/>
	<path class="st0" d="M286,42.5c0.1-0.3,0.2-0.5,0.3-0.8c0.1-0.3,0.3-0.7,0.4-1c0-0.1,0.2-0.1,0.3-0.1c0.1,0,0.3,0.1,0.3,0.1
		c0.3,0.6,0.5,1.1,0.7,1.7c0,0,0,0.1,0,0.1c-0.4,0.1-0.4,0.1-0.6-0.2c0-0.1-0.1-0.1-0.2-0.1c-0.1,0-0.3,0-0.4,0
		c-0.1,0-0.2,0.1-0.2,0.1C286.5,42.7,286.2,42.6,286,42.5z M287.1,41.3C287,41.3,287,41.3,287.1,41.3c-0.1,0.1-0.2,0.3-0.2,0.4
		c0.1,0,0.2,0,0.4,0C287.2,41.6,287.1,41.5,287.1,41.3z"/>
	<path class="st0" d="M301.5,42.6c-0.2-0.1-0.4-0.1-0.7-0.2c-0.1,0-0.2-0.1-0.1-0.3c0.1-0.1,0.1-0.2,0.3-0.1
		c0.2,0.1,0.4,0.1,0.5,0.1c0.1,0,0.1-0.1,0.2-0.1c0-0.1-0.1-0.1-0.1-0.1c-0.2-0.1-0.4-0.1-0.5-0.2c-0.3-0.1-0.4-0.3-0.4-0.5
		c0-0.3,0.2-0.5,0.5-0.5c0.3-0.1,0.6-0.1,0.9,0.1c0.1,0,0.1,0.2,0.1,0.2c-0.1,0.1-0.1,0.3-0.3,0.2c-0.1,0-0.3-0.1-0.4-0.1
		c-0.1,0-0.1,0.1-0.2,0.1c0.1,0.1,0.1,0.1,0.2,0.2c0.1,0.1,0.2,0.1,0.4,0.1c0.4,0.1,0.6,0.3,0.5,0.6c0,0.3-0.3,0.5-0.6,0.6
		C301.7,42.6,301.6,42.6,301.5,42.6C301.6,42.6,301.6,42.6,301.5,42.6z"/>
	<path class="st0" d="M296.1,40.9c-0.2,0.3-0.4,0.4-0.6,0.2c-0.2-0.1-0.5-0.1-0.6,0.1c-0.1,0.2-0.1,0.5,0,0.7
		c0.2,0.2,0.4,0.2,0.6,0.1c0.1-0.1,0.2-0.1,0.4,0c0.1,0.1,0.1,0.2,0,0.3c-0.3,0.3-0.9,0.3-1.3,0c-0.4-0.3-0.5-0.9-0.3-1.3
		c0.3-0.5,1-0.7,1.5-0.3C295.9,40.8,296,40.8,296.1,40.9z"/>
	<path class="st0" d="M290,40.6c0.2,0,0.4,0,0.6,0c0.1,0,0.2,0,0.2,0.2c0,0.1,0,0.3-0.2,0.3c-0.4,0-0.4,0-0.4,0.4c0,0.3,0,0.6,0,0.8
		c0,0.2-0.1,0.2-0.3,0.2c-0.2,0-0.3,0-0.3-0.2c0-0.3,0-0.6,0-0.9c0-0.2-0.1-0.4-0.3-0.3c-0.2,0-0.3,0-0.3-0.2c0-0.2,0.1-0.2,0.2-0.2
		C289.6,40.6,289.8,40.6,290,40.6z"/>
	<path class="st0" d="M292.8,41.6c0,0.3,0,0.5,0,0.8c0,0.2-0.1,0.2-0.3,0.2c-0.1,0-0.3,0-0.3-0.2c0-0.5,0-1.1,0-1.6
		c0-0.2,0.1-0.2,0.3-0.2c0.1,0,0.3,0,0.2,0.2C292.8,41.1,292.8,41.3,292.8,41.6z"/>
	<path class="st1" d="M287.7,37c-0.6,0-0.5,0-0.5-0.5c0-0.5-0.1-0.5,0.5-0.5c0.2,0,0.3,0,0.5,0c0.3,0,0.4,0.2,0.4,0.4
		c0,0.3-0.1,0.4-0.4,0.5C288,37,287.8,37,287.7,37z"/>
	<path class="st1" d="M295.7,37c-0.5,0-0.5,0-0.5-0.5c0-0.5-0.1-0.5,0.5-0.5c0.1,0,0.3,0,0.4,0c0.3,0,0.4,0.2,0.4,0.5
		c0,0.2-0.1,0.4-0.4,0.5C296,37,295.9,37,295.7,37z"/>
	<path class="st1" d="M283.5,36c0.1,0,0.3,0,0.4,0c0.3,0,0.4,0.2,0.4,0.5c0,0.2-0.1,0.4-0.4,0.5c-0.3,0-0.5,0-0.8,0
		c-0.1,0-0.2-0.1-0.2-0.2c0-0.2,0-0.3,0-0.5c0-0.2,0.1-0.3,0.3-0.3C283.3,36,283.4,36,283.5,36C283.5,36,283.5,36,283.5,36z"/>
	<path class="st1" d="M279.2,36.4c0.1,0.3,0.2,0.6,0.3,0.9c0,0.1,0,0.2-0.1,0.2c-0.2,0-0.4,0-0.7,0c0.2-0.4,0.3-0.7,0.4-1.1
		C279.1,36.4,279.2,36.4,279.2,36.4z"/>
	<path class="st1" d="M300.2,36.4c0.1,0.3,0.2,0.6,0.3,0.8c0.1,0.1,0,0.2-0.1,0.2c-0.2,0-0.3,0-0.5,0c-0.1,0-0.1-0.1-0.1-0.1
		c0.1-0.3,0.2-0.6,0.4-1C300.1,36.4,300.2,36.4,300.2,36.4z"/>
	<path class="st1" d="M298.9,41.6c0,0.3-0.2,0.5-0.5,0.5c-0.3,0-0.5-0.2-0.5-0.5c0-0.3,0.2-0.5,0.5-0.5
		C298.7,41,298.9,41.3,298.9,41.6z"/>
	<path class="st1" d="M287.1,41.3c0.1,0.1,0.1,0.3,0.2,0.5c-0.2,0-0.3,0-0.4,0C286.9,41.6,286.9,41.5,287.1,41.3
		C287,41.3,287,41.3,287.1,41.3z"/>
	<path class="st0" d="M297.2,14.1c0,0,0,13.5,0,13.5c0,0-0.6,0.1-0.6,0.1c-0.6,0-1.1,0.1-1.7,0.1c-0.8,0-1.6,0-2.3-0.1
		c-0.9-0.1-1.7-0.3-2.6-0.5c-0.8-0.3-1.7-0.6-2.4-1.1c-0.7-0.5-1.4-1.1-1.8-1.9c-0.2-0.4-0.4-0.8-0.6-1.3c-0.2-0.6-0.3-1.1-0.1-1.7
		c0.1-0.4,0.2-0.7,0.4-1.1c0.2-0.5,0.5-0.9,0.9-1.3c0.5-0.6,1-1,1.6-1.4c0.8-0.6,1.7-1,2.6-1.4c1.2-0.5,2.5-0.9,3.8-1.2
		C295.3,14.4,296.2,14.2,297.2,14.1z"/>
	<path class="st0" d="M277.9,13.4h6.9c0,0-4.9,1.8-6.9,6.1C277.9,19.5,277.9,13.4,277.9,13.4z"/>
	<path class="st0" d="M288.7,32.6c0,0-7.2-1-10.8-7.3v7.3C277.9,32.6,288.8,32.5,288.7,32.6z"/>
	<path class="st0" d="M297.1,28.3v-0.4c-7.7,1-12.1-2.9-12.1-2.9c-6.4-6.2,1.7-11.5,1.7-11.5c-0.8,0.2-1.6,0.4-1.6,0.4
		c-0.5,0.2-0.9,0.3-1.3,0.6c-1.6,0.9-2.8,2.3-3.5,4c-0.1,0.2-0.2,0.4-0.3,0.7c-0.1,0.3-0.2,0.8-0.2,1.4c0,0.5,0.2,0.9,0.4,1.4
		c0.4,0.8,1,1.6,1.6,2.2c2.4,2.5,6,3.6,9.4,4C291.3,28.1,293.3,28.3,297.1,28.3z"/>
</g>
<path class="st2" d="M60.5,23.4c-0.5-1.2-1.4-2.2-2.6-2.9c-0.8-0.5-1.8-0.9-2.8-1.1c-0.1,0-1.2-0.1-1.2,0v3.3c2.2,0,4,1.8,4,4
	c0,2.2-1.8,4-4,4v0c0,0,0,0,0,0c0,0,0,0,0,0h-2.2c-0.5-1.3-1.5-2.8-3.2-4c0,0,3.8-2.1,3.8-7.4H49c0,0-0.2,5.6-5.2,5.7
	c-0.8-3.2-3.7-5.7-7.1-5.7h-5v3.3v6.3H35v-6.3h1.7c2.2,0,4,1.8,4,4c0,2.2-1.8,4-4,4h-3.2h-1.9v3.3h5c3.4,0,6.3-2.4,7.1-5.6
	c0.7,0.1,5.4,0.8,5.4,5.6h3.3c4.6,0,5.4-1.3,5.4-1.3v1.1H61c0-0.1,0-0.1,0-0.2c0-0.9,0-1.9,0-2.8c0-1.3,0-2.5,0-3.8
	c0-0.4,0-0.9,0-1.3C61,24.8,60.8,24.1,60.5,23.4z"/>
<g>
	<polygon class="st3" points="10,94.4 17.5,90 17.5,91.7 10,96.2 10,98.9 19.9,93.1 19.9,85.9 12.4,90.3 12.4,88.6 19.9,84.2 
		19.9,81.5 10,87.3 	"/>
	<polygon class="st3" points="30.2,92.1 30.2,87.3 20.3,81.5 20.3,93.1 30.2,98.9 30.2,94.3 27.8,92.9 27.8,94.8 22.7,91.7 
		22.7,85.6 27.8,88.6 27.8,90.8 	"/>
	<polygon class="st0" points="10,94.4 17.5,98.8 17.5,100.5 10,96.1 10,98.8 19.9,104.6 19.9,97.4 12.4,93 12.4,91.4 19.9,95.7 
		19.9,93 10,87.2 	"/>
	<polygon class="st0" points="30.2,92.3 30.2,87.2 20.3,93 20.3,104.6 30.2,98.8 30.2,94.2 27.8,95.6 27.8,97.5 22.7,100.5 
		22.7,94.4 27.8,91.4 27.8,93.6 	"/>
	<path class="st0" d="M36,91.7h1c0,0.4,0.3,0.6,1,0.6c0.6,0,0.9-0.2,0.9-0.5c0-0.2-0.2-0.4-0.6-0.5l-0.5-0.1
		c-0.8-0.1-1.6-0.3-1.6-1.3c0-0.8,0.7-1.3,1.9-1.3c1.1,0,1.9,0.4,1.9,1.5h-1c-0.1-0.3-0.3-0.6-0.9-0.6c-0.5,0-0.8,0.2-0.8,0.5
		c0,0.2,0.2,0.4,0.5,0.4l0.5,0.1c0.8,0.1,1.8,0.2,1.8,1.3c0,0.9-0.7,1.4-2,1.3C36.6,93.2,36,92.8,36,91.7"/>
	<path class="st0" d="M40.2,91c0-1.3,0.9-2.3,2.3-2.3c1,0,1.9,0.4,2.1,1.7h-1.1c-0.2-0.5-0.5-0.8-1-0.8c-0.7,0-1.2,0.5-1.2,1.3
		c0,0.8,0.5,1.3,1.2,1.3c0.5,0,0.9-0.2,1-0.8h1.1c-0.2,1.3-1.2,1.8-2.1,1.8C41.2,93.2,40.2,92.3,40.2,91"/>
	<path class="st0" d="M45,91.3v-2.5h1.1v2.4c0,0.6,0.3,1,0.9,1c0.6,0,0.9-0.4,0.9-1v-2.4h1.1v2.5c0,1.3-0.7,1.9-2.1,1.9
		C45.7,93.2,45,92.6,45,91.3"/>
	<path class="st0" d="M53.8,91c0,1.2-0.6,2.1-2.3,2.1h-2v-4.3h2C53.2,88.8,53.8,89.7,53.8,91 M52.6,91c0-0.8-0.4-1.2-1.1-1.2h-0.9
		l0,2.3h0.9C52.2,92.1,52.6,91.7,52.6,91z"/>
	<path class="st0" d="M57.1,93.1l-0.6-1.2h-1.3v1.2h-1.1v-4.3h2.3c1.1,0,1.7,0.5,1.7,1.6c0,0.6-0.3,1-0.7,1.3l0.8,1.4H57.1z
		 M55.2,91h1.1c0.5,0,0.7-0.2,0.7-0.6c0-0.4-0.2-0.6-0.7-0.6h-1.1V91z"/>
	<path class="st0" d="M61.7,92.4h-2l-0.2,0.7h-1.2l1.6-4.3h1.6l1.6,4.3h-1.2L61.7,92.4z M61.4,91.6l-0.6-1.7h-0.2L60,91.6H61.4z"/>
	<path class="st0" d="M64.5,91c0-1.3,0.9-2.3,2.3-2.3c1,0,1.9,0.4,2.1,1.7h-1.1c-0.2-0.5-0.5-0.8-1-0.8c-0.7,0-1.2,0.5-1.2,1.3
		c0,0.8,0.5,1.3,1.2,1.3c0.5,0,0.9-0.2,1-0.8H69c-0.2,1.3-1.2,1.8-2.1,1.8C65.5,93.2,64.5,92.3,64.5,91"/>
	<path class="st0" d="M69.2,91c0-1.3,0.9-2.3,2.3-2.3c1.4,0,2.3,0.9,2.3,2.3c0,1.3-0.9,2.3-2.3,2.3C70.2,93.2,69.2,92.3,69.2,91
		 M72.8,91c0-0.8-0.5-1.3-1.2-1.3c-0.7,0-1.2,0.5-1.2,1.3c0,0.8,0.5,1.3,1.2,1.3C72.2,92.2,72.8,91.7,72.8,91z"/>
	<path class="st0" d="M77.2,93.1l-0.6-1.2h-1.3v1.2h-1.1v-4.3h2.3c1.1,0,1.7,0.5,1.7,1.6c0,0.6-0.3,1-0.7,1.3l0.8,1.4H77.2z
		 M75.3,91h1.1c0.5,0,0.7-0.2,0.7-0.6c0-0.4-0.2-0.6-0.7-0.6h-1.1V91z"/>
	<path class="st0" d="M78.6,88.8h2.3c1.1,0,1.8,0.5,1.8,1.6c0,1.1-0.6,1.6-1.7,1.6h-1.1v1.1h-1.1V88.8z M80.8,91.1
		c0.4,0,0.7-0.2,0.7-0.6c0-0.4-0.3-0.6-0.7-0.6h-1v1.3H80.8z"/>
	<path class="st0" d="M40.6,96.2H41c0,0.2,0.2,0.3,0.5,0.3c0.3,0,0.5-0.1,0.5-0.3c0-0.1-0.1-0.2-0.4-0.3l-0.3,0
		c-0.4-0.1-0.8-0.2-0.8-0.6c0-0.4,0.3-0.6,0.9-0.6c0.5,0,0.9,0.2,0.9,0.7H42c0-0.2-0.2-0.3-0.5-0.3c-0.3,0-0.4,0.1-0.4,0.3
		c0,0.1,0.1,0.2,0.3,0.3l0.2,0c0.4,0.1,0.9,0.1,0.9,0.7c0,0.4-0.3,0.7-1,0.7C40.9,96.9,40.6,96.7,40.6,96.2"/>
	<polygon class="st0" points="42.9,94.7 44.6,94.7 44.6,95.1 43.4,95.1 43.4,95.6 44.6,95.6 44.6,96 43.4,96 43.4,96.4 44.6,96.4 
		44.6,96.9 42.9,96.9 	"/>
	<path class="st0" d="M45,95.8c0-0.7,0.5-1.1,1.1-1.1c0.5,0,0.9,0.2,1,0.8h-0.5c-0.1-0.3-0.3-0.4-0.6-0.4c-0.4,0-0.7,0.3-0.7,0.7
		c0,0.4,0.3,0.7,0.7,0.7c0.3,0,0.5-0.1,0.6-0.4h0.5c-0.1,0.6-0.6,0.8-1,0.8C45.4,96.9,45,96.5,45,95.8"/>
	<path class="st0" d="M47.5,96v-1.2H48V96c0,0.3,0.2,0.5,0.5,0.5c0.3,0,0.5-0.2,0.5-0.5v-1.2h0.5V96c0,0.6-0.4,1-1,1
		C47.8,96.9,47.5,96.6,47.5,96"/>
	<path class="st0" d="M51.4,96.9L51,96.2h-0.7v0.6h-0.5v-2.1h1.1c0.6,0,0.9,0.3,0.9,0.8c0,0.3-0.1,0.5-0.4,0.6l0.4,0.7H51.4z
		 M50.3,95.8h0.6c0.3,0,0.4-0.1,0.4-0.3c0-0.2-0.1-0.3-0.4-0.3h-0.6V95.8z"/>
	<rect x="52.2" y="94.7" class="st0" width="0.5" height="2.1"/>
	<polygon class="st0" points="55.1,95.2 54.3,95.2 54.3,96.9 53.8,96.9 53.8,95.2 53,95.2 53,94.7 55.1,94.7 	"/>
	<polygon class="st0" points="56.7,96.2 56.7,96.9 56.2,96.9 56.2,96.2 55.3,94.7 55.9,94.7 56.4,95.7 56.5,95.7 57,94.7 57.6,94.7 
			"/>
	<path class="st0" d="M58.6,96.2H59c0,0.2,0.2,0.3,0.5,0.3c0.3,0,0.5-0.1,0.5-0.3c0-0.1-0.1-0.2-0.4-0.3l-0.3,0
		c-0.4-0.1-0.8-0.2-0.8-0.6c0-0.4,0.3-0.6,0.9-0.6c0.5,0,0.9,0.2,0.9,0.7H60c0-0.2-0.2-0.3-0.5-0.3c-0.3,0-0.4,0.1-0.4,0.3
		c0,0.1,0.1,0.2,0.3,0.3l0.2,0c0.4,0.1,0.9,0.1,0.9,0.7c0,0.4-0.3,0.7-1,0.7C58.9,96.9,58.6,96.7,58.6,96.2"/>
	<path class="st0" d="M60.8,95.8c0-0.7,0.5-1.1,1.1-1.1c0.7,0,1.2,0.5,1.2,1.1c0,0.7-0.5,1.1-1.2,1.1C61.3,96.9,60.8,96.5,60.8,95.8
		 M62.6,95.8c0-0.4-0.3-0.7-0.7-0.7c-0.4,0-0.7,0.3-0.7,0.7c0,0.4,0.3,0.7,0.7,0.7C62.3,96.5,62.6,96.2,62.6,95.8z"/>
	<polygon class="st0" points="63.4,94.7 63.9,94.7 63.9,96.4 65.1,96.4 65.1,96.9 63.4,96.9 	"/>
	<path class="st0" d="M65.5,96v-1.2H66V96c0,0.3,0.2,0.5,0.5,0.5c0.3,0,0.5-0.2,0.5-0.5v-1.2h0.5V96c0,0.6-0.4,1-1,1
		C65.8,96.9,65.5,96.6,65.5,96"/>
	<polygon class="st0" points="69.9,95.2 69.1,95.2 69.1,96.9 68.6,96.9 68.6,95.2 67.9,95.2 67.9,94.7 69.9,94.7 	"/>
	<rect x="70.3" y="94.7" class="st0" width="0.5" height="2.1"/>
	<path class="st0" d="M71.1,95.8c0-0.7,0.5-1.1,1.1-1.1c0.7,0,1.2,0.5,1.2,1.1c0,0.7-0.5,1.1-1.2,1.1C71.6,96.9,71.1,96.5,71.1,95.8
		 M72.9,95.8c0-0.4-0.3-0.7-0.7-0.7c-0.4,0-0.7,0.3-0.7,0.7c0,0.4,0.3,0.7,0.7,0.7C72.6,96.5,72.9,96.2,72.9,95.8z"/>
	<polygon class="st0" points="73.7,94.7 74.3,94.7 75.3,96.2 75.3,96.2 75.3,94.7 75.8,94.7 75.8,96.9 75.2,96.9 74.2,95.4 
		74.2,95.4 74.2,96.9 73.7,96.9 	"/>
	<path class="st0" d="M76.1,96.2h0.4c0,0.2,0.2,0.3,0.5,0.3c0.3,0,0.5-0.1,0.5-0.3c0-0.1-0.1-0.2-0.4-0.3l-0.3,0
		c-0.4-0.1-0.8-0.2-0.8-0.6c0-0.4,0.3-0.6,0.9-0.6c0.5,0,0.9,0.2,0.9,0.7h-0.4c0-0.2-0.2-0.3-0.5-0.3c-0.3,0-0.4,0.1-0.4,0.3
		c0,0.1,0.1,0.2,0.3,0.3l0.2,0c0.4,0.1,0.9,0.1,0.9,0.7c0,0.4-0.3,0.7-1,0.7C76.4,96.9,76.1,96.7,76.1,96.2"/>
	<rect x="35.8" y="95.8" class="st0" width="3.9" height="0.4"/>
	<rect x="79.2" y="95.8" class="st0" width="3.1" height="0.4"/>
</g>
<g>
	<polygon class="st0" points="158.2,102.4 156.8,102.4 156.8,101.3 156.6,101.3 156.6,103.7 156.8,103.7 156.8,102.6 158.2,102.6 
		158.2,103.7 158.5,103.7 158.5,101.3 158.2,101.3 	"/>
	<path class="st0" d="M164.7,101.6c-0.1-0.1-0.2-0.2-0.4-0.3c-0.1-0.1-0.3-0.1-0.5-0.1c-0.2,0-0.3,0-0.5,0.1
		c-0.2,0.1-0.3,0.2-0.4,0.3c-0.1,0.1-0.2,0.2-0.3,0.4c-0.1,0.1-0.1,0.3-0.1,0.5c0,0.2,0,0.3,0.1,0.5c0.1,0.2,0.2,0.3,0.3,0.4
		c0.1,0.1,0.2,0.2,0.4,0.3c0.2,0.1,0.3,0.1,0.5,0.1c0.2,0,0.3,0,0.5-0.1c0.1-0.1,0.3-0.2,0.4-0.3c0.1-0.1,0.2-0.2,0.3-0.4
		s0.1-0.3,0.1-0.5c0-0.2,0-0.3-0.1-0.5C164.9,101.9,164.8,101.7,164.7,101.6z M164.8,102.9c-0.1,0.1-0.1,0.2-0.2,0.3
		c-0.1,0.1-0.2,0.2-0.3,0.2c-0.1,0.1-0.3,0.1-0.4,0.1c-0.1,0-0.3,0-0.4-0.1c-0.1-0.1-0.2-0.1-0.3-0.2c-0.1-0.1-0.2-0.2-0.2-0.3
		c-0.1-0.1-0.1-0.3-0.1-0.4c0-0.1,0-0.3,0.1-0.4c0.1-0.1,0.1-0.2,0.2-0.3s0.2-0.2,0.3-0.2c0.1-0.1,0.3-0.1,0.4-0.1
		c0.1,0,0.3,0,0.4,0.1c0.1,0.1,0.2,0.1,0.3,0.2s0.2,0.2,0.2,0.3c0.1,0.1,0.1,0.3,0.1,0.4C164.9,102.6,164.8,102.8,164.8,102.9z"/>
	<polygon class="st0" points="171.2,101.3 170.2,103.5 169.1,101.3 169.1,101.3 169,101.3 168.9,101.3 168.9,103.7 169.1,103.7 
		169.1,101.8 170.1,103.7 170.3,103.7 171.3,101.8 171.3,103.7 171.5,103.7 171.5,101.3 171.3,101.3 	"/>
	<polygon class="st0" points="175.9,102.6 177.1,102.6 177.1,102.4 175.9,102.4 175.9,101.5 177.3,101.5 177.3,101.3 175.6,101.3 
		175.6,103.7 177.4,103.7 177.4,103.5 175.9,103.5 	"/>
	<path class="st0" d="M164.9,84L164.9,84c0.1,0.1,0.2,0.1,0.3,0.1c0.1,0,0.1,0,0.2,0c0.1-0.1,0.2-0.2,0.2-0.3l0,0l0,0
		c-0.4-1.7-1.5-2.7-1.6-2.8c-1.7-1.5-3.8-1.5-3.9-1.5l0,0c-0.3,0-0.4,0.1-0.4,0.2c-0.1,0.2,0,0.6,0,0.6c0.1,0.2,1.9,1.1,2.9,1.5
		C163.7,82.5,164.9,84,164.9,84z"/>
	<path class="st0" d="M181.5,79.7c0.3-0.2,0.4-0.6,0.3-0.9c-0.1-0.3-0.4-0.5-0.7-0.6c-0.2-0.1-0.6,0-0.8,0.1
		c-0.7,0.4-1.4,0.7-2.1,1.2c-0.2,0.1-0.4,0.3-0.5,0.4c0-0.1-0.1-0.1-0.1-0.2c0,0-0.1-0.1-0.2-0.1c0.3-0.3,0.6-0.6,1-0.8
		c0.7-0.4,0.9-1,0.9-1.7c0-0.2-0.1-0.5-0.3-0.6c-0.2-0.1-0.5,0-0.6,0.2c-0.8,0.8-1,1.8-1.2,2.8c-0.2-0.1-0.3-0.1-0.5-0.1
		c-0.9,0-1.7,0.1-2.6,0.2c-0.2,0-0.4,0.1-0.6,0.1c0-0.2-0.1-0.4-0.2-0.5c0.4-0.1,0.7-0.2,1.1-0.3c0.9-0.1,1.4-0.6,1.8-1.3
		c0.1-0.2,0.1-0.6,0-0.8c-0.1-0.2-0.5-0.2-0.7-0.1c-1.1,0.4-1.8,1.3-2.4,2.2c-0.2-0.1-0.3-0.2-0.6-0.2c-1-0.2-2.1-0.1-3.1,0.2
		c-0.3,0.1-0.6,0.2-0.9,0.3c-0.5-0.1-1-0.2-1.5-0.3l-1.7-0.3c-0.5-0.1-1-0.2-1.4-0.2l-0.3-0.1l0.5-0.3c0.2-0.2,0.4-0.3,0.6-0.4
		c1.2-1,1.7-2.5,2-3.9c0-0.1,0-0.2,0-0.2c0,0,0,0,0,0c-0.1,0-0.2,0.2-0.2,0.2c-0.5,0.9-1.2,1.8-2.2,2.5c-0.7,0.6-1.5,1.1-2,2l0,0.1
		l-0.1,0c-0.1,0-0.1,0-0.2,0c-0.1,0-0.1,0-0.2,0c-1.2-0.1-2.4-0.2-3.6-0.1c-1.2,0.1-2.4,0.3-3.6,0.6c-0.8,0.3-1.6,0.6-2.4,1.1v1.1
		c0.9-0.6,1.9-1,2.9-1.3c1.1-0.3,2.3-0.5,3.5-0.6c1.2-0.1,2.3,0,3.5,0.2c1.2,0.2,2.4,0.4,3.6,0.6l1.7,0.3c0.5,0.1,1,0.2,1.6,0.3
		c1.4,0.8,2.5,0.9,3.8,0.7c0,0,0,0,0,0c0.4,1,1,1.9,1.8,2.5c0.3,0.2,0.6,0.4,1,0.1c0.3-0.3,0.2-0.6,0-1c0-0.1-0.1-0.2-0.2-0.2
		c-0.5-1-1.5-1.1-2.4-1.5c0.2-0.1,0.3-0.1,0.4-0.2c1.2,0.6,2.5,1,3.9,0.7c0.1,0,0.2,0,0.2-0.1c0.7,0.6,1.4,1.1,2.3,1.3
		c0.3,0.1,0.6,0.1,0.8-0.3c0.1-0.3-0.1-0.6-0.3-0.8c-0.1-0.1-0.1-0.1-0.2-0.1c-0.7-0.6-1.5-0.4-2.3-0.3c0.1-0.1,0.2-0.3,0.1-0.5
		C179.2,80.7,180.4,80.4,181.5,79.7z"/>
	<path class="st0" d="M171.7,77c0.1-0.2,0.2-0.7,0-0.8c-0.2-0.2-0.6-0.3-0.8-0.2c-1.3,0.5-2.2,1.6-3,2.9c0.7-0.2,1.3-0.3,1.8-0.4
		C170.7,78.3,171.3,77.7,171.7,77z"/>
	<path class="st0" d="M170.4,83.7c0.2,0.1,0.7,0.1,0.8,0c0.2-0.2,0.2-0.6,0.1-0.8c-0.1-0.4-0.4-0.7-0.7-1c-0.7-0.8-2.1-0.6-2.9-1.2
		c0.3,0.5,0.6,1.1,0.9,1.5C169.2,82.7,169.8,83.2,170.4,83.7z"/>
	<path class="st0" d="M142.5,94.1c-0.1,0.2-0.2,0.5-0.4,0.7v0c-0.2,0.2-0.4,0.4-0.6,0.5c-0.2,0.1-0.5,0.3-0.7,0.3
		c-0.3,0.1-0.5,0.1-0.8,0.1c-0.4,0-0.7-0.1-1.1-0.2c-0.3-0.1-0.6-0.3-0.9-0.6c-0.2-0.2-0.4-0.5-0.6-0.9c-0.1-0.3-0.2-0.7-0.2-1.1
		c0-0.4,0.1-0.7,0.2-1.1c0.1-0.3,0.3-0.6,0.6-0.9c0.2-0.2,0.5-0.4,0.9-0.6c0.3-0.1,0.7-0.2,1.1-0.2c0.3,0,0.5,0,0.8,0.1
		c0.3,0.1,0.5,0.2,0.7,0.3c0.2,0.1,0.4,0.3,0.6,0.5c0.2,0.2,0.3,0.4,0.4,0.7l0,0.1l0.7-0.3l0-0.1c-0.1-0.3-0.3-0.6-0.5-0.9
		c-0.2-0.3-0.5-0.5-0.7-0.7c-0.3-0.2-0.6-0.3-0.9-0.4c-0.3-0.1-0.7-0.1-1-0.1c-0.5,0-0.9,0.1-1.4,0.3c-0.4,0.2-0.8,0.4-1.1,0.7
		c-0.3,0.3-0.6,0.7-0.7,1.1c-0.2,0.4-0.3,0.9-0.3,1.3s0.1,0.9,0.3,1.4c0.2,0.4,0.4,0.8,0.7,1.1c0.3,0.3,0.7,0.6,1.1,0.7
		c0.4,0.2,0.9,0.3,1.4,0.3c0.3,0,0.7-0.1,1-0.1c0.3-0.1,0.6-0.2,0.9-0.4c0.3-0.2,0.5-0.4,0.7-0.7c0.2-0.3,0.4-0.6,0.5-0.9l0-0.1
		L142.5,94.1L142.5,94.1z"/>
	<path class="st0" d="M151.3,90.5c-0.3-0.3-0.7-0.6-1.1-0.7c-0.4-0.2-0.9-0.3-1.3-0.3c-0.5,0-0.9,0.1-1.4,0.3
		c-0.4,0.2-0.8,0.4-1.1,0.7c-0.3,0.3-0.6,0.7-0.7,1.1c-0.2,0.4-0.3,0.9-0.3,1.3c0,0.5,0.1,0.9,0.3,1.4c0.2,0.4,0.4,0.8,0.7,1.1
		c0.3,0.3,0.7,0.6,1.1,0.7c0.4,0.2,0.9,0.3,1.4,0.3c0.5,0,0.9-0.1,1.3-0.3c0.4-0.2,0.8-0.4,1.1-0.7c0.3-0.3,0.6-0.7,0.7-1.1
		c0.2-0.4,0.3-0.9,0.3-1.4c0-0.5-0.1-0.9-0.3-1.3C151.9,91.2,151.6,90.9,151.3,90.5z M151.4,94.1c-0.1,0.3-0.3,0.6-0.6,0.9
		c-0.2,0.2-0.5,0.4-0.9,0.6c-0.3,0.1-0.7,0.2-1.1,0.2s-0.7-0.1-1.1-0.2c-0.3-0.1-0.6-0.3-0.9-0.6c-0.2-0.2-0.4-0.5-0.6-0.9
		c-0.1-0.3-0.2-0.7-0.2-1.1c0-0.4,0.1-0.7,0.2-1c0.1-0.3,0.3-0.6,0.6-0.9c0.2-0.2,0.5-0.4,0.9-0.6c0.3-0.1,0.7-0.2,1.1-0.2
		c0.4,0,0.7,0.1,1.1,0.2c0.3,0.1,0.6,0.3,0.9,0.6c0.2,0.2,0.4,0.5,0.6,0.9c0.1,0.3,0.2,0.7,0.2,1C151.6,93.4,151.5,93.7,151.4,94.1z
		"/>
	<polygon class="st0" points="159.4,95.1 155.3,89.6 155.3,89.6 154.5,89.6 154.5,96.4 155.3,96.4 155.3,90.9 159.3,96.4 
		159.4,96.4 160.2,96.4 160.2,89.6 159.4,89.6 	"/>
	<polygon class="st0" points="176,89.7 175.2,89.7 175.2,96.5 179.4,96.5 179.4,95.7 176,95.7 	"/>
	<polygon class="st0" points="185.1,95.5 182.3,89.7 181.5,89.7 181.5,96.5 182.3,96.5 182.3,91.5 184.7,96.5 185.5,96.5 
		187.9,91.5 187.9,96.5 188.7,96.5 188.7,89.7 188,89.7 	"/>
	<path class="st0" d="M194.4,89.7h-0.7l-2.9,6.8h0.8l0.8-1.8h3.3l0.8,1.8h0.8L194.4,89.7z M192.8,93.9l1.3-3l1.3,3H192.8z"/>
	<path class="st0" d="M169.5,89.7l-1.5,3.5c-0.1,0-0.2,0-0.3-0.1L167,93c-0.4-0.1-0.8-0.2-1.3-0.2c-0.4-0.1-0.9-0.1-1.3,0
		c-0.4,0-0.9,0.1-1.3,0.2c-0.3,0.1-0.6,0.2-0.9,0.4l0,0v0.9l0.1-0.1c0.3-0.2,0.7-0.4,1.1-0.5c0.4-0.1,0.8-0.2,1.2-0.2
		c0.4,0,0.8,0,1.2,0.1c0.4,0.1,0.8,0.1,1.2,0.2l0.7,0.1l-1.1,2.6h0.8l1.1-2.5l0,0c0.1,0,0.1,0,0.2,0c0.4,0.1,0.7,0.1,1.1,0.1
		c0.3,0,0.7,0,1-0.1c0.2,0,0.3-0.1,0.5-0.1l1.1,2.5h0.8l-2.9-6.8H169.5z M170.7,93.4L170.7,93.4c-0.3,0.1-0.6,0.1-0.9,0.1
		c-0.3,0-0.7,0-1-0.1l0,0l1.1-2.5l1.1,2.5C170.8,93.3,170.8,93.4,170.7,93.4z"/>
</g>
<g>
	<g>
		<path class="st0" d="M287.7,96.9c-6.6,0-13.2,0-19.9,0c-2.9,0-4.9-2.2-5.3-4.5c-0.4-2.5,0.8-5.1,3.1-6.2c0.5-0.3,1.1-0.4,1.7-0.4
			c1.5-0.1,3.1-0.1,4.6-0.1c11.9,0,23.9,0,35.8,0c2.3,0,4.4,1.7,5,4.1c0.8,3-0.8,6.1-3.7,6.9c-0.4,0.1-0.8,0.2-1.2,0.2
			C301.1,96.9,294.4,96.9,287.7,96.9L287.7,96.9z M285.9,89.8c0.6,1.6,1.1,3.2,1.6,4.7c0.2,0.5,0.4,0.7,0.9,0.6c0.9,0,0.9,0,1.2-0.9
			c0.1-0.4,0.2-0.7,0.4-1.1c0.4-1.1,0.8-2.2,1.2-3.4c0.5,1.6,0.9,3,1.3,4.4c0.3,0.9,0.3,0.9,1.2,0.9c0.4,0,0.6-0.1,0.5-0.6
			c-0.6-2-1.1-4-1.7-6c-0.3-1.1-0.1-0.9-1.3-1c-0.1,0-0.1,0-0.1,0c-1,0-1,0-1.3,0.9c-0.1,0.3-0.2,0.5-0.3,0.8c-0.3,1-0.7,2-1.1,3.2
			c-0.4-1.3-0.8-2.4-1.1-3.5c-0.5-1.4-0.5-1.4-2-1.4c-0.5,0-0.7,0.2-0.8,0.6c-0.3,1.1-0.6,2.2-0.9,3.3c-0.2,0.6-0.3,1.2-0.5,1.8
			c-0.2,0.6-0.5,1.2-0.5,1.8c0.8,0.1,1.5,0.2,1.8-0.7C285,92.9,285.5,91.4,285.9,89.8z M269.1,95.1c0.4,0,0.7,0,1.1,0
			c1.7,0,2.8-0.8,3.2-2.4c0.2-0.6,0.2-1.2,0.2-1.9c-0.1-1.8-1.1-3.1-2.6-3.2c-1-0.1-2-0.1-3-0.1c-0.5,0-0.7,0.2-0.7,0.7
			c0,1.7,0,3.4,0,5.1C267.4,95.1,267.4,95.1,269.1,95.1z M278.3,95.3c1.6,0,2.9-0.9,3.3-2.4c0.2-0.6,0.3-1.3,0.2-1.9
			c-0.1-2.7-2.6-4.3-5-3.2c-1.4,0.7-1.8,1.9-1.9,3.4C274.7,93.5,276.1,95.2,278.3,95.3z M297.5,90.4L297.5,90.4c0-0.6,0-1.2,0-1.8
			c0-1,0-1-1.1-1c-0.1,0-0.1,0-0.1,0c-0.4,0-0.6,0.2-0.6,0.6c0,1.5,0,3,0,4.5c0,0.9,0.4,1.8,1.2,2.3c0.8,0.4,1.7,0.5,2.6,0.4
			c1.3-0.2,2-1.1,2-2.4c0-1.5,0.1-2.9,0.1-4.4c0-0.9,0-0.9-0.9-0.9c-0.5,0-0.7,0.2-0.7,0.7c0,0.9,0,1.9,0,2.8c0,0.7,0,1.4-0.1,2
			c-0.1,0.6-0.5,0.9-1.1,0.9c-0.9,0.1-1.4-0.4-1.5-1.4C297.5,91.9,297.5,91.2,297.5,90.4z M303.7,93.7c0,0.2,0,0.4-0.1,0.6
			c-0.1,1.1,1.6,1,2.3,1c1.2,0,1.9-0.6,2.2-1.5c0.3-1,0-1.8-0.9-2.6c-0.5-0.4-1.1-0.7-1.6-1.1c-0.2-0.2-0.5-0.6-0.4-0.9
			c0.1-0.4,0.5-0.6,0.9-0.5c0.3,0,1.4,0.4,1.6,0.2c0.3-0.2,0.1-1.1-0.3-1.2c-0.7-0.1-1.3-0.2-2-0.2c-0.7,0-1.2,0.4-1.6,1
			c-0.6,1-0.3,2.3,0.8,3.1c0.5,0.3,0.9,0.6,1.4,0.9c0.4,0.3,0.7,0.6,0.5,1c-0.2,0.5-0.5,0.6-1,0.6C305,93.9,304.4,93.8,303.7,93.7z"
			/>
		<path class="st0" d="M269,93.9c0-1.7,0-3.3,0-5c0.9-0.1,1.8-0.2,2.5,0.7c0.6,0.9,0.7,2.6,0.1,3.6C270.9,94,269.9,93.9,269,93.9z"
			/>
		<path class="st0" d="M280.1,91.4c0,0.6-0.2,1.3-0.5,1.8c-0.5,1.1-1.9,1.2-2.6,0.2c-0.7-1-0.7-3,0-4c0.7-1,2.1-1,2.6,0.1
			C279.9,90,280.1,90.7,280.1,91.4C280.1,91.3,280.1,91.3,280.1,91.4z"/>
	</g>
</g>
</svg>
