<?xml version="1.0" encoding="utf-8"?>
<!-- Generator: Adobe Illustrator 24.3.0, SVG Export Plug-In . SVG Version: 6.00 Build 0)  -->
<svg version="1.1" id="Layer_1" xmlns="http://www.w3.org/2000/svg" xmlns:xlink="http://www.w3.org/1999/xlink" x="0px" y="0px"
	 viewBox="0 0 205 186" style="enable-background:new 0 0 205 186;" xml:space="preserve">
<style type="text/css">
	.st0{fill:#AB863F;}
	.st1{fill:#FFFFFF;}
</style>
<g>
	<circle class="st0" cx="102.5" cy="54.9" r="48.8"/>
	<g>
		<path class="st1" d="M89.2,60.9c0.5-0.3,0.7-0.9,0.4-1.5c-0.3-0.5-0.9-0.7-1.5-0.4c-0.5,0.3-0.7,0.9-0.4,1.5
			C88,61,88.7,61.2,89.2,60.9z"/>
		<path class="st1" d="M84.8,68.2l5.4,9.3c1.2,2,3.8,2.8,5.8,1.6c2-1.2,2.7-3.8,1.6-5.8l-3.2-5.6l2.8-1.6c0.5-0.3,0.7-0.9,0.4-1.5
			l-1.4-2.4c0.2,0,1.3-0.2,20.5-4c2.4-0.1,3.8-2.7,2.6-4.8l-3.6-6.1l2.3-3.4c0.2-0.3,0.2-0.8,0-1.1l-2.1-3.7c-0.2-0.4-0.6-0.6-1-0.5
			l-4.1,0.2l-3.9-6.8c-0.6-1-1.6-1.6-2.7-1.6c0,0,0,0,0,0c-1.1,0-2.1,0.5-2.7,1.5l-14,17.8l-9.1,5.2c-3.6,2.1-4.8,6.6-2.7,10.2
			C77.4,68.3,81.4,69.6,84.8,68.2z M95.7,74.4c0.6,1,0.2,2.3-0.8,2.9c-1,0.6-2.3,0.2-2.9-0.8l-5.3-9.3l3.7-2.1
			C96.6,75.8,95.6,74.2,95.7,74.4z M93.3,65.9L92.2,64l1.9-1.1l1.1,1.9L93.3,65.9z M114.3,40.7l1.5,2.6l-1.3,2l-2.5-4.4L114.3,40.7z
			 M103.1,33c0.3-0.5,0.7-0.5,0.9-0.5c0.2,0,0.6,0.1,0.9,0.5l12.4,21.5c0.4,0.7-0.1,1.6-0.9,1.6c-0.1,0-0.2,0-0.6,0.1l-13.1-22.8
			C103,33.1,103,33.1,103.1,33z M101.3,35.3l12.4,21.4L95,60.3l-5.7-9.8L101.3,35.3z M77.4,64c-0.5-0.8-0.7-1.7-0.7-2.7
			c0-1.9,1-3.7,2.7-4.6l8.3-4.8l5.3,9.3l-8.3,4.8C82.1,67.4,78.9,66.5,77.4,64z"/>
		<path class="st1" d="M85.9,61.5c-0.3-0.5-0.9-0.7-1.5-0.4l-1.9,1.1c-0.5,0.3-1.2,0.1-1.5-0.4c-0.3-0.5-0.9-0.7-1.5-0.4
			c-0.5,0.3-0.7,0.9-0.4,1.5c0.9,1.5,2.8,2.1,4.4,1.2l1.9-1.1C86,62.7,86.2,62.1,85.9,61.5z"/>
		<path class="st1" d="M127.7,32.6l-6,3.3c-0.5,0.3-0.7,0.9-0.4,1.5c0.3,0.5,0.9,0.7,1.5,0.4l6-3.3c0.5-0.3,0.7-0.9,0.4-1.5
			C128.8,32.5,128.2,32.3,127.7,32.6z"/>
		<path class="st1" d="M127,43.7l-4.1-1.1c-0.6-0.2-1.2,0.2-1.3,0.8c-0.2,0.6,0.2,1.2,0.8,1.3l4.1,1.1c0.6,0.2,1.2-0.2,1.3-0.8
			C127.9,44.4,127.6,43.8,127,43.7z"/>
		<path class="st1" d="M116.7,28.7l-1.1,4.1c-0.2,0.6,0.2,1.2,0.8,1.3c0.6,0.2,1.2-0.2,1.3-0.8l1.1-4.1c0.2-0.6-0.2-1.2-0.8-1.3
			C117.4,27.8,116.8,28.2,116.7,28.7z"/>
	</g>
	<g>
		<path class="st0" d="M51.7,130v5.3h5.8v1.7h-5.8v5.5h6.5v1.7h-8.6v-16h8.6v1.7H51.7z"/>
		<path class="st0" d="M65.8,142.3l3.9-10.6h2.2L67,144.2h-2.4l-4.9-12.5h2.2L65.8,142.3z"/>
		<path class="st0" d="M85.1,138.7h-10c0.1,1.2,0.5,2.2,1.3,2.9c0.8,0.7,1.7,1,2.8,1c0.9,0,1.7-0.2,2.3-0.6c0.6-0.4,1-1,1.3-1.7h2.2
			c-0.3,1.2-1,2.2-2,2.9c-1,0.8-2.3,1.1-3.8,1.1c-1.2,0-2.3-0.3-3.2-0.8c-0.9-0.5-1.7-1.3-2.2-2.3c-0.5-1-0.8-2.1-0.8-3.4
			s0.3-2.4,0.8-3.4s1.2-1.7,2.2-2.3c0.9-0.5,2-0.8,3.2-0.8c1.2,0,2.2,0.3,3.2,0.8c0.9,0.5,1.6,1.2,2.1,2.1c0.5,0.9,0.7,1.9,0.7,3.1
			C85.2,137.9,85.1,138.3,85.1,138.7z M82.5,135c-0.4-0.6-0.8-1-1.4-1.3c-0.6-0.3-1.3-0.4-2-0.4c-1.1,0-1.9,0.3-2.7,1
			s-1.2,1.6-1.3,2.8H83C83,136.3,82.8,135.6,82.5,135z"/>
		<path class="st0" d="M97.5,132.9c0.9,0.9,1.4,2.3,1.4,4v7.4h-2.1v-7.1c0-1.2-0.3-2.2-0.9-2.9c-0.6-0.7-1.5-1-2.6-1
			c-1.1,0-2,0.3-2.6,1c-0.6,0.7-1,1.7-1,3v6.9h-2.1v-12.5h2.1v1.8c0.4-0.6,1-1.1,1.7-1.5s1.5-0.5,2.3-0.5
			C95.3,131.5,96.5,131.9,97.5,132.9z"/>
		<path class="st0" d="M104.6,133.4v7.4c0,0.6,0.1,1,0.4,1.3c0.3,0.3,0.7,0.4,1.3,0.4h1.5v1.8H106c-1.2,0-2-0.3-2.6-0.8
			c-0.6-0.5-0.9-1.4-0.9-2.6v-7.4h-1.6v-1.7h1.6v-3.2h2.1v3.2h3.3v1.7H104.6z"/>
		<path class="st0" d="M112.5,143.6c-1-0.5-1.7-1.3-2.2-2.3s-0.8-2.1-0.8-3.4c0-1.3,0.3-2.4,0.8-3.4c0.6-1,1.3-1.7,2.3-2.3
			c1-0.5,2-0.8,3.2-0.8s2.3,0.3,3.2,0.8c1,0.5,1.7,1.3,2.3,2.3s0.8,2.1,0.8,3.4s-0.3,2.4-0.9,3.4s-1.3,1.7-2.3,2.3
			c-1,0.5-2.1,0.8-3.2,0.8C114.5,144.4,113.4,144.2,112.5,143.6z M117.8,142.1c0.7-0.4,1.2-0.9,1.6-1.6c0.4-0.7,0.6-1.6,0.6-2.6
			c0-1-0.2-1.9-0.6-2.6c-0.4-0.7-0.9-1.2-1.6-1.6c-0.6-0.3-1.3-0.5-2.1-0.5c-0.8,0-1.5,0.2-2.1,0.5s-1.1,0.9-1.5,1.6
			s-0.6,1.6-0.6,2.6c0,1,0.2,1.9,0.6,2.6s0.9,1.2,1.5,1.6c0.6,0.3,1.3,0.5,2.1,0.5S117.1,142.4,117.8,142.1z"/>
		<path class="st0" d="M126.4,143.9c-0.8-0.3-1.4-0.8-1.8-1.4c-0.4-0.6-0.7-1.3-0.7-2h2.1c0.1,0.6,0.4,1.1,0.9,1.5
			c0.5,0.4,1.2,0.6,2.1,0.6c0.8,0,1.4-0.2,1.9-0.5c0.5-0.4,0.7-0.8,0.7-1.3c0-0.5-0.2-1-0.7-1.2c-0.5-0.3-1.2-0.5-2.3-0.8
			c-0.9-0.2-1.7-0.5-2.3-0.7c-0.6-0.3-1.1-0.6-1.5-1.1c-0.4-0.5-0.6-1.1-0.6-2c0-0.6,0.2-1.2,0.6-1.8c0.4-0.5,0.9-1,1.6-1.3
			s1.5-0.5,2.4-0.5c1.4,0,2.5,0.4,3.4,1.1c0.9,0.7,1.3,1.7,1.4,2.9h-2.1c0-0.7-0.3-1.2-0.8-1.6c-0.5-0.4-1.1-0.6-1.9-0.6
			c-0.7,0-1.3,0.2-1.8,0.5s-0.7,0.7-0.7,1.3c0,0.4,0.1,0.8,0.4,1c0.3,0.3,0.6,0.5,1,0.6c0.4,0.2,1,0.3,1.7,0.5
			c0.9,0.2,1.6,0.5,2.2,0.7c0.6,0.2,1,0.6,1.5,1.1c0.4,0.5,0.6,1.1,0.6,1.9c0,0.7-0.2,1.3-0.6,1.9s-0.9,1-1.6,1.3
			c-0.7,0.3-1.5,0.5-2.4,0.5C128.1,144.4,127.2,144.3,126.4,143.9z"/>
		<path class="st0" d="M154.4,144.2l-2.1-2.1c-0.8,0.8-1.6,1.4-2.5,1.8s-1.9,0.6-3,0.6c-1.1,0-2.1-0.2-2.9-0.6c-0.8-0.4-1.5-1-2-1.7
			c-0.5-0.7-0.7-1.6-0.7-2.6c0-1.1,0.3-2.1,0.9-2.9s1.6-1.5,2.8-2c-0.5-0.6-0.8-1.1-1.1-1.6c-0.2-0.5-0.3-1-0.3-1.6
			c0-0.7,0.2-1.3,0.5-1.8c0.3-0.5,0.8-1,1.5-1.3c0.6-0.3,1.4-0.5,2.2-0.5c0.8,0,1.5,0.2,2.1,0.5s1.1,0.8,1.4,1.3s0.4,1.2,0.4,1.9
			h-2.1c0-0.6-0.2-1.1-0.5-1.5s-0.8-0.5-1.4-0.5c-0.6,0-1.1,0.2-1.5,0.5c-0.4,0.3-0.6,0.8-0.6,1.3c0,0.5,0.1,0.9,0.4,1.3
			c0.3,0.4,0.7,1,1.3,1.6l4.8,4.8l0.4-0.6l1.6-2.6h2.2l-1.9,3.2c-0.3,0.5-0.6,0.9-0.9,1.4l3.6,3.6H154.4z M149.1,142.2
			c0.7-0.3,1.3-0.8,1.9-1.5l-4.7-4.7c-2,0.7-2.9,1.9-2.9,3.5c0,0.9,0.3,1.6,1,2.2c0.6,0.6,1.5,0.9,2.5,0.9
			C147.7,142.7,148.4,142.6,149.1,142.2z"/>
		<path class="st0" d="M40.1,169c-0.9,0.9-2.3,1.3-4.2,1.3h-3.1v6.7h-2.1V161h5.1c1.8,0,3.2,0.4,4.1,1.3s1.4,2,1.4,3.4
			C41.4,167,41,168.1,40.1,169z M38.5,167.8c0.5-0.5,0.8-1.2,0.8-2.1c0-2-1.1-2.9-3.4-2.9h-3.1v5.9h3.1
			C37.1,168.6,37.9,168.3,38.5,167.8z"/>
		<path class="st0" d="M47.4,164.8c0.7-0.4,1.5-0.6,2.5-0.6v2.1h-0.5c-2.3,0-3.5,1.3-3.5,3.8v6.8h-2.1v-12.5h2.1v2
			C46.2,165.7,46.7,165.2,47.4,164.8z"/>
		<path class="st0" d="M54.3,176.3c-1-0.5-1.7-1.3-2.2-2.3s-0.8-2.1-0.8-3.4c0-1.3,0.3-2.4,0.8-3.4c0.6-1,1.3-1.7,2.3-2.3
			c1-0.5,2-0.8,3.2-0.8s2.3,0.3,3.2,0.8c1,0.5,1.7,1.3,2.3,2.3s0.8,2.1,0.8,3.4s-0.3,2.4-0.9,3.4s-1.3,1.7-2.3,2.3
			c-1,0.5-2.1,0.8-3.2,0.8C56.4,177.1,55.3,176.9,54.3,176.3z M59.6,174.8c0.7-0.4,1.2-0.9,1.6-1.6c0.4-0.7,0.6-1.6,0.6-2.6
			c0-1-0.2-1.9-0.6-2.6c-0.4-0.7-0.9-1.2-1.6-1.6c-0.6-0.3-1.3-0.5-2.1-0.5c-0.8,0-1.5,0.2-2.1,0.5s-1.1,0.9-1.5,1.6
			s-0.6,1.6-0.6,2.6c0,1,0.2,1.9,0.6,2.6s0.9,1.2,1.5,1.6c0.6,0.3,1.3,0.5,2.1,0.5S59,175.1,59.6,174.8z"/>
		<path class="st0" d="M84.2,164.8c0.8,0.4,1.4,1,1.8,1.8c0.4,0.8,0.7,1.8,0.7,3v7.4h-2.1v-7.1c0-1.2-0.3-2.2-0.9-2.9
			c-0.6-0.7-1.5-1-2.5-1c-1.1,0-1.9,0.3-2.6,1c-0.6,0.7-1,1.7-1,3v6.9h-2.1v-7.1c0-1.2-0.3-2.2-0.9-2.9c-0.6-0.7-1.5-1-2.5-1
			c-1.1,0-1.9,0.3-2.6,1c-0.6,0.7-1,1.7-1,3v6.9h-2.1v-12.5h2.1v1.8c0.4-0.7,1-1.2,1.7-1.5c0.7-0.4,1.5-0.5,2.3-0.5
			c1.1,0,2,0.2,2.8,0.7c0.8,0.5,1.4,1.2,1.8,2.1c0.4-0.9,0.9-1.6,1.7-2.1c0.8-0.5,1.7-0.7,2.7-0.7C82.5,164.2,83.4,164.4,84.2,164.8
			z"/>
		<path class="st0" d="M92.1,176.3c-1-0.5-1.7-1.3-2.2-2.3s-0.8-2.1-0.8-3.4c0-1.3,0.3-2.4,0.8-3.4c0.6-1,1.3-1.7,2.3-2.3
			c1-0.5,2-0.8,3.2-0.8s2.3,0.3,3.2,0.8c1,0.5,1.7,1.3,2.3,2.3s0.8,2.1,0.8,3.4s-0.3,2.4-0.9,3.4s-1.3,1.7-2.3,2.3
			c-1,0.5-2.1,0.8-3.2,0.8C94.1,177.1,93,176.9,92.1,176.3z M97.4,174.8c0.7-0.4,1.2-0.9,1.6-1.6c0.4-0.7,0.6-1.6,0.6-2.6
			c0-1-0.2-1.9-0.6-2.6c-0.4-0.7-0.9-1.2-1.6-1.6c-0.6-0.3-1.3-0.5-2.1-0.5c-0.8,0-1.5,0.2-2.1,0.5s-1.1,0.9-1.5,1.6
			s-0.6,1.6-0.6,2.6c0,1,0.2,1.9,0.6,2.6s0.9,1.2,1.5,1.6c0.6,0.3,1.3,0.5,2.1,0.5S96.7,175.1,97.4,174.8z"/>
		<path class="st0" d="M104.2,167.3c0.5-1,1.2-1.7,2.2-2.3c0.9-0.5,2-0.8,3.2-0.8c1.5,0,2.8,0.4,3.8,1.1c1,0.7,1.7,1.8,2,3.1h-2.2
			c-0.2-0.8-0.6-1.4-1.2-1.8s-1.4-0.7-2.3-0.7c-1.2,0-2.1,0.4-2.9,1.2c-0.7,0.8-1.1,2-1.1,3.5c0,1.5,0.4,2.7,1.1,3.5
			c0.7,0.8,1.7,1.2,2.9,1.2c0.9,0,1.7-0.2,2.3-0.6c0.6-0.4,1-1,1.3-1.8h2.2c-0.3,1.3-1,2.3-2,3.1c-1,0.8-2.3,1.2-3.8,1.2
			c-1.2,0-2.2-0.3-3.2-0.8c-0.9-0.5-1.6-1.3-2.2-2.3s-0.8-2.1-0.8-3.4C103.4,169.4,103.7,168.2,104.2,167.3z"/>
		<path class="st0" d="M117.9,162c-0.3-0.3-0.4-0.6-0.4-1s0.1-0.7,0.4-1s0.6-0.4,1-0.4c0.4,0,0.7,0.1,1,0.4c0.3,0.3,0.4,0.6,0.4,1
			s-0.1,0.7-0.4,1c-0.3,0.3-0.6,0.4-1,0.4C118.5,162.4,118.2,162.2,117.9,162z M119.9,164.4v12.5h-2.1v-12.5H119.9z"/>
		<path class="st0" d="M125.5,176.3c-1-0.5-1.7-1.3-2.2-2.3s-0.8-2.1-0.8-3.4c0-1.3,0.3-2.4,0.8-3.4c0.6-1,1.3-1.7,2.3-2.3
			c1-0.5,2-0.8,3.2-0.8s2.3,0.3,3.2,0.8c1,0.5,1.7,1.3,2.3,2.3s0.8,2.1,0.8,3.4s-0.3,2.4-0.9,3.4s-1.3,1.7-2.3,2.3
			c-1,0.5-2.1,0.8-3.2,0.8C127.5,177.1,126.5,176.9,125.5,176.3z M130.8,174.8c0.7-0.4,1.2-0.9,1.6-1.6c0.4-0.7,0.6-1.6,0.6-2.6
			c0-1-0.2-1.9-0.6-2.6c-0.4-0.7-0.9-1.2-1.6-1.6c-0.6-0.3-1.3-0.5-2.1-0.5c-0.8,0-1.5,0.2-2.1,0.5s-1.1,0.9-1.5,1.6
			s-0.6,1.6-0.6,2.6c0,1,0.2,1.9,0.6,2.6s0.9,1.2,1.5,1.6c0.6,0.3,1.3,0.5,2.1,0.5S130.2,175.1,130.8,174.8z"/>
		<path class="st0" d="M147.5,165.6c0.9,0.9,1.4,2.3,1.4,4v7.4h-2.1v-7.1c0-1.2-0.3-2.2-0.9-2.9c-0.6-0.7-1.5-1-2.6-1
			c-1.1,0-2,0.3-2.6,1c-0.6,0.7-1,1.7-1,3v6.9h-2.1v-12.5h2.1v1.8c0.4-0.6,1-1.1,1.7-1.5s1.5-0.5,2.3-0.5
			C145.3,164.2,146.5,164.6,147.5,165.6z"/>
		<path class="st0" d="M163.4,171.5h-10c0.1,1.2,0.5,2.2,1.3,2.9c0.8,0.7,1.7,1,2.8,1c0.9,0,1.7-0.2,2.3-0.6c0.6-0.4,1-1,1.3-1.7
			h2.2c-0.3,1.2-1,2.2-2,2.9c-1,0.8-2.3,1.1-3.8,1.1c-1.2,0-2.3-0.3-3.2-0.8c-0.9-0.5-1.7-1.3-2.2-2.3c-0.5-1-0.8-2.1-0.8-3.4
			s0.3-2.4,0.8-3.4s1.2-1.7,2.2-2.3c0.9-0.5,2-0.8,3.2-0.8c1.2,0,2.2,0.3,3.2,0.8c0.9,0.5,1.6,1.2,2.1,2.1c0.5,0.9,0.7,1.9,0.7,3.1
			C163.5,170.6,163.5,171,163.4,171.5z M160.8,167.7c-0.4-0.6-0.8-1-1.4-1.3c-0.6-0.3-1.3-0.4-2-0.4c-1.1,0-1.9,0.3-2.7,1
			s-1.2,1.6-1.3,2.8h7.9C161.4,169,161.2,168.3,160.8,167.7z"/>
		<path class="st0" d="M167.9,176.7c-0.8-0.3-1.4-0.8-1.8-1.4c-0.4-0.6-0.7-1.3-0.7-2h2.1c0.1,0.6,0.4,1.1,0.9,1.5
			c0.5,0.4,1.2,0.6,2.1,0.6c0.8,0,1.4-0.2,1.9-0.5c0.5-0.4,0.7-0.8,0.7-1.3c0-0.5-0.2-1-0.7-1.2c-0.5-0.3-1.2-0.5-2.3-0.8
			c-0.9-0.2-1.7-0.5-2.3-0.7c-0.6-0.3-1.1-0.6-1.5-1.1c-0.4-0.5-0.6-1.1-0.6-2c0-0.6,0.2-1.2,0.6-1.8c0.4-0.5,0.9-1,1.6-1.3
			s1.5-0.5,2.4-0.5c1.4,0,2.5,0.4,3.4,1.1c0.9,0.7,1.3,1.7,1.4,2.9h-2.1c0-0.7-0.3-1.2-0.8-1.6c-0.5-0.4-1.1-0.6-1.9-0.6
			c-0.7,0-1.3,0.2-1.8,0.5s-0.7,0.7-0.7,1.3c0,0.4,0.1,0.8,0.4,1c0.3,0.3,0.6,0.5,1,0.6c0.4,0.2,1,0.3,1.7,0.5
			c0.9,0.2,1.6,0.5,2.2,0.7c0.6,0.2,1,0.6,1.5,1.1c0.4,0.5,0.6,1.1,0.6,1.9c0,0.7-0.2,1.3-0.6,1.9s-0.9,1-1.6,1.3
			c-0.7,0.3-1.5,0.5-2.4,0.5C169.5,177.1,168.6,177,167.9,176.7z"/>
	</g>
</g>
</svg>
