<?xml version="1.0" encoding="utf-8"?>
<!-- Generator: Adobe Illustrator 24.3.0, SVG Export Plug-In . SVG Version: 6.00 Build 0)  -->
<svg version="1.1" id="Layer_1" xmlns="http://www.w3.org/2000/svg" xmlns:xlink="http://www.w3.org/1999/xlink" x="0px" y="0px"
	 viewBox="0 0 205 186" style="enable-background:new 0 0 205 186;" xml:space="preserve">
<style type="text/css">
	.st0{fill:#CABE63;}
	.st1{fill:#FFFFFF;}
</style>
<g>
	<g>
		<path class="st0" d="M43.9,140.7h-7l-1.3,3.5h-2.2l5.8-15.8h2.4l5.7,15.8h-2.2L43.9,140.7z M43.3,139l-2.9-8l-2.9,8H43.3z"/>
		<path class="st0" d="M53.3,132.1c0.7-0.4,1.5-0.6,2.5-0.6v2.1h-0.5c-2.3,0-3.5,1.3-3.5,3.8v6.8h-2.1v-12.5h2.1v2
			C52.1,133,52.6,132.5,53.3,132.1z"/>
		<path class="st0" d="M58,134.6c0.5-1,1.2-1.7,2.1-2.3c0.9-0.5,1.9-0.8,3.1-0.8c1.1,0,2,0.2,2.8,0.7c0.8,0.5,1.4,1.1,1.8,1.8v-2.3
			h2.1v18.5h-2.1v-8.3c-0.4,0.7-1,1.3-1.8,1.8c-0.8,0.5-1.8,0.7-2.9,0.7s-2.1-0.3-3-0.8c-0.9-0.5-1.6-1.3-2.1-2.3s-0.8-2.1-0.8-3.4
			C57.2,136.6,57.4,135.5,58,134.6z M67.2,135.5c-0.4-0.7-0.9-1.2-1.5-1.6c-0.6-0.4-1.4-0.6-2.1-0.6c-0.8,0-1.5,0.2-2.1,0.5
			c-0.6,0.4-1.2,0.9-1.5,1.6c-0.4,0.7-0.6,1.5-0.6,2.5c0,1,0.2,1.8,0.6,2.5s0.9,1.2,1.5,1.6c0.6,0.4,1.3,0.6,2.1,0.6
			c0.8,0,1.5-0.2,2.1-0.6c0.6-0.4,1.2-0.9,1.5-1.6s0.6-1.5,0.6-2.5S67.6,136.2,67.2,135.5z"/>
		<path class="st0" d="M84.3,131.7v12.5h-2.1v-1.9c-0.4,0.6-0.9,1.1-1.7,1.5c-0.7,0.4-1.5,0.5-2.3,0.5c-1,0-1.9-0.2-2.6-0.6
			c-0.8-0.4-1.4-1-1.8-1.8c-0.5-0.8-0.7-1.8-0.7-2.9v-7.3h2.1v7.1c0,1.2,0.3,2.2,0.9,2.8s1.5,1,2.6,1c1.1,0,2-0.3,2.6-1
			c0.6-0.7,1-1.7,1-3v-6.9H84.3z"/>
		<path class="st0" d="M87.7,129.3c-0.3-0.3-0.4-0.6-0.4-1c0-0.4,0.1-0.7,0.4-1s0.6-0.4,1-0.4c0.4,0,0.7,0.1,1,0.4
			c0.3,0.3,0.4,0.6,0.4,1c0,0.4-0.1,0.7-0.4,1c-0.3,0.3-0.6,0.4-1,0.4C88.3,129.7,87.9,129.5,87.7,129.3z M89.7,131.7v12.5h-2.1
			v-12.5H89.7z"/>
		<path class="st0" d="M95.5,133.4v7.4c0,0.6,0.1,1,0.4,1.3c0.3,0.3,0.7,0.4,1.3,0.4h1.5v1.8h-1.9c-1.2,0-2-0.3-2.6-0.8
			c-0.6-0.5-0.9-1.4-0.9-2.6v-7.4h-1.6v-1.7h1.6v-3.2h2.1v3.2h3.3v1.7H95.5z"/>
		<path class="st0" d="M112.4,138.7h-10c0.1,1.2,0.5,2.2,1.3,2.9c0.8,0.7,1.7,1,2.8,1c0.9,0,1.7-0.2,2.3-0.6c0.6-0.4,1-1,1.3-1.7
			h2.2c-0.3,1.2-1,2.2-2,2.9c-1,0.8-2.3,1.1-3.8,1.1c-1.2,0-2.3-0.3-3.2-0.8c-0.9-0.5-1.7-1.3-2.2-2.3c-0.5-1-0.8-2.1-0.8-3.4
			s0.3-2.4,0.8-3.4s1.2-1.7,2.2-2.3c0.9-0.5,2-0.8,3.2-0.8c1.2,0,2.2,0.3,3.2,0.8c0.9,0.5,1.6,1.2,2.1,2.1c0.5,0.9,0.7,1.9,0.7,3.1
			C112.5,137.9,112.5,138.3,112.4,138.7z M109.8,135c-0.4-0.6-0.8-1-1.4-1.3c-0.6-0.3-1.3-0.4-2-0.4c-1.1,0-1.9,0.3-2.7,1
			s-1.2,1.6-1.3,2.8h7.9C110.4,136.3,110.2,135.6,109.8,135z"/>
		<path class="st0" d="M115,134.6c0.5-1,1.2-1.7,2.2-2.3c0.9-0.5,2-0.8,3.2-0.8c1.5,0,2.8,0.4,3.8,1.1c1,0.7,1.7,1.8,2,3.1h-2.2
			c-0.2-0.8-0.6-1.4-1.2-1.8s-1.4-0.7-2.3-0.7c-1.2,0-2.1,0.4-2.9,1.2c-0.7,0.8-1.1,2-1.1,3.5c0,1.5,0.4,2.7,1.1,3.5
			c0.7,0.8,1.7,1.2,2.9,1.2c0.9,0,1.7-0.2,2.3-0.6c0.6-0.4,1-1,1.3-1.8h2.2c-0.3,1.3-1,2.3-2,3.1c-1,0.8-2.3,1.2-3.8,1.2
			c-1.2,0-2.2-0.3-3.2-0.8c-0.9-0.5-1.6-1.3-2.2-2.3s-0.8-2.1-0.8-3.4C114.3,136.7,114.5,135.5,115,134.6z"/>
		<path class="st0" d="M131.2,133.4v7.4c0,0.6,0.1,1,0.4,1.3c0.3,0.3,0.7,0.4,1.3,0.4h1.5v1.8h-1.9c-1.2,0-2-0.3-2.6-0.8
			c-0.6-0.5-0.9-1.4-0.9-2.6v-7.4h-1.6v-1.7h1.6v-3.2h2.1v3.2h3.3v1.7H131.2z"/>
		<path class="st0" d="M147.9,131.7v12.5h-2.1v-1.9c-0.4,0.6-0.9,1.1-1.7,1.5c-0.7,0.4-1.5,0.5-2.3,0.5c-1,0-1.9-0.2-2.6-0.6
			c-0.8-0.4-1.4-1-1.8-1.8c-0.5-0.8-0.7-1.8-0.7-2.9v-7.3h2.1v7.1c0,1.2,0.3,2.2,0.9,2.8s1.5,1,2.6,1c1.1,0,2-0.3,2.6-1
			c0.6-0.7,1-1.7,1-3v-6.9H147.9z"/>
		<path class="st0" d="M154.8,132.1c0.7-0.4,1.5-0.6,2.5-0.6v2.1h-0.5c-2.3,0-3.5,1.3-3.5,3.8v6.8h-2.1v-12.5h2.1v2
			C153.6,133,154.2,132.5,154.8,132.1z"/>
		<path class="st0" d="M159.5,134.6c0.5-1,1.2-1.7,2.1-2.3c0.9-0.5,1.9-0.8,3-0.8c1.1,0,2,0.2,2.9,0.7c0.8,0.5,1.4,1.1,1.8,1.8v-2.3
			h2.1v12.5h-2.1v-2.3c-0.4,0.7-1,1.3-1.8,1.8c-0.8,0.5-1.8,0.7-2.8,0.7c-1.1,0-2.1-0.3-3-0.8c-0.9-0.5-1.6-1.3-2.1-2.3
			s-0.8-2.1-0.8-3.4C158.7,136.6,159,135.5,159.5,134.6z M168.7,135.5c-0.4-0.7-0.9-1.2-1.5-1.6c-0.6-0.4-1.4-0.6-2.1-0.6
			c-0.8,0-1.5,0.2-2.1,0.5c-0.6,0.4-1.2,0.9-1.5,1.6c-0.4,0.7-0.6,1.5-0.6,2.5c0,1,0.2,1.8,0.6,2.5s0.9,1.2,1.5,1.6
			c0.6,0.4,1.3,0.6,2.1,0.6c0.8,0,1.5-0.2,2.1-0.6c0.6-0.4,1.2-0.9,1.5-1.6s0.6-1.5,0.6-2.5S169.1,136.2,168.7,135.5z"/>
		<path class="st0" d="M51.5,169c-0.9,0.9-2.3,1.3-4.2,1.3h-3.1v6.7h-2.1V161h5.1c1.8,0,3.2,0.4,4.1,1.3s1.4,2,1.4,3.4
			C52.9,167,52.4,168.1,51.5,169z M49.9,167.8c0.5-0.5,0.8-1.2,0.8-2.1c0-2-1.1-2.9-3.4-2.9h-3.1v5.9h3.1
			C48.5,168.6,49.4,168.3,49.9,167.8z"/>
		<path class="st0" d="M66.3,164.4v12.5h-2.1v-1.9c-0.4,0.6-0.9,1.1-1.7,1.5c-0.7,0.4-1.5,0.5-2.3,0.5c-1,0-1.9-0.2-2.6-0.6
			c-0.8-0.4-1.4-1-1.8-1.8c-0.5-0.8-0.7-1.8-0.7-2.9v-7.3h2.1v7.1c0,1.2,0.3,2.2,0.9,2.8s1.5,1,2.6,1c1.1,0,2-0.3,2.6-1
			c0.6-0.7,1-1.7,1-3v-6.9H66.3z"/>
		<path class="st0" d="M73.6,164.9c0.8-0.5,1.8-0.7,2.8-0.7c1.1,0,2.1,0.3,3,0.8c0.9,0.5,1.6,1.3,2.1,2.3c0.5,1,0.8,2.1,0.8,3.4
			c0,1.3-0.3,2.4-0.8,3.4c-0.5,1-1.2,1.8-2.1,2.3c-0.9,0.5-1.9,0.8-3,0.8c-1.1,0-2-0.2-2.8-0.7c-0.8-0.5-1.4-1.1-1.8-1.8v2.3h-2.1
			V160h2.1v6.7C72.1,166,72.8,165.4,73.6,164.9z M79.7,168.2c-0.4-0.7-0.9-1.2-1.5-1.6c-0.6-0.4-1.4-0.5-2.1-0.5
			c-0.8,0-1.5,0.2-2.1,0.6c-0.6,0.4-1.2,0.9-1.6,1.6c-0.4,0.7-0.6,1.5-0.6,2.5c0,0.9,0.2,1.8,0.6,2.5s0.9,1.2,1.6,1.6
			c0.6,0.4,1.4,0.6,2.1,0.6c0.8,0,1.5-0.2,2.1-0.6c0.6-0.4,1.2-0.9,1.5-1.6s0.6-1.5,0.6-2.5C80.2,169.7,80,168.9,79.7,168.2z"/>
		<path class="st0" d="M87,160v16.9h-2.1V160H87z"/>
		<path class="st0" d="M90.3,162c-0.3-0.3-0.4-0.6-0.4-1s0.1-0.7,0.4-1s0.6-0.4,1-0.4c0.4,0,0.7,0.1,1,0.4c0.3,0.3,0.4,0.6,0.4,1
			s-0.1,0.7-0.4,1c-0.3,0.3-0.6,0.4-1,0.4C90.9,162.4,90.6,162.2,90.3,162z M92.3,164.4v12.5h-2.1v-12.5H92.3z"/>
		<path class="st0" d="M95.7,167.3c0.5-1,1.2-1.7,2.2-2.3c0.9-0.5,2-0.8,3.2-0.8c1.5,0,2.8,0.4,3.8,1.1c1,0.7,1.7,1.8,2,3.1h-2.2
			c-0.2-0.8-0.6-1.4-1.2-1.8s-1.4-0.7-2.3-0.7c-1.2,0-2.1,0.4-2.9,1.2c-0.7,0.8-1.1,2-1.1,3.5c0,1.5,0.4,2.7,1.1,3.5
			c0.7,0.8,1.7,1.2,2.9,1.2c0.9,0,1.7-0.2,2.3-0.6c0.6-0.4,1-1,1.3-1.8h2.2c-0.3,1.3-1,2.3-2,3.1c-1,0.8-2.3,1.2-3.8,1.2
			c-1.2,0-2.2-0.3-3.2-0.8c-0.9-0.5-1.6-1.3-2.2-2.3s-0.8-2.1-0.8-3.4C94.9,169.4,95.1,168.2,95.7,167.3z"/>
		<path class="st0" d="M109.4,162c-0.3-0.3-0.4-0.6-0.4-1s0.1-0.7,0.4-1s0.6-0.4,1-0.4c0.4,0,0.7,0.1,1,0.4c0.3,0.3,0.4,0.6,0.4,1
			s-0.1,0.7-0.4,1c-0.3,0.3-0.6,0.4-1,0.4C110,162.4,109.7,162.2,109.4,162z M111.4,164.4v12.5h-2.1v-12.5H111.4z"/>
		<path class="st0" d="M117.2,166.1v7.4c0,0.6,0.1,1,0.4,1.3c0.3,0.3,0.7,0.4,1.3,0.4h1.5v1.8h-1.9c-1.2,0-2-0.3-2.6-0.8
			c-0.6-0.5-0.9-1.4-0.9-2.6v-7.4h-1.6v-1.7h1.6v-3.2h2.1v3.2h3.3v1.7H117.2z"/>
		<path class="st0" d="M122.8,167.3c0.5-1,1.2-1.7,2.1-2.3c0.9-0.5,1.9-0.8,3-0.8c1.1,0,2,0.2,2.9,0.7c0.8,0.5,1.4,1.1,1.8,1.8v-2.3
			h2.1v12.5h-2.1v-2.3c-0.4,0.7-1,1.3-1.8,1.8c-0.8,0.5-1.8,0.7-2.8,0.7c-1.1,0-2.1-0.3-3-0.8c-0.9-0.5-1.6-1.3-2.1-2.3
			s-0.8-2.1-0.8-3.4C122,169.3,122.3,168.2,122.8,167.3z M132.1,168.2c-0.4-0.7-0.9-1.2-1.5-1.6c-0.6-0.4-1.4-0.6-2.1-0.6
			c-0.8,0-1.5,0.2-2.1,0.5c-0.6,0.4-1.2,0.9-1.5,1.6c-0.4,0.7-0.6,1.5-0.6,2.5c0,1,0.2,1.8,0.6,2.5s0.9,1.2,1.5,1.6
			c0.6,0.4,1.3,0.6,2.1,0.6c0.8,0,1.5-0.2,2.1-0.6c0.6-0.4,1.2-0.9,1.5-1.6s0.6-1.5,0.6-2.5S132.4,168.9,132.1,168.2z"/>
		<path class="st0" d="M141.7,164.8c0.7-0.4,1.5-0.6,2.5-0.6v2.1h-0.5c-2.3,0-3.5,1.3-3.5,3.8v6.8H138v-12.5h2.1v2
			C140.5,165.7,141,165.2,141.7,164.8z"/>
		<path class="st0" d="M146.4,162c-0.3-0.3-0.4-0.6-0.4-1s0.1-0.7,0.4-1s0.6-0.4,1-0.4c0.4,0,0.7,0.1,1,0.4c0.3,0.3,0.4,0.6,0.4,1
			s-0.1,0.7-0.4,1c-0.3,0.3-0.6,0.4-1,0.4C147,162.4,146.7,162.2,146.4,162z M148.4,164.4v12.5h-2.1v-12.5H148.4z"/>
		<path class="st0" d="M151.7,167.3c0.5-1,1.2-1.7,2.1-2.3c0.9-0.5,1.9-0.8,3-0.8c1.1,0,2,0.2,2.9,0.7c0.8,0.5,1.4,1.1,1.8,1.8v-2.3
			h2.1v12.5h-2.1v-2.3c-0.4,0.7-1,1.3-1.8,1.8c-0.8,0.5-1.8,0.7-2.8,0.7c-1.1,0-2.1-0.3-3-0.8c-0.9-0.5-1.6-1.3-2.1-2.3
			s-0.8-2.1-0.8-3.4C151,169.3,151.2,168.2,151.7,167.3z M161,168.2c-0.4-0.7-0.9-1.2-1.5-1.6c-0.6-0.4-1.4-0.6-2.1-0.6
			c-0.8,0-1.5,0.2-2.1,0.5c-0.6,0.4-1.2,0.9-1.5,1.6c-0.4,0.7-0.6,1.5-0.6,2.5c0,1,0.2,1.8,0.6,2.5s0.9,1.2,1.5,1.6
			c0.6,0.4,1.3,0.6,2.1,0.6c0.8,0,1.5-0.2,2.1-0.6c0.6-0.4,1.2-0.9,1.5-1.6s0.6-1.5,0.6-2.5S161.4,168.9,161,168.2z"/>
	</g>
	<circle class="st0" cx="102.9" cy="55.2" r="48.8"/>
</g>
<g>
	<path class="st1" d="M124.9,32.5H78.8c-0.5,0-1,0.4-1,1v46.1c0,0.5,0.4,1,1,1h39.9c0.5,0,1-0.4,1-1c0-0.5-0.4-1-1-1h-39V56.1h13.5
		v9.2c0,0.5,0.4,1,1,1c0.5,0,1-0.4,1-1V45.2c0-0.5-0.4-1-1-1c-0.5,0-1,0.4-1,1v9H79.7V34.4h26.2v12.1c0,0.5,0.4,1,1,1h10.2
		c0.5,0,1-0.4,1-1c0-0.5-0.4-1-1-1h-9.2V34.4h16v30h-17c-0.5,0-1,0.4-1,1c0,0.5,0.4,1,1,1h17v12.3h-6.8c-0.5,0-1,0.4-1,1
		c0,0.5,0.4,1,1,1h7.8c0.5,0,1-0.4,1-1V33.5C125.8,32.9,125.4,32.5,124.9,32.5L124.9,32.5z M124.9,32.5"/>
</g>
</svg>
