<?xml version="1.0" encoding="utf-8"?>
<!-- Generator: Adobe Illustrator 24.3.0, SVG Export Plug-In . SVG Version: 6.00 Build 0)  -->
<svg version="1.1" id="Layer_1" xmlns="http://www.w3.org/2000/svg" xmlns:xlink="http://www.w3.org/1999/xlink" x="0px" y="0px"
	 viewBox="0 0 329.2 123.9" style="enable-background:new 0 0 329.2 123.9;" xml:space="preserve">
<style type="text/css">
	.st0{fill:#575756;}
	.st1{opacity:0.5;fill-rule:evenodd;clip-rule:evenodd;fill:#595958;}
	.st2{fill-rule:evenodd;clip-rule:evenodd;fill:#595958;}
	.st3{opacity:0.84;fill-rule:evenodd;clip-rule:evenodd;fill:#1C1C1B;}
	.st4{fill-rule:evenodd;clip-rule:evenodd;fill:#EC1C24;}
	.st5{fill-rule:evenodd;clip-rule:evenodd;fill:#FFFFFF;}
	.st6{fill-rule:evenodd;clip-rule:evenodd;fill:#CF4534;}
	.st7{fill:none;stroke:#FFFFFF;stroke-width:8.316829e-02;stroke-linecap:round;stroke-linejoin:round;stroke-miterlimit:2.6131;}
	.st8{fill:#595A59;}
</style>
<g>
	<path class="st0" d="M252.6,25.1h1.9c0.7,0,1,0.3,1,0.9c0,0.6-0.3,0.9-1,0.9h-1.9V25.1z M249.6,31.4h2.9v-2.6h3.1
		c2.1,0,2.8-1.2,2.8-2.8c0-1.8-0.8-2.9-2.8-2.9h-6V31.4"/>
	<polygon class="st0" points="259.5,23.1 267.4,23.1 267.4,25.1 262.4,25.1 262.4,26.2 267.1,26.2 267.1,28.2 262.4,28.2 
		262.4,29.3 267.4,29.3 267.4,31.4 259.5,31.4 	"/>
	<path class="st0" d="M271.6,25.1h1.9c0.7,0,1,0.3,1,0.9c0,0.6-0.3,0.9-1,0.9h-1.9V25.1z M268.6,31.4h2.9v-2.6h3.1
		c2.1,0,2.8-1.2,2.8-2.8c0-1.8-0.8-2.9-2.8-2.9h-6V31.4"/>
	<path class="st0" d="M280.4,27.9c-1.4-0.2-2-1.2-2-2.3c0-2.1,1.9-2.7,4.3-2.7c3.3,0,4.7,1,4.8,2.7H284c0-0.3-0.2-0.5-0.4-0.7
		c-0.3-0.1-0.6-0.2-0.9-0.2c-0.9,0-1.2,0.2-1.2,0.6c0,0.2,0.1,0.4,0.4,0.4l3.5,0.6c1.5,0.2,2.4,1,2.4,2.4c0,2-1.5,3-4.8,3
		c-2.3,0-4.7-0.3-4.7-2.8h3.5c0,0.3,0.1,0.5,0.3,0.6c0.2,0.1,0.5,0.2,1,0.2c0.9,0,1.2-0.3,1.2-0.7c0-0.2-0.1-0.5-0.5-0.6L280.4,27.9
		"/>
	<rect x="288.7" y="23.1" class="st0" width="2.9" height="8.2"/>
	<path class="st0" d="M302.5,28.1c-0.2,1.1-0.5,2-1.2,2.6c-0.7,0.6-1.8,0.9-3.6,0.9c-1.8,0-5.1-0.1-5.1-4.4c0-4.3,3.3-4.4,5.1-4.4
		c1.8,0,4.5,0.3,4.9,3.5h-3.3c-0.1-0.6-0.4-1.4-1.6-1.4c-1.2,0-2,0.7-2,2.3c0,1.7,0.7,2.3,1.8,2.3c0.9,0,1.5-0.4,1.7-1.4H302.5"/>
	<path class="st0" d="M306.3,27.2c0-1.7,0.8-2.3,2-2.3c1.2,0,2,0.7,2,2.3c0,1.7-0.8,2.3-2,2.3C307.1,29.6,306.3,28.9,306.3,27.2
		 M303.2,27.2c0,4.3,3.3,4.4,5.1,4.4c1.8,0,5.1-0.1,5.1-4.4c0-4.3-3.3-4.4-5.1-4.4C306.5,22.8,303.2,23,303.2,27.2"/>
</g>
<g>
	<path class="st0" d="M47.3,13c0,3.5-2.8,6.3-6.3,6.3c-3.5,0-6.3-2.8-6.3-6.3h-6.3c0,7,5.6,12.6,12.6,12.6c7,0,12.6-5.6,12.6-12.6
		H47.3z"/>
	<path class="st0" d="M26.5,34.6c-0.2,0-0.4,0.2-0.4,0.4c0,0.2,0.2,0.4,0.4,0.4h28.9c0.2,0,0.4-0.2,0.4-0.4c0-0.2-0.2-0.4-0.4-0.4
		H26.5z"/>
	<path class="st0" d="M27.1,39.2V39c-0.1,0.2-0.3,0.3-0.5,0.3c-0.2,0-0.3,0-0.4-0.1c-0.1-0.1-0.2-0.2-0.3-0.4
		c-0.1-0.2-0.1-0.3-0.1-0.5c0-0.2,0-0.4,0.1-0.5c0.1-0.2,0.2-0.3,0.3-0.4c0.1-0.1,0.3-0.1,0.4-0.1c0.1,0,0.2,0,0.3,0.1
		c0.1,0.1,0.2,0.1,0.2,0.2v-1h0.3v2.7H27.1z M26.1,38.2c0,0.3,0.1,0.4,0.2,0.6c0.1,0.1,0.2,0.2,0.4,0.2c0.1,0,0.3-0.1,0.4-0.2
		c0.1-0.1,0.2-0.3,0.2-0.5c0-0.3,0-0.5-0.2-0.6c-0.1-0.1-0.2-0.2-0.4-0.2c-0.1,0-0.3,0.1-0.4,0.2C26.1,37.8,26.1,38,26.1,38.2"/>
	<path class="st0" d="M27.9,36.5h0.3v0.4h-0.3V36.5z M27.9,37.2h0.3v2h-0.3V37.2z"/>
	<path class="st0" d="M29.2,39.2l-0.7-2h0.4l0.4,1.2c0,0.1,0.1,0.3,0.1,0.4c0-0.1,0.1-0.2,0.1-0.4l0.4-1.2h0.3l-0.7,2H29.2z"/>
	<path class="st0" d="M30.5,36.5h0.3v0.4h-0.3V36.5z M30.5,37.2h0.3v2h-0.3V37.2z"/>
	<path class="st0" d="M31.1,38.6l0.3-0.1c0,0.1,0.1,0.2,0.2,0.3c0.1,0.1,0.2,0.1,0.4,0.1c0.2,0,0.3,0,0.3-0.1
		c0.1-0.1,0.1-0.1,0.1-0.2c0-0.1,0-0.1-0.1-0.2c0,0-0.2-0.1-0.3-0.1c-0.2-0.1-0.4-0.1-0.5-0.2c-0.1,0-0.2-0.1-0.2-0.2
		c0-0.1-0.1-0.2-0.1-0.3c0-0.1,0-0.2,0.1-0.2c0-0.1,0.1-0.1,0.2-0.2c0.1,0,0.1-0.1,0.2-0.1c0.1,0,0.2,0,0.3,0c0.2,0,0.3,0,0.4,0.1
		c0.1,0,0.2,0.1,0.3,0.2c0.1,0.1,0.1,0.2,0.1,0.3l-0.3,0c0-0.1-0.1-0.2-0.1-0.2c-0.1-0.1-0.2-0.1-0.3-0.1c-0.2,0-0.3,0-0.3,0.1
		c-0.1,0.1-0.1,0.1-0.1,0.2c0,0,0,0.1,0,0.1c0,0,0.1,0.1,0.1,0.1c0,0,0.1,0,0.3,0.1c0.2,0.1,0.4,0.1,0.5,0.2c0.1,0,0.2,0.1,0.2,0.2
		c0.1,0.1,0.1,0.2,0.1,0.3c0,0.1,0,0.2-0.1,0.3c-0.1,0.1-0.2,0.2-0.3,0.2c-0.1,0.1-0.3,0.1-0.4,0.1c-0.3,0-0.5-0.1-0.6-0.2
		C31.2,39,31.1,38.8,31.1,38.6"/>
	<path class="st0" d="M33,36.5h0.3v0.4H33V36.5z M33,37.2h0.3v2H33V37.2z"/>
	<path class="st0" d="M33.7,38.2c0-0.4,0.1-0.6,0.3-0.8c0.2-0.1,0.4-0.2,0.6-0.2c0.3,0,0.5,0.1,0.7,0.3c0.2,0.2,0.3,0.4,0.3,0.7
		c0,0.3,0,0.5-0.1,0.6c-0.1,0.1-0.2,0.3-0.3,0.3c-0.1,0.1-0.3,0.1-0.5,0.1c-0.3,0-0.5-0.1-0.7-0.3C33.8,38.8,33.7,38.6,33.7,38.2
		 M34,38.2c0,0.2,0.1,0.4,0.2,0.6c0.1,0.1,0.2,0.2,0.4,0.2c0.2,0,0.3-0.1,0.4-0.2c0.1-0.1,0.2-0.3,0.2-0.6c0-0.2-0.1-0.4-0.2-0.6
		c-0.1-0.1-0.2-0.2-0.4-0.2c-0.2,0-0.3,0.1-0.4,0.2C34.1,37.8,34,38,34,38.2 M34.3,37l0.2-0.5H35L34.6,37H34.3z"/>
	<path class="st0" d="M35.8,39.2v-2h0.3v0.3c0.1-0.2,0.4-0.3,0.6-0.3c0.1,0,0.2,0,0.3,0.1c0.1,0,0.2,0.1,0.2,0.2
		c0,0.1,0.1,0.1,0.1,0.2c0,0.1,0,0.2,0,0.3v1.2h-0.3V38c0-0.1,0-0.2,0-0.3c0-0.1-0.1-0.1-0.1-0.2c-0.1,0-0.1-0.1-0.2-0.1
		c-0.1,0-0.3,0-0.4,0.1c-0.1,0.1-0.2,0.3-0.2,0.5v1.1H35.8z"/>
	<path class="st0" d="M40.2,38.6l0.3,0c-0.1,0.2-0.2,0.4-0.3,0.5c-0.1,0.1-0.3,0.2-0.6,0.2c-0.3,0-0.5-0.1-0.7-0.3
		c-0.2-0.2-0.3-0.4-0.3-0.7c0-0.3,0.1-0.6,0.3-0.8c0.2-0.2,0.4-0.3,0.7-0.3c0.3,0,0.5,0.1,0.6,0.3c0.2,0.2,0.2,0.4,0.2,0.8
		c0,0,0,0.1,0,0.1h-1.5c0,0.2,0.1,0.4,0.2,0.5c0.1,0.1,0.2,0.2,0.4,0.2c0.1,0,0.2,0,0.3-0.1C40.1,38.8,40.1,38.7,40.2,38.6 M39.1,38
		h1.1c0-0.2-0.1-0.3-0.1-0.4c-0.1-0.1-0.2-0.2-0.4-0.2c-0.2,0-0.3,0.1-0.4,0.2C39.1,37.7,39.1,37.9,39.1,38"/>
	<rect x="40.9" y="36.5" class="st0" width="0.3" height="2.7"/>
	<path class="st0" d="M42.9,39c-0.1,0.1-0.2,0.2-0.4,0.2c-0.1,0-0.2,0.1-0.4,0.1c-0.2,0-0.4-0.1-0.5-0.2c-0.1-0.1-0.2-0.2-0.2-0.4
		c0-0.1,0-0.2,0.1-0.3c0-0.1,0.1-0.1,0.2-0.2c0.1,0,0.2-0.1,0.2-0.1c0.1,0,0.2,0,0.3,0c0.3,0,0.5-0.1,0.6-0.1c0,0,0-0.1,0-0.1
		c0-0.1,0-0.2-0.1-0.3c-0.1-0.1-0.2-0.1-0.4-0.1c-0.2,0-0.3,0-0.3,0.1c-0.1,0.1-0.1,0.2-0.2,0.3l-0.3,0c0-0.1,0.1-0.2,0.1-0.3
		c0.1-0.1,0.2-0.2,0.3-0.2c0.1,0,0.3-0.1,0.4-0.1c0.2,0,0.3,0,0.4,0.1c0.1,0,0.2,0.1,0.2,0.1c0,0.1,0.1,0.1,0.1,0.2
		c0,0.1,0,0.2,0,0.3v0.4c0,0.3,0,0.5,0,0.6c0,0.1,0,0.2,0.1,0.2H43C42.9,39.1,42.9,39.1,42.9,39 M42.9,38.2
		c-0.1,0.1-0.3,0.1-0.5,0.1c-0.1,0-0.2,0-0.3,0.1c-0.1,0-0.1,0.1-0.1,0.1c0,0,0,0.1,0,0.2c0,0.1,0,0.2,0.1,0.2
		C42,39,42.1,39,42.3,39c0.1,0,0.2,0,0.3-0.1c0.1-0.1,0.2-0.1,0.2-0.2c0-0.1,0.1-0.2,0.1-0.3V38.2z"/>
	<path class="st0" d="M44,39.2h-0.3v-2.7H44v1c0.1-0.2,0.3-0.3,0.5-0.3c0.1,0,0.2,0,0.3,0.1c0.1,0,0.2,0.1,0.3,0.2
		c0.1,0.1,0.1,0.2,0.2,0.3c0,0.1,0.1,0.3,0.1,0.4c0,0.3-0.1,0.6-0.2,0.8c-0.2,0.2-0.4,0.3-0.6,0.3c-0.2,0-0.4-0.1-0.5-0.3V39.2z
		 M44,38.2c0,0.2,0,0.4,0.1,0.5c0.1,0.2,0.2,0.3,0.4,0.3c0.1,0,0.3-0.1,0.4-0.2c0.1-0.1,0.2-0.3,0.2-0.6c0-0.3-0.1-0.4-0.2-0.6
		c-0.1-0.1-0.2-0.2-0.4-0.2c-0.1,0-0.3,0.1-0.4,0.2C44,37.8,44,38,44,38.2"/>
	<path class="st0" d="M45.6,38.2c0-0.4,0.1-0.6,0.3-0.8c0.2-0.1,0.4-0.2,0.6-0.2c0.3,0,0.5,0.1,0.7,0.3c0.2,0.2,0.3,0.4,0.3,0.7
		c0,0.2,0,0.5-0.1,0.6c-0.1,0.1-0.2,0.3-0.3,0.3c-0.1,0.1-0.3,0.1-0.5,0.1c-0.3,0-0.5-0.1-0.7-0.3C45.6,38.8,45.6,38.6,45.6,38.2
		 M45.9,38.2c0,0.3,0.1,0.4,0.2,0.6c0.1,0.1,0.2,0.2,0.4,0.2c0.2,0,0.3-0.1,0.4-0.2c0.1-0.1,0.2-0.3,0.2-0.6c0-0.2-0.1-0.4-0.2-0.6
		c-0.1-0.1-0.2-0.2-0.4-0.2c-0.2,0-0.3,0.1-0.4,0.2C45.9,37.8,45.9,38,45.9,38.2"/>
	<path class="st0" d="M47.7,39.2v-2H48v0.3c0.1-0.1,0.1-0.2,0.2-0.3c0.1,0,0.1-0.1,0.2-0.1c0.1,0,0.2,0,0.3,0.1l-0.1,0.3
		c-0.1,0-0.2-0.1-0.2-0.1c-0.1,0-0.1,0-0.2,0.1c-0.1,0-0.1,0.1-0.1,0.2c0,0.1-0.1,0.2-0.1,0.4v1H47.7z"/>
	<path class="st0" d="M50.2,39c-0.1,0.1-0.2,0.2-0.4,0.2c-0.1,0-0.2,0.1-0.4,0.1c-0.2,0-0.4-0.1-0.5-0.2c-0.1-0.1-0.2-0.2-0.2-0.4
		c0-0.1,0-0.2,0.1-0.3c0-0.1,0.1-0.1,0.2-0.2c0.1,0,0.2-0.1,0.2-0.1c0.1,0,0.2,0,0.3,0c0.3,0,0.5-0.1,0.6-0.1c0,0,0-0.1,0-0.1
		c0-0.1,0-0.2-0.1-0.3c-0.1-0.1-0.2-0.1-0.4-0.1c-0.2,0-0.3,0-0.3,0.1c-0.1,0.1-0.1,0.2-0.2,0.3l-0.3,0c0-0.1,0.1-0.2,0.1-0.3
		c0.1-0.1,0.2-0.2,0.3-0.2c0.1,0,0.3-0.1,0.4-0.1c0.2,0,0.3,0,0.4,0.1c0.1,0,0.2,0.1,0.2,0.1c0,0.1,0.1,0.1,0.1,0.2
		c0,0.1,0,0.2,0,0.3v0.4c0,0.3,0,0.5,0,0.6c0,0.1,0,0.2,0.1,0.2h-0.3C50.2,39.1,50.2,39.1,50.2,39 M50.1,38.2
		c-0.1,0.1-0.3,0.1-0.5,0.1c-0.1,0-0.2,0-0.3,0.1c-0.1,0-0.1,0.1-0.1,0.1c0,0,0,0.1,0,0.2c0,0.1,0,0.2,0.1,0.2
		c0.1,0.1,0.2,0.1,0.3,0.1c0.1,0,0.2,0,0.3-0.1c0.1-0.1,0.2-0.1,0.2-0.2c0-0.1,0.1-0.2,0.1-0.3L50.1,38.2z"/>
	<path class="st0" d="M52.2,39.2V39c-0.1,0.2-0.3,0.3-0.5,0.3c-0.2,0-0.3,0-0.4-0.1c-0.1-0.1-0.2-0.2-0.3-0.4
		c-0.1-0.2-0.1-0.3-0.1-0.5c0-0.2,0-0.4,0.1-0.5c0.1-0.2,0.2-0.3,0.3-0.4c0.1-0.1,0.3-0.1,0.4-0.1c0.1,0,0.2,0,0.3,0.1
		c0.1,0.1,0.2,0.1,0.2,0.2v-1h0.3v2.7H52.2z M51.1,38.2c0,0.3,0.1,0.4,0.2,0.6c0.1,0.1,0.2,0.2,0.4,0.2c0.1,0,0.3-0.1,0.4-0.2
		c0.1-0.1,0.2-0.3,0.2-0.5c0-0.3-0.1-0.5-0.2-0.6c-0.1-0.1-0.2-0.2-0.4-0.2c-0.1,0-0.3,0.1-0.4,0.2C51.2,37.8,51.1,38,51.1,38.2"/>
	<path class="st0" d="M52.8,38.2c0-0.4,0.1-0.6,0.3-0.8c0.2-0.1,0.4-0.2,0.6-0.2c0.3,0,0.5,0.1,0.7,0.3c0.2,0.2,0.3,0.4,0.3,0.7
		c0,0.2,0,0.5-0.1,0.6c-0.1,0.1-0.2,0.3-0.3,0.3c-0.1,0.1-0.3,0.1-0.5,0.1c-0.3,0-0.5-0.1-0.7-0.3C52.9,38.8,52.8,38.6,52.8,38.2
		 M53.2,38.2c0,0.3,0.1,0.4,0.2,0.6c0.1,0.1,0.2,0.2,0.4,0.2c0.2,0,0.3-0.1,0.4-0.2c0.1-0.1,0.2-0.3,0.2-0.6c0-0.2-0.1-0.4-0.2-0.6
		c-0.1-0.1-0.2-0.2-0.4-0.2s-0.3,0.1-0.4,0.2C53.2,37.8,53.2,38,53.2,38.2"/>
	<path class="st0" d="M54.8,38.6l0.3-0.1c0,0.1,0.1,0.2,0.2,0.3c0.1,0.1,0.2,0.1,0.4,0.1c0.2,0,0.3,0,0.3-0.1
		c0.1-0.1,0.1-0.1,0.1-0.2c0-0.1,0-0.1-0.1-0.2c0,0-0.2-0.1-0.3-0.1c-0.2-0.1-0.4-0.1-0.5-0.2c-0.1,0-0.2-0.1-0.2-0.2
		c0-0.1-0.1-0.2-0.1-0.3c0-0.1,0-0.2,0.1-0.2c0-0.1,0.1-0.1,0.2-0.2c0.1,0,0.1-0.1,0.2-0.1c0.1,0,0.2,0,0.3,0c0.2,0,0.3,0,0.4,0.1
		c0.1,0,0.2,0.1,0.3,0.2c0.1,0.1,0.1,0.2,0.1,0.3l-0.3,0c0-0.1-0.1-0.2-0.1-0.2c-0.1-0.1-0.2-0.1-0.3-0.1c-0.2,0-0.3,0-0.3,0.1
		c-0.1,0.1-0.1,0.1-0.1,0.2c0,0,0,0.1,0,0.1c0,0,0.1,0.1,0.1,0.1c0,0,0.1,0,0.3,0.1c0.2,0.1,0.4,0.1,0.5,0.2c0.1,0,0.2,0.1,0.2,0.2
		c0.1,0.1,0.1,0.2,0.1,0.3c0,0.1,0,0.2-0.1,0.3c-0.1,0.1-0.2,0.2-0.3,0.2c-0.1,0.1-0.3,0.1-0.4,0.1c-0.3,0-0.4-0.1-0.6-0.2
		C55,39,54.9,38.8,54.8,38.6"/>
	<path class="st0" d="M30.3,33.6c-0.1-0.3-0.1-0.7-0.1-1c-0.6,0.7-1.2,1.1-2.2,1.1c-1.2,0-2.2-0.6-2.2-1.8c0-0.9,0.6-1.6,1.6-1.9
		c0.8-0.3,1.9-0.3,2.8-0.4v-0.1c0-0.3,0-0.6-0.2-0.8c-0.2-0.2-0.5-0.3-0.8-0.3c-0.6,0-1.2,0.3-1.2,0.9L26,29.1c0.2-1.5,1.9-2,3.3-2
		c0.7,0,1.7,0.2,2.2,0.6c0.7,0.5,0.6,1.2,0.6,2v2.9c0,0.3,0,0.6,0.1,0.9H30.3z M30.1,30.6c-0.8,0.1-2.2,0.2-2.2,1.2
		c0,0.5,0.3,0.8,0.9,0.8c0.4,0,0.8-0.2,1-0.5c0.3-0.4,0.3-0.8,0.3-1.2V30.6z"/>
	<rect x="33.6" y="25" class="st0" width="2" height="8.5"/>
	<path class="st0" d="M41.2,33.6v-1.1h0c-0.3,0.8-1,1.2-2,1.2c-0.7,0-1.3-0.1-1.7-0.7c-0.4-0.5-0.3-1.1-0.3-1.8v-4h2v4
		c0,0.5,0.1,1,0.8,1c0.5,0,0.8-0.2,1-0.6c0.1-0.3,0.1-0.6,0.1-1v-3.4h2v6.3H41.2z"/>
	<path class="st0" d="M48.8,33.6c-0.1-0.3-0.1-0.7-0.1-1c-0.6,0.7-1.2,1.1-2.2,1.1c-1.2,0-2.2-0.6-2.2-1.8c0-0.9,0.6-1.6,1.6-1.9
		c0.8-0.3,1.9-0.3,2.8-0.4v-0.1c0-0.3,0-0.6-0.2-0.8c-0.2-0.2-0.5-0.3-0.8-0.3c-0.6,0-1.2,0.3-1.2,0.9l-1.9-0.2c0.2-1.5,1.9-2,3.3-2
		c0.7,0,1.7,0.2,2.2,0.6c0.7,0.5,0.6,1.2,0.6,2v2.9c0,0.3,0,0.6,0.1,0.9H48.8z M48.6,30.6c-0.8,0.1-2.2,0.2-2.2,1.2
		c0,0.5,0.3,0.8,0.9,0.8c0.4,0,0.8-0.2,1-0.5c0.3-0.4,0.3-0.8,0.3-1.2V30.6z"/>
	<path class="st0" d="M53.9,27.3v1.2h0c0.2-0.7,0.6-1.4,1.5-1.3l0.3,0V29c-1.5-0.1-1.7,1.1-1.7,2.2v2.4h-2v-6.3H53.9z"/>
</g>
<g>
	<path class="st1" d="M164.8,15.4c0,0.1-0.1,0.1-0.2,0.1l-0.1,0c0,0-0.1,0,0,0.1l0.1,0c0,0,0,0.1,0,0.1l-0.2-0.2l0,0l-0.1-0.1l0,0.1
		c0,0.1-0.1,0.1-0.2,0l-0.2,0c0-0.1,0-0.2,0-0.2c0-0.1,0.1-0.1,0.1-0.1l0.1,0.1l-0.1,0.2l0.2-0.2l0,0c0-0.1,0-0.1,0-0.1l0.1,0
		c0,0,0-0.1,0-0.1c0,0,0,0-0.1,0c0,0.1-0.1,0.1-0.1,0.1h-0.2c-0.1,0-0.2,0-0.2,0.1l-0.2,0l-0.2,0c-0.1,0-0.3,0.1-0.6,0.2
		c-0.3,0.1-0.4,0.2-0.5,0.3l0-0.1l-0.1,0.2l-0.1-0.1l0-0.1l-0.1,0l0,0l-0.1,0.2c-0.1-0.1-0.2-0.1-0.3,0c-0.1,0-0.2,0.1-0.3,0.1
		c0,0.1,0,0.2-0.1,0.2l-0.3,0c0,0-0.1,0.1-0.1,0.2c0,0-0.1-0.1-0.1-0.1c-0.1,0-0.3,0.1-0.4,0.1c-0.1,0.1-0.3,0.1-0.4,0.1
		c-0.1,0.1-0.2,0.1-0.5,0.3c-0.2,0.1-0.3,0.2-0.4,0.3l-0.1-0.1l-0.1,0.3c0,0-0.1,0,0-0.1c0,0-0.1,0-0.2,0.1l-0.2,0.1l-0.3,0.1l0,0.1
		c0,0.1,0,0.1,0,0.1c0,0-0.1,0-0.1-0.1l0-0.1l-0.1,0.2l-0.1-0.1c0.1,0.1,0.1,0.1,0.1,0.2c0,0.1,0,0.1-0.1,0.2
		c-0.2,0.1-0.3,0-0.4-0.1c0-0.1,0.1-0.1,0.1-0.1c0.1,0,0.1,0,0.1,0v0c0,0-0.1,0-0.1,0L157,18c0,0.1-0.1,0.2-0.1,0.2
		c0,0-0.1-0.1-0.1-0.1l0-0.1l-0.2,0.2c-0.1,0.1-0.2,0.2-0.2,0.3l0.1,0c0-0.1,0-0.1,0-0.2l0.1,0l0,0.2c0,0.1,0,0.1,0,0.2
		c0-0.1-0.1-0.1-0.2-0.2c-0.1,0-0.2,0-0.2,0c0.1,0,0.1,0,0.1,0.1v0h0c0.1,0,0.1,0.1,0.1,0.2V19l-0.3-0.2c-0.1-0.1-0.3-0.1-0.4,0
		l0,0.1l0.1,0.1c0,0.1,0,0.1-0.1,0.1l0,0c0,0.1,0,0.1-0.1,0.1l-0.1,0.1c0,0-0.1,0,0,0.1l-0.1,0l0.1,0.1l0,0c0.9,0.1,1.9,0.3,2.9,0.5
		c0.9,0.2,2,0.6,3.1,1.1c1.3,0.5,1.9,0.8,2,0.8l1.9,0.8c1.1,0.4,2.1,0.8,3,1c0.8,0.2,1.6,0.4,2.3,0.5l0,0l0.8,0.1l0,0l0.5,0l0.1,0
		c1.1,0.1,2.1,0,3.1-0.2l-0.1-0.3l-0.1-0.1c-0.1-0.5-0.4-1-0.8-1.5c-0.2-0.2-0.6-0.7-1.1-1.3l-0.2,0l-0.1-0.1
		c-0.1-0.1-0.2-0.2-0.3-0.4c-0.2-0.2-0.4-0.4-0.4-0.4l0,0.1l-0.2-0.3l0,0.1c0-0.1,0-0.1-0.1-0.1c-0.1,0-0.2,0-0.2-0.1
		c0.1-0.1,0.1-0.1,0-0.1c-0.1,0-0.1,0-0.1-0.1c0,0,0,0.1,0,0.1c-0.1,0-0.1-0.1-0.1-0.3c0-0.1-0.1-0.2-0.2-0.2l0,0.1
		c-0.1,0-0.1,0-0.1-0.1v-0.1c0,0,0,0,0,0l0,0.1l-0.4-0.4l0,0c0-0.1-0.1-0.1-0.2-0.1c-0.1,0-0.1,0-0.1-0.1l0,0.1l-0.2-0.2
		c0,0,0,0.1,0,0.1l-0.1,0.1l-0.1,0l0-0.1c0,0,0-0.1,0-0.1l-0.1,0c0,0,0,0.1,0,0.1l-0.1,0.1c-0.1,0-0.3-0.1-0.3-0.3h-0.1l-0.2,0l0,0
		l0.1,0.1c0,0.1,0,0.1,0.1,0.1l0.1,0c0.1,0,0.2,0.1,0.2,0.3c0,0,0.1,0,0.1-0.1h0.2l0,0.1l-0.1,0c0.1,0.1,0,0.1-0.1,0.1l-0.1,0h0.1
		l0.1,0l-0.2,0.2c0,0-0.1,0-0.2,0l-0.2-0.1l0,0.1c0,0,0,0.1-0.1,0.1c-0.1,0-0.1-0.1-0.2-0.2v-0.1c0,0-0.1,0-0.1,0c0,0-0.1,0-0.1,0
		c-0.1,0-0.1,0-0.2-0.1c-0.1-0.1-0.2-0.2-0.2-0.2l0-0.1l0.1,0.1l0-0.2H168c-0.1,0-0.1,0-0.2,0.1l0,0l-0.3-0.2l0.1,0.1
		c0,0-0.1,0-0.1,0.2c0,0.1-0.1,0.2-0.1,0.2c-0.1,0.1-0.2,0.1-0.2-0.1l-0.1-0.3l-0.2,0l-0.1,0l0,0.1l0,0.1c-0.1,0-0.1,0-0.2,0
		l0.1-0.1c0-0.1,0-0.1-0.1-0.1l-0.1,0.3l-0.1-0.2c0-0.1-0.1-0.1-0.1-0.1l0.1,0.2c0,0.1,0,0.1,0,0.2c-0.2,0-0.3-0.1-0.2-0.3
		c-0.1,0-0.1,0-0.1,0.1l-0.1-0.1h-0.2c-0.1-0.1-0.1-0.1-0.2-0.1c0,0,0,0.1,0,0.1l-0.1,0c0-0.2,0-0.2-0.2-0.2c0,0,0,0-0.1,0
		c0,0-0.1,0-0.1-0.1l-0.1,0l-0.1,0c-0.1,0-0.2,0-0.2,0.1l-0.2-0.2l0,0.1l-0.1-0.1c-0.1,0-0.1-0.1-0.1-0.1l-0.1,0.1
		c-0.1,0-0.1,0-0.3-0.1l-0.1-0.1c0,0.1-0.1,0.1-0.2,0.1l-0.2,0l0,0l-0.1-0.1c0,0.1,0,0.1-0.1,0.2l-0.2-0.2l0,0.1c0,0,0,0.1,0,0.1
		c-0.1-0.1-0.1-0.1-0.1-0.2l-0.1,0c0,0-0.1,0-0.1-0.1l0-0.1c0,0-0.1,0.1-0.1,0.1l-0.1-0.1l0.1,0l-0.1-0.1l-0.1,0.2
		c-0.1,0-0.1,0-0.1-0.1c0-0.1,0-0.2,0-0.2l0,0.3c0,0.1,0,0.2-0.1,0.3l-0.1-0.2l-0.2,0.2c0,0-0.1,0-0.1-0.1v0c0,0-0.1,0-0.2,0
		c-0.1,0-0.1,0-0.1,0.1l-0.1-0.1c0-0.1-0.1-0.1-0.2,0v0.1l0.2,0l0,0.1l-0.1,0.1l-0.1,0.1c-0.1,0-0.1,0-0.2-0.1l0-0.1l-0.2-0.1
		c0,0-0.1,0.1-0.1,0.1c0,0-0.1-0.1-0.1-0.1l-0.1,0c0,0,0,0.1,0,0.1l-0.2-0.1l-0.2-0.1l0-0.1c0,0,0-0.1,0-0.1c0.1,0,0.1,0.1,0.1,0.1
		l0.1,0l0-0.1c0.1,0,0.2,0,0.3-0.1c0.1-0.1,0.2-0.2,0.2-0.2l0.2,0.2l0.1-0.2l0.1,0.1l0-0.1l0.1-0.2c0.1,0,0.1,0,0.2,0
		c0,0.1,0,0.1,0,0.1l0.1-0.1c-0.1-0.1-0.1-0.1,0.1-0.1c0.1,0,0.2,0,0.2-0.1l0.2,0.2c0.1,0.1,0.1,0.1,0.2,0.1l-0.2-0.1
		c0-0.1,0-0.2,0.1-0.3l0.2-0.2c0,0,0.1,0,0.1,0.1v0v-0.1l0.1-0.1l0.1,0.1c0.1-0.1,0.2-0.1,0.2,0.1l0,0.1c0,0,0,0,0,0l0-0.2l0.1-0.1
		c0,0,0-0.1,0.1,0c0.1,0,0.1,0.1,0.1,0.1c0,0.1,0,0.1-0.1,0.1c0.1,0.1,0.2,0,0.2-0.1l0.1-0.3c0.1,0.1,0.1,0.1,0.1,0.2l0,0.3l0.1-0.1
		c0,0,0.1,0.1,0.1,0.1c0,0,0,0,0.1,0.1c0,0.1,0,0.1,0,0l-0.1-0.1c0.1,0,0.1-0.1,0.1-0.1c0,0,0.1,0,0.2,0.1l-0.1,0.1l-0.1,0
		c0,0.1,0,0.1,0.1,0.1c0,0,0.1-0.1,0.1-0.1l-0.1,0l0.2-0.3l0.1,0.1c0-0.1,0-0.1,0-0.1c0,0,0.1,0,0.1,0.1l0,0.1l-0.1,0
		c0,0,0.1,0,0.1,0.1l0,0.1l0-0.1l0.1,0l0,0l0-0.1c0.1,0,0.2-0.1,0.2-0.2l0-0.1v-0.1c0,0.1,0,0.3,0,0.3l-0.2,0.2l0.1,0.1l0.2,0
		c0.1,0,0.1,0,0.1-0.1l0.2,0.2l0.1-0.1l0.1,0l0-0.2l-0.1-0.1h0.1v0.1l0.1,0.1c0,0,0.1,0,0,0.1l0,0.1l0.1,0c0,0,0,0,0-0.1l0-0.1
		c0.1-0.1,0.4-0.1,0.6,0.1c0,0,0.1,0,0.1,0l0.1,0.1v0.1c0,0,0,0.1,0,0.1l-0.1,0c0,0,0.1,0,0.2,0l0-0.1c0.1,0,0.1,0.1,0.1,0.1
		c0,0.1,0,0.1,0,0.2c0.1,0,0.1,0,0.2-0.1c0.1-0.1,0.1-0.1,0.2-0.1c0,0,0.1,0.1,0.1,0.1h0.4l-0.1,0.1c0.1,0.1,0.1,0.1,0.2,0.1
		l0.1-0.1c0,0,0.1,0,0.1,0.1l0,0l0.1,0h0.1l-0.1-0.1l0.2-0.4c0,0,0.1,0.1,0.1,0.1c0,0,0.1,0,0.1,0c0,0,0.1,0.1,0.2,0.1l0,0l-0.1-0.2
		c0,0,0.1,0,0.1,0.1l0,0c0.1,0,0.1,0.1,0.1,0.1l0.2,0c0,0,0,0,0.1,0.1v0v0l0.1-0.1c0,0,0,0,0.1,0l0.1,0.1c0,0,0.1,0.1,0.2,0
		c0.1,0,0.1,0,0.1,0l0-0.1c0-0.1,0-0.1,0-0.1l0.1,0.1c0,0.1,0,0.1,0,0.1c0.1,0,0.2,0,0.1,0.1l0,0.1l0.1,0l0.1,0l0.1,0
		c0.1,0,0.1,0,0.1,0.2l0.1,0v-0.1c-0.2-0.2-0.6-0.5-1-0.7c-0.4-0.2-0.8-0.4-1.1-0.5c-0.2-0.1-0.4-0.2-0.7-0.3
		c-0.4-0.1-0.6-0.2-0.7-0.2l0.1,0l-0.1,0.1c-0.1,0-0.1-0.1-0.1-0.1c0,0.1-0.1,0.1-0.2,0c-0.1-0.1-0.1-0.1-0.1-0.1l-0.1,0.2l-0.1-0.2
		c0,0-0.1,0-0.1,0.1c0,0,0,0.1-0.1,0.1c0-0.1-0.1-0.2-0.2-0.2C165,15.5,164.9,15.5,164.8,15.4L164.8,15.4z M164,16l0.1-0.1l-0.1-0.1
		l-0.1,0l0-0.1l0.4,0.1v0.3l-0.1-0.3L164,16L164,16z M164.8,16.1C164.7,16.1,164.7,16.1,164.8,16.1l-0.2-0.6L164.8,16.1L164.8,16.1z
		 M165,16.1l-0.1-0.1h0.2c0.1,0,0.1,0,0.1-0.1c0.1,0.1,0,0.1,0,0.2C165,16,165,16.1,165,16.1L165,16.1z M163.3,16L163.3,16l0,0.2
		L163.3,16L163.3,16z M163.7,15.9L163.7,15.9l0-0.1c0.1,0,0.1,0.1,0.1,0.2L163.7,15.9L163.7,15.9L163.7,15.9z M163.7,16L163.7,16
		l-0.1-0.1v0L163.7,16L163.7,16z M163.6,15.9c0,0,0-0.1,0-0.1C163.6,15.8,163.6,15.9,163.6,15.9L163.6,15.9z M165.4,16l0.1,0l0,0.2
		L165.4,16L165.4,16z M165.7,16L165.7,16l-0.1-0.2h0.1L165.7,16L165.7,16z M166,16.2L166,16.2L166,16.2L166,16.2L166,16.2z
		 M166,16.3L166,16.3h0.1c0,0,0,0.1,0,0.1l0,0.1C166,16.5,166,16.4,166,16.3L166,16.3z M167.1,16.8l-0.1-0.1l-0.1,0.2l0-0.4
		c0.1,0,0.1,0.1,0.2,0.2l0.1-0.1c0,0,0,0,0-0.1l0.2,0.2l0.1-0.1l0,0.1l-0.1,0.1l0,0c0,0-0.1,0-0.1,0.1l0,0.1l-0.1-0.2L167.1,16.8
		L167.1,16.8z M166.4,16.9l-0.1,0l0.1-0.1L166.4,16.9L166.4,16.9z M170.8,18.9h0.1c0,0.1,0,0.1,0,0.2c-0.1,0-0.1,0-0.1-0.1
		c0-0.1,0-0.1-0.1-0.1L170.8,18.9L170.8,18.9z M169.9,18.6C169.9,18.6,169.9,18.7,169.9,18.6l0.1,0.1l-0.1,0.1L169.9,18.6
		L169.9,18.6z M170.2,19.4l-0.2-0.1L170.2,19.4L170.2,19.4L170.2,19.4z M169.4,19.2l0-0.2c0,0,0.1,0,0.1,0L169.4,19.2L169.4,19.2z
		 M170.4,19.7l-0.1,0.1l-0.2-0.1c-0.1-0.1-0.1-0.1-0.1-0.2l0.3,0.3L170.4,19.7L170.4,19.7z M170.7,19.5l0-0.2
		C170.8,19.4,170.8,19.4,170.7,19.5L170.7,19.5L170.7,19.5L170.7,19.5C170.6,19.5,170.7,19.5,170.7,19.5L170.7,19.5z M169,19.5
		l0-0.3c0,0,0,0,0,0.1l0,0.1L169,19.5L169,19.5z M170.5,21.5C170.5,21.4,170.5,21.4,170.5,21.5l-0.1-0.1c0,0.1,0,0.2,0,0.3
		c0,0.1,0,0.1,0,0.2v-0.1l0-0.1c0-0.1,0-0.1,0.1-0.2c-0.1,0-0.1-0.1-0.1-0.1l0-0.1c0,0.1,0.1,0.1,0.1,0.1l0.2,0.2L170.5,21.5
		L170.5,21.5z M169.2,20.6l0.2-0.3l0,0.2L169.2,20.6L169.2,20.6z M166.4,18.7l-0.1-0.2L166.4,18.7L166.4,18.7L166.4,18.7z
		 M172.4,21.5l0-0.3l0.1,0L172.4,21.5L172.4,21.5L172.4,21.5z M158.9,17.6L158.9,17.6c0.1,0,0.2,0,0.2-0.2c0-0.1,0.1-0.2,0.2-0.1
		l-0.1,0.1c0,0,0,0.1,0,0.1c0.1,0,0.2,0,0.2-0.1c0-0.2,0.1-0.3,0.1-0.3v0.1c0.1,0,0.3,0,0.4,0c0.2,0.1,0.3,0.1,0.3,0.1
		c0.1,0.1,0.1,0.1,0.1,0.2l-0.1-0.1c-0.1,0-0.1,0-0.1,0.1c0,0.1,0,0.1,0,0.1l0,0.1l0-0.1c0-0.1-0.1-0.2-0.2-0.2c0,0,0,0.1,0,0.1
		l0,0.1l-0.1-0.1c0,0.1,0,0.1-0.1,0.1c0,0-0.1,0-0.1,0.1v0c-0.2,0-0.3,0.1-0.4,0.2c0,0,0-0.1-0.1-0.1l-0.1,0.2v0v0
		c0,0,0-0.1-0.1-0.1c-0.1,0.2-0.3,0.3-0.5,0.4l-0.4,0c0,0,0.1-0.1,0-0.2c0-0.1,0-0.1,0-0.2l0.1,0.1l0.1-0.2c0-0.1,0-0.1,0-0.2
		c0-0.1,0.1-0.1,0.1-0.1l0.1,0.1l0.1,0C158.9,17.7,159,17.7,158.9,17.6L158.9,17.6z M160.2,16.6l0.1,0.2c-0.1,0-0.1,0-0.1-0.1
		C160.2,16.7,160.2,16.7,160.2,16.6L160.2,16.6z M162.5,16L162.5,16C162.5,15.9,162.5,15.9,162.5,16L162.5,16z M161.1,16.5
		L161.1,16.5c0,0.1-0.1,0.1-0.1,0.1l0-0.1v0H161.1L161.1,16.5l-2.9,1.7c0,0.1,0,0.1,0,0.1l0.1,0.1l-0.2,0l0,0c-0.1,0-0.2,0-0.3,0.1
		c-0.1,0.1-0.2,0.2-0.2,0.3l0,0c0,0-0.1,0.1,0,0.1l0,0.1l-0.1-0.2l-0.1,0.2c0,0-0.1,0-0.1-0.1v-0.2c0,0.1,0,0.1,0.1,0.1
		c0.2-0.1,0.2-0.2,0.3-0.3l-0.1,0l0.2-0.1c0.1-0.1,0.2-0.1,0.2-0.2l0,0l0.1,0c0.1,0,0.1,0,0.1-0.1l0.1,0.1L161.1,16.5L161.1,16.5z"
		/>
	<path class="st1" d="M163.2,17.3l0.2-0.2l0,0l0,0.1c0,0-0.1,0-0.1,0L163.2,17.3L163.2,17.3L163.2,17.3z"/>
	<path class="st1" d="M163.5,17.3L163.5,17.3L163.5,17.3C163.5,17.2,163.5,17.2,163.5,17.3L163.5,17.3z"/>
	<polygon class="st1" points="165.2,16.6 165.3,16.6 165.2,16.6 165.2,16.6 	"/>
	<polygon class="st1" points="168.1,16.8 168.1,16.8 168.1,16.8 168.1,16.8 	"/>
	<path class="st1" d="M167.4,17.1c-0.1,0-0.1,0.1-0.1,0.1C167.3,17.2,167.3,17.2,167.4,17.1L167.4,17.1L167.4,17.1z"/>
	<path class="st1" d="M166.8,18.2l0-0.1C166.8,18.1,166.8,18.2,166.8,18.2L166.8,18.2z"/>
	<path class="st2" d="M165.3,22.5l-1.9-0.8c-0.1,0-0.7-0.3-2-0.8c-1.1-0.5-2.2-0.8-3.1-1.1c-1-0.3-2-0.4-2.9-0.5l-0.5,0h0l-0.2,0
		H154c-1.3,0-2.5,0.2-3.6,0.6l-0.4,0.1c-0.5,0.2-0.8,0.5-1,0.8l-0.7,1.8l-0.9,4.4l-0.1,0.8c0,0.9,0,1.9,0.1,2.8l0.6,3.5l0.1,0.5
		c0.1,0.3,0.4,0.6,0.9,0.9l0.3,0.2c1,0.5,2.1,0.9,3.3,1l-0.5-0.8c-0.2-0.3-0.3-0.5-0.4-0.8l-0.1-0.1h-0.1c0.1,0.2,0.2,0.5,0.4,0.7
		l0.5,0.7c-0.8-0.1-1.6-0.4-2.4-0.7c-1-0.4-1.6-0.9-1.7-1.3l0.1-0.1l0.3-0.3c0.1-0.1,0.3-0.2,0.5-0.3l0.4-0.1l1.3-0.1l-0.4-0.1
		l0.4,0.1h0.1v0l0.1,0l0-0.1l0,0.1l3.6,0.4c6.2,0.9,10,2.3,12.8,3.3c1.6,0.5,3.2,0.7,4.6,0.6c1.1,0,2.1-0.2,3-0.5
		c0.4-0.1,0.8-0.3,1.1-0.5c0.3-0.2,0.5-0.3,0.5-0.5c0,0,0,0,0,0c1-2.1,1.5-4.4,1.7-6.7l0-0.5c0-0.9,0-1.8,0-2.7l-0.7-3.8l-0.1-0.3
		c-0.1-0.2-0.2-0.4-0.5-0.6c-0.3-0.2-0.6-0.4-1-0.6c-1-0.5-2.1-0.7-3.3-0.9l0.1,0.1l0.2,0c0.6,0.6,0.9,1.1,1.1,1.3
		c0.4,0.5,0.7,1,0.8,1.5l0.1,0.1l0.1,0.3c-1,0.2-2,0.3-3.1,0.2l-0.1,0l-0.5,0l-0.8-0.1l-0.2,0l0.2,0l0,0c-0.7-0.1-1.5-0.3-2.3-0.5
		C167.4,23.3,166.4,22.9,165.3,22.5L165.3,22.5z M174.3,22.1c-0.4-0.5-0.8-1-1.3-1.5c0.8,0.1,1.6,0.3,2.4,0.6
		c1.1,0.4,1.8,0.9,1.9,1.5c-0.2,0.4-0.8,0.7-1.8,1l-0.5,0.1C175.1,23.3,174.8,22.7,174.3,22.1L174.3,22.1z M159.9,25.6l0.1,0l0,0.1
		l-1.2,4.2c-0.1,0.4-0.2,0.6-0.4,0.7c-0.2,0.2-0.4,0.2-0.7,0.2l-0.1,0l0-0.2c-0.1-0.5,0-1.2,0.2-2.1c0.2-0.8,0.5-1.6,0.9-2.1
		C159.1,25.8,159.5,25.5,159.9,25.6L159.9,25.6z M173.8,34c0.1,0,0.2,0.1,0.3,0.1c0.1,0.1,0.1,0.2,0,0.3c0,0.1-0.1,0.2-0.2,0.3
		c-0.1,0.1-0.2,0.1-0.4,0.1c-0.1,0-0.2-0.1-0.3-0.1c-0.1-0.1-0.1-0.2,0-0.3c0-0.1,0.1-0.2,0.2-0.3C173.6,34,173.7,34,173.8,34
		L173.8,34z"/>
	<path class="st3" d="M173.1,20.6c0.5,0.5,0.9,0.9,1.3,1.5c0.5,0.7,0.7,1.3,0.8,1.8l0.5-0.1c1-0.3,1.5-0.6,1.8-1
		c-0.2-0.6-0.8-1.1-1.9-1.5C174.7,20.9,173.9,20.7,173.1,20.6L173.1,20.6z"/>
	<path class="st3" d="M160,25.6l-0.1,0c-0.4,0-0.8,0.2-1.2,0.8c-0.4,0.6-0.7,1.3-0.9,2.1c-0.2,0.9-0.2,1.6-0.2,2.1l0,0.2l0.1,0
		c0.3,0,0.5-0.1,0.7-0.2c0.1-0.1,0.2-0.4,0.4-0.7l1.2-4.2L160,25.6L160,25.6z"/>
	<path class="st3" d="M174.1,34.1c-0.1-0.1-0.2-0.1-0.3-0.1c-0.1,0-0.2,0-0.4,0.1c-0.1,0.1-0.2,0.2-0.2,0.3c0,0.1,0,0.2,0,0.3
		c0.1,0.1,0.2,0.1,0.3,0.1c0.1,0,0.2,0,0.4-0.1c0.1-0.1,0.2-0.2,0.2-0.3C174.2,34.3,174.2,34.2,174.1,34.1L174.1,34.1z M173.8,34.1
		l0.2,0c0,0,0.1,0.1,0,0.1c0,0.1,0,0.1-0.1,0.1l-0.1,0c0,0,0.1,0,0.1,0.1c0,0,0,0.1,0,0.1l0,0.1v0l-0.1,0l0-0.1c0-0.1,0-0.1,0-0.1
		l-0.1,0l-0.1,0l-0.1,0.2h-0.1l0.2-0.6L173.8,34.1L173.8,34.1z"/>
	<path class="st3" d="M173.9,34.3C173.9,34.3,173.9,34.2,173.9,34.3l-0.1-0.1l-0.1,0l-0.1,0.2L173.9,34.3
		C173.8,34.4,173.9,34.4,173.9,34.3L173.9,34.3z"/>
	<polygon class="st4" points="171.4,24.1 171.4,24.1 171.9,24.1 171.4,24.1 	"/>
	<path class="st1" d="M156.2,17.6c-0.1,0.1-0.1,0.1-0.1,0l0-0.2l-0.2,0.1l-0.1,0.2l-0.1-0.1c0,0,0,0.1,0,0.1l-0.1,0.1l-0.1,0
		c0,0-0.1,0-0.1,0l0,0.1c-0.1,0-0.2,0.1-0.4,0.3l-0.4,0.4l-0.1-0.1c0,0.1,0,0.2-0.1,0.3c-0.1,0.1-0.2,0.2-0.2,0.2l-0.1,0l-0.2,0.2
		h0.6l0.1-0.1l0.4-0.3l0,0c0,0,0-0.1,0-0.1l0.1,0l0.1-0.1l0.1-0.1c0-0.1,0.1-0.1,0.2-0.2c0.1-0.1,0.2-0.1,0.2-0.2l0.1,0
		c0-0.1,0.1-0.2,0.3-0.3c0.2-0.1,0.3-0.2,0.3-0.3c0,0,0,0,0,0.1v0v0c0-0.1,0-0.1,0.2-0.2c0.1,0,0.1-0.1,0.1-0.1l0-0.1
		c0,0,0-0.1-0.1-0.1l0.1-0.2c0,0,0.1,0.1,0.1,0.2c0.1,0,0.1-0.1,0.1-0.2c-0.1-0.1-0.1-0.2-0.1-0.2h0.1c0-0.1,0-0.1,0-0.2
		c0.1,0,0.1,0.1,0.1,0.2c0,0.1,0,0.2,0,0.2c0-0.1,0.1-0.1,0.1-0.1l0.1,0.1l0.3-0.4c0.1-0.1,0.1-0.2,0.1-0.4l0,0c0,0,0,0-0.1,0
		c-0.1,0-0.2,0.1-0.2,0.2c0,0-0.1-0.1-0.1-0.1c0,0.1-0.1,0.1-0.2,0.2l-0.3,0.1c-0.1,0-0.1,0.1-0.1,0.1c0,0,0,0.1,0,0.1l-0.1,0
		c-0.1,0-0.1,0-0.2,0c-0.1,0-0.1,0.1,0,0.1l0,0c0,0.1,0,0.1,0,0.1l-0.1,0c0,0,0,0.1,0,0.1l-0.1,0.1l-0.1-0.1l0.1-0.2
		c0-0.1,0-0.1,0-0.2l-0.4,0.4l0.2,0c0.1,0,0.1,0,0.1,0.1L156.2,17.6L156.2,17.6z M157.7,16.6v0.1l-0.2,0c-0.1,0-0.1,0-0.1,0.1
		l0.1-0.1l0,0c0-0.1,0-0.1,0.1-0.1C157.6,16.6,157.6,16.6,157.7,16.6L157.7,16.6z"/>
	<polygon class="st1" points="161,16.8 161,16.8 161,16.8 161,16.8 	"/>
	<polygon class="st1" points="155.7,19 155.7,18.9 155.6,19 155.7,19 	"/>
	<path class="st1" d="M155.7,18.9c0,0,0-0.1-0.1-0.1l-0.1,0L155.7,18.9L155.7,18.9L155.7,18.9z"/>
	<polygon class="st1" points="154.9,19.3 154.9,19.3 154.9,19.3 154.9,19.3 	"/>
	<path class="st1" d="M162.2,35.5l-5.7-1.1l-5.5-0.8l0.6,1.5h0l0,0.1c0.1,0.2,0.2,0.5,0.4,0.8l0.5,0.8l0.1,0.2l0.1,0
		c0,0.1,0,0.2,0.2,0.3c0.1,0.1,0.2,0.2,0.2,0.3l0.1,0c0,0,0,0.1,0,0.1l-0.1,0.1l-0.5-0.5l-0.2,0.2c-0.1-0.1-0.1-0.1-0.1-0.2
		c0-0.1,0-0.2,0-0.2c0,0,0,0-0.1,0c0,0,0,0.1-0.1,0L152,37c0,0,0-0.1,0-0.1l0,0l-0.1,0c0-0.1,0-0.2-0.1-0.1l-0.1,0h-0.1
		c0-0.1,0-0.1,0-0.1c0,0,0,0,0,0.1c0,0,0,0-0.1,0L152,37c0,0,0,0.1,0,0.2c0.1,0,0.2,0.1,0.2,0.2l0.2,0.2l0.2-0.2l0,0l-0.1,0.2
		c0,0.1-0.1,0.1-0.1,0.1l0.6,0.5l0-0.1l0.1,0.2c0.2,0.1,0.5,0.3,0.8,0.6l0.8,0.6c0.6,0.5,1.2,0.8,1.7,0.9l0-0.1c0,0,0-0.1,0-0.1
		c0.1,0.2,0.2,0.3,0.5,0.4l0.4,0.1c0.1,0,0.2,0.1,0.3,0.2c0.1,0,0.1,0,0-0.1c0,0,0-0.1,0.1-0.1c0,0.2,0.1,0.2,0.3,0.3l0.2,0
		c0.1,0,0.1,0.1,0.2,0.1l0-0.1l0.2,0.1l0-0.1c0.1,0.1,0.2,0.2,0.5,0.2l0.4,0c0.1,0.1,0.3,0.1,0.4,0.1h0.4c0.3,0,0.6,0.1,0.7,0.2
		c0.1-0.1,0.3-0.1,0.5-0.1c0.2,0.1,0.4,0.1,0.5,0.1l0.1,0c0,0,0-0.1,0.1-0.1l0.1,0.1c0.1,0.1,0.1,0.1,0.2,0l0.1-0.1l0.1,0.1l0.1-0.2
		l0.4,0.1l0.3,0c0,0,0,0,0,0c0,0,0-0.1,0.1-0.1c0,0,0.1,0.1,0.1,0.1l0.1-0.1c0,0,0,0,0.1,0l0-0.1c0,0,0-0.1,0-0.1
		c0,0.1,0.1,0.1,0.2,0.1l0.2,0l0-0.1c0,0,0-0.1,0-0.1l0.1,0.2c0.1-0.1,0.2-0.1,0.4-0.1c0.1,0,0.2,0,0.3,0.1l0.5-0.2
		c0.2-0.1,0.5-0.1,0.7,0c0-0.1,0-0.2,0.1-0.2c0.1,0,0.1-0.1,0.1-0.2c0,0,0,0.1,0.1,0.1c0.1,0,0.1,0.1,0.1,0.1l0.1-0.3
		c0.1,0,0.3,0,0.6-0.1c0.1,0,0.3-0.1,0.4-0.1h-0.1l-0.4,0l0.1-0.1c0.2,0,0.5,0,0.9-0.1l0.9-0.2c0-0.1,0.2-0.2,0.5-0.4
		c0.3-0.2,0.5-0.3,0.5-0.4l0.1,0c0.1-0.1,0.3-0.3,0.6-0.5l0.7-0.5L172,38c-1.4,0-3-0.2-4.6-0.6c-0.6-0.2-1.3-0.4-2.1-0.7l-0.1,0
		l0.1,0L162.2,35.5L162.2,35.5z M155,36L155,36c0,0.1,0,0.2,0.1,0.2l0,0.1c0.1,0.1,0.2,0.1,0.2,0.2H155l-0.1-0.1l0,0v-0.1
		C154.9,36.2,155,36.1,155,36L155,36z M155.3,36.7l0-0.1c0,0,0.1,0.1,0.1,0.2c0,0.1,0.1,0.1,0.2,0.1l-0.1,0.1l0.4,0.4v0v0
		c0,0,0-0.1-0.1-0.1c0,0,0,0.1,0,0.2c0,0.1,0,0.1-0.1,0.1c-0.1-0.1-0.1-0.1-0.1-0.2l0.2-0.2c-0.1,0-0.1,0-0.1-0.1
		c0-0.1,0-0.1-0.1-0.1c-0.1,0-0.1,0.1,0,0.1l0,0l-0.1,0c-0.1,0-0.1-0.1,0-0.1c0-0.1,0.1-0.1,0.1-0.1L155.3,36.7L155.3,36.7
		L155.3,36.7z M156,37.5L156,37.5v-0.1l0.1,0L156,37.5L156,37.5l0.2,0.1l0.1-0.1v0v0.1c0,0.1,0.1,0.1,0.1,0.2l0,0c0,0,0,0,0,0
		l0.1,0.1c0.1,0.1,0.1,0.1,0.1,0.2l0,0l0,0.2c0,0,0-0.1,0-0.1l0,0l-0.3,0c0,0,0-0.1,0-0.2l-0.2-0.1l0,0.3c0-0.1,0-0.2,0-0.3
		L156,37.5L156,37.5L156,37.5z M154.9,36.6c0.1,0,0.1,0,0.1,0l0,0.2C155,36.8,154.9,36.7,154.9,36.6L154.9,36.6z M154.6,36.7
		l-0.1-0.1l0.1,0L154.6,36.7L154.6,36.7z M157.3,38.2C157.3,38.2,157.4,38.2,157.3,38.2l0.1,0.2l-0.1-0.1
		C157.3,38.3,157.3,38.2,157.3,38.2L157.3,38.2z M157.2,38.6L157.2,38.6c-0.1-0.1-0.1-0.2-0.1-0.2c0.1,0,0.2,0,0.2,0.1L157.2,38.6
		L157.2,38.6z M157.4,38.6l0.3,0.1l-0.2,0C157.5,38.7,157.4,38.7,157.4,38.6L157.4,38.6z M158.1,38.7l0,0.2c0,0.1-0.1,0.1-0.1,0
		c0-0.1,0-0.1,0-0.1C158,38.7,158.1,38.7,158.1,38.7L158.1,38.7z M158.3,38.8c0.1,0,0.1,0.1,0,0.1l0,0.2l-0.1,0l-0.1-0.1
		c0,0,0,0,0,0c0.1,0,0.1,0.1,0.1,0c0,0,0-0.1,0-0.1l0,0L158.3,38.8L158.3,38.8z M161.2,40.3L161.2,40.3l0.1,0.2h-0.1L161.2,40.3
		L161.2,40.3z M162.8,40.4L162.8,40.4l-0.2,0L162.8,40.4L162.8,40.4z M160.1,39.5C160.1,39.6,160,39.6,160.1,39.5
		c-0.1-0.1-0.2-0.1-0.2,0l0-0.1C160,39.4,160,39.4,160.1,39.5L160.1,39.5z M159.6,40l0,0.2L159.6,40L159.6,40L159.6,40z M160.1,39.7
		l0.1,0.2c-0.1,0-0.1-0.1-0.1-0.1C160.1,39.8,160.1,39.7,160.1,39.7L160.1,39.7z M159.2,39.3c0-0.1,0-0.1,0-0.1l0.1,0L159.2,39.3
		L159.2,39.3z M159.1,39.6C159.2,39.6,159.2,39.6,159.1,39.6c0.1-0.1,0.1-0.1,0-0.2h0.1l0.2,0c0,0,0,0,0,0.1
		C159.3,39.5,159.3,39.6,159.1,39.6l0.2,0.3c0,0,0-0.1-0.1-0.1c0-0.1,0-0.1-0.1-0.1l-0.2,0.2h0h0l0-0.1c0-0.1,0-0.1,0.1-0.1
		c0,0-0.1,0-0.1,0l0-0.1H159.1L159.1,39.6z M158.9,39.4L158.9,39.4l0.1-0.2C159,39.3,159,39.3,158.9,39.4L158.9,39.4z M158.5,39
		l0.1,0l0.1,0.1L158.5,39L158.5,39z M160.6,40.4L160.6,40.4l-0.1-0.1L160.6,40.4L160.6,40.4z M158,39.3L158,39.3L158,39.3l-0.1,0.1
		l0-0.3L158,39.3L158,39.3z M158.4,39.4l0,0.2l-0.2-0.2L158.4,39.4L158.4,39.4z M155.1,39.4c0-0.1,0-0.2,0.1-0.2L155.1,39.4
		L155.1,39.4z M155.6,39.6L155.6,39.6c0.1,0,0.1,0.1,0.1,0.1l-0.1,0L155.6,39.6L155.6,39.6L155.6,39.6L155.6,39.6z M165.8,39.5
		l0.2,0l-0.2,0.1L165.8,39.5L165.8,39.5z M165.1,40c0,0,0.1-0.1,0.1-0.1c0-0.1,0.1-0.2,0.1-0.2v0.1c0,0,0,0.1,0.1,0.1l0.1,0
		c-0.1,0.1-0.1,0.1-0.2,0.1H165.1L165.1,40z M164,40.3c0-0.1,0-0.1,0.1-0.2c0,0,0.1-0.1,0.2,0l-0.1-0.2c0.1,0,0.1,0,0.1,0.1
		c0,0.1,0,0.1,0.1,0.1l0.2,0c0,0,0,0,0,0l0,0h-0.1l0,0.1l0,0.1c0.1-0.1,0.1,0,0.2,0c0.1,0.1,0.1,0.1,0.1,0.3l-0.2-0.2l-0.1,0.2
		l0-0.1c0-0.1,0-0.1-0.1-0.1l-0.3,0.2l0,0.1h0.1c0,0,0,0.1-0.1,0.2l0.1,0.1l-0.2,0c0-0.1,0.1-0.2,0-0.2l0-0.1l0,0l0,0l-0.1-0.1
		l0.1,0c0,0,0-0.1,0-0.1l-0.1-0.1L164,40.3L164,40.3z M164.6,39.9l0.2,0.1L164.6,39.9L164.6,39.9l-0.8,0.4l0,0.1l0,0.1l-0.2,0
		l0.1-0.2L164.6,39.9L164.6,39.9z"/>
	<polygon class="st5" points="156,37.5 156,37.5 156,37.5 156,37.5 	"/>
	<polygon class="st5" points="159.1,39.9 159,39.9 159.1,39.9 	"/>
	<path class="st3" d="M151.1,33.6l-0.1,0h0l-0.1,0l-1.3,0.1l-0.4,0.1c-0.2,0.1-0.4,0.2-0.5,0.3l-0.3,0.3l-0.1,0.1
		c0.2,0.5,0.7,0.9,1.7,1.3c0.8,0.4,1.6,0.6,2.4,0.7l-0.5-0.7c-0.2-0.2-0.3-0.5-0.4-0.7h0.1L151.1,33.6L151.1,33.6z"/>
	<polygon class="st6" points="150.8,33.6 150.9,33.6 150.9,33.6 150.8,33.6 	"/>
	<polygon class="st1" points="165.8,16.6 165.8,16.6 165.7,16.6 165.7,16.6 165.8,16.7 165.8,16.6 	"/>
	<path class="st1" d="M165.4,16.5L165.4,16.5C165.4,16.6,165.4,16.6,165.4,16.5L165.4,16.5L165.4,16.5z"/>
	<path class="st1" d="M168.8,18.3l0-0.2C168.6,18.1,168.6,18.2,168.8,18.3L168.8,18.3z"/>
	<polygon class="st1" points="168.2,18.2 168.2,18.1 168.1,18.1 168.2,18.2 	"/>
	<path class="st3" d="M163,25c0.1-0.2,0.3-0.3,0.5-0.5l-0.8,0c-0.1,0.2-0.2,0.4-0.3,0.7l-1.5,5.6c-0.1,0.3-0.1,0.6-0.1,0.9
		c0,0.3,0.1,0.5,0.3,0.7l-1.7-0.1c-0.4,0-0.6-0.2-0.6-0.5c-0.3,0.4-0.8,0.5-1.4,0.5c-0.3,0-0.6-0.1-0.9-0.3
		c-0.2-0.1-0.3-0.2-0.5-0.4l0.1,0.1c0.2,0.3,0.5,0.6,0.8,0.8c0.3,0.2,0.6,0.3,0.9,0.3c0.6,0.1,1.1-0.1,1.4-0.4
		c0.1,0.3,0.3,0.5,0.6,0.5l1.7,0.1c-0.2-0.2-0.3-0.4-0.3-0.7c0-0.3,0-0.6,0.1-0.9l1.5-5.6C162.8,25.4,162.9,25.1,163,25L163,25z"/>
	<path class="st5" d="M162.4,25.1c0.1-0.3,0.2-0.5,0.3-0.7v0c0.1-0.2,0.3-0.3,0.5-0.5l-1.8-0.1c-0.4,0-0.7,0.2-0.8,0.6
		c0-0.2-0.1-0.4-0.4-0.5c-0.2-0.1-0.4-0.2-0.6-0.2c-0.7-0.1-1.3,0.1-1.9,0.5c-0.9,0.6-1.6,1.7-2.1,3.2c-0.5,1.5-0.4,2.7,0,3.5
		c0.1,0.1,0.2,0.3,0.3,0.4c0.1,0.1,0.3,0.3,0.5,0.4c0.3,0.2,0.6,0.3,0.9,0.3c0.6,0.1,1.1-0.1,1.4-0.5c0.1,0.3,0.3,0.5,0.6,0.5
		l1.7,0.1c-0.2-0.2-0.3-0.4-0.3-0.7c0-0.3,0-0.6,0.1-0.9L162.4,25.1L162.4,25.1z M159.7,25.1c0.2,0,0.3,0.1,0.4,0.2
		c0.1,0.1,0.1,0.2,0.1,0.4l0,0.1l-1.1,4c-0.1,0.3-0.2,0.6-0.3,0.7c-0.2,0.2-0.4,0.2-0.7,0.2l-0.1,0c-0.2-0.1-0.4-0.3-0.4-0.8
		c-0.1-0.5,0-1.1,0.2-2c0.2-0.8,0.5-1.5,0.9-2.1C158.9,25.3,159.3,25.1,159.7,25.1L159.7,25.1z"/>
	<path class="st3" d="M160.1,25.3c-0.1-0.1-0.2-0.2-0.4-0.2c-0.4,0-0.8,0.2-1.2,0.8c-0.4,0.6-0.7,1.2-0.9,2.1
		c-0.2,0.8-0.2,1.5-0.2,2c0,0.4,0.2,0.7,0.4,0.8l0-0.2c-0.1-0.5,0-1.1,0.2-2c0.2-0.8,0.5-1.5,0.9-2.1c0.4-0.6,0.8-0.8,1.2-0.8l0.1,0
		C160.2,25.5,160.1,25.4,160.1,25.3L160.1,25.3z"/>
	<path class="st5" d="M164.4,24.1c-0.2,0-0.4,0-0.5,0.1c-0.2,0.1-0.3,0.3-0.3,0.5l-1.5,5.4c-0.1,0.5-0.1,1,0,1.4
		c0.1,0.2,0.2,0.4,0.4,0.5c0.2,0.1,0.4,0.2,0.6,0.3c1.2,0.3,2.1,0.1,2.7-0.6c0,0.3,0,0.6-0.2,0.9l-0.1,0.1c-0.2,0.3-0.4,0.5-0.7,0.7
		c-0.3,0.2-0.7,0.3-1.2,0.2l-1.2-0.2c-0.4-0.1-0.7-0.1-0.9,0c-0.2,0.1-0.4,0.3-0.4,0.5l-0.4,1.3l0.5,0c0.5,0,1,0,1.6,0.1l0.8,0.2
		l0.9,0.1c0.7,0,1.3-0.2,1.7-0.6c0.5-0.5,1-1.3,1.4-2.6l1.8-6.9c0.1-0.3,0.2-0.5,0.3-0.7c0.1-0.2,0.2-0.3,0.5-0.5l-1.8-0.1
		c-0.2,0-0.4,0-0.5,0.1c-0.2,0.1-0.3,0.3-0.3,0.5l-1.3,4.9c-0.1,0.4-0.2,0.8-0.4,0.9c-0.2,0.2-0.5,0.3-0.9,0.3l-0.3-0.1
		c-0.2-0.1-0.3-0.3-0.4-0.5c0-0.2,0-0.5,0.1-0.9l1.1-4.2c0.1-0.3,0.2-0.5,0.3-0.7c0.1-0.2,0.3-0.3,0.5-0.5L164.4,24.1L164.4,24.1z"
		/>
	<path class="st3" d="M166.5,24.7l-0.8-0.1c-0.1,0.2-0.2,0.4-0.3,0.7l-1.1,4.2c-0.1,0.4-0.2,0.7-0.1,0.9c0,0.3,0.1,0.4,0.4,0.5
		c0-0.2,0-0.5,0.1-0.9l1.1-4.2c0.1-0.3,0.2-0.5,0.3-0.7C166.2,25,166.3,24.8,166.5,24.7L166.5,24.7z"/>
	<path class="st3" d="M169.7,24.9c-0.1,0.2-0.2,0.4-0.3,0.7l-1.8,6.9c-0.4,1.2-0.8,2.1-1.4,2.6c-0.4,0.4-1,0.6-1.7,0.6l-0.9-0.1
		l-0.8-0.2c-0.5-0.1-1.1-0.1-1.6-0.1l-0.1,0.6c0.7-0.1,1.4-0.1,2.1,0.1l0.8,0.2l0.9,0.1l0.4,0c0.5-0.1,1-0.3,1.3-0.6
		c0.5-0.5,1-1.3,1.3-2.6l1.8-6.9c0.1-0.3,0.2-0.5,0.3-0.7c0.1-0.2,0.3-0.3,0.5-0.5L169.7,24.9L169.7,24.9z"/>
	<path class="st3" d="M165.5,32.6c0.1-0.3,0.2-0.6,0.2-0.9c-0.6,0.7-1.5,0.9-2.7,0.6c-0.2-0.1-0.5-0.2-0.6-0.3
		c0.2,0.4,0.5,0.7,1,0.8c0.9,0.2,1.5,0.2,2.1-0.1L165.5,32.6L165.5,32.6z"/>
	<path class="st5" d="M170.7,22l-0.2,0c-0.1,0-0.1,0.1-0.1,0.2l-0.4,1.3c-0.1,0.3,0,0.4,0.2,0.4l0.2-0.1c0.3-0.1,0.5-0.3,0.8-0.5
		c0.3-0.2,0.5-0.5,0.6-0.7l0.1-0.3l0-0.2c0,0-0.1,0-0.2-0.1L170.7,22L170.7,22z"/>
	<path class="st3" d="M170.4,23.8l-0.1,0.2c-0.1,0.3,0,0.4,0.2,0.4c0.2-0.1,0.4-0.1,0.6-0.3l0.5-0.3c0.2-0.1,0.3-0.3,0.4-0.5
		c0.1-0.2,0.2-0.4,0.2-0.5l0-0.1c0,0-0.1,0-0.2-0.1l-0.3,0c-0.1,0.3-0.3,0.5-0.6,0.7C170.9,23.6,170.7,23.7,170.4,23.8L170.4,23.8z"
		/>
	<path class="st5" d="M172.9,24.6c-0.8-0.1-1.3,0-1.6,0c-0.4,0.1-0.8,0.4-1.1,0.9c-0.3,0.5-0.4,1-0.2,1.6c0.1,0.6,0.5,1.1,0.9,1.5
		l1,1.1c0.2,0.3,0.2,0.6,0.1,1c-0.2,0.4-0.6,0.6-1.2,0.6l-1.3-0.1c-0.4,0-0.6,0.1-0.8,0.5c-0.1,0.2-0.1,0.5-0.3,1l0.5,0l2.5,0.1
		l0.9-0.1c0.7-0.1,1.2-0.4,1.6-1c0.3-0.4,0.5-0.9,0.6-1.5c0-0.4-0.1-0.8-0.3-1.2l0,0c-0.2-0.4-0.5-0.7-0.9-1.1l-0.8-0.7l-0.1-0.1
		c-0.2-0.2-0.3-0.5-0.3-0.7c0-0.4,0.3-0.5,0.6-0.5l1.3,0.1c0.4,0,0.6-0.2,0.7-0.6l0.1-0.3l0.1-0.5L172.9,24.6L172.9,24.6z"/>
	<path class="st3" d="M175,25.2l-0.1,0.3c-0.1,0.4-0.4,0.6-0.7,0.6l-1.3-0.1c-0.4,0-0.6,0.1-0.6,0.5c0,0.2,0.1,0.5,0.3,0.7l0.1,0.1
		c0-0.1,0-0.2,0-0.2c0-0.4,0.2-0.5,0.6-0.5l1.3,0.1c0.3,0,0.5-0.1,0.6-0.3c0.1-0.1,0.1-0.2,0.1-0.3l0.2-0.8L175,25.2L175,25.2z"/>
	<path class="st3" d="M174.6,29.6c-0.1-0.2-0.2-0.4-0.4-0.5l0,0c0.2,0.4,0.3,0.8,0.3,1.2c-0.1,0.6-0.3,1.1-0.6,1.5
		c-0.4,0.5-1,0.8-1.6,1l-0.9,0.1l-2.5-0.1l-0.1,0.5l3,0.2l0.9-0.1c0.7-0.1,1.2-0.4,1.6-1c0.3-0.4,0.5-0.9,0.6-1.5
		C174.9,30.4,174.9,30,174.6,29.6L174.6,29.6z"/>
	<path class="st5" d="M156.9,21.2l-2-0.1c-0.7,0-1.2,0.3-1.4,1L150,34.6l0.5-0.1c0.3-0.1,0.7-0.1,1-0.1l2,0.1c0.7,0.1,1.7,0.3,3,0.7
		l1.3,0.4l0.9,0.2c0.4,0,0.6,0,0.9-0.2c0.2-0.1,0.3-0.3,0.4-0.6l0.2-0.7l0.2-0.7c-0.3,0.1-0.6,0.2-1,0.2c-0.4,0-0.9-0.1-1.4-0.2
		l-0.9-0.3c-0.5-0.2-0.9-0.3-1.1-0.4c-0.8-0.2-1.5-0.4-2.2-0.4h-0.5c0.3-1.2,1.2-4.4,2.7-9.7c0.1-0.4,0.3-0.7,0.5-1
		C156.6,21.5,156.7,21.3,156.9,21.2L156.9,21.2z"/>
	<path class="st3" d="M156.5,21.6c-0.2,0.3-0.4,0.6-0.5,1c-1.5,5.3-2.4,8.5-2.7,9.7h0.5c0.4-1.5,1.2-4.5,2.6-9.2
		c0.2-0.6,0.5-1.1,0.9-1.4L156.5,21.6L156.5,21.6z"/>
	<path class="st3" d="M157.9,35.4l-1.3-0.4c-1.3-0.4-2.3-0.6-3-0.7l-2-0.1c-0.3,0-0.6,0.1-1,0.1l-0.2,0.7c0.5-0.2,1-0.3,1.5-0.3
		l0.2,0l1.8,0.1c0.7,0.1,1.7,0.3,3,0.7c1.2,0.4,2,0.5,2.2,0.6c0.4,0,0.6,0,0.8-0.2c0.2-0.1,0.3-0.3,0.4-0.6l0.4-1.5
		c-0.2,0.1-0.4,0.1-0.5,0.2l-0.2,0.7c-0.1,0.3-0.2,0.5-0.4,0.6c-0.2,0.1-0.5,0.2-0.9,0.2L157.9,35.4L157.9,35.4z"/>
	<polygon class="st1" points="156.1,19.3 156.1,19.3 156.1,19.3 156.1,19.3 	"/>
	<polygon class="st1" points="155.4,19.6 155.3,19.6 155.3,19.6 155.4,19.6 	"/>
	<polygon class="st5" points="156.4,37.3 156.5,37.3 156.4,37.2 156.4,37.3 	"/>
	<polygon class="st5" points="159.4,39.6 159.4,39.6 159.3,39.6 159.4,39.6 	"/>
	<path class="st7" d="M166.3,24.2l-1.7-0.1 M164.5,24.1c-0.2,0-0.4,0-0.5,0.1c-0.1,0.1-0.3,0.3-0.3,0.5 M163.6,24.7l-1.5,5.5
		 M162.1,30.2c-0.1,0.5-0.1,1,0,1.4c0.1,0.2,0.2,0.4,0.4,0.5c0.1,0.1,0.4,0.3,0.6,0.3c1.2,0.3,2.1,0.1,2.7-0.6
		c0,0.3-0.1,0.6-0.2,0.9 M165.6,32.8l-0.1,0.1 M165.5,32.9c-0.2,0.3-0.4,0.5-0.7,0.7c-0.3,0.2-0.7,0.3-1.2,0.2 M163.6,33.9l-1.2-0.2
		 M162.4,33.6c-0.4-0.1-0.7-0.1-0.9,0c-0.2,0.1-0.4,0.3-0.4,0.5 M161.1,34.2l-0.3,1.3l0.5,0 M161.3,35.5c0.5,0,1,0,1.6,0.1
		 M162.9,35.6l0.8,0.2l0.9,0.1 M164.6,35.9c0.7,0,1.3-0.2,1.7-0.6c0.5-0.5,1-1.4,1.3-2.6 M167.6,32.6l1.8-7 M169.4,25.7
		c0.1-0.3,0.2-0.5,0.3-0.7 M169.7,25L169.7,25 M169.7,24.9c0.1-0.2,0.2-0.3,0.5-0.5 M170.2,24.5l-1.7-0.1 M168.4,24.4
		c-0.2,0-0.4,0-0.5,0.1c-0.2,0.1-0.3,0.3-0.3,0.5 M167.5,25l-1.3,4.9 M166.2,29.9c-0.1,0.5-0.2,0.8-0.4,1c-0.2,0.2-0.5,0.3-0.9,0.3
		 M164.9,31.2l-0.3-0.1 M164.6,31.1c-0.2-0.1-0.3-0.3-0.4-0.5c0-0.2,0-0.5,0.1-0.9 M164.4,29.7l1.1-4.3 M165.5,25.4
		c0.1-0.3,0.2-0.5,0.3-0.7 M165.8,24.7L165.8,24.7 M165.8,24.7c0.1-0.2,0.2-0.3,0.5-0.5 M170.2,25.6c0.3-0.5,0.6-0.8,1.1-0.9
		c0.3-0.1,0.9-0.1,1.6,0 M172.9,24.7l2.2,0.1l-0.2,0.8 M174.9,25.6c-0.1,0.4-0.4,0.6-0.7,0.6 M174.2,26.2l-1.3-0.1 M172.9,26.1
		c-0.4,0-0.6,0.1-0.6,0.5c0,0.2,0.1,0.5,0.3,0.7 M172.5,27.3l0.9,0.8 M173.4,28.1c0.4,0.4,0.7,0.7,0.9,1.1 M174.3,29.2L174.3,29.2
		 M174.3,29.2c0.2,0.4,0.3,0.8,0.3,1.2c-0.1,0.6-0.3,1.1-0.6,1.5c-0.4,0.5-1,0.9-1.6,1 M172.4,32.9l-0.9,0.1l-2.9-0.2 M168.5,32.8
		c0.1-0.5,0.2-0.8,0.3-1c0.1-0.4,0.4-0.6,0.8-0.5 M169.6,31.3l1.3,0.1 M170.9,31.4c0.6,0,1-0.1,1.2-0.6c0.1-0.4,0.1-0.7-0.1-1
		 M172,29.8l-1-1.1 M171,28.8c-0.5-0.5-0.8-1-0.9-1.6c-0.2-0.6-0.1-1.2,0.2-1.6 M156.1,22.7c-1.5,5.3-2.4,8.6-2.7,9.8 M153.4,32.4
		h0.5 M153.9,32.4c0.7,0,1.4,0.2,2.2,0.4c0.2,0.1,0.6,0.2,1.1,0.4 M157.2,33.2l0.9,0.3 M158.1,33.5c0.6,0.1,1,0.2,1.4,0.2
		c0.3,0,0.7-0.1,1-0.2 M160.4,33.5l-0.4,1.5 M160.1,34.9c-0.1,0.3-0.2,0.5-0.4,0.6c-0.2,0.1-0.5,0.2-0.9,0.2c-0.1,0-0.5-0.1-0.9-0.2
		 M158,35.6l-1.3-0.4 M156.7,35.2c-1.3-0.4-2.3-0.6-3-0.7 M153.7,34.5l-2-0.1 M151.7,34.4c-0.3,0-0.6,0.1-1,0.2 M150.7,34.6
		l-0.5,0.1l3.5-12.6 M153.7,22.1c0.2-0.7,0.7-1.1,1.3-1 M155,21.1l2,0.1 M157,21.2c-0.1,0.1-0.3,0.3-0.4,0.5c-0.2,0.3-0.4,0.6-0.5,1
		 M158.6,26c0.4-0.6,0.8-0.8,1.2-0.8c0.2,0,0.3,0.1,0.4,0.2c0.1,0.1,0.1,0.2,0.1,0.4 M160.3,25.7l0,0.1l-1.1,4.1 M159.1,29.9
		c-0.1,0.3-0.2,0.6-0.3,0.7c-0.2,0.2-0.4,0.2-0.7,0.2 M158.1,30.8l-0.1,0 M157.9,30.8c-0.2-0.1-0.3-0.3-0.4-0.8
		c-0.1-0.5,0-1.2,0.2-2c0.2-0.8,0.5-1.5,0.9-2.1 M155.8,27.5c-0.5,1.5-0.4,2.7,0,3.6c0.1,0.1,0.2,0.3,0.3,0.4
		c0.1,0.2,0.3,0.3,0.5,0.4c0.3,0.2,0.6,0.3,0.9,0.3c0.6,0.1,1.1-0.1,1.4-0.5c0.1,0.3,0.3,0.5,0.6,0.5 M159.5,32.3l1.7,0.1
		 M161.2,32.4c-0.2-0.2-0.3-0.4-0.3-0.7c0-0.3,0-0.6,0.1-0.9 M160.9,30.8l1.5-5.6 M162.5,25.2c0.1-0.3,0.2-0.5,0.3-0.7 M162.7,24.5
		L162.7,24.5 M162.7,24.5c0.1-0.2,0.3-0.3,0.5-0.5 M163.2,24l-1.7-0.1 M161.5,23.9c-0.4,0-0.7,0.2-0.8,0.6c0-0.2-0.1-0.4-0.4-0.5
		c-0.2-0.1-0.4-0.2-0.6-0.2c-0.7-0.1-1.3,0.1-1.9,0.5c-0.9,0.6-1.6,1.7-2,3.2 M170.5,22.1c-0.1,0-0.1,0.1-0.1,0.2 M170.4,22.3
		l-0.4,1.3 M170,23.6c-0.1,0.3,0,0.4,0.2,0.4c0.1,0,0.1-0.1,0.2-0.1c0.3-0.1,0.5-0.3,0.8-0.5c0.3-0.2,0.5-0.5,0.6-0.7 M171.8,22.7
		l0.1-0.3 M171.9,22.4c0-0.1,0-0.1,0-0.2c0,0-0.1,0-0.2-0.1 M171.8,22.2l-1.1-0.1l-0.2,0"/>
</g>
<g>
	<g>
		<path class="st8" d="M53.3,96.4H52l-0.1-0.9c-0.3,0.3-0.6,0.6-1,0.8c-0.4,0.2-0.8,0.3-1.2,0.3c-1.2,0-2.1-0.4-2.9-1.2
			c-0.7-0.8-1.1-1.8-1.1-2.9c0-1.2,0.4-2.2,1.1-2.9c0.7-0.8,1.7-1.2,2.9-1.2c0.9,0,1.7,0.2,2.4,0.7c0.7,0.5,1.1,1.2,1.2,2.1h-2.1
			c0-0.3-0.2-0.6-0.5-0.8c-0.3-0.2-0.6-0.3-1.1-0.3c-0.6,0-1.1,0.2-1.4,0.7c-0.3,0.5-0.5,1-0.5,1.7c0,0.7,0.2,1.2,0.5,1.7
			c0.3,0.5,0.8,0.7,1.4,0.7c0.5,0,0.9-0.1,1.2-0.3c0.3-0.2,0.5-0.5,0.6-0.9H50v-1.5h3.3V96.4z"/>
		<path class="st8" d="M57.9,88.4c1.2,0,2.2,0.4,2.9,1.2c0.7,0.8,1,1.8,1,3c0,1.2-0.3,2.2-1,3c-0.7,0.8-1.6,1.2-2.9,1.2
			c-1.2,0-2.2-0.4-2.9-1.2c-0.7-0.8-1-1.8-1-3c0-1.2,0.3-2.2,1-3C55.7,88.8,56.7,88.4,57.9,88.4z M57.9,94.8c0.6,0,1.1-0.2,1.4-0.7
			c0.3-0.5,0.5-1,0.5-1.7c0-0.7-0.2-1.2-0.5-1.7c-0.3-0.5-0.8-0.7-1.4-0.7c-0.6,0-1.1,0.2-1.4,0.7c-0.3,0.5-0.5,1-0.5,1.7
			c0,0.7,0.2,1.2,0.5,1.7C56.8,94.6,57.3,94.8,57.9,94.8z"/>
		<path class="st8" d="M62.6,88.5H66c1.2,0,2.2,0.3,2.8,1c0.7,0.7,1,1.7,1,2.9c0,1.3-0.3,2.3-1,3c-0.7,0.7-1.6,1-2.9,1h-3.4V88.5z
			 M64.7,94.7h1c0.8,0,1.3-0.2,1.7-0.5c0.3-0.3,0.5-0.9,0.5-1.7c0-0.7-0.2-1.2-0.6-1.6c-0.4-0.4-0.9-0.5-1.6-0.5h-1V94.7z"/>
		<g>
			<path class="st8" d="M41.1,94.7v-1.6l3,0l-0.2-1.5c0,0-1.2,0-2.7,0v-1.4h4.2v-1.7H39v3.1c-1.6,0-3,0-3.2,0c-1.1,0-2.7,0-2.5-1.2
				c0-0.2,0.2-0.6,1-0.7c0.4,0,0.7,0.1,0.9,0.2c0.2,0.2,0.4,0.4,0.4,0.7h2.1c0-0.8-0.3-1.5-0.9-1.9c-0.6-0.4-1.4-0.6-2.2-0.6
				c-0.9,0-1.6,0.2-2.3,0.6c-0.6,0.4-1,1-1,1.8c0.1,1.9,1.3,2.4,3.2,2.5c0.1,0,0.4,0,0.4,0l4.2,0v3.4h6.4v-1.8H41.1z"/>
			<path class="st8" d="M35.6,93.7c0.2,0.1,0.3,0.3,0.3,0.5c0,0.3-0.1,0.5-0.4,0.6C35.2,95,34.9,95,34.6,95c-0.5,0-0.8-0.1-1.1-0.3
				c-0.3-0.2-0.4-0.3-0.4-0.8H31c0,1,0.3,1.5,1,2c0.6,0.5,1.5,0.7,2.5,0.7c1,0,1.8-0.2,2.5-0.6c0.7-0.4,1-1.1,1-2c0-0.1,0-0.2,0-0.2
				H35.6z"/>
		</g>
	</g>
	<g>
		<path class="st8" d="M23.6,90.7V92h1.2c0,0.3-0.2,0.5-0.5,0.7c-0.3,0.2-0.6,0.3-1,0.3c-0.5,0-0.9-0.2-1.1-0.6
			c-0.2-0.4-0.4-0.8-0.4-1.4c0-0.5,0.1-1,0.4-1.4c0.2-0.4,0.6-0.6,1.1-0.6c0.4,0,0.6,0.1,0.9,0.2c0.2,0.2,0.4,0.4,0.4,0.6h1.7
			c-0.1-0.8-0.4-1.3-0.9-1.7c-0.6-0.4-1.2-0.6-2-0.6c-1,0-1.7,0.3-2.3,1c-0.6,0.6-0.9,1.4-0.9,2.4c0,0.1,0,0.3,0,0.4
			c-0.1-0.1-0.1-0.1-0.2-0.2c-0.3-0.3-0.9-0.5-1.4-0.6c-0.5-0.1-0.9-0.2-1.4-0.4c-0.5-0.1-0.7-0.3-0.7-0.5c0-0.2,0.1-0.3,0.2-0.4
			c0.2-0.1,0.3-0.1,0.6-0.1c0.3,0,0.5,0.1,0.7,0.2c0.2,0.1,0.3,0.3,0.3,0.6H20c0-0.7-0.3-1.2-0.8-1.5c-0.5-0.3-1.1-0.5-1.8-0.5
			c-0.7,0-1.3,0.2-1.8,0.5c-0.5,0.3-0.8,0.8-0.8,1.5c0,0.4,0.1,0.8,0.4,1.1c0.3,0.3,0.6,0.5,1.1,0.7c0.5,0.1,1,0.3,1.5,0.4
			c0.5,0.1,0.8,0.4,0.8,0.6c0,0.2-0.1,0.4-0.3,0.5c-0.2,0.1-0.4,0.2-0.7,0.2c-0.4,0-0.7-0.1-0.9-0.2c-0.2-0.2-0.3-0.4-0.3-0.8h-1.7
			c0,0.8,0.3,1.4,0.8,1.7c0.5,0.4,1.2,0.6,2,0.6c0.8,0,1.7-0.2,2.2-0.5c0.5-0.3,0.8-0.8,0.8-1.5c0.1,0.3,0.3,0.6,0.6,0.8
			c0.6,0.6,1.4,1,2.3,1c0.3,0,0.7-0.1,1-0.2c0.3-0.1,0.6-0.3,0.8-0.6l0.1,0.7h1.1v-3.5H23.6z"/>
		<path class="st8" d="M30,88.8c-1.2-2.8-5.5-3.4-10-1.6c3.5-0.9,7.3-0.4,8.1,2.1c0.8,2.5-1.3,5.9-5.2,7.7c-1.1,0.5-2.1,0.8-3.1,0.9
			c-2.7,0.4-8-0.1-5.7-6.2c-1.5,1.6-2.1,3.7-1.4,5.4c1.3,3,6.2,3.5,11,1.2C28.4,96.1,31.2,91.8,30,88.8z"/>
	</g>
</g>
<g>
	<path id="XMLID_581_" class="st0" d="M138.1,85.3c0,0.8-0.7,1.5-1.5,1.5c-0.8,0-1.5-0.7-1.5-1.5c0-0.8,0.7-1.5,1.5-1.5
		C137.4,83.8,138.1,84.4,138.1,85.3"/>
	<path id="XMLID_580_" class="st0" d="M138.1,101.7c0,0.8-0.7,1.5-1.5,1.5c-0.8,0-1.5-0.7-1.5-1.5c0-0.8,0.7-1.5,1.5-1.5
		C137.4,100.1,138.1,100.8,138.1,101.7"/>
	<path id="XMLID_577_" class="st0" d="M145.9,90.7c-2.5,0-4.4,1.8-4.4,4.2c0,2.4,1.9,4.2,4.4,4.2c2.5,0,4.4-1.8,4.4-4.2
		C150.3,92.5,148.4,90.7,145.9,90.7 M148.1,94.9c0,1.3-1,2.3-2.2,2.3c-1.3,0-2.2-1-2.2-2.3c0-1.3,0.9-2.3,2.2-2.3
		C147.2,92.6,148.1,93.6,148.1,94.9"/>
	<path id="XMLID_576_" class="st0" d="M166,91.9c0-0.8-0.4-1.2-1.1-1.2h-1.6v1.9h0.6v5.2c0,0.8,0.4,1.2,1.1,1.2h1.6v-1.9H166V91.9z"
		/>
	<path id="XMLID_573_" class="st0" d="M158.7,90.7c-2.4,0-4.1,1.7-4.1,4.2c0,2.4,1.8,4.2,4.3,4.2c2,0,3.2-1.2,3.2-1.2l0.1-0.1
		l-0.9-1.5l-0.1,0.1c0,0-0.9,0.8-2.1,0.8c-1.2,0-2-0.7-2.2-1.9h5.4l0-0.1c0,0,0-0.5,0-0.7c0-1.1-0.3-2-0.9-2.7
		C160.7,91.1,159.8,90.7,158.7,90.7 M156.9,93.8c0.2-0.8,0.9-1.3,1.8-1.3c0.7,0,1.3,0.6,1.3,1.3H156.9z"/>
	<path id="XMLID_572_" class="st0" d="M170.1,97.1V89c0-0.8-0.4-1.2-1.2-1.2h-1.6v1.9h0.6v8.1c0,0.8,0.4,1.2,1.2,1.2h1.6v-1.9H170.1
		z"/>
	<path id="XMLID_571_" class="st0" d="M153.6,89c0-0.8-0.4-1.2-1.2-1.2h-1.6v1.9h0.6v8.1c0,0.8,0.4,1.2,1.2,1.2h1.6v-1.9h-0.6V89z"
		/>
	<path id="XMLID_570_" class="st0" d="M135.2,90.9c0-0.6,0.7-1,1.6-1c0.6,0,1.4,0.3,1.4,0.8v0.5h2.4v-1.1c0-1.8-2.3-2.2-3.8-2.2
		c-2.2,0-4.2,1-4.2,3.1c0,3.5,5.7,3.5,5.7,5c0,0.7-0.6,1.1-1.5,1.1c-1.8,0-3.2-1.6-3.2-1.6l-1.3,1.8c0,0,1.5,1.9,4.5,1.9
		c2.3,0,4.1-1.3,4.1-3.3C140.9,92.2,135.2,92.5,135.2,90.9"/>
	<path id="XMLID_544_" class="st0" d="M166.1,88.7c0,0.7-0.5,1.2-1.2,1.2c-0.7,0-1.2-0.5-1.2-1.2c0-0.7,0.5-1.2,1.2-1.2
		C165.6,87.5,166.1,88.1,166.1,88.7"/>
	<g>
		<path id="XMLID_541_" class="st0" d="M173.2,91.1h-0.3v-0.4h1.5c0.6,0,1.1,0.4,1.1,1.1c0,0.7-0.5,1.1-1.1,1.1h-0.7v1.3h-0.5V91.1z
			 M174.3,92.4c0.4,0,0.7-0.3,0.7-0.7c0-0.4-0.3-0.7-0.7-0.7h-0.6v1.3H174.3z"/>
		<path id="XMLID_540_" class="st0" d="M176,92.2c0-0.1,0-0.1-0.1-0.1h-0.2v-0.4h0.5c0.2,0,0.3,0.1,0.3,0.3v0.2c0,0.1,0,0.2,0,0.2h0
			c0.1-0.4,0.4-0.6,0.8-0.6c0.1,0,0.1,0,0.1,0v0.5c0,0-0.1,0-0.1,0c-0.3,0-0.6,0.2-0.7,0.6c0,0.1-0.1,0.3-0.1,0.4v1H176V92.2z"/>
		<path id="XMLID_530_" class="st0" d="M178.8,91.6c0.7,0,1.1,0.5,1.1,1.2c0,0.1,0,0.2,0,0.2H178c0,0.5,0.4,0.8,0.9,0.8
			c0.4,0,0.6-0.2,0.7-0.3l0.2,0.3c-0.1,0.1-0.5,0.4-1,0.4c-0.8,0-1.3-0.6-1.3-1.3C177.5,92.1,178.1,91.6,178.8,91.6 M179.4,92.6
			c0-0.4-0.3-0.6-0.6-0.6c-0.4,0-0.7,0.2-0.7,0.6H179.4z"/>
		<path id="XMLID_529_" class="st0" d="M180.4,92.2c0-0.1,0-0.1-0.1-0.1h-0.2v-0.4h0.5c0.2,0,0.3,0.1,0.3,0.3V92c0,0.1,0,0.1,0,0.1
			h0c0.1-0.3,0.5-0.6,0.8-0.6c0.4,0,0.7,0.2,0.8,0.6h0c0.1-0.3,0.5-0.6,0.9-0.6c0.6,0,0.8,0.3,0.8,0.9v1.1c0,0.1,0,0.1,0.1,0.1h0.2
			v0.4H184c-0.2,0-0.3-0.1-0.3-0.3v-1.2c0-0.3-0.1-0.6-0.4-0.6c-0.3,0-0.6,0.3-0.7,0.6c0,0.1,0,0.2,0,0.3v1.1h-0.5v-1.5
			c0-0.3,0-0.6-0.4-0.6c-0.4,0-0.6,0.3-0.7,0.7c0,0.1,0,0.2,0,0.3v1.1h-0.5V92.2z"/>
		<path id="XMLID_375_" class="st0" d="M185,92.2c0-0.1,0-0.1-0.1-0.1h-0.2v-0.4h0.5c0.2,0,0.3,0.1,0.3,0.3v1.6c0,0.1,0,0.1,0.1,0.1
			h0.2v0.4h-0.5c-0.2,0-0.3-0.1-0.3-0.3V92.2z M185,90.7h0.4v0.5H185V90.7z"/>
		<path id="XMLID_368_" class="st0" d="M186.3,92.2c0-0.1,0-0.1-0.1-0.1H186v-0.4h0.5c0.2,0,0.3,0.1,0.3,0.3v1.2
			c0,0.3,0.1,0.6,0.5,0.6c0.5,0,0.8-0.4,0.8-0.9v-1.2h0.5v2c0,0.1,0,0.1,0.1,0.1h0.2v0.4h-0.5c-0.2,0-0.3-0.1-0.3-0.3v-0.1
			c0-0.1,0-0.1,0-0.1h0c-0.1,0.2-0.4,0.6-0.9,0.6c-0.6,0-0.8-0.3-0.8-0.9V92.2z"/>
		<path id="XMLID_366_" class="st0" d="M189.3,92.2c0-0.1,0-0.1-0.1-0.1H189v-0.4h0.5c0.2,0,0.3,0.1,0.3,0.3V92c0,0.1,0,0.1,0,0.1h0
			c0.1-0.3,0.5-0.6,0.8-0.6c0.4,0,0.7,0.2,0.7,0.6h0c0.1-0.3,0.5-0.6,0.9-0.6c0.6,0,0.8,0.3,0.8,0.9v1.1c0,0.1,0,0.1,0.1,0.1h0.2
			v0.4h-0.5c-0.2,0-0.3-0.1-0.3-0.3v-1.2c0-0.3-0.1-0.6-0.4-0.6c-0.3,0-0.6,0.3-0.7,0.6c0,0.1,0,0.2,0,0.3v1.1H191v-1.5
			c0-0.3,0-0.6-0.4-0.6c-0.4,0-0.6,0.3-0.7,0.7c0,0.1,0,0.2,0,0.3v1.1h-0.5V92.2z"/>
		<path id="XMLID_355_" class="st0" d="M174.7,95.4c1,0,1.8,0.8,1.8,1.8c0,1-0.8,1.8-1.8,1.8s-1.8-0.8-1.8-1.8
			C172.9,96.1,173.7,95.4,174.7,95.4 M174.7,98.5c0.7,0,1.3-0.6,1.3-1.3c0-0.7-0.6-1.3-1.3-1.3c-0.7,0-1.3,0.6-1.3,1.3
			C173.4,97.9,174,98.5,174.7,98.5"/>
		<path id="XMLID_351_" class="st0" d="M177,96.9c0-0.1,0-0.1-0.1-0.1h-0.2v-0.4h0.5c0.2,0,0.3,0.1,0.3,0.3v1.2
			c0,0.3,0.1,0.6,0.5,0.6c0.5,0,0.8-0.4,0.8-0.9v-1.2h0.5v2c0,0.1,0,0.1,0.1,0.1h0.2v0.4h-0.5c-0.2,0-0.3-0.1-0.3-0.3v-0.1
			c0-0.1,0-0.1,0-0.1h0c-0.1,0.2-0.4,0.6-0.9,0.6c-0.6,0-0.8-0.3-0.8-0.9V96.9z"/>
		<path id="XMLID_347_" class="st0" d="M180,96.8h-0.3v-0.4h0.3v-0.7h0.5v0.7h0.6v0.4h-0.6v1.1c0,0.5,0.3,0.6,0.5,0.6
			c0.1,0,0.1,0,0.1,0v0.4c0,0-0.1,0-0.2,0c-0.3,0-1-0.1-1-0.9V96.8z"/>
		<path id="XMLID_346_" class="st0" d="M181.6,95.9c0-0.1,0-0.1-0.1-0.1h-0.2v-0.4h0.5c0.2,0,0.3,0.1,0.3,0.3v2.6
			c0,0.1,0,0.1,0.1,0.1h0.2v0.4h-0.5c-0.2,0-0.3-0.1-0.3-0.3V95.9z"/>
		<path id="XMLID_340_" class="st0" d="M183.9,96.3c0.7,0,1.1,0.5,1.1,1.2c0,0.1,0,0.2,0,0.2h-1.8c0,0.5,0.4,0.8,0.9,0.8
			c0.4,0,0.6-0.2,0.7-0.3l0.2,0.3c-0.1,0.1-0.5,0.4-1,0.4c-0.8,0-1.3-0.6-1.3-1.3C182.6,96.9,183.2,96.3,183.9,96.3 M184.5,97.4
			c0-0.4-0.3-0.6-0.6-0.6c-0.4,0-0.7,0.2-0.7,0.6H184.5z"/>
		<path id="XMLID_339_" class="st0" d="M185.5,96.8h-0.3v-0.4h0.3v-0.7h0.5v0.7h0.6v0.4H186v1.1c0,0.5,0.3,0.6,0.5,0.6
			c0.1,0,0.1,0,0.1,0v0.4c0,0-0.1,0-0.2,0c-0.3,0-1-0.1-1-0.9V96.8z"/>
	</g>
</g>
<g>
	<path class="st0" d="M270,88.4c1.8,0,3-1.3,3.9-3.9c0.5,0,1,0,1.5,0c0.2,1.5-0.5,2.8-2.5,4.8c2.7,1.7,3.3,4.3,3,7.3
		c-0.5,0-1.1,0-1.7,0c0-0.8,0-1.5,0-2.2c-0.1-2.3-2-4.1-4.2-4c0,2.1,0,4.1,0,6.2c-0.6,0-1.1,0-1.7,0c0-4,0-8,0-12.1
		c0.6,0,1.1,0,1.7,0C270,85.8,270,87.1,270,88.4z"/>
	<path class="st0" d="M300.6,89.1c0-0.8,0-1.6,0-2.3c0-0.7,0-1.5,0-2.3c0.6,0,1.1,0,1.8,0c0,0.6,0,1.3,0,1.9c0,2,0,4.1,0,6.1
		c-0.1,2.9-2.7,4.9-5.4,3.9c-2.2-0.8-3.3-3.2-2.5-5.4c0.9-2.2,3.4-3.2,5.5-2.2C300.2,88.9,300.4,88.9,300.6,89.1z M300.6,92.5
		c0-1.3-1.1-2.3-2.4-2.3c-1.3,0-2.3,1.1-2.3,2.4c0,1.3,1.1,2.3,2.4,2.3C299.7,94.8,300.7,93.8,300.6,92.5z"/>
	<path class="st0" d="M307.4,100.3c0-0.5,0-1,0-1.6c2-0.4,2.6-1.6,2.4-2.6c-0.8,0.2-1.7,0.5-2.5,0.4c-2.1-0.1-3.7-1.7-3.8-3.8
		c-0.1-1.4,0-2.8,0-4.2c0.5,0,1.1,0,1.7,0c0,0.4,0,0.8,0,1.2c0,1,0,2.1,0.1,3.1c0.1,1.2,1.2,2,2.4,2c1.2,0,2.1-0.9,2.2-2.1
		c0.1-1.1,0-2.2,0-3.3c0-0.3,0-0.6,0-0.9c0.6,0,1.1,0,1.7,0c0,0.2,0.1,0.3,0.1,0.5c0,2.5,0,4.9,0,7.4
		C311.5,98.7,309.5,100.6,307.4,100.3z"/>
	<path class="st0" d="M283.9,90.4c-0.8,0.7-1.5,1.4-2.2,2.1c-0.7,0.7-1.5,1.4-2.3,2.1c1.7,0.7,3-0.1,3.4-2.1c0.5,0,1,0,1.6,0
		c0.3,1.6-1,3.5-2.8,4c-2,0.6-4.1-0.4-4.9-2.4c-0.8-1.9,0-4.2,1.9-5.2C280.3,87.9,282.6,88.5,283.9,90.4z M278.2,93.1
		c1-1,2-1.9,3-2.9c-0.9-0.3-1.7-0.2-2.4,0.5C278.1,91.5,277.9,92.3,278.2,93.1z"/>
	<path class="st0" d="M294.1,96.7c-0.7-0.4-1.3-0.9-1.9-1.3c-0.7,0.4-1.5,0.9-2.3,1.1c-2.4,0.6-4.6-1-4.9-3.4
		c-0.4-2.2,1.4-4.4,3.7-4.6c2.4-0.2,4.4,1.5,4.5,4c0,0.9,0.3,1.7,1,2.4c0.3,0.4,0.3,1.1,0.4,1.7C294.3,96.5,294.2,96.6,294.1,96.7z
		 M289,94.8c1.3,0,2.3-1.1,2.3-2.4c0-1.3-1.1-2.3-2.3-2.3c-1.3,0-2.4,1-2.3,2.3C286.6,93.8,287.7,94.8,289,94.8z"/>
	<path class="st0" d="M261.4,86.1c2.1,0.5,3.9,3,3.9,5.4c0,2.5-1.7,5-3.9,5.6c0-0.8,0-1.6,0-2.4c0-1.7-0.2-2.2-1.7-3.2
		C262.1,90.3,261.1,88,261.4,86.1z"/>
	<path class="st0" d="M251.4,90.8c1.5-1.4,3-2.9,4.5-4.3c1.1-0.9,2.5-1.1,4-0.9c0,1.3,0.1,2.6,0,3.9c-0.1,0.8-0.8,1.3-1.6,1.4
		c-0.7,0.1-1.5,0.1-2.2,0.1c-1.5,0-3,0-4.5,0C251.5,91,251.5,90.9,251.4,90.8z"/>
	<path class="st0" d="M251.8,92c1.8,0,3.8,0,5.8,0c1.7,0,2.5,0.9,2.5,2.6c0,0.8,0,1.6,0,2.3c0,0.5-0.2,0.7-0.7,0.6
		c-1.3-0.1-2.5-0.3-3.5-1.1C254.5,95,253.1,93.4,251.8,92z"/>
</g>
</svg>
