<?xml version="1.0" encoding="utf-8"?>
<!-- Generator: Adobe Illustrator 24.3.0, SVG Export Plug-In . SVG Version: 6.00 Build 0)  -->
<svg version="1.1" id="Layer_1" xmlns="http://www.w3.org/2000/svg" xmlns:xlink="http://www.w3.org/1999/xlink" x="0px" y="0px"
	 viewBox="0 0 329.2 123.9" style="enable-background:new 0 0 329.2 123.9;" xml:space="preserve">
<style type="text/css">
	.st0{fill:#575756;}
	.st1{fill:#A6A6A6;}
	.st2{fill:none;stroke:#575756;stroke-width:0.3364;stroke-miterlimit:10;}
</style>
<g>
	<g>
		<path class="st0" d="M278.9,26c-0.5,0-1,0-1.5,0c-0.2-0.6,0.2-1.5,0.8-1.9c0.4-0.2,0.8-0.3,1.3-0.4c0.8-0.1,1.6-0.1,2.3,0.2
			c0.7,0.3,1.1,0.8,1.2,1.5c0,0.2,0,0.5,0,0.7c0,1.4,0,2.8,0,4.2c0,0.1,0,0.2,0,0.3c-0.5,0-1,0-1.6,0c0-0.4,0-0.8,0-1.2
			c-0.1,0-0.1,0.1-0.1,0.1c-0.3,0.7-1,1.1-1.7,1.2c-0.5,0.1-1,0.1-1.5-0.1c-0.8-0.3-1.2-0.9-1.2-1.7c0-0.8,0.4-1.4,1.2-1.6
			c0.5-0.2,1.1-0.2,1.7-0.4c0.3-0.1,0.7-0.1,1-0.1c0.5-0.1,0.6-0.2,0.6-0.7c0-0.7-0.3-1.1-1.1-1.1c-0.1,0-0.2,0-0.3,0
			C279.4,25,279,25.1,278.9,26z M281.4,27.5c-0.4,0.1-0.7,0.1-1.1,0.2c-0.4,0.1-0.8,0.1-1.2,0.3c-0.4,0.1-0.5,0.4-0.5,0.7
			c0,0.3,0.2,0.6,0.6,0.7c0.6,0.2,1.1,0.1,1.6-0.2c0.3-0.2,0.5-0.5,0.6-0.9C281.4,28,281.4,27.8,281.4,27.5z"/>
		<path class="st0" d="M294.5,30.6c0-0.4,0-0.8,0-1.1c0,0-0.1,0-0.1,0c-0.5,1-1.3,1.3-2.3,1.3c-0.5,0-0.9-0.1-1.3-0.4
			c-0.7-0.4-0.8-1.1-0.8-1.8c0.1-0.7,0.5-1.1,1.1-1.3c0.5-0.2,1.1-0.2,1.7-0.4c0.3-0.1,0.7-0.1,1-0.2c0.4-0.1,0.6-0.2,0.6-0.7
			c0-0.2-0.1-0.5-0.2-0.7c-0.1-0.3-0.4-0.4-0.7-0.4c-0.3,0-0.6,0-0.9,0c-0.5,0.1-0.6,0.3-0.7,1c-0.5,0-1,0-1.5,0
			c-0.2-0.6,0.2-1.5,0.8-1.9c0.4-0.2,0.8-0.3,1.3-0.4c0.8-0.1,1.5-0.1,2.3,0.2c0.8,0.3,1.2,0.8,1.3,1.6c0,0.4,0,0.8,0,1.2
			c0,1.2,0,2.4,0,3.6c0,0.1,0,0.2,0,0.3C295.5,30.6,295,30.6,294.5,30.6z M294.4,27.5c-0.3,0.1-0.7,0.1-1,0.2
			c-0.4,0.1-0.9,0.1-1.3,0.3c-0.4,0.1-0.5,0.4-0.5,0.7c0,0.3,0.2,0.6,0.6,0.7c0.6,0.2,1.2,0.1,1.7-0.2c0.3-0.2,0.5-0.5,0.5-0.9
			C294.4,28.1,294.4,27.8,294.4,27.5z"/>
		<path class="st0" d="M308.7,30.6c-0.5,0-1,0-1.6,0c0-0.4,0-0.8,0-1.2c0,0-0.1,0-0.1,0c-0.5,1-1.4,1.3-2.4,1.3
			c-0.3,0-0.6-0.1-0.8-0.2c-0.8-0.3-1.2-0.9-1.2-1.7c0-0.8,0.4-1.4,1.2-1.6c0.5-0.2,1.1-0.2,1.7-0.4c0.3-0.1,0.7-0.1,1-0.2
			c0.4-0.1,0.6-0.2,0.6-0.7c0-0.1,0-0.1,0-0.2c-0.1-0.5-0.3-0.8-0.9-0.9c-0.3,0-0.6,0-0.8,0c-0.5,0.1-0.7,0.3-0.7,0.8
			c0,0.1,0,0.1,0,0.2c-0.5,0-1,0-1.5,0c-0.2-0.7,0.2-1.5,0.9-1.9c0.4-0.3,0.9-0.4,1.4-0.4c0.6,0,1.2,0,1.7,0.1
			c1.1,0.2,1.7,0.8,1.7,1.9C308.8,27.3,308.8,28.9,308.7,30.6C308.8,30.6,308.7,30.6,308.7,30.6z M307.1,27.6
			c-0.4,0.1-0.7,0.1-1,0.2c-0.4,0.1-0.9,0.1-1.3,0.3c-0.4,0.1-0.5,0.4-0.5,0.7c0,0.3,0.2,0.6,0.6,0.7c0.6,0.2,1.2,0.1,1.7-0.2
			c0.3-0.2,0.5-0.5,0.5-0.9C307.1,28.1,307.1,27.8,307.1,27.6z"/>
		<path class="st0" d="M311.9,23.8c0,0.5,0,0.9,0,1.4c0,0,0,0,0,0c0,0,0-0.1,0.1-0.1c0.2-0.5,0.5-0.8,0.9-1c0.7-0.4,1.5-0.4,2.2-0.1
			c0.9,0.3,1.3,1.1,1.4,2c0,0.4,0,0.8,0,1.2c0,1.1,0,2.2,0,3.3c0,0.1,0,0.2,0,0.3c-0.4,0-0.7,0-1.1,0c-0.2,0-0.5,0.1-0.6,0
			c-0.1-0.1,0-0.4,0-0.6c0-1.1,0-2.1,0-3.2c0-0.3-0.1-0.7-0.1-1c-0.1-0.4-0.4-0.7-0.9-0.7c-1.1-0.2-1.9,0.4-1.9,1.5
			c0,1.2,0,2.4,0,3.7c0,0.1,0,0.2,0,0.3c-0.6,0-1.1,0-1.7,0c0-0.1,0-0.2,0-0.2c0-2.1,0-4.2,0-6.3c0-0.2,0.1-0.3,0.3-0.3
			C310.9,23.8,311.4,23.8,311.9,23.8z"/>
		<path class="st0" d="M290.3,23.8c-0.2,0.6-0.5,1.2-0.7,1.8c-0.6,1.6-1.2,3.2-1.8,4.8c-0.1,0.2-0.1,0.3-0.3,0.2c-0.6,0-1.1,0-1.7,0
			c-0.1,0-0.2,0-0.2-0.2c-0.8-2.2-1.6-4.3-2.4-6.5c0,0,0-0.1,0-0.1c0.1,0,0.2,0,0.4,0c0.4,0,0.7,0,1.1,0c0.2,0,0.2,0,0.3,0.2
			c0.5,1.6,1.1,3.1,1.6,4.7c0,0.1,0.1,0.2,0.1,0.4c0.1-0.1,0.1-0.2,0.1-0.3c0.5-1.6,1.1-3.1,1.6-4.7c0.1-0.2,0.2-0.3,0.4-0.3
			C289.3,23.8,289.8,23.8,290.3,23.8z"/>
		<path class="st0" d="M299,30.6c-0.5,0-1.1,0-1.6,0c0-3,0-6.1,0-9.1c0.5,0,1.1,0,1.6,0C299,24.5,299,27.6,299,30.6z"/>
		<path class="st0" d="M301.9,30.6c-0.5,0-1.1,0-1.6,0c0-0.1,0-0.2,0-0.2c0-2.1,0-4.2,0-6.3c0-0.2,0.1-0.3,0.3-0.3
			c0.4,0,0.8,0,1.2,0c0.1,0,0.2,0,0.2,0.2c0,2.2,0,4.3,0,6.5C301.9,30.5,301.9,30.6,301.9,30.6z"/>
		<path class="st0" d="M301.1,21c0.5,0,1,0.4,1,0.9c0,0.5-0.4,0.9-0.9,0.9c-0.5,0-0.9-0.4-0.9-0.9C300.2,21.5,300.6,21,301.1,21z"/>
	</g>
	<g>
		<path class="st0" d="M285.2,34.5c0.1,0.1,0.2,0.2,0.2,0.4h-0.2c0-0.1-0.1-0.2-0.1-0.2c-0.1-0.1-0.2-0.1-0.3-0.1
			c-0.2,0-0.3,0.1-0.4,0.2c-0.1,0.1-0.1,0.3-0.1,0.5c0,0.2,0,0.3,0.1,0.4c0.1,0.1,0.2,0.2,0.4,0.2c0.2,0,0.3-0.1,0.4-0.2
			c0-0.1,0.1-0.1,0.1-0.3h0.2c0,0.2-0.1,0.3-0.2,0.4c-0.1,0.1-0.3,0.2-0.5,0.2c-0.2,0-0.3-0.1-0.5-0.2c-0.2-0.1-0.2-0.4-0.2-0.7
			c0-0.2,0.1-0.4,0.2-0.6c0.1-0.2,0.3-0.2,0.5-0.2C284.9,34.4,285.1,34.4,285.2,34.5z"/>
		<path class="st0" d="M287.2,34.6c0.1,0.1,0.2,0.3,0.2,0.5c0,0.2-0.1,0.4-0.2,0.6c-0.1,0.2-0.3,0.3-0.6,0.3c-0.2,0-0.4-0.1-0.6-0.2
			c-0.1-0.2-0.2-0.3-0.2-0.6c0-0.2,0.1-0.4,0.2-0.5c0.1-0.2,0.3-0.3,0.6-0.3C286.8,34.4,287,34.5,287.2,34.6z M287,35.6
			c0.1-0.1,0.1-0.3,0.1-0.5c0-0.2,0-0.3-0.1-0.4c-0.1-0.1-0.2-0.2-0.4-0.2c-0.2,0-0.3,0.1-0.4,0.2c-0.1,0.1-0.2,0.3-0.2,0.5
			c0,0.2,0,0.3,0.1,0.4c0.1,0.1,0.2,0.2,0.4,0.2C286.8,35.8,286.9,35.8,287,35.6z"/>
		<path class="st0" d="M287.8,34.4h0.7c0.2,0,0.3,0.1,0.4,0.2c0,0.1,0.1,0.1,0.1,0.2c0,0.1,0,0.2-0.1,0.2c0,0-0.1,0.1-0.1,0.1
			c0.1,0,0.1,0.1,0.2,0.1c0.1,0.1,0.1,0.2,0.1,0.3c0,0.1,0,0.2-0.1,0.3c-0.1,0.1-0.2,0.2-0.5,0.2h-0.7V34.4z M288.4,35.1
			c0.1,0,0.2,0,0.2,0c0.1,0,0.1-0.1,0.1-0.2s0-0.2-0.1-0.2c0,0-0.1,0-0.2,0H288v0.5H288.4z M288.4,35.8c0.1,0,0.2,0,0.3-0.1
			c0,0,0.1-0.1,0.1-0.2c0-0.1-0.1-0.2-0.2-0.2c-0.1,0-0.1,0-0.2,0H288v0.6H288.4z"/>
		<path class="st0" d="M289.4,34.4h1.1v0.2h-0.9v0.5h0.9v0.2h-0.9v0.5h0.9V36h-1.2V34.4z"/>
		<path class="st0" d="M291.1,34.4h0.7c0.1,0,0.2,0,0.3,0.1c0.1,0.1,0.2,0.2,0.2,0.4c0,0.1,0,0.2-0.1,0.2c0,0.1-0.1,0.1-0.2,0.1
			c0.1,0,0.1,0.1,0.1,0.1c0,0,0,0.1,0.1,0.2l0,0.2c0,0.1,0,0.1,0,0.1c0,0,0,0.1,0.1,0.1v0h-0.3c0,0,0,0,0-0.1c0,0,0-0.1,0-0.1l0-0.3
			c0-0.1,0-0.2-0.1-0.2c0,0-0.1,0-0.2,0h-0.5V36h-0.2V34.4z M291.8,35.1c0.1,0,0.2,0,0.2-0.1c0.1,0,0.1-0.1,0.1-0.2
			c0-0.1,0-0.2-0.1-0.2c0,0-0.1,0-0.2,0h-0.5v0.5H291.8z"/>
		<path class="st0" d="M294,34.4v0.2h-0.5V36h-0.2v-1.4h-0.5v-0.2H294z"/>
		<path class="st0" d="M294.6,34.4v1c0,0.1,0,0.2,0.1,0.3c0.1,0.1,0.2,0.2,0.3,0.2c0.2,0,0.3-0.1,0.4-0.2c0-0.1,0.1-0.2,0.1-0.3v-1
			h0.2v0.9c0,0.2,0,0.3-0.1,0.4c-0.1,0.2-0.3,0.3-0.5,0.3c-0.3,0-0.4-0.1-0.5-0.3c-0.1-0.1-0.1-0.3-0.1-0.4v-0.9H294.6z"/>
		<path class="st0" d="M296.2,34.4h0.7c0.1,0,0.2,0,0.3,0.1c0.1,0.1,0.2,0.2,0.2,0.4c0,0.1,0,0.2-0.1,0.2c0,0.1-0.1,0.1-0.2,0.1
			c0.1,0,0.1,0.1,0.1,0.1c0,0,0,0.1,0.1,0.2l0,0.2c0,0.1,0,0.1,0,0.1c0,0,0,0.1,0.1,0.1v0h-0.3c0,0,0,0,0-0.1c0,0,0-0.1,0-0.1l0-0.3
			c0-0.1,0-0.2-0.1-0.2c0,0-0.1,0-0.2,0h-0.5V36h-0.2V34.4z M296.8,35.1c0.1,0,0.2,0,0.2-0.1c0.1,0,0.1-0.1,0.1-0.2
			c0-0.1,0-0.2-0.1-0.2c0,0-0.1,0-0.2,0h-0.5v0.5H296.8z"/>
		<path class="st0" d="M298.4,34.4h0.2l0.6,1.6h-0.2l-0.2-0.5h-0.6L298,36h-0.2L298.4,34.4z M298.7,35.3l-0.2-0.7l-0.3,0.7H298.7z"
			/>
		<path class="st0" d="M300.2,34.4h0.3l0.5,1.3l0.4-1.3h0.3V36h-0.2v-0.9c0,0,0-0.1,0-0.2c0-0.1,0-0.2,0-0.2l-0.4,1.3h-0.2l-0.5-1.3
			v0c0,0,0,0.1,0,0.2c0,0.1,0,0.1,0,0.2V36h-0.2V34.4z"/>
		<path class="st0" d="M302.3,34.4h1.1v0.2h-0.9v0.5h0.9v0.2h-0.9v0.5h0.9V36h-1.2V34.4z M303.1,34l-0.3,0.3h-0.1l0.2-0.3H303.1z"/>
		<path class="st0" d="M303.9,34.4h0.6c0.2,0,0.4,0.1,0.5,0.2c0.1,0.1,0.2,0.3,0.2,0.5c0,0.2,0,0.3-0.1,0.5
			c-0.1,0.2-0.3,0.4-0.6,0.4h-0.6V34.4z M304.5,35.8c0.1,0,0.1,0,0.2,0c0.1,0,0.1-0.1,0.2-0.2c0-0.1,0.1-0.1,0.1-0.2
			c0-0.1,0-0.1,0-0.2c0-0.2,0-0.3-0.1-0.5c-0.1-0.1-0.2-0.2-0.4-0.2h-0.4v1.2H304.5z"/>
		<path class="st0" d="M305.7,34.4h0.2V36h-0.2V34.4z"/>
		<path class="st0" d="M307.6,34.5c0.1,0.1,0.2,0.2,0.2,0.4h-0.2c0-0.1-0.1-0.2-0.1-0.2c-0.1-0.1-0.2-0.1-0.3-0.1
			c-0.2,0-0.3,0.1-0.4,0.2c-0.1,0.1-0.1,0.3-0.1,0.5c0,0.2,0,0.3,0.1,0.4c0.1,0.1,0.2,0.2,0.4,0.2c0.2,0,0.3-0.1,0.4-0.2
			c0-0.1,0.1-0.1,0.1-0.3h0.2c0,0.2-0.1,0.3-0.2,0.4c-0.1,0.1-0.3,0.2-0.5,0.2c-0.2,0-0.3-0.1-0.5-0.2c-0.2-0.1-0.2-0.4-0.2-0.7
			c0-0.2,0.1-0.4,0.2-0.6c0.1-0.2,0.3-0.2,0.5-0.2C307.3,34.4,307.5,34.4,307.6,34.5z"/>
		<path class="st0" d="M308.7,34.4h0.2l0.6,1.6h-0.2l-0.2-0.5h-0.6l-0.2,0.5h-0.2L308.7,34.4z M309.1,35.3l-0.2-0.7l-0.3,0.7H309.1z
			"/>
	</g>
	<path class="st1" d="M256.2,32.9l7.7-12.2c0.4-0.6,1.4-0.7,1.8,0l7.9,12.3c0.6,0.9-0.4,1.9-1.3,1.5c-3.4-1.6-8.9-2.8-14.7-0.1
		C256.6,34.8,255.6,33.8,256.2,32.9z"/>
	<path class="st0" d="M273.6,32.9l-2.8-4.4c-7.3-1.4-12.5,2.3-14.4,4.1l-0.2,0.2c-0.6,0.9,0.4,1.9,1.3,1.5
		c5.8-2.7,11.3-1.5,14.7,0.1C273.2,34.9,274.1,33.8,273.6,32.9z"/>
</g>
<g>
	<path class="st0" d="M60.7,24.3h-4.6c-0.8,0-1.4,0.6-1.4,1.4v4.6c0,0.8,0.6,1.4,1.4,1.4h4.6c0.8,0,1.4-0.6,1.4-1.4v-4.6
		C62.1,25,61.5,24.3,60.7,24.3 M58.8,29.2h-0.7v-2.4h0.7V29.2z"/>
	<path class="st0" d="M24.8,31.7h6c0.8,0,1.4-0.6,1.4-1.4v-4.6c0-0.8-0.6-1.4-1.4-1.4h-6V31.7z M28.9,29.2h-0.7v-2.4h0.7V29.2z"/>
	<path class="st0" d="M36.8,24.3v4.9h-0.7v-4.9h-3.3v6c0,0.8,0.6,1.4,1.4,1.4h4.6c0.8,0,1.4-0.6,1.4-1.4v-6H36.8z"/>
	<path class="st0" d="M66.8,29.3h-0.7v-2.4h0.7v0.9h3.3v-2c0-0.8-0.6-1.4-1.4-1.4h-4.6c-0.8,0-1.4,0.6-1.4,1.4v4.6
		c0,0.8,0.6,1.4,1.4,1.4h4.6c0.8,0,1.4-0.6,1.4-1.4v-1.8h-3.3V29.3z"/>
	<polygon class="st0" points="52,29.3 52,24.3 48.6,24.3 48.6,31.7 54.1,31.7 54.1,29.3 	"/>
	<path class="st0" d="M47.4,28.5c0.7,0,0.7-0.7,0.7-0.7v-2.1c0-0.8-0.6-1.4-1.4-1.4h-6v7.4H44v-4.9h0.7v4.9h3.3v-2.5
		C48.1,28.5,47.4,28.5,47.4,28.5"/>
	<path class="st0" d="M77.2,28.1c0.7,0,0.7-0.7,0.7-0.7v-3.1h-3.3V27h-0.7v-2.6h-3.1v7.4h3.1v-2.5h0.7v2.5h3.3v-3
		C77.9,28.1,77.2,28.1,77.2,28.1"/>
	<path class="st0" d="M20.3,26.6l-5.8,3.2l-6.2-4v4.9l6.2,4l6.8-3.8v-5.4C21.3,25.5,21.3,26,20.3,26.6"/>
	<path class="st0" d="M15.3,26.5c0,0-0.5-0.2-0.8-0.2c-0.3,0-0.6,0.2-0.6,0.2l-1.5,0.9l-4-2.5l5-3c0,0,0.6-0.4,1.2-0.4
		c0.6,0,1.4,0.4,1.4,0.4l4.4,2.4c0,0,0.6,0.3,0.6,0.5c0,0.3-0.6,0.6-0.6,0.6l-3.2,1.9L15.3,26.5z"/>
	<path class="st0" d="M79.5,23.5c0.1,0,0.3,0,0.5,0c0.3,0,0.5,0.1,0.6,0.2c0.1,0.1,0.2,0.2,0.2,0.4c0,0.3-0.2,0.5-0.4,0.5v0
		c0.2,0.1,0.3,0.2,0.3,0.4c0.1,0.3,0.1,0.5,0.2,0.6h-0.3c0-0.1-0.1-0.2-0.1-0.5c-0.1-0.3-0.2-0.4-0.4-0.4h-0.3v0.9h-0.3V23.5z
		 M79.7,24.4H80c0.3,0,0.5-0.2,0.5-0.4c0-0.3-0.2-0.4-0.5-0.4c-0.1,0-0.2,0-0.3,0V24.4z"/>
	<path class="st2" d="M81.5,24.5c0,0.8-0.6,1.4-1.4,1.4c-0.8,0-1.4-0.6-1.4-1.4c0-0.8,0.6-1.4,1.4-1.4
		C80.8,23.1,81.5,23.7,81.5,24.5"/>
</g>
<g>
	<g>
		<g>
			<polygon class="st0" points="162.2,24.6 152,24.6 152,23.3 161.8,20.3 161.6,18.5 150.2,22 150.2,26.3 160.6,26.3 160.9,28.5 
				150.2,30.1 150.2,31.9 162.8,30 			"/>
			<path class="st0" d="M177.1,29.6l-12.3,1.8l1,9.9h13.8L177.1,29.6z M166.7,33l9-1.3l1.7,8h-10L166.7,33z"/>
			<path class="st0" d="M173.9,14.8L163.3,18l1.2,11.7l12.1-1.8L173.9,14.8z M165.3,19.3l7.3-2.2l2,9.4l-8.4,1.3L165.3,19.3z"/>
			<polygon class="st0" points="152,33.4 150.2,33.6 150.2,41.4 164,41.4 163.8,39.6 152,39.6 			"/>
		</g>
		<g>
			<path class="st0" d="M153.9,35.2v2h1.2v0.3h-1.5v-2.3H153.9z"/>
			<path class="st0" d="M155.3,35.9c0-0.1,0.1-0.3,0.2-0.4c0.1-0.1,0.2-0.2,0.3-0.3c0.1-0.1,0.3-0.1,0.5-0.1c0.2,0,0.3,0,0.5,0.1
				c0.1,0.1,0.3,0.2,0.3,0.3c0.1,0.1,0.2,0.2,0.2,0.4c0,0.1,0.1,0.3,0.1,0.4c0,0.2,0,0.3-0.1,0.4c0,0.1-0.1,0.3-0.2,0.4
				c-0.1,0.1-0.2,0.2-0.3,0.3c-0.1,0.1-0.3,0.1-0.5,0.1c-0.2,0-0.3,0-0.5-0.1c-0.1-0.1-0.3-0.2-0.3-0.3c-0.1-0.1-0.2-0.2-0.2-0.4
				c0-0.1-0.1-0.3-0.1-0.4C155.2,36.2,155.2,36.1,155.3,35.9z M155.5,36.7c0,0.1,0.1,0.2,0.1,0.3c0.1,0.1,0.1,0.2,0.2,0.2
				c0.1,0.1,0.2,0.1,0.4,0.1c0.1,0,0.3,0,0.4-0.1c0.1-0.1,0.2-0.1,0.2-0.2c0.1-0.1,0.1-0.2,0.1-0.3c0-0.1,0-0.2,0-0.3s0-0.2,0-0.3
				c0-0.1-0.1-0.2-0.1-0.3c-0.1-0.1-0.1-0.2-0.2-0.2c-0.1-0.1-0.2-0.1-0.4-0.1c-0.1,0-0.3,0-0.4,0.1c-0.1,0.1-0.2,0.1-0.2,0.2
				c-0.1,0.1-0.1,0.2-0.1,0.3c0,0.1,0,0.2,0,0.3S155.5,36.6,155.5,36.7z"/>
			<path class="st0" d="M157.7,35.5v-0.3h3.3v0.3h-0.8v2H160v-2H157.7z"/>
			<path class="st0" d="M162.3,35.5c-0.1-0.1-0.2-0.1-0.4-0.1c-0.1,0-0.1,0-0.2,0c-0.1,0-0.1,0-0.2,0.1c0,0-0.1,0.1-0.1,0.1
				c0,0.1,0,0.1,0,0.2c0,0.1,0,0.1,0.1,0.2c0,0,0.1,0.1,0.2,0.1c0.1,0,0.1,0.1,0.2,0.1c0.1,0,0.2,0,0.3,0.1c0.1,0,0.2,0,0.3,0.1
				c0.1,0,0.2,0.1,0.2,0.1c0.1,0,0.1,0.1,0.2,0.2c0,0.1,0.1,0.2,0.1,0.3c0,0.1,0,0.2-0.1,0.3c-0.1,0.1-0.1,0.2-0.2,0.2
				c-0.1,0.1-0.2,0.1-0.3,0.1c-0.1,0-0.2,0-0.3,0c-0.1,0-0.2,0-0.4,0c-0.1,0-0.2-0.1-0.3-0.1c-0.1-0.1-0.2-0.1-0.2-0.2
				c-0.1-0.1-0.1-0.2-0.1-0.4h0.3c0,0.1,0,0.2,0.1,0.2c0,0.1,0.1,0.1,0.1,0.2c0.1,0,0.1,0.1,0.2,0.1c0.1,0,0.2,0,0.2,0
				c0.1,0,0.1,0,0.2,0c0.1,0,0.1,0,0.2-0.1c0.1,0,0.1-0.1,0.1-0.1c0-0.1,0.1-0.1,0.1-0.2c0-0.1,0-0.1-0.1-0.2c0,0-0.1-0.1-0.2-0.1
				c-0.1,0-0.1-0.1-0.2-0.1c-0.1,0-0.2,0-0.3-0.1c-0.1,0-0.2,0-0.3-0.1c-0.1,0-0.2-0.1-0.2-0.1c-0.1,0-0.1-0.1-0.2-0.2
				c0-0.1-0.1-0.2-0.1-0.3c0-0.1,0-0.2,0.1-0.3c0-0.1,0.1-0.2,0.2-0.2c0.1-0.1,0.2-0.1,0.3-0.1c0.1,0,0.2,0,0.3,0c0.1,0,0.2,0,0.3,0
				c0.1,0,0.2,0.1,0.3,0.1c0.1,0.1,0.1,0.1,0.2,0.2c0,0.1,0.1,0.2,0.1,0.3h-0.3C162.5,35.7,162.4,35.6,162.3,35.5z"/>
			<polygon class="st0" points="157.7,36.2 157.7,37.5 158,37.5 158,36.5 159,36.5 159,36.2 158.3,36.2 158,36.2 			"/>
		</g>
	</g>
</g>
<g id="XMLID_716_">
	<g id="XMLID_726_">
		<path id="XMLID_746_" class="st0" d="M151.9,96.2h-3.3v-8.3h3.3c1.3,0,2.8,0.5,2.8,2.1c0,0.9-0.6,1.5-1.4,1.8v0
			c1,0.2,1.7,0.8,1.7,1.9C155.1,95.6,153.5,96.2,151.9,96.2 M151.5,89.5h-1v1.7h1.1c0.8,0,1.2-0.3,1.2-0.9
			C152.8,89.7,152.4,89.5,151.5,89.5 M151.7,92.7h-1.1v1.9h1.1c0.6,0,1.4-0.2,1.4-1C153.1,92.9,152.5,92.7,151.7,92.7"/>
		<path id="XMLID_743_" class="st0" d="M157,89.5c-0.6,0-1.1-0.5-1.1-1.1c0-0.6,0.5-1.1,1.1-1.1c0.6,0,1.1,0.5,1.1,1.1
			C158.1,89.1,157.6,89.5,157,89.5 M156,90.4h1.9v5.9H156V90.4z"/>
		<path id="XMLID_742_" class="st0" d="M163,96.2V93c0-0.6-0.2-1.2-0.9-1.2c-0.7,0-1,0.6-1,1.3v3.2h-1.9v-5.9h1.9v0.8h0
			c0.3-0.5,0.9-1,1.8-1c1.6,0,2.1,1.2,2.1,2.4v3.6H163z"/>
		<path id="XMLID_738_" class="st0" d="M169.4,96.2h-3.3v-8.3h3.3c1.3,0,2.8,0.5,2.8,2.1c0,0.9-0.6,1.5-1.4,1.8v0
			c1,0.2,1.7,0.8,1.7,1.9C172.6,95.6,171,96.2,169.4,96.2 M169.1,89.5h-1v1.7h1.1c0.8,0,1.2-0.3,1.2-0.9
			C170.3,89.7,169.9,89.5,169.1,89.5 M169.2,92.7h-1.1v1.9h1.1c0.6,0,1.4-0.2,1.4-1C170.6,92.9,170,92.7,169.2,92.7"/>
		<path id="XMLID_735_" class="st0" d="M173.6,91.2c0.7-0.6,1.7-1,2.6-1c2,0,2.7,1,2.7,3.1v3h-1.8v-0.6h0c-0.3,0.5-1,0.8-1.7,0.8
			c-0.9,0-2.1-0.5-2.1-1.8c0-1.7,2.1-2,3.8-2v-0.1c0-0.6-0.5-0.8-1.1-0.8c-0.6,0-1.1,0.3-1.4,0.6L173.6,91.2z M177.2,93.7h-0.2
			c-0.8,0-1.8,0.1-1.8,0.8c0,0.4,0.4,0.6,0.8,0.6c0.8,0,1.2-0.5,1.2-1.2V93.7z"/>
		<path id="XMLID_732_" class="st0" d="M181,89.5c-0.6,0-1.1-0.5-1.1-1.1c0-0.6,0.5-1.1,1.1-1.1c0.6,0,1.1,0.5,1.1,1.1
			C182.1,89.1,181.6,89.5,181,89.5 M180.1,90.4h1.9v5.9h-1.9V90.4z"/>
		<path id="XMLID_731_" class="st0" d="M187,91.9c-0.2,0-0.3-0.1-0.5-0.1c-1,0-1.4,0.8-1.4,1.3v3h-1.9v-5.9h1.9v0.8h0
			c0.3-0.6,0.9-1,1.6-1c0.2,0,0.3,0,0.4,0L187,91.9z"/>
		<path id="XMLID_728_" class="st0" d="M193.4,93.8h-4.2c0.1,0.6,0.7,1.1,1.4,1.1c0.6,0,1-0.3,1.3-0.6l1.3,0.8
			c-0.6,0.8-1.5,1.2-2.7,1.2c-1.8,0-3.2-1.1-3.2-3.1c0-1.9,1.4-3.1,3.2-3.1c1.7,0,2.9,1.2,2.9,3.2C193.4,93.5,193.4,93.7,193.4,93.8
			 M191.7,92.6c0-0.6-0.4-1.1-1.2-1.1c-0.7,0-1.3,0.5-1.3,1.1H191.7z"/>
		<path id="XMLID_727_" class="st0" d="M197.7,92.1c-0.3-0.3-0.8-0.5-1.2-0.5c-0.4,0-0.7,0.1-0.7,0.5c0,0.3,0.3,0.4,1.1,0.6
			c0.9,0.2,1.9,0.6,1.9,1.8c0,1.5-1.3,2-2.5,2c-1,0-1.9-0.3-2.6-0.9l1.1-1.1c0.3,0.4,0.9,0.7,1.4,0.7c0.3,0,0.7-0.1,0.7-0.5
			c0-0.4-0.4-0.5-1.2-0.7c-0.8-0.2-1.7-0.6-1.7-1.7c0-1.4,1.3-2,2.4-2c0.9,0,1.8,0.3,2.4,0.8L197.7,92.1z"/>
	</g>
	<g id="XMLID_717_">
		<path id="XMLID_725_" class="st0" d="M144.1,90.9c-0.3-0.3-0.6-0.5-1-0.7c0.1-0.3,0.2-0.6,0.2-1c0-0.6-0.3-1.3-0.7-1.7
			c-0.4-0.4-1-0.7-1.7-0.7h0c-0.3,0-0.7,0.1-1,0.2c-0.2-0.4-0.4-0.7-0.7-1c-0.3-0.3-0.6-0.6-1-0.9c0.8-0.5,1.8-0.8,2.7-0.8
			c1.3,0,2.5,0.5,3.4,1.4c0.9,0.9,1.4,2.1,1.4,3.4c0,0.9-0.3,1.8-0.8,2.7C144.8,91.6,144.5,91.2,144.1,90.9"/>
		<path id="XMLID_724_" class="st0" d="M137.4,86.2c-0.3,0.3-0.5,0.6-0.7,1c-0.3-0.1-0.6-0.2-1-0.2c-0.6,0-1.3,0.3-1.7,0.7
			c-0.4,0.4-0.7,1-0.7,1.7c0,0.3,0.1,0.7,0.2,1c-0.4,0.2-0.7,0.4-1,0.7c-0.3,0.3-0.6,0.6-0.9,1c-0.5-0.8-0.8-1.8-0.8-2.7
			c0-1.3,0.5-2.5,1.4-3.4c0.9-0.9,2.1-1.4,3.4-1.4c0.9,0,1.8,0.3,2.7,0.8C138,85.5,137.7,85.8,137.4,86.2"/>
		<path id="XMLID_723_" class="st0" d="M132.6,92.9c0.3,0.3,0.6,0.5,1,0.7c-0.1,0.3-0.2,0.6-0.2,1c0,0.6,0.3,1.3,0.7,1.7
			c0.4,0.4,1,0.7,1.7,0.7c0.3,0,0.7-0.1,1-0.2c0.2,0.4,0.4,0.7,0.7,1c0.3,0.3,0.6,0.6,1,0.9c-0.8,0.5-1.7,0.8-2.6,0.8h0
			c-1.3,0-2.5-0.5-3.4-1.4c-0.9-0.9-1.4-2.1-1.4-3.4c0-0.9,0.3-1.8,0.8-2.7C132,92.3,132.3,92.6,132.6,92.9"/>
		<path id="XMLID_722_" class="st0" d="M139.4,97.7c0.3-0.3,0.5-0.6,0.7-1c0.3,0.1,0.6,0.2,1,0.2c0.6,0,1.3-0.3,1.7-0.7
			c0.4-0.4,0.7-1,0.7-1.7c0-0.3-0.1-0.7-0.2-1c0.4-0.2,0.7-0.4,1-0.7c0.3-0.3,0.6-0.6,0.9-1c0.5,0.8,0.8,1.8,0.8,2.7
			c0,1.3-0.5,2.5-1.4,3.4c-0.9,0.9-2.1,1.4-3.4,1.4h0c-0.9,0-1.8-0.3-2.6-0.8C138.7,98.3,139.1,98,139.4,97.7"/>
		<path id="XMLID_721_" class="st0" d="M139.4,86.2c-0.3-0.3-0.6-0.6-1-0.9c-0.4,0.2-0.7,0.5-1,0.9c-0.3,0.3-0.5,0.6-0.7,1
			c0.3,0.1,0.6,0.3,0.8,0.6c0.3,0.4,0.6,0.9,0.8,1.6c0,0,0,0,0,0c0,0,0,0,0,0c0,0,0,0,0.1,0c0,0,0,0,0,0c0.2-0.7,0.5-1.2,0.8-1.6
			c0.3-0.3,0.5-0.5,0.8-0.6C139.9,86.8,139.6,86.5,139.4,86.2"/>
		<path id="XMLID_720_" class="st0" d="M144.1,90.9c-0.3-0.3-0.6-0.5-1-0.7c-0.1,0.3-0.3,0.6-0.6,0.8c-0.4,0.3-0.9,0.6-1.6,0.8
			c0,0,0,0,0,0c0,0,0,0,0,0.1c0,0,0,0,0,0.1c0,0,0,0,0,0c0.7,0.2,1.2,0.5,1.6,0.8c0.3,0.3,0.5,0.5,0.6,0.8c0.4-0.2,0.7-0.4,1-0.7
			c0.3-0.3,0.6-0.6,0.9-1C144.8,91.6,144.5,91.2,144.1,90.9"/>
		<path id="XMLID_719_" class="st0" d="M135.8,91.9C135.8,91.9,135.9,91.9,135.8,91.9C135.8,91.9,135.8,91.9,135.8,91.9
			c-0.7-0.2-1.2-0.5-1.6-0.8c-0.3-0.3-0.5-0.5-0.6-0.8c-0.4,0.2-0.7,0.4-1,0.7c-0.3,0.3-0.6,0.6-0.9,1c0.2,0.4,0.5,0.7,0.9,1
			c0.3,0.3,0.6,0.5,1,0.7c0.1-0.3,0.3-0.6,0.6-0.8C134.6,92.4,135.1,92.2,135.8,91.9C135.8,92,135.8,92,135.8,91.9
			C135.9,92,135.8,91.9,135.8,91.9"/>
		<path id="XMLID_718_" class="st0" d="M139.2,96.1c-0.3-0.4-0.6-0.9-0.8-1.6c0,0,0,0,0,0c0,0,0,0-0.1,0c0,0,0,0-0.1,0c0,0,0,0,0,0
			c-0.2,0.7-0.5,1.2-0.8,1.6c-0.3,0.3-0.5,0.5-0.8,0.6c0.2,0.4,0.4,0.7,0.7,1c0.3,0.3,0.6,0.6,1,0.9c0.4-0.2,0.7-0.5,1-0.9
			c0.3-0.3,0.5-0.6,0.7-1C139.8,96.6,139.5,96.3,139.2,96.1"/>
	</g>
</g>
<g id="XMLID_646_">
	<g id="XMLID_713_">
		<path id="XMLID_714_" class="st0" d="M253.7,91.7c-0.7-0.6-0.9-1.4-0.9-2.1c0-0.5,0.1-1.3,0.8-1.9c0.5-0.5,1.2-0.8,2.2-0.8
			c0.4,0,0.7,0,1,0.1c0.3,0,0.5,0.1,0.7,0.1c0.1,0,0.1,0,0.1,0.1c0,0.1,0,0.1,0,0.4c0,0.2,0,0.6,0,0.8c0,0.1,0,0.2-0.1,0.2
			c-0.1,0-0.1-0.1-0.1-0.2c0-0.2-0.1-0.5-0.3-0.7c-0.2-0.2-0.8-0.4-1.4-0.4c-0.6,0-1,0.2-1.3,0.4c-0.5,0.5-0.7,1.2-0.7,1.8
			c0,1.7,1.3,2.5,2.2,2.5c0.6,0,1-0.1,1.3-0.4c0.1-0.1,0.2-0.3,0.2-0.5c0-0.1,0-0.1,0.1-0.1c0,0,0.1,0,0.1,0.1
			c0,0.1-0.1,0.7-0.2,0.9c0,0.1-0.1,0.2-0.2,0.2c-0.3,0.1-0.8,0.2-1.3,0.2C255.2,92.5,254.4,92.3,253.7,91.7z"/>
	</g>
	<g id="XMLID_710_">
		<path id="XMLID_711_" class="st0" d="M270,89.1c0-1.1,0-1.3,0-1.5c0-0.2-0.1-0.4-0.2-0.4c-0.1,0-0.2,0-0.3,0c-0.1,0-0.1,0-0.1-0.1
			c0,0,0.1-0.1,0.2-0.1c0.3,0,0.7,0,0.9,0c0.2,0,0.6,0,0.9,0c0.1,0,0.1,0,0.1,0.1c0,0.1,0,0.1-0.1,0.1c-0.1,0-0.1,0-0.2,0
			c-0.2,0-0.2,0.2-0.3,0.4c0,0.2,0,0.4,0,1.5v1.3c0,0.7,0,1.3,0,1.6c0,0.2,0.1,0.3,0.3,0.3c0.1,0,0.3,0,0.4,0c0.1,0,0.1,0,0.1,0.1
			c0,0.1-0.1,0.1-0.1,0.1c-0.5,0-0.9,0-1.1,0c-0.2,0-0.6,0-0.9,0c-0.1,0-0.1,0-0.1-0.1c0,0,0-0.1,0.1-0.1c0.1,0,0.2,0,0.3,0
			c0.1,0,0.2-0.2,0.2-0.4c0-0.3,0-0.9,0-1.6V89.1z"/>
	</g>
	<g id="XMLID_707_">
		<path id="XMLID_708_" class="st0" d="M274,91.4c0,0.6,0.1,0.7,0.2,0.8c0.1,0,0.3,0.1,0.4,0.1c0.1,0,0.1,0,0.1,0.1
			c0,0.1-0.1,0.1-0.2,0.1c-0.5,0-0.7,0-0.9,0c-0.1,0-0.4,0-0.8,0c-0.1,0-0.2,0-0.2-0.1c0,0,0-0.1,0.1-0.1c0.1,0,0.2,0,0.3,0
			c0.2-0.1,0.2-0.3,0.2-0.9l0.1-4.2c0-0.1,0-0.2,0.1-0.2c0.1,0,0.1,0.1,0.3,0.2c0.1,0.1,1.2,1.3,2.2,2.3c0.5,0.5,1.4,1.5,1.6,1.6h0
			l-0.1-3.2c0-0.4-0.1-0.6-0.2-0.6c-0.1,0-0.3,0-0.4,0c-0.1,0-0.1,0-0.1-0.1c0-0.1,0.1-0.1,0.2-0.1c0.4,0,0.7,0,0.9,0
			c0.1,0,0.3,0,0.7,0c0.1,0,0.2,0,0.2,0.1c0,0,0,0.1-0.1,0.1c-0.1,0-0.1,0-0.2,0c-0.2,0.1-0.3,0.2-0.3,0.6l-0.1,4.5
			c0,0.2,0,0.2-0.1,0.2c-0.1,0-0.2-0.1-0.2-0.2c-0.4-0.4-1.4-1.4-2.1-2.1c-0.8-0.8-1.6-1.7-1.7-1.8h0L274,91.4z"/>
	</g>
	<g id="XMLID_703_">
		<path id="XMLID_704_" class="st0" d="M283,92.1c-1.4,0-2.2-1.2-2.2-2.7c0-1.8,0.9-2.2,1.7-2.2c1.2,0,2.1,1,2.1,2.6
			C284.7,91.9,283.5,92.1,283,92.1z M282.7,92.5c1.8,0,2.9-1.3,2.9-2.9c0-1.6-1.1-2.7-2.9-2.7c-2.1,0-2.9,1.6-2.9,2.8
			C279.8,90.9,280.7,92.5,282.7,92.5z"/>
	</g>
	<g id="XMLID_700_">
		<path id="XMLID_701_" class="st0" d="M291.9,87c0-0.1,0.1-0.2,0.1-0.2c0.1,0,0.1,0,0.2,0.2l1.9,4l1.9-4.1c0-0.1,0.1-0.2,0.2-0.2
			c0.1,0,0.1,0.1,0.1,0.2l0.6,4.4c0.1,0.4,0.1,0.7,0.3,0.7c0.2,0.1,0.4,0.1,0.4,0.1c0.1,0,0.1,0,0.1,0.1c0,0.1-0.1,0.1-0.2,0.1
			c-0.2,0-1.2,0-1.4,0c-0.2,0-0.2,0-0.2-0.1c0,0,0-0.1,0.1-0.1c0,0,0.1-0.1,0-0.3l-0.4-3.1h0l-1.6,3.2c-0.2,0.3-0.2,0.4-0.3,0.4
			c-0.1,0-0.1-0.1-0.2-0.4c-0.2-0.3-0.7-1.4-0.8-1.6c-0.1-0.2-0.5-1-0.7-1.6h0l-0.4,2.8c0,0.1,0,0.2,0,0.3c0,0.1,0.1,0.2,0.2,0.2
			c0.1,0,0.2,0,0.3,0c0.1,0,0.1,0,0.1,0.1c0,0.1-0.1,0.1-0.2,0.1c-0.3,0-0.6,0-0.7,0c-0.1,0-0.5,0-0.7,0c-0.1,0-0.1,0-0.1-0.1
			c0,0,0-0.1,0.1-0.1c0.1,0,0.1,0,0.2,0c0.2,0,0.3-0.3,0.3-0.6L291.9,87z"/>
	</g>
	<g id="XMLID_696_">
		<path id="XMLID_697_" class="st0" d="M300.5,90.2C300.5,90.2,300.5,90.1,300.5,90.2l0.6-1.8c0,0,0-0.1,0-0.1c0,0,0,0,0,0.1
			l0.6,1.8c0,0,0,0,0,0H300.5z M302,90.5C302,90.5,302,90.5,302,90.5l0.6,1.6c0,0.1,0,0.1-0.1,0.2c-0.1,0-0.1,0-0.1,0.1
			c0,0.1,0.1,0.1,0.2,0.1c0.6,0,1.1,0,1.3,0c0.3,0,0.3,0,0.3-0.1c0-0.1,0-0.1-0.1-0.1c-0.1,0-0.2,0-0.3,0c-0.2,0-0.4-0.1-0.6-0.8
			c-0.5-1.1-1.6-4-1.8-4.4c-0.1-0.2-0.1-0.2-0.2-0.2c-0.1,0-0.1,0.1-0.2,0.3l-1.8,4.5c-0.1,0.4-0.3,0.6-0.6,0.6c-0.1,0-0.2,0-0.2,0
			c-0.1,0-0.1,0-0.1,0.1c0,0.1,0,0.1,0.1,0.1c0.4,0,0.8,0,0.8,0c0.2,0,0.5,0,0.8,0c0.1,0,0.1,0,0.1-0.1c0,0,0-0.1-0.1-0.1h-0.1
			c-0.2,0-0.3-0.1-0.3-0.2c0-0.1,0-0.3,0.1-0.4l0.4-1c0,0,0-0.1,0.1-0.1H302z"/>
	</g>
	<g id="XMLID_691_">
		<g id="XMLID_694_">
			<polygon id="XMLID_695_" class="st0" points="287.9,77.9 288.3,74.5 291.8,74.1 288.3,73.6 287.9,70.2 287.4,73.6 284,74.1 
				287.4,74.5 			"/>
		</g>
		<g id="XMLID_692_">
			<polygon id="XMLID_693_" class="st0" points="291.8,78 288.8,74.1 291.8,70.2 287.9,73.2 284,70.2 287,74.1 277.3,84.7 287.9,75 
							"/>
		</g>
	</g>
	<path id="XMLID_689_" class="st0" d="M272.9,96l-0.5,0c-0.2,0-0.3,0-0.3,0.1c0,0.1-0.1,0.1-0.1,0.1c0,0,0,0,0,0c0,0,0,0,0-0.1
		c0-0.1,0.1-0.4,0.1-0.4c0,0,0-0.1,0-0.1c0,0,0.1,0,0.2,0c0.1,0,0.2,0,0.4,0h1.4c0.1,0,0.2,0,0.2,0c0.1,0,0.1,0,0.1,0c0,0,0,0,0,0.1
		c0,0.1,0,0.3,0,0.4c0,0,0,0.1,0,0.1c0,0,0,0,0-0.1l0,0c0-0.1-0.1-0.2-0.4-0.2l-0.4,0v1.5c0,0.3,0,0.6,0,0.8c0,0.1,0,0.2,0.1,0.2
		c0,0,0.1,0,0.2,0c0,0,0.1,0,0.1,0c0,0,0,0-0.1,0c-0.2,0-0.5,0-0.6,0c-0.1,0-0.3,0-0.4,0c0,0-0.1,0-0.1,0c0,0,0,0,0.1,0
		c0.1,0,0.1,0,0.1,0c0.1,0,0.1-0.1,0.1-0.2c0-0.1,0-0.4,0-0.8V96z"/>
	<path id="XMLID_687_" class="st0" d="M275.7,96.9c0-0.5,0-0.6,0-0.7c0-0.1,0-0.2-0.2-0.2c0,0-0.1,0-0.1,0c0,0-0.1,0-0.1,0
		c0,0,0,0,0.1,0c0.1,0,0.2,0,0.3,0c0.1,0,0.2,0,0.2,0c0.1,0,0.8,0,0.9,0c0.1,0,0.1,0,0.2,0c0,0,0,0,0.1,0c0,0,0,0,0,0
		c0,0,0,0.1,0,0.2c0,0,0,0.2,0,0.2c0,0,0,0,0,0c0,0,0,0,0,0c0,0,0-0.1,0-0.1c0-0.1-0.1-0.1-0.2-0.1c-0.1,0-0.4,0-0.5,0c0,0,0,0,0,0
		V97c0,0,0,0,0,0c0.1,0,0.5,0,0.6,0c0.1,0,0.1,0,0.2-0.1c0,0,0,0,0.1,0c0,0,0,0,0,0c0,0,0,0.1,0,0.3c0,0.1,0,0.2,0,0.2
		c0,0,0,0.1,0,0.1c0,0,0,0,0,0c0,0,0-0.1,0-0.1c0-0.1-0.1-0.1-0.2-0.1c-0.1,0-0.4,0-0.5,0c0,0,0,0,0,0v0.3c0,0.1,0,0.4,0,0.5
		c0,0.2,0.1,0.3,0.4,0.3c0.1,0,0.2,0,0.3,0c0.1,0,0.1-0.1,0.2-0.3c0,0,0-0.1,0-0.1c0,0,0,0,0,0.1c0,0.1,0,0.3,0,0.4
		c0,0.1-0.1,0.1-0.2,0.1c-0.3,0-0.5,0-0.6,0c-0.2,0-0.3,0-0.4,0c0,0-0.1,0-0.2,0c-0.1,0-0.2,0-0.2,0c0,0-0.1,0-0.1,0c0,0,0,0,0.1,0
		c0.1,0,0.1,0,0.1,0c0.1,0,0.1-0.1,0.1-0.2c0-0.1,0-0.4,0-0.8V96.9z"/>
	<path id="XMLID_685_" class="st0" d="M279.3,97.5c0,0.5,0,0.7,0.1,0.8c0.1,0.1,0.2,0.1,0.4,0.1c0.2,0,0.3,0,0.4-0.1
		c0,0,0.1-0.1,0.1-0.2c0,0,0-0.1,0-0.1c0,0,0,0,0,0.1c0,0,0,0.3-0.1,0.4c0,0.1,0,0.1-0.2,0.1c-0.3,0-0.4,0-0.6,0c-0.2,0-0.3,0-0.4,0
		c0,0-0.1,0-0.2,0c-0.1,0-0.2,0-0.2,0c0,0-0.1,0-0.1,0c0,0,0,0,0.1,0c0.1,0,0.1,0,0.1,0c0.1,0,0.1-0.1,0.1-0.2c0-0.1,0-0.4,0-0.8
		v-0.6c0-0.5,0-0.6,0-0.7c0-0.1,0-0.2-0.2-0.2c0,0-0.1,0-0.1,0c0,0-0.1,0-0.1,0c0,0,0,0,0.1,0c0.2,0,0.4,0,0.5,0c0.1,0,0.3,0,0.5,0
		c0,0,0.1,0,0.1,0c0,0,0,0-0.1,0c0,0-0.1,0-0.1,0c-0.1,0-0.1,0.1-0.1,0.2c0,0.1,0,0.2,0,0.7V97.5z"/>
	<path id="XMLID_682_" class="st0" d="M283.8,97c-0.1-0.2-0.2-0.3-0.2-0.5c0-0.3,0.2-0.7,0.9-0.7c0.2,0,0.3,0,0.4,0.1
		c0.1,0,0.1,0,0.1,0.1c0,0.1,0,0.4,0,0.5c0,0.1,0,0.1,0,0.1c0,0,0,0,0-0.1c0-0.1,0-0.2-0.1-0.3c-0.1-0.1-0.2-0.2-0.4-0.2
		c-0.1,0-0.4,0.1-0.4,0.4c0,0.3,0.3,0.6,0.6,0.9c0.1,0.1,0.6,0.5,0.6,0.6c0.1-0.1,0.2-0.3,0.2-0.5c0-0.1,0-0.1-0.1-0.2
		c0,0-0.1-0.1-0.2-0.1c0,0,0,0,0,0c0,0,0,0,0.1,0c0.1,0,0.2,0,0.4,0c0.1,0,0.1,0,0.1,0.1c0,0.3-0.1,0.6-0.3,0.8
		c0.2,0.2,0.4,0.3,0.5,0.3c0.1,0.1,0.3,0.1,0.4,0.1c0,0,0,0,0,0c0,0,0,0-0.1,0h-0.3c-0.4,0-0.5,0-0.8-0.3c-0.1,0.1-0.4,0.3-0.8,0.3
		c-0.8,0-1-0.5-1-0.8C283.2,97.4,283.6,97.1,283.8,97z M284.9,98.1c-0.2-0.2-0.5-0.5-0.6-0.6c-0.1-0.1-0.3-0.4-0.4-0.4
		c-0.1,0.1-0.2,0.3-0.2,0.5c0,0.4,0.3,0.7,0.7,0.7C284.6,98.3,284.8,98.2,284.9,98.1z"/>
	<path id="XMLID_680_" class="st0" d="M289.2,98.2c-0.3-0.3-0.4-0.7-0.4-1c0-0.2,0.1-0.7,0.4-1c0.3-0.2,0.6-0.4,1.1-0.4
		c0.2,0,0.4,0,0.5,0c0.1,0,0.2,0.1,0.4,0.1c0,0,0.1,0,0.1,0c0,0,0,0.1,0,0.2c0,0.1,0,0.3,0,0.4c0,0.1,0,0.1,0,0.1c0,0,0,0,0-0.1
		c0-0.1,0-0.2-0.1-0.3c-0.1-0.1-0.4-0.2-0.7-0.2c-0.3,0-0.5,0.1-0.7,0.2c-0.3,0.2-0.3,0.6-0.3,0.9c0,0.8,0.6,1.3,1.1,1.3
		c0.3,0,0.5,0,0.6-0.2c0.1-0.1,0.1-0.2,0.1-0.2c0-0.1,0-0.1,0-0.1c0,0,0,0,0,0.1c0,0,0,0.4-0.1,0.5c0,0.1,0,0.1-0.1,0.1
		c-0.1,0.1-0.4,0.1-0.6,0.1C289.9,98.6,289.5,98.5,289.2,98.2z"/>
	<path id="XMLID_677_" class="st0" d="M293.1,97.6C293,97.6,293,97.6,293.1,97.6l-0.2,0.5c0,0.1-0.1,0.2-0.1,0.2
		c0,0.1,0,0.1,0.1,0.1h0.1c0,0,0.1,0,0.1,0c0,0,0,0-0.1,0c-0.1,0-0.3,0-0.4,0c0,0-0.2,0-0.4,0c0,0-0.1,0-0.1,0c0,0,0,0,0,0
		c0,0,0.1,0,0.1,0c0.2,0,0.2-0.1,0.3-0.3l0.9-2.2c0-0.1,0.1-0.1,0.1-0.1c0,0,0.1,0,0.1,0.1c0.1,0.2,0.7,1.6,0.9,2.2
		c0.1,0.3,0.2,0.4,0.3,0.4c0.1,0,0.1,0,0.1,0c0,0,0,0,0,0c0,0,0,0-0.2,0c-0.1,0-0.4,0-0.7,0c-0.1,0-0.1,0-0.1,0c0,0,0,0,0,0
		c0,0,0,0,0-0.1l-0.3-0.7c0,0,0,0,0,0H293.1z M293.8,97.4C293.8,97.4,293.8,97.4,293.8,97.4l-0.3-0.9c0,0,0,0,0,0c0,0,0,0,0,0
		l-0.3,0.9c0,0,0,0,0,0H293.8z"/>
	<path id="XMLID_675_" class="st0" d="M296,98.5c-0.1,0-0.1,0-0.1-0.1c0-0.2,0-0.4,0-0.5c0-0.1,0-0.1,0-0.1c0,0,0,0,0,0.1
		c0,0,0,0.1,0,0.2c0.1,0.3,0.3,0.4,0.5,0.4c0.3,0,0.5-0.2,0.5-0.4c0-0.2-0.1-0.3-0.3-0.6l-0.2-0.1c-0.4-0.3-0.5-0.6-0.5-0.8
		c0-0.4,0.3-0.7,0.8-0.7c0.2,0,0.4,0,0.5,0.1c0,0,0,0,0,0c0,0,0,0.1,0,0.4c0,0.1,0,0.1,0,0.1c0,0,0,0,0-0.1c0,0,0-0.1-0.1-0.2
		c-0.1-0.1-0.2-0.2-0.4-0.2c-0.3,0-0.4,0.2-0.4,0.4c0,0.2,0.1,0.3,0.4,0.5l0.1,0.1c0.4,0.3,0.6,0.6,0.6,0.9c0,0.2-0.1,0.4-0.3,0.6
		c-0.2,0.1-0.4,0.1-0.6,0.1C296.3,98.6,296.2,98.5,296,98.5z"/>
	<path id="XMLID_673_" class="st0" d="M299.1,96.9c0-0.5,0-0.6,0-0.7c0-0.1,0-0.2-0.1-0.2c0,0-0.1,0-0.1,0c0,0-0.1,0-0.1,0
		c0,0,0,0,0.1,0c0.1,0,0.4,0,0.5,0c0.1,0,0.3,0,0.4,0c0,0,0.1,0,0.1,0c0,0,0,0-0.1,0c0,0-0.1,0-0.1,0c-0.1,0-0.1,0.1-0.1,0.2
		c0,0.1,0,0.2,0,0.7v0.6c0,0.3,0,0.6,0,0.8c0,0.1,0,0.2,0.1,0.2c0,0,0.1,0,0.2,0c0,0,0.1,0,0.1,0c0,0,0,0-0.1,0c-0.2,0-0.5,0-0.6,0
		c-0.1,0-0.3,0-0.4,0c0,0-0.1,0-0.1,0c0,0,0,0,0.1,0c0.1,0,0.1,0,0.1,0c0.1,0,0.1-0.1,0.1-0.2c0-0.1,0-0.4,0-0.8V96.9z"/>
	<g id="XMLID_670_">
		<path id="XMLID_671_" class="st0" d="M309.5,91.9c0,0.2,0,0.2-0.1,0.3c-0.5,0.2-1.2,0.3-1.7,0.3c-1.7,0-3.3-0.8-3.3-2.8
			c0-1.1,0.6-1.9,1.2-2.3c0.7-0.4,1.3-0.5,1.9-0.5c0.5,0,1.1,0.1,1.3,0.1c0.1,0,0.4,0.1,0.6,0.1c0.1,0,0.1,0,0.1,0.1
			c0,0.1-0.1,0.3-0.1,1.2c0,0.1,0,0.1-0.1,0.1c0,0-0.1,0-0.1-0.1c0-0.2-0.1-0.4-0.2-0.6c-0.2-0.2-0.8-0.6-1.6-0.6
			c-0.4,0-0.9,0-1.4,0.4c-0.4,0.3-0.7,0.9-0.7,1.7c0,1.5,1,2.7,2.5,2.7c0.2,0,0.4,0,0.6-0.1c0.1,0,0.1-0.1,0.1-0.3v-0.7
			c0-0.4,0-0.6,0-0.8c0-0.2-0.1-0.4-0.3-0.4c-0.1,0-0.2,0-0.3,0c-0.1,0-0.1,0-0.1-0.1c0-0.1,0.1-0.1,0.1-0.1c0.4,0,0.8,0,1,0
			c0.2,0,0.6,0,0.8,0c0.1,0,0.1,0,0.1,0.1c0,0,0,0.1-0.1,0.1c-0.1,0-0.1,0-0.2,0c-0.2,0-0.3,0.2-0.3,0.4c0,0.2,0,0.5,0,0.9V91.9z"/>
	</g>
	<g id="XMLID_667_">
		<path id="XMLID_668_" class="st0" d="M311.9,89.1c0-1.1,0-1.3,0-1.5c0-0.2-0.1-0.4-0.2-0.4c-0.1,0-0.2,0-0.3,0
			c-0.1,0-0.1,0-0.1-0.1c0,0,0.1-0.1,0.2-0.1c0.3,0,0.7,0,0.9,0c0.2,0,0.6,0,0.9,0c0.1,0,0.1,0,0.1,0.1c0,0.1,0,0.1-0.1,0.1
			c-0.1,0-0.1,0-0.2,0c-0.2,0-0.2,0.2-0.3,0.4c0,0.2,0,0.4,0,1.5v1.3c0,0.7,0,1.3,0,1.6c0,0.2,0.1,0.3,0.3,0.3c0.1,0,0.3,0,0.4,0
			c0.1,0,0.1,0,0.1,0.1c0,0.1-0.1,0.1-0.1,0.1c-0.5,0-0.9,0-1.1,0c-0.2,0-0.6,0-0.9,0c-0.1,0-0.1,0-0.1-0.1c0,0,0-0.1,0.1-0.1
			c0.1,0,0.2,0,0.3,0c0.1,0,0.2-0.2,0.2-0.4c0-0.3,0-0.9,0-1.6V89.1z"/>
	</g>
	<g id="XMLID_664_">
		<path id="XMLID_665_" class="st0" d="M315.6,91.7c-0.7-0.6-0.9-1.4-0.9-2.1c0-0.5,0.2-1.3,0.8-1.9c0.5-0.5,1.2-0.8,2.2-0.8
			c0.4,0,0.7,0,1,0.1c0.3,0,0.5,0.1,0.7,0.1c0.1,0,0.1,0,0.1,0.1c0,0.1,0,0.1,0,0.4c0,0.2,0,0.6,0,0.8c0,0.1,0,0.2-0.1,0.2
			c-0.1,0-0.1-0.1-0.1-0.2c0-0.2-0.1-0.5-0.3-0.7c-0.2-0.2-0.8-0.4-1.4-0.4c-0.6,0-1,0.2-1.3,0.4c-0.5,0.5-0.6,1.2-0.6,1.8
			c0,1.7,1.3,2.5,2.2,2.5c0.6,0,1-0.1,1.3-0.4c0.1-0.1,0.2-0.3,0.2-0.5c0-0.1,0-0.1,0.1-0.1c0,0,0.1,0,0.1,0.1
			c0,0.1-0.1,0.7-0.2,0.9c0,0.1-0.1,0.2-0.2,0.2c-0.3,0.1-0.8,0.2-1.3,0.2C317.1,92.5,316.3,92.3,315.6,91.7z"/>
	</g>
	<g id="XMLID_660_">
		<path id="XMLID_661_" class="st0" d="M260.5,90.2C260.5,90.2,260.5,90.1,260.5,90.2l0.6-1.8c0,0,0-0.1,0-0.1c0,0,0,0,0,0.1
			l0.6,1.8c0,0,0,0,0,0H260.5z M262,90.5C262,90.5,262,90.5,262,90.5l0.6,1.6c0,0.1,0,0.1-0.1,0.2c-0.1,0-0.1,0-0.1,0.1
			c0,0.1,0.1,0.1,0.2,0.1c0.6,0,1.1,0,1.3,0c0.3,0,0.3,0,0.3-0.1c0-0.1,0-0.1-0.1-0.1c-0.1,0-0.2,0-0.3,0c-0.1,0-0.4-0.1-0.6-0.8
			c-0.5-1.1-1.6-4-1.8-4.4c-0.1-0.2-0.1-0.2-0.2-0.2c-0.1,0-0.1,0.1-0.2,0.3l-1.8,4.5c-0.1,0.4-0.3,0.6-0.6,0.6c-0.1,0-0.2,0-0.2,0
			c-0.1,0-0.1,0-0.1,0.1c0,0.1,0,0.1,0.1,0.1c0.4,0,0.8,0,0.8,0c0.2,0,0.5,0,0.8,0c0.1,0,0.1,0,0.1-0.1c0,0,0-0.1-0.1-0.1h-0.1
			c-0.2,0-0.3-0.1-0.3-0.2c0-0.1,0-0.3,0.1-0.4l0.4-1c0,0,0-0.1,0.1-0.1H262z"/>
	</g>
	<g id="XMLID_657_">
		<path id="XMLID_658_" class="st0" d="M265.2,92.3c-0.1-0.1-0.1-0.1-0.1-0.2c0-0.4,0-0.8,0-0.9c0-0.1,0-0.2,0.1-0.2
			c0.1,0,0.1,0.1,0.1,0.1c0,0.1,0,0.2,0.1,0.4c0.2,0.5,0.6,0.7,1,0.7c0.6,0,1-0.4,1-0.8c0-0.3-0.1-0.7-0.7-1.1l-0.3-0.3
			c-0.8-0.6-1.1-1.1-1.1-1.7c0-0.8,0.7-1.3,1.6-1.3c0.5,0,0.8,0.1,0.9,0.1c0.1,0,0.1,0,0.1,0.1c0,0.1,0,0.3,0,0.9
			c0,0.2,0,0.2-0.1,0.2c0,0-0.1,0-0.1-0.1c0-0.1,0-0.3-0.2-0.5c-0.1-0.1-0.3-0.3-0.8-0.3c-0.5,0-0.8,0.3-0.8,0.7
			c0,0.3,0.2,0.6,0.8,1l0.2,0.2c0.9,0.7,1.2,1.1,1.2,1.8c0,0.4-0.2,0.9-0.7,1.2c-0.4,0.2-0.8,0.3-1.1,0.3
			C265.8,92.5,265.5,92.4,265.2,92.3z"/>
	</g>
	<path id="XMLID_655_" class="st0" d="M265.9,97C265.9,97,265.9,97,265.9,97L265.9,97c0-0.6,0-0.7,0-0.8c0-0.1,0-0.2-0.2-0.2
		c0,0-0.1,0-0.1,0c0,0-0.1,0-0.1,0c0,0,0,0,0.1,0c0.2,0,0.4,0,0.5,0c0.1,0,0.3,0,0.4,0c0,0,0.1,0,0.1,0c0,0,0,0-0.1,0
		c0,0-0.1,0-0.1,0c-0.1,0-0.1,0.1-0.1,0.2c0,0.1,0,0.2,0,0.7v0.6c0,0.3,0,0.6,0,0.8c0,0.1,0,0.2,0.1,0.2c0,0,0.1,0,0.2,0
		c0,0,0.1,0,0.1,0c0,0,0,0-0.1,0c-0.2,0-0.5,0-0.6,0c-0.1,0-0.3,0-0.4,0c0,0-0.1,0-0.1,0c0,0,0,0,0.1,0c0.1,0,0.1,0,0.1,0
		c0.1,0,0.1-0.1,0.1-0.2c0-0.1,0-0.4,0-0.8v-0.3c0,0,0,0,0,0h-1.4c0,0,0,0,0,0v0.3c0,0.3,0,0.6,0,0.8c0,0.1,0,0.2,0.1,0.2
		c0,0,0.1,0,0.2,0c0,0,0.1,0,0.1,0c0,0,0,0-0.1,0c-0.2,0-0.5,0-0.6,0c-0.1,0-0.3,0-0.4,0c0,0-0.1,0-0.1,0c0,0,0,0,0.1,0
		c0.1,0,0.1,0,0.1,0c0.1,0,0.1-0.1,0.1-0.2c0-0.1,0-0.4,0-0.8v-0.6c0-0.5,0-0.6,0-0.7c0-0.1,0-0.2-0.2-0.2c0,0-0.1,0-0.1,0
		c0,0-0.1,0-0.1,0c0,0,0,0,0.1,0c0.2,0,0.4,0,0.5,0c0.1,0,0.3,0,0.4,0c0,0,0.1,0,0.1,0c0,0,0,0-0.1,0c0,0-0.1,0-0.1,0
		c-0.1,0-0.1,0.1-0.1,0.2c0,0.1,0,0.2,0,0.7v0.1c0,0,0,0,0,0H265.9z"/>
	<path id="XMLID_652_" class="st0" d="M267.9,97.2c0-0.6,0.4-1.4,1.5-1.4c0.9,0,1.4,0.5,1.4,1.3c0,0.8-0.6,1.4-1.5,1.4
		C268.3,98.6,267.9,97.8,267.9,97.2z M270.3,97.3c0-0.8-0.5-1.3-1-1.3c-0.4,0-0.9,0.2-0.9,1.1c0,0.7,0.4,1.3,1.1,1.3
		C269.8,98.4,270.3,98.3,270.3,97.3z"/>
	<path id="XMLID_650_" class="st0" d="M301.8,98c0,0.3,0.1,0.4,0.1,0.4c0.1,0,0.1,0,0.2,0c0,0,0.1,0,0.1,0c0,0,0,0-0.1,0
		c-0.2,0-0.4,0-0.4,0c0,0-0.2,0-0.4,0c0,0-0.1,0-0.1,0c0,0,0,0,0.1,0c0,0,0.1,0,0.2,0c0.1,0,0.1-0.1,0.1-0.4l0-2.1
		c0-0.1,0-0.1,0-0.1c0,0,0.1,0,0.1,0.1c0,0,0.6,0.6,1.1,1.1c0.2,0.2,0.7,0.7,0.8,0.8h0l0-1.6c0-0.2,0-0.3-0.1-0.3
		c-0.1,0-0.1,0-0.2,0c0,0-0.1,0-0.1,0c0,0,0,0,0.1,0c0.2,0,0.4,0,0.4,0c0,0,0.2,0,0.3,0c0,0,0.1,0,0.1,0c0,0,0,0-0.1,0
		c0,0-0.1,0-0.1,0c-0.1,0-0.1,0.1-0.1,0.3l0,2.2c0,0.1,0,0.1,0,0.1c0,0-0.1,0-0.1-0.1c-0.2-0.2-0.7-0.7-1-1
		c-0.4-0.4-0.8-0.8-0.8-0.9h0L301.8,98z"/>
	<path id="XMLID_647_" class="st0" d="M305.3,97.2c0-0.6,0.4-1.4,1.5-1.4c0.9,0,1.4,0.5,1.4,1.3c0,0.8-0.6,1.4-1.5,1.4
		C305.7,98.6,305.3,97.8,305.3,97.2z M307.7,97.3c0-0.8-0.5-1.3-1-1.3c-0.4,0-0.9,0.2-0.9,1.1c0,0.7,0.4,1.3,1.1,1.3
		C307.2,98.4,307.7,98.3,307.7,97.3z"/>
</g>
<path id="XMLID_618_" class="st0" d="M37.6,92.4c0.2,0.4,0.2,0.6,0.3,0.7c0,0.1,0.1,0.2,0.1,0.4c0,0.2-0.1,0.3-0.2,0.4
	c-0.2,0.1-0.5,0.2-0.9,0.2h-0.2v0.4h5.6v-0.4c-0.4,0-0.6-0.1-0.8-0.3c-0.2-0.2-0.5-0.7-0.8-1.5c0.1-0.1,0.2-0.2,0.3-0.3
	c0.2-0.1,0.3-0.2,0.4-0.2c0.2,0,0.4,0.1,0.6,0.2c0.5,0.2,0.8,0.4,1.1,0.4c0.3,0.1,0.6,0.1,1,0.1c1.1,0,2-0.4,2.7-1.1
	c0.7-0.7,1.1-1.6,1.1-2.6c0-0.8-0.2-1.5-0.7-2.1c-0.4-0.6-1.3-1.3-2.6-2c-0.9-0.5-1.5-0.8-1.8-1c-0.3-0.3-0.6-0.5-0.7-0.8
	c-0.1-0.2-0.2-0.4-0.2-0.7c0-0.4,0.2-0.8,0.5-1.1c0.3-0.3,0.8-0.5,1.3-0.5c0.7,0,1.4,0.3,2,0.9c0.6,0.6,1,1.4,1.2,2.4H47l-0.1-4
	h-0.2c-0.1,0.4-0.2,0.6-0.2,0.7c-0.1,0.1-0.2,0.1-0.3,0.1c-0.1,0-0.4-0.1-0.8-0.3c-0.4-0.2-0.7-0.3-0.9-0.4c-0.3-0.1-0.7-0.1-1-0.1
	c-1,0-1.8,0.3-2.4,1c-0.6,0.7-1,1.5-1,2.5c0,0.6,0.1,1.1,0.4,1.5c0.2,0.5,0.6,0.9,1,1.3c0.4,0.4,1.2,0.8,2.2,1.4
	c0.7,0.4,1.2,0.7,1.5,0.9c0.3,0.2,0.5,0.5,0.6,0.8c0.1,0.3,0.2,0.5,0.2,0.8c0,0.5-0.2,0.9-0.5,1.3c-0.4,0.4-0.8,0.5-1.4,0.5
	c-0.8,0-1.5-0.3-2.2-1c-0.7-0.7-1.1-1.6-1.4-2.9H40v3.3l-3.9-9.8H36l-1.1,2.6l-3.1,7.6c-0.1,0.2-0.1,0.3-0.2,0.5
	c-0.4,0.1-0.9,0.2-1.4,0.2c-1,0-1.7-0.3-2.3-0.8c-0.6-0.5-1-1.3-1.3-2.3c-0.3-1-0.4-2.1-0.4-3.4c0-1.2,0.2-2.4,0.6-3.4
	c0.3-0.8,0.8-1.4,1.4-1.9c0.7-0.5,1.4-0.7,2.1-0.7c0.9,0,1.8,0.3,2.5,1c0.7,0.7,1.2,1.6,1.5,2.9h0.4v-4.8h-0.4
	c-0.1,0.3-0.1,0.6-0.3,0.8c-0.1,0.2-0.3,0.2-0.5,0.2c-0.2,0-0.5-0.1-1.1-0.4c-1-0.4-1.9-0.6-2.8-0.6c-1.2,0-2.3,0.3-3.4,1
	c-1.1,0.7-1.9,1.6-2.5,2.7c-0.6,1.2-0.9,2.4-0.9,3.7c0,1.2,0.3,2.4,0.8,3.5c0.6,1.1,1.4,2,2.4,2.5c1,0.6,2.2,0.9,3.6,0.9
	c0.5,0,1.1-0.1,1.5-0.2c-0.1,0.2-0.2,0.3-0.3,0.4c-0.3,0.3-0.6,0.5-1,0.6v0.4h3.9v-0.4c-0.6-0.1-1-0.1-1.1-0.2
	c-0.3-0.2-0.4-0.4-0.4-0.8c0-0.1,0-0.2,0-0.3c0,0,0.1,0,0.1,0c0.8-0.4,1.5-0.9,2.2-1.8v-0.2h2.5L37.6,92.4z M32.5,91.7l0.3-0.9h0.7
	C33.2,91.2,32.9,91.5,32.5,91.7z M34.4,90.2v-0.3c-0.1,0.1-0.2,0.2-0.2,0.3h-1l1.8-4.3l0-0.1l1.7,4.4H34.4z M65.8,89
	c-0.8-0.9-1.8-1.3-3-1.2h-0.1c-1.2-0.1-2.2,0.4-3,1.2c-0.1,0.1-0.2,0.2-0.3,0.3v-2.8c0-0.4,0-0.7,0.1-0.9c0.1-0.2,0.2-0.3,0.3-0.4
	c0.1-0.1,0.4-0.1,0.7-0.2v-0.3h-2.8V85c0.5,0,0.8,0.1,1,0.4c0.1,0.2,0.2,0.6,0.2,1.1v3.6c0,0.1-0.1,0.2-0.1,0.2l-4-5.6h-2.8v-0.1
	h-5.9v0.3h0.4c0.3,0,0.6,0.1,0.8,0.2c0.2,0.1,0.3,0.3,0.4,0.4c0.1,0.2,0.1,0.6,0.1,1.2V95c0,0.6,0,1-0.1,1.2
	c-0.1,0.2-0.2,0.4-0.3,0.4c-0.2,0.1-0.5,0.2-0.8,0.2h-0.4v0.3h5.9v-0.3h-0.4c-0.3,0-0.6-0.1-0.8-0.2c-0.2-0.1-0.3-0.3-0.4-0.4
	c-0.1-0.2-0.1-0.6-0.1-1.2v-8.2c0-0.6,0-1,0.1-1.2c0.1-0.2,0.2-0.4,0.3-0.4c0.2-0.1,0.5-0.2,0.8-0.2h0.4v0c0.2,0,0.3,0.1,0.4,0.1
	c0.1,0.1,0.3,0.2,0.5,0.5l0.2,0.3v6.5c0,0.5-0.1,0.8-0.3,1c-0.2,0.2-0.5,0.3-1,0.3V94h3v-0.3h-0.2c-0.3,0-0.5-0.1-0.8-0.3
	c-0.2-0.2-0.3-0.5-0.3-1.1v-5.9l5.1,6.9c0.1,0.7,0.4,1.3,0.8,1.9c0.8,1.1,1.9,1.6,3.3,1.6h0c1.4,0,2.5-0.6,3.3-1.7
	c0.6-0.8,0.9-1.8,0.9-2.9C67,91,66.6,89.9,65.8,89z M64.6,94.8c-0.2,0.6-0.5,1.1-0.8,1.3c-0.3,0.2-0.6,0.3-1,0.3h0
	c-0.6,0-1.1-0.3-1.4-0.7c-0.5-0.7-0.7-1.8-0.7-3.3c0-1.3,0.2-2.2,0.5-2.9c0.4-0.8,0.9-1.2,1.6-1.2h0c0.4,0,0.7,0.1,1,0.4
	c0.3,0.2,0.6,0.6,0.8,1.2c0.2,0.6,0.3,1.4,0.3,2.6C64.8,93.4,64.8,94.2,64.6,94.8z M35.6,100.8h1.2v-0.6h-1.2v-0.6h1.3V99h-2.1v3.1
	H37v-0.6h-1.4V100.8z M33.3,100.8c0,0.5-0.2,0.7-0.5,0.7c-0.4,0-0.5-0.2-0.5-0.7V99h-0.8v1.8c0,0.9,0.4,1.4,1.3,1.4
	c0.9,0,1.3-0.5,1.3-1.4V99h-0.8V100.8z M30.1,100.5c0.4-0.1,0.6-0.3,0.6-0.7c0-0.5-0.4-0.8-1.1-0.8h-1.3v3.1h1.2
	c0.8,0,1.3-0.3,1.3-0.8C30.8,100.9,30.5,100.6,30.1,100.5z M29.1,99.6h0.3c0.3,0,0.5,0.1,0.5,0.3c0,0.2-0.2,0.4-0.5,0.4h-0.2V99.6z
	 M29.4,101.5h-0.3v-0.7h0.4c0.3,0,0.5,0.1,0.5,0.4C30,101.4,29.8,101.5,29.4,101.5z M58,100.8h1.2v-0.6H58v-0.6h1.3V99h-2.1v3.1h2.2
	v-0.6H58V100.8z M52.5,102.1h0.8V99h-0.8V102.1z M55.9,100.6c0.4-0.1,0.6-0.4,0.6-0.7c0-0.5-0.4-0.8-1.2-0.8h-1.2v3.1h0.8v-1.2H55
	c0.3,0,0.4,0.1,0.5,0.4l0.3,0.8h0.9l-0.4-1C56.2,100.8,56.2,100.7,55.9,100.6z M55.2,100.3h-0.3v-0.8h0.2c0.4,0,0.6,0.1,0.6,0.4
	C55.7,100.2,55.5,100.3,55.2,100.3z M39.8,100.8c0,0.2,0,0.5,0.1,0.8c-0.1-0.3-0.2-0.5-0.2-0.7L38.7,99h-1v3.1h0.7v-1.6
	c0-0.2,0-0.5-0.1-0.9c0.1,0.2,0.1,0.4,0.2,0.6l0.9,1.9h1V99h-0.7V100.8z M61.9,100.5c-0.2-0.2-0.5-0.2-0.8-0.3
	c-0.2-0.1-0.3-0.2-0.3-0.3c0-0.2,0.2-0.3,0.5-0.3c0.2,0,0.4,0.1,0.7,0.2l0.1-0.6c-0.3-0.1-0.5-0.1-0.8-0.1c-0.8,0-1.3,0.3-1.3,1
	c0,0.5,0.3,0.7,0.8,0.9c0.4,0.1,0.6,0.2,0.6,0.4c0,0.2-0.2,0.3-0.5,0.3c-0.2,0-0.5-0.1-0.8-0.2L60,102c0.3,0.1,0.6,0.1,0.9,0.1
	c0.9,0,1.3-0.4,1.3-1C62.2,100.8,62.1,100.6,61.9,100.5z M50,99l-1.2,3.1h0.8l0.2-0.6h1.2l0.2,0.6h0.9L51,99H50z M50.1,100.9
	l0.4-1.1l0.4,1.1H50.1z M42.7,98.9c-0.9,0-1.5,0.6-1.5,1.6c0,1,0.6,1.6,1.5,1.6c1,0,1.5-0.6,1.5-1.6C44.2,99.5,43.6,98.9,42.7,98.9z
	 M42.7,101.6c-0.4,0-0.7-0.4-0.7-1c0-0.6,0.3-1,0.7-1c0.4,0,0.7,0.4,0.7,1C43.4,101.2,43.1,101.6,42.7,101.6z M46.7,100.5
	c-0.2-0.2-0.5-0.2-0.8-0.3c-0.2-0.1-0.3-0.2-0.3-0.3c0-0.2,0.2-0.3,0.5-0.3c0.2,0,0.4,0.1,0.7,0.2l0.1-0.6c-0.3-0.1-0.5-0.1-0.8-0.1
	c-0.8,0-1.3,0.3-1.3,1c0,0.5,0.3,0.7,0.8,0.9c0.4,0.1,0.6,0.2,0.6,0.4c0,0.2-0.2,0.3-0.5,0.3c-0.2,0-0.5-0.1-0.8-0.2l-0.1,0.7
	c0.3,0.1,0.6,0.1,0.9,0.1c0.9,0,1.3-0.4,1.3-1C47,100.8,46.9,100.6,46.7,100.5z"/>
</svg>
