<?xml version="1.0" encoding="utf-8"?>
<!-- Generator: Adobe Illustrator 24.1.2, SVG Export Plug-In . SVG Version: 6.00 Build 0)  -->
<svg version="1.1" id="Layer_1" xmlns="http://www.w3.org/2000/svg" xmlns:xlink="http://www.w3.org/1999/xlink" x="0px" y="0px"
	 viewBox="0 0 26 38" style="enable-background:new 0 0 26 38;" xml:space="preserve">
<style type="text/css">
	.st0{fill:#FFFFFF;}
</style>
<path class="st0" d="M2.7,4c0,0.1,0.1,0.1,0.1,0.2c0.1,0,0.1,0.1,0.2,0.1c0.1,0,0.2,0,0.3,0c0.1,0,0.1,0,0.2,0c0.1,0,0.1,0,0.2-0.1
	c0.1,0,0.1-0.1,0.1-0.1c0,0,0.1-0.1,0.1-0.2c0-0.1,0-0.1-0.1-0.2c0,0-0.1-0.1-0.2-0.1c-0.1,0-0.2-0.1-0.3-0.1C3.2,3.5,3.1,3.5,3,3.4
	c-0.1,0-0.2-0.1-0.3-0.1c-0.1,0-0.2-0.1-0.3-0.2C2.3,3.1,2.2,3,2.2,2.9S2.1,2.7,2.1,2.6c0-0.2,0-0.3,0.1-0.4C2.3,2.1,2.4,2,2.5,1.9
	c0.1-0.1,0.2-0.1,0.4-0.2c0.1,0,0.3-0.1,0.4-0.1c0.2,0,0.3,0,0.4,0.1c0.1,0,0.3,0.1,0.4,0.2C4.2,2,4.3,2.1,4.3,2.2
	c0.1,0.1,0.1,0.3,0.1,0.4H3.8c0-0.1,0-0.2-0.1-0.2c0-0.1-0.1-0.1-0.1-0.1c-0.1,0-0.1-0.1-0.2-0.1c-0.1,0-0.1,0-0.2,0
	c-0.1,0-0.1,0-0.2,0c-0.1,0-0.1,0-0.1,0.1c0,0-0.1,0.1-0.1,0.1c0,0,0,0.1,0,0.2c0,0.1,0,0.1,0,0.1c0,0,0.1,0.1,0.1,0.1
	c0.1,0,0.2,0.1,0.3,0.1c0.1,0,0.3,0.1,0.5,0.1c0.1,0,0.1,0,0.2,0.1s0.2,0.1,0.3,0.1c0.1,0.1,0.2,0.1,0.3,0.3
	c0.1,0.1,0.1,0.2,0.1,0.4c0,0.1,0,0.3-0.1,0.4C4.4,4.4,4.3,4.5,4.2,4.5C4.1,4.6,4,4.7,3.8,4.7c-0.2,0-0.3,0.1-0.5,0.1
	c-0.2,0-0.3,0-0.5-0.1c-0.2,0-0.3-0.1-0.4-0.2C2.3,4.5,2.2,4.4,2.1,4.2C2,4.1,2,3.9,2,3.8h0.6C2.6,3.9,2.7,3.9,2.7,4"/>
<path class="st0" d="M4.9,1.8h0.6v0.5H4.9V1.8z M5.4,4.7H4.9V2.6h0.6V4.7z"/>
<path class="st0" d="M6.4,4.2c0,0,0.1,0.1,0.1,0.1c0,0,0.1,0,0.1,0.1c0.1,0,0.1,0,0.2,0c0,0,0.1,0,0.1,0c0,0,0.1,0,0.1,0
	c0,0,0.1,0,0.1-0.1c0,0,0-0.1,0-0.1C7.2,4,7.2,4,7,3.9c-0.1,0-0.3-0.1-0.5-0.1c-0.1,0-0.2,0-0.3-0.1c-0.1,0-0.2-0.1-0.2-0.1
	C6,3.6,6,3.5,5.9,3.5c0-0.1-0.1-0.1-0.1-0.2c0-0.1,0-0.3,0.1-0.3C6,2.8,6.1,2.7,6.2,2.7c0.1-0.1,0.2-0.1,0.3-0.1c0.1,0,0.2,0,0.3,0
	s0.2,0,0.3,0c0.1,0,0.2,0.1,0.3,0.1c0.1,0.1,0.2,0.1,0.2,0.2C7.7,3,7.7,3.1,7.7,3.2H7.2C7.2,3.1,7.1,3,7.1,3C7,2.9,6.9,2.9,6.8,2.9
	c0,0-0.1,0-0.1,0c0,0-0.1,0-0.1,0c0,0-0.1,0-0.1,0.1c0,0,0,0.1,0,0.1c0,0.1,0,0.1,0.1,0.1c0,0,0.1,0.1,0.2,0.1c0.1,0,0.1,0,0.2,0.1
	c0.1,0,0.2,0,0.2,0.1c0.1,0,0.2,0,0.3,0.1c0.1,0,0.2,0.1,0.2,0.1c0.1,0,0.1,0.1,0.2,0.2c0,0.1,0.1,0.2,0.1,0.3c0,0.1,0,0.3-0.1,0.4
	C7.7,4.5,7.6,4.6,7.5,4.6C7.4,4.7,7.3,4.7,7.2,4.8c-0.1,0-0.2,0-0.4,0c-0.1,0-0.2,0-0.4,0c-0.1,0-0.2-0.1-0.3-0.1
	C6,4.6,6,4.5,5.9,4.4C5.8,4.3,5.8,4.2,5.8,4h0.6C6.4,4.1,6.4,4.2,6.4,4.2"/>
<path class="st0" d="M9.3,2.6V3H8.9V4c0,0.1,0,0.2,0,0.2c0,0,0.1,0,0.2,0c0,0,0.1,0,0.1,0c0,0,0.1,0,0.1,0v0.5c-0.1,0-0.1,0-0.2,0
	c-0.1,0-0.1,0-0.2,0c-0.1,0-0.2,0-0.3,0c-0.1,0-0.2,0-0.2-0.1c-0.1,0-0.1-0.1-0.1-0.2c0-0.1-0.1-0.2-0.1-0.3V3H7.9V2.6h0.4V1.9h0.6
	v0.6H9.3z"/>
<path class="st0" d="M10.2,4.2c0.1,0.1,0.2,0.1,0.4,0.1c0.1,0,0.2,0,0.3-0.1c0.1-0.1,0.1-0.1,0.2-0.2h0.5c-0.1,0.3-0.2,0.4-0.4,0.6
	c-0.2,0.1-0.4,0.2-0.6,0.2c-0.2,0-0.3,0-0.5-0.1C10,4.7,9.9,4.6,9.8,4.5C9.7,4.4,9.6,4.3,9.6,4.1C9.5,4,9.5,3.8,9.5,3.7
	c0-0.2,0-0.3,0.1-0.5C9.6,3.1,9.7,3,9.8,2.9c0.1-0.1,0.2-0.2,0.3-0.2c0.1-0.1,0.3-0.1,0.4-0.1c0.2,0,0.3,0,0.5,0.1
	c0.1,0.1,0.2,0.2,0.3,0.3c0.1,0.1,0.2,0.3,0.2,0.4c0,0.2,0.1,0.3,0,0.5h-1.6C10.1,4,10.2,4.1,10.2,4.2 M10.9,3.1
	C10.8,3,10.7,3,10.6,3c-0.1,0-0.2,0-0.2,0c-0.1,0-0.1,0.1-0.1,0.1c0,0-0.1,0.1-0.1,0.1c0,0.1,0,0.1,0,0.1h1C11,3.3,11,3.2,10.9,3.1"
	/>
<path class="st0" d="M12.5,2.6v0.3h0c0.1-0.1,0.2-0.2,0.3-0.3c0.1-0.1,0.2-0.1,0.4-0.1c0.1,0,0.3,0,0.4,0.1c0.1,0.1,0.2,0.1,0.3,0.3
	c0.1-0.1,0.2-0.2,0.3-0.2c0.1-0.1,0.2-0.1,0.4-0.1c0.1,0,0.2,0,0.3,0c0.1,0,0.2,0.1,0.3,0.1c0.1,0.1,0.1,0.1,0.2,0.2
	c0,0.1,0.1,0.2,0.1,0.4v1.4h-0.6V3.5c0-0.1,0-0.1,0-0.2c0-0.1,0-0.1,0-0.2c0,0-0.1-0.1-0.1-0.1c0,0-0.1,0-0.2,0c-0.1,0-0.1,0-0.2,0
	c-0.1,0-0.1,0.1-0.1,0.1c0,0.1,0,0.1-0.1,0.2c0,0.1,0,0.1,0,0.2v1.2h-0.6V3.5c0-0.1,0-0.1,0-0.2c0-0.1,0-0.1,0-0.2
	c0-0.1-0.1-0.1-0.1-0.1c0,0-0.1,0-0.2,0c0,0-0.1,0-0.1,0c0,0-0.1,0-0.1,0.1c0,0-0.1,0.1-0.1,0.2c0,0.1,0,0.2,0,0.3v1.2h-0.6V2.6
	H12.5z"/>
<path class="st0" d="M15.8,2.9c0.1-0.1,0.1-0.2,0.2-0.2c0.1-0.1,0.2-0.1,0.3-0.1c0.1,0,0.2,0,0.4,0c0.1,0,0.2,0,0.3,0
	c0.1,0,0.2,0,0.3,0.1c0.1,0,0.2,0.1,0.2,0.2c0.1,0.1,0.1,0.2,0.1,0.3v1.1c0,0.1,0,0.2,0,0.3c0,0.1,0,0.2,0.1,0.2h-0.6
	c0,0,0-0.1,0-0.1c0,0,0-0.1,0-0.1c-0.1,0.1-0.2,0.2-0.3,0.2c-0.1,0-0.3,0.1-0.4,0.1c-0.1,0-0.2,0-0.3,0c-0.1,0-0.2-0.1-0.2-0.1
	c-0.1-0.1-0.1-0.1-0.2-0.2c0-0.1-0.1-0.2-0.1-0.3c0-0.1,0-0.2,0.1-0.3c0-0.1,0.1-0.1,0.2-0.2c0.1,0,0.1-0.1,0.2-0.1
	c0.1,0,0.2,0,0.3-0.1c0.1,0,0.2,0,0.3,0s0.2,0,0.2,0c0.1,0,0.1,0,0.2-0.1c0,0,0.1-0.1,0.1-0.1c0-0.1,0-0.1,0-0.2c0,0,0-0.1-0.1-0.1
	c0,0-0.1,0-0.1,0c0,0-0.1,0-0.1,0c-0.1,0-0.2,0-0.3,0.1c-0.1,0-0.1,0.1-0.1,0.2h-0.6C15.7,3.1,15.7,3,15.8,2.9 M16.9,3.7
	c0,0-0.1,0-0.1,0c0,0-0.1,0-0.1,0c0,0-0.1,0-0.1,0c0,0-0.1,0-0.1,0c0,0-0.1,0-0.1,0.1c0,0-0.1,0.1-0.1,0.1c0,0,0,0.1,0,0.1
	c0,0.1,0,0.1,0,0.1s0,0.1,0.1,0.1c0,0,0.1,0,0.1,0c0,0,0.1,0,0.1,0c0.1,0,0.2,0,0.3-0.1s0.1-0.1,0.1-0.1C17,4.2,17,4.1,17,4
	c0-0.1,0-0.1,0-0.1L16.9,3.7C17,3.7,17,3.7,16.9,3.7"/>
<rect x="1.4" y="23.9" class="st0" width="16.6" height="1"/>
<path class="st0" d="M6.3,9.6h3.4c0.8,0,1.9,0,2.5,0.3c0.6,0.4,1.1,1,1.1,2c0,1-0.5,1.8-1.4,2.1v0c1.2,0.2,1.8,1.1,1.8,2.3
	c0,1.4-1,2.7-2.9,2.7H6.3V9.6z M7.5,13.6H10c1.4,0,2-0.5,2-1.5c0-1.3-0.9-1.5-2-1.5H7.5V13.6z M7.5,18h3.1c1.1,0,1.8-0.7,1.8-1.7
	c0-1.2-1-1.6-2.1-1.6H7.5V18z"/>
<path class="st0" d="M16.9,14.3c0,4-3.2,7.2-7.2,7.2c-4,0-7.2-3.2-7.2-7.2c0-4,3.2-7.2,7.2-7.2C13.7,7.1,16.9,10.3,16.9,14.3 M9.7,6
	c-4.6,0-8.3,3.7-8.3,8.3c0,4.6,3.7,8.3,8.3,8.3c4.6,0,8.3-3.7,8.3-8.3C18,9.7,14.3,6,9.7,6"/>
<path class="st0" d="M18,20.4c0,0,0.1-0.1,0.1-0.1c0,0,0.1-0.1,0.1-0.1c0,0,0.1,0,0.2,0c0.1,0,0.1,0,0.2,0c0,0,0.1,0,0.1,0.1
	c0,0,0.1,0.1,0.1,0.1c0,0,0,0.1,0,0.2c0,0.1,0,0.1,0,0.2c0,0-0.1,0.1-0.1,0.1c0,0-0.1,0.1-0.1,0.1c0,0-0.1,0-0.2,0
	c-0.1,0-0.1,0-0.2,0c0,0-0.1,0-0.1-0.1c0,0-0.1-0.1-0.1-0.1c0,0,0-0.1,0-0.2C18,20.5,18,20.4,18,20.4 M18.1,20.7c0,0,0,0.1,0.1,0.1
	c0,0,0.1,0.1,0.1,0.1c0,0,0.1,0,0.1,0c0,0,0.1,0,0.1,0c0,0,0.1,0,0.1-0.1c0,0,0.1-0.1,0.1-0.1c0,0,0-0.1,0-0.1c0,0,0-0.1,0-0.1
	c0,0,0-0.1-0.1-0.1c0,0-0.1-0.1-0.1-0.1c0,0-0.1,0-0.1,0c0,0-0.1,0-0.1,0c0,0-0.1,0-0.1,0.1c0,0-0.1,0.1-0.1,0.1c0,0,0,0.1,0,0.1
	C18,20.6,18.1,20.6,18.1,20.7 M18.4,20.3c0.1,0,0.1,0,0.1,0c0,0,0,0.1,0,0.1c0,0,0,0.1,0,0.1c0,0-0.1,0-0.1,0l0.1,0.2h-0.1l-0.1-0.2
	h-0.1v0.2h-0.1v-0.5H18.4z M18.4,20.5C18.4,20.5,18.4,20.5,18.4,20.5C18.4,20.5,18.4,20.5,18.4,20.5c0.1,0,0.1,0,0.1,0c0,0,0,0,0,0
	c0,0,0,0,0,0c0,0,0,0,0,0c0,0,0,0,0,0c0,0,0,0,0,0h-0.1L18.4,20.5L18.4,20.5z"/>
</svg>
