<?xml version="1.0" encoding="utf-8"?>
<!-- Generator: Adobe Illustrator 24.1.2, SVG Export Plug-In . SVG Version: 6.00 Build 0)  -->
<svg version="1.1" id="Layer_1" xmlns="http://www.w3.org/2000/svg" xmlns:xlink="http://www.w3.org/1999/xlink" x="0px" y="0px"
	 viewBox="0 0 51 51" style="enable-background:new 0 0 51 51;" xml:space="preserve">
<style type="text/css">
	.st0{fill:#696BA8;}
	.st1{fill:#FFFFFF;}
	.st2{fill:#A9C6C8;}
	.st3{fill:none;stroke:#FFFFFF;stroke-width:0.806;stroke-miterlimit:10;}
	.st4{fill:#825A92;}
	.st5{fill:#CABE63;}
	.st6{fill:#C45979;}
	.st7{fill:#D38BB6;}
	.st8{fill:none;stroke:#FFFFFF;stroke-width:0.22;stroke-miterlimit:10;}
	.st9{fill:#AB863F;}
</style>
<path class="st0" d="M-45.2,23c0,11.8-9.5,21.3-21.3,21.3c-11.8,0-21.3-9.5-21.3-21.3c0-11.8,9.5-21.3,21.3-21.3
	C-54.8,1.6-45.2,11.2-45.2,23"/>
<path class="st1" d="M-60.8,28.6h-0.9c-0.2,0-0.4-0.2-0.4-0.4c0-0.2,0.2-0.4,0.4-0.4h0.9c1.2,0,2.2-1,2.2-2.2c0-1.2-1-2.2-2.2-2.2
	h-0.9c-0.2,0-0.4-0.2-0.4-0.4c0-0.2,0.2-0.4,0.4-0.4h0.9c1.7,0,3.1,1.4,3.1,3.1C-57.8,27.2-59.1,28.6-60.8,28.6"/>
<path class="st1" d="M-63.5,33h-7.9c-1.2,0-2.2-1-2.2-2.2v-9.6c0-0.2,0.2-0.4,0.4-0.4h8.5l2-3.6c-0.2-0.2-0.3-0.4-0.4-0.6
	c-0.2-0.4-0.2-1,0-1.4c0.1-0.3,0.3-0.5,0.5-0.7c0.5-0.6,0.8-1,0.3-1.7c-0.1-0.2-0.1-0.3,0-0.5c0.1-0.1,0.3-0.2,0.5-0.2
	c1.3,0.3,2.2,1.2,2.5,2.4c0.3,1.1,0,2.3-0.7,2.9c-0.3,0.2-0.5,0.3-0.8,0.4l-1.1,3h0.2c0.2,0,0.4,0.2,0.4,0.4v9.6
	C-61.3,32-62.2,33-63.5,33 M-72.6,21.6v9.2c0,0.7,0.6,1.3,1.3,1.3h7.9c0.7,0,1.3-0.6,1.3-1.3v-9.2h-2.2c0,0,0,0,0,0H-72.6z
	 M-63.6,20.7h0.7l1.1-3c0,0-0.1,0-0.1,0L-63.6,20.7z M-61.8,16.7c0,0,0.1,0.1,0.2,0.1c0.4,0.2,0.8,0.1,1.1-0.1
	c0.4-0.4,0.6-1.2,0.5-2c-0.1-0.6-0.5-1.1-1-1.4c0,0.7-0.4,1.3-0.7,1.7c-0.2,0.2-0.3,0.4-0.4,0.5c-0.1,0.3-0.1,0.5,0,0.8
	C-62.1,16.4-62,16.6-61.8,16.7C-61.8,16.7-61.8,16.7-61.8,16.7C-61.8,16.7-61.8,16.7-61.8,16.7"/>
<path class="st1" d="M-69.6,21.6h-2.6c-0.2,0-0.3-0.1-0.4-0.2l-1.3-2.6c0,0,0-0.1,0-0.1l-0.4-2.6c0-0.2,0-0.3,0.2-0.4
	c0.1-0.1,0.3-0.1,0.5,0l2.2,1.3c0,0,0.1,0.1,0.1,0.1l0,0c0,0,0,0,0,0c0,0,0,0,0,0v0h0v0c0,0,0,0,0,0.1l2.2,3.9
	c0.1,0.1,0.1,0.3,0,0.4C-69.3,21.5-69.4,21.6-69.6,21.6 M-71.9,20.7h1.6l-1.6-2.8l-1.1,0.8L-71.9,20.7z M-73.4,16.8l0.2,1l0.7-0.5
	L-73.4,16.8z"/>
<path class="st1" d="M-65.2,21.6h-3.5c-0.2,0-0.4-0.2-0.4-0.4v-8.7c0-0.2,0.2-0.4,0.4-0.4h3.5c0.2,0,0.4,0.2,0.4,0.4v8.7
	C-64.8,21.4-65,21.6-65.2,21.6 M-68.3,20.7h2.6v-0.9h-0.4c-0.2,0-0.4-0.2-0.4-0.4c0-0.2,0.2-0.4,0.4-0.4h0.4v-0.9H-67
	c-0.2,0-0.4-0.2-0.4-0.4c0-0.2,0.2-0.4,0.4-0.4h1.3v-0.9h-0.4c-0.2,0-0.4-0.2-0.4-0.4c0-0.2,0.2-0.4,0.4-0.4h0.4v-0.9H-67
	c-0.2,0-0.4-0.2-0.4-0.4c0-0.2,0.2-0.4,0.4-0.4h1.3v-0.9h-2.6V20.7z"/>
<path class="st2" d="M-78.1-28c0,11.8-9.5,21.3-21.3,21.3c-11.8,0-21.3-9.5-21.3-21.3c0-11.8,9.5-21.3,21.3-21.3
	C-87.6-49.4-78.1-39.8-78.1-28"/>
<path class="st3" d="M-104.2-36.8C-104.2-36.7-104.2-36.7-104.2-36.8l-0.1,0.2c0,0,0,0,0,0l-2,3.4l4.2,2.4l1.9-3.3l0.2-0.4l0.6-1
	l1.4-2.4h-4.2C-103-37.9-103.8-37.4-104.2-36.8z"/>
<path class="st3" d="M-93-34l-1.5-2.7c-0.2-0.4-0.5-0.7-0.9-0.9c-0.4-0.2-0.8-0.3-1.2-0.3h-4.2h-1.4c0.9,0,1.6,0.4,2,1.1l0.1,0.2
	l2.9,5l-1.5,0.9h4.8l2.4-4.2L-93-34z"/>
<path class="st3" d="M-89-27.1C-89-27.1-89-27.1-89-27.1l-0.1-0.2c0,0,0,0,0,0l-2-3.4l-4.2,2.4l1.9,3.3l0.2,0.4l0.6,1l1.4,2.4
	l2.1-3.6C-88.6-25.5-88.6-26.3-89-27.1z"/>
<path class="st3" d="M-91-23.5h-0.3l-5.7,0v-1.7l-1,1.7l-1.4,2.4L-97-17v-1.7h3.1c0.4,0,0.8-0.1,1.2-0.3c0.4-0.2,0.7-0.5,0.9-0.9
	l2.1-3.6l0.7-1.2C-89.5-24-90.2-23.6-91-23.5z"/>
<path class="st3" d="M-100.8-23.5h-3.8h-0.5h-1.2h-2.8l2.1,3.6c0.4,0.7,1.2,1.2,2,1.2h0h0.2c0,0,0,0,0,0h4V-23.5z"/>
<path class="st3" d="M-106.9-22.4l2.9-5l1.5,0.9l-1-1.7v0l-1.4-2.4h-2.8l-2,0l1.5,0.9l-1.5,2.7c-0.2,0.4-0.3,0.8-0.3,1.2
	c0,0.4,0.1,0.9,0.3,1.2l2.1,3.6l0.7,1.2c-0.4-0.7-0.4-1.6-0.1-2.3L-106.9-22.4z"/>
<path class="st4" d="M-268.4,25.4c0,11.8-9.5,21.3-21.3,21.3c-11.8,0-21.3-9.5-21.3-21.3c0-11.8,9.5-21.3,21.3-21.3
	C-277.9,4.1-268.4,13.7-268.4,25.4"/>
<path class="st1" d="M-281.3,20.5c0.1-0.1,0.2-0.3,0.1-0.5c0-0.2-0.1-0.3-0.3-0.4l-1.7-0.7l-0.6-1.7c-0.1-0.2-0.2-0.3-0.4-0.3
	s-0.3,0-0.5,0.1l-1,1c-1.3-0.7-2.8-1.1-4.2-1.1c-2.3,0-4.5,0.9-6.1,2.5c-1.6,1.6-2.5,3.8-2.5,6.1c0,2.3,0.9,4.5,2.5,6.1
	c1.6,1.6,3.8,2.5,6.1,2.5c2.3,0,4.5-0.9,6.1-2.5c1.6-1.6,2.5-3.8,2.5-6.1c0-1.4-0.4-2.8-1-4.1L-281.3,20.5z M-284.8,22.6l-1-0.3
	l2.4-2.4l0.9,0.4L-284.8,22.6z M-285,25.4c0,2.6-2.1,4.7-4.7,4.7s-4.7-2.1-4.7-4.7c0-2.6,2.1-4.7,4.7-4.7c0.8,0,1.5,0.2,2.1,0.5
	l0.3,1.2L-288,23c-0.5-0.3-1.1-0.6-1.7-0.6c-1.6,0-3,1.3-3,3c0,1.6,1.3,3,3,3s3-1.3,3-3c0-0.6-0.2-1.2-0.5-1.7l0.6-0.6l1.2,0.3
	C-285.1,24-285,24.7-285,25.4 M-287.8,25.4c0,1.1-0.9,2-2,2s-2-0.9-2-2c0-1.1,0.9-2,2-2c0.4,0,0.7,0.1,1,0.3l-1.4,1.4
	c-0.2,0.2-0.2,0.5,0,0.7c0.1,0.1,0.2,0.1,0.4,0.1c0.1,0,0.3,0,0.4-0.1l1.4-1.4C-287.8,24.7-287.8,25.1-287.8,25.4 M-284.4,18.3
	l0.3,0.9l-2.4,2.4l-0.2-1L-284.4,18.3z M-282.1,25.4c0,2-0.8,3.9-2.2,5.4c-1.4,1.4-3.3,2.2-5.4,2.2s-3.9-0.8-5.4-2.2
	c-1.4-1.4-2.2-3.3-2.2-5.4c0-2,0.8-3.9,2.2-5.4c1.4-1.4,3.3-2.2,5.4-2.2c1.2,0,2.4,0.3,3.5,0.8l-1.4,1.4c0,0,0,0,0,0
	c-0.6-0.3-1.3-0.4-2.1-0.4c-3.2,0-5.8,2.6-5.8,5.8c0,3.2,2.6,5.8,5.8,5.8c3.2,0,5.8-2.6,5.8-5.8c0-0.7-0.1-1.3-0.3-1.9c0,0,0,0,0,0
	l1.4-1.4C-282.4,23.1-282.1,24.3-282.1,25.4"/>
<path class="st5" d="M362.6,24.6c0,11.8-9.5,21.3-21.3,21.3c-11.8,0-21.3-9.5-21.3-21.3c0-11.8,9.5-21.3,21.3-21.3
	C353.1,3.3,362.6,12.9,362.6,24.6"/>
<path class="st1" d="M351.3,14.8h-20.2c-0.2,0-0.4,0.2-0.4,0.4v20.2c0,0.2,0.2,0.4,0.4,0.4h17.5c0.2,0,0.4-0.2,0.4-0.4
	c0-0.2-0.2-0.4-0.4-0.4h-17v-9.8h5.9v4c0,0.2,0.2,0.4,0.4,0.4c0.2,0,0.4-0.2,0.4-0.4v-8.8c0-0.2-0.2-0.4-0.4-0.4
	c-0.2,0-0.4,0.2-0.4,0.4v3.9h-5.9v-8.6H343V21c0,0.2,0.2,0.4,0.4,0.4h4.5c0.2,0,0.4-0.2,0.4-0.4c0-0.2-0.2-0.4-0.4-0.4h-4v-4.9h7
	v13.1h-7.4c-0.2,0-0.4,0.2-0.4,0.4c0,0.2,0.2,0.4,0.4,0.4h7.4V35h-3c-0.2,0-0.4,0.2-0.4,0.4c0,0.2,0.2,0.4,0.4,0.4h3.4
	c0.2,0,0.4-0.2,0.4-0.4V15.3C351.7,15,351.6,14.8,351.3,14.8"/>
<path class="st6" d="M45.1,85c0,11.8-9.5,21.3-21.3,21.3C12,106.3,2.4,96.7,2.4,85c0-11.8,9.5-21.3,21.3-21.3
	C35.5,63.6,45.1,73.2,45.1,85"/>
<path class="st1" d="M30.8,77.1H16.3c-1.6,0.1-3.2,1.7-3.2,3.7V90c0.1,2,1.6,3.6,3.4,3.6h4.4l2.3,4.5c0.1,0.2,0.3,0.3,0.6,0.3
	c0.2,0,0.4-0.1,0.6-0.3l2.3-4.5H31c1.9,0,3.4-1.6,3.4-3.6v-9.2C34.4,78.8,32.9,77.1,30.8,77.1 M33.1,89.9c0,1.3-0.9,2.4-2.1,2.4
	h-4.7c-0.2,0-0.4,0.1-0.6,0.3l-2,3.8l-2-3.8c-0.1-0.2-0.3-0.3-0.6-0.3h-4.7c-1.2,0-2.1-1.1-2.1-2.4v-9.2c0-1.3,0.9-2.4,2.1-2.4H31
	c1.2,0,2.1,1.1,2.1,2.4V89.9z"/>
<path class="st1" d="M22.9,82.5c-0.6,0-1.2,0.2-1.6,0.6c-0.4-0.4-1-0.6-1.6-0.6c-1.3,0-2.3,1-2.3,2.3c0,0.9,0.6,1.9,1.9,2.9
	c0.9,0.7,1.7,1.1,1.7,1.1c0.1,0,0.2,0.1,0.3,0.1c0.1,0,0.2,0,0.3-0.1c0,0,0.9-0.5,1.7-1.1c1.2-1,1.9-1.9,1.9-2.8
	c0-0.6-0.2-1.2-0.7-1.6C24.1,82.7,23.5,82.5,22.9,82.5 M22.5,86.6c-0.5,0.4-1,0.7-1.3,0.9c-1-0.6-2.7-1.8-2.6-2.7
	c0-0.6,0.5-1.1,1.1-1.1c0.4,0,0.8,0.3,1,0.7c0.1,0.3,0.3,0.4,0.6,0.4c0.3,0,0.5-0.2,0.6-0.4c0.2-0.4,0.6-0.7,1-0.7
	c0.3,0,0.6,0.1,0.8,0.3c0.2,0.2,0.3,0.5,0.3,0.7C23.9,85.3,23.4,86,22.5,86.6"/>
<path class="st1" d="M29.1,82.2c-0.1,0-0.2,0-0.2,0.1l-1.1,0.7c-0.2,0.1-0.2,0.3-0.2,0.4c0,0.3,0.2,0.5,0.4,0.5c0.1,0,0.1,0,0.2-0.1
	l0.2-0.1v4.2c0,0.3,0.3,0.4,0.6,0.4c0.3,0,0.6-0.1,0.6-0.4v-5.3C29.7,82.4,29.4,82.2,29.1,82.2"/>
<path class="st7" d="M-2.8-53.4c0,11.8-9.5,21.3-21.3,21.3c-11.8,0-21.3-9.5-21.3-21.3c0-11.8,9.5-21.3,21.3-21.3
	C-12.3-74.7-2.8-65.1-2.8-53.4"/>
<path class="st1" d="M-14.5-58.6h-1.6c0-0.1,0.1-0.1,0.1-0.2c0.2-0.4,0.2-0.9,0.1-1.3l-0.5-1.3c-0.2-0.4-0.5-0.8-0.9-1
	c-0.4-0.2-0.9-0.2-1.3,0l-3.8,1.8c-0.2-0.1-0.4-0.2-0.7-0.2h-1.7c-0.3,0-0.5,0.1-0.7,0.2l-3.8-1.8c-0.4-0.2-0.9-0.2-1.3,0
	c-0.4,0.2-0.8,0.5-0.9,1l-0.5,1.3c-0.2,0.4-0.1,0.9,0.1,1.3c0,0.1,0.1,0.1,0.1,0.2h-1.6c-0.2,0-0.3,0.1-0.3,0.3v3.3
	c0,0.2,0.1,0.3,0.3,0.3c0.2,0,0.3-0.1,0.3-0.3v-3h2.1c0,0,0.1,0,0.1,0l2.6,0.7c-0.6,0.9-1.1,1.8-1.5,2.7h-3.3v-0.4
	c0-0.2-0.1-0.3-0.3-0.3c-0.2,0-0.3,0.1-0.3,0.3v0.7c0,0.2,0.1,0.3,0.3,0.3h1.1v10.8c0,0.2,0.1,0.3,0.3,0.3h16.3
	c0.2,0,0.3-0.1,0.3-0.3v-1.8c0-0.2-0.1-0.3-0.3-0.3s-0.3,0.1-0.3,0.3v1.5h-6v-10.3c0.9,1.6,1.4,3.4,1.7,5.2c0,0.1,0.1,0.2,0.2,0.3
	c0,0,0,0,0.1,0c0.1,0,0.2,0,0.2-0.1c0.4-0.6,0.8-1.2,1.2-1.9c0.6,0.4,1.2,0.9,1.8,1.4c0.1,0.1,0.2,0.1,0.3,0
	c0.1-0.1,0.2-0.2,0.2-0.3c-0.2-1.7-0.7-3.3-1.3-4.8h1.6v9c0,0.2,0.1,0.3,0.3,0.3s0.3-0.1,0.3-0.3v-9h1.1c0.2,0,0.3-0.1,0.3-0.3v-4.1
	C-14.2-58.5-14.4-58.6-14.5-58.6 M-18.4-61.8c0.3-0.1,0.6-0.1,0.9,0c0.3,0.1,0.5,0.3,0.6,0.6l0.5,1.3c0.1,0.3,0.1,0.6-0.1,0.9
	c-0.1,0.3-0.4,0.5-0.7,0.5l-4.8,1.3v-1.5c1.1-0.7,3.8-2,4.5-1.1c0.1,0.1,0.3,0.2,0.4,0.1c0.1-0.1,0.2-0.3,0.1-0.4
	c-0.5-0.7-1.6-0.8-3.3-0.1c-0.7,0.3-1.3,0.6-1.7,0.8v-0.2c0-0.2,0-0.3-0.1-0.5L-18.4-61.8z M-24.9-60.2h1.7c0.3,0,0.6,0.2,0.6,0.6
	v2.5c0,0.3-0.2,0.6-0.6,0.6h-1.7c-0.3,0-0.6-0.2-0.6-0.6v-2.5C-25.5-59.9-25.2-60.2-24.9-60.2 M-25.5-54.5c0.3-0.5,0.6-1,0.9-1.4
	h0.9c0.3,0.5,0.7,0.9,0.9,1.4H-25.5z M-31.6-59.1c-0.1-0.3-0.2-0.6-0.1-0.9l0.5-1.3c0.1-0.3,0.3-0.5,0.6-0.6c0.3-0.1,0.6-0.1,0.9,0
	l3.7,1.8c-0.1,0.1-0.1,0.3-0.1,0.5v0.2c-0.4-0.2-1-0.6-1.7-0.9c-1.6-0.7-2.7-0.6-3.3,0.1c-0.1,0.1-0.1,0.3,0.1,0.4
	c0.1,0.1,0.3,0.1,0.4-0.1c0.7-1,3.4,0.4,4.5,1.1v1.4l-4.8-1.3C-31.2-58.6-31.5-58.8-31.6-59.1 M-26-56.6c0.2,0.3,0.4,0.5,0.7,0.6
	c-1.4,2-2.4,4.3-2.9,6.7c-0.3-0.5-0.6-1-0.9-1.5c0-0.1-0.1-0.1-0.2-0.1c-0.1,0-0.2,0-0.2,0c-0.5,0.3-1,0.7-1.5,1.1
	c0.5-2.6,1.5-5.1,3-7.3L-26-56.6z M-31.9-53.9h1.6c-0.6,1.6-1.1,3.2-1.3,4.8c0,0.1,0,0.3,0.2,0.3c0.1,0.1,0.3,0,0.3,0
	c0.6-0.5,1.2-1,1.8-1.4c0.4,0.6,0.8,1.3,1.2,1.9c0.1,0.1,0.1,0.1,0.2,0.1c0,0,0.1,0,0.1,0c0.1,0,0.2-0.1,0.2-0.3
	c0.3-1.8,0.9-3.6,1.7-5.2v10.3h-6V-53.9z M-25.3-53.9h2.4v10.5h-2.4V-53.9z M-18.7-50.9c-0.1,0-0.2-0.1-0.2,0
	c-0.1,0-0.2,0.1-0.2,0.1c-0.3,0.5-0.6,1-0.9,1.5c-0.5-2.4-1.4-4.7-2.9-6.7c0.3-0.1,0.6-0.3,0.7-0.6l2-0.5c1.5,2.2,2.5,4.7,3,7.3
	C-17.7-50.2-18.2-50.6-18.7-50.9 M-14.8-54.5h-3.3c-0.4-0.9-0.9-1.9-1.5-2.7L-17-58c0,0,0.1,0,0.1,0h2.1V-54.5z"/>
<path class="st8" d="M-14.5-58.6h-1.6c0-0.1,0.1-0.1,0.1-0.2c0.2-0.4,0.2-0.9,0.1-1.3l-0.5-1.3c-0.2-0.4-0.5-0.8-0.9-1
	c-0.4-0.2-0.9-0.2-1.3,0l-3.8,1.8c-0.2-0.1-0.4-0.2-0.7-0.2h-1.7c-0.3,0-0.5,0.1-0.7,0.2l-3.8-1.8c-0.4-0.2-0.9-0.2-1.3,0
	c-0.4,0.2-0.8,0.5-0.9,1l-0.5,1.3c-0.2,0.4-0.1,0.9,0.1,1.3c0,0.1,0.1,0.1,0.1,0.2h-1.6c-0.2,0-0.3,0.1-0.3,0.3v3.3
	c0,0.2,0.1,0.3,0.3,0.3c0.2,0,0.3-0.1,0.3-0.3v-3h2.1c0,0,0.1,0,0.1,0l2.6,0.7c-0.6,0.9-1.1,1.8-1.5,2.7h-3.3v-0.4
	c0-0.2-0.1-0.3-0.3-0.3c-0.2,0-0.3,0.1-0.3,0.3v0.7c0,0.2,0.1,0.3,0.3,0.3h1.1v10.8c0,0.2,0.1,0.3,0.3,0.3h16.3
	c0.2,0,0.3-0.1,0.3-0.3v-1.8c0-0.2-0.1-0.3-0.3-0.3s-0.3,0.1-0.3,0.3v1.5h-6v-10.3c0.9,1.6,1.4,3.4,1.7,5.2c0,0.1,0.1,0.2,0.2,0.3
	c0,0,0,0,0.1,0c0.1,0,0.2,0,0.2-0.1c0.4-0.6,0.8-1.2,1.2-1.9c0.6,0.4,1.2,0.9,1.8,1.4c0.1,0.1,0.2,0.1,0.3,0
	c0.1-0.1,0.2-0.2,0.2-0.3c-0.2-1.7-0.7-3.3-1.3-4.8h1.6v9c0,0.2,0.1,0.3,0.3,0.3s0.3-0.1,0.3-0.3v-9h1.1c0.2,0,0.3-0.1,0.3-0.3v-4.1
	C-14.2-58.5-14.4-58.6-14.5-58.6z M-18.4-61.8c0.3-0.1,0.6-0.1,0.9,0c0.3,0.1,0.5,0.3,0.6,0.6l0.5,1.3c0.1,0.3,0.1,0.6-0.1,0.9
	c-0.1,0.3-0.4,0.5-0.7,0.5l-4.8,1.3v-1.5c1.1-0.7,3.8-2,4.5-1.1c0.1,0.1,0.3,0.2,0.4,0.1c0.1-0.1,0.2-0.3,0.1-0.4
	c-0.5-0.7-1.6-0.8-3.3-0.1c-0.7,0.3-1.3,0.6-1.7,0.8v-0.2c0-0.2,0-0.3-0.1-0.5L-18.4-61.8z M-24.9-60.2h1.7c0.3,0,0.6,0.2,0.6,0.6
	v2.5c0,0.3-0.2,0.6-0.6,0.6h-1.7c-0.3,0-0.6-0.2-0.6-0.6v-2.5C-25.5-59.9-25.2-60.2-24.9-60.2z M-25.5-54.5c0.3-0.5,0.6-1,0.9-1.4
	h0.9c0.3,0.5,0.7,0.9,0.9,1.4H-25.5z M-31.6-59.1c-0.1-0.3-0.2-0.6-0.1-0.9l0.5-1.3c0.1-0.3,0.3-0.5,0.6-0.6c0.3-0.1,0.6-0.1,0.9,0
	l3.7,1.8c-0.1,0.1-0.1,0.3-0.1,0.5v0.2c-0.4-0.2-1-0.6-1.7-0.9c-1.6-0.7-2.7-0.6-3.3,0.1c-0.1,0.1-0.1,0.3,0.1,0.4
	c0.1,0.1,0.3,0.1,0.4-0.1c0.7-1,3.4,0.4,4.5,1.1v1.4l-4.8-1.3C-31.2-58.6-31.5-58.8-31.6-59.1z M-26-56.6c0.2,0.3,0.4,0.5,0.7,0.6
	c-1.4,2-2.4,4.3-2.9,6.7c-0.3-0.5-0.6-1-0.9-1.5c0-0.1-0.1-0.1-0.2-0.1c-0.1,0-0.2,0-0.2,0c-0.5,0.3-1,0.7-1.5,1.1
	c0.5-2.6,1.5-5.1,3-7.3L-26-56.6z M-31.9-53.9h1.6c-0.6,1.6-1.1,3.2-1.3,4.8c0,0.1,0,0.3,0.2,0.3c0.1,0.1,0.3,0,0.3,0
	c0.6-0.5,1.2-1,1.8-1.4c0.4,0.6,0.8,1.3,1.2,1.9c0.1,0.1,0.1,0.1,0.2,0.1c0,0,0.1,0,0.1,0c0.1,0,0.2-0.1,0.2-0.3
	c0.3-1.8,0.9-3.6,1.7-5.2v10.3h-6V-53.9z M-25.3-53.9h2.4v10.5h-2.4V-53.9z M-18.7-50.9c-0.1,0-0.2-0.1-0.2,0
	c-0.1,0-0.2,0.1-0.2,0.1c-0.3,0.5-0.6,1-0.9,1.5c-0.5-2.4-1.4-4.7-2.9-6.7c0.3-0.1,0.6-0.3,0.7-0.6l2-0.5c1.5,2.2,2.5,4.7,3,7.3
	C-17.7-50.2-18.2-50.6-18.7-50.9z M-14.8-54.5h-3.3c-0.4-0.9-0.9-1.9-1.5-2.7L-17-58c0,0,0.1,0,0.1,0h2.1V-54.5z"/>
<path class="st9" d="M46.4,24.7c0,11.8-9.5,21.3-21.3,21.3c-11.8,0-21.3-9.5-21.3-21.3C3.8,13,13.3,3.4,25.1,3.4
	C36.9,3.4,46.4,13,46.4,24.7"/>
<path class="st1" d="M19.3,27.4c0.2-0.1,0.3-0.4,0.2-0.6c-0.1-0.2-0.4-0.3-0.6-0.2c-0.2,0.1-0.3,0.4-0.2,0.6
	C18.8,27.4,19,27.5,19.3,27.4"/>
<path class="st1" d="M17.4,30.6l2.4,4.1c0.5,0.9,1.6,1.2,2.6,0.7c0.9-0.5,1.2-1.7,0.7-2.6l-1.4-2.4l1.2-0.7c0.2-0.1,0.3-0.4,0.2-0.6
	L22.3,28c0.1,0,0.5-0.1,8.9-1.8c1-0.1,1.7-1.2,1.1-2.1l-1.6-2.7l1-1.5c0.1-0.1,0.1-0.3,0-0.5l-0.9-1.6c-0.1-0.2-0.3-0.2-0.4-0.2
	l-1.8,0.1l-1.7-3c-0.3-0.4-0.7-0.7-1.2-0.7h0c-0.5,0-0.9,0.2-1.2,0.6l-6.1,7.8l-4,2.3c-1.6,0.9-2.1,2.9-1.2,4.5
	C14.1,30.6,15.9,31.2,17.4,30.6 M22.1,33.3c0.3,0.4,0.1,1-0.3,1.3c-0.4,0.3-1,0.1-1.3-0.3l-2.3-4l1.6-0.9
	C22.5,33.9,22.1,33.2,22.1,33.3 M21.1,29.6l-0.5-0.8l0.8-0.5l0.5,0.8L21.1,29.6z M30.3,18.5l0.6,1.1l-0.6,0.9l-1.1-1.9L30.3,18.5z
	 M25.4,15.2c0.1-0.2,0.3-0.2,0.4-0.2c0.1,0,0.3,0,0.4,0.2l5.4,9.4c0.2,0.3,0,0.7-0.4,0.7c-0.1,0-0.1,0-0.3,0l-5.7-10
	C25.3,15.2,25.3,15.2,25.4,15.2 M24.6,16.2l5.4,9.4l-8.2,1.6l-2.5-4.3L24.6,16.2z M14.1,28.7c-0.2-0.4-0.3-0.8-0.3-1.2
	c0-0.8,0.4-1.6,1.2-2l3.6-2.1l2.3,4l-3.6,2.1C16.2,30.2,14.8,29.8,14.1,28.7"/>
<path class="st1" d="M17.8,27.7c-0.1-0.2-0.4-0.3-0.6-0.2l-0.8,0.5c-0.2,0.1-0.5,0.1-0.6-0.2c-0.1-0.2-0.4-0.3-0.6-0.2
	c-0.2,0.1-0.3,0.4-0.2,0.6c0.4,0.7,1.2,0.9,1.9,0.5l0.8-0.5C17.9,28.2,18,27.9,17.8,27.7"/>
<path class="st1" d="M36.1,15l-2.6,1.4c-0.2,0.1-0.3,0.4-0.2,0.6c0.1,0.2,0.4,0.3,0.6,0.2l2.6-1.4c0.2-0.1,0.3-0.4,0.2-0.6
	S36.3,14.9,36.1,15"/>
<path class="st1" d="M35.8,19.8L34,19.4c-0.2-0.1-0.5,0.1-0.6,0.3c-0.1,0.2,0.1,0.5,0.3,0.6l1.8,0.5c0.3,0.1,0.5-0.1,0.6-0.3
	C36.2,20.2,36.1,19.9,35.8,19.8"/>
<path class="st1" d="M31.3,13.3l-0.5,1.8c-0.1,0.2,0.1,0.5,0.3,0.6c0.2,0.1,0.5-0.1,0.6-0.3l0.5-1.8c0.1-0.2-0.1-0.5-0.3-0.6
	C31.6,12.9,31.4,13.1,31.3,13.3"/>
</svg>
