<?xml version="1.0" encoding="utf-8"?>
<!-- Generator: Adobe Illustrator 24.1.2, SVG Export Plug-In . SVG Version: 6.00 Build 0)  -->
<svg version="1.1" id="Layer_1" xmlns="http://www.w3.org/2000/svg" xmlns:xlink="http://www.w3.org/1999/xlink" x="0px" y="0px"
	 viewBox="0 0 368 140" style="enable-background:new 0 0 368 140;" xml:space="preserve">
<style type="text/css">
	.st0{fill:#6668AB;}
</style>
<path class="st0" d="M9.3,98V35.8h17.8l0.6,11.2l-2.5,0.1c0.9-2,2.1-3.8,3.6-5.4c1.4-1.6,3.1-2.9,4.9-3.9c1.8-1.1,3.7-1.9,5.7-2.4
	c2-0.5,4-0.8,6-0.8c3,0,5.8,0.5,8.3,1.4c2.5,0.9,4.7,2.4,6.6,4.5c1.9,2.1,3.4,4.9,4.5,8.4l-2.9-0.2l0.9-1.9c1-1.9,2.3-3.6,3.9-5.1
	c1.6-1.5,3.4-2.8,5.3-3.9c2-1.1,4-1.9,6.1-2.4c2.1-0.5,4.1-0.8,6.1-0.8c4.9,0,9,1,12.3,2.9c3.3,1.9,5.8,4.8,7.4,8.6
	c1.7,3.8,2.5,8.5,2.5,13.9v38H87.6V61.6c0-2.5-0.4-4.6-1.1-6.2c-0.7-1.6-1.7-2.9-3.1-3.7c-1.4-0.8-3.1-1.2-5.1-1.2
	c-1.6,0-3.1,0.3-4.5,0.8c-1.4,0.5-2.5,1.3-3.5,2.2c-1,0.9-1.7,2-2.3,3.3c-0.5,1.3-0.8,2.7-0.8,4.2v37H48.4V61.5c0-2.3-0.4-4.3-1.1-6
	c-0.7-1.6-1.8-2.9-3.2-3.7c-1.4-0.9-3-1.3-4.9-1.3c-1.6,0-3.1,0.3-4.5,0.8c-1.4,0.5-2.5,1.3-3.5,2.2c-1,0.9-1.7,2-2.3,3.3
	c-0.5,1.3-0.8,2.6-0.8,4.1V98H9.3z"/>
<path class="st0" d="M137.4,99.2c-6.5,0-12.2-1.4-17.3-4.2c-5-2.8-9-6.6-11.9-11.5c-2.9-4.8-4.4-10.4-4.4-16.6
	c0-6.2,1.5-11.8,4.4-16.6c2.9-4.8,6.9-8.7,11.9-11.5c5-2.8,10.8-4.2,17.3-4.2c6.5,0,12.2,1.4,17.3,4.2c5,2.8,9,6.6,11.9,11.5
	c2.9,4.8,4.3,10.4,4.3,16.6c0,6.2-1.4,11.8-4.3,16.6c-2.9,4.8-6.9,8.7-11.9,11.5C149.6,97.8,143.8,99.2,137.4,99.2 M137.4,83
	c2.8,0,5.3-0.7,7.5-2.1c2.2-1.4,3.9-3.3,5.2-5.7c1.2-2.4,1.8-5.2,1.8-8.3c0.1-3.1-0.5-5.9-1.8-8.4c-1.2-2.5-3-4.4-5.2-5.8
	c-2.2-1.4-4.7-2.1-7.5-2.1c-2.8,0-5.3,0.7-7.6,2.1c-2.2,1.4-4,3.3-5.2,5.8c-1.3,2.5-1.8,5.3-1.8,8.4c-0.1,3.1,0.5,5.9,1.8,8.3
	c1.2,2.4,3,4.3,5.2,5.7C132,82.3,134.6,83,137.4,83"/>
<path class="st0" d="M195,99.3c-5.4,0-10.2-1.4-14.3-4.2c-4.2-2.8-7.5-6.6-9.9-11.5c-2.4-4.9-3.6-10.4-3.6-16.7
	c0-6.2,1.2-11.8,3.6-16.7c2.4-4.9,5.7-8.7,10-11.5c4.2-2.8,9.1-4.2,14.5-4.2c2.8,0,5.5,0.4,8.1,1.3c2.6,0.9,4.9,2,7,3.5
	c2.1,1.5,3.8,3.2,5.2,5.1c1.3,1.9,2.1,3.9,2.3,5.9l-4.5,1.1V11.3h18.9V98h-17.5l-1.1-14.2l3.7,0.6c-0.2,2-1,3.8-2.3,5.6
	c-1.3,1.8-2.9,3.4-5,4.7c-2,1.4-4.4,2.5-7,3.3C200.6,98.9,197.9,99.3,195,99.3 M199.8,83.7c2.9,0,5.4-0.7,7.5-2.1
	c2.1-1.4,3.7-3.4,4.9-5.9c1.1-2.5,1.7-5.4,1.7-8.8c0-3.4-0.6-6.4-1.7-8.9c-1.1-2.5-2.8-4.5-4.9-5.9c-2.1-1.4-4.6-2.1-7.5-2.1
	c-2.9,0-5.4,0.7-7.4,2.1c-2.1,1.4-3.7,3.4-4.9,5.9c-1.2,2.5-1.8,5.5-1.8,8.9c0,3.4,0.6,6.3,1.8,8.8c1.2,2.5,2.8,4.5,4.9,5.9
	C194.4,83,196.9,83.7,199.8,83.7"/>
<path class="st0" d="M257.6,99.3c-5.4,0-10.2-1.4-14.3-4.2c-4.2-2.8-7.5-6.6-9.9-11.5c-2.4-4.9-3.6-10.4-3.6-16.7
	c0-6.2,1.2-11.8,3.6-16.7c2.4-4.9,5.7-8.7,10-11.5c4.2-2.8,9.1-4.2,14.5-4.2c2.8,0,5.5,0.4,8.1,1.3c2.6,0.9,4.9,2,7,3.5
	c2.1,1.5,3.8,3.2,5.2,5.1c1.3,1.9,2.1,3.9,2.3,5.9l-4.5,1.1V11.3h18.9V98h-17.5l-1.1-14.2l3.7,0.6c-0.2,2-1,3.8-2.3,5.6
	c-1.3,1.8-2.9,3.4-5,4.7c-2,1.4-4.4,2.5-7,3.3C263.3,98.9,260.5,99.3,257.6,99.3 M262.4,83.7c2.9,0,5.4-0.7,7.5-2.1
	c2.1-1.4,3.7-3.4,4.9-5.9c1.1-2.5,1.7-5.4,1.7-8.8c0-3.4-0.6-6.4-1.7-8.9c-1.1-2.5-2.8-4.5-4.9-5.9c-2.1-1.4-4.6-2.1-7.5-2.1
	c-2.9,0-5.4,0.7-7.4,2.1c-2.1,1.4-3.7,3.4-4.9,5.9c-1.2,2.5-1.8,5.5-1.8,8.9c0,3.4,0.6,6.3,1.8,8.8c1.2,2.5,2.8,4.5,4.9,5.9
	C257.1,83,259.5,83.7,262.4,83.7"/>
<path class="st0" d="M326,99.2c-6.5,0-12.2-1.4-17.3-4.2c-5-2.8-9-6.6-11.9-11.5c-2.9-4.8-4.4-10.4-4.4-16.6
	c0-6.2,1.5-11.8,4.4-16.6c2.9-4.8,6.9-8.7,11.9-11.5c5-2.8,10.8-4.2,17.3-4.2c6.5,0,12.2,1.4,17.3,4.2c5,2.8,9,6.6,11.9,11.5
	c2.9,4.8,4.3,10.4,4.3,16.6c0,6.2-1.4,11.8-4.3,16.6c-2.9,4.8-6.9,8.7-11.9,11.5C338.3,97.8,332.5,99.2,326,99.2 M326,83
	c2.8,0,5.3-0.7,7.5-2.1c2.2-1.4,3.9-3.3,5.2-5.7c1.2-2.4,1.8-5.2,1.8-8.3c0.1-3.1-0.5-5.9-1.8-8.4c-1.3-2.5-3-4.4-5.2-5.8
	c-2.2-1.4-4.7-2.1-7.5-2.1c-2.8,0-5.3,0.7-7.6,2.1c-2.2,1.4-4,3.3-5.2,5.8c-1.3,2.5-1.8,5.3-1.8,8.4c-0.1,3.1,0.5,5.9,1.8,8.3
	c1.2,2.4,3,4.3,5.2,5.7C320.7,82.3,323.2,83,326,83"/>
<path class="st0" d="M172.1,127.6v-12.5h2.2l4.6,7.4l-1.3,0l4.6-7.4h2.1v12.5H182v-4.7c0-1.1,0-2,0.1-2.9c0.1-0.9,0.1-1.7,0.3-2.6
	l0.3,0.8l-3.9,6h-1.2l-3.7-5.9l0.3-0.8c0.1,0.8,0.2,1.6,0.3,2.5c0.1,0.8,0.1,1.8,0.1,3v4.7H172.1z"/>
<path class="st0" d="M188.9,127.6l4.9-12.5h2.2l4.8,12.5h-2.4l-2.7-7.1c-0.1-0.1-0.1-0.4-0.2-0.7c-0.1-0.3-0.2-0.6-0.3-1
	c-0.1-0.4-0.2-0.7-0.3-1c-0.1-0.3-0.2-0.5-0.2-0.7l0.4,0c-0.1,0.2-0.2,0.5-0.2,0.8c-0.1,0.3-0.2,0.6-0.3,0.9
	c-0.1,0.3-0.2,0.6-0.3,0.9c-0.1,0.3-0.2,0.6-0.3,0.8l-2.7,7H188.9z M191.1,124.7l0.8-2h5.7l0.9,2H191.1z"/>
<path class="st0" d="M205.5,127.6v-12.5h5.4c0.8,0,1.4,0.2,2.1,0.5c0.6,0.4,1.1,0.8,1.5,1.4c0.4,0.6,0.5,1.3,0.5,2
	c0,0.7-0.2,1.4-0.5,2c-0.4,0.6-0.9,1.1-1.5,1.4c-0.6,0.4-1.3,0.5-2.1,0.5h-3.2v4.6H205.5z M207.7,121h3.2c0.3,0,0.6-0.1,0.9-0.2
	c0.3-0.2,0.5-0.4,0.6-0.7s0.2-0.6,0.2-0.9c0-0.4-0.1-0.7-0.3-1c-0.2-0.3-0.4-0.5-0.7-0.7c-0.3-0.2-0.7-0.2-1.1-0.2h-2.8V121z
	 M212.7,127.6l-3.2-5.6l2.4-0.4l3.5,6.1L212.7,127.6z"/>
<path class="st0" d="M220.6,115.1h2.3v12.5h-2.3V115.1z M222.4,123.8l-0.4-2.3l6.4-6.5h2.9L222.4,123.8z M228.8,127.6l-4.7-6.3
	l1.6-1.4l5.9,7.7H228.8z"/>
<path class="st0" d="M236.3,127.6v-12.5h8.2v2.1h-5.9v8.3h6v2.1H236.3z M237.4,120.1h6.2v2.1h-6.2V120.1z"/>
<polygon class="st0" points="252.7,127.6 252.7,117.2 249.1,117.2 249.1,115.1 258.7,115.1 258.7,117.2 255,117.2 255,127.6 "/>
<polygon class="st0" points="263.3,127.6 263.3,125.5 265.3,125.5 265.3,117.1 263.3,117.1 263.3,115.1 269.7,115.1 269.7,117.1 
	267.6,117.1 267.6,125.5 269.7,125.5 269.7,127.6 "/>
<path class="st0" d="M275.3,127.6v-12.5h2.1l7.2,9.8l-0.4,0.1c0-0.3-0.1-0.7-0.1-1c0-0.4-0.1-0.7-0.1-1.1c0-0.4-0.1-0.8-0.1-1.2
	c0-0.4,0-0.9,0-1.3c0-0.5,0-0.9,0-1.5v-3.7h2.3v12.5h-2.1l-7.3-9.6l0.5-0.1c0.1,0.7,0.1,1.2,0.2,1.7c0,0.5,0.1,0.9,0.1,1.2
	c0,0.3,0,0.6,0.1,0.8c0,0.2,0,0.4,0,0.6c0,0.2,0,0.4,0,0.5v4.8H275.3z"/>
<path class="st0" d="M297.9,127.7c-0.9,0-1.8-0.2-2.6-0.5c-0.8-0.3-1.5-0.8-2.1-1.4c-0.6-0.6-1-1.3-1.4-2c-0.3-0.8-0.5-1.6-0.5-2.5
	c0-0.9,0.2-1.7,0.5-2.5c0.3-0.8,0.8-1.5,1.4-2c0.6-0.6,1.3-1,2.1-1.3c0.8-0.3,1.7-0.5,2.6-0.5c0.7,0,1.3,0.1,1.9,0.3
	c0.6,0.2,1.2,0.4,1.6,0.7c0.5,0.3,0.9,0.7,1.2,1.1l-1.5,1.5c-0.3-0.3-0.7-0.6-1-0.8c-0.4-0.2-0.7-0.4-1.1-0.5
	c-0.4-0.1-0.8-0.2-1.2-0.2c-0.6,0-1.1,0.1-1.7,0.3c-0.5,0.2-0.9,0.5-1.3,0.9c-0.4,0.4-0.7,0.8-0.9,1.3c-0.2,0.5-0.3,1.1-0.3,1.7
	c0,0.6,0.1,1.1,0.3,1.7c0.2,0.5,0.5,1,0.9,1.4c0.4,0.4,0.8,0.7,1.4,0.9c0.5,0.2,1.1,0.3,1.6,0.3c0.4,0,0.9-0.1,1.2-0.2
	c0.4-0.1,0.7-0.3,1-0.5c0.3-0.2,0.5-0.5,0.7-0.8c0.2-0.3,0.2-0.6,0.2-1v-0.4l0.3,0.4h-3.7v-2.1h5.7c0,0.1,0,0.3,0.1,0.4
	c0,0.2,0,0.3,0,0.5c0,0.1,0,0.3,0,0.4c0,0.8-0.1,1.6-0.4,2.2c-0.3,0.7-0.7,1.3-1.2,1.7c-0.5,0.5-1.1,0.9-1.8,1.1
	C299.5,127.6,298.7,127.7,297.9,127.7"/>
<polygon class="st0" points="316.6,127.6 316.6,115.1 318.9,115.1 318.9,125.4 324.7,125.4 324.7,127.6 "/>
<path class="st0" d="M328.6,127.6l4.9-12.5h2.2l4.8,12.5h-2.4l-2.7-7.1c-0.1-0.1-0.1-0.4-0.2-0.7c-0.1-0.3-0.2-0.6-0.3-1
	c-0.1-0.4-0.2-0.7-0.3-1c-0.1-0.3-0.2-0.5-0.2-0.7l0.4,0c-0.1,0.2-0.2,0.5-0.2,0.8c-0.1,0.3-0.2,0.6-0.3,0.9
	c-0.1,0.3-0.2,0.6-0.3,0.9c-0.1,0.3-0.2,0.6-0.3,0.8l-2.7,7H328.6z M330.9,124.7l0.8-2h5.7l0.9,2H330.9z"/>
<path class="st0" d="M345.2,127.6v-12.5h5.3c0.8,0,1.5,0.1,2.1,0.4c0.6,0.2,1,0.6,1.3,1.1c0.3,0.5,0.4,1,0.4,1.7
	c0,0.7-0.2,1.3-0.6,1.7c-0.4,0.5-0.9,0.8-1.6,1l0-0.4c0.6,0.1,1,0.3,1.5,0.6c0.4,0.3,0.7,0.7,1,1.1c0.2,0.4,0.3,1,0.3,1.5
	c0,0.6-0.1,1.1-0.3,1.6c-0.2,0.5-0.5,0.9-0.9,1.2c-0.4,0.3-0.8,0.5-1.4,0.7s-1.1,0.2-1.8,0.2H345.2z M347.4,120.2h2.8
	c0.3,0,0.6-0.1,0.9-0.2c0.3-0.1,0.5-0.3,0.6-0.5c0.1-0.2,0.2-0.5,0.2-0.8c0-0.5-0.2-0.8-0.5-1.1c-0.3-0.3-0.8-0.4-1.4-0.4h-2.7
	V120.2z M347.4,125.5h3.1c0.4,0,0.8-0.1,1.1-0.2c0.3-0.1,0.5-0.3,0.7-0.6c0.2-0.3,0.2-0.6,0.2-0.9c0-0.3-0.1-0.6-0.3-0.9
	c-0.2-0.2-0.4-0.4-0.7-0.5c-0.3-0.1-0.7-0.2-1.1-0.2h-3V125.5z"/>
</svg>
