<?xml version="1.0" encoding="utf-8"?>
<!-- Generator: Adobe Illustrator 24.1.2, SVG Export Plug-In . SVG Version: 6.00 Build 0)  -->
<svg version="1.1" id="Layer_1" xmlns="http://www.w3.org/2000/svg" xmlns:xlink="http://www.w3.org/1999/xlink" x="0px" y="0px"
	 viewBox="0 0 51 51" style="enable-background:new 0 0 51 51;" xml:space="preserve">
<style type="text/css">
	.st0{fill:#696BA8;}
	.st1{fill:#FFFFFF;}
	.st2{fill:#A9C6C8;}
	.st3{fill:none;stroke:#FFFFFF;stroke-width:0.806;stroke-miterlimit:10;}
	.st4{fill:#825A92;}
	.st5{fill:#CABE63;}
	.st6{fill:#C45979;}
	.st7{fill:#D38BB6;}
	.st8{fill:none;stroke:#FFFFFF;stroke-width:0.22;stroke-miterlimit:10;}
	.st9{fill:#AB863F;}
</style>
<path class="st0" d="M-163.2,26c0,11.8-9.5,21.3-21.3,21.3c-11.8,0-21.3-9.5-21.3-21.3c0-11.8,9.5-21.3,21.3-21.3
	C-172.8,4.6-163.2,14.2-163.2,26"/>
<path class="st1" d="M-178.8,31.6h-0.9c-0.2,0-0.4-0.2-0.4-0.4c0-0.2,0.2-0.4,0.4-0.4h0.9c1.2,0,2.2-1,2.2-2.2c0-1.2-1-2.2-2.2-2.2
	h-0.9c-0.2,0-0.4-0.2-0.4-0.4c0-0.2,0.2-0.4,0.4-0.4h0.9c1.7,0,3.1,1.4,3.1,3.1C-175.8,30.2-177.1,31.6-178.8,31.6"/>
<path class="st1" d="M-181.5,36h-7.9c-1.2,0-2.2-1-2.2-2.2v-9.6c0-0.2,0.2-0.4,0.4-0.4h8.5l2-3.6c-0.2-0.2-0.3-0.4-0.4-0.6
	c-0.2-0.4-0.2-1,0-1.4c0.1-0.3,0.3-0.5,0.5-0.7c0.5-0.6,0.8-1,0.3-1.7c-0.1-0.2-0.1-0.3,0-0.5c0.1-0.1,0.3-0.2,0.5-0.2
	c1.3,0.3,2.2,1.2,2.5,2.4c0.3,1.1,0,2.3-0.7,2.9c-0.3,0.2-0.5,0.3-0.8,0.4l-1.1,3h0.2c0.2,0,0.4,0.2,0.4,0.4v9.6
	C-179.3,35-180.2,36-181.5,36 M-190.6,24.6v9.2c0,0.7,0.6,1.3,1.3,1.3h7.9c0.7,0,1.3-0.6,1.3-1.3v-9.2h-2.2c0,0,0,0,0,0H-190.6z
	 M-181.6,23.7h0.7l1.1-3c0,0-0.1,0-0.1,0L-181.6,23.7z M-179.8,19.7c0,0,0.1,0.1,0.2,0.1c0.4,0.2,0.8,0.1,1.1-0.1
	c0.4-0.4,0.6-1.2,0.5-2c-0.1-0.6-0.5-1.1-1-1.4c0,0.7-0.4,1.3-0.7,1.7c-0.2,0.2-0.3,0.4-0.4,0.5c-0.1,0.3-0.1,0.5,0,0.8
	C-180.1,19.4-180,19.6-179.8,19.7C-179.8,19.7-179.8,19.7-179.8,19.7C-179.8,19.7-179.8,19.7-179.8,19.7"/>
<path class="st1" d="M-187.6,24.6h-2.6c-0.2,0-0.3-0.1-0.4-0.2l-1.3-2.6c0,0,0-0.1,0-0.1l-0.4-2.6c0-0.2,0-0.3,0.2-0.4
	c0.1-0.1,0.3-0.1,0.5,0l2.2,1.3c0,0,0.1,0.1,0.1,0.1l0,0c0,0,0,0,0,0c0,0,0,0,0,0v0h0v0c0,0,0,0,0,0.1l2.2,3.9
	c0.1,0.1,0.1,0.3,0,0.4C-187.3,24.5-187.4,24.6-187.6,24.6 M-189.9,23.7h1.6l-1.6-2.8l-1.1,0.8L-189.9,23.7z M-191.4,19.8l0.2,1
	l0.7-0.5L-191.4,19.8z"/>
<path class="st1" d="M-183.2,24.6h-3.5c-0.2,0-0.4-0.2-0.4-0.4v-8.7c0-0.2,0.2-0.4,0.4-0.4h3.5c0.2,0,0.4,0.2,0.4,0.4v8.7
	C-182.8,24.4-183,24.6-183.2,24.6 M-186.3,23.7h2.6v-0.9h-0.4c-0.2,0-0.4-0.2-0.4-0.4c0-0.2,0.2-0.4,0.4-0.4h0.4v-0.9h-1.3
	c-0.2,0-0.4-0.2-0.4-0.4c0-0.2,0.2-0.4,0.4-0.4h1.3v-0.9h-0.4c-0.2,0-0.4-0.2-0.4-0.4c0-0.2,0.2-0.4,0.4-0.4h0.4v-0.9h-1.3
	c-0.2,0-0.4-0.2-0.4-0.4c0-0.2,0.2-0.4,0.4-0.4h1.3v-0.9h-2.6V23.7z"/>
<path class="st2" d="M46.9,26c0,11.8-9.5,21.3-21.3,21.3C13.8,47.3,4.3,37.7,4.3,26c0-11.8,9.5-21.3,21.3-21.3
	C37.4,4.6,46.9,14.2,46.9,26"/>
<path class="st3" d="M20.8,17.2C20.8,17.3,20.8,17.3,20.8,17.2l-0.1,0.2c0,0,0,0,0,0l-2,3.4l4.2,2.4l1.9-3.3l0.2-0.4l0.6-1l1.4-2.4
	h-4.2C22,16.1,21.2,16.6,20.8,17.2z"/>
<path class="st3" d="M32,20l-1.5-2.7c-0.2-0.4-0.5-0.7-0.9-0.9c-0.4-0.2-0.8-0.3-1.2-0.3h-4.2h-1.4c0.9,0,1.6,0.4,2,1.1l0.1,0.2
	l2.9,5l-1.5,0.9h4.8l2.4-4.2L32,20z"/>
<path class="st3" d="M36,26.9C36,26.9,36,26.9,36,26.9l-0.1-0.2c0,0,0,0,0,0l-2-3.4l-4.2,2.4l1.9,3.3l0.2,0.4l0.6,1l1.4,2.4l2.1-3.6
	C36.4,28.5,36.4,27.7,36,26.9z"/>
<path class="st3" d="M34,30.5h-0.3l-5.7,0v-1.7l-1,1.7l-1.4,2.4L28,37v-1.7h3.1c0.4,0,0.8-0.1,1.2-0.3c0.4-0.2,0.7-0.5,0.9-0.9
	l2.1-3.6l0.7-1.2C35.5,30,34.8,30.4,34,30.5z"/>
<path class="st3" d="M24.2,30.5h-3.8h-0.5h-1.2h-2.8l2.1,3.6c0.4,0.7,1.2,1.2,2,1.2h0h0.2c0,0,0,0,0,0h4V30.5z"/>
<path class="st3" d="M18.1,31.6l2.9-5l1.5,0.9l-1-1.7v0l-1.4-2.4h-2.8l-2,0l1.5,0.9l-1.5,2.7c-0.2,0.4-0.3,0.8-0.3,1.2
	c0,0.4,0.1,0.9,0.3,1.2l2.1,3.6l0.7,1.2c-0.4-0.7-0.4-1.6-0.1-2.3L18.1,31.6z"/>
<path class="st4" d="M-268.4,25.4c0,11.8-9.5,21.3-21.3,21.3c-11.8,0-21.3-9.5-21.3-21.3c0-11.8,9.5-21.3,21.3-21.3
	C-277.9,4.1-268.4,13.7-268.4,25.4"/>
<path class="st1" d="M-281.3,20.5c0.1-0.1,0.2-0.3,0.1-0.5c0-0.2-0.1-0.3-0.3-0.4l-1.7-0.7l-0.6-1.7c-0.1-0.2-0.2-0.3-0.4-0.3
	s-0.3,0-0.5,0.1l-1,1c-1.3-0.7-2.8-1.1-4.2-1.1c-2.3,0-4.5,0.9-6.1,2.5c-1.6,1.6-2.5,3.8-2.5,6.1c0,2.3,0.9,4.5,2.5,6.1
	c1.6,1.6,3.8,2.5,6.1,2.5c2.3,0,4.5-0.9,6.1-2.5c1.6-1.6,2.5-3.8,2.5-6.1c0-1.4-0.4-2.8-1-4.1L-281.3,20.5z M-284.8,22.6l-1-0.3
	l2.4-2.4l0.9,0.4L-284.8,22.6z M-285,25.4c0,2.6-2.1,4.7-4.7,4.7s-4.7-2.1-4.7-4.7c0-2.6,2.1-4.7,4.7-4.7c0.8,0,1.5,0.2,2.1,0.5
	l0.3,1.2L-288,23c-0.5-0.3-1.1-0.6-1.7-0.6c-1.6,0-3,1.3-3,3c0,1.6,1.3,3,3,3s3-1.3,3-3c0-0.6-0.2-1.2-0.5-1.7l0.6-0.6l1.2,0.3
	C-285.1,24-285,24.7-285,25.4 M-287.8,25.4c0,1.1-0.9,2-2,2s-2-0.9-2-2c0-1.1,0.9-2,2-2c0.4,0,0.7,0.1,1,0.3l-1.4,1.4
	c-0.2,0.2-0.2,0.5,0,0.7c0.1,0.1,0.2,0.1,0.4,0.1c0.1,0,0.3,0,0.4-0.1l1.4-1.4C-287.8,24.7-287.8,25.1-287.8,25.4 M-284.4,18.3
	l0.3,0.9l-2.4,2.4l-0.2-1L-284.4,18.3z M-282.1,25.4c0,2-0.8,3.9-2.2,5.4c-1.4,1.4-3.3,2.2-5.4,2.2s-3.9-0.8-5.4-2.2
	c-1.4-1.4-2.2-3.3-2.2-5.4c0-2,0.8-3.9,2.2-5.4c1.4-1.4,3.3-2.2,5.4-2.2c1.2,0,2.4,0.3,3.5,0.8l-1.4,1.4c0,0,0,0,0,0
	c-0.6-0.3-1.3-0.4-2.1-0.4c-3.2,0-5.8,2.6-5.8,5.8c0,3.2,2.6,5.8,5.8,5.8c3.2,0,5.8-2.6,5.8-5.8c0-0.7-0.1-1.3-0.3-1.9c0,0,0,0,0,0
	l1.4-1.4C-282.4,23.1-282.1,24.3-282.1,25.4"/>
<path class="st5" d="M362.6,24.6c0,11.8-9.5,21.3-21.3,21.3c-11.8,0-21.3-9.5-21.3-21.3c0-11.8,9.5-21.3,21.3-21.3
	C353.1,3.3,362.6,12.9,362.6,24.6"/>
<path class="st1" d="M351.3,14.8h-20.2c-0.2,0-0.4,0.2-0.4,0.4v20.2c0,0.2,0.2,0.4,0.4,0.4h17.5c0.2,0,0.4-0.2,0.4-0.4
	c0-0.2-0.2-0.4-0.4-0.4h-17v-9.8h5.9v4c0,0.2,0.2,0.4,0.4,0.4c0.2,0,0.4-0.2,0.4-0.4v-8.8c0-0.2-0.2-0.4-0.4-0.4
	c-0.2,0-0.4,0.2-0.4,0.4v3.9h-5.9v-8.6H343V21c0,0.2,0.2,0.4,0.4,0.4h4.5c0.2,0,0.4-0.2,0.4-0.4c0-0.2-0.2-0.4-0.4-0.4h-4v-4.9h7
	v13.1h-7.4c-0.2,0-0.4,0.2-0.4,0.4c0,0.2,0.2,0.4,0.4,0.4h7.4V35h-3c-0.2,0-0.4,0.2-0.4,0.4c0,0.2,0.2,0.4,0.4,0.4h3.4
	c0.2,0,0.4-0.2,0.4-0.4V15.3C351.7,15,351.6,14.8,351.3,14.8"/>
<path class="st6" d="M45.1,85c0,11.8-9.5,21.3-21.3,21.3C12,106.3,2.4,96.7,2.4,85c0-11.8,9.5-21.3,21.3-21.3
	C35.5,63.6,45.1,73.2,45.1,85"/>
<path class="st1" d="M30.8,77.1H16.3c-1.6,0.1-3.2,1.7-3.2,3.7V90c0.1,2,1.6,3.6,3.4,3.6h4.4l2.3,4.5c0.1,0.2,0.3,0.3,0.6,0.3
	c0.2,0,0.4-0.1,0.6-0.3l2.3-4.5H31c1.9,0,3.4-1.6,3.4-3.6v-9.2C34.4,78.8,32.9,77.1,30.8,77.1 M33.1,89.9c0,1.3-0.9,2.4-2.1,2.4
	h-4.7c-0.2,0-0.4,0.1-0.6,0.3l-2,3.8l-2-3.8c-0.1-0.2-0.3-0.3-0.6-0.3h-4.7c-1.2,0-2.1-1.1-2.1-2.4v-9.2c0-1.3,0.9-2.4,2.1-2.4H31
	c1.2,0,2.1,1.1,2.1,2.4V89.9z"/>
<path class="st1" d="M22.9,82.5c-0.6,0-1.2,0.2-1.6,0.6c-0.4-0.4-1-0.6-1.6-0.6c-1.3,0-2.3,1-2.3,2.3c0,0.9,0.6,1.9,1.9,2.9
	c0.9,0.7,1.7,1.1,1.7,1.1c0.1,0,0.2,0.1,0.3,0.1c0.1,0,0.2,0,0.3-0.1c0,0,0.9-0.5,1.7-1.1c1.2-1,1.9-1.9,1.9-2.8
	c0-0.6-0.2-1.2-0.7-1.6C24.1,82.7,23.5,82.5,22.9,82.5 M22.5,86.6c-0.5,0.4-1,0.7-1.3,0.9c-1-0.6-2.7-1.8-2.6-2.7
	c0-0.6,0.5-1.1,1.1-1.1c0.4,0,0.8,0.3,1,0.7c0.1,0.3,0.3,0.4,0.6,0.4c0.3,0,0.5-0.2,0.6-0.4c0.2-0.4,0.6-0.7,1-0.7
	c0.3,0,0.6,0.1,0.8,0.3c0.2,0.2,0.3,0.5,0.3,0.7C23.9,85.3,23.4,86,22.5,86.6"/>
<path class="st1" d="M29.1,82.2c-0.1,0-0.2,0-0.2,0.1l-1.1,0.7c-0.2,0.1-0.2,0.3-0.2,0.4c0,0.3,0.2,0.5,0.4,0.5c0.1,0,0.1,0,0.2-0.1
	l0.2-0.1v4.2c0,0.3,0.3,0.4,0.6,0.4c0.3,0,0.6-0.1,0.6-0.4v-5.3C29.7,82.4,29.4,82.2,29.1,82.2"/>
<path class="st7" d="M152.2,24.6c0,11.8-9.5,21.3-21.3,21.3c-11.8,0-21.3-9.5-21.3-21.3c0-11.8,9.5-21.3,21.3-21.3
	C142.7,3.3,152.2,12.9,152.2,24.6"/>
<path class="st1" d="M140.5,19.4h-1.6c0-0.1,0.1-0.1,0.1-0.2c0.2-0.4,0.2-0.9,0.1-1.3l-0.5-1.3c-0.2-0.4-0.5-0.8-0.9-1
	c-0.4-0.2-0.9-0.2-1.3,0l-3.8,1.8c-0.2-0.1-0.4-0.2-0.7-0.2h-1.7c-0.3,0-0.5,0.1-0.7,0.2l-3.8-1.8c-0.4-0.2-0.9-0.2-1.3,0
	c-0.4,0.2-0.8,0.5-0.9,1l-0.5,1.3c-0.2,0.4-0.1,0.9,0.1,1.3c0,0.1,0.1,0.1,0.1,0.2h-1.6c-0.2,0-0.3,0.1-0.3,0.3V23
	c0,0.2,0.1,0.3,0.3,0.3c0.2,0,0.3-0.1,0.3-0.3v-3h2.1c0,0,0.1,0,0.1,0l2.6,0.7c-0.6,0.9-1.1,1.8-1.5,2.7h-3.3v-0.4
	c0-0.2-0.1-0.3-0.3-0.3c-0.2,0-0.3,0.1-0.3,0.3v0.7c0,0.2,0.1,0.3,0.3,0.3h1.1v10.8c0,0.2,0.1,0.3,0.3,0.3h16.3
	c0.2,0,0.3-0.1,0.3-0.3v-1.8c0-0.2-0.1-0.3-0.3-0.3s-0.3,0.1-0.3,0.3v1.5h-6V24.3c0.9,1.6,1.4,3.4,1.7,5.2c0,0.1,0.1,0.2,0.2,0.3
	c0,0,0,0,0.1,0c0.1,0,0.2,0,0.2-0.1c0.4-0.6,0.8-1.2,1.2-1.9c0.6,0.4,1.2,0.9,1.8,1.4c0.1,0.1,0.2,0.1,0.3,0
	c0.1-0.1,0.2-0.2,0.2-0.3c-0.2-1.7-0.7-3.3-1.3-4.8h1.6v9c0,0.2,0.1,0.3,0.3,0.3s0.3-0.1,0.3-0.3v-9h1.1c0.2,0,0.3-0.1,0.3-0.3v-4.1
	C140.8,19.5,140.6,19.4,140.5,19.4 M136.6,16.2c0.3-0.1,0.6-0.1,0.9,0c0.3,0.1,0.5,0.3,0.6,0.6l0.5,1.3c0.1,0.3,0.1,0.6-0.1,0.9
	c-0.1,0.3-0.4,0.5-0.7,0.5l-4.8,1.3v-1.5c1.1-0.7,3.8-2,4.5-1.1c0.1,0.1,0.3,0.2,0.4,0.1c0.1-0.1,0.2-0.3,0.1-0.4
	c-0.5-0.7-1.6-0.8-3.3-0.1c-0.7,0.3-1.3,0.6-1.7,0.8v-0.2c0-0.2,0-0.3-0.1-0.5L136.6,16.2z M130.1,17.8h1.7c0.3,0,0.6,0.2,0.6,0.6
	v2.5c0,0.3-0.2,0.6-0.6,0.6h-1.7c-0.3,0-0.6-0.2-0.6-0.6v-2.5C129.5,18.1,129.8,17.8,130.1,17.8 M129.5,23.5c0.3-0.5,0.6-1,0.9-1.4
	h0.9c0.3,0.5,0.7,0.9,0.9,1.4H129.5z M123.4,18.9c-0.1-0.3-0.2-0.6-0.1-0.9l0.5-1.3c0.1-0.3,0.3-0.5,0.6-0.6c0.3-0.1,0.6-0.1,0.9,0
	l3.7,1.8c-0.1,0.1-0.1,0.3-0.1,0.5v0.2c-0.4-0.2-1-0.6-1.7-0.9c-1.6-0.7-2.7-0.6-3.3,0.1c-0.1,0.1-0.1,0.3,0.1,0.4
	c0.1,0.1,0.3,0.1,0.4-0.1c0.7-1,3.4,0.4,4.5,1.1v1.4l-4.8-1.3C123.8,19.4,123.5,19.2,123.4,18.9 M129,21.4c0.2,0.3,0.4,0.5,0.7,0.6
	c-1.4,2-2.4,4.3-2.9,6.7c-0.3-0.5-0.6-1-0.9-1.5c0-0.1-0.1-0.1-0.2-0.1c-0.1,0-0.2,0-0.2,0c-0.5,0.3-1,0.7-1.5,1.1
	c0.5-2.6,1.5-5.1,3-7.3L129,21.4z M123.1,24.1h1.6c-0.6,1.6-1.1,3.2-1.3,4.8c0,0.1,0,0.3,0.2,0.3c0.1,0.1,0.3,0,0.3,0
	c0.6-0.5,1.2-1,1.8-1.4c0.4,0.6,0.8,1.3,1.2,1.9c0.1,0.1,0.1,0.1,0.2,0.1c0,0,0.1,0,0.1,0c0.1,0,0.2-0.1,0.2-0.3
	c0.3-1.8,0.9-3.6,1.7-5.2v10.3h-6V24.1z M129.7,24.1h2.4v10.5h-2.4V24.1z M136.3,27.1c-0.1,0-0.2-0.1-0.2,0c-0.1,0-0.2,0.1-0.2,0.1
	c-0.3,0.5-0.6,1-0.9,1.5c-0.5-2.4-1.4-4.7-2.9-6.7c0.3-0.1,0.6-0.3,0.7-0.6l2-0.5c1.5,2.2,2.5,4.7,3,7.3
	C137.3,27.8,136.8,27.4,136.3,27.1 M140.2,23.5h-3.3c-0.4-0.9-0.9-1.9-1.5-2.7L138,20c0,0,0.1,0,0.1,0h2.1V23.5z"/>
<path class="st8" d="M140.5,19.4h-1.6c0-0.1,0.1-0.1,0.1-0.2c0.2-0.4,0.2-0.9,0.1-1.3l-0.5-1.3c-0.2-0.4-0.5-0.8-0.9-1
	c-0.4-0.2-0.9-0.2-1.3,0l-3.8,1.8c-0.2-0.1-0.4-0.2-0.7-0.2h-1.7c-0.3,0-0.5,0.1-0.7,0.2l-3.8-1.8c-0.4-0.2-0.9-0.2-1.3,0
	c-0.4,0.2-0.8,0.5-0.9,1l-0.5,1.3c-0.2,0.4-0.1,0.9,0.1,1.3c0,0.1,0.1,0.1,0.1,0.2h-1.6c-0.2,0-0.3,0.1-0.3,0.3V23
	c0,0.2,0.1,0.3,0.3,0.3c0.2,0,0.3-0.1,0.3-0.3v-3h2.1c0,0,0.1,0,0.1,0l2.6,0.7c-0.6,0.9-1.1,1.8-1.5,2.7h-3.3v-0.4
	c0-0.2-0.1-0.3-0.3-0.3c-0.2,0-0.3,0.1-0.3,0.3v0.7c0,0.2,0.1,0.3,0.3,0.3h1.1v10.8c0,0.2,0.1,0.3,0.3,0.3h16.3
	c0.2,0,0.3-0.1,0.3-0.3v-1.8c0-0.2-0.1-0.3-0.3-0.3s-0.3,0.1-0.3,0.3v1.5h-6V24.3c0.9,1.6,1.4,3.4,1.7,5.2c0,0.1,0.1,0.2,0.2,0.3
	c0,0,0,0,0.1,0c0.1,0,0.2,0,0.2-0.1c0.4-0.6,0.8-1.2,1.2-1.9c0.6,0.4,1.2,0.9,1.8,1.4c0.1,0.1,0.2,0.1,0.3,0
	c0.1-0.1,0.2-0.2,0.2-0.3c-0.2-1.7-0.7-3.3-1.3-4.8h1.6v9c0,0.2,0.1,0.3,0.3,0.3s0.3-0.1,0.3-0.3v-9h1.1c0.2,0,0.3-0.1,0.3-0.3v-4.1
	C140.8,19.5,140.6,19.4,140.5,19.4z M136.6,16.2c0.3-0.1,0.6-0.1,0.9,0c0.3,0.1,0.5,0.3,0.6,0.6l0.5,1.3c0.1,0.3,0.1,0.6-0.1,0.9
	c-0.1,0.3-0.4,0.5-0.7,0.5l-4.8,1.3v-1.5c1.1-0.7,3.8-2,4.5-1.1c0.1,0.1,0.3,0.2,0.4,0.1c0.1-0.1,0.2-0.3,0.1-0.4
	c-0.5-0.7-1.6-0.8-3.3-0.1c-0.7,0.3-1.3,0.6-1.7,0.8v-0.2c0-0.2,0-0.3-0.1-0.5L136.6,16.2z M130.1,17.8h1.7c0.3,0,0.6,0.2,0.6,0.6
	v2.5c0,0.3-0.2,0.6-0.6,0.6h-1.7c-0.3,0-0.6-0.2-0.6-0.6v-2.5C129.5,18.1,129.8,17.8,130.1,17.8z M129.5,23.5c0.3-0.5,0.6-1,0.9-1.4
	h0.9c0.3,0.5,0.7,0.9,0.9,1.4H129.5z M123.4,18.9c-0.1-0.3-0.2-0.6-0.1-0.9l0.5-1.3c0.1-0.3,0.3-0.5,0.6-0.6c0.3-0.1,0.6-0.1,0.9,0
	l3.7,1.8c-0.1,0.1-0.1,0.3-0.1,0.5v0.2c-0.4-0.2-1-0.6-1.7-0.9c-1.6-0.7-2.7-0.6-3.3,0.1c-0.1,0.1-0.1,0.3,0.1,0.4
	c0.1,0.1,0.3,0.1,0.4-0.1c0.7-1,3.4,0.4,4.5,1.1v1.4l-4.8-1.3C123.8,19.4,123.5,19.2,123.4,18.9z M129,21.4c0.2,0.3,0.4,0.5,0.7,0.6
	c-1.4,2-2.4,4.3-2.9,6.7c-0.3-0.5-0.6-1-0.9-1.5c0-0.1-0.1-0.1-0.2-0.1c-0.1,0-0.2,0-0.2,0c-0.5,0.3-1,0.7-1.5,1.1
	c0.5-2.6,1.5-5.1,3-7.3L129,21.4z M123.1,24.1h1.6c-0.6,1.6-1.1,3.2-1.3,4.8c0,0.1,0,0.3,0.2,0.3c0.1,0.1,0.3,0,0.3,0
	c0.6-0.5,1.2-1,1.8-1.4c0.4,0.6,0.8,1.3,1.2,1.9c0.1,0.1,0.1,0.1,0.2,0.1c0,0,0.1,0,0.1,0c0.1,0,0.2-0.1,0.2-0.3
	c0.3-1.8,0.9-3.6,1.7-5.2v10.3h-6V24.1z M129.7,24.1h2.4v10.5h-2.4V24.1z M136.3,27.1c-0.1,0-0.2-0.1-0.2,0c-0.1,0-0.2,0.1-0.2,0.1
	c-0.3,0.5-0.6,1-0.9,1.5c-0.5-2.4-1.4-4.7-2.9-6.7c0.3-0.1,0.6-0.3,0.7-0.6l2-0.5c1.5,2.2,2.5,4.7,3,7.3
	C137.3,27.8,136.8,27.4,136.3,27.1z M140.2,23.5h-3.3c-0.4-0.9-0.9-1.9-1.5-2.7L138,20c0,0,0.1,0,0.1,0h2.1V23.5z"/>
<path class="st9" d="M257.4,24.6c0,11.8-9.5,21.3-21.3,21.3c-11.8,0-21.3-9.5-21.3-21.3c0-11.8,9.5-21.3,21.3-21.3
	C247.9,3.3,257.4,12.9,257.4,24.6"/>
<path class="st1" d="M230.3,27.2c0.2-0.1,0.3-0.4,0.2-0.6c-0.1-0.2-0.4-0.3-0.6-0.2c-0.2,0.1-0.3,0.4-0.2,0.6
	C229.8,27.3,230,27.4,230.3,27.2"/>
<path class="st1" d="M228.4,30.5l2.4,4.1c0.5,0.9,1.6,1.2,2.6,0.7c0.9-0.5,1.2-1.7,0.7-2.6l-1.4-2.4l1.2-0.7
	c0.2-0.1,0.3-0.4,0.2-0.6l-0.6-1.1c0.1,0,0.5-0.1,8.9-1.8c1-0.1,1.7-1.2,1.1-2.1l-1.6-2.7l1-1.5c0.1-0.1,0.1-0.3,0-0.5l-0.9-1.6
	c-0.1-0.2-0.3-0.2-0.4-0.2l-1.8,0.1l-1.7-3c-0.3-0.4-0.7-0.7-1.2-0.7h0c-0.5,0-0.9,0.2-1.2,0.6l-6.1,7.8l-4,2.3
	c-1.6,0.9-2.1,2.9-1.2,4.5C225.1,30.5,226.9,31.1,228.4,30.5 M233.1,33.1c0.3,0.4,0.1,1-0.3,1.3c-0.4,0.3-1,0.1-1.3-0.3l-2.3-4
	l1.6-0.9C233.5,33.8,233.1,33.1,233.1,33.1 M232.1,29.4l-0.5-0.8l0.8-0.5l0.5,0.8L232.1,29.4z M241.3,18.4l0.6,1.1l-0.6,0.9
	l-1.1-1.9L241.3,18.4z M236.4,15c0.1-0.2,0.3-0.2,0.4-0.2c0.1,0,0.3,0,0.4,0.2l5.4,9.4c0.2,0.3,0,0.7-0.4,0.7c-0.1,0-0.1,0-0.3,0
	l-5.7-10C236.3,15.1,236.3,15.1,236.4,15 M235.6,16l5.4,9.4l-8.2,1.6l-2.5-4.3L235.6,16z M225.1,28.6c-0.2-0.4-0.3-0.8-0.3-1.2
	c0-0.8,0.4-1.6,1.2-2l3.6-2.1l2.3,4l-3.6,2.1C227.2,30.1,225.8,29.7,225.1,28.6"/>
<path class="st1" d="M228.8,27.5c-0.1-0.2-0.4-0.3-0.6-0.2l-0.8,0.5c-0.2,0.1-0.5,0.1-0.6-0.2c-0.1-0.2-0.4-0.3-0.6-0.2
	c-0.2,0.1-0.3,0.4-0.2,0.6c0.4,0.7,1.2,0.9,1.9,0.5l0.8-0.5C228.9,28,229,27.8,228.8,27.5"/>
<path class="st1" d="M247.1,14.9l-2.6,1.4c-0.2,0.1-0.3,0.4-0.2,0.6c0.1,0.2,0.4,0.3,0.6,0.2l2.6-1.4c0.2-0.1,0.3-0.4,0.2-0.6
	S247.3,14.8,247.1,14.9"/>
<path class="st1" d="M246.8,19.7l-1.8-0.5c-0.2-0.1-0.5,0.1-0.6,0.3c-0.1,0.2,0.1,0.5,0.3,0.6l1.8,0.5c0.3,0.1,0.5-0.1,0.6-0.3
	C247.2,20,247.1,19.8,246.8,19.7"/>
<path class="st1" d="M242.3,13.2l-0.5,1.8c-0.1,0.2,0.1,0.5,0.3,0.6c0.2,0.1,0.5-0.1,0.6-0.3l0.5-1.8c0.1-0.2-0.1-0.5-0.3-0.6
	C242.6,12.8,242.4,12.9,242.3,13.2"/>
</svg>
